<svg xmlns="http://www.w3.org/2000/svg" viewBox="0 0 17.05001 16.13128"><defs><style>.a{isolation:isolate;}.b{mix-blend-mode:multiply;}.c{fill:#6f639d;}</style></defs><g class="a"><g class="b"><path class="c" d="M17.05,3.60417c-.11079.42149-.22617.84184-.33157,1.26467q-.57486,2.30607-1.14459,4.61342a.58346.58346,0,0,1-.68334.53068q-4.44542.00045-8.89082.00017H5.76128a3.08834,3.08834,0,0,0,.52518,1.2055.9481.9481,0,0,0,.68.30745c.33661.0292.67536.04609,1.01321.04645q3.39647.00363,6.793-.002a.5707.5707,0,0,1,.6149.74367.55225.55225,0,0,1-.53.38156c-.29964.00411-.59937.00125-.89906.00122-2.11448-.00015-4.229.00351-6.34342-.0045a6.44407,6.44407,0,0,1-1.00878-.08875,1.91545,1.91545,0,0,1-1.54029-1.207,15.18384,15.18384,0,0,1-.59479-1.8115C3.85568,7.3012,3.2598,5.01194,2.65545,2.725a1.09268,1.09268,0,0,0-1.217-.96566c-.27166-.009-.54385-.0005-.81575-.00366A.57281.57281,0,1,1,.62683.61475,10.15694,10.15694,0,0,1,1.856.66,2.11391,2.11391,0,0,1,3.72873,2.40843c.0201.08061.04149.16089.06161.2415.06922.27734.0691.27737.38763.24476V2.70678q0-1.01552.00029-2.031C4.17893.21486,4.3907.001,4.84681.00061Q6.262-.00052,7.67722.00068a.57715.57715,0,0,1,.64971.65808q.00072.54937.00011,1.09875v.18872c.07573-.062.12515-.10311.17522-.1434a2.5269,2.5269,0,0,1,2.38946-.494.234.234,0,0,0,.259-.06657A2.99226,2.99226,0,0,1,14.16958.50842a3.00621,3.00621,0,0,1,2.14994,2.26433c.01107.04206.02453.08349.04051.13748a.62863.62863,0,0,1,.69.42756ZM4.18078,4.04373c.01289.05959.02047.103.03172.14542q.59614,2.2479,1.1899,4.49643a.20746.20746,0,0,0,.2438.18885Q10.0064,8.866,14.36661,8.874c.15456.00027.21633-.03829.2539-.19435.27865-1.15747.569-2.31211.855-3.46781.09546-.38572.189-.77193.28584-1.16809Zm.641-1.14643a.76066.76066,0,0,0,.08134.01053c.88693.00059,1.77388-.00143,2.66079.003.14816.00074.15964-.08848.15987-.19323.00126-.5709.00354-1.14183-.001-1.7127a.40133.40133,0,0,0-.404-.42126Q6.27133.57167,5.22358.5832a.38817.38817,0,0,0-.3994.38754C4.81749,1.6078,4.82181,2.245,4.82181,2.8973Zm10.545.01147a2.10946,2.10946,0,0,0-1.45648-1.50926,2.083,2.083,0,0,0-2.03614.44919,2.734,2.734,0,0,1,.677.93686.17837.17837,0,0,0,.1974.1256c.765-.00442,1.52994-.00239,2.29491-.00239Z"/><path class="c" d="M13.16146,16.13126a1.38458,1.38458,0,1,1,1.39057-1.378A1.375,1.375,0,0,1,13.16146,16.13126Z"/><path class="c" d="M7.0981,16.13082a1.38444,1.38444,0,1,1,1.37464-1.39245A1.38574,1.38574,0,0,1,7.0981,16.13082Z"/><path class="c" d="M7.79125,6.32134c0,.33812.001.67624-.00034,1.01435a.39412.39412,0,0,1-.78823-.00282Q7,6.31853,7.0026,5.30416A.39427.39427,0,1,1,7.791,5.307C7.792,5.6451,7.79126,5.98322,7.79125,6.32134Z"/><path class="c" d="M9.357,6.303c0-.33807-.00106-.67614.00037-1.01421a.35972.35972,0,0,1,.38378-.3839.36342.36342,0,0,1,.40177.3845q.00376,1.02251.0002,2.045a.39293.39293,0,1,1-.78586-.00059C9.35624,6.99023,9.357,6.64662,9.357,6.303Z"/><path class="c" d="M12.49126,6.33018c0,.34349.00163.687-.00058,1.03045a.3905.3905,0,0,1-.77867.0128q-.00486-1.05535-.00012-2.11076a.39054.39054,0,0,1,.77869.00382C12.49308,5.621,12.49126,5.97562,12.49126,6.33018Z"/></g></g></svg>