<svg xmlns="http://www.w3.org/2000/svg" viewBox="0 0 18.40767 18.4133"><defs><style>.a{isolation:isolate;}.b{fill:#6f639d;mix-blend-mode:multiply;}</style></defs><g class="a"><path class="b" d="M.00009,9.19128a9.20375,9.20375,0,1,1,9.18471,9.2219A9.21172,9.21172,0,0,1,.00009,9.19128Zm8.75818,6.29055H9.99734v-1.244a9.80742,9.80742,0,0,0,1.00731-.358A2.77684,2.77684,0,0,0,12.2313,9.90751a3.25431,3.25431,0,0,0-1.30359-1.15113c-.44609-.234-.912-.43019-1.36911-.64313a4.386,4.386,0,0,1-1.25818-.72232.87627.87627,0,0,1,.20277-1.49164,1.88486,1.88486,0,0,1,1.71269-.04158.6829.6829,0,0,1,.452.72318c-.00826.0969-.00125.19511-.00125.29837h1.64274c0-.31595.00343-.62019-.00088-.92432a1.47678,1.47678,0,0,0-.37184-.97534,2.69566,2.69566,0,0,0-1.39345-.79024c-.17821-.04833-.36069-.08092-.55519-.12379v-1.263H8.755V4.068c-.21906.05739-.42758.099-.62674.1678a4.21211,4.21211,0,0,0-.60012.25612A2.5322,2.5322,0,0,0,6.43912,7.96784,3.37668,3.37668,0,0,0,7.92789,9.34452c.55483.29563,1.13475.544,1.69155.83616a4.11192,4.11192,0,0,1,.82484.5399,1.015,1.015,0,0,1-.14106,1.634,1.63206,1.63206,0,0,1-.98.25342,2.45187,2.45187,0,0,1-1.66913-.74159c-.20414-.1986-.381-.42523-.57668-.64635L5.83052,12.26292a4.08811,4.08811,0,0,0,2.75479,1.912c.14824.0278.17757.08533.17519.21716C8.754,14.75226,8.75827,15.11261,8.75827,15.48183Z"/></g></svg>