<svg xmlns="http://www.w3.org/2000/svg" viewBox="0 0 17.86723 15.90735"><defs><style>.a{isolation:isolate;}.b{mix-blend-mode:multiply;}.c{fill:#6f639d;}</style></defs><g class="a"><g class="b"><path class="c" d="M17.86723,7.74423V8.163c-.12486.1485-.22221.35035-.38134.43239a.53742.53742,0,0,0-.29108.46345c-.23327,1.41066-.47472,2.82-.69645,4.23245a.62956.62956,0,0,0,.12523.42263.77367.77367,0,0,1-1.11586,1.0706.6157.6157,0,0,0-.414-.13366q-2.58013.30737-5.15581.65115a.564.564,0,0,0-.33673.23158.78475.78475,0,0,1-1.33949-.00408.56241.56241,0,0,0-.33853-.22891Q5.34745,14.95752,2.767,14.65a.61563.61563,0,0,0-.41275.13767A.78141.78141,0,0,1,1.28084,14.785a.79112.79112,0,0,1-.03679-1.07579.57683.57683,0,0,0,.1284-.38823Q1.0282,11.15125.64537,8.9878a.60864.60864,0,0,0-.2508-.357A.77887.77887,0,0,1,.39562,7.27527.60733.60733,0,0,0,.64569,6.9181q.383-2.16322.72693-4.33324a.58028.58028,0,0,0-.12724-.38917A.77268.77268,0,0,1,2.354,1.12041a.61645.61645,0,0,0,.41343.1372Q5.34774.95073,7.92352.607A.56207.56207,0,0,0,8.26174.37772a.78482.78482,0,0,1,1.3395-.004.563.563,0,0,0,.33638.23175q2.59294.34526,5.19041.656a.51557.51557,0,0,0,.35539-.1125.77252.77252,0,1,1,1.11583,1.06851.48773.48773,0,0,0-.11266.32976q.35933,2.238.747,4.47144a.483.483,0,0,0,.13553.21752C17.53044,7.40993,17.70058,7.57546,17.86723,7.74423Zm-2.96468-.0697c.4552,0,.85079.01033,1.24519-.00679a.6693.6693,0,0,0,.31429-.14409c.2328-.16123.22749-.37939.18082-.64257-.24754-1.396-.47226-2.796-.70948-4.19383a1.48272,1.48272,0,0,0-.10638-.27794,1.488,1.488,0,0,0-.277.16617c-.23742.22258-.471.45048-.68874.692a.41019.41019,0,0,0-.08438.28587c.0277.274.11351.54428.12142.81761.01721.59477-.015.61555-.59429.61586q-4.13414.00219-8.26826.00264c-.8838.00012-1.76764-.00679-2.65137.00012-.29312.00229-.4494-.11334-.41655-.41216.0388-.353.09988-.70345.14435-1.05589a.25134.25134,0,0,0-.03476-.18242c-.31913-.33091-.64661-.65375-1.00989-1.01729a1.42563,1.42563,0,0,0-.11893.26494q-.38229,2.25173-.75566,4.505c-.03387.20488.23145.57234.42591.57784.43762.01237.87582.00388,1.34363.00388,0-.54914.00021-1.05846-.00006-1.56778-.00028-.5199.03845-.562.54921-.56206q5.44236-.00042,10.88473.001c.4472.00008.50512.05745.50593.5C14.90329,6.57648,14.90255,7.10841,14.90255,7.67453ZM9.21325,2.94686c.13405.00684.22556.01428.31716.01577q2.333.038,4.66608.07321a.18837.18837,0,0,0,.12431-.03567c.34957-.34593.69516-.69588,1.06356-1.06677a.96447.96447,0,0,0-.18736-.08491q-2.7147-.34885-5.43021-.69131a.6849.6849,0,0,0-.55178.503C9.2092,2.07714,9.21325,2.49426,9.21325,2.94686ZM9.21341,12.9472c0,.44043-.00125.8236.00037,1.20677a.6036.6036,0,0,0,.66844.5809q2.57746-.32277,5.15421-.65118a3.43114,3.43114,0,0,0,.39888-.11162,7.18857,7.18857,0,0,1-.64519-.61321,1.13969,1.13969,0,0,0-1.08713-.44071c-1.07679.07076-2.16113.02671-3.24239.02892C10.05645,12.9479,9.65231,12.9472,9.21341,12.9472ZM2.54055,1.89485l-.08025.14054a3.33481,3.33481,0,0,1,.51345.41175,1.381,1.381,0,0,0,1.28965.54318c1.319-.08956,2.64828-.02881,3.97336-.0293.13375,0,.26751,0,.41684,0,0-.43669.00235-.81933-.0007-1.20193a.6072.6072,0,0,0-.668-.58738q-2.594.32414-5.18718.65414A1.90429,1.90429,0,0,0,2.54055,1.89485Zm6.11329,11.053c-.26835,0-.52982.00382-.79116-.00064q-2.08889-.03566-4.17775-.07274a.23317.23317,0,0,0-.15349.04519c-.345.33692-.68455.67943-1.07062,1.06535a2.70878,2.70878,0,0,0,.32888.09425q2.52435.32328,5.04961.63936c.57566.07108.81359-.15273.81445-.735C8.65424,13.65827,8.65384,13.33291,8.65384,12.94789ZM2.96355,8.23331c-.46184,0-.87846-.0061-1.29478.0023a.58066.58066,0,0,0-.47347.59905q.37256,2.25267.75648,4.50344a1.16718,1.16718,0,0,0,.14233.259c.35073-.36463.66733-.68489.96972-1.01806.0436-.048.0338-.1602.02292-.23912a6.16594,6.16594,0,0,1-.11747-.74811C2.956,10.48856,2.96355,9.38509,2.96355,8.23331Zm11.93712-.00042c0,1.12109.00927,2.20059-.00625,3.27973a6.53767,6.53767,0,0,1-.129.85c-.00921.06185-.02681.15246.00524.1858.32618.33932.66185.66953,1.0139,1.02131.066-.0977.11557-.13929.12378-.18786q.38929-2.30306.76805-4.60787a.61453.61453,0,0,0-.46908-.539C15.79,8.22805,15.37251,8.23289,14.90067,8.23289ZM4.77734,4.7117c.18179-.19436.37814-.30766.39238-.44048.02618-.24418-.20546-.26018-.3996-.26113-.20617-.001-.45034.012-.42162.27556C4.36258,4.41487,4.5772,4.52224,4.77734,4.7117Zm1.39443-.01323c.18124-.1757.37935-.2771.39575-.40229.03535-.27-.20193-.286-.40959-.28618-.20779-.00017-.44981.01916-.41293.28338C5.76313,4.42332,5.98022,4.52549,6.17177,4.69847ZM7.551,4.7113c.19165-.19129.3991-.30168.41159-.43092.026-.26924-.2218-.269-.42511-.27036-.19784-.0013-.42457.02872-.39655.26643C7.15647,4.40846,7.35984,4.51833,7.551,4.7113Z"/></g></g></svg>