<svg xmlns="http://www.w3.org/2000/svg" viewBox="0 0 18.19792 16.07555"><defs><style>.a{isolation:isolate;}.b{mix-blend-mode:multiply;}.c{fill:#6f639d;}</style></defs><g class="a"><g class="b"><path class="c" d="M12.91207,10.94317h-2.0832c0,.2418.00327.47394-.00066.706a.70955.70955,0,0,1-.98541.68055.71859.71859,0,0,1-.45612-.71716A4.97893,4.97893,0,0,0,5.20212,6.76865,4.81381,4.81381,0,0,0,1.29792,7.8007a.757.757,0,0,1-1.0902-.02536A.71242.71242,0,0,1,.3366,6.71609a11.10871,11.10871,0,0,1,.996-.67083.28751.28751,0,0,0,.16649-.2864C1.494,4.13493,1.49577,2.511,1.49594.887c.00006-.61085.27284-.8868.87712-.88687q2.76978-.00033,5.53957,0A.72285.72285,0,0,1,8.74.60714c.26358.982.50392,1.97031.75176,2.95654q.356,1.41665.70828,2.83423c.02213.08847.03049.17371.16727.17217.66072-.00741,1.32155-.00363,1.98234-.00464a.68361.68361,0,0,0,.09809-.01836c0-.07715-.00028-.15537,0-.2336.00408-.98169-.01241-1.96405.01916-2.94486A1.77034,1.77034,0,0,1,13.49049,1.694a2.30143,2.30143,0,0,1,1.11172-.21564v.68842a.77738.77738,0,0,0-.61558.69721,3.98685,3.98685,0,0,0-.087.78841c-.01017.9261-.00414,1.85237-.00382,2.77857,0,.03619.00455.07237.00883.13611h.21959l3.31633,0c.0494,0,.09881-.00037.14821.00011.52782.00515.72356.27447.54436.76949-.32938.90989-.66728,1.8167-1.00172,2.72476a1.2426,1.2426,0,0,1-.822.85014,2.7749,2.7749,0,0,1,1.06075,2.61848,2.67484,2.67484,0,0,1-.9723,1.73567,2.78085,2.78085,0,0,1-3.60328-.05735,2.70423,2.70423,0,0,1-.93393-2.15134A2.77974,2.77974,0,0,1,12.91207,10.94317ZM2.95216,5.09722H8.3939a.91059.91059,0,0,0-.01308-.10507c-.291-1.13364-.58627-2.26619-.86968-3.40171-.037-.14817-.11965-.14431-.22785-.14425-1.37643.00072-2.75287.00362-4.12926-.00345-.17486-.0009-.21576.05467-.21474.22048.00662,1.07994.00326,2.16.00378,3.23994C2.9431,4.9637,2.9486,5.02424,2.95216,5.09722Zm13.29269,8.034a1.6171,1.6171,0,1,0-1.6135,1.61549A1.62576,1.62576,0,0,0,16.24485,13.13118Z"/><path class="c" d="M1.24234,14.66439a.43338.43338,0,0,1-.15055-.09144c-.13853-.165-.267-.339-.39-.516a.2456.2456,0,0,1-.03592-.17106c.051-.24757.001-.33971-.24228-.45943a.29451.29451,0,0,1-.12027-.15409c-.06349-.16666-.1164-.33759-.16773-.50856a.34312.34312,0,0,1,.05688-.35431c.05586-.07174-.02329-.2595-.061-.38935-.025-.086-.11551-.15951-.12218-.243a2.54249,2.54249,0,0,1,.01521-.57207.46378.46378,0,0,1,.16009-.23746.522.522,0,0,0,.08858-.41167.48442.48442,0,0,1-.04187-.28121,3.0723,3.0723,0,0,1,.17994-.46417c.05333-.124.10335-.22445.28177-.24513.077-.00892.19275-.23044.18131-.34438a1.04216,1.04216,0,0,1,.721-.79705c.10879-.0002.22658-.14768.32258-.24551.06138-.06253.07152-.18208.13785-.23158a3.23739,3.23739,0,0,1,.43305-.24644c.12551-.06628.24636-.139.38756-.0101.06147.05609.31656-.08013.3744-.15735a.417.417,0,0,1,.19863-.16249,4.91379,4.91379,0,0,1,.61985-.09873.25374.25374,0,0,1,.16927.05114.34165.34165,0,0,0,.52026.0071A.254.254,0,0,1,4.932,7.29466c.21892.03379.4372.07434.65295.12431a.24491.24491,0,0,1,.13968.108c.11942.2094.22753.25419.47307.177.15959-.05014.84693.32887.83681.48736-.01116.17463.101.23415.19439.323.02155.02051.0577.05263.07527.04633.26817-.09612.35275.13809.48667.27277a1.75383,1.75383,0,0,1,.22375.29418.26626.26626,0,0,1,.0448.16961c-.04186.24569.01913.34825.25821.45156a.31543.31543,0,0,1,.1394.16071c.07179.16981.12717.34653.1901.52013a.25868.25868,0,0,1-.05279.3044c-.07466.07534.002.3345.07869.40873a.39834.39834,0,0,1,.1379.23375,9.24311,9.24311,0,0,1-.0417.95956.38552.38552,0,0,1-.15683.21847.46861.46861,0,0,0-.10863.41915.38827.38827,0,0,1,.03117.25341,4.6027,4.6027,0,0,1-.25827.57156.26164.26164,0,0,1-.14858.12089.33932.33932,0,0,0-.27924.42045.30366.30366,0,0,1-.08136.1949c-.11687.135-.24663.259-.37215.38652a.37106.37106,0,0,1-.32459.11129c-.10268-.00617-.22357.14094-.32025.236-.06779.06665-.09041.18885-.165.237a3.30753,3.30753,0,0,1-.51265.25422.30884.30884,0,0,1-.21028.0124c-.23842-.09258-.3315-.06411-.49933.15082a.32462.32462,0,0,1-.19241.09318c-.16991.028-.34231.04242-.5142.05619a.33969.33969,0,0,1-.33611-.12564.4108.4108,0,0,0-.38885.00148,1.05546,1.05546,0,0,1-1.04242-.25869c-.05246-.09576-.23823-.12911-.37022-.167-.08978-.02577-.20571.01926-.2848-.01915a4.11047,4.11047,0,0,1-.45121-.28844.25766.25766,0,0,1-.14706-.28729C1.6561,14.82006,1.43346,14.65753,1.24234,14.66439Zm3.16679-.21047a2.785,2.785,0,1,0-2.78081-2.79464A2.78769,2.78769,0,0,0,4.40913,14.45392Z"/><path class="c" d="M4.40484,10.36163a1.30322,1.30322,0,0,1,1.316,1.29392A1.31832,1.31832,0,0,1,4.418,12.98742a1.33351,1.33351,0,0,1-1.32309-1.31907A1.31912,1.31912,0,0,1,4.40484,10.36163Z"/></g></g></svg>