<svg xmlns="http://www.w3.org/2000/svg" viewBox="0 0 82.81804 12.03069"><defs><style>.a{fill:#fff;}</style></defs><path d="M7.73365,2.29459c.188.7429.5381,1.07778,1.10547,1.06863.53067-.00855.86981-.35283,1.01682-.98354.83406-.24449,1.6272-.51927,2.44057-.70584A3.10458,3.10458,0,0,1,15.702,3.39247c.54625,1.08451,1.07479,2.1799,1.56,3.29278a3.816,3.816,0,1,1-7.25193,2.21888c-.04221-.24291-.12432-.35329-.37137-.35126-.66221.00548-1.32449.00187-1.99118.00187a3.85843,3.85843,0,0,1-1.60778,2.76681A3.817,3.817,0,0,1,.31563,6.71582C.8642,5.492,1.45956,4.28753,2.077,3.09669A3.12227,3.12227,0,0,1,5.47947,1.71436c.36779.11287.725.26344,1.09664.35962C6.94815,2.17027,7.3322,2.22016,7.73365,2.29459Zm6.03963,3.00486a2.87967,2.87967,0,0,0-2.92741,2.90233,2.91671,2.91671,0,1,0,2.92741-2.90233ZM.9147,8.199a2.92107,2.92107,0,1,0,2.9314-2.91A2.91542,2.91542,0,0,0,.9147,8.199ZM7.75359,6.77665a1.05411,1.05411,0,1,0,2.108-.02324,1.05409,1.05409,0,0,0-2.108.02324Z"/><path d="M27.75141,5.21564a2.71044,2.71044,0,0,1,1.27365,3.00242,2.49627,2.49627,0,0,1-2.47046,2.00072c-1.40309.03511-2.80767.00964-4.2116.01415-.27591.00088-.40249-.11463-.40195-.4005q.0072-3.79068.002-7.58139c-.00019-.22137.07661-.37876.31225-.376,1.26213.01466,2.5332-.04793,3.7838.08264A2.20343,2.20343,0,0,1,27.9241,4.804C27.87967,4.93617,27.81642,5.062,27.75141,5.21564ZM23.86712,8.39011c.88443,0,1.73457.02907,2.58141-.01129.48063-.02291.71543-.402.70284-.95924-.0114-.50421-.26083-.82838-.74189-.84952-.781-.0343-1.56418-.0233-2.34631-.01643a.26293.26293,0,0,0-.18742.17562C23.86079,7.27478,23.86712,7.82089,23.86712,8.39011ZM23.8866,4.839c.634,0,1.22736.00539,1.82042-.00577a.384.384,0,0,0,.26212-.12714.62087.62087,0,0,0-.42695-.9999c-.54349-.02968-1.08985-.00685-1.65559-.00685Z"/><path d="M53.59944,7.56133c.15221,0,.30461.005.45657-.00108a.47676.47676,0,0,1,.543.37523.73209.73209,0,0,0,.43656.44487,4.14964,4.14964,0,0,0,1.23855.019.58817.58817,0,0,0,.3855-.41774.7465.7465,0,0,0-.26237-.58271,6.42379,6.42379,0,0,0-1.04973-.47166c-.4621-.19566-.945-.3525-1.38388-.59067a2.27044,2.27044,0,0,1-1.21487-2.44208A2.30447,2.30447,0,0,1,54.459,1.87676a3.02731,3.02731,0,0,1,3.42.92491,4.85346,4.85346,0,0,1,.49024,1.327c.07534.25357-.08141.402-.34281.40651a10.738,10.738,0,0,1-1.19286-.0103.54034.54034,0,0,1-.371-.2829,1.04834,1.04834,0,0,0-1.47377-.53677.59888.59888,0,0,0-.073,1.02335,4.0518,4.0518,0,0,0,.83671.43147c.50514.213,1.039.3652,1.52683.61039a2.22186,2.22186,0,0,1,1.34881,2.39311,2.33216,2.33216,0,0,1-1.82265,2.07256,3.98831,3.98831,0,0,1-2.41868-.0577,2.42438,2.42438,0,0,1-1.74438-2.12063c-.04849-.37454.04426-.48184.43017-.49629.01169-.00044.02341-.00017.03512-.00017Z"/><path d="M48.67822,6.66883c.447-.69587.90134-1.38721,1.337-2.09014a.61287.61287,0,0,1,.60336-.32769c.37386.01561.74923-.0053,1.12315.0096.116.00464.29106.04575.32738.12281.0392.08316-.02683.24473-.09113.34327-.49857.76394-1.00173,1.52509-1.5184,2.27684a.3341.3341,0,0,0,.00038.45754q.81284,1.12122,1.59757,2.26267c.0729.10558.15259.28006.11192.3691-.03807.08333-.22976.12393-.35748.13321-.26777.01944-.542-.02387-.80622.01243a.954.954,0,0,1-1.02719-.5476c-.36631-.5968-.78313-1.16264-1.17986-1.74069-.04287-.06246-.09508-.11853-.1989-.24655,0,.71227.00182,1.33828-.00056,1.96427-.002.52935-.03633.56248-.55233.564-.25748.00074-.515.00254-.77242-.00048-.414-.00485-.48756-.076-.48811-.49685q-.00327-2.528-.001-5.0559c0-.77243-.00227-1.54487.001-2.31729.00177-.41765.07474-.48776.493-.4924.26915-.003.53837-.002.80754-.00029.45394.00282.51034.05229.51149.49905.00344,1.33419.00135,2.66839.00142,4.00259v.27152Z"/><path d="M69.06267,10.38305a3.14635,3.14635,0,1,1,3.14441-3.169A3.12831,3.12831,0,0,1,69.06267,10.38305Zm1.325-3.15119a1.3421,1.3421,0,1,0-2.6827.02994,1.3417,1.3417,0,1,0,2.6827-.02994Z"/><path d="M35.96157,10.376A3.14148,3.14148,0,1,1,39.124,7.23237,3.11036,3.11036,0,0,1,35.96157,10.376Zm.00209-1.76061a1.30914,1.30914,0,0,0,1.35171-1.38414,1.35094,1.35094,0,1,0-2.70167-.00366A1.31393,1.31393,0,0,0,35.96366,8.61541Z"/><path d="M76.48184,9.745a2.00108,2.00108,0,0,1-1.976.58792,1.88243,1.88243,0,0,1-1.44125-1.89529c-.05187-1.28583-.02092-2.575-.0248-3.86275a.28666.28666,0,0,1,.32939-.319c.35122,0,.70294.01068,1.05355-.00427.32507-.01386.43577.14079.43387.44479-.00609.97171-.00243,1.94349-.00177,2.91524.00009.12872-.00175.25794.0083.38607a.679.679,0,0,0,.67679.70759.73589.73589,0,0,0,.88695-.60073,3.37006,3.37006,0,0,0,.05206-.66194c.00539-.91318.01143-1.82655-.00249-2.73955-.00511-.33466.11969-.47067.45392-.45191a8.17522,8.17522,0,0,0,.91281.00006c.33852-.01891.45889.13387.45672.4582C78.2922,5.85682,78.297,7.00422,78.297,8.15159c0,.53856-.00787,1.07727.00274,1.61562.00637.32378-.12148.48-.45561.467-.29225-.01138-.58558-.0103-.87792,0C76.66943,10.24464,76.44686,10.18167,76.48184,9.745Z"/><path d="M44.9893,6.55385a4.26087,4.26087,0,0,1-.62812-.04175.8131.8131,0,0,1-.40781-.20708,1.3701,1.3701,0,0,0-1.95-.03926,1.41885,1.41885,0,0,0,.05487,1.98857A1.36707,1.36707,0,0,0,43.97874,8.148a.61811.61811,0,0,1,.37277-.17927c.39434-.03314.79171-.04112,1.18782-.03921.37007.0018.4467.13133.31942.49032a2.97192,2.97192,0,0,1-2.84195,1.963,3.08342,3.08342,0,0,1-2.998-1.96959,3.16111,3.16111,0,0,1,5.30471-3.27015,4.68678,4.68678,0,0,1,.55113.966c.12028.242.04652.41156-.25363.41712-.21031.00389-.42076.00075-.63115.00075Z"/><path d="M64.34185,6.54349a1.69645,1.69645,0,0,1-.45453-.00786,1.31289,1.31289,0,0,1-.56456-.26523,1.36942,1.36942,0,0,0-1.925.00566,1.39417,1.39417,0,0,0,.03183,1.95629,1.343,1.343,0,0,0,1.91468-.06672c.06771-.07688.15372-.191.23481-.1941.52364-.01983,1.04878-.02382,1.5717.00191.04588.00226.14572.27778.10843.38873a2.85837,2.85837,0,0,1-2.409,1.99074,3.12862,3.12862,0,0,1-3.269-1.56828,3.27,3.27,0,0,1,.40935-3.675,3.15548,3.15548,0,0,1,5.269.97086c.11418.326.05938.42318-.28584.452-.20923.01749-.42111.00323-.63181.00323Z"/><path d="M80.03592,6.0022c-.216,0-.38865-.00036-.56124.00008-.25632.00065-.39205-.11307-.38639-.38314.00661-.316.01039-.63267-.00149-.94842-.01125-.29933.11414-.43581.416-.41755.16085.00973.32276.00172.53325.00172,0-.49506-.003-.959.0009-1.42295.00348-.4133.06195-.47167.4637-.47544.31616-.003.63259.00713.94848-.00265.28176-.00873.40586.10941.40131.39553-.00745.46806.003.93643.00761,1.40465.0002.02067.018.04116.04576.10083.13071,0,.27935-.00141.42794.00027.40621.0046.47687.0705.483.46279q.00629.40392-.00013.808c-.00682.39074-.08855.47022-.478.47638-.1493.00236-.29868.00038-.48865.00038v.41391q0,1.59849-.00044,3.197c-.00082.59689-.02313.61786-.605.61839-.24592.00022-.49189.003-.73776-.00072-.39536-.006-.46628-.07458-.46754-.48012-.00339-1.08907-.00128-2.17816-.00135-3.26724Z"/><path d="M30.0177,5.92865c0-1.2762.00651-2.55246-.00455-3.82856-.00283-.32658.10333-.47857.44609-.45822.315.0187.63233.01323.948.002.2967-.01058.43293.11392.42342.41379-.0089.28072-.00143.56194-.00142.84294q0,3.38953-.00039,6.77908c-.00019.49731-.05291.54985-.53684.55211-.281.00132-.56227-.0076-.84292.00222-.31377.011-.43772-.12532-.43537-.44161C30.02331,8.50451,30.01774,7.21656,30.0177,5.92865Z"/><path d="M14.19964,1.07626a4.21255,4.21255,0,0,0-3.40535.29513,1.791,1.791,0,0,1,1.65785-1.367A1.77428,1.77428,0,0,1,14.19964,1.07626Z"/><path d="M3.35845,1.10109A1.83492,1.83492,0,0,1,5.1968.01137,1.78412,1.78412,0,0,1,6.80025,1.37188,4.14373,4.14373,0,0,0,3.35845,1.10109Z"/><path class="a" d="M13.77328,5.29945a2.9122,2.9122,0,1,1-2.92741,2.90233A2.886,2.886,0,0,1,13.77328,5.29945ZM16.1258,8.21686a2.3646,2.3646,0,1,0-2.36952,2.36473A2.354,2.354,0,0,0,16.1258,8.21686Z"/><path class="a" d="M.9147,8.199a2.92107,2.92107,0,0,1,5.84208-.005A2.92106,2.92106,0,1,1,.9147,8.199Zm5.29008-.00555A2.37357,2.37357,0,1,0,3.851,10.58173,2.38616,2.38616,0,0,0,6.20478,8.19343Z"/><path class="a" d="M7.75359,6.77665a1.05409,1.05409,0,0,1,2.108-.02324,1.05411,1.05411,0,1,1-2.108.02324Zm1.054-.572a.54931.54931,0,0,0-.56387.54305A.56419.56419,0,1,0,9.37117,6.748.54928.54928,0,0,0,8.80756,6.20464Z"/><path class="a" d="M23.86712,8.39011c0-.56922-.00633-1.11533.00863-1.66086a.26293.26293,0,0,1,.18742-.17562c.78213-.00687,1.56533-.01787,2.34631.01643.48106.02114.73049.34531.74189.84952.01259.55725-.22221.93633-.70284.95924C25.60169,8.41918,24.75155,8.39011,23.86712,8.39011Z"/><path class="a" d="M23.8866,4.839V3.69936c.56574,0,1.1121-.02283,1.65559.00685a.62087.62087,0,0,1,.42695.9999.384.384,0,0,1-.26212.12714C25.114,4.84441,24.52058,4.839,23.8866,4.839Z"/><path class="a" d="M70.38764,7.23186a1.3417,1.3417,0,1,1-2.6827.02994,1.3421,1.3421,0,1,1,2.6827-.02994Z"/><path class="a" d="M35.96366,8.61541a1.31393,1.31393,0,0,1-1.35-1.3878,1.35094,1.35094,0,1,1,2.70167.00366A1.30914,1.30914,0,0,1,35.96366,8.61541Z"/><path d="M16.1258,8.21686a2.36461,2.36461,0,1,1-2.47947-2.37629A2.37694,2.37694,0,0,1,16.1258,8.21686Zm-4.04594-.40421A1.73233,1.73233,0,1,0,14.875,6.87158a1.68127,1.68127,0,0,0-2.10686-.0569.62113.62113,0,0,1,.11325.79264C12.69211,7.90789,12.39688,7.88946,12.07986,7.81265Z"/><path d="M6.20478,8.19343A2.39512,2.39512,0,0,1,3.851,10.58173a2.37529,2.37529,0,1,1,2.35378-2.3883ZM2.155,7.81a1.72925,1.72925,0,1,0,2.84613-.88985,1.69208,1.69208,0,0,0-2.1717-.10429.60717.60717,0,0,1,.12406.83911A.59516.59516,0,0,1,2.155,7.81Z"/><path d="M8.80756,6.20464a.54928.54928,0,0,1,.56361.54332.56419.56419,0,1,1-1.12748-.00027A.54931.54931,0,0,1,8.80756,6.20464Z"/><path class="a" d="M12.07986,7.81265c.317.07681.61225.09524.80148-.20533a.62113.62113,0,0,0-.11325-.79264,1.68127,1.68127,0,0,1,2.10686.0569,1.73612,1.73612,0,1,1-2.79509.94107Zm2.13637.47931c-.10171-.30267-.16763-.46881-.45395-.46294-.27328.00561-.38636.13481-.39253.37623a.343.343,0,0,0,.38792.39092C13.92154,8.57313,14.06414,8.39879,14.21623,8.292Z"/><path class="a" d="M2.155,7.81a.59516.59516,0,0,0,.79849-.155.60717.60717,0,0,0-.12406-.83911,1.69208,1.69208,0,0,1,2.1717.10429A1.73513,1.73513,0,1,1,2.155,7.81Zm1.21456.31152.00259.16873c.15412.1071.29867.28149.46466.30507a.35476.35476,0,0,0,.39439-.39386.34909.34909,0,0,0-.40194-.38292C3.66391,7.84545,3.52192,8.0154,3.36952,8.12149Z"/><path d="M14.21623,8.292c-.15209.10683-.29469.28117-.45856.30421a.343.343,0,0,1-.38792-.39092c.00617-.24142.11925-.37062.39253-.37623C14.0486,7.82315,14.11452,7.98929,14.21623,8.292Z"/><path d="M3.36952,8.12149c.1524-.10609.29439-.276.4597-.303a.34909.34909,0,0,1,.40194.38292.35476.35476,0,0,1-.39439.39386c-.166-.02358-.31054-.198-.46466-.30507Z"/></svg>