<svg xmlns="http://www.w3.org/2000/svg" viewBox="0 0 67.44478 17.25003"><defs><style>.a{fill:#fdfdfd;}.b{fill:#14181e;}.c{fill:#1a1e24;}.d{fill:#efb90f;}.e{fill:#171b21;}.f{fill:#f7f7f7;}</style></defs><path class="a" d="M67.43017,12.47256c0,1.46886-.01009,2.93784.00854,4.40647.00371.29281-.04838.41531-.358.35674a1.924,1.924,0,0,0-.35165-.00345q-33.01182,0-66.02362.01314c-.53564.00037-.709-.05622-.70535-.66066Q.04845,8.54134.00574.49746C.00412.06478.1119-.00163.51759.00228,2.84264.02471,5.168.01319,7.49329.01319c-.02855.11021-.11668.11759-.21137.13525A8.47093,8.47093,0,0,0,.17342,8.9622a7.39908,7.39908,0,0,0,1.08876,3.71326c.39225.62131,1.04282.77167,1.94754.51021.64439-.18622.48645-.71421.49227-1.15724.01317-1.00289.00434-2.006.00432-3.00911,0-1.61055.021-1.63091,1.66147-1.60882.0235.00032.047.001.07049-.00006.64907-.02876.94528.27662.93832.92343-.013,1.21285-.01462,2.42614.00706,3.63875.00363.20293-.20288.58649.18956.59579a.7002.7002,0,0,0,.76367-.59054,3.79949,3.79949,0,0,0,.01517-.55883c.0009-1.63287.01134-3.26586-.00479-4.89858-.00642-.64989.28072-.95146.9293-.93085.21127.00672.423.00023.63444.00121.90184.00416,1.10688.20589,1.10865,1.11145.00308,1.57991.00086,3.15983.00086,4.76564a.994.994,0,0,0,.98508-1.15055c-.0347-1.60881.02248-3.21973-.01976-4.82819-.04952-1.88589.22428-1.69823,1.85486-1.6918.59689.00235.811.38282.8128.921.003.90974.00124,1.81949.00137,2.72924.0001.683,0,1.36591,0,2.155a14.33524,14.33524,0,0,0,2.78384-2.53746,1.37507,1.37507,0,0,0,.25287-1.54668,8.553,8.553,0,0,0-4.25-4.64582A19.29515,19.29515,0,0,0,9.74974.01319Q38.27264.01319,66.79553,0c.52879-.00044.65561.11729.649.64333-.03188,2.54281-.01437,5.08623-.01437,7.62944-.21565-.07919-.116-.27826-.15593-.42077A2.23514,2.23514,0,0,0,65.1213,6.1672a2.50431,2.50431,0,0,0-2.3208,1.28029,3.92183,3.92183,0,0,1,.00336-.54516c.10754-.58269-.18352-.65649-.699-.6823-.61193-.03064-.60959.26323-.605.7055.017,1.65433.03354,3.3096-.00811,4.96307-.014.5581.23411.57008.66265.57468.44282.00475.67-.04028.662-.58336a17.8764,17.8764,0,0,1,.06119-3.27737,1.51546,1.51546,0,0,1,1.80554-1.3443,1.45,1.45,0,0,1,1.401,1.60544c.01955.72187.004,1.44468.004,2.16707C66.08825,12.40961,66.08822,12.40961,67.43017,12.47256ZM3.82229,15.38024c2.39847,2.00407,6.41463,2.10974,9.38613.348,3.06171-1.81522,4.37853-5.5085,3.9376-7.60041C13.80012,12.4926,9.13609,14.43237,3.82229,15.38024Zm21.003-7.02586c1.086-.65732,1.41377-1.2979,1.19385-2.29372a1.95,1.95,0,0,0-2.01146-1.52121c-1.05061-.06862-2.109-.01622-3.16377-.02884-.281-.00336-.35921.12063-.35864.37855q.00792,3.59583-.00011,7.19169c-.0006.2617.08592.38014.363.374,1.10085-.02429,2.20564.01257,3.302-.06767a2.05733,2.05733,0,0,0,2.06965-1.66113C26.418,9.71892,25.98453,8.95869,24.82533,8.35438Zm33.85989-.789a2.53439,2.53439,0,0,0-2.90315-1.31813,2.49724,2.49724,0,0,0-2.01816,1.91707,3.55569,3.55569,0,0,0,.67634,3.536,2.48522,2.48522,0,0,0,1.67331.78312A2.61564,2.61564,0,0,0,58.68522,11.173c0,.30138.01427.44253-.00257.57992-.06045.49293.044.72493.65137.72616.61853.00125.66274-.24794.65583-.73611-.02306-1.62976-.02686-3.26037.00244-4.88994.00866-.48135-.11737-.63078-.61693-.63161-.52476-.00087-.79835.10185-.6942.67845A4.943,4.943,0,0,1,58.68522,7.56541ZM43.07958,12.5003c.08809-.00507.27622-.00929.46293-.02771a2.14557,2.14557,0,0,0,2.04876-1.78511,2.046,2.046,0,0,0-1.35612-2.39564c-.3841-.1693-.79234-.2838-1.1841-.437a6.46985,6.46985,0,0,1-.95972-.42052A1.00579,1.00579,0,0,1,41.57,6.193a1.02209,1.02209,0,0,1,1.06522-.73989,1.29866,1.29866,0,0,1,1.32967.7237c.14974.28678,1.10783.54756,1.33661.31953.32043-.31938.00362-.65649-.16279-.91253A2.84883,2.84883,0,0,0,42.02791,4.488a2.05262,2.05262,0,0,0-1.864,1.80108,1.98782,1.98782,0,0,0,1.31849,2.22c.55781.23845,1.14649.40476,1.71133.62832a1.58908,1.58908,0,0,1,.96394.76533,1.108,1.108,0,0,1-.485,1.43975,1.42055,1.42055,0,0,1-1.89543-.54447c-.23193-.592-.59881-.55641-1.07589-.58093-.56654-.02912-.56015.20142-.41167.61408A2.81542,2.81542,0,0,0,43.07958,12.5003Zm6.58827-.00291a2.79307,2.79307,0,0,0,2.87687-1.90188c.046-.14933.15225-.3109.00852-.44762a1.44629,1.44629,0,0,0-1.35009.29586,1.493,1.493,0,0,1-1.299.92265A1.68575,1.68575,0,0,1,47.98,9.93668,2.06261,2.06261,0,0,1,49.19489,7.351a1.679,1.679,0,0,1,1.93981.74357c.19987.34812,1.08735.66678,1.34921.40957.3397-.33367-.0604-.66516-.19-.97111a1.98137,1.98137,0,0,0-.69036-.77806A3.41318,3.41318,0,0,0,47.836,6.72067a3.36279,3.36279,0,0,0-1.05479,3.7736A2.85111,2.85111,0,0,0,49.66785,12.49739ZM33.107,9.26117a2.8881,2.8881,0,0,0,1.57446,2.89495,3.25012,3.25012,0,0,0,3.51663-.31594,2.55389,2.55389,0,0,0,.86861-1.32274c.0379-.11508.10456-.26783-.0432-.37629a1.42114,1.42114,0,0,0-1.34344.32776,1.54114,1.54114,0,0,1-1.73549.89472A1.5645,1.5645,0,0,1,34.54877,10.168a2.804,2.804,0,0,1-.0278-1.58378,1.61139,1.61139,0,0,1,1.41086-1.27891,1.55644,1.55644,0,0,1,1.73568.89129c.32615.64476.92543.38427,1.28457.2778.39081-.11587.03-.55622-.09626-.80709a2.99694,2.99694,0,0,0-3.43062-1.41A2.89014,2.89014,0,0,0,33.107,9.26117Zm-3.16547,3.23646c.04442-.00276.16157-.0096.27865-.01739a1.80918,1.80918,0,0,0,1.90969-1.59395c.08536-.88273-.40164-1.45939-1.51844-1.79076-.22437-.06658-.45583-.11-.67924-.17928-.35632-.11051-.71758-.21286-1.06016-.35743a.6625.6625,0,0,1-.37506-.81717.72119.72119,0,0,1,.61039-.59391,1.3266,1.3266,0,0,1,1.63367.75059c.2972.58555.82327.34737,1.15638.24967.32879-.09643.00971-.48332-.09334-.69621a2.55814,2.55814,0,0,0-2.88051-1.23434A1.77575,1.77575,0,0,0,27.258,7.91263c-.03116.79442.43981,1.32533,1.45237,1.62532.56038.166,1.13157.29967,1.68317.49a.72143.72143,0,0,1,.52071.81486.80073.80073,0,0,1-.67089.711,1.42347,1.42347,0,0,1-1.66639-.71929c-.297-.64128-.86189-.39719-1.19408-.29477-.36359.1121-.01718.525.10723.7463A2.57884,2.57884,0,0,0,29.94151,12.49763Z"/><path class="b" d="M9.74974.01319A19.29515,19.29515,0,0,1,12.4416.87262a8.553,8.553,0,0,1,4.25,4.64582,1.37507,1.37507,0,0,1-.25287,1.54668,14.33524,14.33524,0,0,1-2.78384,2.53746c0-.789.00008-1.472,0-2.155-.00013-.90975.00163-1.8195-.00137-2.72924-.00177-.53819-.21591-.91866-.8128-.921-1.63058-.00643-1.90438-.19409-1.85486,1.6918.04224,1.60846-.01494,3.21938.01976,4.82819a.994.994,0,0,1-.98508,1.15055c0-1.60581.00222-3.18573-.00086-4.76564C10.01788,5.79671,9.81284,5.595,8.911,5.59082c-.21149-.001-.42317.00551-.63444-.00121-.64858-.02061-.93572.281-.9293.93085.01613,1.63272.00569,3.26571.00479,4.89858a3.79949,3.79949,0,0,1-.01517.55883.7002.7002,0,0,1-.76367.59054c-.39244-.0093-.18593-.39286-.18956-.59579C6.362,10.76,6.36355,9.54672,6.37659,8.33387c.007-.64681-.28925-.95219-.93832-.92343-.02345.001-.047.00038-.07049.00006-1.6405-.02209-1.66148-.00173-1.66147,1.60882,0,1.00306.00885,2.00622-.00432,3.00911-.00582.443.15212.971-.49227,1.15724-.90472.26146-1.55529.1111-1.94754-.51021A7.39908,7.39908,0,0,1,.17342,8.9622,8.47093,8.47093,0,0,1,7.28192.14844c.09469-.01766.18282-.025.21137-.13525Z"/><path class="b" d="M67.43017,12.47256c-1.34195-.06295-1.34192-.06295-1.342-1.4418,0-.72239.01552-1.4452-.004-2.16707a1.45,1.45,0,0,0-1.401-1.60544,1.51546,1.51546,0,0,0-1.80554,1.3443,17.8764,17.8764,0,0,0-.06119,3.27737c.008.54308-.21921.58811-.662.58336-.42854-.0046-.6767-.01658-.66265-.57468.04165-1.65347.02512-3.30874.00811-4.96307-.00455-.44227-.00689-.73614.605-.7055.51543.02581.80649.09961.699.6823a3.92183,3.92183,0,0,0-.00336.54516A2.50431,2.50431,0,0,1,65.1213,6.1672,2.23514,2.23514,0,0,1,67.27424,7.852c.04.14251-.05972.34158.15593.42077v.28a6.69031,6.69031,0,0,0-.12949,2.37343c-.01645.41734-.15951.871.12949,1.26638Z"/><path class="c" d="M67.43017,12.19257c-.289-.39535-.14594-.849-.12949-1.26638a6.69031,6.69031,0,0,1,.12949-2.37343Z"/><path class="d" d="M3.82229,15.38024c5.3138-.94787,9.97783-2.88764,13.32373-7.2524.44093,2.09191-.87589,5.78519-3.9376,7.60041C10.23692,17.49,6.22076,17.38431,3.82229,15.38024Z"/><path class="c" d="M24.82533,8.35438c1.1592.60431,1.59267,1.36454,1.39444,2.3717a2.05733,2.05733,0,0,1-2.06965,1.66113c-1.09632.08024-2.20111.04338-3.302.06767-.277.00611-.36356-.11233-.363-.374q.00824-3.59583.00011-7.19169c-.00057-.25792.0776-.38191.35864-.37855,1.0548.01262,2.11316-.03978,3.16377.02884a1.95,1.95,0,0,1,2.01146,1.52121C26.2391,7.05648,25.91133,7.69706,24.82533,8.35438Zm-3.0635,1.77671c0,.30191.00345.60388-.00131.90571-.00281.1779.01977.34041.24621.3334a8.04833,8.04833,0,0,0,2.09-.11291A1.09388,1.09388,0,0,0,24.923,10.104a1.132,1.132,0,0,0-.84672-1.14594,3.1606,3.1606,0,0,0-1.041-.10147C21.76119,8.85616,21.76119,8.85611,21.76183,10.13109Zm-.00042-3.37237c0,.25565.00878.51169-.00252.76685-.0108.24363.04317.40853.33633.39787.56062-.02039,1.1274.01208,1.68085-.05948a1.01484,1.01484,0,0,0,.94462-1.22967,1.05075,1.05075,0,0,0-1.09127-1.03677c-.23294-.017-.468-.00674-.70207-.00684C21.76119,5.59017,21.76119,5.59041,21.76141,6.75872Z"/><path class="e" d="M58.68522,7.56541a4.943,4.943,0,0,0-.00406-.66554c-.10415-.5766.16944-.67932.6942-.67845.49956.00083.62559.15026.61693.63161-.0293,1.62957-.0255,3.26018-.00244,4.88994.00691.48817-.0373.73736-.65583.73611-.60733-.00123-.71182-.23323-.65137-.72616.01684-.13739.00257-.27854.00257-.57992a2.61564,2.61564,0,0,1-2.57166,1.31044,2.48522,2.48522,0,0,1-1.67331-.78312,3.55569,3.55569,0,0,1-.67634-3.536,2.49724,2.49724,0,0,1,2.01816-1.91707A2.53439,2.53439,0,0,1,58.68522,7.56541Zm-.00005,1.75735a1.90671,1.90671,0,0,0-1.858-2.02807,1.8653,1.8653,0,0,0-1.92278,2.01876,1.84911,1.84911,0,0,0,1.881,2.05071A1.87138,1.87138,0,0,0,58.68517,9.32276Z"/><path class="c" d="M43.07958,12.5003a2.81542,2.81542,0,0,1-2.78987-1.66911c-.14848-.41266-.15487-.6432.41167-.61408.47708.02452.844-.01111,1.07589.58093a1.42055,1.42055,0,0,0,1.89543.54447,1.108,1.108,0,0,0,.485-1.43975,1.58908,1.58908,0,0,0-.96394-.76533c-.56484-.22356-1.15352-.38987-1.71133-.62832a1.98782,1.98782,0,0,1-1.31849-2.22,2.05262,2.05262,0,0,1,1.864-1.80108,2.84883,2.84883,0,0,1,3.11075,1.09586c.16641.256.48322.59315.16279.91253-.22878.228-1.18687-.03275-1.33661-.31953a1.29866,1.29866,0,0,0-1.32967-.7237A1.02209,1.02209,0,0,0,41.57,6.193a1.00579,1.00579,0,0,0,.52138,1.24125,6.46985,6.46985,0,0,0,.95972.42052c.39176.15324.8.26774,1.1841.437a2.046,2.046,0,0,1,1.35612,2.39564,2.14557,2.14557,0,0,1-2.04876,1.78511C43.3558,12.491,43.16767,12.49523,43.07958,12.5003Z"/><path class="c" d="M49.66785,12.49739a2.85111,2.85111,0,0,1-2.88667-2.00312A3.36279,3.36279,0,0,1,47.836,6.72067a3.41318,3.41318,0,0,1,3.76759.03431,1.98137,1.98137,0,0,1,.69036.77806c.12959.306.52969.63744.19.97111-.26186.25721-1.14934-.06145-1.34921-.40957A1.679,1.679,0,0,0,49.19489,7.351,2.06261,2.06261,0,0,0,47.98,9.93668a1.68575,1.68575,0,0,0,1.92409,1.42972,1.493,1.493,0,0,0,1.299-.92265,1.44629,1.44629,0,0,1,1.35009-.29586c.14373.13672.03745.29829-.00852.44762A2.79307,2.79307,0,0,1,49.66785,12.49739Z"/><path class="c" d="M33.10719,9.26106a2.88975,2.88975,0,0,1,2.318-3.00366,2.99694,2.99694,0,0,1,3.43062,1.41c.12626.25087.48707.69122.09626.80709-.35914.10647-.95842.367-1.28457-.2778a1.55644,1.55644,0,0,0-1.73568-.89129A1.61139,1.61139,0,0,0,34.521,8.58427a2.804,2.804,0,0,0,.0278,1.58378,1.5645,1.5645,0,0,0,1.39578,1.19558A1.54114,1.54114,0,0,0,37.68,10.46891a1.42114,1.42114,0,0,1,1.34344-.32776c.14776.10846.0811.26121.0432.37629a2.55389,2.55389,0,0,1-.86861,1.32274,3.25012,3.25012,0,0,1-3.51663.31594A2.88769,2.88769,0,0,1,33.10719,9.26106Z"/><path class="c" d="M29.94151,12.49763A2.57884,2.57884,0,0,1,27.49013,11.286c-.12441-.22127-.47082-.6342-.10723-.7463.33219-.10242.89705-.34651,1.19408.29477a1.42347,1.42347,0,0,0,1.66639.71929.80073.80073,0,0,0,.67089-.711.72143.72143,0,0,0-.52071-.81486c-.5516-.19028-1.12279-.32393-1.68317-.49-1.01256-.3-1.48353-.8309-1.45237-1.62532a1.77575,1.77575,0,0,1,1.66553-1.69518,2.55814,2.55814,0,0,1,2.88051,1.23434c.103.21289.42213.59978.09334.69621-.33311.0977-.85918.33588-1.15638-.24967a1.3266,1.3266,0,0,0-1.63367-.75059.72119.72119,0,0,0-.61039.59391.6625.6625,0,0,0,.37506.81717c.34258.14457.70384.24692,1.06016.35743.22341.0693.45487.1127.67924.17928,1.1168.33137,1.6038.908,1.51844,1.79076a1.80918,1.80918,0,0,1-1.90969,1.59395C30.10308,12.488,29.98593,12.49487,29.94151,12.49763Z"/><path class="f" d="M21.76151,10.13109c-.00032-1.275-.00032-1.27493,1.2737-1.27448a3.1606,3.1606,0,0,1,1.041.10147A1.132,1.132,0,0,1,24.923,10.104a1.09388,1.09388,0,0,1-.82622,1.15327,8.04833,8.04833,0,0,1-2.09.11291c-.22644.007-.249-.1555-.24621-.3334C21.76528,10.735,21.76183,10.433,21.76151,10.13109Z"/><path class="f" d="M21.7613,6.75872c-.00011-1.16831-.00011-1.16855,1.16605-1.168.23408.0001.46913-.01018.70207.00684a1.05075,1.05075,0,0,1,1.09127,1.03677A1.01484,1.01484,0,0,1,23.77607,7.864c-.55345.07156-1.12023.03909-1.68085.05948-.29316.01066-.34713-.15424-.33633-.39787C21.77019,7.27041,21.76141,7.01437,21.7613,6.75872Z"/><path class="a" d="M58.68517,9.32276a1.87138,1.87138,0,0,1-1.89982,2.0414,1.84911,1.84911,0,0,1-1.881-2.05071,1.8653,1.8653,0,0,1,1.92278-2.01876A1.90671,1.90671,0,0,1,58.68517,9.32276Z"/></svg>