<svg xmlns="http://www.w3.org/2000/svg" viewBox="0 0 94.56673 16.20132"><path d="M8.59438,0c.47321.09.95818.1405,1.41772.27642a7.92678,7.92678,0,0,1,5.845,6.28645,5.67065,5.67065,0,0,1,.00726,2.77255,2.548,2.548,0,0,1-1.56584,1.79312A2.19693,2.19693,0,0,1,11.302,9.69068a5.05758,5.05758,0,0,1-.18473-1.19489c-.03065-.45537-.00708-.91437-.0668-1.39543-.07534.11247-.15426.22274-.22546.33776-.59509.96121-1.17206,1.93418-1.7921,2.8791a3.31917,3.31917,0,0,1-.80681.84618A.89986.89986,0,0,1,6.86879,10.84a3.41079,3.41079,0,0,1-.3012-1.25784c-.04607-.79742-.01325-1.59937-.01325-2.49849-.11652.16411-.18591.25191-.24477.34623-1.0111,1.62009-2.0163,3.24387-3.03672,4.8581a.32145.32145,0,0,0,.06007.4747,6.49011,6.49011,0,0,0,8.87992.42173c.09137-.07921.18264-.15923.2799-.23085a.72163.72163,0,0,1,.934,1.1003,10.71716,10.71716,0,0,1-1.56723,1.14259A7.9792,7.9792,0,0,1,.12574,9.46957C.0856,9.23382.042,8.99867,0,8.76324V7.44546c.04507-.2576.08237-.51682.13638-.77254A7.92041,7.92041,0,0,1,5.86273.31813,15.48423,15.48423,0,0,1,7.40439,0ZM8.0013,9.09215l.06559.02463c.05322-.0781.10949-.15432.1592-.23458.50258-.81151.97939-1.64037,1.51592-2.42889a4.46885,4.46885,0,0,1,1.02668-1.13162,1.02314,1.02314,0,0,1,1.60735.5366,2.9091,2.9091,0,0,1,.17312.89563c.02629.60251-.00146,1.20719.01328,1.81049A2.4008,2.4008,0,0,0,12.671,9.241a.80676.80676,0,0,0,1.2969.42069,1.32226,1.32226,0,0,0,.575-1.13139,10.20389,10.20389,0,0,0-.14133-1.86268A6.53825,6.53825,0,0,0,6.396,1.67a6.64564,6.64564,0,0,0-4.86868,7.413,6.30288,6.30288,0,0,0,.70475,2.1147c.08423-.1253.1472-.21347.20458-.30512q1.72068-2.74815,3.442-5.49592a3.75345,3.75345,0,0,1,.4078-.5559.936.936,0,0,1,.91608-.33615.9147.9147,0,0,1,.70878.74715,4.08156,4.08156,0,0,1,.0862.847C8.00731,7.09642,8.0013,8.09431,8.0013,9.09215Z"/><path d="M48.68257,8.18238c-.38634.41442-.72046.77236-1.054,1.1308-.20226.21734-.39926.43973-.60655.65215a.453.453,0,0,1-.75992-.00427c-.498-.52787-.9883-1.063-1.47957-1.5972a.74076.74076,0,0,1-.0829-.14474l-.09458.03739c-.00608.10958-.01724.21914-.01743.32873-.00147.85651.00037,1.713-.002,2.56952a2.20029,2.20029,0,0,1-.02845.426.70216.70216,0,0,1-.717.55991.6874.6874,0,0,1-.66934-.61121,2.37348,2.37348,0,0,1-.01554-.32855c-.00085-1.97655-.0044-3.95313.00689-5.92962a1.42935,1.42935,0,0,1,.16679-.44868,1.44882,1.44882,0,0,1,.43856.22478c.85291.93334,1.69071,1.8804,2.53242,2.82389.30593.34292.3854.341.69588-.00754q1.23954-1.39142,2.48252-2.7798c.05847-.06538.11194-.15034.18667-.18249a.50871.50871,0,0,1,.33108-.05319c.06946.02545.10788.16977.1337.26806a1.06,1.06,0,0,1,.00529.26239q.00008,2.89894-.00031,5.7979c-.0003.62739-.23857.95491-.69611.96443-.4755.00989-.7338-.32666-.73455-.96185-.001-.86749.00054-1.735-.00068-2.60247C48.70325,8.4715,48.69264,8.36625,48.68257,8.18238Z"/><path d="M90.45741,7.548a2.40461,2.40461,0,0,1,2.7862-.35549A2.4791,2.4791,0,0,1,94.5629,9.43311a2.63139,2.63139,0,0,1-1.74383,2.69356,2.81934,2.81934,0,0,1-2.053-.301c0,.51781.001,1.0138-.00063,1.50979a2.49513,2.49513,0,0,1-.01638.4264.72675.72675,0,0,1-.71889.60416.68292.68292,0,0,1-.69463-.65954q-.02457-3.09224-.00452-6.18473a.51747.51747,0,0,1,.49106-.53149.50049.50049,0,0,1,.57083.38891C90.41028,7.43068,90.43164,7.48085,90.45741,7.548Zm2.68345,2.1743a1.42378,1.42378,0,0,0-.64116-1.34439,1.05338,1.05338,0,0,0-1.15391.04151,1.2847,1.2847,0,0,0-.57519,1.2463,1.29345,1.29345,0,0,0,.70621,1.14492,1.04439,1.04439,0,0,0,1.36162-.35854A3.949,3.949,0,0,0,93.14086,9.72227Z"/><path d="M25.16016,12.21143a3.7492,3.7492,0,0,1-.45372-7.47561,3.58491,3.58491,0,0,1,2.47095.61587.67921.67921,0,0,1,.31966.73794.585.585,0,0,1-.5012.50263.93519.93519,0,0,1-.548-.12282,2.34273,2.34273,0,0,0-2.9483.2388A2.61447,2.61447,0,0,0,23.814,10.547a2.34547,2.34547,0,0,0,2.46877.05083c.16725-.10519.32114-.23132.48694-.339a.65771.65771,0,0,1,.91383.1239.64346.64346,0,0,1-.1402.88292A3.71224,3.71224,0,0,1,25.16016,12.21143Z"/><path d="M75.87054,8.33293a3.56975,3.56975,0,0,1,1.96789-3.17065,3.54321,3.54321,0,0,1,3.78834.15832.69735.69735,0,0,1,.37917.71153.5986.5986,0,0,1-.521.56117.94762.94762,0,0,1-.547-.127,2.34393,2.34393,0,0,0-2.9244.22312,2.59421,2.59421,0,0,0,.36079,3.8947,2.24588,2.24588,0,0,0,2.43961-.00976c.16244-.09027.30293-.21885.46027-.31929a.65451.65451,0,0,1,.89119.108.63424.63424,0,0,1-.129.90742,3.61732,3.61732,0,0,1-3.91558.636A3.74843,3.74843,0,0,1,75.87054,8.33293Z"/><path d="M86.84405,7.68562a2.9858,2.9858,0,0,1,.06648-.29235.54473.54473,0,0,1,1.07054.10717c.02207.28346.0083.56978.00842.85484.00045,1.04172.003,2.08344-.00127,3.12514-.00177.43822-.26775.70247-.638.65185-.28433-.03888-.40013-.18742-.506-.66936a2.038,2.038,0,0,1-1.40519.71866,2.20881,2.20881,0,0,1-2.35672-1.259A2.78806,2.78806,0,0,1,83.987,7.239a2.19268,2.19268,0,0,1,2.60384.21676C86.66479,7.51953,86.73554,7.58692,86.84405,7.68562ZM86.54594,9.618a1.34853,1.34853,0,0,0-.43252-1.08017,1.12264,1.12264,0,0,0-1.22718-.20152,1.31051,1.31051,0,0,0-.70209,1.31155,1.33311,1.33311,0,0,0,.7495,1.19517A1.00651,1.00651,0,0,0,86.044,10.6649,1.31844,1.31844,0,0,0,86.54594,9.618Z"/><path d="M55.07792,11.51947a2.29952,2.29952,0,0,1-3.30624-.01471,2.83588,2.83588,0,0,1,.47968-4.25539,2.18388,2.18388,0,0,1,2.58055.17172c.09275.07527.18215.15465.29081.24722.02718-.10128.04609-.18492.07209-.26631a.54087.54087,0,0,1,1.06657.12342c.00982.48229.005.96488.00513,1.44735.00027.8553.00731,1.7107-.00356,2.56587-.00624.49074-.468.77846-.83093.50858A1.93635,1.93635,0,0,1,55.07792,11.51947ZM52.47174,9.57939c.00414.06057.0044.16.01861.25731a1.199,1.199,0,0,0,1.26538,1.0836,1.25066,1.25066,0,0,0,1.03093-.9881A1.3777,1.3777,0,0,0,54.326,8.48029a1.07936,1.07936,0,0,0-1.14931-.14711A1.27224,1.27224,0,0,0,52.47174,9.57939Z"/><path d="M63.02113,9.13878q.73728-.81359,1.475-1.62676a3.64327,3.64327,0,0,1,.3432-.35521.60922.60922,0,0,1,.88633.03358.65744.65744,0,0,1,.03589.91987c-.40126.45-.81428.88968-1.23164,1.34383.42236.515.83509,1.014,1.24281,1.51706a.68745.68745,0,1,1-1.04022.89689c-.48966-.54988-.96284-1.11432-1.44375-1.67194a.91643.91643,0,0,0-.34676-.27458c0,.51076.01235,1.02191-.004,1.53215a.70568.70568,0,0,1-1.40489.07415,2.35012,2.35012,0,0,1-.02326-.39335q-.0023-2.0913-.00058-4.1826c.00036-.48293-.00607-.96626.01156-1.44864a.67965.67965,0,0,1,.50245-.66434.62013.62013,0,0,1,.73705.22643,1.17886,1.17886,0,0,1,.17766.6105c.01745,1.02066.008,2.04177.008,3.06272v.35853Z"/><path d="M67.71982,9.99969a.90065.90065,0,0,0,.97023.98422,3.72621,3.72621,0,0,0,1.15878-.1808c.39759-.11806.69908-.07947.86607.2177a.60365.60365,0,0,1-.29877.834,1.86446,1.86446,0,0,1-.53715.24329,2.95191,2.95191,0,0,1-3.27661-.997,3.1079,3.1079,0,0,1,.40671-3.57533,2.49714,2.49714,0,0,1,2.62972-.44956,2.18409,2.18409,0,0,1,1.49133,1.88555,3.34946,3.34946,0,0,1,.04144.39278.57184.57184,0,0,1-.61956.64355c-.82608.00487-1.65219.00155-2.47829.00159C67.95485,9.9997,67.836,9.99969,67.71982,9.99969Zm2.012-.92358a.87152.87152,0,0,0-1.03362-.80706c-.64831.0458-1.02421.35755-.96.80706Z"/><path d="M30.83578,12.207a2.64667,2.64667,0,1,1,.25366-5.2853,2.64832,2.64832,0,0,1-.25366,5.2853Zm.06106-3.939A1.2204,1.2204,0,0,0,29.6813,9.55549a1.302,1.302,0,0,0,1.18723,1.37527,1.28435,1.28435,0,0,0,1.18766-1.36537A1.19658,1.19658,0,0,0,30.89684,8.26792Z"/><path d="M38.31421,7.51136a2.19079,2.19079,0,0,1,1.46044-.59462,1.94085,1.94085,0,0,1,2.126,1.87723c.05892.87464.03622,1.75566.02639,2.63357a.70657.70657,0,1,1-1.413-.00561c-.01588-.61449-.00456-1.22964-.0086-1.84448a5.15677,5.15677,0,0,0-.02516-.52572c-.06129-.56067-.301-.77895-.88158-.8154a.83667.83667,0,0,0-.93438.69653,2.84385,2.84385,0,0,0-.06174.61865c-.008.6038.00461,1.2079-.00605,1.81162a.73015.73015,0,0,1-.72543.77806.716.716,0,0,1-.71156-.78285c-.00492-1.22975-.00266-2.45953-.00121-3.68929.00043-.37362.16759-.62154.44726-.67655.29108-.05726.49518.08553.65688.45777A.33413.33413,0,0,0,38.31421,7.51136Z"/><path d="M72.51745,8.27257c-.78111-.128-1.01741-.28867-1.02956-.68162-.01262-.408.23871-.58976,1.03344-.7209,0-.44863-.00692-.90623.00238-1.36351a.67227.67227,0,0,1,.46472-.65454.601.601,0,0,1,.72249.16356,1.31908,1.31908,0,0,1,.23526.65591c.03683.399.01031.80384.01031,1.22945.55138.02481,1.17381-.10347,1.241.66916a.55749.55749,0,0,1-.42033.60325,4.81825,4.81825,0,0,1-.787.08791c0,.76238-.016,1.52626.00725,2.289.01038.34093.27707.38622.57384.38662.57365.00077.89791.50187.61255.95267a.6846.6846,0,0,1-.43358.30226,3.66533,3.66533,0,0,1-1.0828-.03791,1.304,1.304,0,0,1-1.06254-1.23518c-.07109-.69606-.06311-1.40023-.08652-2.101C72.51224,8.63405,72.51745,8.45,72.51745,8.27257Z"/><path d="M58.74538,7.51717a2.23083,2.23083,0,0,1,1.39435-.60347.702.702,0,0,1,.80444.63842c.01656.383-.29932.664-.7649.68047a1.01363,1.01363,0,0,0-1.13373,1.14848c-.01035.68024-.0012,1.36077-.007,2.04112a.61.61,0,0,1-.45424.65083.98186.98186,0,0,1-.6963-.11474.82649.82649,0,0,1-.2703-.5941c-.02428-1.25061-.01676-2.50193-.00962-3.753a.57958.57958,0,0,1,.47569-.62263C58.38483,6.94259,58.58688,7.09949,58.74538,7.51717Z"/><path d="M34.38116,9.53078c0-.581-.00335-1.16208.001-1.74307A.723.723,0,1,1,35.82056,7.768q.01242,1.79234.0001,3.58479a.72288.72288,0,1,1-1.4383-.01311C34.37741,10.73672,34.38116,10.13373,34.38116,9.53078Z"/><path d="M35.10132,6.3937a.83784.83784,0,0,1-.83675-.83608.84239.84239,0,1,1,1.68428.007A.84578.84578,0,0,1,35.10132,6.3937Z"/></svg>