<svg xmlns="http://www.w3.org/2000/svg" viewBox="0 0 61.41066 16.23298"><defs><style>.a{fill:#4c4c4c;}.b{fill:#8dc63f;}.c{fill:#f9e988;}.d{fill:#fff;}.e{fill:#8bc53f;}.f{fill:#009345;}.g{fill:#58595b;}</style></defs><path class="a" d="M25.38431,6.37079a1.35483,1.35483,0,0,0-1.41309-1.12726c-1.21461,0-1.72268,1.0717-1.72268,2.15928s.50807,2.15932,1.72268,2.15932A1.459,1.459,0,0,0,25.416,8.0776h.96853a2.32239,2.32239,0,0,1-2.41335,2.29427,2.73915,2.73915,0,0,1-2.715-2.96906,2.73914,2.73914,0,0,1,2.715-2.969,2.21252,2.21252,0,0,1,2.4054,1.937Z"/><path class="a" d="M26.97213,8.1808a2.07375,2.07375,0,1,1,4.144,0,2.07407,2.07407,0,1,1-4.144,0Zm3.23894,0c0-.70652-.35723-1.44482-1.16695-1.44482s-1.167.7383-1.167,1.44482c0,.71447.35724,1.45277,1.167,1.45277S30.21107,8.89527,30.21107,8.1808Z"/><path class="a" d="M31.89416,4.56874h.905v.85738h-.905Zm0,1.5639h.905v4.10428h-.905Z"/><path class="a" d="M33.78359,6.13264H34.641V6.736l.01585.01588A1.46992,1.46992,0,0,1,35.935,6.02151a1.298,1.298,0,0,1,1.45277,1.39718v2.81823h-.905V7.65685c-.01591-.643-.26992-.92087-.80182-.92087a1.00044,1.00044,0,0,0-.99231,1.07966v2.42128h-.905Z"/><path class="a" d="M43.41322,10.23692h-.635l-.15087-.66687a2.04341,2.04341,0,0,1-1.70678.80182,2.73915,2.73915,0,0,1-2.715-2.96906,2.73914,2.73914,0,0,1,2.715-2.969,2.23264,2.23264,0,0,1,2.42923,1.937h-.96853a1.35254,1.35254,0,0,0-1.4607-1.12726c-1.21461,0-1.72268,1.0717-1.72268,2.15928s.50807,2.15932,1.72268,2.15932a1.44074,1.44074,0,0,0,1.58773-1.556H40.9999V7.252h2.41332Z"/><path class="a" d="M45.07256,8.419a1.09178,1.09178,0,0,0,1.1035,1.21461.95161.95161,0,0,0,1.00023-.68271h.85735A1.79731,1.79731,0,0,1,46.17606,10.348a1.94688,1.94688,0,0,1-2.00851-2.15932,1.98645,1.98645,0,1,1,3.92168.23024Zm2.11165-.5954a1.0563,1.0563,0,1,0-2.11165,0Z"/><path class="a" d="M51.55063,7.506a.86771.86771,0,0,0-.93672-.77c-.46839,0-1.12732.24611-1.12732,1.49248,0,.68272.30167,1.40511,1.08758,1.40511a.975.975,0,0,0,.97646-.93678h.905A1.76681,1.76681,0,0,1,50.57417,10.348a1.93029,1.93029,0,0,1-1.99254-2.11958,1.97556,1.97556,0,0,1,2.0243-2.20695A1.66083,1.66083,0,0,1,52.45564,7.506Z"/><path class="a" d="M53.218,4.56874h.905V7.79181l1.6354-1.65917h1.11136L55.29784,7.641l1.72269,2.59595H55.917l-1.2543-1.99261-.53983.524v1.46863h-.905Z"/><path class="a" d="M57.26667,8.1808a2.07376,2.07376,0,1,1,4.144,0,2.07409,2.07409,0,1,1-4.144,0Zm3.239,0c0-.70652-.35726-1.44482-1.16695-1.44482s-1.167.7383-1.167,1.44482c0,.71447.35726,1.45277,1.167,1.45277S60.50564,8.89527,60.50564,8.1808Z"/><path class="b" d="M16.23327,8.08031A8.11668,8.11668,0,1,1,8.08025.00008,8.11617,8.11617,0,0,1,16.23327,8.08031Z"/><path class="c" d="M15.62181,8.08265A7.5053,7.5053,0,1,1,8.083.61114,7.50522,7.50522,0,0,1,15.62181,8.08265Z"/><path class="d" d="M8.25334,1.09744A4.10833,4.10833,0,0,1,9.69627,1.0946a4.39017,4.39017,0,0,1,1.37791.46135,8.03228,8.03228,0,0,1,1.166.85416c.36724.30312.73449.60547,1.08335.93818A5.50521,5.50521,0,0,1,14.247,4.464a6.33926,6.33926,0,0,1,.64767,1.304,5.93763,5.93763,0,0,1,.266,2.85881h-.04827a13.34971,13.34971,0,0,0-.70295-2.68194,10.40213,10.40213,0,0,0-.555-1.24977,12.3373,12.3373,0,0,0-.73025-1.17183,4.25172,4.25172,0,0,0-.979-.98829,5.71131,5.71131,0,0,0-1.24311-.61449c-.4245-.16956-.84775-.33261-1.28856-.45972-.4401-.1304-.89127-.22239-1.36064-.31483Z"/><path class="e" d="M11.92267,5.43088c-.54482-.15774-1.109-.38143-1.681-.607A1.15381,1.15381,0,0,0,9.825,4.28328a2.02872,2.02872,0,0,0-1.68112-.17214,4.22935,4.22935,0,0,0-1.96507-.06146C.9894,5.47982,3.93164,8.9672,2.02638,12.47366a7.48157,7.48157,0,0,0,7.42134,3.03028S8.002,12.029,11.26527,10.36106C13.91205,9.0081,15.82417,6.496,11.92267,5.43088Z"/><path class="d" d="M12.56323,7.71568a.31448.31448,0,1,1-.31591-.31285A.31453.31453,0,0,1,12.56323,7.71568Z"/><path class="f" d="M8.14384,4.11114a7.84419,7.84419,0,0,1,2.09779.71273c-.292-.85273-1.28335-.96623-2.09779-.71273Z"/><path class="d" d="M8.50332,6.2673a1.45113,1.45113,0,1,1-1.451-1.45077A1.45093,1.45093,0,0,1,8.50332,6.2673Z"/><path class="g" d="M8.073,6.28054A1.02076,1.02076,0,1,1,7.05228,5.25991,1.02066,1.02066,0,0,1,8.073,6.28054Z"/><path class="e" d="M13.73878,8.35532A7.25708,7.25708,0,0,1,9.329,9.81224c-.88766,0-1.06787-.94329-1.65457-.48078a4.18045,4.18045,0,0,1-2.21857.73216A2.75766,2.75766,0,0,1,2.85162,7.71708a13.28694,13.28694,0,0,1-.90855,4.66876,7.34426,7.34426,0,0,0,7.50465,3.1181c-.31421-2.19634,1.6052-4.34785,2.68657-5.44864a14.37165,14.37165,0,0,0,1.60449-1.7Z"/><path class="g" d="M13.69312,8.40945a5.26788,5.26788,0,0,1-1.24174.79681,7.92818,7.92818,0,0,1-1.39394.50733A4.38183,4.38183,0,0,1,9.57,9.88528a2.04734,2.04734,0,0,1-1.36044-.598l.01568-.01847a2.60215,2.60215,0,0,0,1.35962.3748,6.38231,6.38231,0,0,0,1.42881-.1187,7.78528,7.78528,0,0,0,1.38881-.42933A5.20773,5.20773,0,0,0,13.67755,8.391Z"/></svg>