<svg xmlns="http://www.w3.org/2000/svg" viewBox="0 0 15.35003 17.34749"><defs><style>.a{fill:#7289d9;}.b{fill:#fefefe;}</style></defs><path class="a" d="M15.35,17.34749c-1.39753-1.16678-2.72329-2.37211-4.059-3.58007q.10757.373.21522.746c.06633.2286.1294.45825.202.68484.03289.10259.00286.11958-.09587.11931q-1.68785-.00467-3.37571-.002-3.20347-.00006-6.407-.001A1.78373,1.78373,0,0,1,.11013,14.1314a1.69706,1.69706,0,0,1-.10873-.59147Q.00059,7.65782.0034,1.77571A1.8102,1.8102,0,0,1,1.83265,0C5.30936.01258,8.78614.005,12.2629.005c.42254,0,.84509-.00156,1.26762.00034a1.79752,1.79752,0,0,1,1.81911,1.82662M4.41179,9.66625c.29509.14561.58066.30957.88774.432a6.32535,6.32535,0,0,0,4.36681.20215,7.01266,7.01266,0,0,0,1.37887-.60873l.021.0225a1.95089,1.95089,0,0,1-.62472.54776,3.62778,3.62778,0,0,1-.85483.37713c.1831.2221.35794.43289.531.64512.03792.04649.086.04283.13707.04282a2.87391,2.87391,0,0,0,.546-.06094,3.19428,3.19428,0,0,0,1.95645-1.134.33378.33378,0,0,0,.08153-.23839c-.01866-.41176-.04393-.82238-.10156-1.23129a11.90142,11.90142,0,0,0-1.08326-3.54449.62634.62634,0,0,0-.21921-.25593,4.84091,4.84091,0,0,0-1.39867-.66286,3.80637,3.80637,0,0,0-.83809-.1455.15143.15143,0,0,0-.16628.11344c-.01765.07283.07594.06012.11865.0739a6.696,6.696,0,0,1,1.69825.80265.43253.43253,0,0,1,.16189.1506c-.24463-.10376-.45979-.203-.6807-.28733a7.12748,7.12748,0,0,0-3.04669-.47094,8.13915,8.13915,0,0,0-1.839.31252,11.9849,11.9849,0,0,0-1.13986.44231L4.28406,5.1683a5.00708,5.00708,0,0,1,1.23967-.70147c.28174-.12125.5759-.20842.86892-.309-.06254-.157-.18946-.1044-.28717-.09345a4.6012,4.6012,0,0,0-2.155.83868.365.365,0,0,0-.12424.14216A11.34093,11.34093,0,0,0,2.61071,9.907a.34649.34649,0,0,0,.08071.239,3.34778,3.34778,0,0,0,2.51627,1.199.12844.12844,0,0,0,.11822-.05312c.1585-.19613.31748-.3919.47915-.5854.05114-.0612.04213-.0874-.034-.112a2.97775,2.97775,0,0,1-.54355-.23068,2.32612,2.32612,0,0,1-.82542-.68774Z"/><path class="b" d="M4.40209,9.67615a2.32612,2.32612,0,0,0,.82542.68774,2.97775,2.97775,0,0,0,.54355.23068c.07613.02456.08514.05076.034.112-.16167.1935-.32065.38927-.47915.5854a.12844.12844,0,0,1-.11822.05312,3.34778,3.34778,0,0,1-2.51627-1.199.34649.34649,0,0,1-.08071-.239A11.34093,11.34093,0,0,1,3.82628,5.04524a.365.365,0,0,1,.12424-.14216,4.6012,4.6012,0,0,1,2.155-.83868c.09771-.011.22463-.0635.28717.09345-.293.10056-.58718.18773-.86892.309a5.002,5.002,0,0,0-1.23954.70154l-.03361.03268c.02241.02014.03789.00428.0536-.01031A11.9849,11.9849,0,0,1,5.444,4.74843a8.13915,8.13915,0,0,1,1.839-.31252,7.12748,7.12748,0,0,1,3.04669.47094c.22091.08429.43607.18357.6807.28733a.43253.43253,0,0,0-.16189-.1506,6.696,6.696,0,0,0-1.69825-.80265c-.04271-.01378-.1363-.00107-.11865-.0739A.15143.15143,0,0,1,9.198,4.05359a3.80637,3.80637,0,0,1,.83809.1455,4.84091,4.84091,0,0,1,1.39867.66286.62634.62634,0,0,1,.21921.25593A11.90142,11.90142,0,0,1,12.7372,8.66237c.05763.40891.0829.81953.10156,1.23129a.33378.33378,0,0,1-.08153.23839,3.19428,3.19428,0,0,1-1.95645,1.134,2.87391,2.87391,0,0,1-.546.06094c-.05107,0-.09915.00367-.13707-.04282-.17309-.21223-.34793-.423-.531-.64512a3.62778,3.62778,0,0,0,.85483-.37713,1.94821,1.94821,0,0,0,.62456-.54781.05361.05361,0,0,0,.03983-.0438c.00853-.0046.02951-.00444.00791-.02059l-.0093.0193a.04948.04948,0,0,0-.05928.02264,7.01266,7.01266,0,0,1-1.37887.60873,6.32535,6.32535,0,0,1-4.36681-.20215c-.30708-.12238-.59265-.28634-.88776-.43193l-.01622-.01579C4.37758,9.66342,4.39093,9.66968,4.40209,9.67615ZM6.972,8.24131c0-.04122.00242-.08261-.00038-.12365a.92183.92183,0,0,0-.62706-.79419.85936.85936,0,0,0-.937.29237A1.02334,1.02334,0,0,0,5.3954,8.85439a.82218.82218,0,0,0,.61493.34715A.89957.89957,0,0,0,6.972,8.24131Zm1.425.018a1.0995,1.0995,0,0,0,.00749.1355.9088.9088,0,0,0,.58345.75426.81225.81225,0,0,0,.89086-.18085,1.02833,1.02833,0,0,0,.0656-1.37377.85273.85273,0,0,0-1.16191-.14579A.93861.93861,0,0,0,8.397,8.25932Zm2.64664-3.06-.00855-.00879-.00995.00731.00923.00825Z"/><path class="a" d="M6.972,8.24131a.89957.89957,0,0,1-.96166.96023.82218.82218,0,0,1-.61493-.34715,1.02334,1.02334,0,0,1,.01214-1.23855.85936.85936,0,0,1,.937-.29237.92183.92183,0,0,1,.62706.79419C6.97441,8.1587,6.972,8.20009,6.972,8.24131Z"/><path class="a" d="M8.397,8.25932a.93861.93861,0,0,1,.38549-.81065.85273.85273,0,0,1,1.16191.14579,1.02833,1.02833,0,0,1-.0656,1.37377.81225.81225,0,0,1-.89086.18085.9088.9088,0,0,1-.58345-.75426A1.0995,1.0995,0,0,1,8.397,8.25932Z"/><path class="a" d="M4.30418,5.19074c-.01571.01459-.03119.03045-.0536.01031l.03361-.03268Z"/><path class="a" d="M11.04521,9.69162a.04947.04947,0,0,1,.05927-.02264l.0014.0013a.05361.05361,0,0,1-.03983.04379Z"/><polygon class="a" points="11.044 5.199 11.034 5.206 11.025 5.198 11.035 5.191 11.044 5.199"/><path class="a" d="M4.40209,9.67615c-.01116-.00647-.02451-.01273-.00654-.02567l.01622.01579Z"/><path class="a" d="M11.10449,9.669l.0093-.0193c.0216.01615.00062.016-.00791.02059Z"/></svg>