<svg xmlns="http://www.w3.org/2000/svg" viewBox="0 0 69.75681 18.03598"><defs><style>.a{fill:#fdfdfd;}.b{fill:#0e5a8b;}.c{fill:#a4a3a2;}.d{fill:#979695;}.e{fill:#0c598a;}.f{fill:#9d9d9c;}</style></defs><path class="a" d="M.00754,7.83066C.00754,5.32536.01261,2.82,0,.31479-.00129.05243.0533-.00009.31652,0Q34.87791.01148,69.43931,0c.26321-.00009.31668.05259.31625.31476q-.01428,8.68065.00125,17.36129c.00061.30105-.05941.36007-.36165.35993q-29.92671-.01375-59.85344-.00829l-.00011-.08794a2.64235,2.64235,0,0,0,.30818-.00787,8.51876,8.51876,0,0,0,7.17046-6.32856,7.49227,7.49227,0,0,0,.09177-3.1309,19.57192,19.57192,0,0,1-13.91428,7.163A7.64415,7.64415,0,0,0,8.04091,17.9398l.00006.08789H.00754V10.0283c.11253.0373.0854.13928.09937.21952a12.25439,12.25439,0,0,0,.58521,2.20045c.49281,1.31751.62641,1.40446,2.03468,1.27647.76507-.06954.91294-.23165.90949-.98335-.00613-1.33234.05588-2.66486-.01765-3.9971-.02264-.41019.07739-.78211.52809-.9005a3.44142,3.44142,0,0,1,1.61543-.03453.72043.72043,0,0,1,.61223.70367c.0164.18884.01138.3798.01071.56978-.00457,1.28858-.01157,2.57716-.01372,3.86574-.00013.07949-.04685.1865.05341.2357.09379.046.16329-.03605.23258-.08407a1.08119,1.08119,0,0,0,.52729-.95693c-.056-1.566.10417-3.1306.00069-4.69841-.09994-1.51432.03043-1.626,1.55692-1.64044,1.00945-.00957,1.26918.23732,1.21709,1.24224-.07209,1.39106-.04415,2.78179-.02346,4.17258.00257.17325-.143.4617.16063.50735a.682.682,0,0,0,.75737-.33018,1.12673,1.12673,0,0,0,.10063-.55572c-.00548-1.74265-.00058-3.48539-.01745-5.22793-.01231-1.27086.23057-1.52659,1.49885-1.498.0294.00066.0588.0018.08819.00294.90475.03535,1.18033.31569,1.17862,1.2065-.0027,1.40582-.00963,2.81164-.00826,4.21746.0001.10136-.06932.23491.089.31525.89557-.75391,1.80339-1.49771,2.68684-2.2692a1.40116,1.40116,0,0,0,.39694-1.74755c-.07378-.1905-.16334-.37522-.25112-.56A8.63344,8.63344,0,0,0,6.87672.27429a8.99159,8.99159,0,0,0-6.7,6.94588C.13628,7.42522.17366,7.65805.00754,7.83066Zm68.32814-.74741a.7454.7454,0,0,1-.112-.08971,17.75877,17.75877,0,0,1-1.24628-1.90947,1.69972,1.69972,0,0,0-1.98184-1.04979c-.30722.04372-.37738.10836-.37448.40266.0148,1.50679.02915,3.01432-.00623,4.52043-.01117.475.13682.57837.57845.55351.66921-.03767.6708-.00979.6708-.66656l0-3.08146c.68291,1.06261,1.34041,1.97966,1.879,2.96138a1.33019,1.33019,0,0,0,1.49812.7903c.26646-.03262.33937-.08305.33686-.34956-.01335-1.419-.00628-2.83825-.00628-4.2574,0-.8669-.00032-.84984-.86675-.8658-.32419-.006-.3829.10213-.37632.39589C68.34813,5.30013,68.33568,6.16329,68.33568,7.08325ZM47.34531,9.4165c-.4971-.65024-.99659-1.31108-1.50551-1.96465-.14844-.19063-.24185-.30271.05433-.48283A1.58143,1.58143,0,0,0,46.68,5.21041,1.52946,1.52946,0,0,0,45.26088,4.087a3.30307,3.30307,0,0,0-.48313-.03356c-.73493-.00386-1.47055.01568-2.20452-.01113-.32717-.01195-.37826.10579-.37494.39694C42.21347,5.771,42.205,7.10306,42.205,8.435c0,1.12864-.00028,1.12234,1.1431,1.07169.20778-.0092.28066-.06012.274-.27247-.0143-.45329-.01219-.90756.00071-1.36094.00366-.12874-.10207-.333.09132-.37665.20112-.04539.43466-.08386.58426.16576.12739.21255.32389.3877.43161.60766A1.96894,1.96894,0,0,0,47.34531,9.4165ZM30.8172,6.77285v1.6694c0,1.0952-.00018,1.08544,1.10739,1.06565.26014-.00465.31578-.08969.3097-.32706-.015-.58537.00406-1.17158-.00945-1.757-.0051-.22127.04621-.311.28906-.302.49933.01841,1,.01318,1.49974.00174.19356-.00443.25664.05878.25.2502-.01263.36566-.00358.73207-.00358,1.09816,0,1.04251.00018,1.0267,1.04872,1.038.33324.00359.372-.11862.36962-.40266-.013-1.52285-.02119-3.04612.004-4.56867.00663-.39976-.097-.51158-.49993-.49787-.92168.03137-.91715.00947-.92517.94477-.003.34779.14843.79721-.06069,1.01607-.21209.222-.66721.0638-1.01508.06758-.95213.01032-.9522.00355-.9522-.94573,0-1.1021.00009-1.08842-1.09319-1.0815-.2981.00188-.32751.11477-.32365.35869C30.82505,5.19118,30.81722,5.98208,30.8172,6.77285Zm18.90948,2.816a3.37588,3.37588,0,0,0,1.62645-.31412,1.60771,1.60771,0,0,0,.9986-1.611,1.42914,1.42914,0,0,0-1.16353-1.322c-.50357-.15493-1.02553-.24963-1.53494-.38713-.22811-.06157-.47041-.152-.46774-.44793.00272-.30019.22561-.42275.47866-.49672a2.718,2.718,0,0,1,1.72043.16207c.26842.09551.6032.4828.73833.30692.16527-.21512.04506-.64343.06038-.979a.2239.2239,0,0,0-.19051-.24927,4.84619,4.84619,0,0,0-3.11406-.06709,1.60084,1.60084,0,0,0-1.19838,1.55687,1.51433,1.51433,0,0,0,1.27695,1.47623c.46181.14139.94084.22607,1.40883.34873.25142.0659.48518.18453.48413.48912-.00113.32675-.24946.43773-.51952.505a2.87354,2.87354,0,0,1-1.79707-.249c-.29595-.11712-.54749-.58507-.81355-.37767-.16637.12968-.02426.63526-.04659.97044-.01508.22641.0985.2979.28618.36433A5.13668,5.13668,0,0,0,49.72668,9.58884ZM63.8312,9.501c-.54624-1.48316-1.07153-2.90707-1.595-4.33163-.41264-1.1229-.41184-1.1108-1.62863-1.12725a.49551.49551,0,0,0-.56341.39233c-.56039,1.56811-1.14526,3.12754-1.71905,4.69092-.042.11448-.1285.2235-.0766.37563.14955,0,.296-.00007.44249,0,.8844.00048.88421.00042,1.18754-.83828.05829-.16116.08723-.32279.33948-.31118.49879.023.9996.01476,1.49915.00267.18571-.0045.24519.08123.30329.23654.11175.29869.1011.731.35988.86375a2.45817,2.45817,0,0,0,.99752.04618C63.50947,9.50257,63.64116,9.501,63.8312,9.501ZM20.57679,6.78281c0,.76151.0249,1.52416-.01039,2.28405-.01793.3861.11542.45176.46624.4423.92585-.02494,1.85282-.00844,2.77934-.00844.76836,0,.757.00019.74385-.76814-.004-.23513-.073-.3-.301-.29115-.42585.01658-.85281.00473-1.2793.00472-1.01473,0-1.00623.00011-.99267-1.00311.00327-.24157.05886-.33254.31528-.32132.455.0199.91157.00556,1.36748.00556.71947,0,.70071-.0004.71563-.71.00648-.30807-.10772-.35825-.37725-.34995-.573.01766-1.14718-.00383-1.72041.00993-.22494.0054-.32769-.0543-.29711-.29089a1.264,1.264,0,0,0-.00039-.35069c-.04326-.27953.07534-.347.342-.33626.51389.02077,1.02922.00605,1.544.00605.6868,0,.67232-.00025.68414-.69584.0048-.28232-.06712-.37074-.36123-.36588q-1.632.027-3.26466-.0001c-.29575-.005-.36637.086-.35984.36693C20.58877,5.20093,20.5768,5.992,20.57679,6.78281Zm16.50826-.01376c0,.7908.012,1.58188-.00645,2.37225-.00658.28141.06475.37252.36016.36665.97026-.01926,1.94114-.00723,2.91179-.00723.71936,0,.70055-.0004.7155-.71016.00649-.30834-.10823-.35681-.37739-.34984-.64666.01675-1.294.00608-1.94115.00508-.48519-.00074-.25127-.38584-.22811-.54642.037-.25641-.28634-.69627.23033-.75953a12.04655,12.04655,0,0,1,1.45443-.01257c.6864,0,.67177-.00026.68371-.69633.00486-.2832-.06775-.37909-.362-.36506-.51356.02449-1.03154-.02356-1.54313.01636-.41436.03233-.50511-.112-.49981-.50168.00492-.36223.05823-.52419.47259-.48522.46646.04387.94028.0101,1.4109.0101.70675,0,.69058-.00019.699-.726.00327-.28115-.08535-.338-.34848-.3345-1.08811.01429-2.17681.01988-3.26464-.00244-.32812-.00674-.38122.108-.37393.39829C37.09789,5.21642,37.08505,5.9929,37.08505,6.76905ZM57.74242,5.1005c0-.75885.001-.76244-.72093-.96884a5.06223,5.06223,0,0,0-.64442-.13754,2.72028,2.72028,0,0,0-3.3705,2.2718,2.65431,2.65431,0,0,0,2.28391,3.2922,4.2631,4.2631,0,0,0,1.82663-.16805c.46557-.13362.74181-.35089.63065-.88488-.04346-.2088.0505-.55419-.05431-.619-.20239-.12514-.35037.17841-.53375.28055a2.484,2.484,0,0,1-.80783.33384,1.50685,1.50685,0,0,1-1.509-.49915,2.17665,2.17665,0,0,1,.04369-2.50052,1.6946,1.6946,0,0,1,2.25113-.114c.17877.112.3426.40384.54121.29159C57.85209,5.5806,57.70677,5.27589,57.74242,5.1005Zm-30.195-1.04958c-.6907,0-1.38169.01127-2.072-.00586-.25678-.00637-.34045.0802-.31053.32238a1.34368,1.34368,0,0,1-.00024.35052c-.04185.2936.04618.42469.37234.39405.32046-.03011.64724.01088.96892-.01195.26752-.019.35079.05752.34582.33558-.018,1.00939-.00711,2.0193-.00711,3.029,0,1.06068,0,1.0485,1.08422,1.0443.28395-.0011.33726-.08969.33377-.34863-.014-1.0388-.0058-2.07789-.00579-3.11687,0-.938,0-.938.96225-.938.72574,0,.70978-.0003.7227-.70093.00535-.29078-.08092-.36885-.36657-.3602C28.89982,4.06478,28.22339,4.05089,27.54738,4.05092Zm13.69787,9.78762h.00516a.76154.76154,0,0,0,.00313.21871c.08289.26382-.20066.7583.18673.7652.427.0076.12655-.48549.20264-.74542a2.33908,2.33908,0,0,0,.01842-.48076.44272.44272,0,0,1,.44649-.45486c.2719-.00756.37081.20538.3787.44805.011.33651.00876.67347.011,1.01024.001.14024.00957.26668.204.264.19691-.0027.19475-.13474.19507-.27183q.00114-.48328.00392-.96656a.44337.44337,0,0,1,.41549-.48381c.27226-.02789.36442.1779.41524.41615a6.44638,6.44638,0,0,1,.04953,1.09466c.00471.11193.02386.20274.16533.207.12989.00392.19468-.05744.18938-.18237a5.33376,5.33376,0,0,0-.06256-1.35374.59727.59727,0,0,0-.92611-.40253.4732.4732,0,0,1-.67209-.02391.51573.51573,0,0,0-.50893-.01846c-.16939.06128-.302.27987-.508-.00079-.07677-.10464-.217.05183-.21383.21412C41.2488,13.34054,41.24525,13.58958,41.24525,13.83854Zm4.90791,1.0303c.10268,0,.20571.00558.308-.001a.85687.85687,0,0,0,.84735-.51342.67181.67181,0,0,0-.28937-.87491c-.23031-.1477-.01467-.19854.05076-.28047a.62365.62365,0,0,0-.31968-1.06638,2.21794,2.21794,0,0,0-.82764-.06435c-.2555.01095-.34894.137-.34256.39509.01516.61328.00462,1.22718.00486,1.84083C45.58505,14.87723,45.58527,14.87723,46.15316,14.86884Zm13.53877-.624h.00553a6.71826,6.71826,0,0,0,.00857.83128c.025.19937-.17837.55117.18054.571.39346.02169.19622-.3475.20989-.53735.01874-.26029.03843-.3777.34376-.25146a.76609.76609,0,0,0,.9898-.33934,1.17335,1.17335,0,0,0,.031-1.28731.79622.79622,0,0,0-1.026-.343c-.17493.07721-.29712.26046-.50531-.00845-.09593-.12391-.24195.04309-.23941.22578C59.69561,13.48549,59.69193,13.86519,59.69193,14.24485ZM31.68326,13.02394c0-.3059-.00174-.56674.00065-.82753.00142-.15487-.04611-.25336-.22636-.24394-.1627.0085-.18494.1129-.185.24012q-.0002,1.20591-.00122,2.41182c-.00026.14426.01866.26216.20715.26175.18918-.00041.20666-.12017.20578-.26342-.00153-.24848.00358-.497-.00078-.74546-.006-.34335.01764-.68076.47367-.68335.48656-.00277.43561.37719.44619.69564.0068.20442-.00767.40977.0044.61371.0092.15543-.08225.38626.21556.37912.26648-.00639.18326-.21586.18995-.3586.011-.23336.00543-.46764.0024-.70148C33.00444,12.93541,32.56141,12.64668,31.68326,13.02394Zm-9.06316.36271a7.85784,7.85784,0,0,0,.00956.91978c.02263.19089-.18674.55554.20695.54052.36374-.01387.15632-.3649.1887-.56253A5.40016,5.40016,0,0,0,23.039,13.628a.43122.43122,0,0,1,.477-.458c.29553-.0034.4197.17616.4275.44682.00969.336.01022.67223.00993,1.00835-.00014.15733.04984.24882.22892.24.16684-.00824.18257-.11459.18159-.23989-.00285-.36531.02023-.73327-.01612-1.09528-.04854-.48356-.40123-.82977-.78374-.67191-.67345.27792-.533-.146-.53124-.49631q.00033-.06577-.00043-.13156c-.00135-.13542.00176-.27044-.19225-.27781-.22191-.00844-.21986.14162-.21978.29408Q22.62065,12.81656,22.6201,13.38665Zm5.22052.10517v.43911c0,.93447.0002.94479.94579.92624.20574-.004.58984.15038.59122-.13546.00163-.33785-.39737-.18434-.6033-.17062-.423.02818-.55966-.10444-.54541-.53373.01175-.35378.08783-.52117.466-.46468a2.30749,2.30749,0,0,0,.39637.001c.10438-.0027.21924-.00368.20727-.15563-.00942-.11949-.1076-.12136-.1954-.123-.17633-.00338-.35367-.01369-.52891.0001-.24266.0191-.33389-.06561-.33725-.31987-.00733-.5544-.02152-.55423.53738-.555.1029-.00014.20636.00667.30854-.00189.11872-.00994.30016.05244.28646-.1621-.01188-.18593-.17578-.16412-.30491-.1657-.27925-.00342-.55938.01214-.83762-.00492-.28092-.01721-.40532.0784-.39034.37261C27.8544,12.78856,27.84076,13.14053,27.84062,13.49182ZM56.5063,14.86529a.71544.71544,0,0,0,.17582-.00218c.20615-.05405.59033.14428.59181-.14126.00175-.33806-.39722-.18439-.60315-.17078-.42277.028-.55979-.10441-.54558-.53386.01171-.35406.08821-.52094.4662-.46453a2.31268,2.31268,0,0,0,.39638.001c.10445-.00268.21919-.00387.20709-.15578-.00952-.11952-.10777-.12121-.19553-.1229-.17633-.00339-.35368-.01371-.52891.00011-.24287.01915-.33374-.066-.33708-.32005-.00728-.55423-.02145-.55406.53755-.55485.1029-.00014.20635.00664.30854-.00188.11876-.00991.30019.05227.28627-.1623-.01206-.18588-.176-.1638-.30511-.16552-.26454-.00351-.53053.01568-.7934-.00555-.3207-.02591-.4507.08142-.43644.41742.023.54061.00615,1.08289.00615,1.62446C55.73691,14.86529,55.73691,14.86529,56.5063,14.86529Zm-3.19638-1.22885c0-.50626.00073-.94385-.0004-1.38143-.00038-.148.01261-.30643-.21206-.3026-.19214.00327-.1972.13471-.19717.27311q.00024,1.1855-.00023,2.371c-.0001.13967.00625.26637.19926.26948.18837.003.20054-.1136.21377-.258.01792-.19549-.10633-.49493.10621-.56035.24647-.07586.272.28323.43351.41466a.65545.65545,0,0,1,.12718.178.40655.40655,0,0,0,.58566.16853c-.13687-.18715-.2617-.36336-.39222-.53528-.41345-.54458-.41092-.54121.03171-1.07471.07117-.08578.25973-.18611.12155-.31062-.11727-.10568-.26885-.01614-.38573.09729C53.74428,13.17631,53.6272,13.44147,53.30992,13.63644ZM40.68,13.93034h-.00666c0-.249.00256-.49809-.001-.74706-.00207-.14564.01247-.31354-.20242-.32239-.23212-.00955-.19678.16713-.1984.30881q-.00475.41743-.00115.835c.00256.34337-.14172.57955-.50541.58511-.36778.00563-.39965-.2811-.40733-.55672-.009-.322-.00513-.6444-.01243-.9665a.18477.18477,0,0,0-.18246-.20558c-.12014-.00885-.21317.03056-.20923.16165a5.18794,5.18794,0,0,0,.06438,1.39754.64727.64727,0,0,0,.902.43854c.17287-.05952.32332-.30337.54341-.01281.07546.09964.22275-.04493.21825-.21252C40.67529,14.39918,40.68,14.1647,40.68,13.93034Zm7.96079-.02769a.95254.95254,0,0,0,.971,1.017,1.01745,1.01745,0,0,0,.97643-1.08438.976.976,0,1,0-1.94742.06734Zm14.213-.01145a.95553.95553,0,0,0,.95954,1.02942,1.01873,1.01873,0,0,0,.98809-1.07388.95045.95045,0,0,0-.97681-1.011A.93991.93991,0,0,0,62.85375,13.8912ZM21.127,13.60184c0,.336.00087.672-.0004,1.008-.00055.146.02528.25942.21308.25609.19336-.00342.199-.12906.19885-.26849q-.001-.767.00007-1.534c.0001-.60755,0-.60823.59948-.65887.11457-.00967.255.01724.24426-.16429-.00928-.15755-.12918-.17395-.25407-.17392q-.79226.00017-1.58451.00034c-.13,0-.23684.02637-.2289.19.00719.14834.12251.16219.22084.14309.59683-.11588.6453.227.594.67639A4.53947,4.53947,0,0,0,21.127,13.60184Zm46.49194.99827a.68457.68457,0,0,1-.65547-.21335.36272.36272,0,0,1-.11-.31918c.04479-.15932.18981-.10378.29638-.10707.26342-.00811.52725-.00253.79092-.0038.15864-.00077.283-.02744.29568-.23348a.86486.86486,0,0,0-.74458-.88413.82529.82529,0,0,0-.855.41294,1.18135,1.18135,0,0,0-.03185,1.2104.91869.91869,0,0,0,.98065.43488c.16933-.018.50784.04862.4604-.24926C68.00747,14.40553,67.74773,14.69233,67.619,14.60011Zm-29.6597-.00051a.71765.71765,0,0,1-.60266-.15292.38761.38761,0,0,1-.16052-.38383c.05338-.17218.22241-.09618.34183-.10166.24851-.0114.4979-.00359.74691-.00446.16181-.00057.27988-.03569.2897-.23946a.86033.86033,0,0,0-.7505-.87836.92845.92845,0,0,0-1.013,1.04271A.934.934,0,0,0,37.88659,14.905c.17807-.01785.51527.0385.49792-.22135C38.36431,14.38126,38.07627,14.708,37.95927,14.5996Zm-3.35966-.00322a.69036.69036,0,0,1-.5986-.15094.38357.38357,0,0,1-.159-.384c.05466-.17065.22331-.09476.34291-.10024.24851-.0114.49788-.00367.74691-.00445.16264-.00052.27876-.03776.28814-.241a.85115.85115,0,0,0-.79593-.87871c-.59507-.02643-.97722.404-.96761,1.08987a.92831.92831,0,0,0,1.07711.97789c.17774-.01835.51532.03883.49647-.22259C35.00831,14.3819,34.72094,14.70758,34.59961,14.59638Zm-9.7946-.7151a.97756.97756,0,0,0,1.33551.9869c.12713-.03162.29408-.04329.25024-.22721-.04581-.19222-.19222-.04762-.28991-.04466-.29314.00889-.595.05876-.80852-.214a.34923.34923,0,0,1-.105-.31988c.04964-.15513.19359-.09841.30023-.10182.26341-.00844.52726-.003.79092-.00386.16159-.00057.27975-.0352.29009-.23907a.85189.85189,0,0,0-.794-.88052A.92661.92661,0,0,0,24.805,13.88128Zm34.51817.95212a5.00659,5.00659,0,0,0-.36949-.54379.57314.57314,0,0,1-.02464-.87885c.11873-.136.43791-.36222.23053-.5111-.25925-.18613-.3833.17828-.48251.36286-.20064.37333-.32076.24978-.48137-.023-.12474-.2119-.23-.5014-.62518-.32585a4.14089,4.14089,0,0,0,.33.47259.56149.56149,0,0,1,.01442.89751,3.81312,3.81312,0,0,0-.384.55213c.61194.10044.57186-.487.87732-.6626C58.74473,14.3235,58.68885,14.971,59.32318,14.8334Zm-28.84071.08167c.09722-.005.26466.01521.31294-.12516.07082-.20592-.11916-.17749-.23966-.20428-.18644-.04147-.20135-.19356-.20469-.34237-.00591-.26319-.0001-.52663-.00533-.78985-.00338-.16978.04062-.28624.24163-.282.12456.00262.29168-.13746.224-.16549-.32477-.13459-.40395-.54654-.61013-.6404-.35822-.16308-.11836.51636-.49283.54779-.06145.00516-.05713.14994.0166.22227a.0797.0797,0,0,0,.03664.02372c.23856.04236.17838.23026.18329.38093.009.27762-.00448.5567.01845.833A.54518.54518,0,0,0,30.48247,14.91507ZM61.9929,13.36879c0,.39431-.00186.78864.001,1.18293.001.141-.03331.30707.19659.31349.22472.00628.21462-.1472.21465-.29672q.00033-1.161.00008-2.32207c0-.1523.00158-.30391-.21991-.29341-.22822.01081-.18966.181-.19111.32047C61.99039,12.63855,61.9929,13.00368,61.9929,13.36879ZM52.127,14.594a.66854.66854,0,0,1-.72325-.31591.76682.76682,0,0,1,.01922-.83269.6644.6644,0,0,1,.76152-.29934c.09332.02.20887.09339.25445-.0581.04727-.15709-.07124-.20016-.18994-.23386a1.08766,1.08766,0,0,0-1.13619.40325,1.22073,1.22073,0,0,0-.0432,1.20808,1.01505,1.01505,0,0,0,1.076.41809c.13284-.02738.339-.00461.29657-.2263C52.39814,14.4272,52.22639,14.63356,52.127,14.594Zm-3.93637-1.15175q0-.63527.00028-1.27054c.00026-.1386-.05433-.22039-.20567-.22-.15159.00037-.20421.08283-.20412.22129q.00084,1.22675-.00044,2.45348c0,.1263.01834.23082.18382.23879.17872.0086.22926-.08227.228-.24007C48.18952,14.23089,48.19155,13.83656,48.19063,13.44225ZM35.965,13.1376c-.04152-.12141-.01339-.2919-.20355-.28036-.10448.00635-.16612.05657-.16607.16219q.00041.83487.00542,1.66973c.00078.12927.08044.17557.20112.176.1214.00043.19957-.04761.20157-.17585.00387-.249.00593-.498.00357-.747-.00337-.35674.02937-.6869.48066-.75741.13752-.02148.15349-.12182.12969-.23155-.0311-.14346-.14851-.11959-.24818-.10711C36.19515,12.868,36.10468,13.01656,35.965,13.1376Zm32.64386.68461h.00487c0,.20508-.01477.41156.0047.6148.01544.1612-.11763.42953.21185.42237.29277-.00636.178-.25055.18941-.402.01759-.23314.00484-.46843.00875-.70274a.505.505,0,0,1,.4015-.55305c.16017-.03437.26519-.09939.197-.25772-.08285-.19231-.23958-.09725-.37449-.04674-.12107.04533-.217.37729-.38028-.00288-.05368-.125-.26343-.0231-.26332.18091Q68.609,13.44869,68.60882,13.82221Zm-3.355.02027h.00527c0,.21974-.00806.43989.00286.65909.00716.14362-.07514.34979.19014.36155.26364.01169.21036-.18619.21587-.338.00583-.16093.00252-.32225.00118-.48338-.00323-.39059-.022-.7866.51134-.86751.11168-.01695.11409-.12006.10166-.20988-.0157-.11344-.10163-.12853-.19583-.12451a.447.447,0,0,0-.33813.18286c-.09936.12538-.14149.119-.1588-.04452-.01219-.11524-.10478-.12853-.1984-.11644-.14328.01851-.13593.13123-.13661.2336C65.25273,13.34441,65.25384,13.59345,65.25384,13.84248Z"/><path class="b" d="M.00754,7.83066c.16612-.17261.12874-.40544.16922-.61049a8.99159,8.99159,0,0,1,6.7-6.94588A8.63344,8.63344,0,0,1,16.61617,5.28c.08778.1848.17734.36952.25112.56a1.40116,1.40116,0,0,1-.39694,1.74755c-.88345.77149-1.79127,1.51529-2.68684,2.2692-.15835-.08034-.08893-.21389-.089-.31525-.00137-1.40582.00556-2.81164.00826-4.21746.00171-.89081-.27387-1.17115-1.17862-1.2065-.02939-.00114-.05879-.00228-.08819-.00294-1.26828-.0286-1.51116.22713-1.49885,1.498.01687,1.74254.012,3.48528.01745,5.22793a1.12673,1.12673,0,0,1-.10063.55572.682.682,0,0,1-.75737.33018c-.30361-.04565-.15806-.3341-.16063-.50735-.02069-1.39079-.04863-2.78152.02346-4.17258.05209-1.00492-.20764-1.25181-1.21709-1.24224-1.52649.01446-1.65686.12612-1.55692,1.64044.10348,1.56781-.05671,3.13239-.00069,4.69841a1.08119,1.08119,0,0,1-.52729.95693c-.06929.048-.13879.13009-.23258.08407-.10026-.0492-.05354-.15621-.05341-.2357.00215-1.28858.00915-2.57716.01372-3.86574.00067-.19.00569-.38094-.01071-.56978a.72043.72043,0,0,0-.61223-.70367,3.44142,3.44142,0,0,0-1.61543.03453c-.4507.11839-.55073.49031-.52809.9005.07353,1.33224.01152,2.66476.01765,3.9971.00345.7517-.14442.91381-.90949.98335-1.40827.128-1.54187.041-2.03468-1.27647a12.25439,12.25439,0,0,1-.58521-2.20045c-.014-.08024.01316-.18222-.09937-.21952Z"/><path class="c" d="M8.041,18.02769l-.00006-.08789,1.5007-.00005.00011.08794Z"/><path class="d" d="M9.54161,17.93975l-1.5007.00005a7.64415,7.64415,0,0,1-4.84317-2.30435A19.57192,19.57192,0,0,0,17.112,8.47242a7.49227,7.49227,0,0,1-.09177,3.1309,8.51876,8.51876,0,0,1-7.17046,6.32856A2.64235,2.64235,0,0,1,9.54161,17.93975Z"/><path class="b" d="M68.33568,7.08325c0-.92.01245-1.78312-.00689-2.64558-.00658-.29376.05213-.40186.37632-.39589.86643.016.86675-.0011.86675.8658,0,1.41915-.00707,2.83837.00628,4.2574.00251.26651-.0704.31694-.33686.34956a1.33019,1.33019,0,0,1-1.49812-.7903c-.53862-.98172-1.19612-1.89877-1.879-2.96138l0,3.08146c0,.65677-.00159.62889-.6708.66656-.44163.02486-.58962-.07851-.57845-.55351.03538-1.50611.021-3.01364.00623-4.52043-.0029-.2943.06726-.35894.37448-.40266a1.69972,1.69972,0,0,1,1.98184,1.04979A17.75877,17.75877,0,0,0,68.2237,6.99354.7454.7454,0,0,0,68.33568,7.08325Z"/><path class="b" d="M47.34531,9.4165a1.96894,1.96894,0,0,1-2.61539-1.14645c-.10772-.22-.30422-.39511-.43161-.60766-.1496-.24962-.38314-.21115-.58426-.16576-.19339.04365-.08766.24791-.09132.37665-.0129.45338-.015.90765-.00071,1.36094.0067.21235-.06618.26327-.274.27247-1.14338.05065-1.1431.05695-1.1431-1.07169,0-1.33194.00851-2.664-.00667-3.99573-.00332-.29115.04777-.40889.37494-.39694.734.02681,1.46959.00727,2.20452.01113a3.30307,3.30307,0,0,1,.48313.03356A1.52946,1.52946,0,0,1,46.68,5.21041,1.58143,1.58143,0,0,1,45.89413,6.969c-.29618.18012-.20277.2922-.05433.48283C46.34872,8.10542,46.84821,8.76626,47.34531,9.4165ZM43.61772,5.74909c0,.85554,0,.85554.82075.7507a.76143.76143,0,0,0,.76555-.83125c-.02525-.43006-.26886-.62215-.821-.64735C43.61772,4.98626,43.61772,4.98626,43.61772,5.74909Z"/><path class="e" d="M30.81721,6.77285c0-.79077.00784-1.58167-.00466-2.37224-.00386-.24392.02555-.35681.32365-.35869,1.09328-.00692,1.09319-.0206,1.09319,1.0815,0,.94928.00007.956.9522.94573.34787-.00378.803.15438,1.01508-.06758.20912-.21886.05771-.66828.06069-1.01607.008-.9353.00349-.9134.92517-.94477.40291-.01371.50656.09811.49993.49787-.02522,1.52255-.017,3.04582-.004,4.56867.00242.284-.03638.40625-.36962.40266-1.04854-.01132-1.04871.00449-1.04872-1.038,0-.36609-.009-.7325.00358-1.09816.00661-.19142-.05647-.25463-.25-.2502-.49975.01144-1.00041.01667-1.49974-.00174-.24285-.00895-.29416.08074-.28906.302.01351.58544-.00554,1.17165.00945,1.757.00608.23737-.04956.32241-.3097.32706-1.10757.01979-1.10739.02955-1.10739-1.06565Z"/><path class="b" d="M49.72658,9.58894a5.139,5.139,0,0,1-1.76685-.32128c-.18768-.06643-.30126-.13792-.28618-.36433.02233-.33518-.11978-.84076.04659-.97044.26606-.2074.5176.26055.81355.37767a2.87354,2.87354,0,0,0,1.79707.249c.27006-.06729.51839-.17827.51952-.505.001-.30459-.23271-.42322-.48413-.48912-.468-.12266-.947-.20734-1.40883-.34873a1.51433,1.51433,0,0,1-1.27695-1.47623,1.60084,1.60084,0,0,1,1.19838-1.55687,4.84619,4.84619,0,0,1,3.11406.06709.2239.2239,0,0,1,.19051.24927c-.01532.33558.10489.76389-.06038.979-.13513.17588-.46991-.21141-.73833-.30692A2.718,2.718,0,0,0,49.66418,5.01c-.25305.074-.47594.19653-.47866.49672-.00267.29594.23963.38636.46774.44793.50941.1375,1.03137.2322,1.53494.38713a1.42914,1.42914,0,0,1,1.16353,1.322,1.60771,1.60771,0,0,1-.9986,1.611A3.37729,3.37729,0,0,1,49.72658,9.58894Z"/><path class="b" d="M63.8312,9.501c-.19,0-.32173.00155-.45337-.00031a2.45817,2.45817,0,0,1-.99752-.04618c-.25878-.1328-.24813-.56506-.35988-.86375-.0581-.15531-.11758-.241-.30329-.23654-.49955.01209-1.00036.0203-1.49915-.00267-.25225-.01161-.28119.15-.33948.31118-.30333.8387-.30314.83876-1.18754.83828-.14647-.00008-.29294,0-.44249,0-.0519-.15213.03459-.26115.0766-.37563.57379-1.56338,1.15866-3.12281,1.71905-4.69092a.49551.49551,0,0,1,.56341-.39233c1.21679.01645,1.216.00435,1.62863,1.12725C62.75967,6.594,63.285,8.01786,63.8312,9.501ZM60.3369,7.39071c.37581,0,.698-.00772,1.01963.00291.1914.00633.23035-.06915.17307-.23349-.182-.522-.36257-1.04458-.567-1.63408-.18933.54669-.3566,1.0272-.52168,1.50845C60.40845,7.12924,60.38443,7.22685,60.3369,7.39071Z"/><path class="e" d="M20.5768,6.78281c0-.7908.012-1.58188-.00642-2.37225-.00653-.281.06409-.3719.35984-.36693q1.632.02743,3.26466.0001c.29411-.00486.366.08356.36123.36588-.01182.69559.00266.69583-.68414.69584-.51474,0-1.03007.01472-1.544-.00605-.26661-.01078-.38521.05673-.342.33626a1.264,1.264,0,0,1,.00039.35069c-.03058.23659.07217.29629.29711.29089.57323-.01376,1.1474.00773,1.72041-.00993.26953-.0083.38373.04188.37725.34995-.01492.70962.00384.71-.71563.71-.45591,0-.91244.01434-1.36748-.00556-.25642-.01122-.312.07975-.31528.32132-.01356,1.00322-.02206,1.00311.99267,1.00311.42649,0,.85345.01186,1.2793-.00472.228-.00887.297.056.301.29115.01314.76833.02451.76814-.74385.76814-.92652,0-1.85349-.0165-2.77934.00844-.35082.00946-.48417-.0562-.46624-.4423C20.60169,8.307,20.57679,7.54432,20.5768,6.78281Z"/><path class="e" d="M37.08505,6.76905c0-.77615.01284-1.55263-.00664-2.3283-.00729-.29029.04581-.405.37393-.39829,1.08783.02232,2.17653.01673,3.26464.00244.26313-.00346.35175.05335.34848.3345-.00846.72586.00771.726-.699.726-.47062,0-.94444.03377-1.4109-.0101-.41436-.039-.46767.123-.47259.48522-.0053.38973.08545.534.49981.50168.51159-.03992,1.02957.00813,1.54313-.01636.29425-.014.36686.08186.362.36506-.01194.69607.00269.69631-.68371.69633a12.04655,12.04655,0,0,0-1.45443.01257c-.51667.06326-.19334.50312-.23033.75953-.02316.16058-.25708.54568.22811.54642.6471.001,1.29449.01167,1.94115-.00508.26916-.007.38388.0415.37739.34984-.01495.70976.00386.71016-.7155.71016-.97065,0-1.94153-.012-2.91179.00723-.29541.00587-.36674-.08524-.36016-.36665C37.09709,8.35093,37.08505,7.55985,37.08505,6.76905Z"/><path class="b" d="M57.74242,5.1005c-.03565.17539.10967.4801-.06357.578-.19861.11225-.36244-.17962-.54121-.29159a1.6946,1.6946,0,0,0-2.25113.114,2.17665,2.17665,0,0,0-.04369,2.50052,1.50685,1.50685,0,0,0,1.509.49915,2.484,2.484,0,0,0,.80783-.33384c.18338-.10214.33136-.40569.53375-.28055.10481.06481.01085.4102.05431.619.11116.534-.16508.75126-.63065.88488a4.2631,4.2631,0,0,1-1.82663.16805,2.65431,2.65431,0,0,1-2.28391-3.2922,2.72028,2.72028,0,0,1,3.3705-2.2718,5.06223,5.06223,0,0,1,.64442.13754C57.74345,4.33806,57.74242,4.34165,57.74242,5.1005Z"/><path class="e" d="M27.54738,4.0509c.676,0,1.35244.01388,2.02782-.00658.28565-.00865.37192.06942.36657.3602-.01292.70063.003.70093-.7227.70093-.96225,0-.96225,0-.96225.938,0,1.039-.00826,2.07807.00579,3.11687.00349.25894-.04982.34753-.33377.34863-1.08426.0042-1.08421.01638-1.08422-1.0443,0-1.00972-.01092-2.01963.00711-3.029.005-.27806-.0783-.35456-.34582-.33558-.32168.02283-.64846-.01816-.96892.01195-.32616.03064-.41419-.10045-.37234-.394a1.34368,1.34368,0,0,0,.00024-.35052c-.02992-.24218.05375-.32875.31053-.32238C26.16569,4.06219,26.85668,4.05092,27.54738,4.0509Z"/><path class="f" d="M41.24525,13.83854c0-.249.00355-.498-.00127-.74687-.00314-.16229.13706-.31876.21383-.21412.20594.28066.33857.06207.508.00079a.51573.51573,0,0,1,.50893.01846.4732.4732,0,0,0,.67209.02391.59727.59727,0,0,1,.92611.40253,5.33376,5.33376,0,0,1,.06256,1.35374c.0053.12493-.05949.18629-.18938.18237-.14147-.00428-.16062-.09509-.16533-.207a6.44638,6.44638,0,0,0-.04953-1.09466c-.05082-.23825-.143-.444-.41524-.41615a.44337.44337,0,0,0-.41549.48381q-.00279.48327-.00392.96656c-.00032.13709.00184.26913-.19507.27183-.19438.00266-.203-.12378-.204-.264-.00227-.33677-.00008-.67373-.011-1.01024-.00789-.24267-.1068-.45561-.3787-.44805a.44272.44272,0,0,0-.44649.45486,2.33908,2.33908,0,0,1-.01842.48076c-.07609.25993.2244.753-.20264.74542-.38739-.0069-.10384-.50138-.18673-.7652a.76154.76154,0,0,1-.00313-.21871Z"/><path class="f" d="M46.15316,14.86884c-.56789.00839-.56811.00839-.56832-.56461-.00024-.61365.0103-1.22755-.00486-1.84083-.00638-.2581.08706-.38414.34256-.39509a2.21794,2.21794,0,0,1,.82764.06435.62365.62365,0,0,1,.31968,1.06638c-.06543.08193-.28107.13277-.05076.28047a.67181.67181,0,0,1,.28937.87491.85687.85687,0,0,1-.84735.51342C46.35887,14.87442,46.25584,14.86884,46.15316,14.86884ZM45.9874,14.023c-.00076.56782-.00076.56782.30492.57481.41172.00943.6736-.19075.678-.51826.0044-.32719-.25323-.51308-.66453-.539C45.85628,13.5122,46.02277,13.83188,45.9874,14.023ZM46,12.89435c.03316.09991-.13217.41679.26115.37005.29074-.03454.61515-.07244.61819-.47166.00273-.35753-.26771-.39123-.54744-.41749C45.96743,12.341,45.96658,12.56462,46,12.89435Z"/><path class="c" d="M59.69193,14.24485c0-.37966.00368-.75936-.00159-1.13895-.00254-.18269.14348-.34969.23941-.22578.20819.26891.33038.08566.50531.00845a.79622.79622,0,0,1,1.026.343,1.17335,1.17335,0,0,1-.031,1.28731.76609.76609,0,0,1-.9898.33934c-.30533-.12624-.325-.00883-.34376.25146-.01367.18985.18357.559-.20989.53735-.35891-.01978-.15553-.37158-.18054-.571a6.71826,6.71826,0,0,1-.00857-.83128Zm1.55022-.334a.70369.70369,0,0,0-.54129-.7895c-.35495-.02031-.58257.25307-.5928.712-.01145.51337.142.74582.50674.76757C60.97174,14.62216,61.23,14.33805,61.24215,13.91081Z"/><path class="c" d="M31.68326,13.02394c.87815-.37726,1.32118-.08853,1.33243.77838.003.23384.00855.46812-.0024.70148-.00669.14274.07653.35221-.18995.3586-.29781.00714-.20636-.22369-.21556-.37912-.01207-.20394.0024-.40929-.0044-.61371-.01058-.31845.04037-.69841-.44619-.69564-.456.00259-.4797.34-.47367.68335.00436.24842-.00075.497.00078.74546.00088.14325-.0166.263-.20578.26342-.18849.00041-.20741-.11749-.20715-.26175q.0021-1.20591.00122-2.41182c0-.12722.02226-.23162.185-.24012.18025-.00942.22778.08907.22636.24394C31.68152,12.4572,31.68326,12.718,31.68326,13.02394Z"/><path class="c" d="M22.62026,13.38665q.00024-.57009.0001-1.14017c-.00008-.15246-.00213-.30252.21978-.29408.194.00737.1909.14239.19225.27781q.00066.06578.00043.13156c-.00173.3503-.14221.77423.53124.49631.38251-.15786.7352.18835.78374.67191.03635.362.01327.73.01612,1.09528.001.1253-.01475.23165-.18159.23989-.17908.00885-.22906-.08264-.22892-.24.00029-.33612-.00024-.6724-.00993-1.00835-.0078-.27066-.132-.45022-.4275-.44682a.43122.43122,0,0,0-.477.458,5.40016,5.40016,0,0,1-.01369.65641c-.03238.19763.175.54866-.1887.56253-.39369.015-.18432-.34963-.20695-.54052A7.82318,7.82318,0,0,1,22.62026,13.38665Z"/><path class="f" d="M27.84069,13.49182c.00007-.35129.01371-.70326-.00414-1.05365-.015-.29421.10942-.38982.39034-.37261.27824.01706.55837.0015.83762.00492.12913.00158.293-.02023.30491.1657.0137.21454-.16774.15216-.28646.1621-.10218.00856-.20564.00175-.30854.00189-.5589.00079-.54471.00062-.53738.555.00336.25426.09459.339.33725.31987.17524-.01379.35258-.00348.52891-.0001.0878.00169.186.00356.1954.123.012.152-.10289.15293-.20727.15563a2.30749,2.30749,0,0,1-.39637-.001c-.37821-.05649-.45429.1109-.466.46468-.01425.42929.12246.56191.54541.53373.20593-.01372.60493-.16723.6033.17062-.00138.28584-.38548.13142-.59122.13546-.94559.01855-.94579.00823-.94579-.92624Q27.84062,13.71138,27.84069,13.49182Z"/><path class="f" d="M56.5063,14.86529c-.76939,0-.76939,0-.76939-.75849,0-.54157.01681-1.08385-.00615-1.62446-.01426-.336.11574-.44333.43644-.41742.26287.02123.52886.002.7934.00555.12911.00172.29305-.02036.30511.16552.01392.21457-.16751.15239-.28627.1623-.10219.00852-.20564.00174-.30854.00188-.559.00079-.54483.00062-.53755.55485.00334.25408.09421.3392.33708.32005.17523-.01382.35258-.0035.52891-.00011.08776.00169.186.00338.19553.1229.0121.15191-.10264.1531-.20709.15578a2.31268,2.31268,0,0,1-.39638-.001c-.378-.05641-.45449.11047-.4662.46453-.01421.42945.12281.56181.54558.53386.20593-.01361.6049-.16728.60315.17078-.00148.28554-.38566.08721-.59181.14126A.71544.71544,0,0,1,56.5063,14.86529Z"/><path class="c" d="M53.30992,13.63644c.31728-.195.43436-.46013.631-.651.11688-.11343.26846-.203.38573-.09729.13818.12451-.05038.22484-.12155.31062-.44263.5335-.44516.53013-.03171,1.07471.13052.17192.25535.34813.39222.53528a.40655.40655,0,0,1-.58566-.16853.65545.65545,0,0,0-.12718-.178c-.16147-.13143-.187-.49052-.43351-.41466-.21254.06542-.08829.36486-.10621.56035-.01323.14444-.0254.26107-.21377.258-.193-.00311-.19936-.12981-.19926-.26948q.00087-1.1855.00023-2.371c0-.1384.005-.26984.19717-.27311.22467-.00383.21168.15458.21206.3026C53.31065,12.69259,53.30992,13.13018,53.30992,13.63644Z"/><path class="f" d="M40.68,13.93034c0,.23436-.0047.46884.00158.703.0045.16759-.14279.31216-.21825.21252-.22009-.29056-.37054-.04671-.54341.01281a.64727.64727,0,0,1-.902-.43854,5.18794,5.18794,0,0,1-.06438-1.39754c-.00394-.13109.08909-.1705.20923-.16165a.18477.18477,0,0,1,.18246.20558c.0073.3221.00344.64447.01243.9665.00768.27562.03955.56235.40733.55672.36369-.00556.508-.24174.50541-.58511q-.00311-.41746.00115-.835c.00162-.14168-.03372-.31836.1984-.30881.21489.00885.20035.17675.20242.32239.00354.249.001.498.001.74706Z"/><path class="f" d="M48.64078,13.90265a.976.976,0,1,1,1.94742-.06734,1.01745,1.01745,0,0,1-.97643,1.08438A.95254.95254,0,0,1,48.64078,13.90265Zm.96684-.79423c-.33963-.00364-.59041.29979-.60233.7288-.01276.45918.22646.77054.59426.77346a.64851.64851,0,0,0,.60773-.72107C50.20875,13.43326,49.96231,13.11222,49.60762,13.10842Z"/><path class="f" d="M62.85375,13.8912a.93991.93991,0,0,1,.97082-1.05549.95045.95045,0,0,1,.97681,1.011,1.01873,1.01873,0,0,1-.98809,1.07388A.95553.95553,0,0,1,62.85375,13.8912Zm.36433-.04c-.00723.45672.23941.76454.60846.75941a.644.644,0,0,0,.5938-.691c.02-.46345-.24722-.81668-.61379-.81137C63.46918,13.11309,63.22487,13.42153,63.21808,13.85115Z"/><path class="c" d="M21.12677,13.60184a4.59805,4.59805,0,0,1,.003-.52558c.0513-.44937.00283-.79227-.594-.67639-.09833.0191-.21365.00525-.22084-.14309-.00794-.16366.09887-.19007.2289-.19q.79225.00021,1.58451-.00034c.12489,0,.24479.01637.25407.17392.01071.18153-.12969.15462-.24426.16429-.59948.05064-.59938.05132-.59948.65887q-.00012.767-.00007,1.534c.00019.13943-.00549.26507-.19885.26849-.1878.00333-.21363-.11011-.21308-.25609C21.1279,14.27387,21.127,13.93785,21.12677,13.60184Z"/><path class="f" d="M67.619,14.60011c.12876.09222.3885-.19458.42712.04795.04744.29788-.29107.23127-.4604.24926a.91869.91869,0,0,1-.98065-.43488,1.18135,1.18135,0,0,1,.03185-1.2104.82529.82529,0,0,1,.855-.41294.86486.86486,0,0,1,.74458.88413c-.01267.206-.137.23271-.29568.23348-.26367.00127-.5275-.00431-.79092.0038-.10657.00329-.25159-.05225-.29638.10707a.36272.36272,0,0,0,.11.31918A.68457.68457,0,0,0,67.619,14.60011Zm-.27628-.8725c.1311-.15951.47567.14542.49649-.21544.01388-.24066-.18153-.40881-.46571-.41056a.45291.45291,0,0,0-.50318.43489C66.86688,13.84014,67.16967,13.61614,67.34269,13.72761Z"/><path class="f" d="M37.95927,14.5996c.117.10838.405-.21834.42524.08408.01735.25985-.31985.2035-.49792.22135A.934.934,0,0,1,36.811,13.88162a.92845.92845,0,0,1,1.013-1.04271.86033.86033,0,0,1,.7505.87836c-.00982.20377-.12789.23889-.2897.23946-.249.00087-.4984-.00694-.74691.00446-.11942.00548-.28845-.07052-.34183.10166a.38761.38761,0,0,0,.16052.38383A.71765.71765,0,0,0,37.95927,14.5996ZM37.65172,13.71c.17534-.09374.49928.13665.52484-.19683.01827-.23851-.17915-.40911-.46355-.41171a.45325.45325,0,0,0-.50461.43359C37.20334,13.84117,37.50687,13.6157,37.65172,13.71Z"/><path class="f" d="M34.59961,14.59638c.12133.1112.4087-.21448.43036.08586.01885.26142-.31873.20424-.49647.22259a.92831.92831,0,0,1-1.07711-.97789c-.00961-.68586.37254-1.1163.96761-1.08987a.85115.85115,0,0,1,.79593.87871c-.00938.2032-.1255.24044-.28814.241-.249.00078-.4984-.00695-.74691.00445-.1196.00548-.28825-.07041-.34291.10024a.38357.38357,0,0,0,.159.384A.69036.69036,0,0,0,34.59961,14.59638Zm-.25693-.87181c.12518-.14894.47071.141.47688-.22611.00417-.24844-.19682-.40185-.47777-.39628a.446.446,0,0,0-.487.44841C33.86664,13.832,34.16219,13.62133,34.34268,13.72457Z"/><path class="f" d="M24.805,13.88128a.92661.92661,0,0,1,.9695-1.04414.85189.85189,0,0,1,.794.88052c-.01034.20387-.1285.2385-.29009.23907-.26366.00091-.52751-.00458-.79092.00386-.10664.00341-.25059-.05331-.30023.10182a.34923.34923,0,0,0,.105.31988c.21349.27278.51538.22291.80852.214.09769-.003.2441-.14756.28991.04466.04384.18392-.12311.19559-.25024.22721A.97756.97756,0,0,1,24.805,13.88128Zm.84748-.17076c.17057-.09808.49741.14141.51729-.202.014-.24144-.18428-.40708-.46793-.40683a.45115.45115,0,0,0-.49914.4383C25.20329,13.83862,25.50415,13.617,25.65249,13.71052Z"/><path class="f" d="M59.32318,14.8334c-.63433.1376-.57845-.5099-.91495-.66014-.30546.17559-.26538.763-.87732.6626a3.81312,3.81312,0,0,1,.384-.55213.56149.56149,0,0,0-.01442-.89751,4.14089,4.14089,0,0,1-.33-.47259c.39519-.17555.50044.114.62518.32585.16061.27282.28073.39637.48137.023.09921-.18458.22326-.549.48251-.36286.20738.14888-.1118.37509-.23053.5111a.57314.57314,0,0,0,.02464.87885A5.00659,5.00659,0,0,1,59.32318,14.8334Z"/><path class="f" d="M30.48247,14.91507a.54518.54518,0,0,1-.519-.5419c-.02293-.27625-.00941-.55533-.01845-.833-.00491-.15067.05527-.33857-.18329-.38093a.0797.0797,0,0,1-.03664-.02372c-.07373-.07233-.07805-.21711-.0166-.22227.37447-.03143.13461-.71087.49283-.54779.20618.09386.28536.50581.61013.6404.06763.028-.09949.16811-.224.16549-.201-.00423-.245.11223-.24163.282.00523.26322-.00058.52666.00533.78985.00334.14881.01825.3009.20469.34237.1205.02679.31048-.00164.23966.20428C30.74713,14.93028,30.57969,14.91007,30.48247,14.91507Z"/><path class="c" d="M61.9929,13.36879c0-.36511-.00251-.73024.00129-1.09531.00145-.13942-.03711-.30966.19111-.32047.22149-.0105.21991.14111.21991.29341q0,1.161-.00008,2.32207c0,.14952.01007.303-.21465.29672-.2299-.00642-.19557-.17254-.19659-.31349C61.991,14.15743,61.9929,13.7631,61.9929,13.36879Z"/><path class="f" d="M52.127,14.594c.09939.03956.27114-.1668.31518.06322.04246.22169-.16373.19892-.29657.2263a1.01505,1.01505,0,0,1-1.076-.41809,1.22073,1.22073,0,0,1,.0432-1.20808A1.08766,1.08766,0,0,1,52.249,12.8541c.1187.0337.23721.07677.18994.23386-.04558.15149-.16113.07808-.25445.0581a.6644.6644,0,0,0-.76152.29934.76682.76682,0,0,0-.01922.83269A.66854.66854,0,0,0,52.127,14.594Z"/><path class="c" d="M48.19109,13.44225c.00046.39431-.00157.78864.00146,1.18292.00121.1578-.04933.24867-.228.24007-.16548-.008-.18387-.11249-.18382-.23879q.00048-1.22675.00044-2.45348c-.00009-.13846.05253-.22092.20412-.22129.15134-.00036.20593.08143.20567.22Q48.18974,12.807,48.19109,13.44225Z"/><path class="c" d="M35.965,13.1376c.13972-.121.23019-.26957.40423-.29137.09967-.01248.21708-.03635.24818.10711.0238.10973.00783.21007-.12969.23155-.45129.07051-.484.40067-.48066.75741.00236.249.0003.498-.00357.747-.002.12824-.08017.17628-.20157.17585-.12068-.00042-.20034-.04672-.20112-.176q-.005-.83485-.00542-1.66973c-.00005-.10562.06159-.15584.16607-.16219C35.95157,12.8457,35.92344,13.01619,35.965,13.1376Z"/><path class="c" d="M68.60882,13.82221q0-.37351,0-.747c-.00011-.204.20964-.30593.26332-.18091.16327.38017.25921.04821.38028.00288.13491-.05051.29164-.14557.37449.04674.06821.15833-.03681.22335-.197.25772a.505.505,0,0,0-.4015.55305c-.00391.23431.00884.4696-.00875.70274-.01143.15144.10336.39563-.18941.402-.32948.00716-.19641-.26117-.21185-.42237-.01947-.20324-.0047-.40972-.0047-.6148Z"/><path class="c" d="M65.25384,13.84248c0-.249-.00111-.49807.00055-.7471.00068-.10237-.00667-.21509.13661-.2336.09362-.01209.18621.0012.1984.11644.01731.16356.05944.1699.1588.04452a.447.447,0,0,1,.33813-.18286c.0942-.004.18013.01107.19583.12451.01243.08982.01.19293-.10166.20988-.53331.08091-.51457.47692-.51134.86751.00134.16113.00465.32245-.00118.48338-.00551.15177.04777.34965-.21587.338-.26528-.01176-.183-.21793-.19014-.36155-.01092-.2192-.00286-.43935-.00286-.65909Z"/><path class="a" d="M43.61772,5.74909c0-.76283,0-.76283.76532-.7279.55212.0252.79573.21729.821.64735a.76143.76143,0,0,1-.76555.83125C43.61772,6.60463,43.61772,6.60463,43.61772,5.74909Z"/><path class="a" d="M60.3369,7.39071c.04753-.16386.07155-.26147.104-.35621.16508-.48125.33235-.96176.52168-1.50845.20441.5895.385,1.112.567,1.63408.05728.16434.01833.23982-.17307.23349C61.03492,7.383,60.71271,7.39071,60.3369,7.39071Z"/><path class="a" d="M45.9874,14.023c.03537-.19114-.13112-.51082.31839-.48247.4113.02594.66893.21183.66453.539-.0044.32751-.26628.52769-.678.51826C45.98664,14.59084,45.98664,14.59084,45.9874,14.023Z"/><path class="a" d="M46,12.89435c-.03338-.32973-.03253-.5533.3319-.5191.27973.02626.55017.06.54744.41749-.003.39922-.32745.43712-.61819.47166C45.86779,13.31114,46.03312,12.99426,46,12.89435Z"/><path class="a" d="M61.24215,13.91081c-.01211.42724-.27041.71135-.62735.69006-.36473-.02175-.51819-.2542-.50674-.76757.01023-.45892.23785-.7323.5928-.712A.70369.70369,0,0,1,61.24215,13.91081Z"/><path class="a" d="M49.60762,13.10842c.35469.0038.60113.32484.59966.78119a.64851.64851,0,0,1-.60773.72107c-.3678-.00292-.607-.31428-.59426-.77346C49.01721,13.40821,49.268,13.10478,49.60762,13.10842Z"/><path class="a" d="M63.21808,13.85115c.00679-.42962.2511-.73806.58847-.743.36657-.00531.63378.34792.61379.81137a.644.644,0,0,1-.5938.691C63.45749,14.61569,63.21085,14.30787,63.21808,13.85115Z"/><path class="a" d="M67.34269,13.72761c-.173-.11147-.47581.11253-.4724-.19111a.45291.45291,0,0,1,.50318-.43489c.28418.00175.47959.1699.46571.41056C67.81836,13.873,67.47379,13.5681,67.34269,13.72761Z"/><path class="a" d="M37.65172,13.71c-.14485-.09433-.44838.13114-.44332-.17495a.45325.45325,0,0,1,.50461-.43359c.2844.0026.48182.1732.46355.41171C38.151,13.84668,37.82706,13.61629,37.65172,13.71Z"/><path class="a" d="M34.34268,13.72457c-.18049-.10324-.476.10745-.48788-.174a.446.446,0,0,1,.487-.44841c.28095-.00557.48194.14784.47777.39628C34.81339,13.86558,34.46786,13.57563,34.34268,13.72457Z"/><path class="a" d="M25.65249,13.71052c-.14834-.09354-.4492.1281-.44978-.17056a.45115.45115,0,0,1,.49914-.4383c.28365-.00025.48191.16539.46793.40683C26.1499,13.85193,25.82306,13.61244,25.65249,13.71052Z"/></svg>