<svg xmlns="http://www.w3.org/2000/svg" viewBox="0 0 13.84941 13.85268"><defs><style>.a{isolation:isolate;}.b{opacity:0.55;}.c{mix-blend-mode:multiply;}.d{fill:none;stroke:#6f639d;stroke-miterlimit:10;}.e{fill:#6f639d;}</style></defs><g class="a"><g class="b"><g class="c"><path class="d" d="M.50072,6.99949A6.42436,6.42436,0,1,0,6.79835.50075,6.4314,6.4314,0,0,0,.50072,6.99949Z"/></g><g class="c"><path class="e" d="M8.5065,9.5088,8.73,9.89891a5.42336,5.42336,0,0,1-2.63614,1.67987c-.97436.16146-1.59973-.45985-1.32422-1.40877.28011-.96474.66727-1.89861,1.01363-2.84377.103-.28092.24793-.548.33133-.83383a1.44458,1.44458,0,0,0-.02317-.47049,1.51045,1.51045,0,0,0-.4675.08328,5.57571,5.57571,0,0,0-.62829.45408L4.779,6.158A3.21184,3.21184,0,0,1,7.23907,5.04856,1.15055,1.15055,0,0,1,8.3562,6.69125c-.28726.88132-.6332,1.74345-.949,2.6156A2.88042,2.88042,0,0,0,7.251,9.852a1.23526,1.23526,0,0,0,.05419.36263,1.0463,1.0463,0,0,0,.385-.07576C7.97017,9.95029,8.22745,9.72791,8.5065,9.5088Z"/><path class="e" d="M9.38693,2.99249A1.28145,1.28145,0,0,1,8.09224,4.223,1.07454,1.07454,0,0,1,6.97768,3.1662,1.3133,1.3133,0,0,1,8.26625,1.94648,1.06761,1.06761,0,0,1,9.38693,2.99249Z"/></g></g></g></svg>