<svg xmlns="http://www.w3.org/2000/svg" viewBox="0 0 20.31366 18.69083"><defs><style>.a{opacity:0.55;}.b{fill:#6f639d;}</style></defs><g class="a"><path class="b" d="M17.93595,10.51335,10.49449,3.9399a.51.51,0,0,0-.67534,0L2.37769,10.51335a.2551.2551,0,0,0-.08618.19115v7.73133a.255.255,0,0,0,.255.255h5.231a.255.255,0,0,0,.255-.255v-4.938a1.02,1.02,0,0,1,1.02-1.02h2.20878a1.02,1.02,0,0,1,1.02,1.02v4.938a.255.255,0,0,0,.255.255h5.231a.255.255,0,0,0,.255-.255V10.7045A.2551.2551,0,0,0,17.93595,10.51335Z"/><path class="b" d="M19.98607,7.96272,11.50351.50765a2.04006,2.04006,0,0,0-2.69338,0L.32757,7.96272A.96383.96383,0,0,0,.28229,9.36821v0A.96389.96389,0,0,0,1.60087,9.41L9.48266,2.46791a1.02,1.02,0,0,1,1.34832,0l7.88179,6.94207a.96381.96381,0,1,0,1.2733-1.44721Z"/></g></svg>