<svg xmlns="http://www.w3.org/2000/svg" width="21" height="19" viewBox="0 0 21 19"><g><g opacity=".9"><g opacity=".55"><path fill="#74639f" d="M5.553 17.68c-.444-.55-.433-1.317.027-1.825.259-.286.533-.56.808-.833.187-.187.375-.374.557-.566a.688.688 0 0 0 .176-.305c.042-.176-.072-.327-.205-.399a.404.404 0 0 0-.191-.05.394.394 0 0 0-.265.106 4.699 4.699 0 0 0-.206.193c-.092.09-.185.18-.283.26a1.397 1.397 0 0 1-.88.31c-.38 0-.751-.152-1.022-.416-.53-.52-.582-1.38-.114-1.915.27-.31.564-.6.858-.892l.762-.763a.468.468 0 0 1-.07-.026c-.313-.136-.452-.478-.366-.892.107-.519.335-1.028.715-1.602.534-.802.987-1.432 1.426-1.984.344-.432.785-.66 1.275-.66.184 0 .378.032.574.095.519-.648.993-1.262 1.466-1.874l.067-.088C11.92 1.924 13.633.974 15.75.73a9.83 9.83 0 0 1 1.134-.068c.461 0 .908.038 1.33.112a2.327 2.327 0 0 1 1.889 2.071c.014.15.067.581.067.581l.001 1.127-.043.352c-.028.226-.057.453-.096.677-.32 1.873-1.23 3.404-2.704 4.554-.651.507-1.303 1.01-1.96 1.51-.06.045-.063.052-.04.127.202.636.038 1.232-.46 1.68-1.088.978-2.178 1.678-3.332 2.142a2.184 2.184 0 0 1-.403.11 1.25 1.25 0 0 1-.212.02c-.232 0-.52-.089-.664-.473l-.605.608a.481.481 0 0 1-.337.16.369.369 0 0 1-.262-.113.365.365 0 0 1-.117-.262.476.476 0 0 1 .159-.339l.377-.379c.28-.28.517-.516.848-.865.141-.148.262-.315.378-.472l.08-.107-.932-.805-.215.093c-.244.107-.492.215-.745.31-.15.055-.328.085-.532.088-.412 0-.69-.28-.692-.684-.003-.432.173-.805.344-1.165.054-.118.101-.208.146-.293L8.168 11l-.811-.937-.08.053c-.138.088-.282.18-.4.294-.594.575-1.176 1.161-1.76 1.747l-.436.44c-.174.171-.349.45-.202.787a.662.662 0 0 0 .604.398.648.648 0 0 0 .417-.154c.077-.064.15-.135.221-.206.082-.08.163-.16.252-.233.213-.176.482-.273.757-.273.32 0 .62.125.842.352.444.447.47 1.151.06 1.601-.319.35-.655.683-.99 1.016l-.383.381c-.19.19-.264.382-.23.602a.658.658 0 0 0 .646.571.644.644 0 0 0 .421-.159c.171-.147.217-.195.298-.279 0 0 .3-.303.337-.336a.434.434 0 0 1 .28-.107c.095 0 .188.037.26.106.162.156.164.391.006.56l-.098.105c-.082.09-.082.09-.228.225l-.102.096c-.153.143-.31.292-.496.397-.21.118-.445.18-.68.18-.43 0-.839-.199-1.12-.547zm6.185-3.999c-.064 0-.143.003-.183.031-.066.046-.114.155-.161.261-.025.058-.05.115-.08.167l-.3.764h.028c.11-.03.222-.06.327-.103.924-.378 1.743-.96 2.422-1.482.242-.185.464-.392.66-.615a.613.613 0 0 0 .157-.489s-1.294.868-1.666 1.114c-.3.197-.614.315-.935.35a1.147 1.147 0 0 1-.119.004zm-.933-1.197c.287.273.615.417.948.417.259 0 .514-.084.759-.25a121.662 121.662 0 0 0 3.185-2.247c.7-.513 1.249-.96 1.723-1.405.958-.899 1.575-2.083 1.835-3.518.02-.12.003-.179-.082-.263a617.346 617.346 0 0 1-1.865-1.859s-.291-.287-.382-.383c-.173-.18-.15-.35-.1-.462.07-.16.197-.253.345-.253.12 0 .247.062.364.18l1.59 1.6c.083.084.16.171.239.26.006-.074.01-.146.007-.219-.017-.367-.043-.734-.07-1.102a1.526 1.526 0 0 0-.491-1.037c-.276-.259-.624-.393-1.095-.423a16.746 16.746 0 0 0-1.026-.037c-.592 0-1.11.05-1.578.15-1.464.313-2.654 1.01-3.54 2.07-1.337 1.604-2.454 3.13-3.415 4.664-.3.48-.3.956.003 1.418.097.148.223.276.352.41l.082.085.07-.103.35-.478c.27-.374.542-.748.835-1.102.343-.413.774-.63 1.247-.63.118 0 .24.013.362.04.652.146 1.11.566 1.324 1.214.215.654.028 1.274-.526 1.745-.364.31-.755.591-1.145.871l-.562.408zm-.345-3.372c-.85.98-1.47 1.94-1.895 2.932-.04.095-.063.196-.088.297l-.006.02.014-.003c.1-.023.198-.045.29-.084 1.003-.427 1.972-1.053 2.962-1.913.253-.22.361-.469.318-.743-.062-.399-.294-.67-.689-.806a.83.83 0 0 0-.259-.045c-.23 0-.449.116-.647.345zM8.58 6.226c-.256 0-.482.117-.676.347-.303.363-.596.737-.867 1.125-.352.5-.746 1.1-1.01 1.774-.039.1-.065.205-.095.32l.503-.2.64-.279c.067-.028.084-.047.076-.132a1.644 1.644 0 0 1 .221-1.042c.28-.45.572-.89.864-1.333l.39-.588-.047-.117z"/></g><g opacity=".55"><path fill="#74639f" d="M16.884.787c-.372 0-.745.024-1.12.067-2.05.236-3.734 1.131-5.003 2.776-.496.643-.991 1.286-1.493 1.925a.25.25 0 0 1-.157.083.06.06 0 0 1-.02-.003 1.754 1.754 0 0 0-.537-.089c-.462 0-.86.215-1.177.613-.505.633-.97 1.3-1.418 1.975-.317.476-.58.99-.7 1.56-.072.352.037.64.295.751.077.034.163.05.262.077-.194.194-.377.374-.557.556-.406.413-.831.81-1.211 1.245-.431.493-.363 1.28.109 1.742.257.252.596.381.933.381.286 0 .57-.093.8-.282.17-.139.32-.304.486-.45a.52.52 0 0 1 .347-.137c.086 0 .172.022.253.066.196.106.319.316.266.537a.836.836 0 0 1-.206.363c-.45.47-.928.915-1.364 1.397-.426.471-.417 1.173-.022 1.661.262.324.638.502 1.022.502.21 0 .423-.053.62-.165.204-.115.376-.29.55-.452.214-.199.145-.135.345-.348.117-.124.108-.278-.002-.384a.248.248 0 0 0-.174-.07.31.31 0 0 0-.198.077c-.05.042-.095.091-.142.137-.255.252-.222.246-.494.477a.768.768 0 0 1-.502.19.782.782 0 0 1-.77-.679c-.043-.283.069-.51.266-.709.459-.46.93-.91 1.368-1.392.375-.41.33-1.039-.055-1.429a1.055 1.055 0 0 0-1.432-.07c-.165.137-.307.301-.472.44a.77.77 0 0 1-.497.181.78.78 0 0 1-.717-.473c-.138-.315-.061-.639.226-.927.73-.73 1.456-1.467 2.197-2.186.183-.178.418-.3.59-.422l.939 1.084c-.057.111-.127.236-.188.365-.17.362-.346.723-.343 1.136.002.331.224.561.552.561h.013c.164-.003.337-.025.49-.082.35-.13.692-.288 1.027-.43l1.08.931c-.165.214-.332.468-.538.684-.47.493-.748.762-1.227 1.246-.148.148-.161.31-.044.424a.248.248 0 0 0 .175.077c.08 0 .166-.04.25-.124.284-.28.355-.36.638-.643.035-.035.074-.066.119-.105.076.388.272.576.598.576a1.97 1.97 0 0 0 .569-.12c1.233-.496 2.314-1.237 3.296-2.119.45-.405.615-.946.424-1.549-.04-.127-.016-.188.084-.265.655-.499 1.308-1.002 1.958-1.509 1.469-1.145 2.345-2.644 2.658-4.476.057-.334.092-.672.137-1.008v-1.11c-.022-.196-.048-.39-.067-.586-.094-.972-.826-1.788-1.787-1.959a7.381 7.381 0 0 0-1.308-.11zm-8.275 9.695c-.196-.219-.407-.403-.554-.629-.332-.507-.325-1.042-.005-1.552 1.029-1.642 2.187-3.192 3.427-4.679.943-1.132 2.173-1.804 3.608-2.11a7.605 7.605 0 0 1 1.603-.153c.344 0 .689.015 1.034.037.444.027.844.147 1.173.456.324.303.5.677.53 1.118.027.37.055.738.07 1.107.008.145-.014.292-.022.438l-.055.033c-.127-.14-.25-.284-.382-.418-.74-.747-.847-.858-1.59-1.6-.096-.097-.191-.144-.276-.144-.095 0-.177.061-.23.18-.057.127-.013.232.076.324.124.13.252.255.379.381.832.832 1.029 1.031 1.866 1.858.114.113.146.213.117.375-.253 1.392-.838 2.615-1.873 3.587-.543.51-1.133.973-1.734 1.414a119.59 119.59 0 0 1-3.19 2.248 1.46 1.46 0 0 1-.828.274c-.366 0-.723-.155-1.035-.452-.116-.11-.235-.219-.368-.343.08-.058.137-.096.193-.137.546-.406 1.114-.785 1.63-1.224.488-.416.7-.969.489-1.61-.197-.599-.616-.994-1.233-1.13a1.526 1.526 0 0 0-.336-.039c-.454 0-.844.218-1.15.585-.417.504-.788 1.047-1.18 1.574-.048.066-.09.136-.154.231zm-2.851-.519c.058-.203.09-.375.154-.536.254-.649.624-1.235 1.023-1.8.274-.39.568-.768.874-1.134.198-.236.452-.392.77-.392l.057.002c.057.003.114.02.193.034-.055.082-.098.145-.14.21-.404.617-.82 1.23-1.21 1.858a1.525 1.525 0 0 0-.203.965c.013.134-.028.207-.152.26-.382.161-.761.333-1.143.497-.051.022-.112.02-.223.036zm2.609 2.553l-.051-.048c.044-.158.07-.323.135-.473.469-1.097 1.137-2.068 1.915-2.965.203-.235.453-.388.742-.388.096 0 .195.017.299.052.427.147.702.453.772.905.054.348-.106.637-.36.856-.905.787-1.885 1.462-2.995 1.934-.144.062-.304.086-.457.127zm3.522 1.042a.89.89 0 0 0 .105-.005c.32-.033.613-.152.88-.328.548-.362 1.092-.73 1.637-1.095.054-.036.109-.07.18-.119.096.3.04.564-.145.776a4.887 4.887 0 0 1-.678.632c-.764.585-1.554 1.131-2.451 1.498-.162.066-.335.101-.503.151l-.07-.067.32-.84c.01-.029.027-.055.042-.08.089-.163.14-.377.277-.47.066-.047.158-.055.255-.055l.15.002zM16.884.538c.469 0 .923.037 1.352.114a2.452 2.452 0 0 1 1.992 2.181c.012.132.028.264.044.396l.024.213-.002 1.144-.04.318c-.03.233-.06.467-.098.7-.326 1.903-1.251 3.461-2.752 4.631-.642.5-1.286.997-1.954 1.508.213.683.037 1.323-.498 1.803-1.1.988-2.202 1.696-3.37 2.165a2.217 2.217 0 0 1-.428.115 1.234 1.234 0 0 1-.234.023.783.783 0 0 1-.7-.383l-.136.138c-.097.1-.19.192-.344.345-.164.162-.321.196-.425.196a.494.494 0 0 1-.35-.148.496.496 0 0 1-.153-.35.594.594 0 0 1 .194-.429l.374-.376c.28-.28.518-.517.85-.866.132-.139.25-.3.365-.456l.014-.019-.16-.138-.625-.539-.146.063c-.246.107-.494.216-.75.31a1.75 1.75 0 0 1-.59.098c-.461 0-.798-.34-.801-.809-.004-.457.177-.84.367-1.245a5.85 5.85 0 0 1 .113-.224l-.683-.789c-.13.083-.264.17-.371.272-.584.568-1.16 1.145-1.735 1.723l-.46.461c-.21.211-.27.43-.173.65a.535.535 0 0 0 .488.323.52.52 0 0 0 .337-.124c.076-.063.146-.133.217-.202.083-.082.166-.164.256-.238.236-.194.534-.302.838-.302.353 0 .683.138.93.39.49.494.518 1.273.063 1.773-.322.354-.667.695-1 1.025l-.376.375c-.162.163-.223.315-.195.494a.534.534 0 0 0 .522.466c.123 0 .24-.045.34-.129.167-.142.212-.189.289-.27.045-.047.1-.105.192-.195l.039-.039a2.42 2.42 0 0 1 .116-.11.56.56 0 0 1 .36-.138.5.5 0 0 1 .347.141.507.507 0 0 1 .01.735l-.104.112c-.081.088-.081.088-.252.248l-.075.07c-.158.15-.321.304-.522.417a1.513 1.513 0 0 1-.743.197c-.467 0-.911-.217-1.216-.594-.484-.598-.471-1.433.03-1.987.262-.289.537-.564.813-.839.187-.186.374-.372.556-.563a.586.586 0 0 0 .144-.247c.029-.12-.06-.215-.142-.26a.278.278 0 0 0-.134-.036.27.27 0 0 0-.181.074c-.068.06-.133.124-.198.187a4.693 4.693 0 0 1-.295.27 1.515 1.515 0 0 1-.96.338c-.416 0-.81-.16-1.107-.452-.577-.566-.632-1.5-.122-2.085.275-.315.575-.612.864-.9.12-.118.239-.237.357-.356.09-.093.183-.185.277-.278-.302-.184-.433-.55-.343-.983.112-.537.346-1.06.735-1.646.544-.818.986-1.433 1.432-1.993.368-.462.843-.707 1.372-.707.174 0 .355.026.538.078.476-.607.947-1.217 1.418-1.828l.053-.069c1.279-1.657 3.02-2.623 5.174-2.87a9.837 9.837 0 0 1 1.147-.07zm-8.307 9.546c.109-.148.217-.297.324-.446.27-.373.55-.758.85-1.12.368-.443.832-.676 1.342-.676.128 0 .259.014.39.044.699.156 1.188.604 1.416 1.296.232.705.032 1.372-.564 1.88-.368.313-.765.598-1.15.874-.147.106-.295.213-.441.321l.146.137c.264.25.562.383.863.383.233 0 .464-.078.688-.23a120.35 120.35 0 0 0 3.182-2.244 17.93 17.93 0 0 0 1.71-1.395c.938-.879 1.543-2.04 1.799-3.449.015-.083.007-.099-.047-.152-.641-.634-.907-.899-1.37-1.362l-.592-.592c-.097-.096-.193-.19-.288-.29-.232-.24-.177-.479-.123-.6.092-.208.259-.327.458-.327.108 0 .274.038.453.216.553.554.754.757 1.127 1.133l.464.47a.727.727 0 0 1 .027.027c-.014-.294-.035-.588-.056-.882l-.008-.112a1.388 1.388 0 0 0-.452-.954c-.254-.238-.578-.36-1.018-.389-.34-.02-.68-.036-1.02-.036-.582 0-1.09.048-1.55.146-1.436.307-2.603.99-3.468 2.028-1.333 1.597-2.447 3.118-3.407 4.65-.272.435-.271.866.002 1.283.082.126.194.244.313.368zm-2.46-.489l.274-.12.636-.28a1.768 1.768 0 0 1 .24-1.122c.28-.45.573-.893.865-1.335l.23-.35a.826.826 0 0 0-.361.266c-.324.387-.606.752-.862 1.116-.346.492-.735 1.085-.994 1.748-.01.025-.02.051-.028.077zm2.529 2.593a.781.781 0 0 0 .08-.029c.99-.42 1.949-1.04 2.93-1.893.219-.189.31-.4.276-.629-.054-.349-.258-.587-.606-.706a.665.665 0 0 0-.218-.039c-.194 0-.38.102-.553.301-.843.972-1.456 1.92-1.874 2.901-.013.03-.024.062-.035.094zm3.162 1.62l-.07-.002a.386.386 0 0 0-.112.01c-.037.024-.083.13-.117.208a2.396 2.396 0 0 1-.084.176l-.026.047-.001.002-.181.475c.035-.01.07-.024.105-.038.913-.374 1.723-.95 2.394-1.466.235-.18.45-.38.642-.598a.544.544 0 0 0 .096-.153l-.296.2c-.382.255-.763.511-1.146.764a2.208 2.208 0 0 1-.991.37 1.425 1.425 0 0 1-.132.005z"/></g><g opacity=".55"><path fill="#74639f" d="M2.269 17.092a1.47 1.47 0 0 1-1.443-1.455 1.45 1.45 0 0 1 1.448-1.442c.39.001.753.155 1.028.433.275.277.424.638.422 1.02-.004.782-.666 1.444-1.445 1.444zm-.462-1.91a.65.65 0 0 0-.191.464.67.67 0 0 0 .652.655.67.67 0 0 0 .666-.657.643.643 0 0 0-.193-.462.655.655 0 0 0-.934 0z"/></g><g opacity=".55"><path fill="#74639f" d="M2.274 14.32c-.722 0-1.32.595-1.324 1.318a1.338 1.338 0 0 0 1.32 1.33h.009c.713 0 1.316-.603 1.32-1.321a1.336 1.336 0 0 0-1.321-1.327zm.003 2.107h-.011a.793.793 0 0 1-.775-.78.788.788 0 0 1 .782-.787h.001c.43 0 .787.358.784.786a.795.795 0 0 1-.781.78zm.002-2.357c.418.002.813.169 1.112.47.298.3.46.694.458 1.108a1.6 1.6 0 0 1-1.581 1.57A1.58 1.58 0 0 1 .7 15.637a1.577 1.577 0 0 1 1.574-1.567zm-.002 2.107c.281 0 .53-.25.531-.533a.521.521 0 0 0-.156-.374.529.529 0 0 0-.756 0 .526.526 0 0 0-.155.376.546.546 0 0 0 .529.53l.007.25z"/></g><g opacity=".55"><path fill="#74639f" d="M14.74 8.782a2.698 2.698 0 0 1-2.69-2.686 2.705 2.705 0 0 1 2.683-2.698c.733 0 1.403.282 1.912.793.512.514.792 1.191.788 1.906a2.698 2.698 0 0 1-2.687 2.685zm-.001-4.579a1.87 1.87 0 0 0-1.886 1.884 1.876 1.876 0 0 0 1.887 1.898 1.877 1.877 0 0 0 1.896-1.892 1.875 1.875 0 0 0-1.89-1.89l-.007-.125z"/></g><g opacity=".55"><path fill="#74639f" d="M14.756 3.523h-.023a2.575 2.575 0 0 0-2.559 2.572 2.57 2.57 0 0 0 2.566 2.562h.004a2.569 2.569 0 0 0 2.564-2.56c.007-1.407-1.153-2.574-2.552-2.574zM14.74 8.11a2.003 2.003 0 0 1-2.012-2.023 2.003 2.003 0 0 1 2.012-2.008h.006a2.011 2.011 0 0 1 2.016 2.014 2.011 2.011 0 0 1-2.013 2.017zm.017-4.836c.742 0 1.445.295 1.978.83a2.79 2.79 0 0 1 .824 1.994 2.825 2.825 0 0 1-2.818 2.81 2.826 2.826 0 0 1-2.816-2.813c-.004-1.542 1.255-2.808 2.807-2.822zm-.009 4.587a1.753 1.753 0 0 0 1.764-1.768 1.752 1.752 0 0 0-1.772-1.764c-.984 0-1.758.773-1.762 1.759 0 .478.181.925.513 1.258.33.332.774.515 1.25.515v.25z"/></g><g opacity=".55"><path fill="#74639f" d="M14.763 6.763a.67.67 0 0 0 .667-.678.669.669 0 0 0-.678-.666.665.665 0 0 0-.666.677.667.667 0 0 0 .677.666z"/></g></g></g></svg>