<svg xmlns="http://www.w3.org/2000/svg" viewBox="0 0 15.69668 15.69911"><defs><style>.a{opacity:0.55;}.b{fill:#6f639d;}</style></defs><g class="a"><path class="b" d="M7.04555,4.61837,1.37839,10.28553c.27721.27721.54635.55289.82616.81728.03242.03063.1294.01366.18753-.00673A1.76171,1.76171,0,0,1,4.6555,12.30071a1.62892,1.62892,0,0,1-.0668,1.0179.17986.17986,0,0,0,.04832.23082c.25652.24822.50644.50325.769.76585l5.65269-5.65269c-.082-.09109-.16795-.18038-.24651-.27578a1.95155,1.95155,0,0,1-.2004-.27241.52635.52635,0,0,1,.1086-.7086.59287.59287,0,0,1,.75741.02709c.14.12766.26932.267.40993.4076L14.30832,5.42l-.84984-.84983a4.0029,4.0029,0,0,1-.60488.12069,1.76484,1.76484,0,0,1-1.747-2.31249.182.182,0,0,0-.04867-.23027c-.25633-.24838-.50634-.50328-.77031-.76724-.04338.03873-.0832.071-.11934.107-.34646.34523-.68982.69363-1.04041,1.0346a.81991.81991,0,0,1-.25285.15985.49979.49979,0,0,1-.6648-.16024.601.601,0,0,1,.06166-.75739Q9.05877.97,9.85356.18322a.59329.59329,0,0,1,.86417.00711q.76707.7619,1.52922,1.52876a.61259.61259,0,0,1,.05533.868.5847.5847,0,0,0-.02924.71362.52666.52666,0,0,0,.80546.12585.60686.60686,0,0,1,.92789.05127q.73158.73424,1.46561,1.466a.6083.6083,0,0,1,.00323.94152Q10.674,10.6877,5.87164,15.489a.59867.59867,0,0,1-.9021.01q-.774-.76759-1.54178-1.5415a.60856.60856,0,0,1-.03518-.8417.57618.57618,0,0,0,.04311-.69688.52482.52482,0,0,0-.81223-.149.6124.6124,0,0,1-.94195-.05739q-.72627-.7269-1.453-1.45331a.61145.61145,0,0,1,.001-.95413q3.16932-3.16977,6.33923-6.339a.57149.57149,0,0,1,.94084-.00761c.24276.23654.4884.47149.71354.72428a.5969.5969,0,0,1,.16328.64069.58527.58527,0,0,1-.92651.2067C7.319,4.904,7.19082,4.76364,7.04555,4.61837Z"/><path class="b" d="M8.62465,6.14453a.52716.52716,0,0,1,.05756-.741A.59355.59355,0,0,1,9.481,5.433c.2576.24693.51581.4946.75471.75915a.61418.61418,0,0,1,.17869.63893.58587.58587,0,0,1-.93372.22022A10.69677,10.69677,0,0,1,8.62465,6.14453Z"/></g></svg>