<svg xmlns="http://www.w3.org/2000/svg" viewBox="0 0 15.39234 15.32262"><defs><style>.a{fill:#fcfcfc;}</style></defs><path d="M0,7.659a7.69625,7.69625,0,0,1,15.39234.003A7.69625,7.69625,0,0,1,0,7.659Z"/><path class="a" d="M1.9811,7.79723a3.08994,3.08994,0,1,1,6.17959.0121A3.13187,3.13187,0,0,1,5.0876,10.92778,3.11714,3.11714,0,0,1,1.9811,7.79723Z"/><path class="a" d="M11.54039,7.801a4.007,4.007,0,0,1-.60106,2.338,1.011,1.011,0,0,1-1.825.038,4.73649,4.73649,0,0,1-.0019-4.76,1.00377,1.00377,0,0,1,1.794.00558A3.902,3.902,0,0,1,11.54039,7.801Z"/><path class="a" d="M12.39547,5.18447c.71485.68986.74952,4.33962.04949,5.20826C11.69822,9.85241,11.66174,6.01276,12.39547,5.18447Z"/></svg>