<svg xmlns="http://www.w3.org/2000/svg" width="18" height="18" viewBox="0 0 18 18"><g><g opacity=".55"><g><path fill="#74639f" d="M7.135 17.394c-.03-.057-.094-.053-.142-.077-.432-.222-.54-.811-.208-1.156a.763.763 0 0 1 .577-.23h1.366c1.619 0 3.237-.002 4.856.004.16 0 .198-.048.188-.196-.012-.18.002-.36-.004-.54a1.387 1.387 0 0 0-.294-.823c-.32-.408-.745-.56-1.254-.558-2.31.006-4.62.002-6.931.003-.067 0-.134.006-.202.007-.6.006-1.138.474-1.287 1.008-.09.322-.043.647-.062.97-.007.113.04.13.136.127.19-.006.383-.005.574 0 .443.013.788.414.702.836-.068.337-.276.518-.58.625H2.818c-.006-.026-.027-.031-.048-.04-.34-.132-.494-.386-.492-.745.002-.484-.014-.967.005-1.45.038-.987.476-1.761 1.29-2.321a2.922 2.922 0 0 1 1.036-.43c-.035-.077-.1-.104-.15-.145-.75-.612-1.36-1.34-1.79-2.207-.084-.17-.177-.225-.366-.225C1.24 9.833.322 9.103.165 8.09.055 7.39.11 6.679.14 5.97c.005-.115.038-.232.07-.345.275-.943 1.117-1.548 2.162-1.546.137 0 .209-.04.268-.163a6.056 6.056 0 0 1 1.212-1.71C5.566.517 7.617-.177 9.992.246c1.862.332 3.327 1.324 4.413 2.874.026.037.035.096.11.105v-.167c0-.753-.011-1.507.008-2.26.014-.545.624-.855 1.086-.567.252.157.343.397.342.688-.004 1.046 0 2.092-.005 3.138 0 .115.038.167.139.21.54.233.918.628 1.147 1.17.068.16.072.336.159.487v2.09c-.026.007-.031.027-.035.05a2.161 2.161 0 0 1-2.253 1.77c-.114-.004-.166.036-.215.136a6.733 6.733 0 0 1-1.893 2.335c-.032.025-.08.042-.085.092.024.034.06.03.092.038 1.036.267 1.747.902 2.084 1.915.266.8.124 1.637.132 2.459 0 .01-.007.02-.01.033-.067.299-.285.448-.55.552zm5.537-6.91c-.88.356-1.788.597-2.728.72a.74.74 0 0 1-.411-.062.714.714 0 0 1-.404-.78c.049-.312.304-.543.667-.592a9.489 9.489 0 0 0 3.148-.995c.1-.052.132-.108.132-.218a427.986 427.986 0 0 1-.001-3.205c0-.103-.03-.16-.123-.208a10.136 10.136 0 0 0-.92-.418c-1.581-.611-3.202-.816-4.878-.487a9.52 9.52 0 0 0-2.598.908c-.065.034-.122.06-.122.157.004 1.102.003 2.204 0 3.306 0 .072.026.11.089.143.563.295 1.15.532 1.76.716.512.155 1.04.227 1.563.333.38.077.604.448.533.833-.07.368-.435.618-.816.568a10.997 10.997 0 0 1-2.728-.721c-.056-.022-.111-.06-.176-.03 2.417 2.764 6.308 2.288 8.17.004-.07-.027-.113.01-.157.028zM4.632 3.51c2.754-1.152 5.484-1.153 8.256.005-2.27-2.676-6.203-2.5-8.256-.005zM2.98 5.654c0-.09-.014-.132-.117-.128-.185.009-.371-.002-.556.004-.444.012-.731.306-.733.749-.002.472-.003.944.002 1.415a.688.688 0 0 0 .687.684c.196.005.393-.005.589.005.11.005.129-.037.128-.136-.004-.426-.002-.853-.002-1.28 0-.438-.002-.876.002-1.313zM14.528 8.25c-.002.105.028.136.132.13.196-.007.393.002.589-.003a.688.688 0 0 0 .683-.688c.005-.488.005-.977 0-1.465a.683.683 0 0 0-.551-.67c-.24-.053-.482-.011-.722-.028-.106-.008-.133.027-.131.13.005.432.002.865.002 1.297 0 .433.003.865-.002 1.297z"/></g></g></g></svg>