<svg xmlns="http://www.w3.org/2000/svg" width="15" height="21" viewBox="0 0 15 21"><g><g opacity=".8"><g opacity=".8"><path fill="#6f639d" d="M7.501-.038c.392.264.782.53 1.177.79.041.027.112.025.166.015.4-.073.802-.144 1.2-.233.136-.03.2.01.27.118.211.326.427.649.654.964a.458.458 0 0 0 .242.165c.384.09.771.165 1.158.24.114.024.178.063.201.195.065.382.143.763.236 1.14a.519.519 0 0 0 .182.276c.302.222.613.432.931.63.131.084.173.166.138.319a16.67 16.67 0 0 0-.215 1.104.522.522 0 0 0 .064.326c.205.338.426.665.65.99.06.09.062.155 0 .246-.224.326-.444.654-.649.99a.527.527 0 0 0-.065.328c.061.389.14.776.222 1.162.023.109-.006.167-.096.226-.33.215-.66.432-.979.665a.52.52 0 0 0-.183.276c-.093.376-.169.757-.237 1.139-.022.129-.078.17-.2.193-.303.054-.604.124-.918.19v7.734c-.086-.042-.15-.072-.212-.104-1.163-.6-2.327-1.197-3.487-1.803-.133-.07-.23-.065-.362.004-1.176.615-2.357 1.223-3.537 1.833-.063.033-.128.063-.224.109v-.25c0-2.43 0-4.86.005-7.29 0-.164-.04-.228-.208-.252-.286-.042-.565-.127-.85-.17-.143-.021-.182-.092-.206-.213-.074-.38-.147-.762-.238-1.14a.487.487 0 0 0-.175-.256 18.976 18.976 0 0 0-.947-.643C.895 9.9.853 9.833.887 9.689c.086-.378.156-.76.215-1.144a.479.479 0 0 0-.062-.303c-.232-.375-.48-.74-.728-1.117C.56 6.75.81 6.38 1.046 6a.454.454 0 0 0 .06-.286c-.06-.383-.13-.766-.218-1.143-.036-.153.008-.225.13-.302.32-.207.637-.42.946-.643a.454.454 0 0 0 .165-.243c.091-.377.17-.757.237-1.14.026-.148.095-.203.237-.228.37-.066.733-.157 1.102-.22a.4.4 0 0 0 .292-.201c.204-.315.422-.621.626-.936.073-.112.142-.155.286-.123.391.089.787.158 1.182.228a.309.309 0 0 0 .2-.028C6.658.503 7.018.26 7.381.02c.018-.013.028-.04.041-.06zm2.244 12.366c.143-.204.295-.405.417-.623a.614.614 0 0 1 .51-.338c.24-.027.474-.1.714-.14.117-.02.165-.073.186-.188.054-.304.116-.607.19-.907a.375.375 0 0 1 .13-.2c.24-.173.484-.342.737-.495.131-.08.153-.17.122-.307a12.45 12.45 0 0 1-.164-.853.408.408 0 0 1 .047-.252c.16-.264.333-.521.508-.775.061-.088.066-.154.003-.246a13.793 13.793 0 0 1-.508-.776.407.407 0 0 1-.05-.251c.046-.305.107-.61.171-.911.022-.105 0-.168-.094-.227-.255-.162-.508-.33-.752-.51a.437.437 0 0 1-.155-.226c-.074-.3-.122-.606-.196-.906a.25.25 0 0 0-.154-.157c-.299-.075-.605-.124-.905-.198a.447.447 0 0 1-.232-.153 13.737 13.737 0 0 1-.509-.751c-.062-.097-.123-.13-.242-.102A8.515 8.515 0 0 1 8.67 2a.583.583 0 0 1-.345-.071 8.507 8.507 0 0 1-.693-.454c-.109-.076-.193-.096-.31-.007-.2.15-.423.269-.62.42a.547.547 0 0 1-.513.102c-.253-.067-.516-.1-.772-.156-.106-.023-.167-.002-.227.092-.162.256-.33.509-.51.75a.468.468 0 0 1-.245.165c-.299.077-.605.126-.904.2a.232.232 0 0 0-.142.142c-.072.294-.118.594-.196.886a.551.551 0 0 1-.185.274 9.535 9.535 0 0 1-.718.488c-.107.068-.134.137-.1.259.046.17.047.356.106.52.128.36.05.657-.19.943-.143.169-.342.373-.34.56.002.196.194.405.338.58.236.287.323.582.193.942-.06.165-.058.35-.107.52-.039.136.005.204.115.273.245.155.487.314.718.489.078.06.145.165.17.262.071.273.124.552.173.83.023.134.074.202.22.224.28.04.557.097.83.17.101.028.21.1.274.185.172.224.33.46.476.702.075.124.16.147.29.119.283-.062.566-.121.852-.162a.471.471 0 0 1 .287.058c.25.147.492.306.726.476.117.086.2.075.311-.005.23-.165.465-.323.71-.466a.507.507 0 0 1 .304-.06c.318.045.634.114.988.18.026-.023.08-.055.112-.102zm.518 1.409c-.088-.01-.165-.013-.24-.027-.362-.07-.725-.133-1.084-.214a.445.445 0 0 0-.385.077c-.314.217-.64.417-.953.634-.099.068-.167.063-.262-.002a33.523 33.523 0 0 0-1.006-.662c-.06-.04-.148-.072-.215-.06-.433.074-.863.162-1.3.246v4.516c.071-.034.13-.06.186-.09.806-.415 1.613-.83 2.417-1.251.113-.06.195-.057.306.002.775.406 1.554.804 2.331 1.204.062.032.126.06.205.099z"/></g><g opacity=".8"><path fill="#6f639d" d="M7.46 11.368c-2.35-.027-4.23-1.916-4.226-4.245a4.248 4.248 0 0 1 4.25-4.238c2.33.009 4.236 1.92 4.229 4.243-.008 2.338-1.942 4.267-4.253 4.24zM4.414 7.135a3.069 3.069 0 0 0 3.053 3.056c1.677.006 3.069-1.384 3.069-3.066a3.068 3.068 0 0 0-3.07-3.06 3.055 3.055 0 0 0-3.052 3.07z"/></g><g opacity=".8"><path fill="#6f639d" d="M6.252 8.792c.03-.396.052-.762.09-1.126a.394.394 0 0 0-.102-.338c-.25-.278-.487-.567-.748-.874.4-.097.774-.182 1.145-.284a.42.42 0 0 0 .222-.161c.211-.323.408-.655.62-1.001.213.346.406.675.616.992a.456.456 0 0 0 .237.172c.366.102.736.185 1.134.282-.258.305-.495.593-.744.87a.403.403 0 0 0-.108.338c.038.365.062.73.094 1.13-.373-.154-.714-.305-1.062-.434a.52.52 0 0 0-.33-.001c-.35.129-.69.28-1.064.435z"/></g></g></g></svg>
