<svg xmlns="http://www.w3.org/2000/svg" viewBox="0 0 25.7862 18.40746"><defs><style>.a{isolation:isolate;}.b{mix-blend-mode:multiply;}.c{fill:#6f639d;}</style></defs><g class="a"><g class="b"><path class="c" d="M8.38222,3.62629c.07313-.18713.152-.39119.23253-.59458a4.50759,4.50759,0,0,1,1.042-1.59314,6.19524,6.19524,0,0,1,.87834-.72194,4.14156,4.14156,0,0,1,2.66143-.704,4.37154,4.37154,0,0,1,1.97144.656,4.95744,4.95744,0,0,1,1.8623,2.044c.13726.26971.225.56462.33564.8479.01229.03146.02623.06228.027.064.36551-.15517.71642-.3245,1.08153-.45369a3.06169,3.06169,0,0,1,1.25746-.13309,3.49021,3.49021,0,0,1,1.19959.29574A4.07393,4.07393,0,0,1,22.9008,5.21718a4.17912,4.17912,0,0,1,.44757,2.57725,4.13968,4.13968,0,0,1-1.99722,3.12535c-.04341.02636-.10619.09775-.0963.12059.0298.06882.08.16013.14175.179a12.67832,12.67832,0,0,1,2.23036.8335,3.29807,3.29807,0,0,1,1.47093,1.26117,4.90131,4.90131,0,0,1,.508,1.515,15.94415,15.94415,0,0,1,.17708,3.02483.52273.52273,0,0,1-.55913.55287q-5.11853-.00117-10.237-.00393c-1.29285-.00029-2.5857.00326-3.87854.00371q-3.47245.00121-6.94491.0008-1.77312.00012-3.54623-.00008c-.4178-.00007-.62744-.19715-.61674-.61689.01977-.77569.03392-1.55259.0917-2.3259a5.70855,5.70855,0,0,1,.4678-1.89912,2.85918,2.85918,0,0,1,1.158-1.26276,8.733,8.733,0,0,1,2.14546-.91525q.30827-.09393.60992-.20869a.167.167,0,0,0,.08284-.11782.145.145,0,0,0-.06651-.11094A4.111,4.111,0,0,1,2.45835,7.94677a4.27248,4.27248,0,0,1,2.1088-4.47023A3.40909,3.40909,0,0,1,7.30739,3.171,11.045,11.045,0,0,1,8.38222,3.62629ZM19.49745,17.35265c-.0271-.62712-.03574-1.23353-.08408-1.83675a6.38411,6.38411,0,0,0-.39677-1.96074,2.32163,2.32163,0,0,0-.7036-.991,5.581,5.581,0,0,0-1.44591-.81564c-.63547-.24131-1.28245-.45311-1.92828-.66605a1.27482,1.27482,0,0,1-.86522-.67715,3.33686,3.33686,0,0,1-.26229-1.04185.53473.53473,0,0,1,.3389-.55925,4.64713,4.64713,0,0,0,.76011-.41854A3.97655,3.97655,0,0,0,16.52685,5.283a4.01326,4.01326,0,0,0-.99231-2.95589A3.43222,3.43222,0,0,0,13.09721,1.061a3.25761,3.25761,0,0,0-2.52037.929A4.00411,4.00411,0,0,0,9.29808,5.66434,3.7915,3.7915,0,0,0,11.667,8.822a.48029.48029,0,0,1,.30671.48939,7.648,7.648,0,0,1-.244,1.03133.90709.90709,0,0,1-.45094.55832,5.58253,5.58253,0,0,1-.68376.25971,14.56884,14.56884,0,0,0-2.21563.83248,3.68153,3.68153,0,0,0-1.212.86865,3.49878,3.49878,0,0,0-.65837,1.6222,14.97391,14.97391,0,0,0-.20549,2.7515,1.01149,1.01149,0,0,0,.01281.1171Zm5.23164.00057c.00272-.06179.00792-.11058.00653-.15917-.00986-.3455-.01262-.69147-.03364-1.03632a6.82855,6.82855,0,0,0-.35431-1.98686,1.688,1.688,0,0,0-.55812-.78293,4.74761,4.74761,0,0,0-1.24819-.67858c-.50544-.18581-1.01774-.35345-1.52991-.52025a1.02509,1.02509,0,0,1-.5988-.44673,2.14816,2.14816,0,0,1-.27724-.92631c-.03292-.36313.03614-.49935.37149-.64764A2.99209,2.99209,0,0,0,22.29647,7.7612a3.14225,3.14225,0,0,0-.717-2.65433A2.63622,2.63622,0,0,0,18.792,4.151a2.96579,2.96579,0,0,0-1.17258.67627.171.171,0,0,0-.0358.11987,5.43967,5.43967,0,0,1-.82658,2.981.252.252,0,0,0-.03582.17723,3.01442,3.01442,0,0,0,1.76557,2.08684.4902.4902,0,0,1,.32808.57406c-.03573.25067-.09254.49833-.13492.72044a8.75314,8.75314,0,0,1,.7672.74338,4.984,4.984,0,0,1,.93,2.48254,15.83342,15.83342,0,0,1,.152,2.53164.97312.97312,0,0,0,.01223.10892ZM5.25445,17.3526c0-.0986-.00017-.17814,0-.25768a13.49845,13.49845,0,0,1,.29758-3.13157,4.08467,4.08467,0,0,1,.79348-1.7452,5.60794,5.60794,0,0,1,.66151-.60529.19936.19936,0,0,0,.08354-.2464,4.27985,4.27985,0,0,1-.126-.63069.50972.50972,0,0,1,.3162-.54125,4.77565,4.77565,0,0,0,.60333-.331A3.03484,3.03484,0,0,0,9.05926,8.12039a.30375.30375,0,0,0-.03281-.19311c-.15594-.324-.34374-.63481-.47449-.96824a5.22257,5.22257,0,0,1-.35368-1.96775.25747.25747,0,0,0-.05751-.173,2.63718,2.63718,0,0,0-1.02635-.6299,2.49763,2.49763,0,0,0-2.03327.19565A3.25117,3.25117,0,0,0,3.52128,7.94966,3.01843,3.01843,0,0,0,5.3442,10.19815a.48117.48117,0,0,1,.31478.51108,4.56735,4.56735,0,0,1-.1381.70492,1.04592,1.04592,0,0,1-.68928.7544c-.266.08616-.53094.1753-.797.261a7.61481,7.61481,0,0,0-1.7192.73643,1.82371,1.82371,0,0,0-.83811.90748,6.68528,6.68528,0,0,0-.2277.76,11.01874,11.01874,0,0,0-.19727,2.14983c-.00348.11869-.00049.23757-.00049.36935ZM15.90931,8.972c-.32417.21347-.62848.41351-.93211.61459a.116.116,0,0,0-.04777.05079.56023.56023,0,0,0,.2255.41853c.40493.12871.81221.25042,1.21453.3868.34836.1181.69117.25253,1.03643.37975A4.28425,4.28425,0,0,1,15.90931,8.972Zm-6.03567.00218A4.26,4.26,0,0,1,8.425,10.7889a.34111.34111,0,0,0,.12065-.02329c.33282-.12192.66343-.25025.99864-.36517.33541-.115.67517-.21732,1.01338-.32407a.37774.37774,0,0,0,.29994-.40235.11527.11527,0,0,0-.04073-.08365C10.50949,9.38665,10.19979,9.1864,9.87364,8.97421Z"/></g></g></svg>