<svg xmlns="http://www.w3.org/2000/svg" width="19" height="17" viewBox="0 0 19 17"><g><g opacity=".55"><g opacity=".55"><path fill="#74639f" d="M16.441 8.636c.5-.096.965-.194 1.435-.272.418-.068.745.254.672.667a.68.68 0 0 1-.179.341 466.9 466.9 0 0 1-3.065 3.07c-.285.283-.612.28-.895-.003a887.172 887.172 0 0 1-3.068-3.067c-.216-.218-.25-.478-.113-.724.131-.236.355-.335.656-.279.453.084.906.173 1.371.263.005-.073.012-.13.012-.188 0-1.16.003-2.32 0-3.48-.003-.706-.436-1.136-1.143-1.137-1.299-.002-2.599.002-3.898-.002-.808-.003-1.48-.554-1.62-1.314-.172-.929.532-1.839 1.478-1.849 1.85-.019 3.7-.033 5.55.003 1.528.03 2.787 1.344 2.802 2.875.015 1.6.005 3.201.005 4.801zM2.337 8.181c-.454.087-.885.168-1.315.252-.364.071-.6-.016-.739-.276-.135-.254-.076-.518.178-.77.985-.988 1.971-1.975 2.958-2.96.352-.352.652-.35 1.006.002.997.996 1.995 1.992 2.99 2.991.291.293.281.691-.012.925-.17.136-.363.133-.565.093-.43-.087-.862-.169-1.328-.259v.226c0 1.13-.002 2.261 0 3.391.001.778.42 1.192 1.2 1.193 1.284 0 2.568-.004 3.853.001.805.004 1.473.56 1.612 1.325.165.917-.534 1.826-1.47 1.837-1.858.021-3.715.035-5.57-.003-1.53-.032-2.78-1.35-2.794-2.885-.013-1.6-.004-3.2-.004-4.8z"/></g><g opacity=".55"><path fill="#74639f" d="M16.441 8.636c.5-.096.965-.194 1.435-.27.418-.07.745.252.672.665a.676.676 0 0 1-.179.341 466.9 466.9 0 0 1-3.065 3.07c-.285.283-.612.28-.895-.003a806.506 806.506 0 0 1-3.068-3.067c-.216-.218-.25-.478-.113-.724.131-.236.355-.335.656-.279.453.084.906.173 1.371.263.005-.073.012-.13.012-.188 0-1.16.003-2.32 0-3.48-.003-.706-.436-1.136-1.143-1.137-1.299-.002-2.599.003-3.898-.002-.808-.003-1.48-.554-1.62-1.314-.172-.929.532-1.839 1.478-1.849 1.85-.019 3.7-.032 5.55.003 1.528.03 2.787 1.344 2.802 2.875.015 1.601.005 3.201.005 4.801z"/></g><g opacity=".55"><path fill="#74639f" d="M2.337 8.181c-.454.087-.885.168-1.315.252-.364.071-.6-.016-.739-.276-.135-.254-.076-.518.178-.77.985-.988 1.971-1.975 2.958-2.96.352-.352.652-.35 1.006.002.997.996 1.995 1.992 2.99 2.991.291.293.281.691-.012.925-.17.136-.363.133-.565.093-.43-.087-.862-.169-1.328-.259v.226c0 1.13-.002 2.261 0 3.391.001.778.42 1.192 1.2 1.193 1.284 0 2.568-.004 3.853.001.805.004 1.473.56 1.612 1.325.165.917-.534 1.826-1.47 1.837-1.858.021-3.715.035-5.57-.003-1.53-.032-2.78-1.35-2.794-2.885-.013-1.6-.004-3.2-.004-4.8z"/></g></g></g></svg>