<svg xmlns="http://www.w3.org/2000/svg" viewBox="0 0 15.39234 15.32262"><defs><style>.a{fill:#31a5da;}.b{fill:#f9fcfd;}.c{fill:#c7dfee;}</style></defs><path class="a" d="M0,7.659a7.69625,7.69625,0,0,1,15.39234.003A7.69625,7.69625,0,0,1,0,7.659Zm7.94706,2.2105c.10577.06893.21588.13207.31656.20776.53367.40119,1.05817.81494,1.59944,1.20552a.4994.4994,0,0,0,.84223-.31212c.49542-2.18786.9631-4.38152,1.33637-6.59411.06714-.398-.09371-.55009-.48313-.43542-.397.11689-.78457.26642-1.1741.40764-2.25153.81632-4.48835,1.67-6.67851,2.64133-.178.07894-.387.14859-.37025.39678.015.222.20331.29039.38127.34867.59044.19334,1.18206.38308,1.77322.57421a1.42493,1.42493,0,0,1,.29147.68492c.19016.57579.35639,1.15959.55253,1.73324.12039.35212.2722.402.51848.18075C7.22671,10.57261,7.58314,10.2169,7.94706,9.86953Z"/><path class="b" d="M5.49016,8.30979c-.59116-.19113-1.18278-.38087-1.77322-.57421-.178-.05828-.3663-.12664-.38127-.34867-.01673-.24819.19223-.31784.37025-.39678,2.19016-.97131,4.427-1.825,6.67851-2.64133.38953-.14122.77712-.29075,1.1741-.40764.38942-.11467.55027.0374.48313.43542-.37327,2.21259-.84095,4.40625-1.33637,6.59411a.4994.4994,0,0,1-.84223.31212c-.54127-.39058-1.06577-.80433-1.59944-1.20552-.10068-.07569-.21079-.13883-.31654-.20758a4.12143,4.12143,0,0,0-.91634-.77205c-.21665-.17366-.18995-.25978-.01655-.41359q1.26041-1.118,2.514-2.24362c.3161-.28337.62722-.57231.93915-.86029.06039-.05576.12325-.12875.07029-.20964-.05787-.08841-.13726-.04215-.20967.00357-1.18342.74709-2.364,1.49879-3.55343,2.23622A3.92516,3.92516,0,0,1,5.49016,8.30979Z"/><path class="c" d="M5.49016,8.30979a3.92516,3.92516,0,0,0,1.2844-.69948c1.18943-.73743,2.37-1.48913,3.55343-2.23622.07241-.04572.1518-.092.20967-.00357.053.08089-.0099.15388-.07029.20964-.31193.288-.62305.57692-.93915.86029Q8.2737,7.565,7.01419,8.68407c-.1734.15381-.2001.23993.01655.41359a4.12143,4.12143,0,0,1,.91634.77205c-.36394.34719-.72037.7029-1.09444,1.039-.24628.22126-.39809.17137-.51848-.18075C6.138,10.1543,5.97179,9.5705,5.78163,8.99471A1.42493,1.42493,0,0,0,5.49016,8.30979Z"/></svg>