<svg xmlns="http://www.w3.org/2000/svg" viewBox="0 0 39.6072 22.89455"><defs><style>.a,.b{fill:#0c1c2b;}.b{fill-rule:evenodd;}</style></defs><path class="a" d="M16.84648,3.93007c4.57223,0,9.1445.01179,13.71665-.00694,1.4367-.00588,3.14781-.0209,3.18923-1.91732.042-1.92373-1.66671-1.99023-3.10761-1.993Q16.9281-.01366,3.21142.00888C1.76706.01066.06573.0535.02032,1.93608c-.04662,1.93266,1.679,1.97284,3.10956,1.98183C7.70192,3.94668,12.27426,3.92859,16.84648,3.93007Zm.50188,15.049c-4.88752,0-9.77517-.01859-14.6625.01225C1.35961,18.9997-.00555,19.3324,0,20.95459c.00561,1.63641,1.39939,1.91972,2.70961,1.92288q14.18952.03423,28.37915.00007c1.32041-.00317,2.69512-.31986,2.683-1.95476-.01206-1.62659-1.38479-1.92511-2.70686-1.93341C26.49289,18.96066,21.92058,18.97832,17.34836,18.97907Z"/><path class="a" d="M16.84648,3.92933c-4.57222-.00074-9.14456.01735-13.7166-.01142C1.69931,3.90892-.0263,3.86874.02032,1.93608.06573.0535,1.76706.01066,3.21142.00888Q16.92808-.008,30.64475.0128c1.4409.00278,3.14961.06928,3.10761,1.993-.04142,1.89642-1.75253,1.91144-3.18923,1.91732C25.991,3.94186,21.41871,3.93007,16.84648,3.92933Z"/><path class="a" d="M16.94662,9.48725c4.57381.001-.40869-.01511,4.165.01043,1.44425.00807,3.15064.0866,3.08414,2.01588-.06514,1.88978-1.78138,1.8922-3.2153,1.89413-9.14761.01235-8.73888.01547-17.88646-.0061C1.659,13.3982-.06693,13.32979.0056,11.39567c.07-1.867,1.7726-1.90047,3.21957-1.9046C7.799,9.478,12.3728,9.48625,16.94662,9.48725Z"/><path class="a" d="M17.34836,18.97869c4.57222-.00037,9.14453-.018,13.71655.01068,1.32207.0083,2.6948.30682,2.70686,1.93341.01213,1.6349-1.36258,1.95159-2.683,1.95476q-14.18953.03394-28.37915-.00007C1.39941,22.87431.00563,22.591,0,20.95459c-.00557-1.62219,1.35959-1.95489,2.68584-1.96327C7.57319,18.96048,12.46084,18.97907,17.34836,18.97869Z"/><path class="b" d="M30.20619,11.068a1.05618,1.05618,0,0,0,0,1.46951l7.81708,8.00332a.49917.49917,0,0,0,.71769,0l.7177-.73475a.52858.52858,0,0,0,0-.73475V4.53419a.52859.52859,0,0,0,0-.73476l-.7177-.73475a.49917.49917,0,0,0-.71769,0Z"/></svg>