<svg xmlns="http://www.w3.org/2000/svg" viewBox="0 0 34.3846 23.30994"><defs><style>.a{fill:#0c1c2b;}</style></defs><path class="a" d="M17.15214,4.00137c4.65519,0,9.31042.012,13.96552-.00706,1.46277-.006,3.20493-.02128,3.2471-1.95211C34.40752.08356,32.6678.01586,31.20076.013Q17.23525-.01391,3.26969.009C1.79912.01086.06692.05447.02069,1.9712c-.04747,1.96773,1.70946,2.00864,3.166,2.0178C7.84166,4.01829,12.497,3.99987,17.15214,4.00137Zm.102,5.657c-4.6568,0-9.31364-.0084-13.97041.0049C1.81046,9.66748.077,9.7016.0057,11.60243c-.07385,1.96922,1.68342,2.03886,3.14442,2.04231q13.97034.033,27.94079.00622c1.45994-.002,3.20732-.00443,3.27364-1.9285.0677-1.96429-1.66965-2.04424-3.1401-2.05245C26.56779,9.644,21.91089,9.6604,17.25409,9.65837Zm.409,9.665c-4.9762,0-9.95253-.01892-14.92854.01248C1.38427,19.34443-.00565,19.68316,0,21.33479c.00571,1.66609,1.42478,1.95455,2.75878,1.95777q14.447.03484,28.89405.00006c1.34437-.00323,2.744-.32566,2.73167-1.99022-.01228-1.65611-1.40991-1.96-2.756-1.96849C26.97357,19.30468,22.3183,19.32266,17.66313,19.32342Z"/><path class="a" d="M17.15214,4.00062C12.497,3.99987,7.84166,4.01829,3.18667,3.989,1.73015,3.97984-.02678,3.93893.02069,1.9712.06692.05447,1.79912.01086,3.26969.009Q17.23522-.00813,31.20076.013c1.467.00283,3.20676.07053,3.164,2.02917-.04217,1.93083-1.78433,1.94612-3.2471,1.95211C26.46256,4.01338,21.80733,4.00137,17.15214,4.00062Z"/><path class="a" d="M17.25409,9.65938c4.6568.001,9.3137-.01538,13.97036.01063,1.47045.00821,3.2078.08816,3.1401,2.05245-.06632,1.92407-1.8137,1.92653-3.27364,1.9285q-13.97038.01886-27.94079-.00622c-1.461-.00345-3.21827-.07309-3.14442-2.04231.07127-1.90083,1.80476-1.935,3.278-1.93916C7.94045,9.65,12.59729,9.65837,17.25409,9.65938Z"/><path class="a" d="M17.66313,19.323c4.65517-.00038,9.31044-.01836,13.96541.01087,1.34607.00845,2.7437.31238,2.756,1.96849.01235,1.66456-1.3873,1.987-2.73167,1.99022q-14.447.03458-28.894-.00006C1.4248,23.28934.00573,23.00088,0,21.33479c-.00567-1.65163,1.38425-1.99036,2.73457-1.99889C7.7106,19.3045,12.68693,19.32342,17.66313,19.323Z"/></svg>