<svg xmlns="http://www.w3.org/2000/svg" viewBox="0 0 15.39234 15.32262"><defs><style>.a{fill:#35cbfd;}.b{fill:#fff;}</style></defs><path class="a" d="M0,7.659a7.69625,7.69625,0,0,1,15.39234.003A7.69625,7.69625,0,0,1,0,7.659Z"/><path class="b" d="M2.82776,9.3301a2.85689,2.85689,0,0,0,3.70629-.23928c-.29273-.04919-.58476-.086-.68583-.4235-.04409-.14723.02747-.25531.31745-.51612a1.20186,1.20186,0,0,1-.97512-.347c-.27154-.27957-.31738-.35514.13575-.53947.06584-.02679.14517-.01162.21372-.07718a2.312,2.312,0,0,1-.61884-.31431A1.24175,1.24175,0,0,1,4.53,6.27542c-.03637-.11042.00935-.13975.09788-.15481.14028-.02386.28085-.046.45421-.07421a1.83858,1.83858,0,0,1-.66879-.639A1.15475,1.15475,0,0,1,4.254,4.90767c-.00773-.12.0167-.17256.15277-.12089.6855.26031,1.36126.54313,2.02213.8609a4.036,4.036,0,0,1,1.23583.82126c.1011.10716.12773.04478.16478-.04858a8.05652,8.05652,0,0,1,.77-1.564,3.12847,3.12847,0,0,1,.79271-.82316c.08436.03906-.01625.10294.04725.14609a1.72994,1.72994,0,0,1,.64091-.23691c.02046.10648-.06058.15-.10061.22762a1.65592,1.65592,0,0,0,.34141-.05678c.0942-.00812.21434-.05039.25532.07394.04052.12292-.068.17325-.16033.20746-.18269.06766-.36883.126-.61283.20814a4.10867,4.10867,0,0,1,.42411.0681,2.36,2.36,0,0,1,1.69123,1.74694.32947.32947,0,0,0,.30662.28376,2.34469,2.34469,0,0,0,.97945-.07975.73458.73458,0,0,1-.432.42157,2.75251,2.75251,0,0,1-.60961.1608A2.81322,2.81322,0,0,0,13.243,7.3279a1.20209,1.20209,0,0,1-.60117.38423,1.48541,1.48541,0,0,1-.50114.08187.145.145,0,0,0-.16822.12147,4.29419,4.29419,0,0,1-2.32407,2.67838,5.66543,5.66543,0,0,1-4.78684.27425A4.68224,4.68224,0,0,1,2.82776,9.3301Z"/></svg>