<svg xmlns="http://www.w3.org/2000/svg" viewBox="0 0 16.15958 15.77649"><defs><style>.a{opacity:0.55;}.b{fill:#6f639d;}</style></defs><g class="a"><path class="b" d="M4.59669,7.57858c-.75172,0-1.44161.00191-2.13149-.00057-.6087-.0022-.73028-.11777-.73087-.70663Q1.73121,3.77486,1.73426.67833C1.73491.11758,1.84241.004,2.39265.00352Q8.93894-.00168,15.48521.00044c.54569.00013.66986.1207.671.66911q.00664,3.12015.00015,6.24032c-.00109.53-.14231.66325-.67939.66673-.708.00459-1.416.00113-2.198.00113,0,.19479,0,.36057,0,.52636q.00026,3.47472-.00011,6.94945c-.00038.61689-.09935.72007-.71062.72079q-3.61583.00426-7.23164.0004c-.627-.00061-.73877-.11559-.73929-.7505q-.00274-3.40378-.00061-6.80758Zm.93554,7.27781h6.8055V4.25761H5.53223ZM15.24019.91955H2.6653V6.63329H4.56387V4.22644c-.26637,0-.49953-.006-.73226.00147-.30875.00984-.551-.09348-.55391-.43074-.00315-.35961.24269-.46614.575-.46259.83442.00893,1.669.00292,2.50353.00289q3.8262-.00015,7.6524-.002c.31411-.00039.58537.05375.59365.437.00825.3822-.2524.46267-.57222.45686-.24271-.00442-.48556-.00088-.72666-.00088V6.6259h1.93684Z"/><path class="b" d="M2.50643,12.01789c.18571-.227.3732-.45264.55665-.68149.196-.24453.42582-.33923.68781-.11754a.42958.42958,0,0,1,.02844.66658c-.47625.587-.9493,1.17672-1.4323,1.75814a.453.453,0,0,1-.7909-.01643c-.471-.5709-.93474-1.14783-1.40044-1.72312a.44484.44484,0,0,1,.03349-.70332c.27324-.2153.49631-.08121.685.15543a3.13027,3.13027,0,0,0,.63977.64112q0-.44832.00008-.89664c.0009-.55137.00665-1.10278.0018-1.6541-.00269-.30557.08248-.546.43147-.55107.37391-.00545.46575.245.46379.5704-.005.8332-.00168,1.66645-.00168,2.49969Z"/><path class="b" d="M8.60078,7.46753c.05644-.359-.03372-.80242.47982-.80471.51338-.0023.4218.44844.48554.82332.18158,0,.3488.0065.51534-.00137.33586-.01587.62587.05678.61881.45993-.00649.37064-.279.441-.59843.435-.51964-.00976-1.03961-.00256-1.55943-.00233-.28744.00013-.62946-.02706-.62447.38006.00462.37639.3283.35073.60118.34876.34653-.00251.69314-.00393,1.03964.00023a1.23041,1.23041,0,0,1,1.31655,1.19406A1.19671,1.19671,0,0,1,9.7991,11.616c-.075.01519-.14972.03215-.2334.05019-.06823.32971.03258.7779-.4936.76969-.49305-.00769-.42569-.408-.46425-.80645-.29,0-.58232-.00016-.8746,0-.30468.00021-.53935-.09943-.53842-.44854.0009-.33937.21494-.45977.52991-.458.58281.00323,1.16569-.00306,1.74849.0008.25858.00171.4955-.03354.49345-.35869-.002-.32092-.24064-.36475-.497-.36487C9.06011,10,8.65013,10.0096,8.24109,9.99453A1.15338,1.15338,0,0,1,7.02034,8.78044,1.21039,1.21039,0,0,1,8.22775,7.48723C8.33661,7.4812,8.4455,7.47572,8.60078,7.46753Z"/></g></svg>