<svg xmlns="http://www.w3.org/2000/svg" width="47" height="46" viewBox="0 0 47 46"><g><g><path fill="#885bea" d="M23.23 26.288v.472c0 .78-.295 1.3-.909 1.547v.023c.661.271.991.861.991 1.77v.625c0 1.275-.73 2.03-2.006 2.03-1.274 0-2.006-.73-2.006-1.982v-.507l1.203-.06v.414c0 .672.248.98.768.98.531 0 .791-.343.791-.957v-.637c0-.732-.27-1.062-.909-1.062h-.52v-1.157h.52c.578 0 .826-.307.826-1.003v-.449c0-.59-.26-.92-.743-.92-.485 0-.72.307-.72.98v.413l-1.204-.06v-.507c0-1.25.72-1.983 1.96-1.983 1.238 0 1.958.756 1.958 2.03z"/></g><g><path fill="#885bea" d="M25.555 24.377c1.346 0 2.077.731 2.077 2.088v4.084c0 1.357-.73 2.09-2.077 2.09h-1.794v-8.262zm-.543 7.104h.495c.603 0 .874-.318.874-1.015v-3.918c0-.696-.27-1.015-.874-1.015h-.495z"/></g><g><path fill="none" stroke="#885bea" stroke-linecap="round" stroke-linejoin="round" stroke-miterlimit="20" stroke-width="1.13" d="M11.421 37.156v0-15.224 0l12.107-7.147v0l12.436 7.679v14.665L23.8 44.302v0l-12.379-7.146v0z"/></g><g><path fill="none" stroke="#885bea" stroke-linecap="round" stroke-linejoin="round" stroke-miterlimit="20" stroke-width="1.13" d="M23.521 1.617l-.062 13.099"/></g><g><path fill="#885bea" d="M18.087 9.279c.26.168.608.092.777-.169l4.657-7.236 4.587 7.28a.563.563 0 0 0 .953-.6L24 .527a.563.563 0 0 0-.95-.004l-5.133 7.979a.56.56 0 0 0 .169.777z"/></g><g><path fill="none" stroke="#885bea" stroke-linecap="round" stroke-linejoin="round" stroke-miterlimit="20" stroke-width="1.13" d="M10.917 37.075l-9.56 7.292"/></g><g><path fill="#885bea" d="M4.195 35.412c.292.106.44.43.334.722L1.562 44.21l8.574-.727a.564.564 0 0 1 .609.513.566.566 0 0 1-.514.608l-9.454.802a.562.562 0 0 1-.575-.755l3.27-8.906a.563.563 0 0 1 .723-.334z"/></g><g><path fill="none" stroke="#885bea" stroke-linecap="round" stroke-linejoin="round" stroke-miterlimit="20" stroke-width="1.13" d="M35.73 37.007l9.617 7.167"/></g><g><path fill="#885bea" d="M35.958 43.91a.562.562 0 0 1 .602-.52l8.582.63-3.058-8.042a.563.563 0 0 1 1.052-.401l3.37 8.87a.563.563 0 0 1-.568.76l-9.46-.694a.562.562 0 0 1-.52-.603z"/></g><g><path fill="none" stroke="#885bea" stroke-linecap="round" stroke-linejoin="round" stroke-miterlimit="20" stroke-width="1.13" d="M23.732 44.096v-7.158"/></g><g><path fill="none" stroke="#885bea" stroke-linecap="round" stroke-linejoin="round" stroke-miterlimit="20" stroke-width="1.13" d="M35.593 22.555l-3.545 1.977"/></g><g><path fill="none" stroke="#885bea" stroke-linecap="round" stroke-linejoin="round" stroke-miterlimit="20" stroke-width="1.13" d="M11.53 22.01l3.749 2.045"/></g></g></svg>