<svg width="193" height="162" viewBox="0 0 193 162" fill="none" xmlns="http://www.w3.org/2000/svg">
<g opacity="0.55">
<path opacity="0.55" d="M88.5685 8.41993H52.9612C52.8431 8.41953 52.726 8.44246 52.6168 8.4874C52.5075 8.53233 52.4082 8.59839 52.3245 8.68178C52.2409 8.76518 52.1745 8.86427 52.1292 8.97338C52.0839 9.08248 52.0605 9.19946 52.0605 9.31759C52.0605 9.43573 52.0839 9.5527 52.1292 9.66181C52.1745 9.77091 52.2409 9.87 52.3245 9.9534C52.4082 10.0368 52.5075 10.1029 52.6168 10.1478C52.726 10.1927 52.8431 10.2157 52.9612 10.2153H88.5685C88.8061 10.2145 89.0336 10.1195 89.2013 9.95128C89.369 9.78302 89.4632 9.55515 89.4632 9.31759C89.4632 9.08003 89.369 8.85216 89.2013 8.6839C89.0336 8.51565 88.8061 8.42072 88.5685 8.41993Z" fill="white"/>
</g>
<g opacity="0.55">
<path opacity="0.55" d="M101.877 11.2629V15.2515C101.877 12.5582 100.807 9.97542 98.9021 8.071C96.9977 6.16658 94.4149 5.09648 91.7217 5.09601H49.1399C46.4466 5.09647 43.8638 6.16657 41.9594 8.07099C40.0549 9.97541 38.9848 12.5582 38.9844 15.2515V11.2629C38.9844 9.92925 39.247 8.60866 39.7574 7.37653C40.2677 6.14441 41.0158 5.02487 41.9588 4.08184C42.9018 3.13881 44.0214 2.39077 45.2535 1.88042C46.4856 1.37006 47.8062 1.1074 49.1399 1.10742H91.7217C93.0553 1.1074 94.3759 1.37007 95.608 1.88043C96.8402 2.39078 97.9597 3.13883 98.9027 4.08186C99.8457 5.02488 100.594 6.14442 101.104 7.37655C101.614 8.60867 101.877 9.92925 101.877 11.2629Z" fill="white"/>
</g>
<path opacity="0.3" d="M65.8847 1.10646L79.3734 16.5671H54.0177L42.6055 3.48824C44.4337 1.94666 46.749 1.1028 49.1404 1.10646H65.8847Z" fill="url(#paint0_linear)"/>
<g opacity="0.3">
<path opacity="0.3" d="M96.0313 21.4806V25.4871C96.0314 24.8419 95.9044 24.2029 95.6575 23.6068C95.4106 23.0107 95.0487 22.469 94.5924 22.0128C94.1362 21.5565 93.5946 21.1946 92.9984 20.9477C92.4023 20.7009 91.7634 20.5738 91.1181 20.5739H49.7482C48.4448 20.5736 47.1946 21.0911 46.2727 22.0124C45.3508 22.9338 44.8326 24.1836 44.832 25.4871V21.4806C44.8326 20.1772 45.3508 18.9273 46.2727 18.006C47.1946 17.0846 48.4448 16.5671 49.7482 16.5674H91.1182C91.7634 16.5673 92.4023 16.6944 92.9985 16.9412C93.5946 17.1881 94.1362 17.55 94.5925 18.0063C95.0487 18.4625 95.4106 19.0042 95.6575 19.6003C95.9044 20.1964 96.0314 20.8353 96.0313 21.4806Z" fill="#371A45"/>
</g>
<path d="M88.5684 9.3217H52.9611C52.7235 9.3209 52.496 9.22598 52.3283 9.05772C52.1606 8.88946 52.0664 8.66159 52.0664 8.42403C52.0664 8.18647 52.1606 7.9586 52.3283 7.79034C52.496 7.62208 52.7235 7.52716 52.9611 7.52637H88.5684C88.806 7.52716 89.0335 7.62208 89.2012 7.79034C89.3689 7.9586 89.4631 8.18647 89.4631 8.42403C89.4631 8.66159 89.3689 8.88946 89.2012 9.05772C89.0335 9.22598 88.806 9.3209 88.5684 9.3217Z" fill="#371A45"/>
<g opacity="0.55">
<path opacity="0.55" d="M147.888 29.3728C147.928 29.5705 147.959 29.7685 147.984 29.9653C147.438 28.0055 146.171 26.3247 144.438 25.26C142.704 24.1952 140.632 23.8253 138.637 24.2243C136.642 24.6233 134.872 25.7618 133.681 27.4115C132.491 29.0611 131.968 31.0999 132.218 33.119C132.165 32.9278 132.118 32.7328 132.078 32.5351C131.659 30.4386 132.09 28.2614 133.276 26.4825C134.462 24.7035 136.306 23.4685 138.402 23.0492C140.499 22.6298 142.676 23.0605 144.455 24.2464C146.234 25.4323 147.469 27.2763 147.888 29.3728Z" fill="white"/>
</g>
<g opacity="0.55">
<path opacity="0.55" d="M145.495 29.8514C145.524 30 145.548 30.1486 145.565 30.2958C145.178 28.9367 144.294 27.7731 143.088 27.0369C141.882 26.3006 140.442 26.0457 139.057 26.3229C137.671 26.6 136.441 27.389 135.611 28.5325C134.781 29.676 134.412 31.0903 134.577 32.4936C134.537 32.351 134.501 32.2049 134.472 32.0563C134.179 30.5945 134.479 29.0765 135.306 27.8361C136.133 26.5957 137.419 25.7346 138.881 25.4422C140.342 25.1498 141.861 25.4501 143.101 26.277C144.341 27.1039 145.202 28.3896 145.495 29.8514H145.495Z" fill="white"/>
</g>
<path d="M137.753 31.1555C137.763 31.1334 137.775 31.1123 137.789 31.0924C137.925 30.8654 138.062 30.6386 138.198 30.4118C138.369 30.1291 138.539 29.8464 138.709 29.5636C138.872 29.2933 139.035 29.0229 139.198 28.7525C139.36 28.484 139.522 28.2156 139.683 27.9472L140.013 27.3992L140.02 27.3876C140.027 27.3813 140.029 27.3867 140.03 27.3925C140.02 27.4008 140.025 27.4123 140.025 27.4221C140.025 28.3124 140.025 29.2027 140.025 30.093L140.025 30.1249C139.959 30.1546 139.893 30.1844 139.828 30.2141C139.718 30.2641 139.608 30.3142 139.499 30.3643C139.341 30.4358 139.184 30.5072 139.027 30.5784C138.911 30.6308 138.796 30.6832 138.681 30.7357C138.512 30.8122 138.344 30.8888 138.176 30.9653C138.049 31.0228 137.923 31.0807 137.797 31.1379C137.783 31.1458 137.768 31.1517 137.753 31.1555Z" fill="#8C8C8C"/>
<path d="M140.024 30.125L140.024 30.0932C140.024 29.2028 140.025 28.3125 140.025 27.4222C140.025 27.4124 140.019 27.4009 140.03 27.3926C140.183 27.6459 140.335 27.8991 140.488 28.1524C141.087 29.1476 141.687 30.1427 142.286 31.1378L142.297 31.1555C142.299 31.1591 142.298 31.1628 142.293 31.1641C142.292 31.1545 142.283 31.1532 142.277 31.1502C142.248 31.1369 142.219 31.1241 142.19 31.1109L141.938 30.9963L141.739 30.906L141.487 30.7914L141.289 30.7011L141.037 30.5865L140.787 30.4727L140.536 30.359L140.286 30.2453L140.026 30.1268L140.024 30.125Z" fill="#343434"/>
<path d="M137.753 31.1555C137.768 31.1518 137.783 31.1459 137.797 31.138C137.923 31.0808 138.049 31.0229 138.175 30.9654C138.344 30.8888 138.512 30.8122 138.681 30.7358C138.796 30.6834 138.911 30.631 139.026 30.5785C139.184 30.5071 139.341 30.4357 139.499 30.3644C139.608 30.3145 139.718 30.2644 139.828 30.2142C139.893 30.1844 139.959 30.1546 140.024 30.125L140.026 30.1268L140.026 30.1496C140.026 30.924 140.026 31.6985 140.026 32.4729L140.026 32.4911C140.026 32.4969 140.03 32.4989 140.034 32.4999C140.025 32.5115 140.017 32.5026 140.009 32.4979C139.941 32.4582 139.874 32.4185 139.807 32.3787L137.771 31.1749L137.752 31.163L137.753 31.1555Z" fill="#393939"/>
<path d="M140.034 32.5C140.029 32.499 140.026 32.497 140.026 32.4913L140.025 32.473C140.025 31.6986 140.025 30.9241 140.025 30.1497L140.026 30.127L140.286 30.2454L140.537 30.3591L140.787 30.4728L141.037 30.5866L141.289 30.7012L141.487 30.7915L141.74 30.9061L141.938 30.9964L142.19 31.111C142.219 31.1242 142.248 31.137 142.277 31.1503C142.284 31.1533 142.292 31.1546 142.293 31.1642C142.216 31.2103 142.138 31.2564 142.061 31.3024C141.394 31.6969 140.727 32.0914 140.06 32.4859L140.034 32.5Z" fill="#141414"/>
<path d="M140.031 34.7912C140.028 34.7978 140.025 34.8029 140.019 34.7938L139.975 34.7325C139.806 34.493 139.636 34.2534 139.466 34.0139C139.235 33.6883 139.004 33.3627 138.773 33.0372C138.632 32.8385 138.491 32.6398 138.35 32.441C138.155 32.1656 137.96 31.8901 137.764 31.6147C137.759 31.6099 137.756 31.6035 137.756 31.5967L137.839 31.6453C138.137 31.8213 138.435 31.9974 138.732 32.1735C138.979 32.319 139.225 32.4646 139.471 32.6101C139.65 32.7159 139.829 32.8216 140.008 32.9273L140.026 32.9366L140.025 32.9639C140.025 33.5631 140.025 34.1624 140.025 34.7616L140.026 34.7821C140.025 34.784 140.026 34.7859 140.027 34.7875C140.028 34.7892 140.029 34.7905 140.031 34.7912Z" fill="#8C8C8C"/>
<path d="M140.031 34.7914C140.029 34.7906 140.028 34.7893 140.027 34.7877C140.026 34.786 140.025 34.7841 140.026 34.7822L140.025 34.7618C140.025 34.1625 140.025 33.5633 140.025 32.964L140.026 32.9367C140.198 32.8352 140.369 32.7337 140.541 32.6322C141.117 32.292 141.692 31.9519 142.268 31.6119C142.277 31.6065 142.286 31.6023 142.295 31.5996L142.284 31.6174C141.748 32.3729 141.212 33.1284 140.675 33.8838L140.035 34.7859L140.031 34.7914Z" fill="#3C3C3B"/>
<path d="M9.1494 104.304H9.23377C9.68429 104.304 10.1304 104.392 10.5466 104.565C10.9628 104.737 11.341 104.99 11.6596 105.309C11.9782 105.627 12.2309 106.005 12.4033 106.422C12.5757 106.838 12.6644 107.284 12.6644 107.734V107.819C12.6644 108.729 12.303 109.601 11.6596 110.245C11.0162 110.888 10.1436 111.249 9.23379 111.249H9.1494C8.69888 111.249 8.25277 111.161 7.83655 110.988C7.42032 110.816 7.04213 110.563 6.72356 110.245C6.405 109.926 6.1523 109.548 5.97989 109.132C5.80749 108.715 5.71875 108.269 5.71875 107.819V107.734C5.71875 106.824 6.08019 105.952 6.72356 105.309C7.36694 104.665 8.23953 104.304 9.1494 104.304V104.304Z" fill="white"/>
<path d="M13.2435 77.2559H13.2766C13.6336 77.2559 13.976 77.3977 14.2284 77.6501C14.4809 77.9026 14.6227 78.2449 14.6227 78.6019V78.635C14.6227 78.992 14.4809 79.3344 14.2284 79.5868C13.976 79.8393 13.6336 79.9811 13.2766 79.9811H13.2435C13.0668 79.9811 12.8917 79.9463 12.7284 79.8786C12.5651 79.811 12.4167 79.7118 12.2917 79.5868C12.1667 79.4618 12.0676 79.3135 11.9999 79.1501C11.9323 78.9868 11.8975 78.8118 11.8975 78.635V78.6019C11.8975 78.4251 11.9323 78.2501 11.9999 78.0868C12.0676 77.9235 12.1667 77.7751 12.2917 77.6501C12.4167 77.5251 12.5651 77.4259 12.7284 77.3583C12.8917 77.2907 13.0667 77.2559 13.2435 77.2559Z" fill="white"/>
<path d="M188.562 78.417H188.47C186.404 78.417 184.729 80.092 184.729 82.1583V82.2503C184.729 84.3166 186.404 85.9916 188.47 85.9916H188.562C190.628 85.9916 192.303 84.3166 192.303 82.2503V82.1583C192.303 80.092 190.628 78.417 188.562 78.417Z" fill="white"/>
<path d="M175.108 94.9688H175.168C175.815 94.9688 176.436 95.226 176.894 95.6839C177.352 96.1418 177.609 96.7628 177.609 97.4104V97.4705C177.609 98.118 177.352 98.7391 176.894 99.197C176.436 99.6549 175.815 99.9121 175.168 99.9121H175.108C174.787 99.9121 174.47 99.849 174.173 99.7263C173.877 99.6036 173.608 99.4237 173.381 99.197C173.154 98.9702 172.975 98.7011 172.852 98.4049C172.729 98.1086 172.666 97.7911 172.666 97.4705V97.4104C172.666 97.0898 172.729 96.7723 172.852 96.476C172.975 96.1798 173.154 95.9106 173.381 95.6839C173.608 95.4571 173.877 95.2773 174.173 95.1546C174.47 95.0319 174.787 94.9687 175.108 94.9688Z" fill="white"/>
<path d="M178.573 67.6807H178.534C177.671 67.6807 176.972 68.3802 176.972 69.2431V69.2815C176.972 70.1444 177.671 70.8439 178.534 70.8439H178.573C179.435 70.8439 180.135 70.1444 180.135 69.2815V69.2431C180.135 68.3802 179.435 67.6807 178.573 67.6807Z" fill="white"/>
<g opacity="0.6">
<path opacity="0.4" d="M95.0204 160.531C135.531 160.531 168.372 127.69 168.372 87.1796C168.372 46.6687 135.531 13.8281 95.0204 13.8281C54.5095 13.8281 21.6689 46.6687 21.6689 87.1796C21.6689 127.69 54.5095 160.531 95.0204 160.531Z" fill="white"/>
</g>
<path d="M84.5886 142.821H56.2735C54.5606 142.82 52.9181 142.139 51.7071 140.928C50.4962 139.716 49.8161 138.073 49.8164 136.36V84.7004C49.8161 82.9875 50.4962 81.3446 51.7072 80.1331C52.9181 78.9216 54.5606 78.2407 56.2735 78.2402H84.5886C86.3012 78.2417 87.9432 78.9229 89.1539 80.1342C90.3646 81.3455 91.045 82.9878 91.0457 84.7004V136.36C91.046 138.073 90.3659 139.716 89.155 140.928C87.9441 142.139 86.3015 142.82 84.5886 142.821Z" fill="#FF5722"/>
<path d="M56.345 127.458V126.543L55.6465 126.224V125.377L59.0638 126.959V128.031L55.6465 128.561V127.553L56.345 127.458ZM57.051 127.397L58.0398 127.261L57.051 126.811V127.397Z" fill="#262F6A"/>
<path d="M58.2877 131.138L55.6465 130.695V129.702L58.2877 130.145V129.414L59.0737 129.547V132.021L58.2877 131.891V131.138Z" fill="#262F6A"/>
<path d="M59.0638 136.713L55.6465 136.142V135.18L57.4665 135.485C57.6535 135.517 57.8488 135.558 58.0524 135.608C58.2176 135.648 58.3436 135.675 58.4304 135.69C58.3786 135.67 58.3002 135.641 58.1951 135.603C57.9764 135.521 57.7894 135.446 57.6342 135.377L55.6465 134.493V133.877L57.6342 133.642C57.8096 133.621 57.9965 133.606 58.1951 133.597C58.3136 133.591 58.4054 133.584 58.4704 133.577C57.9982 133.531 57.591 133.479 57.2488 133.422L55.6465 133.155V132.381L59.0639 132.95V134.325L57.5517 134.509C57.4281 134.524 57.3405 134.537 57.2889 134.549C57.3786 134.577 57.4664 134.612 57.5517 134.652L59.0639 135.329L59.0638 136.713Z" fill="#262F6A"/>
<g opacity="0.55">
<path opacity="0.55" d="M84.5887 142.821H82.4941C84.207 142.82 85.8496 142.139 87.0605 140.928C88.2715 139.716 88.9516 138.073 88.9513 136.36V84.7004C88.9516 82.9875 88.2714 81.3446 87.0605 80.1331C85.8496 78.9216 84.207 78.2407 82.4941 78.2402H84.5887C86.3016 78.2407 87.9441 78.9216 89.1551 80.1331C90.366 81.3446 91.0461 82.9875 91.0458 84.7004V136.36C91.0461 138.073 90.366 139.716 89.1551 140.928C87.9441 142.139 86.3016 142.82 84.5887 142.821Z" fill="white"/>
</g>
<g opacity="0.3">
<path opacity="0.3" d="M58.8917 142.821H56.2735C54.5606 142.82 52.9181 142.139 51.7071 140.928C50.4962 139.716 49.8161 138.073 49.8164 136.36V84.7004C49.8161 82.9875 50.4962 81.3446 51.7072 80.1331C52.9181 78.9216 54.5606 78.2407 56.2735 78.2402H58.8917C57.1788 78.2407 55.5362 78.9216 54.3253 80.1331C53.1144 81.3446 52.4343 82.9875 52.4346 84.7004V136.36C52.4343 138.073 53.1144 139.716 54.3253 140.928C55.5362 142.139 57.1788 142.82 58.8917 142.821Z" fill="#262F6A"/>
</g>
<path d="M81.2412 142.82V78.2422H71.927V142.82H81.2412Z" fill="#262F6A"/>
<g opacity="0.47">
<path opacity="0.47" d="M68.1484 103.728V84.8883C68.1484 82.9021 66.5383 81.292 64.5522 81.292H64.4637C62.4776 81.292 60.8675 82.9021 60.8675 84.8883V103.728C60.8675 105.714 62.4776 107.324 64.4637 107.324H64.5522C66.5383 107.324 68.1484 105.714 68.1484 103.728Z" fill="#9BD9E7"/>
</g>
<path opacity="0.3" d="M49.8164 106.531V94.3651L71.812 78.2402H84.5886C85.5903 78.2385 86.5783 78.4722 87.4731 78.9225L49.8164 106.531Z" fill="url(#paint1_linear)"/>
<path opacity="0.3" d="M77.4909 142.821H63.4219L91.0459 122.57V132.884L77.4909 142.821Z" fill="url(#paint2_linear)"/>
<path opacity="0.3" d="M49.8164 136.295V115.481L91.0464 85.2539V106.068L49.8164 136.295Z" fill="url(#paint3_linear)"/>
<path d="M84.5888 143.927H56.2737C54.2681 143.925 52.3453 143.127 50.9272 141.709C49.509 140.29 48.7113 138.368 48.709 136.362V84.6995C48.7113 82.6939 49.509 80.7711 50.9272 79.353C52.3453 77.9348 54.2681 77.137 56.2737 77.1348H84.5888C86.5944 77.137 88.5172 77.9348 89.9354 79.353C91.3535 80.7711 92.1513 82.6939 92.1535 84.6995V136.362C92.1513 138.368 91.3535 140.29 89.9354 141.709C88.5172 143.127 86.5944 143.925 84.5888 143.927ZM56.2737 79.3487C54.8551 79.3503 53.495 79.9146 52.4919 80.9177C51.4888 81.9208 50.9245 83.2809 50.9229 84.6995V136.362C50.9245 137.781 51.4888 139.141 52.4919 140.144C53.495 141.147 54.8551 141.711 56.2737 141.713H84.5888C86.0074 141.711 87.3675 141.147 88.3706 140.144C89.3738 139.141 89.938 137.781 89.9396 136.362V84.6995C89.938 83.2809 89.3738 81.9208 88.3706 80.9177C87.3675 79.9146 86.0074 79.3503 84.5888 79.3487H56.2737Z" fill="#262F6A"/>
<path d="M101.877 11.2629V106.72C101.877 109.412 100.806 111.995 98.9019 113.899C96.9974 115.803 94.4146 116.872 91.7217 116.872H49.1399C46.4469 116.872 43.8641 115.803 41.9597 113.899C40.0552 111.995 38.9849 109.412 38.9844 106.72V11.2629C38.9843 9.92925 39.247 8.60866 39.7574 7.37653C40.2677 6.1444 41.0158 5.02485 41.9588 4.08183C42.9018 3.1388 44.0214 2.39075 45.2535 1.8804C46.4856 1.37005 47.8062 1.10739 49.1399 1.10742H91.7217C93.0553 1.1074 94.3759 1.37007 95.608 1.88043C96.8402 2.39078 97.9597 3.13883 98.9027 4.08186C99.8457 5.02488 100.594 6.14442 101.104 7.37655C101.614 8.60867 101.877 9.92925 101.877 11.2629Z" fill="#22A7F0"/>
<path opacity="0.3" d="M101.877 100.013V106.719C101.877 109.412 100.806 111.994 98.9019 113.898C96.9974 115.802 94.4146 116.871 91.7217 116.871H89.3937L38.9844 59.1011V27.9375L44.8311 34.637V56.8869C44.8316 58.1903 45.3499 59.4401 46.2718 60.3615C47.1937 61.2829 48.4439 61.8003 49.7473 61.8001H68.5322L101.877 100.013Z" fill="url(#paint4_linear)"/>
<path opacity="0.3" d="M79.6164 116.872H61.3454L38.9854 91.2426V70.3066L79.6164 116.872Z" fill="url(#paint5_linear)"/>
<path opacity="0.3" d="M101.877 42.3567V71.4168L93.1162 61.375C93.9839 60.9887 94.721 60.3592 95.2382 59.5626C95.7555 58.766 96.0307 57.8365 96.0306 56.8868V35.6572L101.877 42.3567Z" fill="url(#paint6_linear)"/>
<g opacity="0.3">
<path opacity="0.3" d="M101.877 101.597V106.719C101.877 109.412 100.806 111.995 98.9019 113.899C96.9974 115.803 94.4146 116.872 91.7217 116.872H49.1399C46.4469 116.872 43.8641 115.803 41.9597 113.899C40.0552 111.995 38.9849 109.412 38.9844 106.719V101.597C38.9844 102.93 39.247 104.251 39.7574 105.483C40.2677 106.715 41.0158 107.835 41.9588 108.778C42.9018 109.721 44.0214 110.469 45.2535 110.979C46.4856 111.49 47.8062 111.752 49.1399 111.752H91.7217C93.0553 111.752 94.3759 111.49 95.608 110.979C96.8401 110.469 97.9597 109.721 98.9027 108.778C99.8457 107.835 100.594 106.715 101.104 105.483C101.614 104.251 101.877 102.93 101.877 101.597Z" fill="#371A45"/>
</g>
<path d="M91.722 117.98H49.141C46.1551 117.976 43.2926 116.789 41.1812 114.677C39.0699 112.566 37.8823 109.704 37.8789 106.718V11.2618C37.8823 8.27598 39.0699 5.41343 41.1813 3.30216C43.2926 1.19089 46.1552 0.00332693 49.141 0L91.722 0C94.7078 0.00332692 97.5704 1.19089 99.6817 3.30216C101.793 5.41343 102.981 8.27598 102.984 11.2618V106.718C102.981 109.704 101.793 112.566 99.6817 114.677C97.5704 116.789 94.7078 117.976 91.722 117.98ZM49.141 2.21393C46.7421 2.21662 44.4423 3.17073 42.746 4.86694C41.0498 6.56316 40.0956 8.86295 40.0928 11.2618V106.718C40.0955 109.117 41.0497 111.416 42.746 113.113C44.4422 114.809 46.7421 115.763 49.141 115.766H91.722C94.1209 115.763 96.4207 114.809 98.117 113.113C99.8133 111.416 100.767 109.117 100.77 106.718V11.2618C100.767 8.86295 99.8132 6.56316 98.1169 4.86694C96.4207 3.17073 94.1208 2.21662 91.722 2.21393H49.141Z" fill="#371A45"/>
<path d="M73.6888 16.5674H67.1753C54.836 16.5674 44.833 26.5704 44.833 38.9097V39.4591C44.833 51.7984 54.836 61.8014 67.1753 61.8014H73.6888C86.0281 61.8014 96.0311 51.7984 96.0311 39.4591V38.9097C96.0311 26.5704 86.0281 16.5674 73.6888 16.5674Z" fill="#DAE2ED"/>
<g opacity="0.45">
<path opacity="0.45" d="M96.0313 53.5303V56.8875C96.0314 57.5327 95.9044 58.1716 95.6575 58.7678C95.4106 59.3639 95.0487 59.9056 94.5924 60.3618C94.1362 60.8181 93.5946 61.18 92.9984 61.4268C92.4023 61.6737 91.7634 61.8008 91.1181 61.8007H49.7482C48.4448 61.8009 47.1946 61.2835 46.2727 60.3621C45.3508 59.4407 44.8326 58.1909 44.832 56.8875V53.5303C44.8326 54.8337 45.3508 56.0835 46.2727 57.0049C47.1946 57.9263 48.4448 58.4437 49.7482 58.4434H91.1182C91.7634 58.4435 92.4023 58.3165 92.9985 58.0696C93.5946 57.8227 94.1362 57.4608 94.5925 57.0046C95.0487 56.5483 95.4106 56.0067 95.6575 55.4105C95.9043 54.8144 96.0314 54.1755 96.0313 53.5303Z" fill="white"/>
</g>
<path d="M91.1163 62.8491H49.7464C48.1659 62.8472 46.6507 62.2185 45.5331 61.1009C44.4155 59.9833 43.7869 58.468 43.7852 56.8875V21.4818C43.787 19.9013 44.4156 18.3861 45.5332 17.2685C46.6507 16.151 48.166 15.5223 49.7464 15.5205H91.1163C92.6968 15.5223 94.212 16.151 95.3296 17.2685C96.4471 18.3861 97.0758 19.9013 97.0776 21.4818V56.8875C97.0758 58.468 96.4472 59.9833 95.3297 61.1009C94.2121 62.2185 92.6968 62.8472 91.1163 62.8491ZM49.7464 17.6153C48.7213 17.6164 47.7384 18.0241 47.0135 18.749C46.2886 19.4738 45.8808 20.4566 45.8796 21.4818V56.8875C45.8808 57.9127 46.2885 58.8956 47.0134 59.6205C47.7384 60.3454 48.7212 60.7532 49.7464 60.7543H91.1163C92.1415 60.7532 93.1244 60.3454 93.8493 59.6205C94.5742 58.8956 94.982 57.9127 94.9831 56.8875V21.4818C94.9819 20.4566 94.5741 19.4738 93.8492 18.749C93.1243 18.0241 92.1415 17.6164 91.1163 17.6153H49.7464Z" fill="#371A45"/>
<g opacity="0.3">
<path opacity="0.3" d="M87.637 81.9053H88.8334C89.6887 81.9053 90.5089 82.245 91.1137 82.8498C91.7185 83.4546 92.0583 84.2749 92.0583 85.1302V85.2095C92.0583 86.0648 91.7185 86.8851 91.1137 87.4899C90.5089 88.0947 89.6887 88.4345 88.8334 88.4345H87.637C86.7817 88.4345 85.9615 88.0947 85.3567 87.4899C84.7519 86.8851 84.4121 86.0648 84.4121 85.2095V85.1302C84.4121 84.2749 84.7519 83.4546 85.3567 82.8499C85.9615 82.2451 86.7817 81.9053 87.637 81.9053Z" fill="#371A45"/>
</g>
<g opacity="0.3">
<path opacity="0.3" d="M88.8334 92.0996H87.637C85.856 92.0996 84.4121 93.5435 84.4121 95.3245V95.4039C84.4121 97.1849 85.856 98.6288 87.637 98.6288H88.8334C90.6145 98.6288 92.0583 97.1849 92.0583 95.4039V95.3245C92.0583 93.5435 90.6145 92.0996 88.8334 92.0996Z" fill="#371A45"/>
</g>
<g opacity="0.3">
<path opacity="0.3" d="M88.8334 102.293H87.637C85.856 102.293 84.4121 103.737 84.4121 105.518V105.597C84.4121 107.378 85.856 108.822 87.637 108.822H88.8334C90.6145 108.822 92.0583 107.378 92.0583 105.597V105.518C92.0583 103.737 90.6145 102.293 88.8334 102.293Z" fill="#371A45"/>
</g>
<path d="M91.4942 24.6167V53.7516C91.495 54.2827 91.3909 54.8087 91.1881 55.2995C90.9852 55.7903 90.6875 56.2362 90.3119 56.6118C89.9364 56.9873 89.4904 57.285 88.9996 57.4879C88.5089 57.6908 87.9828 57.7948 87.4518 57.7941H53.4096C52.3376 57.7939 51.3094 57.368 50.5514 56.6099C49.7933 55.8518 49.3673 54.8237 49.3672 53.7516V24.6167C49.3658 23.911 49.5506 23.2174 49.9028 22.6059C49.9597 22.5072 50.0195 22.4115 50.0853 22.3187C50.4567 21.7804 50.9533 21.3404 51.5323 21.0365C52.1114 20.7326 52.7557 20.574 53.4096 20.5742H87.4518C88.5238 20.5744 89.552 21.0003 90.3101 21.7584C91.0681 22.5165 91.4941 23.5446 91.4942 24.6167Z" fill="#3EDC81"/>
<path d="M92.0583 80.0723H84.4121V86.6015H92.0583V80.0723Z" fill="#3EDC81"/>
<path d="M92.0571 80.0732H84.4121V81.8686H92.0571V80.0732Z" fill="white"/>
<path d="M92.0586 87.4991H84.4123C84.1742 87.4991 83.9459 87.4045 83.7776 87.2362C83.6092 87.0679 83.5147 86.8395 83.5146 86.6015V80.0725C83.5147 79.8344 83.6092 79.6061 83.7776 79.4377C83.9459 79.2694 84.1742 79.1748 84.4123 79.1748H92.0586C92.2967 79.1748 92.525 79.2694 92.6933 79.4377C92.8617 79.6061 92.9562 79.8344 92.9563 80.0725V86.6015C92.9562 86.8395 92.8617 87.0678 92.6933 87.2362C92.525 87.4045 92.2967 87.4991 92.0586 87.4991ZM85.31 85.7038H91.161V80.9701H85.31V85.7038Z" fill="#262F6A"/>
<path d="M92.0583 90.2656H84.4121V96.7948H92.0583V90.2656Z" fill="#F6C314"/>
<path d="M92.0571 90.2666H84.4121V92.0619H92.0571V90.2666Z" fill="white"/>
<path d="M92.0583 97.6778H84.412C84.1779 97.6777 83.9534 97.5847 83.7878 97.4192C83.6223 97.2536 83.5293 97.0291 83.5293 96.7949V90.2657C83.5293 90.0315 83.6223 89.807 83.7878 89.6414C83.9534 89.4759 84.1779 89.3828 84.412 89.3828H92.0583C92.2924 89.3828 92.5169 89.4759 92.6824 89.6414C92.848 89.807 92.941 90.0315 92.941 90.2657V96.7949C92.941 97.0291 92.848 97.2536 92.6824 97.4192C92.5169 97.5847 92.2924 97.6777 92.0583 97.6778ZM85.2947 95.9121H91.1756V91.1485H85.2947V95.9121Z" fill="#262F6A"/>
<path d="M56.4509 69.8789H48.8047V76.4081H56.4509V69.8789Z" fill="#5E6C7A"/>
<path d="M68.32 69.8789H60.6738V76.4081H68.32V69.8789Z" fill="#5E6C7A"/>
<path d="M80.1892 69.8789H72.543V76.4081H80.1892V69.8789Z" fill="#5E6C7A"/>
<path d="M92.0583 69.8789H84.4121V76.4081H92.0583V69.8789Z" fill="#5E6C7A"/>
<path d="M56.4509 80.0723H48.8047V86.6015H56.4509V80.0723Z" fill="#5E6C7A"/>
<path d="M68.32 80.0723H60.6738V86.6015H68.32V80.0723Z" fill="#5E6C7A"/>
<path d="M80.1892 80.0723H72.543V86.6015H80.1892V80.0723Z" fill="#5E6C7A"/>
<path d="M56.4509 90.2656H48.8047V96.7948H56.4509V90.2656Z" fill="#5E6C7A"/>
<path d="M68.32 90.2656H60.6738V96.7948H68.32V90.2656Z" fill="#5E6C7A"/>
<path d="M80.1892 90.2656H72.543V96.7948H80.1892V90.2656Z" fill="#5E6C7A"/>
<path d="M56.4509 100.46H48.8047V106.989H56.4509V100.46Z" fill="#5E6C7A"/>
<path d="M68.32 100.46H60.6738V106.989H68.32V100.46Z" fill="#5E6C7A"/>
<path d="M80.1892 100.46H72.543V106.989H80.1892V100.46Z" fill="#5E6C7A"/>
<g opacity="0.3">
<path opacity="0.3" d="M52.0296 71.7109H53.226C54.0813 71.7109 54.9015 72.0507 55.5063 72.6555C56.1111 73.2603 56.4509 74.0806 56.4509 74.9359V75.0152C56.4509 75.4387 56.3675 75.858 56.2054 76.2493C56.0434 76.6406 55.8058 76.9961 55.5063 77.2956C55.2069 77.595 54.8514 77.8326 54.4601 77.9946C54.0688 78.1567 53.6495 78.2401 53.226 78.2401H52.0296C51.1743 78.2401 50.3541 77.9004 49.7493 77.2956C49.1445 76.6908 48.8047 75.8705 48.8047 75.0152V74.9359C48.8047 74.0806 49.1445 73.2603 49.7492 72.6555C50.354 72.0507 51.1743 71.7109 52.0296 71.7109Z" fill="#371A45"/>
<path opacity="0.3" d="M63.8988 71.7109H65.0951C65.9504 71.7109 66.7707 72.0507 67.3754 72.6555C67.9802 73.2603 68.32 74.0806 68.32 74.9359V75.0152C68.32 75.8705 67.9802 76.6908 67.3754 77.2956C66.7706 77.9004 65.9504 78.2401 65.0951 78.2401H63.8988C63.0435 78.2401 62.2232 77.9004 61.6184 77.2956C61.0136 76.6908 60.6738 75.8705 60.6738 75.0152V74.9359C60.6738 74.0806 61.0136 73.2603 61.6184 72.6555C62.2232 72.0507 63.0435 71.7109 63.8988 71.7109V71.7109Z" fill="#371A45"/>
<path opacity="0.3" d="M76.9642 71.7109H75.7679C73.9868 71.7109 72.543 73.1548 72.543 74.9359V75.0152C72.543 76.7963 73.9868 78.2401 75.7679 78.2401H76.9642C78.7453 78.2401 80.1892 76.7963 80.1892 75.0152V74.9359C80.1892 73.1548 78.7453 71.7109 76.9642 71.7109Z" fill="#371A45"/>
<path opacity="0.3" d="M88.8334 71.7109H87.637C85.856 71.7109 84.4121 73.1548 84.4121 74.9359V75.0152C84.4121 76.7963 85.856 78.2401 87.637 78.2401H88.8334C90.6145 78.2401 92.0583 76.7963 92.0583 75.0152V74.9359C92.0583 73.1548 90.6145 71.7109 88.8334 71.7109Z" fill="#371A45"/>
<path opacity="0.3" d="M52.0296 81.9053H53.226C54.0813 81.9053 54.9015 82.245 55.5063 82.8498C56.1111 83.4546 56.4509 84.2749 56.4509 85.1302V85.2095C56.4509 85.633 56.3675 86.0524 56.2054 86.4437C56.0434 86.8349 55.8058 87.1904 55.5063 87.4899C55.2069 87.7894 54.8514 88.0269 54.4601 88.189C54.0688 88.351 53.6495 88.4345 53.226 88.4345H52.0296C51.1743 88.4345 50.3541 88.0947 49.7493 87.4899C49.1445 86.8851 48.8047 86.0648 48.8047 85.2095V85.1302C48.8047 84.2749 49.1445 83.4546 49.7492 82.8498C50.354 82.245 51.1743 81.9053 52.0296 81.9053Z" fill="#371A45"/>
<path opacity="0.3" d="M63.8988 81.9053H65.0951C65.9504 81.9053 66.7707 82.2451 67.3754 82.8499C67.9802 83.4546 68.32 84.2749 68.32 85.1302V85.2095C68.32 86.0648 67.9802 86.8851 67.3754 87.4899C66.7706 88.0947 65.9504 88.4345 65.0951 88.4345H63.8988C63.0435 88.4345 62.2232 88.0947 61.6184 87.4899C61.0136 86.8851 60.6738 86.0648 60.6738 85.2095V85.1302C60.6738 84.2749 61.0136 83.4546 61.6184 82.8498C62.2232 82.2451 63.0435 81.9053 63.8988 81.9053V81.9053Z" fill="#371A45"/>
<path opacity="0.3" d="M76.9642 81.9053H75.7679C73.9868 81.9053 72.543 83.3491 72.543 85.1302V85.2095C72.543 86.9906 73.9868 88.4345 75.7679 88.4345H76.9642C78.7453 88.4345 80.1892 86.9906 80.1892 85.2095V85.1302C80.1892 83.3491 78.7453 81.9053 76.9642 81.9053Z" fill="#371A45"/>
<path opacity="0.3" d="M52.0296 92.0986H53.226C54.0813 92.0986 54.9015 92.4384 55.5063 93.0432C56.1111 93.648 56.4509 94.4683 56.4509 95.3236V95.4029C56.4509 95.8264 56.3675 96.2457 56.2054 96.637C56.0434 97.0283 55.8058 97.3838 55.5063 97.6833C55.2069 97.9827 54.8514 98.2203 54.4601 98.3823C54.0688 98.5444 53.6495 98.6278 53.226 98.6278H52.0296C51.6061 98.6278 51.1868 98.5444 50.7955 98.3823C50.4042 98.2203 50.0487 97.9827 49.7493 97.6833C49.4498 97.3838 49.2122 97.0283 49.0502 96.637C48.8881 96.2457 48.8047 95.8264 48.8047 95.4029V95.3236C48.8047 94.4683 49.1445 93.648 49.7492 93.0432C50.354 92.4384 51.1743 92.0986 52.0296 92.0986Z" fill="#371A45"/>
<path opacity="0.3" d="M63.8988 92.0986H65.0951C65.9504 92.0986 66.7707 92.4384 67.3754 93.0432C67.9802 93.648 68.32 94.4683 68.32 95.3236V95.4029C68.32 96.2582 67.9802 97.0785 67.3754 97.6833C66.7706 98.288 65.9504 98.6278 65.0951 98.6278H63.8988C63.0435 98.6278 62.2232 98.288 61.6184 97.6833C61.0136 97.0785 60.6738 96.2582 60.6738 95.4029V95.3236C60.6738 94.4683 61.0136 93.648 61.6184 93.0432C62.2232 92.4384 63.0435 92.0986 63.8988 92.0986V92.0986Z" fill="#371A45"/>
<path opacity="0.3" d="M76.9642 92.0986H75.7679C73.9868 92.0986 72.543 93.5425 72.543 95.3236V95.4029C72.543 97.184 73.9868 98.6278 75.7679 98.6278H76.9642C78.7453 98.6278 80.1892 97.184 80.1892 95.4029V95.3236C80.1892 93.5425 78.7453 92.0986 76.9642 92.0986Z" fill="#371A45"/>
<path opacity="0.3" d="M52.0296 102.293H53.226C54.0813 102.293 54.9015 102.633 55.5063 103.238C56.1111 103.842 56.4509 104.663 56.4509 105.518V105.597C56.4509 106.453 56.1111 107.273 55.5063 107.878C54.9015 108.482 54.0813 108.822 53.226 108.822H52.0296C51.1743 108.822 50.3541 108.482 49.7493 107.878C49.1445 107.273 48.8047 106.453 48.8047 105.597V105.518C48.8047 104.663 49.1445 103.842 49.7492 103.238C50.354 102.633 51.1743 102.293 52.0296 102.293V102.293Z" fill="#371A45"/>
<path opacity="0.3" d="M63.8988 102.293H65.0951C65.5186 102.293 65.938 102.376 66.3292 102.538C66.7205 102.701 67.076 102.938 67.3755 103.238C67.6749 103.537 67.9125 103.893 68.0745 104.284C68.2366 104.675 68.32 105.094 68.32 105.518V105.597C68.32 106.453 67.9802 107.273 67.3754 107.878C66.7706 108.482 65.9504 108.822 65.0951 108.822H63.8988C63.0435 108.822 62.2232 108.482 61.6184 107.878C61.0136 107.273 60.6738 106.453 60.6738 105.597V105.518C60.6738 104.663 61.0136 103.842 61.6184 103.238C62.2232 102.633 63.0435 102.293 63.8988 102.293V102.293Z" fill="#371A45"/>
<path opacity="0.3" d="M76.9642 102.293H75.7679C73.9868 102.293 72.543 103.737 72.543 105.518V105.597C72.543 107.378 73.9868 108.822 75.7679 108.822H76.9642C78.7453 108.822 80.1892 107.378 80.1892 105.597V105.518C80.1892 103.737 78.7453 102.293 76.9642 102.293Z" fill="#371A45"/>
</g>
<path d="M56.4509 69.8789H48.8047V76.4081H56.4509V69.8789Z" fill="#5E6C7A"/>
<path d="M68.32 69.8789H60.6738V76.4081H68.32V69.8789Z" fill="#5E6C7A"/>
<path d="M80.1892 69.8789H72.543V76.4081H80.1892V69.8789Z" fill="#5E6C7A"/>
<path d="M92.0583 69.8789H84.4121V76.4081H92.0583V69.8789Z" fill="#5E6C7A"/>
<path d="M56.4509 80.0723H48.8047V86.6015H56.4509V80.0723Z" fill="#5E6C7A"/>
<path d="M68.32 80.0723H60.6738V86.6015H68.32V80.0723Z" fill="#5E6C7A"/>
<path d="M80.1892 80.0723H72.543V86.6015H80.1892V80.0723Z" fill="#5E6C7A"/>
<path d="M56.4509 90.2656H48.8047V96.7948H56.4509V90.2656Z" fill="#5E6C7A"/>
<path d="M68.32 90.2656H60.6738V96.7948H68.32V90.2656Z" fill="#5E6C7A"/>
<path d="M80.1892 90.2656H72.543V96.7948H80.1892V90.2656Z" fill="#5E6C7A"/>
<path d="M56.4509 100.46H48.8047V106.989H56.4509V100.46Z" fill="#5E6C7A"/>
<path d="M68.32 100.46H60.6738V106.989H68.32V100.46Z" fill="#5E6C7A"/>
<path d="M80.1892 100.46H72.543V106.989H80.1892V100.46Z" fill="#5E6C7A"/>
<path d="M92.0583 100.46H84.4121V106.989H92.0583V100.46Z" fill="#FF5722"/>
<g opacity="0.55">
<path opacity="0.55" d="M56.4497 69.8789H48.8047V71.6742H56.4497V69.8789Z" fill="white"/>
<path opacity="0.55" d="M68.3198 69.8789H60.6748V71.6742H68.3198V69.8789Z" fill="white"/>
<path opacity="0.55" d="M80.19 69.8789H72.542V71.6742H80.19V69.8789Z" fill="white"/>
<path opacity="0.55" d="M92.0571 69.8789H84.4121V71.6742H92.0571V69.8789Z" fill="white"/>
<path opacity="0.55" d="M56.4497 80.0732H48.8047V81.8686H56.4497V80.0732Z" fill="white"/>
<path opacity="0.55" d="M68.3198 80.0732H60.6748V81.8686H68.3198V80.0732Z" fill="white"/>
<path opacity="0.55" d="M80.19 80.0732H72.542V81.8686H80.19V80.0732Z" fill="white"/>
<path opacity="0.55" d="M56.4497 90.2646H48.8047V92.06H56.4497V90.2646Z" fill="white"/>
<path opacity="0.55" d="M68.3198 90.2646H60.6748V92.06H68.3198V90.2646Z" fill="white"/>
<path opacity="0.55" d="M80.19 90.2646H72.542V92.06H80.19V90.2646Z" fill="white"/>
<path opacity="0.55" d="M56.4497 100.459H48.8047V102.254H56.4497V100.459Z" fill="white"/>
<path opacity="0.55" d="M68.3198 100.459H60.6748V102.254H68.3198V100.459Z" fill="white"/>
<path opacity="0.55" d="M80.19 100.459H72.542V102.254H80.19V100.459Z" fill="white"/>
<path opacity="0.55" d="M92.0582 100.459H84.4102V102.254H92.0582V100.459Z" fill="white"/>
</g>
<g opacity="0.3">
<path opacity="0.3" d="M56.4497 74.3135H48.8047V76.408H56.4497V74.3135Z" fill="#371A45"/>
<path opacity="0.3" d="M68.3198 74.3135H60.6748V76.408H68.3198V74.3135Z" fill="#371A45"/>
<path opacity="0.3" d="M80.19 74.3135H72.542V76.408H80.19V74.3135Z" fill="#371A45"/>
<path opacity="0.3" d="M92.0571 74.3135H84.4121V76.408H92.0571V74.3135Z" fill="#371A45"/>
<path opacity="0.3" d="M56.4497 84.5078H48.8047V86.6023H56.4497V84.5078Z" fill="#371A45"/>
<path opacity="0.3" d="M68.3198 84.5078H60.6748V86.6023H68.3198V84.5078Z" fill="#371A45"/>
<path opacity="0.3" d="M80.19 84.5078H72.542V86.6023H80.19V84.5078Z" fill="#371A45"/>
<path opacity="0.3" d="M56.4497 94.6992H48.8047V96.7938H56.4497V94.6992Z" fill="#371A45"/>
<path opacity="0.3" d="M68.3198 94.6992H60.6748V96.7938H68.3198V94.6992Z" fill="#371A45"/>
<path opacity="0.3" d="M80.19 94.6992H72.542V96.7938H80.19V94.6992Z" fill="#371A45"/>
<path opacity="0.3" d="M56.4497 104.894H48.8047V106.988H56.4497V104.894Z" fill="#371A45"/>
<path opacity="0.3" d="M68.3198 104.894H60.6748V106.988H68.3198V104.894Z" fill="#371A45"/>
<path opacity="0.3" d="M80.19 104.894H72.542V106.988H80.19V104.894Z" fill="#371A45"/>
<path opacity="0.3" d="M92.0582 84.5078H84.4102V86.6023H92.0582V84.5078Z" fill="#371A45"/>
<path opacity="0.3" d="M92.0582 94.6992H84.4102V96.7938H92.0582V94.6992Z" fill="#371A45"/>
<path opacity="0.3" d="M92.0582 104.894H84.4102V106.988H92.0582V104.894Z" fill="#371A45"/>
</g>
<path d="M56.4512 77.3051H48.8049C48.5668 77.3051 48.3385 77.2105 48.1702 77.0421C48.0018 76.8738 47.9072 76.6455 47.9072 76.4074V69.8781C47.9072 69.6401 48.0018 69.4118 48.1702 69.2434C48.3385 69.0751 48.5668 68.9805 48.8049 68.9805H56.4512C56.6893 68.9805 56.9176 69.0751 57.0859 69.2434C57.2543 69.4117 57.3488 69.6401 57.3489 69.8781V76.4074C57.3488 76.6455 57.2543 76.8738 57.0859 77.0421C56.9176 77.2105 56.6893 77.3051 56.4512 77.3051ZM49.7026 75.5098H55.5536V70.7758H49.7026V75.5098Z" fill="#371A45"/>
<path d="M68.3201 77.3051H60.674C60.436 77.3051 60.2076 77.2105 60.0393 77.0421C59.871 76.8738 59.7764 76.6455 59.7764 76.4074V69.8781C59.7764 69.6401 59.871 69.4118 60.0393 69.2434C60.2076 69.0751 60.436 68.9805 60.674 68.9805H68.3201C68.5582 68.9805 68.7865 69.0751 68.9549 69.2434C69.1232 69.4117 69.2178 69.6401 69.2178 69.8781V76.4074C69.2178 76.6455 69.1232 76.8738 68.9549 77.0421C68.7865 77.2105 68.5582 77.3051 68.3201 77.3051ZM61.5717 75.5098H67.4225V70.7758H61.5717L61.5717 75.5098Z" fill="#371A45"/>
<path d="M80.1893 77.3051H72.5432C72.3051 77.3051 72.0768 77.2105 71.9085 77.0421C71.7401 76.8738 71.6455 76.6455 71.6455 76.4074V69.8781C71.6455 69.6401 71.7401 69.4118 71.9084 69.2434C72.0768 69.0751 72.3051 68.9805 72.5432 68.9805H80.1893C80.4274 68.9805 80.6557 69.0751 80.824 69.2434C80.9924 69.4118 81.0869 69.6401 81.087 69.8781V76.4074C81.0869 76.6455 80.9924 76.8738 80.824 77.0422C80.6557 77.2105 80.4273 77.3051 80.1893 77.3051ZM73.4408 75.5098H79.2916V70.7758H73.4408V75.5098Z" fill="#371A45"/>
<path d="M92.0586 77.3051H84.4123C84.1742 77.3051 83.9459 77.2105 83.7776 77.0421C83.6092 76.8738 83.5147 76.6455 83.5146 76.4074V69.8781C83.5147 69.6401 83.6092 69.4117 83.7776 69.2434C83.9459 69.0751 84.1742 68.9805 84.4123 68.9805H92.0586C92.2967 68.9805 92.525 69.0751 92.6933 69.2434C92.8617 69.4117 92.9562 69.6401 92.9563 69.8781V76.4074C92.9562 76.6455 92.8617 76.8738 92.6933 77.0421C92.525 77.2105 92.2967 77.3051 92.0586 77.3051ZM85.31 75.5098H91.161V70.7758H85.31V75.5098Z" fill="#371A45"/>
<path d="M56.4512 87.4991H48.8049C48.5668 87.4991 48.3385 87.4045 48.1702 87.2362C48.0018 87.0679 47.9072 86.8395 47.9072 86.6015V80.0725C47.9072 79.8344 48.0018 79.6061 48.1702 79.4378C48.3385 79.2694 48.5668 79.1748 48.8049 79.1748H56.4512C56.6893 79.1748 56.9176 79.2694 57.0859 79.4377C57.2543 79.6061 57.3488 79.8344 57.3489 80.0725V86.6015C57.3488 86.8395 57.2543 87.0679 57.0859 87.2362C56.9176 87.4045 56.6893 87.4991 56.4512 87.4991ZM49.7026 85.7038H55.5536V80.9701H49.7026V85.7038Z" fill="#371A45"/>
<path d="M68.3201 87.4991H60.674C60.436 87.4991 60.2076 87.4045 60.0393 87.2362C59.871 87.0679 59.7764 86.8395 59.7764 86.6015V80.0725C59.7764 79.8344 59.871 79.6061 60.0393 79.4378C60.2076 79.2694 60.436 79.1748 60.674 79.1748H68.3201C68.5582 79.1748 68.7865 79.2694 68.9549 79.4377C69.1232 79.6061 69.2178 79.8344 69.2178 80.0725V86.6015C69.2178 86.8395 69.1232 87.0679 68.9549 87.2362C68.7865 87.4045 68.5582 87.4991 68.3201 87.4991ZM61.5717 85.7038H67.4225V80.9701H61.5717L61.5717 85.7038Z" fill="#371A45"/>
<path d="M80.1893 87.4991H72.5432C72.3051 87.4991 72.0768 87.4045 71.9084 87.2362C71.7401 87.0679 71.6455 86.8395 71.6455 86.6015V80.0725C71.6455 79.8344 71.7401 79.6061 71.9085 79.4378C72.0768 79.2694 72.3051 79.1748 72.5432 79.1748H80.1893C80.4274 79.1748 80.6557 79.2694 80.824 79.4378C80.9924 79.6061 81.0869 79.8344 81.087 80.0725V86.6015C81.0869 86.8395 80.9924 87.0679 80.824 87.2362C80.6557 87.4045 80.4273 87.4991 80.1893 87.4991ZM73.4408 85.7038H79.2916V80.9701H73.4408V85.7038Z" fill="#371A45"/>
<path d="M56.4509 97.6778H48.8046C48.5705 97.6777 48.3459 97.5847 48.1804 97.4192C48.0149 97.2536 47.9219 97.0291 47.9219 96.7949V90.2657C47.9219 90.0315 48.0149 89.807 48.1804 89.6414C48.3459 89.4759 48.5705 89.3828 48.8046 89.3828H56.4509C56.685 89.3828 56.9095 89.4759 57.0751 89.6414C57.2406 89.807 57.3336 90.0315 57.3336 90.2657V96.7949C57.3336 97.0291 57.2406 97.2536 57.0751 97.4192C56.9095 97.5847 56.685 97.6777 56.4509 97.6778ZM49.6873 95.9121H55.5682V91.1485H49.6873V95.9121Z" fill="#371A45"/>
<path d="M68.3198 97.6778H60.6737C60.4396 97.6777 60.2151 97.5847 60.0495 97.4192C59.884 97.2536 59.791 97.0291 59.791 96.7949V90.2657C59.791 90.0315 59.884 89.807 60.0495 89.6414C60.2151 89.4759 60.4396 89.3828 60.6737 89.3828H68.3198C68.5539 89.3828 68.7785 89.4759 68.944 89.6414C69.1095 89.807 69.2025 90.0315 69.2025 90.2657V96.7949C69.2025 97.0291 69.1095 97.2536 68.944 97.4192C68.7785 97.5847 68.5539 97.6777 68.3198 97.6778ZM61.5564 95.9121H67.4371V91.1485H61.5564L61.5564 95.9121Z" fill="#371A45"/>
<path d="M80.1889 97.6778H72.5429C72.3087 97.6777 72.0842 97.5847 71.9187 97.4192C71.7532 97.2536 71.6602 97.0291 71.6602 96.7949V90.2657C71.6602 90.0315 71.7531 89.807 71.9187 89.6414C72.0842 89.4759 72.3087 89.3828 72.5429 89.3828H80.189C80.4231 89.3828 80.6476 89.4759 80.8132 89.6414C80.9787 89.807 81.0717 90.0315 81.0717 90.2657V96.7949C81.0717 97.0291 80.9787 97.2536 80.8131 97.4192C80.6476 97.5847 80.4231 97.6778 80.1889 97.6778ZM73.4255 95.9121H79.3063V91.1485H73.4255V95.9121Z" fill="#371A45"/>
<path d="M56.4509 107.872H48.8046C48.5705 107.872 48.3459 107.779 48.1804 107.613C48.0149 107.448 47.9219 107.223 47.9219 106.989V100.46C47.9219 100.226 48.0149 100.001 48.1804 99.8358C48.3459 99.6702 48.5705 99.5772 48.8046 99.5771H56.4509C56.685 99.5772 56.9095 99.6702 57.0751 99.8358C57.2406 100.001 57.3336 100.226 57.3336 100.46V106.989C57.3336 107.223 57.2406 107.448 57.075 107.613C56.9095 107.779 56.685 107.872 56.4509 107.872ZM49.6873 106.106H55.5682V101.343H49.6873V106.106Z" fill="#371A45"/>
<path d="M68.3198 107.872H60.6737C60.4396 107.872 60.2151 107.779 60.0495 107.613C59.884 107.448 59.791 107.223 59.791 106.989V100.46C59.791 100.226 59.884 100.001 60.0495 99.8358C60.2151 99.6702 60.4396 99.5772 60.6737 99.5771H68.3198C68.5539 99.5772 68.7785 99.6702 68.944 99.8358C69.1095 100.001 69.2025 100.226 69.2025 100.46V106.989C69.2025 107.223 69.1095 107.448 68.944 107.613C68.7784 107.779 68.5539 107.872 68.3198 107.872ZM61.5564 106.106H67.4371V101.343H61.5564L61.5564 106.106Z" fill="#371A45"/>
<path d="M80.1889 107.872H72.5429C72.3087 107.872 72.0842 107.779 71.9187 107.613C71.7531 107.448 71.6602 107.223 71.6602 106.989V100.46C71.6602 100.226 71.7532 100.001 71.9187 99.8358C72.0842 99.6702 72.3087 99.5772 72.5429 99.5771H80.189C80.4231 99.5772 80.6476 99.6702 80.8132 99.8358C80.9787 100.001 81.0717 100.226 81.0717 100.46V106.989C81.0717 107.223 80.9787 107.448 80.8131 107.613C80.6476 107.779 80.4231 107.872 80.1889 107.872ZM73.4255 106.106H79.3063V101.343H73.4255V106.106Z" fill="#371A45"/>
<path d="M92.0583 107.872H84.412C84.1779 107.872 83.9534 107.779 83.7878 107.613C83.6223 107.448 83.5293 107.223 83.5293 106.989V100.46C83.5293 100.226 83.6223 100.001 83.7878 99.8358C83.9534 99.6702 84.1779 99.5772 84.412 99.5771H92.0583C92.2924 99.5772 92.5169 99.6702 92.6824 99.8358C92.848 100.001 92.941 100.226 92.941 100.46V106.989C92.941 107.223 92.848 107.448 92.6824 107.613C92.5169 107.779 92.2924 107.872 92.0583 107.872ZM85.2947 106.106H91.1756V101.343H85.2947V106.106Z" fill="#262F6A"/>
<path opacity="0.3" d="M70.2202 57.7944H59.9932L49.3682 43.6834V30.1074L70.2202 57.7944Z" fill="url(#paint7_linear)"/>
<path opacity="0.3" d="M91.4948 33.4732V47.0552L71.5488 20.5742H81.7788L91.4948 33.4732Z" fill="url(#paint8_linear)"/>
<path opacity="0.3" d="M90.2888 56.6301C89.5348 57.3784 88.5146 57.7971 87.4523 57.7941H76.4051L49.9033 22.6059C49.9602 22.5072 50.02 22.4115 50.0858 22.3187C50.4572 21.7804 50.9538 21.3404 51.5328 21.0365C52.1119 20.7326 52.7562 20.574 53.4101 20.5742H63.1317L90.2888 56.6301Z" fill="url(#paint9_linear)"/>
<path d="M87.4528 58.6911H53.4107C52.101 58.6895 50.8454 58.1686 49.9193 57.2425C48.9932 56.3163 48.4722 55.0607 48.4707 53.751V24.6161C48.4679 23.6108 48.775 22.629 49.3502 21.8045C49.8049 21.1482 50.4117 20.6118 51.1188 20.2411C51.826 19.8704 52.6123 19.6764 53.4107 19.6758H87.4528C88.7626 19.6773 90.0183 20.1983 90.9444 21.1245C91.8705 22.0506 92.3914 23.3064 92.3929 24.6161V53.751C92.3936 54.3999 92.2663 55.0426 92.0183 55.6423C91.7702 56.242 91.4064 56.7868 90.9475 57.2457C90.4887 57.7046 89.9438 58.0684 89.3441 58.3164C88.7444 58.5645 88.1017 58.6918 87.4528 58.6911ZM53.4107 21.4711C52.902 21.4718 52.401 21.5957 51.9506 21.8322C51.5001 22.0687 51.1137 22.4108 50.8243 22.8292C50.4588 23.3533 50.2639 23.9773 50.266 24.6161V53.751C50.2669 54.5847 50.5986 55.3841 51.1881 55.9736C51.7777 56.5632 52.577 56.8948 53.4107 56.8957H87.4528C87.866 56.8965 88.2753 56.8157 88.6571 56.6579C89.039 56.5001 89.386 56.2685 89.6782 55.9763C89.9703 55.6842 90.2019 55.3372 90.3597 54.9553C90.5175 54.5735 90.5983 54.1642 90.5975 53.751V24.6161C90.5967 23.7823 90.2651 22.983 89.6755 22.3934C89.086 21.8038 88.2866 21.4721 87.4528 21.4711L53.4107 21.4711Z" fill="#371A45"/>
<path d="M115.103 51.0021L147.223 50.9359C147.964 50.9343 148.675 51.2272 149.2 51.7502C149.725 52.2731 150.021 52.9831 150.022 53.7242L150.166 123.204C150.167 123.945 149.874 124.656 149.351 125.181C148.828 125.706 148.118 126.002 147.377 126.004L115.257 126.07C114.516 126.071 113.805 125.779 113.28 125.256C112.755 124.733 112.459 124.023 112.458 123.282L112.314 53.8019C112.313 53.0608 112.606 52.3496 113.129 51.8245C113.652 51.2994 114.362 51.0036 115.103 51.0021Z" fill="#1EBC61"/>
<g opacity="0.6">
<path opacity="0.6" d="M148.017 126.291C148.143 125.967 148.207 125.623 148.206 125.275L148.063 55.7953C148.061 55.0543 147.765 54.3444 147.24 53.8215C146.715 53.2987 146.004 53.0057 145.263 53.0069L113.143 53.0731C112.929 53.0733 112.715 53.0993 112.507 53.1504C112.71 52.626 113.066 52.1752 113.529 51.857C113.993 51.5387 114.541 51.3679 115.103 51.367L147.223 51.3008C147.964 51.2995 148.675 51.5925 149.201 52.1153C149.726 52.6382 150.021 53.3481 150.023 54.0891L150.166 123.569C150.168 124.199 149.956 124.81 149.566 125.304C149.176 125.799 148.63 126.146 148.017 126.291Z" fill="#FCE5E5"/>
</g>
<path d="M115.251 127.18C114.217 127.18 113.226 126.77 112.494 126.04C111.762 125.309 111.35 124.319 111.348 123.285L111.205 53.8044C111.203 52.7693 111.612 51.7757 112.343 51.0423C113.073 50.3088 114.065 49.8956 115.1 49.8934L147.222 49.8271H147.23C148.264 49.8272 149.255 50.2374 149.987 50.9676C150.718 51.6978 151.13 52.6884 151.133 53.7221L151.276 123.203C151.277 124.238 150.867 125.23 150.137 125.964C149.407 126.697 148.416 127.11 147.381 127.114L115.259 127.18H115.251ZM113.568 123.28C113.568 123.501 113.612 123.72 113.697 123.924C113.782 124.128 113.907 124.314 114.063 124.47C114.22 124.626 114.406 124.749 114.61 124.834C114.815 124.918 115.034 124.961 115.255 124.96L147.376 124.894C147.823 124.893 148.25 124.714 148.565 124.398C148.88 124.082 149.057 123.654 149.056 123.207L148.913 53.7268C148.912 53.2811 148.734 52.8541 148.418 52.5393C148.103 52.2244 147.675 52.0474 147.23 52.0469H147.226L115.105 52.1131C114.884 52.1136 114.665 52.1575 114.461 52.2425C114.257 52.3275 114.071 52.4519 113.915 52.6085C113.759 52.7651 113.636 52.9509 113.551 53.1553C113.467 53.3597 113.424 53.5787 113.425 53.7998L113.568 123.28Z" fill="#371A45"/>
<path d="M141.74 122.088L120.878 122.131C120.877 121.541 120.76 120.956 120.533 120.411C120.306 119.866 119.974 119.372 119.555 118.955C119.137 118.538 118.641 118.208 118.095 117.984C117.549 117.759 116.964 117.644 116.374 117.645L116.254 59.4199C116.254 59.3631 116.277 59.3086 116.316 59.2679C116.356 59.2272 116.41 59.2034 116.466 59.2014C117.526 59.1459 118.527 58.6988 119.275 57.9469C120.023 57.1951 120.466 56.192 120.516 55.1324C120.518 55.0756 120.541 55.0217 120.582 54.9819C120.623 54.9422 120.677 54.9196 120.734 54.919L141.608 54.876C141.665 54.8764 141.719 54.8987 141.76 54.9383C141.801 54.9779 141.824 55.0317 141.826 55.0885C141.881 56.1479 142.328 57.1491 143.079 57.8979C143.83 58.6466 144.833 59.0896 145.893 59.1408C145.949 59.1425 146.003 59.1661 146.043 59.2066C146.083 59.2472 146.106 59.3016 146.106 59.3584L146.226 117.583C145.034 117.586 143.892 118.062 143.05 118.907C142.209 119.751 141.738 120.896 141.74 122.088Z" fill="#4EEC91"/>
<g opacity="0.6">
<path opacity="0.6" d="M146.226 117.583C145.783 117.583 145.342 117.649 144.918 117.779L144.8 60.8005C144.8 60.7439 144.777 60.6897 144.737 60.6493C144.698 60.6089 144.644 60.5854 144.588 60.5836C143.528 60.533 142.524 60.0901 141.773 59.3411C141.021 58.592 140.575 57.5903 140.52 56.5305C140.518 56.474 140.495 56.4203 140.454 56.3809C140.413 56.3414 140.359 56.3192 140.303 56.3189L120.275 56.3602C120.416 55.9648 120.497 55.5507 120.516 55.1315C120.518 55.0749 120.542 55.0212 120.582 54.9816C120.623 54.942 120.677 54.9195 120.733 54.919L141.609 54.876C141.666 54.8763 141.72 54.8985 141.76 54.938C141.801 54.9774 141.825 55.0311 141.827 55.0876C141.881 56.1474 142.327 57.1491 143.079 57.8982C143.831 58.6472 144.834 59.0901 145.894 59.1407C145.95 59.1424 146.004 59.166 146.044 59.2064C146.083 59.2468 146.106 59.301 146.106 59.3576L146.226 117.583Z" fill="#FCE5E5"/>
</g>
<path d="M120.879 122.86C120.686 122.86 120.501 122.783 120.364 122.647C120.227 122.51 120.15 122.325 120.15 122.132C120.15 121.637 120.052 121.147 119.862 120.691C119.672 120.234 119.393 119.819 119.041 119.471C118.693 119.119 118.278 118.841 117.82 118.652C117.362 118.464 116.871 118.369 116.376 118.374H116.375C116.181 118.374 115.996 118.297 115.86 118.161C115.723 118.024 115.646 117.839 115.645 117.646L115.525 59.4212C115.525 59.1772 115.619 58.9427 115.788 58.7661C115.956 58.5896 116.186 58.4846 116.429 58.4729C117.309 58.4304 118.142 58.0607 118.763 57.4364C119.384 56.812 119.75 55.978 119.788 55.0979C119.799 54.8542 119.903 54.6238 120.079 54.4547C120.254 54.2855 120.489 54.1906 120.732 54.1895L141.607 54.1465C141.851 54.1467 142.086 54.2409 142.262 54.4094C142.439 54.5779 142.544 54.8079 142.555 55.0517C142.597 55.9314 142.966 56.7638 143.59 57.3854C144.214 58.0071 145.048 58.3733 145.927 58.4121C146.171 58.4229 146.401 58.5269 146.57 58.7027C146.739 58.8784 146.834 59.1124 146.836 59.3563L146.956 117.582C146.956 117.775 146.88 117.96 146.743 118.097C146.607 118.234 146.422 118.312 146.228 118.312C145.23 118.315 144.273 118.714 143.569 119.422C142.864 120.13 142.469 121.088 142.47 122.086C142.47 122.182 142.451 122.277 142.415 122.365C142.378 122.454 142.325 122.534 142.257 122.602C142.19 122.67 142.109 122.724 142.021 122.761C141.933 122.797 141.838 122.816 141.742 122.817L120.88 122.86L120.879 122.86ZM117.102 116.964C118.225 117.121 119.267 117.638 120.07 118.438C120.874 119.238 121.395 120.278 121.556 121.4L141.061 121.36C141.219 120.238 141.736 119.197 142.536 118.394C143.336 117.591 144.374 117.069 145.496 116.906L145.379 59.8235C144.312 59.6728 143.323 59.1802 142.56 58.4197C141.796 57.6592 141.3 56.6718 141.146 55.6055L121.2 55.6468C121.049 56.7136 120.558 57.7029 119.798 58.4665C119.038 59.2301 118.051 59.7267 116.985 59.8819L117.102 116.964Z" fill="#371A45"/>
<path d="M131.24 99.851C137.507 99.851 142.587 94.7706 142.587 88.5036C142.587 82.2366 137.507 77.1562 131.24 77.1562C124.973 77.1562 119.893 82.2366 119.893 88.5036C119.893 94.7706 124.973 99.851 131.24 99.851Z" fill="#1EBC61"/>
<path d="M128.916 92.6025C128.127 92.605 127.361 92.3405 126.741 91.8521C126.122 91.3636 125.687 90.6799 125.506 89.9124L123.681 89.9161L123.676 87.5908L125.216 87.5876C125.223 86.4937 125.466 85.4142 125.929 84.4229L128.156 84.9656C127.689 85.894 127.438 86.9159 127.421 87.9549C127.424 89.1935 127.938 89.8445 128.716 89.8429C129.457 89.8414 129.88 89.2749 130.39 87.8415C131.075 85.8604 132.17 84.5671 133.903 84.5636C134.736 84.579 135.537 84.8884 136.164 85.4372C136.791 85.9861 137.204 86.7389 137.329 87.5627L139.16 87.5589L139.164 89.8842L137.462 89.8877C137.403 90.6534 137.215 91.4036 136.907 92.1069L134.729 91.5117C135.104 90.7339 135.296 89.8808 135.29 89.0176C135.287 87.8497 134.757 87.2852 134.137 87.2864C133.377 87.288 133.043 87.9617 132.463 89.5C131.689 91.607 130.594 92.5991 128.916 92.6025Z" fill="#4EEC91"/>
<path d="M131.192 68.1693C132.977 68.1693 134.423 66.7226 134.423 64.9381C134.423 63.1537 132.977 61.707 131.192 61.707C129.408 61.707 127.961 63.1537 127.961 64.9381C127.961 66.7226 129.408 68.1693 131.192 68.1693Z" fill="#1EBC61"/>
<path d="M131.287 114.341C133.071 114.341 134.518 112.895 134.518 111.11C134.518 109.326 133.071 107.879 131.287 107.879C129.502 107.879 128.056 109.326 128.056 111.11C128.056 112.895 129.502 114.341 131.287 114.341Z" fill="#1EBC61"/>
<g opacity="0.3">
<path opacity="0.3" d="M141.305 75.8826L141.306 75.9737C141.308 76.9571 140.919 77.901 140.225 78.5977C139.531 79.2945 138.589 79.6871 137.606 79.6891L131.339 79.7021C130.355 79.7041 129.412 79.3154 128.715 78.6215C128.018 77.9276 127.625 76.9853 127.623 76.002L127.623 75.9108C127.621 74.9274 128.01 73.9835 128.704 73.2868C129.398 72.59 130.34 72.1974 131.323 72.1954L137.59 72.1824C138.573 72.1804 139.517 72.5691 140.214 73.263C140.911 73.9569 141.303 74.8992 141.305 75.8826L141.305 75.8826Z" fill="#FCE5E5"/>
</g>
<g opacity="0.2">
<path opacity="0.2" d="M138.791 124.33L115.888 124.378C115.645 124.378 115.404 124.331 115.179 124.238C114.955 124.146 114.75 124.01 114.578 123.838C114.406 123.666 114.269 123.463 114.175 123.238C114.082 123.014 114.033 122.773 114.033 122.53L113.892 53.9042C113.891 53.5844 114.017 53.2775 114.242 53.0507C114.468 52.8239 114.774 52.6958 115.094 52.6944L115.107 52.6943L124.579 52.6748C124.732 52.674 124.882 52.7123 125.015 52.7858C125.148 52.8594 125.261 52.9659 125.341 53.0951C125.422 53.2244 125.468 53.3721 125.476 53.5242C125.483 53.6764 125.451 53.8279 125.384 53.9643C122.148 60.368 120.625 69.1421 120.729 78.3689L120.73 78.5103C120.96 96.3845 127.291 115.917 139.108 123.175C139.224 123.245 139.315 123.351 139.366 123.477C139.416 123.603 139.424 123.742 139.388 123.873C139.352 124.004 139.274 124.12 139.166 124.203C139.058 124.285 138.926 124.33 138.791 124.33Z" fill="#371A45"/>
</g>
<path d="M31.5575 66.4377C32.1654 69.4675 31.8532 72.6099 30.6611 75.4609C29.4689 78.3119 27.4513 80.7411 24.8675 82.4363C22.2838 84.1315 19.252 85.0152 16.1621 84.9737C13.0722 84.9322 10.0653 83.9674 7.528 82.2034C6.83829 81.7259 6.18923 81.1922 5.58745 80.6077C3.41012 78.5084 1.89997 75.8137 1.24582 72.8607C1.22015 72.745 1.19497 72.6317 1.17173 72.5155C0.578637 69.5537 0.864216 66.4832 1.99333 63.6816C3.12245 60.88 5.04586 58.4695 7.52696 56.7467C10.0081 55.0239 12.9386 54.0639 15.9582 53.9848C18.9777 53.9057 21.9545 54.7109 24.5224 56.3015C25.2353 56.7451 25.9118 57.2445 26.5457 57.7951C29.1267 60.0419 30.8894 63.0816 31.5575 66.4377Z" fill="#E8EEFC"/>
<path d="M19.4212 84.7613C17.0261 85.2476 14.5498 85.1578 12.1962 84.4994C10.509 84.0298 8.91277 83.2796 7.47445 82.2804C4.2638 80.0506 2.00803 76.696 1.15421 72.8814C1.12747 72.76 1.10267 72.6485 1.07983 72.5343C0.483134 69.5547 0.770397 66.4657 1.90628 63.6472C3.04216 60.8288 4.97712 58.4038 7.47313 56.6706C9.96914 54.9374 12.9173 53.9717 15.955 53.8921C18.9927 53.8125 21.9874 54.6226 24.5708 56.2227C25.2878 56.669 25.9684 57.1713 26.6062 57.725C29.2029 59.9854 30.9762 63.0434 31.6484 66.4198C32.4544 70.473 31.6196 74.6803 29.3274 78.1188C27.0351 81.5573 23.4725 83.9462 19.4212 84.7613ZM13.3428 54.373C9.33966 55.1787 5.81959 57.5395 3.55487 60.9374C1.29016 64.3353 0.46575 68.4928 1.26252 72.4977C1.28513 72.6107 1.30963 72.7209 1.33438 72.8335C1.98433 75.7712 3.48598 78.452 5.65151 80.5408C6.2497 81.1218 6.89483 81.6523 7.58034 82.1271C9.00149 83.1145 10.5787 83.8557 12.2458 84.3197C14.5713 84.9704 17.0181 85.0591 19.3846 84.5785C21.7751 84.0992 24.0177 83.0594 25.9281 81.5447C27.8386 80.03 29.3623 78.0835 30.374 75.8653C31.3858 73.6471 31.8568 71.2204 31.7482 68.7848C31.6396 66.3492 30.9546 63.9741 29.7495 61.8547C28.8956 60.3491 27.7913 59.0002 26.484 57.8657C25.8537 57.3185 25.1811 56.822 24.4725 56.3809C21.1519 54.3232 17.1731 53.6054 13.3428 54.373Z" fill="#371A45"/>
<g opacity="0.55">
<path opacity="0.55" d="M31.5568 66.4384C31.6328 66.8184 31.6938 67.199 31.7418 67.5771C30.6922 63.8104 28.2572 60.5799 24.9253 58.5335C21.5934 56.487 17.611 55.7759 13.7768 56.5429C9.94255 57.3098 6.54006 59.498 4.25171 62.6687C1.96337 65.8393 0.95839 69.7579 1.43835 73.6385C1.33715 73.271 1.24709 72.8963 1.17107 72.5162C0.771987 70.5211 0.769792 68.4668 1.16461 66.4708C1.55942 64.4748 2.34351 62.5761 3.47211 60.8832C5.75142 57.464 9.29561 55.0904 13.325 54.2844C17.3544 53.4784 21.539 54.3061 24.9581 56.5855C28.3772 58.8648 30.7509 62.409 31.5568 66.4384Z" fill="white"/>
</g>
<path d="M31.5573 66.4381C31.973 68.5231 31.9551 70.6713 31.5048 72.7491C31.0545 74.8268 30.1814 76.7897 28.9398 78.5155C27.6983 80.2413 26.1148 81.6932 24.288 82.7807C22.4612 83.8682 20.4301 84.5681 18.3212 84.8369C16.2122 85.1057 14.0705 84.9375 12.0294 84.343C9.9882 83.7484 8.09122 82.7401 6.4565 81.3809C4.82178 80.0216 3.48428 78.3405 2.52725 76.442C1.57021 74.5436 1.01411 72.4685 0.893555 70.346C2.1332 73.8658 4.60147 76.8199 7.84478 78.6656C11.0881 80.5114 14.8886 81.1246 18.5478 80.3927C22.207 79.6607 25.4792 77.6328 27.763 74.6815C30.0468 71.7303 31.1888 68.0539 30.9791 64.3281C31.2212 65.017 31.4144 65.7221 31.5573 66.4381Z" fill="#B2C6E5"/>
<path d="M18.4837 80.07C16.3883 80.4891 14.2158 80.2775 12.2408 79.4619C10.2657 78.6463 8.57687 77.2633 7.38781 75.4879C6.19874 73.7125 5.56285 71.6243 5.56055 69.4875C5.55825 67.3507 6.18965 65.2612 7.37489 63.4832C8.56013 61.7052 10.246 60.3186 12.2193 59.4988C14.1926 58.6789 16.3646 58.4626 18.4609 58.8772C20.5571 59.2918 22.4833 60.3187 23.9959 61.828C25.5085 63.3374 26.5395 65.2613 26.9587 67.3567C27.5174 70.1661 26.9388 73.0824 25.35 75.4658C23.7612 77.8492 21.2918 79.505 18.4837 80.07Z" fill="#D9E3FA"/>
<g opacity="0.55">
<path opacity="0.55" d="M26.9573 67.3586C27.0144 67.6442 27.059 67.9299 27.0928 68.2126C26.3495 65.6003 24.6494 63.3638 22.3311 61.9486C20.0129 60.5335 17.2467 60.0434 14.5834 60.5762C11.9201 61.1089 9.5552 62.6253 7.95969 64.8233C6.36419 67.0213 5.65517 69.7396 5.97385 72.4369C5.89637 72.1629 5.82762 71.8821 5.77048 71.5964C5.49071 70.2047 5.48797 68.7715 5.76242 67.3787C6.03687 65.9859 6.58313 64.6608 7.36997 63.4793C8.15681 62.2977 9.16881 61.2828 10.3481 60.4926C11.5274 59.7024 12.8509 59.1523 14.2429 58.8739C15.6349 58.5955 17.0681 58.5941 18.4607 58.8699C19.8532 59.1457 21.1777 59.6932 22.3585 60.4812C23.5393 61.2692 24.5532 62.2822 25.3423 63.4622C26.1314 64.6423 26.6802 65.9663 26.9573 67.3586H26.9573Z" fill="white"/>
</g>
<path d="M16.3556 79.2815C21.7507 79.2815 26.1243 74.9079 26.1243 69.5128C26.1243 64.1177 21.7507 59.7441 16.3556 59.7441C10.9605 59.7441 6.58691 64.1177 6.58691 69.5128C6.58691 74.9079 10.9605 79.2815 16.3556 79.2815Z" fill="#47A8A5"/>
<path d="M13.0554 75.0122C12.4272 75.0123 11.7989 75.0047 11.1709 75.0166C10.966 75.0205 10.8907 74.974 10.8926 74.7511C10.9034 73.4853 10.9036 72.2194 10.8934 70.9535C10.8921 70.7544 10.9464 70.6938 11.1474 70.6985C11.7087 70.7116 12.2705 70.7084 12.832 70.6998C12.9943 70.6973 13.0446 70.7482 13.0421 70.91C13.0337 71.4619 13.0546 72.0146 13.0321 72.5658C13.0214 72.8301 13.1122 72.8825 13.3546 72.8746C13.8965 72.8569 14.4396 72.8755 14.9819 72.8653C15.1559 72.8621 15.2115 72.9111 15.2081 73.0892C15.1971 73.6505 15.1971 74.212 15.2078 74.7737C15.2112 74.9583 15.1577 75.0193 14.9685 75.0162C14.3309 75.0056 13.6931 75.0122 13.0554 75.0122Z" fill="white"/>
<path d="M21.6789 72.8531C21.6789 73.4911 21.6739 74.1291 21.6821 74.767C21.6845 74.9456 21.6391 75.0174 21.4451 75.0163C20.1597 75.0089 18.8742 75.0088 17.5888 75.016C17.4105 75.017 17.3636 74.9581 17.3663 74.787C17.3756 74.2159 17.3756 73.6446 17.3663 73.0732C17.3637 72.9071 17.4207 72.8639 17.5791 72.8663C18.1312 72.8744 18.6839 72.8585 19.2357 72.8747C19.4656 72.8814 19.5506 72.8287 19.5419 72.5809C19.5224 72.0293 19.5424 71.4765 19.532 70.9244C19.5287 70.749 19.5795 70.6959 19.7565 70.6994C20.3181 70.7102 20.8798 70.7103 21.4417 70.6995C21.6277 70.6959 21.6861 70.7509 21.683 70.9393C21.6722 71.577 21.6789 72.2151 21.6789 72.8531Z" fill="white"/>
<path d="M13.0579 66.3722C12.4198 66.3722 11.7816 66.3674 11.1437 66.3753C10.9697 66.3774 10.8882 66.3442 10.8928 66.1438C10.9055 65.5822 10.9026 65.0201 10.8939 64.4583C10.8913 64.2885 10.9371 64.2266 11.1168 64.2275C12.4025 64.2343 13.6882 64.2345 14.9739 64.2282C15.1379 64.2275 15.211 64.2602 15.2074 64.4457C15.1962 65.0169 15.1963 65.5883 15.2077 66.1598C15.2117 66.3494 15.1336 66.3768 14.9721 66.375C14.3341 66.3681 13.696 66.3722 13.0579 66.3722Z" fill="white"/>
<path d="M19.5234 64.2312C20.1617 64.2312 20.8001 64.2369 21.4383 64.2276C21.6216 64.225 21.6869 64.2776 21.6832 64.4676C21.6722 65.0295 21.6722 65.5916 21.6832 66.1538C21.6867 66.3371 21.6175 66.3759 21.45 66.3752C20.1638 66.3697 18.8777 66.3699 17.5915 66.3758C17.4169 66.3767 17.3632 66.3266 17.3663 66.1508C17.3766 65.5793 17.3755 65.0075 17.3669 64.436C17.3644 64.2712 17.4214 64.2263 17.5799 64.2281C18.2277 64.2354 18.8756 64.2312 19.5234 64.2312Z" fill="white"/>
<g opacity="0.27">
<path opacity="0.27" d="M24.5217 56.302L5.58675 80.6082C3.40942 78.5089 1.89927 75.8142 1.24512 72.8612L15.9515 53.9854C18.9735 53.9017 21.9535 54.7072 24.5217 56.302Z" fill="#FCE5E5"/>
</g>
<g opacity="0.27">
<path opacity="0.27" d="M28.9232 60.396L11.4678 84.0552C10.0441 83.7065 8.70437 83.0769 7.52734 82.2033L26.5451 57.7949C27.8465 58.9268 28.0555 58.8651 28.9232 60.396Z" fill="#FCE5E5"/>
</g>
<path d="M18.6291 80.8012C16.3892 81.2492 14.0668 81.023 11.9555 80.1511C9.84417 79.2792 8.03883 77.8008 6.76774 75.9029C5.49665 74.005 4.8169 71.7727 4.81446 69.4885C4.81202 67.2042 5.48699 64.9706 6.75402 63.0699C8.02105 61.1693 9.82323 59.687 11.9327 58.8106C14.0421 57.9342 16.3641 57.703 18.6049 58.1463C20.8457 58.5895 22.9048 59.6873 24.5217 61.3008C26.1387 62.9143 27.2408 64.971 27.6889 67.2109C28.286 70.2141 27.6675 73.3315 25.9691 75.8793C24.2707 78.4271 21.631 80.1972 18.6291 80.8012ZM14.3909 59.6129C12.4402 60.0031 10.6489 60.963 9.24369 62.3712C7.83846 63.7794 6.88238 65.5727 6.49635 67.5243C6.11032 69.4759 6.31168 71.4982 7.07496 73.3353C7.83824 75.1725 9.12916 76.7421 10.7845 77.8456C12.4398 78.9491 14.3852 79.5369 16.3746 79.5348C18.364 79.5327 20.3081 78.9407 21.9611 77.8336C23.614 76.7266 24.9016 75.1543 25.6609 73.3155C26.4203 71.4767 26.6173 69.454 26.2271 67.5032C25.7011 64.8889 24.1595 62.5899 21.9405 61.1107C19.7216 59.6314 17.0065 59.0928 14.3909 59.6129Z" fill="#371A45"/>
<path d="M19.5736 85.5229C17.059 86.0334 14.459 85.939 11.9881 85.2475C10.2171 84.7548 8.54171 83.9675 7.03206 82.9187C3.66115 80.5778 1.29283 77.0558 0.396574 73.0508C0.368254 72.9229 0.342464 72.8063 0.318574 72.6868C-0.307845 69.5588 -0.0062598 66.3159 1.18623 63.357C2.37872 60.3981 4.4101 57.8523 7.03048 56.0328C9.65086 54.2133 12.7459 53.1995 15.935 53.116C19.124 53.0325 22.2679 53.8829 24.98 55.5628C25.7322 56.0311 26.4463 56.5583 27.1154 57.1392C29.8418 59.5124 31.7039 62.7229 32.4099 66.2679C33.2559 70.5229 32.3796 74.9398 29.9732 78.5496C27.5668 82.1594 23.8267 84.6672 19.5736 85.5229ZM13.4952 55.1346C9.69387 55.8998 6.35129 58.1416 4.20076 61.3682C2.05023 64.5948 1.26737 68.5427 2.02394 72.3457C2.0455 72.4535 2.06877 72.5587 2.09271 72.666C2.55249 74.7183 3.44952 76.6472 4.7226 78.3212C5.99568 79.9953 7.61485 81.375 9.46968 82.3664C11.3245 83.3577 13.3713 83.9373 15.4705 84.0657C17.5697 84.194 19.6719 83.8681 21.6337 83.1101C23.5955 82.3521 25.3707 81.1799 26.8382 79.6734C28.3058 78.1669 29.4311 76.3616 30.1375 74.3806C30.8438 72.3997 31.1146 70.2897 30.9313 68.1945C30.7481 66.0994 30.115 64.0685 29.0755 62.2402C28.2647 60.8103 27.216 59.5291 25.9745 58.4517C25.3752 57.9316 24.7358 57.4597 24.0623 57.0402C20.9094 55.0869 17.1318 54.4057 13.4952 55.1346Z" fill="#371A45"/>
<path d="M146.03 144.77C146.558 147.397 146.287 150.121 145.253 152.593C144.22 155.065 142.47 157.171 140.23 158.641C137.99 160.11 135.362 160.876 132.683 160.84C130.004 160.804 127.397 159.968 125.197 158.439C124.599 158.025 124.036 157.562 123.515 157.055C121.627 155.235 120.318 152.899 119.751 150.339C119.728 150.238 119.706 150.14 119.686 150.039C119.172 147.472 119.42 144.809 120.399 142.38C121.378 139.951 123.045 137.862 125.196 136.368C127.347 134.874 129.888 134.042 132.506 133.973C135.124 133.905 137.705 134.603 139.931 135.982C140.549 136.367 141.136 136.8 141.685 137.277C143.923 139.225 145.451 141.86 146.03 144.77Z" fill="#E8EEFC"/>
<path d="M135.509 160.656C133.432 161.077 131.285 160.999 129.245 160.429C127.782 160.022 126.398 159.371 125.151 158.505C122.367 156.572 120.412 153.663 119.671 150.356C119.648 150.251 119.627 150.154 119.607 150.055C119.09 147.472 119.339 144.794 120.323 142.35C121.308 139.906 122.986 137.804 125.15 136.301C127.314 134.799 129.87 133.961 132.503 133.892C135.137 133.823 137.734 134.526 139.973 135.913C140.595 136.3 141.185 136.735 141.738 137.215C143.989 139.175 145.527 141.826 146.11 144.754C146.808 148.268 146.085 151.916 144.097 154.897C142.11 157.878 139.021 159.949 135.509 160.656ZM130.239 134.309C126.768 135.008 123.716 137.055 121.753 140.001C119.789 142.947 119.074 146.551 119.765 150.023C119.785 150.121 119.806 150.217 119.828 150.314C120.391 152.861 121.693 155.186 123.57 156.997C124.089 157.5 124.648 157.96 125.243 158.372C126.475 159.228 127.842 159.871 129.288 160.273C131.304 160.837 133.425 160.914 135.477 160.497C137.55 160.082 139.494 159.18 141.15 157.867C142.806 156.554 144.127 154.866 145.005 152.943C145.882 151.02 146.29 148.916 146.196 146.804C146.102 144.693 145.508 142.633 144.463 140.796C143.723 139.491 142.765 138.321 141.632 137.337C141.086 136.863 140.502 136.433 139.888 136.05C137.009 134.266 133.56 133.644 130.239 134.309L130.239 134.309Z" fill="#371A45"/>
<g opacity="0.55">
<path opacity="0.55" d="M146.031 144.769C146.097 145.098 146.15 145.428 146.191 145.756C145.281 142.491 143.17 139.69 140.281 137.916C137.393 136.141 133.94 135.525 130.616 136.19C127.291 136.855 124.342 138.752 122.358 141.501C120.374 144.25 119.502 147.647 119.918 151.011C119.831 150.693 119.753 150.368 119.687 150.038C119.341 148.309 119.339 146.528 119.681 144.797C120.023 143.067 120.703 141.42 121.682 139.953C122.66 138.485 123.918 137.224 125.384 136.243C126.85 135.261 128.494 134.578 130.224 134.232C131.954 133.886 133.735 133.884 135.465 134.226C137.196 134.568 138.842 135.248 140.31 136.227C141.778 137.205 143.038 138.463 144.02 139.929C145.002 141.395 145.685 143.039 146.031 144.769V144.769Z" fill="white"/>
</g>
<path d="M146.03 144.77C146.391 146.577 146.375 148.44 145.985 150.241C145.594 152.043 144.837 153.744 143.761 155.241C142.685 156.737 141.312 157.996 139.728 158.938C138.144 159.881 136.383 160.488 134.555 160.721C132.726 160.954 130.87 160.808 129.1 160.293C127.33 159.777 125.686 158.903 124.268 157.725C122.851 156.546 121.692 155.089 120.862 153.443C120.032 151.797 119.55 149.998 119.445 148.158C120.52 151.209 122.66 153.771 125.472 155.371C128.284 156.971 131.579 157.503 134.751 156.868C137.924 156.233 140.761 154.475 142.741 151.917C144.721 149.358 145.711 146.171 145.529 142.94C145.739 143.538 145.907 144.149 146.03 144.77Z" fill="#B2C6E5"/>
<path d="M134.695 156.588C132.879 156.952 130.995 156.768 129.283 156.061C127.571 155.354 126.106 154.155 125.075 152.616C124.045 151.076 123.493 149.266 123.491 147.413C123.489 145.561 124.037 143.749 125.064 142.207C126.092 140.666 127.553 139.464 129.264 138.753C130.975 138.042 132.858 137.855 134.676 138.214C136.493 138.574 138.163 139.464 139.475 140.773C140.786 142.081 141.68 143.749 142.043 145.566C142.528 148.002 142.026 150.53 140.649 152.596C139.271 154.663 137.13 156.098 134.695 156.588Z" fill="#D9E3FA"/>
<g opacity="0.55">
<path opacity="0.55" d="M142.043 145.567C142.092 145.815 142.131 146.063 142.16 146.308C141.516 144.043 140.042 142.104 138.032 140.877C136.022 139.65 133.624 139.225 131.315 139.687C129.006 140.149 126.955 141.463 125.572 143.369C124.189 145.275 123.574 147.632 123.85 149.97C123.783 149.733 123.724 149.489 123.674 149.242C123.187 146.806 123.687 144.276 125.065 142.209C126.443 140.142 128.586 138.707 131.021 138.22C133.457 137.733 135.987 138.233 138.054 139.611C140.121 140.989 141.556 143.131 142.043 145.567H142.043Z" fill="white"/>
</g>
<path d="M132.773 155.833C137.456 155.833 141.252 152.037 141.252 147.354C141.252 142.671 137.456 138.875 132.773 138.875C128.09 138.875 124.294 142.671 124.294 147.354C124.294 152.037 128.09 155.833 132.773 155.833Z" fill="#F0B90B"/>
<path d="M136.897 149.43C136.547 149.977 136.077 150.436 135.523 150.773C134.969 151.109 134.345 151.315 133.699 151.374C133.344 151.41 132.987 151.425 132.63 151.418C131.691 151.418 130.752 151.417 129.813 151.42C129.708 151.421 129.679 151.389 129.68 151.287C129.683 150.784 129.679 150.282 129.678 149.779C129.695 149.439 129.695 149.097 129.677 148.756C129.677 148.753 129.676 148.749 129.674 148.746C129.673 148.743 129.67 148.741 129.668 148.739C129.665 148.737 129.662 148.736 129.658 148.735C129.655 148.735 129.651 148.735 129.648 148.736C129.308 148.735 128.967 148.73 128.626 148.734C128.533 148.735 128.504 148.706 128.506 148.614C128.511 148.36 128.51 148.107 128.507 147.854C128.506 147.778 128.53 147.754 128.607 147.754C128.931 147.758 129.255 147.753 129.579 147.758C129.667 147.759 129.692 147.732 129.69 147.646C129.685 147.384 129.686 147.122 129.69 146.861C129.692 146.768 129.669 146.73 129.566 146.733C129.25 146.74 128.934 146.732 128.619 146.737C128.532 146.739 128.505 146.715 128.507 146.627C128.513 146.378 128.513 146.129 128.507 145.879C128.505 145.787 128.53 145.757 128.625 145.759C128.937 145.765 129.249 145.758 129.56 145.764C129.659 145.765 129.686 145.736 129.686 145.637C129.684 144.819 129.69 144.001 129.687 143.183C129.686 143.071 129.717 143.046 129.825 143.047C130.931 143.051 132.036 143.043 133.141 143.051C134.236 143.031 135.301 143.414 136.133 144.126C136.614 144.539 136.984 145.065 137.21 145.657C137.217 145.691 137.237 145.721 137.265 145.74C137.293 145.76 137.327 145.768 137.361 145.764C137.64 145.758 137.918 145.764 138.196 145.76C138.278 145.758 138.303 145.783 138.302 145.865C138.297 146.122 138.296 146.38 138.302 146.637C138.304 146.725 138.269 146.738 138.194 146.737C137.986 146.733 137.778 146.739 137.57 146.734C137.492 146.732 137.467 146.757 137.477 146.833C137.509 147.105 137.508 147.38 137.474 147.653C137.465 147.74 137.498 147.759 137.577 147.757C137.781 147.753 137.984 147.759 138.188 147.754C138.271 147.752 138.304 147.771 138.302 147.862C138.296 148.119 138.297 148.377 138.302 148.635C138.303 148.711 138.279 148.735 138.203 148.734C137.92 148.73 137.638 148.735 137.355 148.73C137.267 148.729 137.212 148.743 137.18 148.839C137.102 149.044 137.007 149.241 136.897 149.43ZM130.644 148.756C130.643 149.32 130.643 149.883 130.639 150.447C130.639 150.513 130.661 150.532 130.725 150.532C131.588 150.528 132.45 150.526 133.313 150.525C133.591 150.516 133.867 150.474 134.135 150.399C134.558 150.295 134.954 150.103 135.298 149.836C135.642 149.57 135.926 149.234 136.132 148.851C136.197 148.732 136.197 148.73 136.068 148.73C134.298 148.73 132.528 148.73 130.758 148.731C130.72 148.731 130.674 148.711 130.644 148.756ZM133.414 145.761C134.299 145.761 135.184 145.761 136.069 145.761C136.204 145.761 136.203 145.759 136.142 145.643C135.962 145.296 135.716 144.986 135.419 144.732C134.771 144.192 133.95 143.904 133.107 143.923C132.326 143.917 131.545 143.924 130.764 143.919C130.655 143.918 130.635 143.955 130.636 144.054C130.64 144.573 130.642 145.092 130.635 145.611C130.634 145.728 130.66 145.765 130.784 145.764C131.66 145.759 132.537 145.761 133.414 145.761ZM133.563 147.756C134.49 147.756 135.417 147.753 136.343 147.759C136.466 147.76 136.499 147.715 136.504 147.607C136.513 147.362 136.516 147.117 136.503 146.872C136.498 146.778 136.475 146.73 136.358 146.732C135.847 146.74 135.335 146.735 134.824 146.735C133.47 146.735 132.115 146.735 130.76 146.733C130.662 146.733 130.634 146.759 130.636 146.857C130.643 147.115 130.644 147.373 130.636 147.63C130.633 147.738 130.671 147.758 130.771 147.758C131.702 147.754 132.632 147.756 133.563 147.756Z" fill="#DEF3FF"/>
<g opacity="0.27">
<path opacity="0.27" d="M139.931 135.981L123.514 157.055C121.626 155.234 120.317 152.898 119.75 150.338L132.5 133.973C135.12 133.9 137.704 134.599 139.931 135.981Z" fill="#FCE5E5"/>
</g>
<g opacity="0.27">
<path opacity="0.27" d="M143.747 139.531L128.614 160.044C127.379 159.742 126.218 159.196 125.197 158.438L141.685 137.276C142.55 137.844 143.259 138.619 143.747 139.531Z" fill="#FCE5E5"/>
</g>
<path d="M134.822 157.223C132.88 157.611 130.866 157.415 129.036 156.659C127.205 155.903 125.64 154.621 124.538 152.976C123.436 151.33 122.847 149.395 122.845 147.415C122.843 145.434 123.428 143.498 124.526 141.85C125.625 140.202 127.187 138.917 129.016 138.157C130.845 137.397 132.858 137.197 134.801 137.581C136.744 137.965 138.529 138.917 139.931 140.316C141.333 141.715 142.288 143.498 142.677 145.44C143.194 148.044 142.658 150.746 141.186 152.955C139.713 155.164 137.424 156.699 134.822 157.223ZM131.147 138.852C129.456 139.191 127.903 140.023 126.685 141.244C125.466 142.465 124.638 144.02 124.303 145.712C123.968 147.404 124.143 149.157 124.805 150.75C125.466 152.342 126.586 153.703 128.021 154.66C129.456 155.617 131.142 156.126 132.867 156.125C134.592 156.123 136.278 155.609 137.711 154.65C139.144 153.69 140.26 152.327 140.918 150.732C141.577 149.138 141.748 147.385 141.409 145.693C140.953 143.427 139.617 141.433 137.693 140.151C135.769 138.869 133.415 138.402 131.147 138.852Z" fill="#371A45"/>
<path d="M135.641 161.316C133.461 161.759 131.207 161.677 129.064 161.077C127.529 160.65 126.076 159.968 124.768 159.058C121.845 157.029 119.792 153.975 119.015 150.503C118.99 150.392 118.968 150.291 118.947 150.187C118.404 147.475 118.665 144.664 119.699 142.099C120.733 139.533 122.494 137.326 124.766 135.749C127.038 134.171 129.722 133.292 132.486 133.22C135.251 133.147 137.977 133.885 140.328 135.341C140.98 135.747 141.6 136.204 142.18 136.708C144.543 138.765 146.158 141.549 146.77 144.622C147.503 148.311 146.744 152.141 144.657 155.27C142.571 158.4 139.328 160.574 135.641 161.316ZM130.371 134.97C127.075 135.633 124.177 137.577 122.313 140.374C120.448 143.172 119.77 146.594 120.426 149.892C120.444 149.985 120.464 150.076 120.485 150.169C120.922 152.126 121.816 153.95 123.095 155.494C124.373 157.038 125.999 158.256 127.84 159.05C129.68 159.844 131.683 160.19 133.683 160.06C135.683 159.93 137.624 159.328 139.346 158.303C141.069 157.277 142.523 155.859 143.591 154.162C144.659 152.466 145.31 150.541 145.49 148.545C145.67 146.549 145.374 144.538 144.627 142.678C143.879 140.818 142.702 139.162 141.19 137.846C140.671 137.395 140.117 136.986 139.533 136.622C136.799 134.928 133.524 134.338 130.371 134.97Z" fill="#371A45"/>
<path d="M147.888 29.3725C148.205 30.9489 148.042 32.5839 147.422 34.0672C146.802 35.5506 145.752 36.8145 144.408 37.6965C143.063 38.5785 141.486 39.0383 139.878 39.0167C138.271 38.9951 136.706 38.4931 135.386 37.5753C135.027 37.3269 134.689 37.0492 134.376 36.7451C133.243 35.6528 132.458 34.2508 132.117 32.7144C132.104 32.6542 132.091 32.5953 132.079 32.5348C131.77 30.9938 131.919 29.3962 132.506 27.9386C133.094 26.4809 134.094 25.2268 135.385 24.3304C136.676 23.434 138.201 22.9345 139.772 22.8934C141.343 22.8522 142.892 23.2712 144.228 24.0987C144.599 24.3296 144.951 24.5894 145.281 24.8758C146.624 26.0449 147.541 27.6264 147.888 29.3725Z" fill="#E8EEFC"/>
<path d="M141.574 38.9056C140.328 39.1586 139.039 39.1119 137.815 38.7693C136.937 38.525 136.106 38.1347 135.358 37.6148C133.688 36.4547 132.514 34.7093 132.07 32.7246C132.056 32.6614 132.043 32.6034 132.031 32.544C131.72 30.9937 131.87 29.3865 132.461 27.9201C133.052 26.4537 134.059 25.192 135.357 24.2902C136.656 23.3885 138.19 22.886 139.77 22.8446C141.351 22.8032 142.909 23.2247 144.253 24.0572C144.626 24.2894 144.98 24.5507 145.312 24.8388C146.663 26.0149 147.586 27.6059 147.936 29.3627C148.355 31.4715 147.921 33.6606 146.728 35.4496C145.535 37.2386 143.682 38.4815 141.574 38.9056ZM138.411 23.0948C136.328 23.514 134.497 24.7423 133.319 26.5102C132.14 28.2781 131.711 30.4412 132.126 32.5249C132.138 32.5837 132.151 32.6411 132.163 32.6996C132.502 34.2281 133.283 35.6229 134.41 36.7097C134.721 37.012 135.056 37.288 135.413 37.535C136.153 38.0488 136.973 38.4344 137.841 38.6758C139.05 39.0144 140.324 39.0605 141.555 38.8105C142.799 38.5611 143.965 38.0201 144.959 37.232C145.953 36.4439 146.746 35.4312 147.272 34.2771C147.799 33.123 148.044 31.8604 147.987 30.5931C147.931 29.3259 147.575 28.0901 146.948 26.9874C146.503 26.2041 145.929 25.5023 145.249 24.912C144.921 24.6273 144.571 24.369 144.202 24.1395C142.474 23.0689 140.404 22.6954 138.411 23.0948H138.411Z" fill="#371A45"/>
<path d="M147.888 29.3722C148.104 30.457 148.095 31.5747 147.86 32.6557C147.626 33.7368 147.172 34.758 146.526 35.6559C145.88 36.5539 145.056 37.3092 144.106 37.8751C143.155 38.4409 142.098 38.805 141.001 38.9449C139.904 39.0847 138.789 38.9972 137.727 38.6879C136.665 38.3785 135.679 37.8539 134.828 37.1467C133.977 36.4395 133.282 35.5649 132.784 34.5771C132.286 33.5894 131.996 32.5098 131.934 31.4054C132.579 33.2366 133.863 34.7735 135.55 35.7338C137.238 36.694 139.215 37.013 141.119 36.6322C143.023 36.2514 144.725 35.1964 145.913 33.6609C147.102 32.1255 147.696 30.2129 147.587 28.2744C147.713 28.6328 147.813 28.9996 147.888 29.3722Z" fill="#B2C6E5"/>
<path d="M141.085 36.4653C139.995 36.6834 138.865 36.5733 137.837 36.1489C136.809 35.7246 135.931 35.005 135.312 34.0813C134.693 33.1575 134.363 32.0711 134.361 30.9593C134.36 29.8475 134.689 28.7604 135.305 27.8353C135.922 26.9102 136.799 26.1888 137.826 25.7622C138.853 25.3357 139.983 25.2231 141.073 25.4389C142.164 25.6546 143.166 26.1889 143.953 26.9742C144.74 27.7595 145.277 28.7605 145.495 29.8507C145.785 31.3124 145.484 32.8297 144.658 34.0698C143.831 35.3099 142.546 36.1714 141.085 36.4653Z" fill="#D9E3FA"/>
<path d="M140.032 36.0003C142.815 36.0003 145.072 33.7441 145.072 30.9611C145.072 28.178 142.815 25.9219 140.032 25.9219C137.249 25.9219 134.993 28.178 134.993 30.9611C134.993 33.7441 137.249 36.0003 140.032 36.0003Z" fill="white"/>
<g opacity="0.27">
<path opacity="0.27" d="M144.228 24.099L134.376 36.7453C133.243 35.6531 132.458 34.2511 132.117 32.7147L139.769 22.8937C141.341 22.8501 142.892 23.2692 144.228 24.099Z" fill="#FCE5E5"/>
</g>
<g opacity="0.27">
<path opacity="0.27" d="M146.518 26.2293L137.436 38.539C136.695 38.3576 135.998 38.03 135.386 37.5755L145.281 24.876C145.8 25.2165 146.225 25.6818 146.518 26.2293Z" fill="#FCE5E5"/>
</g>
<path d="M141.162 36.8456C139.997 37.0787 138.788 36.961 137.69 36.5074C136.591 36.0537 135.652 35.2845 134.991 34.2971C134.33 33.3096 133.976 32.1482 133.975 30.9597C133.973 29.7713 134.325 28.6091 134.984 27.6203C135.643 26.6314 136.581 25.8602 137.678 25.4042C138.776 24.9482 139.984 24.8279 141.15 25.0585C142.315 25.2892 143.387 25.8603 144.228 26.6998C145.069 27.5392 145.643 28.6093 145.876 29.7747C146.187 31.3373 145.865 32.9592 144.981 34.2848C144.097 35.6104 142.724 36.5314 141.162 36.8456ZM138.957 25.8215C137.942 26.0245 137.01 26.524 136.279 27.2567C135.548 27.9894 135.05 28.9224 134.85 29.9378C134.649 30.9532 134.754 32.0054 135.151 32.9612C135.548 33.9171 136.219 34.7337 137.081 35.3079C137.942 35.882 138.954 36.1878 139.989 36.1867C141.024 36.1856 142.036 35.8776 142.896 35.3016C143.756 34.7257 144.426 33.9076 144.821 32.9509C145.216 31.9942 145.318 30.9418 145.115 29.9268C144.842 28.5666 144.04 27.3704 142.885 26.6008C141.731 25.8312 140.318 25.5509 138.957 25.8215Z" fill="#371A45"/>
<path d="M141.653 39.3024C140.344 39.568 138.992 39.5189 137.706 39.1591C136.785 38.9028 135.913 38.4932 135.127 37.9475C133.374 36.7295 132.141 34.8971 131.675 32.8133C131.66 32.7467 131.647 32.6861 131.634 32.6239C131.309 30.9964 131.465 29.3092 132.086 27.7697C132.706 26.2302 133.763 24.9057 135.127 23.959C136.49 23.0123 138.1 22.4848 139.76 22.4414C141.419 22.3979 143.055 22.8404 144.466 23.7145C144.857 23.9581 145.229 24.2324 145.577 24.5346C146.995 25.7693 147.964 27.4398 148.331 29.2842C148.772 31.498 148.316 33.7961 147.064 35.6743C145.812 37.5524 143.866 38.8572 141.653 39.3024ZM138.49 23.4916C136.512 23.8898 134.773 25.0562 133.654 26.7349C132.535 28.4137 132.128 30.4678 132.522 32.4465C132.533 32.5025 132.545 32.5573 132.558 32.6131C132.82 33.787 133.356 34.8821 134.124 35.8085C134.891 36.7349 135.867 37.4663 136.971 37.9426C138.076 38.4189 139.277 38.6266 140.478 38.5486C141.678 38.4706 142.843 38.1092 143.876 37.494C144.91 36.8788 145.783 36.0273 146.424 35.0094C147.065 33.9915 147.455 32.8362 147.563 31.6382C147.671 30.4402 147.494 29.2337 147.045 28.1176C146.597 27.0015 145.89 26.0076 144.983 25.2175C144.671 24.9469 144.339 24.7013 143.988 24.4831C142.348 23.4668 140.382 23.1124 138.49 23.4916H138.49Z" fill="#371A45"/>
<defs>
<linearGradient id="paint0_linear" x1="1704.82" y1="137.735" x2="3056.7" y2="137.735" gradientUnits="userSpaceOnUse">
<stop stop-color="white"/>
<stop offset="1" stop-color="white"/>
</linearGradient>
<linearGradient id="paint1_linear" x1="86.8309" y1="72.8173" x2="57.707" y2="94.9595" gradientUnits="userSpaceOnUse">
<stop stop-color="white"/>
<stop offset="1" stop-color="white"/>
</linearGradient>
<linearGradient id="paint2_linear" x1="53319.5" y1="143997" x2="53601.6" y2="144583" gradientUnits="userSpaceOnUse">
<stop stop-color="white"/>
<stop offset="1" stop-color="white"/>
</linearGradient>
<linearGradient id="paint3_linear" x1="78197.4" y1="362712" x2="79542.8" y2="364230" gradientUnits="userSpaceOnUse">
<stop stop-color="white"/>
<stop offset="1" stop-color="white"/>
</linearGradient>
<linearGradient id="paint4_linear" x1="2654.55" y1="6467.15" x2="6610.04" y2="6467.15" gradientUnits="userSpaceOnUse">
<stop stop-color="white"/>
<stop offset="1" stop-color="white"/>
</linearGradient>
<linearGradient id="paint5_linear" x1="1074.12" y1="3189.24" x2="3275.31" y2="5061.91" gradientUnits="userSpaceOnUse">
<stop stop-color="white"/>
<stop offset="1" stop-color="white"/>
</linearGradient>
<linearGradient id="paint6_linear" x1="931.723" y1="1950.13" x2="1008.48" y2="1950.13" gradientUnits="userSpaceOnUse">
<stop stop-color="white"/>
<stop offset="1" stop-color="white"/>
</linearGradient>
<linearGradient id="paint7_linear" x1="1038.72" y1="756.504" x2="1476.16" y2="1296.44" gradientUnits="userSpaceOnUse">
<stop stop-color="white"/>
<stop offset="1" stop-color="white"/>
</linearGradient>
<linearGradient id="paint8_linear" x1="1573.36" y1="492.159" x2="2037.7" y2="893.576" gradientUnits="userSpaceOnUse">
<stop stop-color="white"/>
<stop offset="1" stop-color="white"/>
</linearGradient>
<linearGradient id="paint9_linear" x1="2201.63" y1="648.24" x2="3195.48" y2="1908.98" gradientUnits="userSpaceOnUse">
<stop stop-color="white"/>
<stop offset="1" stop-color="white"/>
</linearGradient>
</defs>
</svg>
