<svg version="1.2" xmlns="http://www.w3.org/2000/svg" viewBox="0 0 407 299" width="407" height="299"><style>.s0{fill:#030d51}.s1{fill:#2166ec}</style><path class="s0" d="m396.8 346.3h-386.4c-5.5 0-10-4.5-10-10v-357.4c0-5.6 4.5-10 10-10h386.4c5.5 0 10 4.4 10 10v357.4c0 5.5-4.5 10-10 10z" /><path class="s1" d="m114.5 117.9l17.8-35.4l12.1 23.4h-6.8l-5.3-10.4l-11.5 22.4l3.1 5.7h-6.3z" /><path class="s1" d="m132.3 139.8l11.6-22.2h1l3.5 3.6l-16.1 31.6l-12-23.5h6.5z" /><path class="s1" d="m156.2 95.6h10.4l-20.8 22l21.1 22.1h-10.7l-21.5-22.1z" /><path class="s1" d="m156.2 95.6h10.4l-20.8 22l21.1 22.1h-10.7l-21.5-22.1z" /><path fill-rule="evenodd" class="s1" d="m200.1 129.4h-11.5l-1.5 5.4h-10.7l11.3-36.4h13.3l11.3 36.4h-10.6zm-2.6-8.7l-3.1-10.8l-3.2 10.8zm33.7 14.8c-10.8 0-19.5-8.4-19.5-18.9c0-10.6 8.7-18.9 19.5-18.9c10.9 0 19.6 8.3 19.6 18.9c0 10.5-8.7 18.9-19.6 18.9zm0-10.2c5.3 0 8.6-3.6 8.6-8.7c0-5-3.1-8.7-8.6-8.7c-5.4 0-8.5 3.7-8.5 8.7c0 5.1 3.3 8.7 8.5 8.7zm54.7-26.9v36.4h-8.9l-11.7-17.6v17.6h-10.8v-36.4h9l11.6 17.9v-17.9z" /></svg>