<svg xmlns="http://www.w3.org/2000/svg" width="48" height="47" viewBox="0 0 48 47"><g><g><path fill="none" stroke="#885bea" stroke-linecap="round" stroke-linejoin="round" stroke-miterlimit="20" stroke-width="1.13" d="M33.771 46.045v0H14.566a3.747 3.747 0 0 1-3.736-3.736V5.662a3.747 3.747 0 0 1 3.736-3.736h19.205a3.747 3.747 0 0 1 3.736 3.736V42.31a3.747 3.747 0 0 1-3.736 3.736z"/></g><g><path fill="none" stroke="#885bea" stroke-linecap="round" stroke-linejoin="round" stroke-miterlimit="20" stroke-width="1.13" d="M28.993 5.236v0H18.909a3.256 3.256 0 0 1-3.246-3.246v-.068 0h16.576v.068a3.255 3.255 0 0 1-3.246 3.246z"/></g><g><path fill="none" stroke="#885bea" stroke-linecap="round" stroke-linejoin="round" stroke-miterlimit="20" stroke-width="1.13" d="M25.793 41.386a1.716 1.716 0 1 1-3.432 0 1.716 1.716 0 0 1 3.432 0z"/></g><g><path fill="none" stroke="#885bea" stroke-linecap="round" stroke-linejoin="round" stroke-miterlimit="20" stroke-width="1.13" d="M17.049 28.04v0-8.359 0l6.44-3.565v0l7.86 4.064v8.051l-7.016 3.527v0l-7.284-3.719v0z"/></g><g><path fill="none" stroke="#885bea" stroke-linecap="round" stroke-linejoin="round" stroke-miterlimit="20" stroke-width="1.13" d="M17.049 19.72l7.335 4.054"/></g><g><path fill="none" stroke="#885bea" stroke-linecap="round" stroke-linejoin="round" stroke-miterlimit="20" stroke-width="1.13" d="M31.272 20.18l-6.889 3.675"/></g><g><path fill="none" stroke="#885bea" stroke-linecap="round" stroke-linejoin="round" stroke-miterlimit="20" stroke-width="1.13" d="M24.409 31.72v-7.936"/></g><g><path fill="none" stroke="#885bea" stroke-linecap="round" stroke-linejoin="round" stroke-miterlimit="20" stroke-width="1.13" d="M25.806 35.25v0l-1.654.882v0l-1.654-.883v0"/></g><g><path fill="none" stroke="#885bea" stroke-dasharray="3.172 3.172" stroke-linecap="round" stroke-linejoin="round" stroke-miterlimit="20" stroke-width="1.13" d="M19.702 33.752L4.32 25.525"/></g><g><path fill="none" stroke="#885bea" stroke-linecap="round" stroke-linejoin="round" stroke-miterlimit="20" stroke-width="1.13" d="M2.921 24.778v0l-1.652-.884v0l1.647-.895v0"/></g><g><path fill="none" stroke="#885bea" stroke-dasharray="4.43 4.43" stroke-linecap="round" stroke-linejoin="round" stroke-miterlimit="20" stroke-width="1.13" d="M6.808 20.884l13.623-7.403"/></g><g><path fill="none" stroke="#885bea" stroke-linecap="round" stroke-linejoin="round" stroke-miterlimit="20" stroke-width="1.13" d="M22.378 12.423v0l1.647-.895v0l1.649.893v0"/></g><g><path fill="none" stroke="#885bea" stroke-dasharray="3.193 3.193" stroke-linecap="round" stroke-linejoin="round" stroke-miterlimit="20" stroke-width="1.13" d="M28.48 13.941l15.44 8.363"/></g><g><path fill="none" stroke="#885bea" stroke-linecap="round" stroke-linejoin="round" stroke-miterlimit="20" stroke-width="1.13" d="M45.324 23.065v0l1.648.893v0l-1.654.882v0"/></g><g><path fill="none" stroke="#885bea" stroke-dasharray="4.423 4.423" stroke-linecap="round" stroke-linejoin="round" stroke-miterlimit="20" stroke-width="1.13" d="M41.416 26.922l-13.658 7.287"/></g><g><path fill="#885bea" d="M30.352 43.14l-.23-1.58H28.96l-.228 1.58h-1.054l1.202-6.957h1.342l1.203 6.957zM29.1 40.606h.885l-.428-2.932h-.029z"/></g><g><path fill="#885bea" d="M33.124 40.198h-.487v2.942h-1.053v-6.957h1.521c1.133 0 1.75.616 1.75 1.759v.497c0 .736-.259 1.252-.746 1.53l.964 3.17H33.96zm-.487-.974h.428c.507 0 .735-.268.735-.854v-.358c0-.587-.228-.855-.735-.855h-.428z"/></g></g></svg>