<svg xmlns="http://www.w3.org/2000/svg" width="100" height="100" viewBox="0 0 100 100"><g><g><path fill="#123b58" d="M100.012 49.714c0 27.356-22.177 49.533-49.534 49.533S.944 77.069.944 49.712C.944 22.356 23.12.18 50.478.18s49.534 22.177 49.534 49.534z"/></g><g><path fill="#b2a1f1" d="M46.912 3.092h7.01c.121.252.36.16.552.177 3.472.288 6.881.927 10.174 2.053 13.881 4.75 23.538 13.966 28.924 27.607a40.538 40.538 0 0 1 2.735 12.204c-.264-.242-.538-.474-.79-.727-5.332-5.327-10.66-10.658-15.994-15.982-.287-.287-.512-.685-.995-.704l.008.006a.41.41 0 0 0-.19-.368l.011.01-.189-.19.013.01-.24-.193c-3.666-4.317-7.98-7.799-13.19-10.087-4.53-1.99-9.256-3.129-14.24-3.003-1.863-.092-3.708.114-5.534.422-6.803 1.151-12.802 4.001-17.945 8.62-4.052 3.638-7.12 7.977-9.159 13.023-2.333 5.775-3.127 11.756-2.242 17.94.802 5.608 2.848 10.72 6.081 15.368 1.893 2.721 4.21 5.046 6.69 7.222l.19.275-.01-.01c.107.146.261.19.433.191a.122.122 0 0 1 .108.082c-.016.53.405.778.713 1.085 5.323 5.332 10.652 10.657 15.977 15.988.253.252.485.526.727.79-1.977-.1-3.92-.428-5.848-.86C21.774 89.79 7.867 74.833 4.97 55.65c-.149-.987-.084-2.009-.47-2.957v-7.189c.254-.118.164-.357.183-.55.192-1.906.46-3.8.881-5.67C9.817 20.367 24.773 6.46 43.956 3.562c.986-.149 2.008-.084 2.956-.47z"/></g><g><path fill="#bc1fc1" d="M50.51 13.905c4.985-.126 9.71 1.014 14.24 3.004 5.21 2.288 9.525 5.769 13.192 10.087l.239.192-.013-.01c.01.117.056.197.189.19l-.01-.01c-.05.18.032.294.189.368l-.007-.006c.119.205.223.419.359.61 6.768 9.509 8.718 19.94 5.262 31.068-3.417 11-10.766 18.59-21.544 22.748-3.88 1.496-7.915 2.279-12.098 2.149l-.017-21.028c.202-.217.396-.442.606-.652 6.302-6.304 12.6-12.61 18.917-18.898.45-.448.55-.698.034-1.191a176.373 176.373 0 0 1-4.762-4.753c-.41-.422-.64-.422-1.056 0-2.433 2.474-4.893 4.92-7.352 7.367-2.117 2.109-4.246 4.206-6.37 6.309 0-12.515.002-25.03.003-37.544z"/></g><g><path fill="#fe27fc" d="M50.49 63.267l.018 21.027c-3.86.072-7.594-.63-11.24-1.85-3.682-1.234-7.03-3.1-10.144-5.406a.124.124 0 0 0-.11-.082c-.117-.123-.241-.232-.431-.192l.009.011a45.266 45.266 0 0 1-.19-.275c-2.48-2.175-4.796-4.5-6.69-7.222-3.232-4.648-5.278-9.76-6.081-15.367-.885-6.185-.09-12.165 2.243-17.94 2.038-5.047 5.107-9.386 9.159-13.024 5.143-4.618 11.142-7.469 17.945-8.619 1.825-.309 3.67-.515 5.533-.423l-.002 37.544c-1.148 1.175-2.322 2.326-3.43 3.537-.511.557-.8.623-1.381.028-3.39-3.468-6.842-6.875-10.244-10.33-.476-.485-.726-.483-1.192.002a225.108 225.108 0 0 1-4.758 4.767c-.366.358-.466.57-.041.991a4812.067 4812.067 0 0 1 16.465 16.43c.374.374.576.33.92-.02 1.197-1.214 2.426-2.394 3.643-3.587z"/></g><g><path fill="#a874fc" d="M29.124 77.039c3.114 2.305 6.462 4.172 10.144 5.404 3.646 1.22 7.38 1.923 11.24 1.852 4.183.13 8.219-.652 12.098-2.15C73.384 77.99 80.733 70.4 84.15 59.399c3.457-11.128 1.506-21.56-5.262-31.067-.136-.191-.24-.406-.36-.61.484.019.708.417.996.704 5.334 5.324 10.662 10.655 15.993 15.982.253.253.527.485.79.727.657 6.429-.044 12.73-2.241 18.787-5.606 15.452-16.38 25.416-32.245 29.778-4.998 1.374-10.112 1.745-15.28 1.202-.242-.263-.474-.537-.727-.79-5.325-5.33-10.654-10.655-15.977-15.987-.308-.308-.73-.557-.713-1.085z"/></g><g><path fill="#fe9f00" d="M78.536 27.726c-.158-.074-.239-.187-.19-.368a.41.41 0 0 1 .19.368z"/></g><g><path fill="#fe9f00" d="M28.583 76.764c.19-.04.314.07.432.192-.171-.002-.325-.045-.432-.192z"/></g><g><path fill="#fe9f00" d="M78.18 27.188l-.238-.192.239.192z"/></g><g><path fill="#fe9f00" d="M78.357 27.368c-.134.007-.179-.073-.189-.19l.19.19z"/></g><g><path fill="#fe9f00" d="M28.402 76.5z"/></g><g><path fill="#e6e6e5" d="M50.49 63.267c-1.216 1.193-2.445 2.373-3.641 3.586-.345.351-.547.395-.921.02a4812.067 4812.067 0 0 0-16.465-16.429c-.425-.422-.325-.633.04-.99a225.108 225.108 0 0 0 4.759-4.768c.466-.485.716-.487 1.192-.003 3.402 3.456 6.854 6.863 10.244 10.331.58.595.87.53 1.38-.028 1.109-1.21 2.283-2.362 3.43-3.537 2.124-2.103 4.253-4.2 6.37-6.309 2.459-2.447 4.919-4.894 7.353-7.367.415-.422.645-.422 1.055 0a177.844 177.844 0 0 0 4.762 4.753c.517.493.416.743-.034 1.191-6.316 6.288-12.615 12.594-18.917 18.898-.21.21-.404.434-.606.652z"/></g></g></svg>