<svg xmlns="http://www.w3.org/2000/svg" viewBox="0 0 1177.55762 253.12933"><path d="M0,192.28093c10.63105-12.91426,26.46424-17.95869,40.16457-26.153C57.09789,156,74.56669,146.76436,91.80413,137.14318a5.94383,5.94383,0,0,1,1.54059,1.26035c-2.53079,13.19247-1.11008,26.47-.85279,39.72263-.80574,14.41-3.68716,29.58577,13.78993,37.25l-.43041.24427c-4.17636,1.50572-8.24388,3.52208-12.54635,4.43617C59.68913,227.19844,26.86168,229.84967,0,202.01668Z" style="fill:#80e4d8"/><path d="M1177.55762,189.847c-2.82512,1.03029-2.52126,3.88341-3.43894,5.99121-7.4972,17.22048-20.3826,24.20737-38.91675,20.85127-3.48566-.63118-6.86322-1.8568-11.65025-3.1855,0,8.32124-.241,15.86545.08006,23.38578.2357,5.52325-2.31808,6.7228-7.28352,6.78517-5.26521.06615-7.01887-1.78118-6.98792-7.015q.2655-44.90011-.00238-89.80233c-.03356-5.43423,1.77263-7.46609,7.27756-8.70965,30.12161-6.80446,44.12438-.72962,60.92214,27.35973Zm-54.91618-14.85458c0,4.0279.04442,8.05637-.01,12.08355-.09144,6.77874-1.49845,14.25978,7.92516,16.3017,8.78749,1.90409,17.62177,3.40878,24.75269-4.32663,9.92345-10.76464,10.32633-32.70226.72661-43.69759-8.0021-9.16538-18.85766-9.66026-28.99874-6.676-9.05853,2.66574-2.75161,11.82848-4.2831,17.88479C1122.08387,169.21286,1122.64137,172.17288,1122.64144,174.99242Z" style="fill:#fff"/><path d="M170.66052,253.12933q-32.409-18.756-64.81356-37.51045c.00449.00156.4349-.24271.42281-.246q71.20038-.02548,142.42493-.04431l.28187.6246q-31.844,18.588-63.688,37.17617Z" style="fill:#515c5a"/><path d="M141.40443,0c12.18519,6.30453,23.90182,13.11976,27.69413,27.722a70.78751,70.78751,0,0,1,1.8156,10.59412c.43045,4.2248-1.63039,7.2833-5.886,7.54021-3.5849.21641-6.04666-2.233-6.4393-5.90054-1.79247-16.74286-10.89265-25.95-27.73138-28.03864C122.333,10.85979,125.67444,4.83434,126.77639,0Z" style="fill:#515c5a"/><path d="M229.1727,0c2.95542,7.68523,1.36945,11.44756-7.87743,12.58961-13.83348,1.70853-21.23188,9.76189-23.927,23.56128-.96846,4.95866-1.60731,10.73368-8.22048,9.42685-6.56774-1.29783-5.07121-7.28828-4.33322-12.0501C187.52647,16.02967,199.92151,7.013,214.54466,0Z" style="fill:#515c5a"/><path d="M91.80413,137.14318c1.40476-9.52964-2.76068-20.01922,4.81086-28.47556,2.88255-3.21939,5.59134-6.78759,10.37024-7.40958q70.52225.01173,141.04191.01979c17.75353,6.73588,15.13705,22.06735,15.3317,36.2146a1.73374,1.73374,0,0,0-.83668.97122l-169.17471-.05933A5.98883,5.98883,0,0,0,91.80413,137.14318Z" style="fill:#fbda10"/><path d="M248.97659,215.95316l-.28176-.62553c17.55413-7.48761,14.94447-22.70931,14.308-37.17408.40972-13.23685,1.21476-26.47847-.48065-39.6899a1.73374,1.73374,0,0,1,.83668-.97122c27.50872,15.4821,55.22155,30.61965,82.43489,46.60468,12.57232,7.385,11.56246,20.98226-2.39151,28.87341C312.65713,230.35734,280.92618,229.83853,248.97659,215.95316Z" style="fill:#80e4d8"/><path d="M940.85119,197.95446c5.54883-19.638,10.17664-35.86854,14.70214-52.12748,1.27913-4.59565,1.29505-9.49747,8.52075-9.36194,7.06225.13246,5.8896,5.17064,7.004,9.12483,4.63756,16.45544,8.32083,33.21417,15.54022,51.01136,7.03144-16.71158,10.638-32.39656,14.99663-47.83266.65705-2.32682,1.17563-4.70167,1.60418-7.082,1.18047-6.55675,6.288-5.25432,10.47314-4.93518,7.12541.54334,2.94052,5.72818,2.33117,8.13291-5.45286,21.5195-11.44877,42.8959-19.84252,63.51219-1.8198,4.46963-2.92623,8.6316-9.729,8.54173-6.61427-.08739-8.01005-3.60446-9.62175-8.48307-4.644-14.05678-9.565-28.02228-14.68571-42.92131-4.89186,15.32712-9.38039,29.49448-13.94734,43.63661-1.37659,4.26289-2.78174,7.80223-8.86315,7.71919-5.90663-.08068-7.41893-3.29-9.16871-7.64839-8.2913-20.653-14.71011-41.90512-20.25047-63.41345-.73561-2.85581-4.9423-8.32916,2.75482-9.159,5.52517-.59563,9.94837-.34038,11.41871,7.07985A271.90949,271.90949,0,0,0,940.85119,197.95446Z" style="fill:#fff"/><path d="M495.48016,163.7928c0,14.98628-.11283,29.97389.06421,44.95807.05814,4.92137.07113,8.34965-6.76393,8.23151-6.12713-.10592-7.53225-2.272-7.37645-7.82319.31811-11.33193-.1677-22.68723.18932-34.01685.18266-5.79545-1.75258-8.33124-7.60795-7.52187a20.34462,20.34462,0,0,1-2.43213.014c-12.92859.20849-29.77791-4.42782-37.70809,1.964-8.30841,6.69666-1.80023,24.23652-2.62989,37.0045-.32183,4.95307,1.71125,10.2906-7.19844,10.45591-8.41994.15624-7.71364-4.18054-7.692-9.69354q.17142-43.743.003-87.48708c-.01849-5.171-.47851-9.32142,7.19922-9.153,6.8547.15035,8.01593,2.89864,7.76527,8.78533-.396,9.299.2728,18.64745-.23083,27.936-.3556,6.55852,2.08843,8.29155,8.34527,8.03749,11.34119-.46049,22.72965-.48331,34.06876.00161,6.72085.2874,8.32823-2.50135,8.11217-8.54395-.34716-9.70836.15624-19.44678-.18169-29.15579-.18757-5.38849,1.87445-6.9533,7.05473-6.95612,5.072-.00274,7.24326,1.25829,7.12943,6.79142C495.27343,133.00594,495.4802,148.40149,495.48016,163.7928Z" style="fill:#fff"/><path d="M248.02714,101.27783q-70.52031-.009-141.04191-.01979c19.71428-13.45575,41.00612-24.21386,61.77574-35.8555,6.50884-3.64828,13.63427-2.87671,19.82614.69417C208.53085,77.59842,228.23228,89.51885,248.02714,101.27783Z" style="fill:#515c5a"/><path d="M730.18615,180.31567c-4.86017.00165-9.72041-.01261-14.5805.00447-12.17085.04278-13.76193,2.828-7.95106,13.88743,5.314,10.1138,15.18041,12.99,33.31547,10.50584,3.15785-.43258,8.52023-6.09442,9.99585,2.70672,1.15189,6.87-2.91136,8.21308-7.94339,9.48626-19.30139,4.88354-37.88532-.75119-46.8356-14.30689-10.01526-15.16871-8.96076-40.52016,1.23381-55.12251,8.28884-11.87267,29.206-14.42642,42.79846-8.95172,11.08525,4.46486,18.92693,24.13769,16.57165,37.7521-.72289,4.17851-3.1074,4.01677-5.949,4.02788C743.95671,180.33216,737.07139,180.314,730.18615,180.31567Zm-7.84146-11.423c2.0128,0,4.14553.43149,6.01444-.08624,4.43682-1.22919,11.81877,3.87338,12.94827-3.937,1.02206-7.06795-2.87527-13.27285-9.81512-16.49745-7.45524-3.464-14.35224-1.64131-20.0565,3.69832-4.13921,3.87465-8.23854,9.25936-6.017,14.76144,1.808,4.47782,7.94777,1.34563,12.10194,2.01965A30.47986,30.47986,0,0,0,722.34469,168.89265Z" style="fill:#fff"/><path d="M516.55206,175.266c-.45467-6.76662,1.29627-14.03734,4.64912-21.21006,6.80552-14.559,19.63594-18.82488,33.79689-18.71457,14.14332.11016,24.92819,7.821,29.78353,21.25287,6.2,17.15177,6.2808,34.24928-5.70586,49.47891-8.57261,10.89186-24.87972,14.95389-38.70378,10.14734C525.43935,211.02854,516.54365,196.13818,516.55206,175.266Zm14.77543,1.35271A46.2206,46.2206,0,0,0,534.39,194.36186c3.15122,8.50359,9.79659,10.63122,17.5725,11.00629,7.93279.3826,14.37981-2.7802,17.90743-10.06184,5.97992-12.34348,6.50014-25.126-.1741-37.21808-7.88227-14.28067-26.03667-14.07149-34.50865-.13454C531.66572,163.74658,531.14342,170.10649,531.32749,176.61875Z" style="fill:#fff"/><path d="M1085.75572,185.42481a15.747,15.747,0,0,1-.01652,2.423c-1.44839,9.188,4.98062,23.6613-3.378,26.65426-13.40979,4.80162-29.522,5.85018-43.92156-.26944-10.98785-4.6697-13.01032-14.69828-12.10842-25.4333.894-10.64314,7.75232-16.33412,17.22044-19.66818,5.478-1.929,11.3234-.83833,16.75252-1.99978,4.15774-.88944,11.20547,5.49164,12.379-3.616.95889-7.44087-2.05075-13.7355-9.39-16.641-6.22151-2.463-12.91583-1.37826-19.192-.05214-4.929,1.04149-8.09732,2.24089-8.91329-4.8-.84253-7.27092,4.24746-7.06764,8.17567-7.40517,31.22857-2.68338,42.38732,7.61773,42.39208,38.68Q1085.75661,179.36088,1085.75572,185.42481Zm-13.24045,9.15244c2.18526-10.16908-.89506-15.0823-12.15559-14.44139-13.582.77306-20.10545,4.62855-19.982,13.84265.1035,7.72692,9.33352,16.13753,18.08693,14.83253C1066.03061,207.68305,1076.57376,207.59884,1072.51527,194.57725Z" style="fill:#fff"/><path d="M803.09736,199.15633a246.38433,246.38433,0,0,0,13.75219-49.21015c1.7288-9.70931,5.67591-14.39875,16.33029-10.10573-6.461,27.46324-14.64843,54.44966-26.08091,80.33968-8.21429,18.60208-18.79233,25.18286-35.4491,23.31507-2.74149-.30742-6.38146.14287-7.18166-3.1959-.49671-2.07244.40415-5.03843,1.713-6.86331,2.54492-3.5481,4.191.18991,6.56033,1.0027,7.9826,2.73831,13.483-3.27083,18.65148-7.78644,4.6174-4.03412,6.8351-9.15528,3.18062-16.03138a305.67926,305.67926,0,0,1-25.183-64.228c-.86254-3.20647-5.24765-8.03793,1.5649-9.49943,4.96307-1.06473,10.22925-1.51341,11.89712,6.29a227.33231,227.33231,0,0,0,14.42262,43.707C798.85786,190.49938,800.64946,194.01708,803.09736,199.15633Z" style="fill:#fff"/><path d="M621.30022,183.19044c-.00015,8.49235-.155,16.98862.05889,25.47559.12529,4.97106-.19233,8.18259-6.83636,8.359-7.33917.19489-7.50453-3.4-7.44977-8.86766.2023-20.21786.02258-40.43932.1366-60.65858.01864-3.30444-1.55377-8.929,3.68878-8.5903,11.70237.756,23.06454-4.341,34.36949-2.51522,16.91055,2.731,22.68259,13.88424,23.96015,29.14014,1.21126,14.46225.321,29.09132.65042,43.64036.11875,5.24483-1.803,7.0883-7.05294,7.02867-5.04417-.05727-7.28293-1.44836-7.18315-6.90746.23622-12.93382.61419-25.92674-.3517-38.79953-.66545-8.86924-1.19951-19.20379-12.9351-21.72857-17.25384-3.712-21.054-.393-21.05508,17.43886Q621.29994,174.69808,621.30022,183.19044Z" style="fill:#fff"/><path d="M863.92561,218.88792c-1.59444-.24514-6.37723-.9777-11.1589-1.71632-5.12043-.791-9.26329-1.61307-7.42072-8.98277,2.27693-9.10724,8.83108-3.91649,11.16091-2.56834,7.59519,4.395,13.82889,3.91676,21.19068-.44177,9.71379-5.75094,10.53533-13.07622.80057-19.11779-5.10786-3.17-10.82878-5.437-16.43929-7.70067-10.40521-4.19807-17.54759-11.05749-15.7789-22.858,1.57442-10.5043,6.87728-16.42089,19.41939-18.42059,7.685-1.22528,14.79783-.55939,22.12629-.64781,3.48663-.04208,7.61364.93343,6.30416,6.45092-1.02764,4.33-2.33518,7.29256-8.07136,5.57442-6.167-1.84715-12.65713-2.94948-19.08867-.45032-9.07951,3.52819-10.55863,11.76723-2.736,17.58344,3.82977,2.84743,8.43437,4.76019,12.87215,6.67017,17.36932,7.47575,22.9712,15.56921,20.25247,29.70357C895.326,212.53187,884.02957,218.867,863.92561,218.88792Z" style="fill:#fff"/><path d="M262.52216,138.46365c1.69541,13.21143.89037,26.453.48071,39.68975q-85.25542-.01376-170.51094-.02724c-.25729-13.25267-1.678-26.53016.85279-39.72263Q177.93617,138.43437,262.52216,138.46365Z" style="fill:#475459"/><path d="M92.49193,178.12616q85.2555.01356,170.51094.02724c.63643,14.46492,3.24609,29.68662-14.308,37.17423q-71.21871.02187-142.42506.04524C88.80477,207.71193,91.68619,192.53611,92.49193,178.12616Z" style="fill:#fbda10"/></svg>