<svg width="80" height="12" viewBox="0 0 80 12" fill="none" xmlns="http://www.w3.org/2000/svg">
<path d="M7.90003 2.29999C8.10003 2.99999 8.40002 3.29999 9.00002 3.29999C9.50002 3.29999 9.80002 3 10 2.4C10.8 2.2 11.6 1.90002 12.3 1.70002C13.6 1.40002 14.9 2.09999 15.6 3.29999C16.1 4.29999 16.6 5.40001 17.1 6.50001C18 8.60001 16.8 11.1 14.5 11.5C12.3 12 10.5 10.4 10.1 8.60001C10.1 8.40001 10 8.29999 9.70002 8.29999C9.10002 8.29999 8.40002 8.29999 7.80002 8.29999C7.60002 9.39999 7.10002 10.3 6.30002 11C5.00002 12 3.20003 11.9 1.90003 10.8C0.700025 9.79999 0.200025 8.00001 0.900025 6.50001C1.40003 5.30001 2.00002 4.20001 2.60002 3.00001C3.10002 1.90001 4.70003 1.30002 5.90003 1.70002C6.30003 1.80002 6.60002 2.00001 7.00002 2.00001C7.10002 2.10001 7.50003 2.19999 7.90003 2.29999ZM13.6 5.10001C12 5.10001 10.8 6.3 10.8 7.9C10.8 9.4 12 10.7 13.6 10.7C15.2 10.7 16.4 9.5 16.4 7.9C16.4 6.4 15.2 5.10001 13.6 5.10001ZM1.30002 7.9C1.30002 9.4 2.50002 10.7 4.10002 10.7C5.70002 10.7 6.90003 9.4 6.90003 7.9C6.90003 6.4 5.70002 5.10001 4.10002 5.10001C2.60002 5.10001 1.30002 6.4 1.30002 7.9ZM7.90003 6.60001C7.90003 7.20001 8.40003 7.60001 8.90003 7.60001C9.50003 7.60001 9.90003 7.10001 9.90003 6.60001C9.90003 6.00001 9.50003 5.60001 8.90003 5.60001C8.30003 5.50001 7.90003 6.00001 7.90003 6.60001Z" fill="black"/>
<path d="M27.1 5.10001C28.2 5.80001 28.6 6.8 28.3 8C28.1 9.1 27.1 9.89999 25.9 9.89999C24.6 9.89999 23.2 9.89999 21.9 9.89999C21.6 9.89999 21.5 9.8 21.5 9.5C21.5 7.1 21.5 4.70001 21.5 2.20001C21.5 2.00001 21.6 1.79999 21.8 1.79999C23 1.79999 24.2 1.79999 25.4 1.89999C26.8 1.99999 27.6 3.40001 27.2 4.60001C27.2 4.80001 27.1 4.90001 27.1 5.10001ZM23.3 8.10001C24.1 8.10001 25 8.10001 25.8 8.10001C26.3 8.10001 26.5 7.70001 26.5 7.20001C26.5 6.70001 26.2 6.39999 25.8 6.39999C25.1 6.39999 24.3 6.39999 23.5 6.39999C23.4 6.39999 23.3 6.50001 23.3 6.60001C23.3 7.00001 23.3 7.60001 23.3 8.10001ZM23.4 4.70001C24 4.70001 24.6 4.70001 25.1 4.70001C25.2 4.70001 25.3 4.60001 25.4 4.60001C25.7 4.20001 25.5 3.70001 25 3.60001C24.5 3.60001 24 3.60001 23.4 3.60001C23.4 4.00001 23.4 4.30001 23.4 4.70001Z" fill="black"/>
<path d="M51.9 7.29999C52 7.29999 52.2 7.29999 52.3 7.29999C52.6 7.29999 52.7 7.40002 52.8 7.70002C52.9 7.90002 53.1 8.10001 53.2 8.10001C53.6 8.20001 54 8.20001 54.4 8.10001C54.5 8.10001 54.8 7.80002 54.8 7.70002C54.8 7.50002 54.7 7.20001 54.5 7.10001C54.2 6.90001 53.8 6.80001 53.5 6.60001C53.1 6.40001 52.6 6.30001 52.2 6.00001C51.3 5.50001 50.9 4.70002 51 3.70002C51.1 2.70002 51.7 2.09999 52.6 1.79999C53.8 1.39999 55.3 1.70002 55.9 2.70002C56.1 3.10002 56.2 3.50001 56.4 4.00001C56.5 4.20001 56.3 4.4 56.1 4.4C55.7 4.4 55.3 4.4 55 4.4C54.9 4.4 54.7 4.30001 54.6 4.10001C54.4 3.50001 53.7 3.30001 53.2 3.60001C52.8 3.80001 52.8 4.30001 53.1 4.60001C53.3 4.80001 53.6 4.90001 53.9 5.00001C54.4 5.20001 54.9 5.40001 55.4 5.60001C56.4 6.10001 56.8 6.9 56.7 7.9C56.6 8.9 56 9.6 55 9.9C54.2 10.1 53.4 10.1 52.7 9.79999C51.7 9.49999 51.2 8.79999 51 7.79999C51 7.39999 51 7.29999 51.4 7.29999C51.5 7.29999 51.7 7.29999 51.9 7.29999Z" fill="black"/>
<path d="M47.1 6.5C47.5 5.8 48 5.2 48.4 4.5C48.5 4.3 48.7 4.20001 49 4.20001C49.4 4.20001 49.7 4.20001 50.1 4.20001C50.2 4.20001 50.4 4.19999 50.4 4.29999C50.4 4.39999 50.4 4.50001 50.3 4.60001C49.8 5.30001 49.3 6.09999 48.8 6.79999C48.7 6.99999 48.7 7.10001 48.8 7.20001C49.3 7.90001 49.8 8.59999 50.3 9.39999C50.4 9.49999 50.4 9.69999 50.4 9.79999C50.4 9.89999 50.2 9.89999 50.1 9.89999C49.8 9.89999 49.6 9.89999 49.3 9.89999C48.8 9.99999 48.6 9.79999 48.3 9.39999C47.9 8.79999 47.5 8.30001 47.2 7.70001C47.2 7.60001 47.1 7.6 47 7.5C47 8.2 47 8.79999 47 9.39999C47 9.89999 47 9.89999 46.5 9.89999C46.3 9.89999 46 9.89999 45.8 9.89999C45.4 9.89999 45.3 9.79999 45.3 9.39999C45.3 7.79999 45.3 6.2 45.3 4.5C45.3 3.8 45.3 2.99999 45.3 2.29999C45.3 1.89999 45.4 1.79999 45.8 1.79999C46.1 1.79999 46.3 1.79999 46.6 1.79999C47 1.79999 47.1 1.89999 47.1 2.29999C47.1 3.59999 47.1 4.90001 47.1 6.10001C47.1 6.30001 47.1 6.3 47.1 6.5C47.1 6.4 47.1 6.5 47.1 6.5Z" fill="black"/>
<path d="M66.7 10C65 10 63.6 8.7 63.6 7C63.6 5.3 64.9 4 66.6 4C68.3 4 69.6 5.3 69.6 7C69.7 8.7 68.4 10 66.7 10ZM68 7C68 6.2 67.5 5.70001 66.7 5.70001C65.9 5.70001 65.4 6.3 65.4 7C65.4 7.8 65.9 8.29999 66.7 8.29999C67.5 8.29999 68 7.8 68 7Z" fill="black"/>
<path d="M34.9 10C33.2 10 31.9 8.7 31.9 7C31.9 5.4 33.2 4 34.8 4C36.6 4 37.9 5.3 37.9 7C38 8.7 36.7 10 34.9 10ZM34.9 8.29999C35.7 8.29999 36.2 7.7 36.2 7C36.2 6.2 35.7 5.70001 34.9 5.70001C34.1 5.70001 33.6 6.2 33.6 7C33.6 7.8 34.2 8.29999 34.9 8.29999Z" fill="black"/>
<path d="M73.8 9.39999C73.2 9.99999 72.6 10.1 71.9 10C71.1 9.8 70.6 9.10001 70.5 8.20001C70.5 7.00001 70.5 5.7 70.5 4.5C70.5 4.3 70.6 4.20001 70.8 4.20001C71.1 4.20001 71.5 4.20001 71.8 4.20001C72.1 4.20001 72.2 4.30001 72.2 4.60001C72.2 5.50001 72.2 6.49999 72.2 7.39999C72.2 7.49999 72.2 7.59999 72.2 7.79999C72.2 8.19999 72.5 8.4 72.8 8.5C73.3 8.5 73.6 8.29999 73.7 7.89999C73.7 7.69999 73.7 7.49999 73.7 7.29999C73.7 6.39999 73.7 5.50001 73.7 4.70001C73.7 4.40001 73.8 4.19999 74.1 4.29999C74.4 4.29999 74.7 4.29999 75 4.29999C75.3 4.29999 75.4 4.40001 75.4 4.70001C75.4 5.80001 75.4 6.9 75.4 8C75.4 8.5 75.4 9.00001 75.4 9.60001C75.4 9.90001 75.3 10.1 75 10C74.7 10 74.4 10 74.2 10C74 9.9 73.8 9.79999 73.8 9.39999Z" fill="black"/>
<path d="M43.6 6.39998C43.4 6.39998 43.2 6.39998 43 6.39998C42.9 6.39998 42.7 6.3 42.6 6.2C42.1 5.7 41.2 5.6 40.7 6.2C40.2 6.7 40.2 7.59999 40.8 8.09999C41.3 8.59999 42.2 8.49999 42.6 7.99999C42.7 7.89999 42.8 7.79997 43 7.79997C43.4 7.79997 43.8 7.79997 44.1 7.79997C44.5 7.79997 44.5 7.89997 44.4 8.29997C44 9.39997 42.9 10.2 41.7 10.2C40.4 10.2 39.3 9.49997 38.8 8.29997C38.3 6.89997 38.8 5.29999 40 4.59999C41.3 3.79999 43 4 43.9 5.2C44.1 5.5 44.3 5.79999 44.4 6.09999C44.5 6.29999 44.4 6.49999 44.2 6.49999C44 6.29999 43.8 6.29998 43.6 6.39998C43.6 6.29998 43.6 6.29998 43.6 6.39998Z" fill="black"/>
<path d="M62.2 6.29997C62.1 6.29997 61.9 6.29997 61.8 6.29997C61.6 6.19997 61.4 6.19999 61.3 5.99999C60.8 5.49999 60 5.49999 59.5 5.99999C59 6.49999 59 7.39998 59.5 7.89998C60 8.39998 60.9 8.39997 61.3 7.79997C61.4 7.69997 61.4 7.59999 61.5 7.59999C62 7.59999 62.5 7.59999 63 7.59999C63 7.59999 63.1 7.89999 63.1 7.99999C62.7 9.09999 61.9 9.69998 60.8 9.89998C59.5 10.1 58.3 9.49998 57.7 8.39998C57.1 7.29998 57.2 5.79998 58.1 4.89998C59.6 3.19998 62.4 3.79997 63.2 5.79997C63.3 6.09997 63.3 6.2 62.9 6.2C62.6 6.3 62.4 6.29997 62.2 6.29997Z" fill="black"/>
<path d="M77.2 5.79999C77 5.79999 76.8 5.79999 76.7 5.79999C76.5 5.79999 76.3 5.69999 76.3 5.39999C76.3 5.09999 76.3 4.8 76.3 4.5C76.3 4.2 76.4 4.10001 76.7 4.10001C76.9 4.10001 77 4.10001 77.2 4.10001C77.2 3.60001 77.2 3.20001 77.2 2.70001C77.2 2.30001 77.3 2.20001 77.6 2.20001C77.9 2.20001 78.2 2.20001 78.5 2.20001C78.8 2.20001 78.9 2.30001 78.9 2.60001C78.9 3.00001 78.9 3.49999 78.9 3.89999C78.9 3.89999 78.9 3.9 78.9 4C79 4 79.2 4 79.3 4C79.7 4 79.8 4.09999 79.8 4.39999C79.8 4.69999 79.8 4.90001 79.8 5.20001C79.8 5.60001 79.7 5.70001 79.3 5.70001C79.2 5.70001 79 5.70001 78.8 5.70001C78.8 5.90001 78.8 6.00001 78.8 6.10001C78.8 7.10001 78.8 8.10001 78.8 9.20001C78.8 9.80001 78.8 9.79999 78.2 9.79999C78 9.79999 77.7 9.79999 77.5 9.79999C77.1 9.79999 77.1 9.69999 77.1 9.29999C77.1 8.29999 77.1 7.20001 77.1 6.20001C77.2 6.10001 77.2 5.99999 77.2 5.79999Z" fill="black"/>
<path d="M29.2 5.8C29.2 4.6 29.2 3.40002 29.2 2.10002C29.2 1.80002 29.3 1.60002 29.6 1.70002C29.9 1.70002 30.2 1.70002 30.5 1.70002C30.8 1.70002 30.9 1.80002 30.9 2.10002C30.9 2.40002 30.9 2.60001 30.9 2.90001C30.9 5.10001 30.9 7.20001 30.9 9.40001C30.9 9.90001 30.8 9.90001 30.4 9.90001C30.1 9.90001 29.9 9.90001 29.6 9.90001C29.3 9.90001 29.2 9.80001 29.2 9.50001C29.2 8.20001 29.2 7 29.2 5.8Z" fill="black"/>
<path d="M14.1 1.10001C13 0.700015 11.9 0.900002 10.8 1.4C11 0.600002 11.6001 0.100015 12.4001 0.100015C13.1001 1.46031e-05 13.8 0.400015 14.1 1.10001Z" fill="black"/>
<path d="M3.70001 1.10001C4.10001 0.400015 4.70001 1.46031e-05 5.50001 0.100015C6.30001 0.200015 6.80001 0.700002 7.00001 1.4C5.90001 0.900002 4.80001 0.600015 3.70001 1.10001Z" fill="black"/>
<path d="M13.6 5.10001C15.2 5.10001 16.4001 6.29999 16.4001 7.89999C16.4001 9.39999 15.1 10.7 13.6 10.7C12.1 10.7 10.8 9.39999 10.8 7.89999C10.8 6.39999 12.1 5.10001 13.6 5.10001ZM15.9001 7.89999C15.9001 6.59999 14.9 5.60001 13.5 5.60001C12.3 5.60001 11.3 6.69999 11.3 7.89999C11.3 9.19999 12.3 10.2 13.6 10.2C14.9 10.2 15.9001 9.19999 15.9001 7.89999Z" fill="white"/>
<path d="M1.30005 7.89999C1.30005 6.29999 2.60005 5.10001 4.10005 5.10001C5.60005 5.10001 6.90005 6.29999 6.90005 7.89999C6.90005 9.49999 5.60005 10.7 4.10005 10.7C2.50005 10.7 1.30005 9.49999 1.30005 7.89999ZM6.40005 7.89999C6.40005 6.69999 5.40005 5.60001 4.10005 5.60001C2.90005 5.60001 1.80005 6.59999 1.80005 7.89999C1.80005 9.19999 2.80005 10.2 4.10005 10.2C5.40005 10.2 6.40005 9.19999 6.40005 7.89999Z" fill="white"/>
<path d="M7.90002 6.60001C7.90002 6.00001 8.30002 5.60001 8.90002 5.60001C9.50002 5.60001 9.90002 6.00001 9.90002 6.60001C9.90002 7.20001 9.40002 7.60001 8.90002 7.60001C8.30002 7.60001 7.90002 7.10001 7.90002 6.60001ZM8.90002 6C8.60002 6 8.40002 6.2 8.40002 6.5C8.40002 6.8 8.60002 7.10001 8.90002 7.10001C9.20002 7.10001 9.40002 6.8 9.40002 6.5C9.40002 6.2 9.20002 6 8.90002 6Z" fill="white"/>
<path d="M23.3 8.10001C23.3 7.60001 23.3 7 23.3 6.5C23.3 6.4 23.4 6.29999 23.5 6.29999C24.3 6.29999 25 6.29999 25.8 6.29999C26.3 6.29999 26.5 6.60001 26.5 7.10001C26.5 7.60001 26.3 8 25.8 8C25 8.1 24.2 8.10001 23.3 8.10001Z" fill="white"/>
<path d="M23.4 4.70001C23.4 4.30001 23.4 4.00001 23.4 3.60001C23.9 3.60001 24.5 3.60001 25 3.60001C25.5 3.60001 25.7 4.20001 25.4 4.60001C25.3 4.70001 25.2 4.70001 25.1 4.70001C24.5 4.70001 24 4.70001 23.4 4.70001Z" fill="white"/>
<path d="M68 7C68 7.8 67.5 8.29999 66.7 8.29999C65.9 8.29999 65.4 7.8 65.4 7C65.4 6.2 65.9 5.70001 66.7 5.70001C67.4 5.70001 68 6.2 68 7Z" fill="white"/>
<path d="M34.9 8.29999C34.1 8.29999 33.6 7.7 33.6 7C33.6 6.2 34.2 5.70001 34.9 5.70001C35.6 5.70001 36.2 6.2 36.2 7C36.2 7.8 35.7 8.29999 34.9 8.29999Z" fill="white"/>
<path d="M15.9001 7.89999C15.9001 9.19999 14.9 10.2 13.6 10.2C12.4 10.2 11.3 9.19999 11.3 7.89999C11.3 6.69999 12.3 5.60001 13.5 5.60001C14.9 5.70001 15.9001 6.59999 15.9001 7.89999ZM12 7.60001C11.8 8.50001 12.3 9.3 13.1 9.5C13.9 9.8 14.7 9.49999 15.1 8.79999C15.5 8.09999 15.3001 7.20001 14.7001 6.70001C14.1001 6.20001 13.2001 6.20001 12.7001 6.60001C12.9001 6.80001 13 7.09999 12.8 7.39999C12.6 7.59999 12.3 7.60001 12 7.60001Z" fill="black"/>
<path d="M6.40005 7.89999C6.40005 9.09999 5.40005 10.2 4.10005 10.2C2.80005 10.2 1.80005 9.19999 1.80005 7.89999C1.80005 6.69999 2.80005 5.60001 4.10005 5.60001C5.30005 5.70001 6.40005 6.69999 6.40005 7.89999ZM2.50005 7.60001C2.30005 8.50001 2.70005 9.2 3.50005 9.5C4.30005 9.8 5.10005 9.49999 5.50005 8.79999C5.90005 8.09999 5.80005 7.20001 5.20005 6.70001C4.60005 6.20001 3.70005 6.10001 3.10005 6.60001C3.30005 6.80001 3.40005 7.09999 3.20005 7.39999C3.10005 7.69999 2.80005 7.70001 2.50005 7.60001Z" fill="black"/>
<path d="M8.90005 6C9.20005 6 9.40005 6.2 9.40005 6.5C9.40005 6.8 9.20005 7.10001 8.90005 7.10001C8.60005 7.10001 8.40005 6.8 8.40005 6.5C8.30005 6.2 8.60005 6 8.90005 6Z" fill="black"/>
<path d="M12 7.59999C12.3 7.69999 12.6 7.69998 12.8 7.39998C13 7.09998 12.9 6.89999 12.7 6.59999C13.3 6.09999 14.1 6.2 14.7 6.7C15.3 7.2 15.5 8.09998 15.1 8.79998C14.7 9.49998 13.9 9.79999 13.1 9.49999C12.3 9.19999 11.9 8.49999 12 7.59999ZM14.1 7.99999C14 7.69999 13.9 7.59999 13.7 7.59999C13.4 7.59999 13.3 7.69999 13.3 7.99999C13.3 8.19999 13.5 8.39998 13.7 8.39998C13.8 8.29998 13.9 8.09999 14.1 7.99999Z" fill="white"/>
<path d="M2.5 7.60001C2.8 7.70001 3.1 7.7 3.3 7.5C3.5 7.2 3.4 6.90001 3.2 6.70001C3.8 6.20001 4.7 6.29999 5.3 6.79999C5.9 7.29999 6 8.19999 5.6 8.89999C5.2 9.59999 4.3 9.90001 3.6 9.60001C2.7 9.20001 2.3 8.40001 2.5 7.60001ZM3.7 7.89999C3.7 7.99999 3.7 8.00001 3.7 8.10001C3.8 8.20001 4 8.39999 4.1 8.39999C4.3 8.39999 4.5 8.3 4.5 8C4.5 7.8 4.3 7.60001 4.1 7.60001C3.9 7.60001 3.8 7.79999 3.7 7.89999Z" fill="white"/>
<path d="M14.1 8C14 8.1 13.8001 8.29999 13.7001 8.29999C13.5001 8.29999 13.3 8.19999 13.3 7.89999C13.3 7.69999 13.4001 7.5 13.7001 7.5C13.9001 7.6 14 7.7 14.1 8Z" fill="black"/>
<path d="M3.70001 7.89999C3.80001 7.79999 4.00001 7.60001 4.10001 7.60001C4.30001 7.60001 4.50001 7.7 4.50001 8C4.50001 8.2 4.30001 8.39999 4.10001 8.39999C3.90001 8.39999 3.80001 8.20001 3.70001 8.10001C3.70001 8.00001 3.70001 7.89999 3.70001 7.89999Z" fill="black"/>
</svg>
