<svg xmlns="http://www.w3.org/2000/svg" width="286" height="249" viewBox="0 0 286 249"><defs><linearGradient id="5nrwa" x1=".68" x2="284.97" y1="125.51" y2="125.51" gradientUnits="userSpaceOnUse"><stop offset="0" stop-color="#004ac2"/><stop offset="1" stop-color="#0083c2"/></linearGradient><linearGradient id="5nrwb" x1="143.41" x2="143.41" y1="246.85" y2=".82" gradientUnits="userSpaceOnUse"><stop offset="0" stop-color="#00eff1"/><stop offset="1" stop-color="#0098ff"/></linearGradient><radialGradient id="5nrwc" cx="143.86" cy="124.32" r="154.82" gradientUnits="userSpaceOnUse"><stop offset="0" stop-color="#0686d8"/><stop offset="1" stop-color="#008cca"/></radialGradient><radialGradient id="5nrwd" cx="60.15" cy="137.79" r="2.11" gradientUnits="userSpaceOnUse"><stop offset="0" stop-color="#00b359"/><stop offset="1"/></radialGradient><radialGradient id="5nrwe" cx="64.09" cy="128.76" r="2.11" gradientUnits="userSpaceOnUse"><stop offset="0" stop-color="#00b359"/><stop offset="1"/></radialGradient><radialGradient id="5nrwf" cx="61.76" cy="154.65" r="2.11" gradientUnits="userSpaceOnUse"><stop offset="0" stop-color="#00b359"/><stop offset="1"/></radialGradient><radialGradient id="5nrwg" cx="48.42" cy="127.92" r="5.89" gradientUnits="userSpaceOnUse"><stop offset="0" stop-color="#00b359"/><stop offset="1"/></radialGradient><radialGradient id="5nrwh" cx="215.02" cy="170.52" r="5.89" gradientUnits="userSpaceOnUse"><stop offset="0" stop-color="#00b359"/><stop offset="1"/></radialGradient><radialGradient id="5nrwi" cx="256.65" cy="164.64" r="2.81" gradientUnits="userSpaceOnUse"><stop offset="0" stop-color="#00b359"/><stop offset="1"/></radialGradient><radialGradient id="5nrwj" cx="71.32" cy="169.76" r="2.81" gradientUnits="userSpaceOnUse"><stop offset="0" stop-color="#00b359"/><stop offset="1"/></radialGradient><radialGradient id="5nrwk" cx="182.51" cy="157.86" r="1.41" gradientUnits="userSpaceOnUse"><stop offset="0" stop-color="#00b359"/><stop offset="1"/></radialGradient><radialGradient id="5nrwl" cx="36.78" cy="175.77" r="1.41" gradientUnits="userSpaceOnUse"><stop offset="0" stop-color="#00b359"/><stop offset="1"/></radialGradient><radialGradient id="5nrwm" cx="91.25" cy="151.65" r="1.41" gradientUnits="userSpaceOnUse"><stop offset="0" stop-color="#00b359"/><stop offset="1"/></radialGradient><radialGradient id="5nrwn" cx="64.33" cy="173.35" r="1.05" gradientUnits="userSpaceOnUse"><stop offset="0" stop-color="#00b359"/><stop offset="1"/></radialGradient><radialGradient id="5nrwo" cx="164.86" cy="177.3" r="2.2" gradientUnits="userSpaceOnUse"><stop offset="0" stop-color="#00b359"/><stop offset="1"/></radialGradient><radialGradient id="5nrwp" cx="101.04" cy="178.88" r="2.2" gradientUnits="userSpaceOnUse"><stop offset="0" stop-color="#00b359"/><stop offset="1"/></radialGradient><linearGradient id="5nrwq" x1="8.19" x2="246.59" y1="20.96" y2="20.96" gradientUnits="userSpaceOnUse"><stop offset="0" stop-color="#23786e"/><stop offset="1"/></linearGradient></defs><g><g opacity=".4"><g opacity=".4"><path fill="url(#5nrwa)" d="M4.132 16.124c-7.797 6.993-.935 217.482 6.183 226.196 6.622 8.106 252.622 8.431 265.398 0 12.777-8.432 11.888-226.46 0-234.242C263.826.296 23.557-1.299 4.132 16.124z"/></g><g opacity=".4"><path fill="url(#5nrwb)" d="M4.724 14.455c-7.797 6.994-.935 217.482 6.183 226.196 6.622 8.106 252.622 8.431 265.398 0 12.777-8.432 11.888-226.46 0-234.242C264.418-1.373 24.149-2.968 4.724 14.455z"/></g><g opacity=".4"><path fill="url(#5nrwc)" d="M7.026 16.27c-7.668 6.878-3.836 210.582 6.08 222.442 6.624 7.923 246.218 10.795 260.994 0 16.517-12.068 11.69-222.702 0-230.354C262.41.705 26.129-.864 7.026 16.27z"/></g><g opacity=".4"><g opacity=".4"><path fill="url(#5nrwd)" d="M59.972 135.687c1.599-.069 2.973.814 3.069 1.973.095 1.159-1.124 2.155-2.723 2.224-1.599.069-2.973-.814-3.068-1.973-.096-1.159 1.123-2.155 2.722-2.224z"/></g></g><g opacity=".4"><path fill="#ffffab" d="M60.322 137.195c.443-.02.823.225.85.546.026.32-.31.597-.754.616-.443.019-.823-.225-.85-.547-.026-.32.311-.596.754-.615z"/></g><g opacity=".4"><g opacity=".4"><path fill="url(#5nrwe)" d="M63.913 126.662c1.599-.069 2.973.814 3.068 1.973.096 1.16-1.123 2.155-2.722 2.224-1.599.069-2.973-.814-3.069-1.973-.095-1.159 1.124-2.155 2.723-2.224z"/></g></g><g opacity=".4"><path fill="#ffffab" d="M64.263 128.17c.443-.02.823.226.85.547.026.32-.311.596-.754.614-.443.02-.823-.224-.85-.545-.026-.321.31-.596.754-.616z"/></g><g opacity=".4"><g opacity=".4"><path fill="url(#5nrwf)" d="M61.588 152.555c1.6-.069 2.973.814 3.069 1.973.095 1.159-1.124 2.154-2.723 2.224-1.599.069-2.973-.814-3.068-1.973-.096-1.159 1.123-2.155 2.722-2.224z"/></g></g><g opacity=".4"><path fill="#ffffab" d="M61.938 154.063c.443-.02.823.225.85.546.026.321-.31.597-.754.616-.443.02-.823-.225-.85-.547-.026-.32.311-.596.754-.615z"/></g><g opacity=".4"><g opacity=".4"><path fill="url(#5nrwg)" d="M47.935 122.044c4.475-.194 8.32 2.278 8.587 5.521.267 3.243-3.144 6.029-7.619 6.224-4.475.193-8.319-2.279-8.587-5.522-.267-3.243 3.144-6.029 7.619-6.223z"/></g></g><g opacity=".4"><path fill="#ffffab" d="M48.914 126.263c1.239-.054 2.304.631 2.378 1.528.074.9-.871 1.67-2.11 1.724-1.24.054-2.304-.63-2.378-1.529-.074-.898.87-1.669 2.11-1.723z"/></g><g opacity=".4"><g opacity=".4"><path fill="url(#5nrwh)" d="M214.532 164.648c4.475-.193 8.32 2.278 8.587 5.522.267 3.243-3.144 6.029-7.619 6.222-4.475.195-8.319-2.278-8.587-5.521-.267-3.243 3.144-6.03 7.619-6.223z"/></g></g><g opacity=".4"><path fill="#ffffab" d="M215.51 168.867c1.24-.054 2.305.63 2.379 1.529.074.898-.871 1.669-2.11 1.723-1.24.054-2.304-.631-2.378-1.528-.074-.9.87-1.67 2.11-1.724z"/></g><g opacity=".4"><g opacity=".4"><path fill="url(#5nrwi)" d="M256.42 161.833c2.137-.093 3.974 1.088 4.101 2.637.128 1.549-1.501 2.879-3.639 2.972-2.137.093-3.973-1.088-4.101-2.637-.128-1.549 1.501-2.88 3.639-2.972z"/></g></g><g opacity=".4"><path fill="#ffffab" d="M256.887 163.848c.592-.026 1.1.301 1.136.73.035.43-.416.797-1.008.823-.592.025-1.1-.3-1.136-.73-.035-.429.416-.798 1.008-.823z"/></g><g opacity=".4"><g opacity=".4"><path fill="url(#5nrwj)" d="M71.091 166.951c2.138-.093 3.974 1.088 4.102 2.636.127 1.549-1.502 2.88-3.639 2.973-2.138.093-3.974-1.088-4.102-2.638-.127-1.548 1.502-2.878 3.639-2.971z"/></g></g><g opacity=".4"><path fill="#ffffab" d="M71.559 168.965c.592-.025 1.1.302 1.136.73.035.43-.416.797-1.008.824-.592.025-1.1-.302-1.136-.73-.035-.429.416-.799 1.008-.824z"/></g><g opacity=".4"><g opacity=".4"><path fill="url(#5nrwk)" d="M182.392 156.456c1.069-.046 1.987.544 2.051 1.318.064.774-.751 1.44-1.82 1.486-1.068.047-1.987-.544-2.05-1.318-.064-.774.75-1.439 1.819-1.486z"/></g></g><g opacity=".4"><path fill="#ffffab" d="M182.626 157.464c.296-.013.55.15.568.365.018.214-.208.399-.504.41-.296.014-.55-.15-.568-.364-.017-.214.208-.398.504-.411z"/></g><g opacity=".4"><g opacity=".4"><path fill="url(#5nrwl)" d="M36.668 174.369c1.069-.046 1.987.544 2.051 1.318.064.775-.751 1.441-1.819 1.486-1.069.046-1.987-.544-2.051-1.318-.064-.774.751-1.44 1.819-1.486z"/></g></g><g opacity=".4"><path fill="#ffffab" d="M36.902 175.377c.296-.013.55.15.568.365.017.214-.208.399-.504.41-.296.014-.55-.15-.568-.364-.018-.215.208-.398.504-.411z"/></g><g opacity=".4"><g opacity=".4"><path fill="url(#5nrwm)" d="M91.137 150.253c1.069-.046 1.987.543 2.051 1.318.064.775-.751 1.44-1.819 1.486-1.069.047-1.987-.544-2.051-1.318-.064-.775.751-1.44 1.819-1.486z"/></g></g><g opacity=".4"><path fill="#ffffab" d="M91.371 151.26c.296-.013.55.15.568.365.018.214-.208.4-.504.411-.296.013-.55-.15-.568-.365-.017-.214.208-.398.504-.41z"/></g><g opacity=".4"><g opacity=".4"><path fill="url(#5nrwn)" d="M64.246 172.3c.797-.035 1.481.406 1.529.983.048.577-.56 1.073-1.356 1.108-.797.034-1.482-.406-1.529-.983-.048-.577.559-1.073 1.356-1.108z"/></g></g><g opacity=".4"><path fill="#ffffab" d="M64.42 173.051c.22-.01.41.112.424.271.013.161-.155.298-.375.308-.221.01-.41-.112-.424-.272-.014-.16.154-.297.375-.307z"/></g><g opacity=".4"><g opacity=".4"><path fill="url(#5nrwo)" d="M164.678 175.11c1.669-.072 3.103.85 3.203 2.06.099 1.209-1.173 2.249-2.842 2.321-1.669.072-3.104-.851-3.203-2.06-.1-1.21 1.172-2.249 2.842-2.321z"/></g></g><g opacity=".4"><path fill="#ffffab" d="M165.043 176.683c.462-.02.859.235.887.57.028.335-.325.623-.787.643-.462.02-.86-.235-.887-.57-.028-.335.325-.622.787-.643z"/></g><g opacity=".4"><g opacity=".4"><path fill="url(#5nrwp)" d="M100.861 176.689c1.669-.072 3.103.851 3.203 2.06.099 1.21-1.173 2.25-2.842 2.321-1.67.072-3.104-.85-3.203-2.06-.1-1.209 1.172-2.249 2.842-2.321z"/></g></g><g opacity=".4"><path fill="#ffffab" d="M101.226 178.263c.462-.02.859.235.887.57.027.335-.325.623-.787.643-.462.02-.86-.235-.887-.57-.028-.335.325-.623.787-.643z"/></g><g opacity=".2"><g opacity=".2"><path fill="url(#5nrwq)" d="M10.767 17.355s-15.591 15.719 29.98 19.886c45.571 4.166 92.575-19.334 132.365-24.14 39.79-4.805 73.479-5.945 73.479-5.945S60.107-4.153 10.767 17.355z"/></g></g><g opacity=".4"><path fill="#fff" d="M9.706 22.63s-1.214-3.26 2.841-6.01c4.056-2.75 26.118-8.155 28.085-6.798C42.6 11.179 18.725 23.508 9.706 22.63z"/></g><g opacity=".4"><path fill="#fff" d="M11.397 25.789c-1.936-.857-5.411 3.062-1.304 4.608 4.106 1.547 3.679-3.555 1.304-4.608z"/></g><g opacity=".4"><path fill="#fff" d="M268.697 241.87c-2.095-.627 8.457-8.386 9.46-7.817 1.006.568-.352 5.127-1.944 6.15-1.592 1.026-6.106 2.09-7.516 1.667z"/></g></g></g></svg>