<svg xmlns="http://www.w3.org/2000/svg" width="105" height="77" viewBox="0 0 105 77"><g><g opacity=".25"><g opacity=".25"><path fill="#74639f" d="M60.608 38.196c0 12.207-9.896 22.103-22.103 22.103s-22.103-9.896-22.103-22.103 9.896-22.103 22.103-22.103 22.103 9.896 22.103 22.103z"/></g></g><g><path fill="none" stroke="#74639f" stroke-dasharray="4.912 4.912" stroke-linecap="round" stroke-miterlimit="20" d="M71.345 38.332c0 18.137-14.703 32.84-32.84 32.84-18.137 0-32.84-14.703-32.84-32.84 0-18.137 14.703-32.84 32.84-32.84 18.137 0 32.84 14.703 32.84 32.84z"/></g><g><path fill="#74639f" d="M39.222 24.6c.065.014.129.033.193.044.583.099 1.177.152 1.746.302 2.388.631 4.333 1.942 5.815 3.922 1.353 1.808 2.075 3.845 2.098 6.107.022 2.286.008 4.572.008 6.857.001 1.854-.003 3.708.004 5.562.001.394-.102.739-.39 1.009a4.094 4.094 0 0 1-.648.522c-.937.573-1.983.851-3.044 1.076-1.834.389-3.694.549-5.567.587-2.578.053-5.141-.082-7.667-.642-.976-.217-1.932-.497-2.798-1.017-.674-.404-1.055-.93-1.047-1.789.034-3.928.009-7.856.02-11.784.002-.624.034-1.256.135-1.87.415-2.525 1.608-4.629 3.536-6.305a10.22 10.22 0 0 1 4.887-2.382c.43-.081.865-.134 1.297-.199zm8.984 10.706c-.002-1.395-.255-2.743-.824-4.021a9.677 9.677 0 0 0-3.284-4.017 9.484 9.484 0 0 0-4.699-1.74 9.476 9.476 0 0 0-4.402.623 9.604 9.604 0 0 0-4.552 3.665c-1.124 1.678-1.633 3.547-1.631 5.562.004 3.937.008 7.873-.007 11.81-.002.449.162.734.526.955.629.382 1.319.606 2.022.791 1.966.516 3.975.714 6 .77 2.74.075 5.462-.068 8.137-.724.789-.194 1.565-.433 2.258-.877.305-.196.467-.445.464-.836-.015-2.141-.007-4.283-.007-6.425 0-1.845.002-3.691-.001-5.536z"/></g><g><path fill="#74639f" d="M47.769 41.397c.009.493-.213.797-.616 1.014-.635.34-1.327.498-2.026.626-2.23.408-4.484.545-6.744.503a75.07 75.07 0 0 1-4.836-.26c-1.093-.091-2.182-.27-3.22-.66a3.786 3.786 0 0 1-.503-.237c-.375-.21-.572-.505-.57-.964.015-2.251.022-4.503.003-6.754-.013-1.538.595-2.79 1.677-3.834 1.418-1.365 3.158-2.091 5.058-2.46 2.033-.392 4.058-.325 6.052.24 1.722.49 3.27 1.289 4.464 2.667.815.942 1.26 2.028 1.254 3.289-.005 1.092-.001 2.184-.001 3.275 0 1.186-.015 2.37.008 3.555zm-.883-6.847a3.98 3.98 0 0 0-.801-2.412c-.783-1.063-1.84-1.762-3.04-2.253-2.392-.98-4.86-1.111-7.367-.548-1.48.332-2.841.933-3.982 1.96-1.018.918-1.58 2.036-1.565 3.439.023 2.176.01 4.352-.001 6.528-.002.262.09.4.322.46.735.189 1.464.416 2.209.546 1.687.294 3.396.369 5.106.39 2.312.03 4.62-.04 6.904-.44.629-.111 1.242-.313 1.86-.478.26-.07.369-.216.364-.512-.022-1.118-.01-2.235-.01-3.353 0-1.11.003-2.218 0-3.327z"/></g><g><path fill="#74639f" d="M39.702 46.645c.438.002.602.185.55.613-.1.846-.742 1.503-1.537 1.57-.91.077-1.652-.43-1.897-1.296-.03-.105-.042-.215-.055-.324-.04-.348.132-.556.48-.562.43-.007.862-.002 1.293-.002h1.166zm-1.925.874c.323.587 1.184.554 1.465 0z"/></g><g><path fill="#74639f" d="M37.283 46.195c-.4-.004-.563-.197-.515-.597.103-.873.746-1.52 1.577-1.588.878-.072 1.63.455 1.864 1.311.035.13.055.266.06.4.01.282-.174.467-.476.473-.432.007-.863.001-1.293.002-.406 0-.812.003-1.217 0zm1.953-.896c-.326-.575-1.193-.515-1.442 0z"/></g><g><path fill="#74639f" d="M38.254 29.884c.087.006.224.002.354.029a.395.395 0 0 1 .334.418c-.003.225-.123.396-.36.419-.37.037-.742.037-1.111.077-.918.097-1.811.299-2.672.641-.385.153-.73-.083-.644-.443a.604.604 0 0 1 .307-.358c.978-.418 2.004-.644 3.062-.733.227-.019.455-.031.73-.05z"/></g><g><path fill="#74639f" d="M31.043 34.569c.062-.988.513-1.79 1.199-2.47.215-.214.456-.402.696-.59.271-.213.521-.202.691.01.179.222.127.472-.166.69-.495.367-.956.774-1.217 1.337-.163.354-.229.752-.336 1.13-.025.088-.02.187-.055.271a.4.4 0 0 1-.422.262c-.203-.017-.35-.128-.388-.339-.018-.097-.003-.2-.003-.301z"/></g><g><path fill="none" stroke="#74639f" stroke-linecap="round" stroke-miterlimit="20" d="M60.608 38.271c0 12.207-9.896 22.103-22.103 22.103s-22.103-9.896-22.103-22.103 9.896-22.103 22.103-22.103 22.103 9.896 22.103 22.103z"/></g><g><path fill="none" stroke="#74639f" stroke-linecap="round" stroke-miterlimit="20" d="M52.538 5.493c.841 0 1.674.032 2.5.094"/></g><g><path fill="none" stroke="#74639f" stroke-dasharray="5.165 5.165" stroke-linecap="round" stroke-miterlimit="20" d="M60.14 6.377C74.61 9.806 85.376 22.812 85.376 38.332c0 16.413-12.04 30.014-27.77 32.45"/></g><g><path fill="none" stroke="#74639f" stroke-linecap="round" stroke-miterlimit="20" d="M55.037 71.078c-.825.062-1.658.094-2.499.094"/></g><g><path fill="none" stroke="#74639f" stroke-linecap="round" stroke-miterlimit="20" d="M67.124 5.493c.84 0 1.674.032 2.499.094"/></g><g><path fill="none" stroke="#74639f" stroke-dasharray="5.165 5.165" stroke-linecap="round" stroke-miterlimit="20" d="M74.725 6.377c14.472 3.429 25.238 16.435 25.238 31.955 0 16.413-12.04 30.014-27.77 32.45"/></g><g><path fill="none" stroke="#74639f" stroke-linecap="round" stroke-miterlimit="20" d="M69.623 71.078c-.825.062-1.658.094-2.5.094"/></g></g></svg>