<svg xmlns="http://www.w3.org/2000/svg" viewBox="0 0 66.67934 66.67934"><defs><style>.a{opacity:0.25;}.b{fill:#74639f;}.c{fill:none;stroke:#29a5dc;stroke-miterlimit:10;}.d{fill:#29a5dc;}.e{fill:#fcfcfc;}</style></defs><g class="a"><circle class="b" cx="33.33967" cy="33.20311" r="22.10293"/></g><circle class="c" cx="33.33967" cy="33.33967" r="32.83967"/><circle class="d" cx="33.33967" cy="33.27878" r="22.10293"/><path class="e" d="M32.63455,19.60715h1.42176c.06447.01487.12837.033.19348.04409.58232.09906,1.17655.15253,1.74527.30276A10.39138,10.39138,0,0,1,41.81,23.87552a10.15158,10.15158,0,0,1,2.09772,6.10734c.02286,2.28546.00828,4.5713.00918,6.857.00074,1.85395-.00364,3.70791.00315,5.56184a1.29692,1.29692,0,0,1-.38981,1.00843,4.12186,4.12186,0,0,1-.64814.52268,9.48958,9.48958,0,0,1-3.04338,1.07566,29.657,29.657,0,0,1-5.56706.58713,32.18657,32.18657,0,0,1-7.667-.642,9.2112,9.2112,0,0,1-2.79845-1.0168,1.90537,1.90537,0,0,1-1.0474-1.78929c.0342-3.92771.00928-7.8559.02093-11.78387a11.792,11.792,0,0,1,.13433-1.87037,10.37087,10.37087,0,0,1,3.53592-6.305,10.22508,10.22508,0,0,1,4.88731-2.38165C31.767,19.72553,32.202,19.67286,32.63455,19.60715ZM43.04123,35.84964q0-2.76817-.00087-5.53634a9.81011,9.81011,0,0,0-.82426-4.0202,9.6784,9.6784,0,0,0-3.28362-4.01739,9.6459,9.6459,0,0,0-9.10184-1.11741,9.60209,9.60209,0,0,0-4.55118,3.66577,9.74647,9.74647,0,0,0-1.63089,5.562c.00361,3.93639.00759,7.87281-.00789,11.80915a1.00165,1.00165,0,0,0,.52654.95538,7.50346,7.50346,0,0,0,2.02243.79107,26.376,26.376,0,0,0,5.99943.76954,30.40352,30.40352,0,0,0,8.13732-.72385,7.332,7.332,0,0,0,2.25789-.877.90526.90526,0,0,0,.46408-.83553C43.0334,40.13317,43.04123,37.99138,43.04123,35.84964Z"/><path class="e" d="M42.59535,32.84969c0,1.185-.01522,2.37036.00731,3.555a1.03788,1.03788,0,0,1-.61616,1.01377,6.78414,6.78414,0,0,1-2.0252.62592,33.87581,33.87581,0,0,1-6.74438.50316c-1.61348-.02994-3.228-.12606-4.83651-.25988a11.90827,11.90827,0,0,1-3.21918-.65971,3.79774,3.79774,0,0,1-.50317-.23779,1.00621,1.00621,0,0,1-.56893-.96352c.014-2.25147.02023-4.50319.00155-6.7546a5.0818,5.0818,0,0,1,1.67771-3.83328,9.71357,9.71357,0,0,1,5.0581-2.45935,12.92558,12.92558,0,0,1,6.05184.24012,8.89655,8.89655,0,0,1,4.463,2.66581,4.8483,4.8483,0,0,1,1.25525,3.28863C42.5906,30.66582,42.59534,31.75777,42.59535,32.84969Zm-.87538.03457c0-1.1091.00195-2.2182-.00062-3.32729a3.98161,3.98161,0,0,0-.80061-2.41191A6.88006,6.88006,0,0,0,37.88,24.89238a12.05349,12.05349,0,0,0-7.36744-.54823A8.633,8.633,0,0,0,26.52969,26.305a4.38166,4.38166,0,0,0-1.56494,3.43848c.02307,2.17562.01148,4.35169-.00094,6.52748a.40074.40074,0,0,0,.32244.46117c.73477.18855,1.46356.41481,2.2089.54482a32.06876,32.06876,0,0,0,5.10583.39147,37.0033,37.0033,0,0,0,6.90359-.44121c.62909-.11048,1.24223-.313,1.86147-.47793a.443.443,0,0,0,.36256-.51247C41.70723,35.11963,41.72,34.00182,41.72,32.88426Z"/><path class="e" d="M33.37019,41.65162c.38874-.00014.77749-.00169,1.16623.00027.43789.00222.60114.18552.5504.61289a1.75,1.75,0,0,1-3.43525.27434,2.05149,2.05149,0,0,1-.054-.32347.44856.44856,0,0,1,.47962-.56214C32.5081,41.64626,32.93919,41.65177,33.37019,41.65162Zm.7055.87457H32.61107A.84047.84047,0,0,0,34.07569,42.52619Z"/><path class="e" d="M33.33415,41.2036c-.40561.00035-.81125.00364-1.21681-.00058-.39914-.00416-.5625-.19732-.51523-.59758a1.75116,1.75116,0,0,1,3.44124-.27662,1.7819,1.7819,0,0,1,.06.39948.43809.43809,0,0,1-.47632.47306C34.19615,41.20881,33.7651,41.20326,33.33415,41.2036Zm-.70664-.89672h1.443A.84085.84085,0,0,0,32.62751,40.30688Z"/><path class="e" d="M33.08807,24.89164a2.40731,2.40731,0,0,1,.35459.0292.39482.39482,0,0,1,.33372.41815.38832.38832,0,0,1-.36055.41874c-.369.03687-.74174.03732-1.11041.07658a10.0679,10.0679,0,0,0-2.67232.64162c-.38464.153-.72959-.08326-.64377-.44315a.59992.59992,0,0,1,.30745-.35793,9.80521,9.80521,0,0,1,3.06131-.73322C32.58514,24.92259,32.81275,24.91029,33.08807,24.89164Z"/><path class="e" d="M25.87662,29.576a3.75072,3.75072,0,0,1,1.19908-2.4704,7.706,7.706,0,0,1,.69574-.58917c.27266-.21309.52237-.20276.69268.00962.17771.22159.12531.47239-.16759.69015A3.64346,3.64346,0,0,0,27.081,28.55415a7.42291,7.42291,0,0,0-.3362,1.12916,2.48869,2.48869,0,0,1-.05528.27154.42556.42556,0,0,1-.80991-.07644A1.75791,1.75791,0,0,1,25.87662,29.576Z"/></svg>