<svg xmlns="http://www.w3.org/2000/svg" width="239" height="68" viewBox="0 0 239 68"><defs><linearGradient id="r0i6a" x1="119.27" x2="119.27" y1="62.64" y2="4.18" gradientUnits="userSpaceOnUse"><stop offset="0" stop-color="#f91591"/><stop offset="1" stop-color="#31cbfe"/></linearGradient><linearGradient id="r0i6b" x1="119.27" x2="119.27" y1="62.64" y2="4.18" gradientUnits="userSpaceOnUse"><stop offset="0" stop-color="#f91591"/><stop offset="1" stop-color="#31cbfe"/></linearGradient><linearGradient id="r0i6c" x1="119.27" x2="119.27" y1="62.64" y2="4.18" gradientUnits="userSpaceOnUse"><stop offset="0" stop-color="#f91591"/><stop offset="1" stop-color="#31cbfe"/></linearGradient><linearGradient id="r0i6d" x1="119.27" x2="119.27" y1="62.64" y2="4.18" gradientUnits="userSpaceOnUse"><stop offset="0" stop-color="#f91591"/><stop offset="1" stop-color="#31cbfe"/></linearGradient><linearGradient id="r0i6e" x1="119.27" x2="119.27" y1="62.64" y2="4.18" gradientUnits="userSpaceOnUse"><stop offset="0" stop-color="#f91591"/><stop offset="1" stop-color="#31cbfe"/></linearGradient><linearGradient id="r0i6f" x1="115.27" x2="115.27" y1="58.64" y2=".18" gradientUnits="userSpaceOnUse"><stop offset="0" stop-color="#4700b7"/><stop offset="1" stop-color="#7519f9"/></linearGradient><linearGradient id="r0i6g" x1="115.27" x2="115.27" y1="58.64" y2=".18" gradientUnits="userSpaceOnUse"><stop offset="0" stop-color="#4700b7"/><stop offset="1" stop-color="#7519f9"/></linearGradient><linearGradient id="r0i6h" x1="115.27" x2="115.27" y1="58.64" y2=".18" gradientUnits="userSpaceOnUse"><stop offset="0" stop-color="#4700b7"/><stop offset="1" stop-color="#7519f9"/></linearGradient><linearGradient id="r0i6i" x1="115.27" x2="115.27" y1="58.64" y2=".18" gradientUnits="userSpaceOnUse"><stop offset="0" stop-color="#4700b7"/><stop offset="1" stop-color="#7519f9"/></linearGradient><linearGradient id="r0i6j" x1="115.27" x2="115.27" y1="58.64" y2=".18" gradientUnits="userSpaceOnUse"><stop offset="0" stop-color="#4700b7"/><stop offset="1" stop-color="#7519f9"/></linearGradient><linearGradient id="r0i6k" x1="115.27" x2="115.27" y1="50.64" y2="8.18" gradientUnits="userSpaceOnUse"><stop offset="0" stop-color="#e98500"/><stop offset="1" stop-color="#fcd200"/></linearGradient><linearGradient id="r0i6l" x1="115.27" x2="115.27" y1="50.64" y2="8.18" gradientUnits="userSpaceOnUse"><stop offset="0" stop-color="#e98500"/><stop offset="1" stop-color="#fcd200"/></linearGradient><linearGradient id="r0i6m" x1="115.27" x2="115.27" y1="50.64" y2="8.18" gradientUnits="userSpaceOnUse"><stop offset="0" stop-color="#e98500"/><stop offset="1" stop-color="#fcd200"/></linearGradient><linearGradient id="r0i6n" x1="115.27" x2="115.27" y1="50.64" y2="8.18" gradientUnits="userSpaceOnUse"><stop offset="0" stop-color="#e98500"/><stop offset="1" stop-color="#fcd200"/></linearGradient><linearGradient id="r0i6o" x1="115.27" x2="115.27" y1="50.64" y2="8.18" gradientUnits="userSpaceOnUse"><stop offset="0" stop-color="#e98500"/><stop offset="1" stop-color="#fcd200"/></linearGradient></defs><g><g><path fill="#4700b7" d="M25.936 67.333c-4.337 0-7.467-.307-9.329-.563a8.001 8.001 0 0 1-6.906-7.925V18.399a8 8 0 0 1 6.35-7.828c3.051-.643 7.293-1.027 11.35-1.027 7.135 0 12.14 1.442 16.193 4.67 4.198 3.186 6.508 8 6.508 13.579 0 2.979-.79 5.82-2.227 8.325 2.28 2.92 3.752 6.657 3.752 11.136 0 5.393-2.042 10.226-5.905 13.976a8.69 8.69 0 0 1-.172.162c-4.43 4.053-10.663 5.94-19.614 5.94z"/></g><g><path fill="#4700b7" d="M49.228 38.774c0-17.149 11.395-29.596 27.095-29.596 15.594 0 26.485 11.844 26.485 28.802 0 17.462-11.142 29.657-27.095 29.657-15.346 0-26.485-12.139-26.485-28.863zm21.673-.122c0 3.48 1.363 8.654 5.116 8.654 5.119 0 5.178-8.71 5.178-9.082 0-2.424-.92-8.715-5.116-8.715-5.032 0-5.178 8.207-5.178 9.143z"/></g><g><path fill="#4700b7" d="M136.102 66.966a8 8 0 0 1-6.782-3.756l-5.716-9.136v4.892a8 8 0 0 1-8 8h-5.002a8 8 0 0 1-8-8V17.85a8 8 0 0 1 8-8h5.795a8 8 0 0 1 6.758 3.72l5.312 8.385V17.85a8 8 0 0 1 8-8h5.003a8 8 0 0 1 8 8v41.117a8 8 0 0 1-8 8z"/></g><g><path fill="#4700b7" d="M174.348 67.637c-16.784 0-22.764-13.208-22.764-25.569V17.85a8 8 0 0 1 8-8h5.368a8 8 0 0 1 8 8V42.19c0 3.476.798 4.868 1.015 5.055h.001c.01 0 .178.061.563.061.657 0 .981-.11 1.043-.15.2-.167.962-1.506.962-4.966V17.85a8 8 0 0 1 8-8h5.368a8 8 0 0 1 8 8v23.974c0 19.032-12.168 25.813-23.556 25.813z"/></g><g><path fill="#4700b7" d="M216.436 67.576c-5.456 0-11.316-1.557-14.93-3.967a8 8 0 0 1-3.222-8.964l1.342-4.453a7.997 7.997 0 0 1 9.082-5.565c-5.327-3.187-9.91-8.26-9.91-16.285 0-11.104 8.957-19.164 21.298-19.164 6.32 0 10.576 1.66 13.034 3.053a8.001 8.001 0 0 1 3.635 9.522l-1.464 4.331a8.003 8.003 0 0 1-5.709 5.217c4.462 2.853 9.241 7.82 9.241 16.44 0 9.553-7.008 19.835-22.397 19.835z"/></g><g><path fill="url(#r0i6a)" d="M11.052 5.572a7.996 7.996 0 0 0-6.35 7.827v40.445a8.004 8.004 0 0 0 6.905 7.927c1.863.256 4.993.562 9.33.562 8.951 0 15.184-1.89 19.611-5.941.06-.053.117-.106.173-.163 3.865-3.748 5.908-8.581 5.908-13.976 0-4.477-1.474-8.216-3.752-11.136a16.703 16.703 0 0 0 2.225-8.322c0-5.578-2.308-10.395-6.506-13.581-4.055-3.23-9.061-4.67-16.195-4.67-4.058 0-8.299.383-11.349 1.028z"/></g><g><path fill="url(#r0i6b)" d="M71.079 24.511c4.198 0 5.116 6.29 5.116 8.715 0 .369-.06 9.08-5.179 9.08-3.752 0-5.116-5.176-5.116-8.655 0-.934.147-9.14 5.179-9.14zm-.366 38.128c15.953 0 27.095-12.197 27.095-29.659 0-16.957-10.893-28.802-26.486-28.802-15.7 0-27.095 12.447-27.095 29.597 0 16.723 11.139 28.864 26.486 28.864z"/></g><g><path fill="url(#r0i6c)" d="M131.469 4.85a8.001 8.001 0 0 0-8.003 8v4.104l-5.312-8.385a7.998 7.998 0 0 0-6.758-3.719h-5.795a8 8 0 0 0-7.999 8v41.117a8 8 0 0 0 7.999 8h5.003a8 8 0 0 0 7.999-8v-4.892l5.718 9.137a8.003 8.003 0 0 0 6.782 3.755h5.368a8 8 0 0 0 8-8V12.85a8 8 0 0 0-8-8z"/></g><g><path fill="url(#r0i6d)" d="M179.535 4.85a8 8 0 0 0-7.999 8v24.341c0 3.459-.762 4.799-.961 4.965-.064.04-.386.15-1.045.15-.382 0-.552-.06-.562-.06-.22-.186-1.015-1.58-1.015-5.055V12.85a8 8 0 0 0-7.999-8h-5.368a8.001 8.001 0 0 0-8.003 8v24.217c0 12.364 5.98 25.572 22.764 25.572 11.389 0 23.556-6.782 23.556-25.815V12.85a8 8 0 0 0-7.999-8z"/></g><g><path fill="url(#r0i6e)" d="M193.798 23.343c0 8.023 4.583 13.099 9.912 16.286a7.999 7.999 0 0 0-4.268.392 8.003 8.003 0 0 0-4.816 5.172l-1.34 4.454a7.997 7.997 0 0 0 3.219 8.964c3.616 2.408 9.476 3.965 14.931 3.965 15.39 0 22.399-10.281 22.399-19.834 0-8.622-4.78-13.588-9.244-16.442a7.881 7.881 0 0 0 1.045-.325 8.006 8.006 0 0 0 4.666-4.89l1.464-4.331a8 8 0 0 0-3.636-9.522c-2.458-1.394-6.715-3.054-13.035-3.054-12.34 0-21.297 8.059-21.297 19.165z"/></g><g><path fill="url(#r0i6f)" d="M7.051 1.57A7.998 7.998 0 0 0 .701 9.4v40.443a7.997 7.997 0 0 0 6.905 7.926c1.863.256 4.993.563 9.33.563 8.951 0 15.184-1.887 19.614-5.941l.173-.16c3.862-3.751 5.904-8.584 5.904-13.976 0-4.48-1.473-8.216-3.752-11.136a16.665 16.665 0 0 0 2.226-8.325c0-5.579-2.309-10.395-6.506-13.578C30.54 1.986 25.537.543 18.4.543c-4.055 0-8.299.386-11.349 1.027z"/></g><g><path fill="url(#r0i6g)" d="M67.078 20.51c4.197 0 5.115 6.289 5.115 8.714 0 .373-.056 9.084-5.175 9.084-3.755 0-5.116-5.176-5.116-8.655 0-.938.143-9.143 5.176-9.143zm-.366 38.127c15.952 0 27.095-12.193 27.095-29.655 0-16.96-10.89-28.805-26.483-28.805-15.699 0-27.095 12.45-27.095 29.596 0 16.727 11.136 28.864 26.483 28.864z"/></g><g><path fill="url(#r0i6h)" d="M127.468.849a8 8 0 0 0-8 7.999v4.108l-5.312-8.389a8.005 8.005 0 0 0-6.759-3.718h-5.794a8 8 0 0 0-8.002 7.999v41.118a7.998 7.998 0 0 0 8.002 7.999h5a7.998 7.998 0 0 0 8.002-7.999v-4.889l5.715 9.134a7.997 7.997 0 0 0 6.782 3.754h5.368a7.997 7.997 0 0 0 7.999-7.999V8.848A8 8 0 0 0 132.47.849z"/></g><g><path fill="url(#r0i6i)" d="M175.537.849a8.001 8.001 0 0 0-8.003 7.999v24.341c0 3.462-.758 4.8-.961 4.966-.06.04-.386.153-1.041.153-.386 0-.555-.063-.565-.063-.217-.186-1.015-1.577-1.015-5.056V8.848a8 8 0 0 0-7.999-7.999h-5.369a8 8 0 0 0-7.999 7.999v24.221c0 12.36 5.98 25.568 22.764 25.568 11.386 0 23.556-6.781 23.556-25.814V8.848a8 8 0 0 0-7.999-7.999z"/></g><g><path fill="url(#r0i6j)" d="M189.796 19.342c0 8.023 4.584 13.099 9.912 16.285a7.979 7.979 0 0 0-4.264.396 7.999 7.999 0 0 0-4.819 5.169l-1.341 4.454a8 8 0 0 0 3.223 8.963c3.612 2.412 9.473 3.969 14.928 3.969 15.39 0 22.398-10.282 22.398-19.838 0-8.618-4.779-13.587-9.24-16.438a7.998 7.998 0 0 0 5.708-5.218l1.463-4.331a8 8 0 0 0-3.635-9.522C221.671 1.84 217.417.177 211.097.177c-12.343 0-21.301 8.062-21.301 19.165z"/></g><g><path fill="url(#r0i6k)" d="M14.009 30.262H18.4c5.797 0 10.617 2.318 10.617 7.93 0 5.98-5.066 7.992-10.554 7.992-1.893 0-3.42-.059-4.454-.242zm0-17.263c.851-.182 2.255-.369 4.697-.369 5.368 0 9.027 1.893 9.027 6.712 0 3.965-3.293 6.895-8.908 6.895h-4.816zM8.7 49.843c1.77.246 4.577.489 8.236.489 6.709 0 11.345-1.221 14.213-3.842 2.075-2.012 3.479-4.699 3.479-8.235 0-6.101-4.577-9.334-8.479-10.312v-.123c4.331-1.583 6.952-5.062 6.952-9.026 0-3.234-1.28-5.675-3.416-7.262C27.124 9.46 23.708 8.546 18.4 8.546c-3.719 0-7.381.365-9.7.854z"/></g><g><path fill="url(#r0i6l)" d="M67.078 12.51c8.847 0 13.118 8.542 13.118 16.714 0 9.333-4.76 17.083-13.178 17.083-8.359 0-13.118-7.869-13.118-16.654 0-9.03 4.393-17.143 13.178-17.143zm-.366 38.128c10.494 0 19.095-7.504 19.095-21.656 0-12.201-7.261-20.802-18.483-20.802-10.983 0-19.096 8.538-19.096 21.593 0 12.446 7.624 20.865 18.484 20.865z"/></g><g><path fill="url(#r0i6m)" d="M127.468 8.848v17.206c0 6.403.123 11.406.608 16.897l-.12.06c-1.952-4.207-4.33-8.538-7.384-13.358L107.397 8.848h-5.794v41.118h5V32.398c0-6.832-.12-11.775-.426-16.961l.183-.059c2.075 4.453 4.819 9.15 7.686 13.727l13.056 20.861h5.368V8.848z"/></g><g><path fill="url(#r0i6n)" d="M175.537 8.848v24.341c0 9.09-3.905 13.118-10.005 13.118-5.491 0-9.579-3.905-9.579-13.118V8.848h-5.369v24.221c0 12.749 6.347 17.569 14.765 17.569 8.904 0 15.557-5.185 15.557-17.815V8.848z"/></g><g><path fill="url(#r0i6o)" d="M197.799 19.342c0 5.794 4.148 9.273 10.857 11.652 5.551 2.135 7.746 4.33 7.746 8.176 0 4.147-3.17 7.014-8.601 7.014-3.659 0-7.135-1.221-9.516-2.684l-1.341 4.454c2.196 1.464 6.526 2.624 10.491 2.624 9.702 0 14.399-5.491 14.399-11.838 0-6.037-3.539-9.393-10.494-12.077-5.671-2.195-8.176-4.088-8.176-7.93 0-2.807 2.139-6.163 7.75-6.163 3.722 0 6.466 1.221 7.807 1.953l1.466-4.331c-1.832-1.038-4.882-2.012-9.09-2.012-7.993 0-13.298 4.756-13.298 11.162z"/></g><g><path fill="#fff" d="M11.7 28.154l.084.095a2.426 2.426 0 0 0-.083.094z"/></g><g><path fill="#fff" d="M66.713 50.637c-10.86 0-18.485-8.418-18.485-20.863 0-13.055 8.113-21.596 19.095-21.596 11.224 0 18.484 8.602 18.484 20.803 0 14.153-8.601 21.656-19.094 21.656zm.304-4.331c8.419 0 13.178-7.747 13.178-17.081 0-8.175-4.271-16.716-13.116-16.716-8.785 0-13.178 8.114-13.178 17.143 0 8.785 4.759 16.654 13.116 16.654z"/></g><g><path fill="#fff" d="M128.764 46.966l-.602-.962c.391-.027.777-.13 1.135-.309l.173-.087v1.358zM104.602 11.85h1.144l.341.54a3.015 3.015 0 0 0-.678.142l-.183.061a2.992 2.992 0 0 0-.624.292z"/></g><g><path fill="#fff" d="M155.953 8.85v24.34c0 9.212 4.088 13.116 9.578 13.116 6.1 0 10.005-4.026 10.005-13.116V8.85h5.368v23.974c0 12.628-6.65 17.813-15.555 17.813-8.42 0-14.764-4.819-14.764-17.569V8.85z"/></g><g><path fill="#fff" d="M198.286 43.5c2.379 1.464 5.856 2.684 9.517 2.684 5.429 0 8.6-2.867 8.6-7.016 0-3.843-2.195-6.039-7.746-8.174-6.711-2.379-10.86-5.857-10.86-11.652 0-6.405 5.308-11.164 13.3-11.164 4.21 0 7.259.976 9.089 2.013l-1.463 4.331c-1.342-.73-4.087-1.952-7.81-1.952-5.611 0-7.747 3.356-7.747 6.162 0 3.843 2.502 5.734 8.175 7.931 6.955 2.684 10.493 6.04 10.493 12.078 0 6.345-4.697 11.835-14.398 11.835-3.964 0-8.296-1.159-10.492-2.623z"/></g><g><path fill="none" stroke="#000" stroke-linecap="round" stroke-linejoin="round" stroke-miterlimit="20" stroke-width="3" d="M18.4 8.544c5.307 0 8.723.915 11.286 2.989 2.134 1.587 3.416 4.027 3.416 7.26 0 3.965-2.623 7.442-6.954 9.029v.122c3.904.976 8.48 4.209 8.48 10.309 0 3.539-1.404 6.223-3.478 8.236-2.868 2.623-7.504 3.844-14.214 3.844-3.66 0-6.467-.245-8.236-.489V9.398c2.318-.488 5.98-.854 9.7-.854zm.426 17.691c5.614 0 8.908-2.928 8.908-6.893 0-4.819-3.66-6.711-9.03-6.711-2.439 0-3.843.184-4.697.367v13.237zm-.365 19.949c5.49 0 10.554-2.013 10.554-7.992 0-5.612-4.82-7.93-10.615-7.93h-4.393V45.94c1.037.183 2.563.244 4.454.244z"/></g><g><path fill="none" stroke="#000" stroke-linecap="round" stroke-linejoin="round" stroke-miterlimit="20" stroke-width="3" d="M66.713 50.637c-10.86 0-18.485-8.418-18.485-20.863 0-13.055 8.113-21.596 19.095-21.596 11.224 0 18.484 8.602 18.484 20.803 0 14.153-8.601 21.656-19.094 21.656zm.304-4.331c8.419 0 13.178-7.747 13.178-17.081 0-8.175-4.271-16.716-13.116-16.716-8.785 0-13.178 8.114-13.178 17.143 0 8.785 4.759 16.654 13.116 16.654z"/></g><g><path fill="none" stroke="#000" stroke-linecap="round" stroke-linejoin="round" stroke-miterlimit="20" stroke-width="3" d="M101.602 49.966v0V8.85v0h5.795v0l13.177 20.803c3.05 4.82 5.43 9.15 7.382 13.36l.122-.062c-.489-5.49-.61-10.492-.61-16.898V8.85v0h5.002v41.117h-5.368v0l-13.056-20.864c-2.867-4.575-5.612-9.272-7.686-13.726l-.183.061c.305 5.186.427 10.127.427 16.96v17.57h-5.002v0z"/></g><g><path fill="none" stroke="#000" stroke-linecap="round" stroke-linejoin="round" stroke-miterlimit="20" stroke-width="3" d="M155.953 8.85v24.34c0 9.212 4.088 13.116 9.578 13.116 6.1 0 10.005-4.026 10.005-13.116V8.85v0h5.368v23.974c0 12.628-6.65 17.813-15.555 17.813-8.42 0-14.764-4.819-14.764-17.569V8.85v0h5.368v0z"/></g><g><path fill="none" stroke="#000" stroke-linecap="round" stroke-linejoin="round" stroke-miterlimit="20" stroke-width="3" d="M198.286 43.5c2.379 1.464 5.856 2.684 9.517 2.684 5.429 0 8.6-2.867 8.6-7.016 0-3.843-2.195-6.039-7.746-8.174-6.711-2.379-10.86-5.857-10.86-11.652 0-6.405 5.308-11.164 13.3-11.164 4.21 0 7.259.976 9.089 2.013l-1.463 4.331c-1.342-.73-4.087-1.952-7.81-1.952-5.611 0-7.747 3.356-7.747 6.162 0 3.843 2.502 5.734 8.175 7.931 6.955 2.684 10.493 6.04 10.493 12.078 0 6.345-4.697 11.835-14.398 11.835-3.964 0-8.296-1.159-10.492-2.623l1.342-4.453v0z"/></g><g><path fill="none" stroke="#fff" stroke-linecap="round" stroke-linejoin="round" stroke-miterlimit="20" d="M14.4 4.544c5.307 0 8.723.915 11.286 2.989 2.134 1.587 3.416 4.027 3.416 7.26 0 3.965-2.623 7.442-6.954 9.029v.122c3.904.976 8.48 4.209 8.48 10.309 0 3.539-1.404 6.223-3.478 8.236-2.868 2.623-7.504 3.844-14.214 3.844-3.66 0-6.467-.245-8.236-.489V5.398c2.318-.488 5.98-.854 9.7-.854zm.426 17.691c5.614 0 8.908-2.928 8.908-6.893 0-4.819-3.66-6.711-9.03-6.711-2.439 0-3.843.184-4.697.367v13.237zm-.365 19.949c5.49 0 10.554-2.013 10.554-7.992 0-5.612-4.82-7.93-10.615-7.93h-4.393V41.94c1.037.183 2.563.244 4.454.244z"/></g><g><path fill="none" stroke="#fff" stroke-linecap="round" stroke-linejoin="round" stroke-miterlimit="20" d="M62.713 46.637c-10.86 0-18.485-8.418-18.485-20.863 0-13.055 8.113-21.596 19.095-21.596 11.224 0 18.484 8.602 18.484 20.803 0 14.153-8.601 21.656-19.094 21.656zm.304-4.331c8.419 0 13.178-7.747 13.178-17.081 0-8.175-4.271-16.716-13.116-16.716-8.785 0-13.178 8.114-13.178 17.143 0 8.785 4.759 16.654 13.116 16.654z"/></g><g><path fill="none" stroke="#fff" stroke-linecap="round" stroke-linejoin="round" stroke-miterlimit="20" d="M97.602 45.966v0V4.85v0h5.795v0l13.177 20.803c3.05 4.82 5.43 9.15 7.382 13.36l.122-.062c-.489-5.49-.61-10.492-.61-16.898V4.85v0h5.002v41.117h-5.368v0l-13.056-20.864c-2.867-4.575-5.612-9.272-7.686-13.726l-.183.061c.305 5.186.427 10.127.427 16.96v17.57h-5.002v0z"/></g><g><path fill="none" stroke="#fff" stroke-linecap="round" stroke-linejoin="round" stroke-miterlimit="20" d="M151.953 4.85v24.34c0 9.212 4.088 13.116 9.578 13.116 6.1 0 10.005-4.026 10.005-13.116V4.85v0h5.368v23.974c0 12.628-6.65 17.813-15.555 17.813-8.42 0-14.764-4.819-14.764-17.569V4.85v0h5.368v0z"/></g><g><path fill="none" stroke="#fff" stroke-linecap="round" stroke-linejoin="round" stroke-miterlimit="20" d="M194.286 39.5c2.379 1.464 5.856 2.684 9.517 2.684 5.429 0 8.6-2.867 8.6-7.016 0-3.843-2.195-6.039-7.746-8.174-6.711-2.379-10.86-5.857-10.86-11.652 0-6.405 5.308-11.164 13.3-11.164 4.21 0 7.259.976 9.089 2.013l-1.463 4.331c-1.342-.73-4.087-1.952-7.81-1.952-5.611 0-7.747 3.356-7.747 6.162 0 3.843 2.502 5.734 8.175 7.931 6.955 2.684 10.493 6.04 10.493 12.078 0 6.345-4.697 11.835-14.398 11.835-3.964 0-8.296-1.159-10.492-2.623l1.342-4.453v0z"/></g></g></svg>