<svg xmlns="http://www.w3.org/2000/svg" width="77" height="76" viewBox="0 0 77 76"><g><g opacity=".25"><g opacity=".25"><path fill="#74639f" d="M60.657 38.055c0 12.207-9.896 22.103-22.103 22.103s-22.103-9.896-22.103-22.103 9.896-22.103 22.103-22.103 22.103 9.896 22.103 22.103z"/></g></g><g><path fill="none" stroke="#74639f" stroke-dasharray="4.912 4.912" stroke-linecap="round" stroke-miterlimit="20" d="M71.394 38.192c0 18.137-14.703 32.84-32.839 32.84-18.138 0-32.84-14.703-32.84-32.84 0-18.137 14.702-32.84 32.84-32.84 18.136 0 32.839 14.703 32.839 32.84z"/></g><g><path fill="#74639f" d="M39.27 24.46c.066.014.13.033.195.044.582.099 1.176.152 1.745.302 2.389.63 4.333 1.942 5.815 3.922 1.353 1.808 2.075 3.845 2.098 6.107.023 2.286.008 4.572.009 6.857 0 1.854-.004 3.708.003 5.562 0 .394-.102.739-.39 1.009a4.094 4.094 0 0 1-.648.522c-.937.572-1.983.85-3.043 1.076-1.835.389-3.695.549-5.568.587-2.578.053-5.14-.082-7.667-.642-.976-.217-1.932-.497-2.798-1.017-.673-.404-1.055-.93-1.047-1.79.034-3.927.009-7.855.02-11.783.003-.624.034-1.256.135-1.87.415-2.525 1.609-4.63 3.536-6.305a10.22 10.22 0 0 1 4.887-2.382c.43-.081.865-.134 1.298-.2zm8.986 10.706c-.003-1.395-.255-2.743-.825-4.021a9.683 9.683 0 0 0-3.283-4.017 9.478 9.478 0 0 0-4.7-1.74 9.478 9.478 0 0 0-4.402.623 9.604 9.604 0 0 0-4.552 3.665c-1.124 1.678-1.633 3.547-1.631 5.562.004 3.937.008 7.873-.007 11.81-.002.449.162.734.526.955.629.382 1.319.606 2.022.79 1.967.517 3.975.715 6 .77 2.74.076 5.463-.067 8.137-.723.789-.194 1.565-.433 2.258-.877.305-.196.467-.445.464-.836-.015-2.141-.007-4.283-.007-6.425 0-1.845.003-3.691 0-5.536z"/></g><g><path fill="#74639f" d="M47.818 41.256c.009.493-.212.797-.616 1.014-.635.341-1.327.498-2.025.626-2.23.408-4.485.545-6.745.503a75.109 75.109 0 0 1-4.836-.26c-1.093-.09-2.182-.27-3.22-.659a3.846 3.846 0 0 1-.503-.238c-.375-.209-.571-.505-.568-.964.013-2.25.02-4.503 0-6.754-.012-1.538.596-2.79 1.679-3.834 1.417-1.365 3.157-2.09 5.058-2.459 2.032-.393 4.057-.326 6.052.24 1.72.49 3.269 1.287 4.463 2.666.815.942 1.262 2.028 1.255 3.29-.006 1.09-.002 2.183-.002 3.274 0 1.185-.015 2.371.008 3.555zm-.883-6.847a3.98 3.98 0 0 0-.802-2.412c-.783-1.063-1.84-1.762-3.039-2.253-2.393-.979-4.86-1.11-7.367-.548-1.48.332-2.841.933-3.982 1.961-1.019.917-1.58 2.034-1.566 3.438.023 2.176.011 4.352 0 6.528-.002.262.09.401.321.461.735.188 1.464.415 2.21.545 1.686.294 3.395.37 5.105.391 2.314.03 4.62-.04 6.905-.44.628-.112 1.241-.314 1.86-.479.26-.069.37-.216.363-.512-.022-1.118-.009-2.235-.009-3.353 0-1.109.002-2.218 0-3.327z"/></g><g><path fill="#74639f" d="M39.752 46.504c.436.002.6.185.55.613-.1.846-.744 1.503-1.539 1.57-.908.077-1.65-.429-1.896-1.296-.03-.105-.041-.215-.054-.324-.042-.348.131-.556.478-.562.433-.007.863-.002 1.294-.002l1.166.001zm-1.927.874c.323.587 1.184.554 1.465 0z"/></g><g><path fill="#74639f" d="M37.332 46.055c-.399-.004-.563-.197-.515-.597.103-.873.746-1.52 1.577-1.588.878-.072 1.63.455 1.864 1.31.035.13.055.266.06.4.01.283-.174.468-.476.474-.43.007-.862 0-1.293.002-.406 0-.81.003-1.217-.001zm1.953-.896c-.327-.575-1.194-.515-1.443 0z"/></g><g><path fill="#74639f" d="M38.303 29.744c.087.006.225.002.355.029a.394.394 0 0 1 .333.418c-.003.225-.123.395-.36.419-.37.037-.742.037-1.111.077-.917.097-1.811.299-2.672.64-.384.154-.73-.082-.644-.442a.605.605 0 0 1 .308-.358c.977-.418 2.003-.644 3.06-.733.228-.02.456-.031.73-.05z"/></g><g><path fill="#74639f" d="M31.091 34.428c.062-.987.513-1.789 1.2-2.47.214-.214.456-.403.695-.59.272-.213.522-.202.693.01.177.222.125.472-.168.69-.494.368-.954.775-1.215 1.338-.164.353-.23.751-.337 1.13-.025.088-.02.187-.055.271a.398.398 0 0 1-.42.262c-.205-.017-.352-.128-.39-.339-.017-.098-.003-.2-.003-.302z"/></g><g><path fill="none" stroke="#74639f" stroke-linecap="round" stroke-miterlimit="20" d="M60.657 38.13c0 12.208-9.896 22.104-22.103 22.104S16.451 50.338 16.451 38.13s9.896-22.103 22.103-22.103 22.103 9.896 22.103 22.103z"/></g></g></svg>