<svg width="196" height="142" viewBox="0 0 196 142" fill="none" xmlns="http://www.w3.org/2000/svg">
<g opacity="0.3">
<path opacity="0.35" d="M185.5 136.6C185.5 134.8 146.3 133.3 97.8 133.3C49.3 133.3 10.1 134.8 10.1 136.6C10.1 137.6 23.2 138.6 43.6 139.2C48 140.4 65.1 141.2 85.5 141.2C102.6 141.2 117.3 140.6 124.3 139.7C159.8 139.3 185.5 138.1 185.5 136.6Z" fill="#371A45"/>
</g>
<path d="M177.4 135.7H18.3C17.7 135.7 17.3 135.3 17.3 134.7C17.3 134.1 17.7 133.7 18.3 133.7H177.4C178 133.7 178.4 134.1 178.4 134.7C178.4 135.3 178 135.7 177.4 135.7Z" fill="#371A45"/>
<path d="M143.3 71.2001H55.6L43.3 30.6001H155L143.3 71.2001Z" fill="#33AEF1"/>
<g opacity="0.3">
<path opacity="0.3" d="M143.3 71.2001H55.6L43.3 30.6001H155L143.3 71.2001Z" fill="#371A45"/>
</g>
<path d="M143.3 72.2999H55.6C55.1 72.2999 54.7 71.9999 54.5 71.4999L42.2 30.8999C42.1 30.5999 42.2 30.1999 42.4 29.8999C42.6 29.5999 43 29.3999 43.3 29.3999H155C155.4 29.3999 155.7 29.5999 155.9 29.8999C156.1 30.1999 156.2 30.5999 156.1 30.8999L144.4 71.4999C144.2 71.9999 143.8 72.2999 143.3 72.2999ZM56.5 69.9999H142.4L153.5 31.6999H44.8L56.5 69.9999Z" fill="#371A45"/>
<path d="M142.769 63.0915C150.385 62.8013 156.351 57.1079 156.095 50.3747C155.838 43.6415 149.456 38.4184 141.84 38.7086C134.224 38.9987 128.257 44.6922 128.514 51.4253C128.77 58.1585 135.153 63.3816 142.769 63.0915Z" fill="#E4F2F9"/>
<g opacity="0.55">
<path opacity="0.55" d="M151.5 41.8996C149.4 40.8996 146.9 40.2996 144.3 40.3996C141.4 40.4996 138.7 41.3996 136.6 42.7996C138.3 44.7996 135.4 47.3996 133.1 46.0996C131.7 48.0996 130.8 50.4996 130.9 53.0996C131 56.4996 132.7 59.3996 135.2 61.4996C131.1 59.4996 128.3 55.6996 128.2 51.2996C127.9 44.5996 133.9 38.7996 141.6 38.5996C145.4 38.4996 148.9 39.7996 151.5 41.8996Z" fill="white"/>
</g>
<path opacity="0.15" d="M142.548 57.2954C146.577 57.1419 149.734 54.1541 149.599 50.622C149.465 47.0898 146.09 44.3509 142.061 44.5043C138.032 44.6578 134.875 47.6456 135.009 51.1777C135.144 54.7099 138.519 57.4488 142.548 57.2954Z" fill="#371A45"/>
<path d="M140.6 50.3997C140.3 50.8997 140.4 51.1997 140.9 51.5997C142.9 52.7997 144.9 53.9997 146.9 55.1997C148.7 53.7997 149.5 51.5997 148.9 49.4997C148.3 47.2997 146.2 45.6997 143.8 45.1997C142.7 46.8997 141.7 48.6997 140.6 50.3997Z" fill="#29A5DC"/>
<path d="M147.5 48.4995C147.5 48.5995 147.5 48.7995 147.5 48.8995C147.5 48.9995 147.4 49.0995 147.4 49.0995C146.7 49.1995 144 49.7995 143.8 49.8995C143.3 49.9995 143 50.4995 143.1 50.8995C143.2 51.1995 143.5 51.2995 143.8 51.2995C143.9 51.2995 144.8 51.0995 144.9 51.0995H145C145 50.9995 145 50.8995 145 50.6995L144.3 50.7995C144.3 50.5995 144.3 50.3995 144.3 50.2995L145.6 49.9995C145.6 50.4995 145.7 50.9995 145.7 51.3995L144.9 51.5995C144.5 51.6995 144.2 51.7995 143.8 51.7995C143.4 51.7995 142.9 51.4995 142.7 51.0995C142.5 50.4995 142.7 49.9995 143.2 49.5995C143.4 49.3995 143.6 49.2995 143.9 49.2995C144.1 49.1995 147.5 48.4995 147.5 48.4995Z" fill="#FCFCFC"/>
<path d="M146.1 49.6997C146.1 49.9997 146.1 50.1997 146.2 50.4997C146.2 50.6997 146.2 50.8997 146.3 51.1997C146.5 51.1997 146.6 51.0997 146.8 51.0997C146.8 51.0997 146.9 51.0997 146.9 50.9997C146.9 50.4997 146.8 50.0997 146.8 49.6997H146.1Z" fill="#FCFCFC"/>
<path d="M139.8 53.1993C139.4 52.8993 139 52.9993 138.7 53.3993C138.3 53.9993 138 54.5993 137.6 55.1993C139.2 56.4993 141.6 56.9993 143.9 56.5993C144.3 56.4993 144.6 56.3993 145 56.2993C143.2 55.2993 141.5 54.1993 139.8 53.1993Z" fill="#FF00FF"/>
<path d="M137.5 49.5995C138.1 49.9995 138.5 49.8995 138.8 49.2995C139.7 47.8995 140.5 46.3995 141.4 44.9995C141.1 44.9995 140.9 45.0995 140.6 45.0995C138.4 45.5995 136.7 46.8995 135.9 48.5995C136.4 48.9995 137 49.2995 137.5 49.5995Z" fill="#29A5DC"/>
<path d="M136.7 51.3997C136.7 51.3997 135.9 50.9997 135.3 50.6997C135.3 51.1997 135.3 51.7997 135.5 52.2997C135.6 52.7997 135.9 53.2997 136.1 53.6997C136.4 53.0997 136.8 52.4997 136.9 52.2997C137.2 51.8997 137.1 51.6997 136.7 51.3997Z" fill="#FF00FF"/>
<g opacity="0.55">
<path opacity="0.55" d="M147.3 46.1997C149 47.2997 150.1 49.0997 150.2 51.0997C150.3 52.5997 149.8 53.8997 148.9 54.9997C149.9 56.2997 147.9 57.8997 146.6 56.8997C145.6 57.3997 144.5 57.6997 143.3 57.7997C141.3 57.8997 139.4 57.1997 138 55.9997C139.3 56.7997 140.9 57.2997 142.6 57.1997C146.6 56.9997 149.7 54.0997 149.6 50.4997C149.5 48.8997 148.6 47.2997 147.3 46.1997Z" fill="white"/>
</g>
<g opacity="0.3">
<path opacity="0.3" d="M142 44.4996C144.2 44.3996 146.1 45.1996 147.5 46.4996C146.3 45.7996 144.8 45.2996 143.2 45.3996C139.2 45.5996 136.1 48.4996 136.2 52.0996C136.3 53.6996 137 55.1996 138.2 56.2996C136.4 55.1996 135.1 53.3996 135 51.1996C134.9 47.5996 138 44.5996 142 44.4996Z" fill="#371A45"/>
</g>
<path d="M142.1 64.1997C138.4 64.1997 134.9 62.9997 132.1 60.6997C129.2 58.2997 127.5 54.9997 127.3 51.3997C127.2 47.7997 128.6 44.3997 131.4 41.7997C134.1 39.1997 137.8 37.6997 141.7 37.5997V38.6997V37.5997C145.6 37.3997 149.4 38.6997 152.3 40.9997C155.2 43.3997 156.9 46.6997 157.1 50.2997C157.2 53.8997 155.8 57.2997 153 59.8997C150.3 62.4997 146.6 63.9997 142.7 64.0997C142.6 64.1997 142.3 64.1997 142.1 64.1997ZM142.4 39.6997C142.2 39.6997 142 39.6997 141.8 39.6997C138.4 39.7997 135.2 41.0997 132.9 43.3997C130.6 45.5997 129.4 48.3997 129.5 51.3997C129.6 54.3997 131 57.0997 133.5 59.0997C136 61.0997 139.3 62.1997 142.7 62.0997C146.1 61.9997 149.3 60.6997 151.6 58.3997C153.9 56.1997 155.1 53.3997 155 50.3997C154.9 47.3997 153.5 44.6997 151 42.6997C148.7 40.7997 145.6 39.6997 142.4 39.6997Z" fill="#371A45"/>
<path d="M154.7 74.4C154.1 74.4 153.7 74 153.6 73.4C153.4 72 153.8 70.7 154.8 69.8C156.2 68.4 158.7 67.8 161.4 68.3C162.3 68.5 163.1 68.5 163.8 68.3C165.8 67.9 167.2 66.7 167.6 65C168 63.5 167.6 61.9 166.5 61C165.3 59.9 163.4 59.9 161.2 60.8C160.6 61 160 60.8 159.7 60.2C159.5 59.6 159.7 59 160.3 58.7C164.4 57 166.9 58.3 168 59.3C169.7 60.8 170.4 63.3 169.8 65.6C169.1 68.1 167.1 70 164.3 70.6C163.3 70.8 162.2 70.8 161 70.6C159 70.3 157.3 70.6 156.4 71.5C155.9 72 155.8 72.5 155.9 73.2C156 73.8 155.6 74.4 154.9 74.5C154.8 74.4 154.7 74.4 154.7 74.4Z" fill="#371A45"/>
<path d="M129.2 66.2001C128.9 66.2001 128.6 66.1001 128.4 65.9001C128 65.4001 128 64.7001 128.4 64.3001C128.9 63.8001 129.1 63.3001 129 62.6001C128.8 61.4001 127.6 60.0001 125.9 59.1001C124.8 58.5001 124 57.9001 123.3 57.1001C121.4 54.9001 120.9 52.2001 121.9 49.8001C122.8 47.6001 124.9 46.0001 127.2 45.9001C128.7 45.8001 131.4 46.2001 133.7 50.1001C134 50.6001 133.8 51.3001 133.3 51.7001C132.8 52.0001 132.1 51.8001 131.7 51.3001C130.5 49.2001 129 48.2001 127.4 48.3001C126 48.4001 124.7 49.4001 124.1 50.8001C123.4 52.4001 123.8 54.2001 125.1 55.7001C125.6 56.2001 126.2 56.7001 127.1 57.2001C129.5 58.5001 131.2 60.4001 131.4 62.4001C131.6 63.8001 131.2 65.1001 130.2 66.0001C129.8 66.1001 129.5 66.2001 129.2 66.2001Z" fill="#371A45"/>
<path d="M162.4 54.8002L161.7 56.4002L155.9 68.8002C153.1 74.9002 146.2 77.9002 139.9 75.9002C133.5 73.9002 129.6 67.4002 130.9 60.7002L133.5 47.4002L133.8 45.7002L162.4 54.8002Z" fill="#FCD559"/>
<path opacity="0.15" d="M157 66.5001L156 68.7001C153.2 74.8001 146.3 77.8001 140 75.8001C133.6 73.8001 129.7 67.2001 131 60.6001L133.6 47.3001L133.9 45.6001L136.4 46.4001L134.8 54.4001C133.5 61.0001 137.4 67.5001 143.8 69.6001C148.5 71.2001 153.5 69.9001 157 66.5001Z" fill="#371A45"/>
<path d="M143.9 77.6001C142.5 77.6001 141 77.4001 139.6 76.9001C132.6 74.7001 128.4 67.6001 129.8 60.4001L132.3 47.7001C132.5 46.8001 133 46.0001 133.8 45.6001C134.6 45.1001 135.5 45.0001 136.4 45.3001L161 53.1001C161.8 53.3001 162.4 53.9001 162.7 54.6001C163 55.3001 163 56.2001 162.7 56.9001L157 69.2001C154.5 74.5001 149.3 77.6001 143.9 77.6001ZM140.2 74.8001C146 76.6001 152.3 73.9001 154.9 68.3001L160.6 56.0001C160.7 55.8001 160.6 55.7001 160.6 55.6001C160.6 55.5001 160.5 55.4001 160.3 55.3001L135.7 47.5001C135.4 47.4001 135.2 47.4001 135 47.6001C134.8 47.7001 134.6 48.0001 134.6 48.2001L132 60.9001C130.8 67.0001 134.4 72.9001 140.2 74.8001Z" fill="#371A45"/>
<g opacity="0.3">
<path opacity="0.3" d="M152.3 64.7C151.1 64.1 151 61.9 152 59.8C153 57.7 154.8 56.4 156 56.9C157.2 57.5 156.4 59.2 155.4 61.4C154.4 63.5 153.5 65.2 152.3 64.7Z" fill="white"/>
</g>
<path d="M118.467 65.1935C126.083 64.9034 132.049 59.2099 131.793 52.4767C131.536 45.7436 125.154 40.5205 117.538 40.8106C109.922 41.1007 103.956 46.7942 104.212 53.5274C104.469 60.2606 110.851 65.4837 118.467 65.1935Z" fill="#E4F2F9"/>
<path d="M117.9 65.3995C110.4 65.3995 104.3 60.1995 104 53.4995C103.7 46.6995 109.8 40.8995 117.5 40.5995C125.2 40.2995 131.7 45.5995 132 52.4995C132.1 55.7995 130.8 58.9995 128.2 61.3995C125.6 63.7995 122.2 65.2995 118.4 65.3995C118.3 65.3995 118.1 65.3995 117.9 65.3995ZM118.2 40.9995C118 40.9995 117.8 40.9995 117.6 40.9995C110.1 41.2995 104.2 46.8995 104.4 53.5995C104.7 60.1995 111 65.3995 118.5 65.0995C122.1 64.9995 125.5 63.5995 128 61.1995C130.5 58.7995 131.8 55.7995 131.7 52.4995C131.4 45.9995 125.4 40.9995 118.2 40.9995Z" fill="#371A45"/>
<g opacity="0.55">
<path opacity="0.55" d="M127.3 44.0997C125.2 43.0997 122.7 42.4997 120.1 42.5997C117.2 42.6997 114.5 43.5997 112.4 44.9997C114.1 46.9997 111.2 49.5997 108.9 48.2997C107.5 50.2997 106.6 52.6997 106.7 55.2997C106.8 58.6997 108.5 61.5997 111 63.6997C106.9 61.6997 104.1 57.8997 104 53.4997C103.7 46.7997 109.7 40.9997 117.4 40.7997C121.2 40.6997 124.7 41.8997 127.3 44.0997Z" fill="white"/>
</g>
<path opacity="0.15" d="M118.246 59.3974C122.275 59.244 125.432 56.2562 125.297 52.724C125.163 49.1919 121.788 46.4529 117.759 46.6064C113.73 46.7599 110.573 49.7477 110.707 53.2798C110.842 56.8119 114.217 59.5509 118.246 59.3974Z" fill="#371A45"/>
<path d="M116.4 52.5999C116.1 53.0999 116.2 53.3999 116.7 53.7999C118.7 54.9999 120.7 56.1999 122.7 57.3999C124.5 55.9999 125.3 53.7999 124.7 51.6999C124.1 49.4999 122 47.8999 119.6 47.3999C118.5 49.0999 117.4 50.8999 116.4 52.5999Z" fill="#29A5DC"/>
<path d="M123.3 50.6997C123.3 50.7997 123.3 50.9997 123.3 51.0997C123.3 51.1997 123.2 51.2997 123.2 51.2997C122.5 51.3997 119.8 51.9997 119.6 52.0997C119.1 52.1997 118.8 52.6997 118.9 53.0997C119 53.3997 119.3 53.4997 119.6 53.4997C119.7 53.4997 120.6 53.2997 120.7 53.2997H120.8C120.8 53.1997 120.8 53.0997 120.8 52.8997L120.1 52.9997C120.1 52.7997 120.1 52.5997 120.1 52.4997L121.4 52.1997C121.4 52.6997 121.5 53.1997 121.5 53.5997L120.7 53.7997C120.3 53.8997 120 53.9997 119.6 53.9997C119.2 53.9997 118.7 53.6997 118.5 53.2997C118.3 52.6997 118.5 52.1997 119 51.7997C119.2 51.5997 119.4 51.4997 119.7 51.4997C119.8 51.3997 123.2 50.6997 123.3 50.6997Z" fill="#FCFCFC"/>
<path d="M121.9 51.8999C121.9 52.1999 121.9 52.3999 122 52.6999C122 52.8999 122 53.0999 122.1 53.3999C122.3 53.3999 122.4 53.2999 122.6 53.2999C122.6 53.2999 122.7 53.2999 122.7 53.1999C122.7 52.6999 122.6 52.2999 122.6 51.8999H121.9Z" fill="#FCFCFC"/>
<path d="M115.6 55.3995C115.2 55.0995 114.8 55.1995 114.5 55.5995C114.1 56.1995 113.8 56.7995 113.4 57.3995C115 58.6995 117.4 59.1995 119.7 58.7995C120.1 58.6995 120.4 58.5995 120.8 58.4995C119 57.3995 117.3 56.3995 115.6 55.3995Z" fill="#FF00FF"/>
<path d="M113.3 51.7997C113.9 52.1997 114.3 52.0997 114.6 51.4997C115.5 50.0997 116.3 48.5997 117.2 47.1997C116.9 47.1997 116.7 47.2997 116.4 47.2997C114.2 47.7997 112.5 49.0997 111.7 50.7997C112.2 51.0997 112.7 51.4997 113.3 51.7997Z" fill="#29A5DC"/>
<path d="M112.5 53.5999C112.5 53.5999 111.7 53.1999 111.1 52.8999C111.1 53.3999 111.1 53.9999 111.3 54.4999C111.4 54.9999 111.7 55.4999 111.9 55.8999C112.2 55.2999 112.6 54.6999 112.7 54.4999C112.9 54.0999 112.8 53.8999 112.5 53.5999Z" fill="#FF00FF"/>
<g opacity="0.55">
<path opacity="0.55" d="M123 48.3999C124.7 49.4999 125.8 51.2999 125.9 53.2999C126 54.7999 125.5 56.0999 124.6 57.1999C125.6 58.4999 123.6 60.0999 122.3 59.0999C121.3 59.5999 120.2 59.8999 119 59.9999C117 60.0999 115.1 59.3999 113.7 58.1999C115 58.9999 116.6 59.4999 118.3 59.3999C122.3 59.1999 125.4 56.2999 125.3 52.6999C125.2 50.9999 124.4 49.4999 123 48.3999Z" fill="white"/>
</g>
<g opacity="0.3">
<path opacity="0.3" d="M117.8 46.5997C120 46.4997 121.9 47.2997 123.3 48.5997C122.1 47.8997 120.6 47.3997 119 47.4997C115 47.6997 111.9 50.5997 112 54.1997C112.1 55.7997 112.8 57.2997 114 58.3997C112.2 57.2997 110.9 55.4997 110.8 53.2997C110.6 49.7997 113.8 46.7997 117.8 46.5997Z" fill="#371A45"/>
</g>
<path d="M117.9 66.2998C110 66.2998 103.4 60.6998 103.1 53.5998C102.8 46.2998 109.3 40.0998 117.5 39.6998C125.7 39.3998 132.6 45.0998 132.9 52.3998C133 55.9998 131.6 59.3998 128.8 61.9998C126.1 64.5998 122.4 66.0998 118.5 66.1998C118.3 66.2998 118.1 66.2998 117.9 66.2998ZM118.2 41.8998C118 41.8998 117.8 41.8998 117.6 41.8998C110.6 42.1998 105 47.3998 105.3 53.4998C105.5 59.5998 111.4 64.3998 118.5 64.1998C121.9 64.0998 125.1 62.7998 127.4 60.4998C129.7 58.2998 130.9 55.4998 130.8 52.4998C130.6 46.4998 124.9 41.8998 118.2 41.8998Z" fill="#371A45"/>
<path d="M53.4674 65.7921C61.0836 65.502 67.0498 59.8085 66.7933 53.0753C66.5368 46.3422 60.1547 41.1191 52.5385 41.4092C44.9224 41.6994 38.9561 47.3929 39.2126 54.126C39.4691 60.8592 45.8512 66.0823 53.4674 65.7921Z" fill="#E4F2F9"/>
<path d="M52.8 66.0001C45.3 66.0001 39.2 60.8001 38.9 54.1001C38.6 47.3001 44.7 41.5001 52.4 41.2001C60.1 40.9001 66.6 46.2001 66.9 53.1001C67 56.4001 65.7 59.6001 63.1 62.0001C60.5 64.4001 57.1 65.9001 53.3 66.0001C53.2 66.0001 53 66.0001 52.8 66.0001ZM52.5 41.5001C45 41.8001 39.1 47.4001 39.3 54.1001C39.6 60.7001 45.9 65.9001 53.4 65.6001C57 65.5001 60.4 64.1001 62.9 61.7001C65.4 59.3001 66.7 56.3001 66.6 53.0001C66.4 46.4001 60 41.2001 52.5 41.5001Z" fill="#371A45"/>
<g opacity="0.55">
<path opacity="0.55" d="M62.2 44.5997C60.1 43.5997 57.6 42.9997 55 43.0997C52.1 43.1997 49.4 44.0997 47.3 45.4997C49 47.4997 46.1 50.0997 43.8 48.7997C42.4 50.7997 41.5 53.1997 41.6 55.7997C41.7 59.1997 43.4 62.0997 45.9 64.1997C41.8 62.1997 39 58.3997 38.9 53.9997C38.6 47.2997 44.6 41.4997 52.3 41.2997C56.1 41.1997 59.7 42.3997 62.2 44.5997Z" fill="white"/>
</g>
<path opacity="0.15" d="M53.2466 59.9956C57.2754 59.8421 60.4324 56.8543 60.2978 53.3221C60.1632 49.79 56.7881 47.051 52.7593 47.2045C48.7304 47.358 45.5735 50.3458 45.708 53.8779C45.8426 57.4101 49.2177 60.149 53.2466 59.9956Z" fill="#371A45"/>
<path d="M51.3 53.4996C51.1 54.0996 51.2 54.3996 51.9 54.5996C54.1 55.2996 56.3 56.0996 58.5 56.7996C59.9 54.9996 60.3 52.6996 59.2 50.7996C58.1 48.7996 55.8 47.5996 53.3 47.6996C52.7 49.5996 52 51.5996 51.3 53.4996Z" fill="#29A5DC"/>
<path d="M57.7 50.1997C57.7 50.2997 57.8 50.4997 57.8 50.5997C57.8 50.6997 57.8 50.7997 57.7 50.7997C57.1 51.0997 54.5 52.1997 54.4 52.2997C54 52.4997 53.8 52.9997 54 53.3997C54.1 53.5997 54.5 53.6997 54.7 53.5997C54.8 53.5997 55.7 53.1997 55.7 53.0997C55.7 53.0997 55.7 53.0997 55.7 52.9997C55.7 52.8997 55.6 52.7997 55.6 52.6997L55 52.8997C54.9 52.6997 54.9 52.5997 54.8 52.3997L56 51.8997C56.1 52.3997 56.3 52.7997 56.4 53.2997L55.6 53.6997C55.2 53.8997 54.9 54.0997 54.5 54.0997C54.1 54.1997 53.5 54.0997 53.3 53.6997C53 53.1997 53.1 52.6997 53.5 52.1997C53.7 51.9997 53.9 51.8997 54.1 51.7997C54.4 51.5997 57.6 50.1997 57.7 50.1997Z" fill="#FCFCFC"/>
<path d="M56.6 51.5998C56.7 51.8998 56.8 52.0998 56.8 52.3998C56.9 52.5998 56.9 52.7998 57 52.9998C57.2 52.8998 57.3 52.8998 57.4 52.7998C57.4 52.7998 57.5 52.6998 57.5 52.5998C57.4 52.1998 57.2 51.7998 57.1 51.2998L56.6 51.5998Z" fill="#FCFCFC"/>
<path d="M51.1 56.3999C50.6 56.1999 50.3 56.3999 50.1 56.8999C49.9 57.5999 49.6 58.1999 49.4 58.8999C51.3 59.7999 53.7 59.8999 55.8 58.8999C56.1 58.6999 56.5 58.5999 56.8 58.3999C54.9 57.6999 53 56.9999 51.1 56.3999Z" fill="#FF00FF"/>
<path d="M48.1 53.3996C48.8 53.5996 49.1 53.4996 49.3 52.7996C49.8 51.1996 50.4 49.5996 50.9 48.0996C50.6 48.1996 50.4 48.2996 50.1 48.3996C48 49.2996 46.7 50.9996 46.2 52.7996C46.9 52.9996 47.5 53.1996 48.1 53.3996Z" fill="#29A5DC"/>
<path d="M47.7 55.2994C47.7 55.2994 46.8 54.9994 46.2 54.8994C46.3 55.3994 46.5 55.8994 46.7 56.3994C46.9 56.8994 47.3 57.2994 47.6 57.5994C47.8 56.9994 48 56.1994 48.1 56.0994C48.3 55.7994 48.2 55.4994 47.7 55.2994Z" fill="#FF00FF"/>
<g opacity="0.55">
<path opacity="0.55" d="M58 48.8999C59.7 49.9999 60.8 51.7999 60.9 53.7999C61 55.2999 60.5 56.5999 59.6 57.6999C60.6 58.9999 58.6 60.5999 57.3 59.5999C56.3 60.0999 55.2 60.3999 54 60.4999C52 60.5999 50.1 59.8999 48.7 58.6999C50 59.4999 51.6 59.9999 53.3 59.8999C57.3 59.6999 60.4 56.7999 60.3 53.1999C60.2 51.4999 59.3 49.9999 58 48.8999Z" fill="white"/>
</g>
<g opacity="0.3">
<path opacity="0.3" d="M52.7 47.0997C54.9 46.9997 56.8 47.7997 58.2 49.0997C57 48.3997 55.5 47.9997 53.9 47.9997C49.9 48.1997 46.8 51.0997 46.9 54.6997C47 56.2997 47.7 57.7997 48.9 58.8997C47.1 57.7997 45.8 55.9997 45.7 53.7997C45.6 50.2997 48.7 47.2997 52.7 47.0997Z" fill="#371A45"/>
</g>
<path d="M52.8 66.8999C44.9 66.8999 38.3 61.2999 38 54.1999C37.7 46.8999 44.2 40.6999 52.4 40.2999C60.7 39.9999 67.6 45.6999 67.9 52.9999C68 56.5999 66.6 59.9999 63.8 62.5999C61.1 65.1999 57.4 66.6999 53.5 66.7999C53.3 66.8999 53.1 66.8999 52.8 66.8999ZM52.6 42.3999C45.6 42.6999 40 47.8999 40.3 53.9999C40.5 60.0999 46.4 64.8999 53.5 64.6999C56.9 64.5999 60.1 63.2999 62.4 60.9999C64.7 58.7999 65.9 55.9999 65.8 52.9999C65.5 46.8999 59.6 42.0999 52.6 42.3999Z" fill="#371A45"/>
<path d="M89.6 39.5001L83.8 61.7001L62.2 54.0001L64.7 46.0001L81.7 37.1001L89.6 39.5001Z" fill="#8F40FF"/>
<g opacity="0.55">
<path opacity="0.55" d="M83.8 61.7001L81.9 43.6001L76.4 39.8001L81.7 37.1001L89.6 39.5001L83.8 61.7001Z" fill="white"/>
</g>
<g opacity="0.55">
<path opacity="0.55" d="M89.6 39.5001L89.1 41.6001L81.5 39.4001L64.6 48.3001L62.8 54.1001L62.2 54.0001L64.7 46.0001L81.7 37.1001L89.6 39.5001Z" fill="white"/>
</g>
<path d="M83.8 62.7999C83.7 62.7999 83.5 62.7999 83.4 62.6999L61.9 54.9999C61.3 54.7999 61 54.1999 61.2 53.5999L63.7 45.6999C63.8 45.3999 64 45.1999 64.3 44.9999L81.2 36.0999C81.5 35.9999 81.8 35.8999 82.1 35.9999L90.1 38.3999C90.7 38.5999 91 39.1999 90.9 39.7999L84.9 61.9999C84.8 62.2999 84.6 62.5999 84.3 62.6999C84.2 62.7999 84 62.7999 83.8 62.7999ZM63.7 53.2999L83.1 60.2999L88.3 40.3999L81.8 38.3999L65.7 46.8999L63.7 53.2999Z" fill="#371A45"/>
<path d="M62.2 55.1001C61.8 55.1001 61.4 54.9001 61.2 54.5001C60.9 53.9001 61.1 53.3001 61.7 53.0001L89.1 38.5001C89.7 38.2001 90.3 38.4001 90.6 39.0001C90.9 39.6001 90.7 40.2001 90.1 40.5001L62.8 55.0001C62.6 55.1001 62.4 55.1001 62.2 55.1001Z" fill="#371A45"/>
<path d="M83.8 62.7998C83.2 62.7998 82.7 62.3998 82.7 61.7998L80.8 44.1998L75.8 40.7998C75.3 40.3998 75.1 39.6998 75.5 39.1998C75.9 38.6998 76.6 38.4998 77.1 38.8998L82.6 42.5998C82.9 42.7998 83.1 43.0998 83.1 43.3998L85 61.5998C85.1 62.1998 84.6 62.7998 84 62.8998C83.9 62.7998 83.9 62.7998 83.8 62.7998Z" fill="#371A45"/>
<path d="M83.8 62.8001C83.5 62.8001 83.3 62.7001 83.1 62.5001L69.2 50.7001C68.9 50.5001 68.8 50.2001 68.8 49.8001V43.2001C68.8 42.6001 69.3 42.1001 69.9 42.1001C70.5 42.1001 71 42.6001 71 43.2001V49.3001L84.5 60.8001C85 61.2001 85 61.9001 84.6 62.4001C84.5 62.7001 84.2 62.8001 83.8 62.8001Z" fill="#371A45"/>
<g opacity="0.3">
<path opacity="0.3" d="M83.8 61.6998L62.2 53.9998L64.7 45.9998L70 43.2998V49.8998L83.8 61.6998Z" fill="#371A45"/>
</g>
<path d="M94.0696 72.1927C97.1023 66.1758 94.0434 58.5172 87.2374 55.0867C80.4314 51.6563 72.4555 53.753 69.4228 59.7699C66.3901 65.7869 69.4489 73.4455 76.255 76.8759C83.061 80.3064 91.0369 78.2096 94.0696 72.1927Z" fill="#E4F2F9"/>
<path d="M83.1 78.8001C80.8 78.8001 78.4 78.2001 76.2 77.1001C72.9 75.4001 70.3 72.7001 69 69.4001C67.7 66.1001 67.8 62.7001 69.3 59.7001C72.4 53.6001 80.5 51.4001 87.4 54.9001C90.7 56.6001 93.3 59.3001 94.6 62.6001C95.9 65.9001 95.8 69.3001 94.3 72.3001C92.8 75.3001 90.1 77.4001 86.7 78.3001C85.5 78.6001 84.3 78.8001 83.1 78.8001ZM80.4 53.6001C75.8 53.6001 71.5 55.8001 69.5 59.8001C68.1 62.7001 68 66.0001 69.2 69.2001C70.5 72.4001 73 75.1001 76.2 76.7001C79.5 78.3001 83.1 78.8001 86.4 77.9001C89.7 77.0001 92.3 75.0001 93.8 72.1001C95.2 69.2001 95.3 65.9001 94.1 62.7001C92.8 59.5001 90.3 56.8001 87.1 55.2001C85 54.2001 82.7 53.6001 80.4 53.6001Z" fill="#371A45"/>
<g opacity="0.55">
<path opacity="0.55" d="M94.2 62.6998C92.8 60.7998 90.9 59.0998 88.6 57.8998C86 56.5998 83.2 56.0998 80.7 56.2998C81.2 58.8998 77.4 59.6998 76 57.4998C73.8 58.5998 71.9 60.2998 70.7 62.5998C69.2 65.5998 69.2 68.9998 70.4 72.0998C67.8 68.3998 67.2 63.6998 69.2 59.7998C72.2 53.7998 80.2 51.6998 87.1 55.0998C90.5 56.6998 93 59.4998 94.2 62.6998Z" fill="white"/>
</g>
<path opacity="0.15" d="M88.2651 69.2669C89.856 66.1105 88.2271 62.0806 84.6268 60.266C81.0265 58.4513 76.8182 59.539 75.2273 62.6954C73.6364 65.8519 75.2653 69.8817 78.8655 71.6964C82.4658 73.511 86.6742 72.4233 88.2651 69.2669Z" fill="#371A45"/>
<path d="M80.8 64.6C80.2 64.8 80.1 65 80.3 65.7C81 67.9 81.7 70 82.4 72.2C84.7 72.3 86.8 71.3 87.8 69.4C88.8 67.4 88.4 64.9 86.8 63C84.9 63.4 82.9 64 80.8 64.6Z" fill="#29A5DC"/>
<path d="M87.4 67.5997C87.3 67.6997 87.2 67.7997 87.2 67.8997C87.2 67.9997 87.1 67.9997 87 67.9997C86.4 67.6997 83.9 66.2997 83.8 66.1997C83.4 65.9997 82.8 66.0997 82.6 66.4997C82.5 66.6997 82.6 66.9997 82.9 67.1997C83 67.2997 83.8 67.6997 83.9 67.7997H84C84.1 67.6997 84.1 67.5997 84.2 67.4997L83.6 67.1997C83.7 67.0997 83.8 66.8997 83.9 66.7997L85 67.3997C84.7 67.7997 84.4 68.0997 84.1 68.4997L83.3 68.0997C83 67.8997 82.6 67.7997 82.3 67.4997C82 67.1997 81.8 66.6997 81.9 66.2997C82.1 65.7997 82.6 65.4997 83.3 65.5997C83.6 65.5997 83.8 65.6997 84 65.7997C84.3 65.8997 87.4 67.5997 87.4 67.5997Z" fill="#FCFCFC"/>
<path d="M85.6 67.5996C85.4 67.7996 85.3 67.9996 85.1 68.1996C85 68.3996 84.8 68.4996 84.7 68.6996C84.9 68.7996 85 68.7996 85.1 68.8996C85.1 68.8996 85.2 68.9996 85.3 68.8996C85.6 68.4996 85.8 68.1996 86.1 67.8996L85.6 67.5996Z" fill="#FCFCFC"/>
<path d="M78.4 66.0998C78.2 65.5998 77.9 65.4998 77.4 65.5998C76.7 65.7998 76 65.9998 75.3 66.1998C75.7 68.1998 77.1 70.0998 79.2 71.1998C79.5 71.3998 79.9 71.4998 80.2 71.6998C79.6 69.7998 79 67.8998 78.4 66.0998Z" fill="#FF00FF"/>
<path d="M79.1 61.9998C79.3 62.5998 79.6 62.7998 80.3 62.5998C81.9 62.0998 83.6 61.5998 85.2 61.1998C85 60.9998 84.7 60.8998 84.5 60.7998C82.5 59.6998 80.3 59.5998 78.6 60.2998C78.7 60.7998 78.9 61.3998 79.1 61.9998Z" fill="#29A5DC"/>
<path d="M77.2 62.7999C77.2 62.7999 76.9 61.8999 76.7 61.3999C76.3 61.7999 76 62.1999 75.8 62.6999C75.6 63.1999 75.4 63.5999 75.3 64.0999C75.9 63.8999 76.7 63.6999 76.8 63.5999C77.2 63.4999 77.3 63.1999 77.2 62.7999Z" fill="#FF00FF"/>
<g opacity="0.55">
<path opacity="0.55" d="M88.4 64.3999C89.4 66.1999 89.5 68.2999 88.6 70.0999C87.9 71.3999 86.9 72.3999 85.5 72.8999C85.8 74.4999 83.2 74.9999 82.5 73.3999C81.4 73.3999 80.3 73.0999 79.2 72.4999C77.4 71.5999 76.1 70.0999 75.4 68.3999C76.1 69.7999 77.3 70.8999 78.8 71.6999C82.4 73.4999 86.6 72.3999 88.2 69.1999C89 67.6999 89 65.9999 88.4 64.3999Z" fill="white"/>
</g>
<g opacity="0.3">
<path opacity="0.3" d="M84.6 60.3001C86.5 61.3001 87.9 62.9001 88.5 64.7001C87.8 63.5001 86.7 62.4001 85.2 61.6001C81.6 59.8001 77.4 60.9001 75.8 64.1001C75.1 65.6001 75 67.2001 75.5 68.7001C74.4 66.9001 74.2 64.6001 75.2 62.7001C76.9 59.6001 81.1 58.5001 84.6 60.3001Z" fill="#371A45"/>
</g>
<path d="M83.1 79.7001C80.6 79.7001 78.1 79.1001 75.8 77.9001C72.3 76.1001 69.6 73.2001 68.2 69.7001C66.8 66.2001 66.9 62.5001 68.5 59.3001C71.8 52.8001 80.5 50.4001 87.8 54.1001C91.3 55.9001 94 58.8001 95.4 62.3001C96.8 65.8001 96.7 69.5001 95.1 72.7001C93.5 75.9001 90.6 78.2001 86.9 79.2001C85.6 79.5001 84.4 79.7001 83.1 79.7001ZM80.4 54.5001C76.1 54.5001 72.2 56.6001 70.3 60.3001C69 62.9001 68.9 66.0001 70.1 69.0001C71.3 72.0001 73.6 74.5001 76.7 76.0001C79.8 77.5001 83.2 77.9001 86.3 77.1001C89.4 76.3001 91.8 74.4001 93.1 71.8001C94.4 69.2001 94.5 66.1001 93.3 63.1001C92.1 60.1001 89.8 57.6001 86.7 56.1001C84.7 55.0001 82.5 54.5001 80.4 54.5001Z" fill="#371A45"/>
<path d="M110.693 61.3797C113.726 55.3628 110.667 47.7042 103.861 44.2737C97.0547 40.8433 89.0789 42.94 86.0461 48.957C83.0134 54.9739 86.0723 62.6325 92.8783 66.0629C99.6843 69.4934 107.66 67.3966 110.693 61.3797Z" fill="#E4F2F9"/>
<g opacity="0.55">
<path opacity="0.55" d="M110.8 51.7999C109.4 49.8999 107.5 48.1999 105.2 46.9999C102.6 45.6999 99.8 45.1999 97.3 45.3999C97.8 47.9999 94 48.7999 92.6 46.5999C90.4 47.6999 88.5 49.3999 87.3 51.6999C85.8 54.6999 85.8 58.0999 87 61.1999C84.4 57.4999 83.8 52.7999 85.8 48.8999C88.8 42.8999 96.8 40.7999 103.7 44.1999C107.1 45.8999 109.6 48.6999 110.8 51.7999Z" fill="white"/>
</g>
<path opacity="0.15" d="M104.888 58.4539C106.479 55.2975 104.85 51.2676 101.25 49.453C97.6498 47.6383 93.4415 48.726 91.8505 51.8825C90.2596 55.0389 91.8885 59.0687 95.4888 60.8834C99.0891 62.698 103.297 61.6103 104.888 58.4539Z" fill="#371A45"/>
<path d="M97.9 53.7998C97.3 53.7998 97.1 53.9998 97.1 54.6998C97.1 56.9998 97 59.2998 97 61.6998C99.1 62.4998 101.4 62.1998 103 60.5998C104.6 58.8998 105 56.3998 104.2 53.9998C102 53.8998 100 53.8998 97.9 53.7998Z" fill="#29A5DC"/>
<path d="M103.1 58.9001C103 59.0001 102.9 59.0001 102.8 59.1001C102.7 59.1001 102.6 59.1001 102.6 59.1001C102.1 58.6001 100.3 56.5001 100.2 56.4001C99.9 56.1001 99.3 56.0001 99 56.3001C98.8 56.5001 98.8 56.8001 99 57.1001C99.1 57.2001 99.7 57.9001 99.8 58.0001H99.9C100 57.9001 100.1 57.9001 100.2 57.8001L99.7 57.3001C99.8 57.2001 100 57.1001 100.1 57.0001L101 58.0001C100.6 58.3001 100.2 58.5001 99.8 58.8001L99.2 58.2001C98.9 57.9001 98.7 57.7001 98.5 57.3001C98.3 56.9001 98.3 56.4001 98.5 56.0001C98.9 55.5001 99.4 55.5001 100 55.7001C100.2 55.8001 100.4 55.9001 100.6 56.1001C100.7 56.2001 103 58.8001 103.1 58.9001Z" fill="#FCFCFC"/>
<path d="M101.3 58.3003C101.1 58.4003 100.9 58.6003 100.6 58.7003C100.4 58.8003 100.2 58.9003 100.1 59.1003C100.2 59.2003 100.3 59.3003 100.4 59.5003C100.4 59.5003 100.5 59.6003 100.6 59.5003C101 59.2003 101.3 59.0003 101.7 58.7003L101.3 58.3003Z" fill="#FCFCFC"/>
<path d="M95.1 54.5001C95.1 54.0001 94.8 53.7001 94.4 53.7001C93.7 53.7001 93 53.6001 92.3 53.6001C92 55.7001 92.7 58.0001 94.2 59.7001C94.4 60.0001 94.7 60.2001 95 60.5001C95.1 58.5001 95.1 56.5001 95.1 54.5001Z" fill="#FF00FF"/>
<path d="M97.1 50.7999C97.1 51.4999 97.3 51.7999 98 51.7999C99.7 51.7999 101.3 51.8999 103 51.8999C102.8 51.6999 102.7 51.4999 102.5 51.2999C101 49.5999 99 48.7999 97.2 48.8999C97.1 49.4999 97.1 50.0999 97.1 50.7999Z" fill="#29A5DC"/>
<path d="M95.1 50.8999C95.1 50.8999 95.1 49.9999 95.1 49.3999C94.6 49.5999 94.2 49.9999 93.8 50.3999C93.4 50.7999 93.1 51.1999 92.9 51.5999C93.5 51.5999 94.3 51.5999 94.5 51.5999C94.9 51.5999 95.1 51.3999 95.1 50.8999Z" fill="#FF00FF"/>
<g opacity="0.55">
<path opacity="0.55" d="M105 53.6001C106 55.4001 106.1 57.5001 105.2 59.3001C104.5 60.6001 103.5 61.6001 102.1 62.1001C102.4 63.7001 99.8 64.2001 99.1 62.6001C98 62.6001 96.9 62.3001 95.8 61.7001C94 60.8001 92.7 59.3001 92 57.6001C92.7 59.0001 93.9 60.1001 95.4 60.9001C99 62.7001 103.2 61.6001 104.8 58.4001C105.6 56.9001 105.6 55.2001 105 53.6001Z" fill="white"/>
</g>
<g opacity="0.3">
<path opacity="0.3" d="M101.2 49.5003C103.1 50.5003 104.5 52.1003 105.1 53.9003C104.4 52.7003 103.3 51.6003 101.8 50.8003C98.2 49.0003 94 50.1003 92.4 53.3003C91.7 54.8003 91.6 56.4003 92.1 57.9003C91 56.1003 90.8 53.8003 91.8 51.9003C93.5 48.8003 97.7 47.7003 101.2 49.5003Z" fill="#371A45"/>
</g>
<path d="M99.7 68.9003C97.3 68.9003 94.8 68.3003 92.4 67.1003C88.9 65.3003 86.2 62.4003 84.8 58.9003C83.4 55.4003 83.5 51.7003 85.1 48.5003C88.4 42.0003 97.1 39.6003 104.4 43.3003C107.9 45.1003 110.6 48.0003 112 51.5003C113.4 55.0003 113.3 58.7003 111.7 61.9003C109.4 66.4003 104.7 68.9003 99.7 68.9003ZM97 43.7003C92.7 43.7003 88.8 45.8003 86.9 49.5003C85.6 52.1003 85.5 55.2003 86.7 58.2003C87.9 61.2003 90.2 63.7003 93.3 65.2003C99.6 68.4003 107 66.5003 109.7 61.0003C111 58.4003 111.1 55.3003 109.9 52.3003C108.7 49.3003 106.4 46.8003 103.3 45.3003C101.3 44.2003 99.1 43.7003 97 43.7003Z" fill="#371A45"/>
<path d="M127.283 80.7861C133.144 77.4623 134.847 69.3938 131.087 62.7646C127.328 56.1354 119.529 53.4558 113.668 56.7796C107.808 60.1034 106.105 68.1719 109.864 74.8011C113.624 81.4303 121.423 84.1099 127.283 80.7861Z" fill="#E4F2F9"/>
<path d="M121.8 82.5C120.4 82.5 119.1 82.3 117.7 81.8C114.4 80.7 111.5 78.2 109.7 75C107.9 71.7 107.2 68.1 108 64.6C108.7 61.1 110.7 58.3 113.6 56.7C116.5 55.1 119.9 54.8 123.3 55.9C126.6 57 129.5 59.5 131.3 62.7C133.1 66 133.8 69.6 133 73.1C132.3 76.6 130.3 79.4 127.4 81C125.7 82 123.8 82.5 121.8 82.5ZM119.1 55.5C117.2 55.5 115.4 56 113.7 56.9C110.9 58.5 109 61.2 108.3 64.6C107.6 68 108.2 71.6 110 74.8C111.8 78 114.6 80.3 117.8 81.5C121 82.6 124.4 82.4 127.2 80.8C130 79.2 131.9 76.5 132.6 73.1C133.3 69.7 132.7 66.1 130.9 62.9C129.1 59.7 126.3 57.4 123.1 56.2C121.8 55.8 120.4 55.5 119.1 55.5Z" fill="#371A45"/>
<g opacity="0.55">
<path opacity="0.55" d="M132.7 72.8998C132.6 70.4998 132 68.0998 130.7 65.7998C129.3 63.2998 127.3 61.2998 125 60.0998C124 62.4998 120.3 61.0998 120.5 58.4998C118 58.0998 115.5 58.4998 113.3 59.7998C110.4 61.4998 108.5 64.2998 107.8 67.4998C107.7 62.9998 109.8 58.7998 113.6 56.5998C119.5 53.2998 127.3 55.9998 131.1 62.5998C132.9 65.8998 133.4 69.5998 132.7 72.8998Z" fill="white"/>
</g>
<path opacity="0.15" d="M124.077 75.1333C127.151 73.3896 128.031 69.1334 126.043 65.6266C124.054 62.1199 119.949 60.6906 116.875 62.4342C113.8 64.1778 112.92 68.4341 114.909 71.9409C116.898 75.4476 121.002 76.8769 124.077 75.1333Z" fill="#371A45"/>
<g opacity="0.55">
<path opacity="0.55" d="M126.9 71.0997C126.7 73.0997 125.7 74.8997 123.9 75.8997C122.6 76.5997 121.2 76.7997 119.8 76.4997C119.1 77.9997 116.8 76.9997 117 75.2997C116.1 74.6997 115.3 73.7997 114.7 72.6997C113.7 70.8997 113.4 68.8997 113.8 67.1997C113.6 68.6997 114 70.3997 114.8 71.8997C116.8 75.3997 120.9 76.7997 124 74.9997C125.5 74.2997 126.5 72.7997 126.9 71.0997Z" fill="white"/>
</g>
<g opacity="0.3">
<path opacity="0.3" d="M126 65.6998C127.1 67.5998 127.3 69.6998 126.8 71.4998C126.9 70.0998 126.6 68.4998 125.8 67.0998C123.8 63.5998 119.7 62.1998 116.6 63.9998C115.2 64.7998 114.2 66.1998 113.8 67.6998C113.9 65.5998 115 63.5998 116.8 62.5998C120 60.7998 124.1 62.1998 126 65.6998Z" fill="#371A45"/>
</g>
<path d="M121.8 83.3998C120.3 83.3998 118.9 83.1998 117.4 82.5998C113.9 81.3998 110.8 78.7998 108.9 75.3998C106.9 71.9998 106.3 67.9998 107.1 64.3998C107.9 60.6998 110 57.6998 113.1 55.8998C116.2 54.0998 119.9 53.7998 123.5 55.0998C127 56.2998 130.1 58.8998 132 62.2998C134 65.6998 134.6 69.6998 133.8 73.2998C133 76.9998 130.9 79.9998 127.8 81.7998C126 82.7998 123.9 83.3998 121.8 83.3998ZM119.1 56.3998C117.4 56.3998 115.7 56.7998 114.1 57.6998C111.5 59.1998 109.8 61.6998 109.1 64.7998C108.4 67.9998 109 71.2998 110.7 74.2998C112.4 77.2998 115 79.4998 118.1 80.5998C121.1 81.5998 124.2 81.3998 126.7 79.8998C129.3 78.3998 131 75.8998 131.7 72.7998C132.4 69.5998 131.8 66.2998 130.1 63.2998C128.4 60.2998 125.8 58.0998 122.7 56.9998C121.6 56.5998 120.3 56.3998 119.1 56.3998Z" fill="#371A45"/>
<path d="M120.3 67.1002C119.7 67.0002 119.4 67.2002 119.3 67.8002C118.9 70.1002 118.5 72.4002 118 74.7002C119.9 75.9002 122.3 75.9002 124.1 74.6002C126 73.2002 126.7 70.8002 126.4 68.3002C124.3 67.9002 122.3 67.5002 120.3 67.1002Z" fill="#29A5DC"/>
<path d="M124.5 72.9C124.4 73 124.3 73 124.1 73.1C124 73.1 123.9 73.1 123.9 73C123.5 72.4 122 70.1 121.9 69.9C121.6 69.5 121.1 69.4 120.8 69.6C120.6 69.8 120.5 70.1 120.7 70.4C120.8 70.5 121.3 71.3 121.3 71.4C121.3 71.4 121.3 71.4 121.4 71.4C121.5 71.4 121.6 71.3 121.7 71.3L121.3 70.7C121.5 70.6 121.6 70.5 121.8 70.5L122.5 71.6C122.1 71.8 121.6 72 121.2 72.2L120.7 71.5C120.5 71.2 120.3 70.9 120.1 70.5C119.9 70.1 120 69.5 120.3 69.3C120.8 68.9 121.3 68.9 121.8 69.3C122 69.4 122.2 69.6 122.3 69.8C122.6 69.9 124.5 72.9 124.5 72.9Z" fill="#FCFCFC"/>
<path d="M122.9 72.1001C122.7 72.2001 122.4 72.3001 122.2 72.4001C122 72.5001 121.8 72.6001 121.6 72.7001C121.7 72.9001 121.8 73.0001 121.9 73.1001C121.9 73.1001 122 73.2001 122.1 73.2001C122.5 73.0001 122.9 72.8001 123.3 72.6001L122.9 72.1001Z" fill="#FCFCFC"/>
<path d="M117.4 67.3C117.5 66.8 117.3 66.5 116.8 66.4C116.1 66.3 115.4 66.1 114.7 66C114.1 68 114.4 70.4 115.6 72.4C115.8 72.7 116 73 116.3 73.3C116.7 71.3 117.1 69.3 117.4 67.3Z" fill="#FF00FF"/>
<path d="M120 63.9C119.9 64.6 120.1 64.9 120.7 65C122.3 65.3 124 65.6 125.6 65.9C125.5 65.7 125.3 65.4 125.2 65.2C124 63.3 122.2 62.2 120.3 62C120.2 62.7 120.1 63.3 120 63.9Z" fill="#29A5DC"/>
<path d="M118 63.7998C118 63.7998 118.1 62.8998 118.2 62.2998C117.7 62.4998 117.2 62.6998 116.8 62.9998C116.4 63.2998 116 63.6998 115.7 64.0998C116.3 64.1998 117.1 64.2998 117.3 64.3998C117.7 64.3998 117.9 64.2998 118 63.7998Z" fill="#FF00FF"/>
<path d="M114.2 56.4997L100.3 74.6997L83.4 59.1997L88.8 52.7997L107.8 51.1997L114.2 56.4997Z" fill="#FF00FF"/>
<g opacity="0.55">
<path opacity="0.55" d="M100.3 74.6997L105.5 57.1997L101.9 51.6997L107.8 51.1997L114.2 56.4997L100.3 74.6997Z" fill="white"/>
</g>
<g opacity="0.55">
<path opacity="0.55" d="M114.2 56.4997L112.9 58.1997L106.8 53.1997L87.7 54.8997L83.8 59.5997L83.4 59.1997L88.8 52.7997L107.8 51.1997L114.2 56.4997Z" fill="white"/>
</g>
<path d="M100.3 75.8999C100 75.8999 99.7 75.7999 99.5 75.5999L82.6 59.9999C82.1 59.5999 82.1 58.8999 82.5 58.3999L87.9 51.9999C88.1 51.7999 88.4 51.5999 88.7 51.5999L107.8 49.8999C108.1 49.8999 108.4 49.9999 108.6 50.1999L115 55.4999C115.5 55.8999 115.5 56.5999 115.2 57.0999L101.3 75.2999C101.1 75.5999 100.8 75.6999 100.5 75.6999C100.4 75.7999 100.3 75.8999 100.3 75.8999ZM85 59.0999L100.2 72.9999L112.7 56.5999L107.5 52.2999L89.4 53.8999L85 59.0999Z" fill="#371A45"/>
<path d="M83.4 60.3C82.8 60.3 82.3 59.9 82.3 59.3C82.2 58.7 82.7 58.1 83.3 58.1L114.2 55.4C114.8 55.3 115.4 55.8 115.4 56.4C115.5 57 115 57.6 114.4 57.6L83.5 60.3C83.4 60.3 83.4 60.3 83.4 60.3Z" fill="#371A45"/>
<path d="M100.3 75.8997C100.2 75.8997 100.1 75.8997 100 75.8997C99.4 75.6997 99.1 75.0997 99.2 74.4997L104.3 57.4997L101 52.3997C100.7 51.8997 100.8 51.1997 101.3 50.7997C101.8 50.3997 102.5 50.5997 102.9 51.0997L106.5 56.6997C106.7 56.9997 106.7 57.2997 106.6 57.5997L101.4 74.9997C101.3 75.4997 100.8 75.8997 100.3 75.8997Z" fill="#371A45"/>
<path d="M100.3 75.8998C99.9 75.8998 99.5 75.6998 99.3 75.2998L91.1 58.9998C90.9 58.6998 90.9 58.3998 91.1 57.9998L93.7 51.8998C93.9 51.2998 94.6 50.9998 95.2 51.2998C95.8 51.4998 96.1 52.1998 95.8 52.7998L93.4 58.3998L101.4 74.1998C101.7 74.7998 101.5 75.3998 100.9 75.6998C100.7 75.7998 100.5 75.8998 100.3 75.8998Z" fill="#371A45"/>
<g opacity="0.3">
<path opacity="0.3" d="M100.3 74.7003L83.4 59.2003L88.8 52.8003L94.7 52.3003L92.1 58.4003L100.3 74.7003Z" fill="#6B184E"/>
<path opacity="0.3" d="M100.3 74.9001H100.2L83.3 59.3001C83.2 59.2001 83.2 59.1001 83.3 59.1001L88.7 52.7001L88.8 52.6001L94.7 52.1001C94.8 52.1001 94.8 52.1001 94.9 52.2001C94.9 52.3001 94.9 52.3001 94.9 52.4001L92.4 58.4001L100.6 74.6001C100.6 74.7001 100.6 74.8001 100.5 74.8001C100.4 74.9001 100.3 74.9001 100.3 74.9001ZM83.6 59.2001L99.7 73.9001L91.9 58.5001C91.9 58.5001 91.9 58.4001 91.9 58.3001L94.3 52.5001L88.8 53.0001L83.6 59.2001Z" fill="#371A45"/>
</g>
<path d="M57.2641 77.4948C64.8803 77.2047 70.8465 71.5112 70.59 64.778C70.3335 58.0448 63.9514 52.8217 56.3352 53.1119C48.719 53.402 42.7528 59.0955 43.0093 65.8287C43.2658 72.5618 49.6479 77.7849 57.2641 77.4948Z" fill="#E4F2F9"/>
<path d="M56.7 77.7999C53.2 77.7999 49.9 76.6999 47.3 74.4999C44.6 72.2999 43 69.1999 42.9 65.8999C42.8 62.5999 44.1 59.3999 46.7 56.9999C49.3 54.5999 52.7 53.0999 56.5 52.9999C60.2 52.8999 63.8 53.9999 66.5 56.1999C69.2 58.3999 70.8 61.4999 70.9 64.7999C71 68.0999 69.7 71.2999 67.1 73.6999C64.5 76.0999 61.1 77.5999 57.3 77.6999C57.1 77.7999 56.9 77.7999 56.7 77.7999ZM56.4 53.2999C52.8 53.3999 49.4 54.7999 46.9 57.1999C44.4 59.5999 43.1 62.5999 43.2 65.8999C43.3 69.0999 44.9 72.0999 47.5 74.2999C50.2 76.4999 53.6 77.5999 57.3 77.4999C60.9 77.3999 64.3 75.9999 66.8 73.5999C69.3 71.1999 70.6 68.1999 70.5 64.8999C70.4 61.6999 68.8 58.6999 66.2 56.4999C63.5 54.2999 60 53.1999 56.4 53.2999Z" fill="#371A45"/>
<g opacity="0.55">
<path opacity="0.55" d="M66.1 56.3995C64 55.3995 61.5 54.7995 58.9 54.8995C56 54.9995 53.3 55.8995 51.2 57.2995C52.9 59.2995 50 61.8995 47.7 60.5995C46.3 62.5995 45.4 64.9995 45.5 67.5995C45.6 70.9995 47.3 73.8995 49.8 75.9995C45.7 73.9995 42.9 70.1995 42.8 65.7995C42.5 59.0995 48.5 53.2995 56.2 53.0995C60 52.9995 63.5 54.1995 66.1 56.3995Z" fill="white"/>
</g>
<path opacity="0.15" d="M57.0433 71.6987C61.0722 71.5452 64.2291 68.5574 64.0946 65.0253C63.96 61.4931 60.5849 58.7542 56.556 58.9076C52.5272 59.0611 49.3702 62.0489 49.5048 65.5811C49.6393 69.1132 53.0145 71.8522 57.0433 71.6987Z" fill="#371A45"/>
<path d="M55.2 64.7996C54.9 65.2996 55 65.5996 55.5 65.9996C57.5 67.1996 59.5 68.3996 61.5 69.5996C63.3 68.1996 64.1 65.9996 63.5 63.8996C62.9 61.6996 60.8 60.0996 58.4 59.5996C57.4 61.1996 56.3 62.9996 55.2 64.7996Z" fill="#29A5DC"/>
<path d="M62.2 62.7998C62.2 62.8998 62.2 63.0998 62.2 63.1998C62.2 63.2998 62.1 63.3998 62.1 63.3998C61.4 63.4998 58.7 64.0998 58.5 64.1998C58 64.2998 57.7 64.7998 57.8 65.1998C57.9 65.4998 58.2 65.5998 58.5 65.5998C58.6 65.5998 59.5 65.3998 59.6 65.3998H59.7C59.7 65.2998 59.7 65.1998 59.7 64.9998H59C59 64.7998 59 64.5998 59 64.4998L60.3 64.1998C60.3 64.6998 60.4 65.1998 60.4 65.5998L59.6 65.7998C59.2 65.8998 58.9 65.9998 58.5 65.9998C58.1 65.9998 57.6 65.6998 57.4 65.2998C57.2 64.6998 57.4 64.1998 57.9 63.7998C58.1 63.5998 58.3 63.4998 58.6 63.4998C58.7 63.4998 62.1 62.7998 62.2 62.7998Z" fill="#FCFCFC"/>
<path d="M60.8 64C60.8 64.3 60.8 64.5 60.9 64.8C60.9 65 60.9 65.2 61 65.5C61.2 65.5 61.3 65.4 61.5 65.4C61.5 65.4 61.6 65.4 61.6 65.3C61.6 64.8 61.5 64.4 61.5 64H60.8Z" fill="#FCFCFC"/>
<path d="M54.4 67.4996C54 67.1996 53.6 67.2996 53.3 67.6996C52.9 68.2996 52.6 68.8996 52.2 69.4996C53.8 70.7996 56.2 71.2996 58.5 70.8996C58.9 70.7996 59.2 70.6996 59.6 70.5996C57.9 69.5996 56.1 68.4996 54.4 67.4996Z" fill="#FF00FF"/>
<path d="M52.2 63.8998C52.8 64.2998 53.2 64.1998 53.5 63.5998C54.4 62.1998 55.2 60.6998 56.1 59.2998C55.8 59.2998 55.6 59.3998 55.3 59.3998C53.1 59.8998 51.4 61.1998 50.6 62.8998C51.1 63.2998 51.6 63.5998 52.2 63.8998Z" fill="#29A5DC"/>
<path d="M51.3 65.7C51.3 65.7 50.5 65.3 49.9 65C49.9 65.5 49.9 66.1 50.1 66.6C50.2 67.1 50.5 67.6 50.7 68C51 67.4 51.4 66.8 51.5 66.6C51.8 66.3 51.7 66 51.3 65.7Z" fill="#FF00FF"/>
<g opacity="0.55">
<path opacity="0.55" d="M61.9 60.6997C63.6 61.7997 64.7 63.5997 64.8 65.5997C64.9 67.0997 64.4 68.3997 63.5 69.4997C64.5 70.7997 62.5 72.3997 61.2 71.3997C60.2 71.8997 59.1 72.1997 57.9 72.2997C55.9 72.3997 54 71.6997 52.6 70.4997C53.9 71.2997 55.5 71.7997 57.2 71.6997C61.2 71.4997 64.3 68.5997 64.2 64.9997C64 63.2997 63.2 61.7997 61.9 60.6997Z" fill="white"/>
</g>
<g opacity="0.3">
<path opacity="0.3" d="M56.6 58.8995C58.8 58.7995 60.7 59.5995 62.1 60.8995C60.9 60.1995 59.4 59.6995 57.8 59.7995C53.8 59.9995 50.7 62.8995 50.8 66.4995C50.9 68.0995 51.6 69.5995 52.8 70.6995C51 69.5995 49.7 67.7995 49.6 65.5995C49.5 62.0995 52.6 59.0995 56.6 58.8995Z" fill="#371A45"/>
</g>
<path d="M56.7 78.6997C53 78.6997 49.5 77.4997 46.7 75.1997C43.8 72.7997 42.1 69.4997 41.9 65.8997C41.8 62.2997 43.2 58.8997 46 56.2997C48.7 53.6997 52.4 52.1997 56.3 52.0997C60.3 51.8997 64 53.1997 66.9 55.4997C69.8 57.8997 71.5 61.1997 71.7 64.7997C71.8 68.3997 70.4 71.7997 67.6 74.3997C64.9 76.9997 61.2 78.4997 57.3 78.5997C57.1 78.5997 56.9 78.6997 56.7 78.6997ZM56.4 54.1997C53 54.2997 49.8 55.5997 47.5 57.8997C45.2 60.0997 44 62.8997 44.1 65.8997C44.2 68.8997 45.6 71.5997 48.1 73.5997C50.6 75.5997 53.9 76.6997 57.3 76.5997C60.7 76.4997 63.9 75.1997 66.2 72.8997C68.5 70.6997 69.7 67.8997 69.6 64.8997C69.5 61.8997 68.1 59.1997 65.6 57.1997C63.1 55.0997 59.9 54.0997 56.4 54.1997Z" fill="#371A45"/>
<path d="M53.1 74.4998L35 65.4998C33.9 64.9998 33.5 63.6998 34 62.5998L35.8 58.8998C36.3 57.7998 37.6 57.3998 38.7 57.8998L56.8 66.8998C57.9 67.3998 58.3 68.6998 57.8 69.7998L56 73.4998C55.4 74.5998 54.1 74.9998 53.1 74.4998Z" fill="#E4F2F9"/>
<g opacity="0.55">
<path opacity="0.55" d="M53.2811 65.4689L50.1465 63.9121L46.5881 71.0769L49.7227 72.6337L53.2811 65.4689Z" fill="white"/>
</g>
<path opacity="0.15" d="M42.8113 60.2779L36.9899 57.3867L33.4315 64.5515L39.2529 67.4427L42.8113 60.2779Z" fill="#371A45"/>
<g opacity="0.55">
<path opacity="0.55" d="M56.3727 67.1542L54.5815 66.2646L51.0231 73.4294L52.8143 74.319L56.3727 67.1542Z" fill="white"/>
</g>
<path d="M54 75.8999C53.5 75.8999 53 75.7999 52.6 75.5999L34.5 66.5999C33.7 66.1999 33.1 65.4999 32.9 64.6999C32.6 63.8999 32.7 62.9999 33.1 62.1999L34.9 58.4999C35.7 56.8999 37.7 56.1999 39.3 56.9999L57.4 65.9999C58.2 66.3999 58.8 67.0999 59 67.8999C59.3 68.6999 59.2 69.5999 58.8 70.3999L57 74.0999C56.6 74.8999 55.9 75.4999 55.1 75.6999C54.7 75.7999 54.3 75.8999 54 75.8999ZM53.6 73.4999C53.8 73.5999 54.1 73.5999 54.4 73.5999C54.6 73.4999 54.9 73.2999 55 73.0999L56.8 69.3999C56.9 69.1999 56.9 68.8999 56.9 68.5999C56.8 68.3999 56.6 68.0999 56.4 67.9999L38.3 58.9999C37.8 58.7999 37.2 58.9999 37 59.3999L35 63.1999C34.9 63.3999 34.9 63.6999 34.9 63.9999C35 64.1999 35.2 64.4999 35.4 64.5999L53.6 73.4999Z" fill="#371A45"/>
<path d="M119 70.4003L99.7 76.2003C98.6 76.5003 97.4 75.9003 97.1 74.8003L95.9 70.9003C95.6 69.8003 96.2 68.6003 97.3 68.3003L116.6 62.5003C117.7 62.2003 118.9 62.8003 119.2 63.9003L120.4 67.8003C120.8 68.8003 120.2 70.0003 119 70.4003Z" fill="#E4F2F9"/>
<g opacity="0.55">
<path opacity="0.55" d="M113.08 63.5526L109.727 64.5571L112.023 72.2203L115.376 71.2158L113.08 63.5526Z" fill="white"/>
</g>
<path opacity="0.15" d="M101.813 66.9167L95.5864 68.7822L97.8824 76.4454L104.109 74.5799L101.813 66.9167Z" fill="#371A45"/>
<g opacity="0.55">
<path opacity="0.55" d="M116.399 62.6863L114.483 63.2603L116.779 70.9235L118.695 70.3495L116.399 62.6863Z" fill="white"/>
</g>
<path d="M99.1 77.4001C98.6 77.4001 98 77.3001 97.6 77.0001C96.8 76.6001 96.3 75.9001 96 75.1001L94.8 71.2001C94.3 69.5001 95.3 67.7001 97 67.1001L116.3 61.3001C117.1 61.0001 118 61.1001 118.8 61.6001C119.6 62.0001 120.1 62.7001 120.4 63.5001L121.6 67.4001C121.9 68.2001 121.8 69.1001 121.3 69.9001C120.9 70.7001 120.2 71.2001 119.4 71.5001L100 77.3001C99.7 77.3001 99.4 77.4001 99.1 77.4001ZM117.3 63.4001C117.2 63.4001 117.1 63.4001 117 63.4001L97.7 69.2001C97.2 69.4001 96.9 69.9001 97 70.4001L98.2 74.3001C98.3 74.6001 98.4 74.8001 98.7 74.9001C98.9 75.0001 99.2 75.1001 99.5 75.0001L118.8 69.2001C119.1 69.1001 119.3 69.0001 119.4 68.7001C119.5 68.5001 119.6 68.2001 119.5 67.9001L118.3 64.0001C118.2 63.7001 118.1 63.5001 117.8 63.4001C117.6 63.5001 117.4 63.4001 117.3 63.4001Z" fill="#371A45"/>
<path d="M157.7 88.1997L155 119C154 118.7 152.9 118.6 151.8 118.6C150.5 118.6 149.3 118.8 148.2 119.1C144.3 120.2 141.2 123.2 139.8 126.9C139.3 128.3 139 129.8 139 131.4C139 132.2 139.1 133 139.2 133.7H59.4C59.5 133 59.6 132.2 59.6 131.4C59.6 129.8 59.3 128.3 58.8 126.9C57.4 123.1 54.2 120.1 50.2 119C49.1 118.7 48 118.5 46.8 118.5C45.6 118.5 44.4 118.7 43.4 119L40.8 88.0997C41.7 88.2997 42.6 88.3997 43.6 88.3997C45 88.3997 46.4 88.1997 47.6 87.7997C52 86.3997 55.3 82.5997 56.2 78.0997C56.4 77.2997 56.4 76.4997 56.4 75.5997C56.4 74.0997 56.1 72.5997 55.6 71.1997H143.5C143 72.5997 142.7 73.9997 142.7 75.5997C142.7 76.4997 142.8 77.2997 142.9 78.0997C143.8 82.4997 146.8 85.9997 150.9 87.5997C152.3 88.1997 153.9 88.4997 155.6 88.4997C156.3 88.3997 157 88.2997 157.7 88.1997Z" fill="#FFD553"/>
<path d="M139.1 133.9H59.4C59.3 133.9 59.3 133.9 59.3 133.8V133.7C59.4 133 59.5 132.2 59.5 131.4C59.5 129.9 59.2 128.3 58.7 126.9C57.3 123.1 54.1 120.2 50.2 119.1C48 118.5 45.6 118.5 43.4 119.1C43.3 119.1 43.3 119.1 43.2 119.1L43.1 119L40.5 88.0999C40.5 87.9999 40.5 87.9999 40.6 87.8999C40.6 87.8999 40.7 87.7999 40.8 87.8999C43.1 88.3999 45.4 88.2999 47.5 87.5999C51.8 86.1999 55.1 82.4999 56 77.9999C56.2 77.1999 56.2 76.3999 56.2 75.4999C56.2 73.9999 55.9 72.5999 55.5 71.1999C55.5 71.0999 55.5 71.0999 55.5 70.9999L55.6 70.8999H143.5C143.6 70.8999 143.6 70.8999 143.6 70.9999C143.6 71.0999 143.6 71.0999 143.6 71.1999C143.1 72.5999 142.9 73.9999 142.9 75.4999C142.9 76.2999 143 77.1999 143.1 77.9999C143.9 82.1999 146.9 85.7999 151 87.3999C152.5 87.9999 154 88.2999 155.6 88.2999C156.3 88.2999 157 88.1999 157.7 88.0999C157.8 88.0999 157.8 88.0999 157.9 88.0999L158 88.1999L155.3 119C155.3 119.1 155.3 119.1 155.2 119.1C155.1 119.1 155.1 119.1 155.1 119.1C152.9 118.5 150.5 118.6 148.3 119.2C144.5 120.3 141.4 123.2 140 126.9C139.5 128.3 139.2 129.8 139.2 131.4C139.2 132.2 139.3 132.9 139.4 133.7C139.4 133.8 139.4 133.8 139.4 133.8C139.2 133.9 139.1 133.9 139.1 133.9ZM59.6 133.5H138.9C138.8 132.8 138.7 132.1 138.7 131.4C138.7 129.8 139 128.3 139.5 126.8C140.9 123 144.1 120 148 118.9C150.2 118.3 152.5 118.2 154.8 118.7L157.5 88.3999C156.9 88.4999 156.2 88.4999 155.6 88.4999C154 88.4999 152.4 88.1999 150.9 87.5999C146.8 85.9999 143.7 82.2999 142.8 77.9999C142.6 77.1999 142.6 76.2999 142.6 75.4999C142.6 74.0999 142.8 72.6999 143.3 71.2999H55.8C56.3 72.5999 56.5 73.9999 56.5 75.4999C56.5 76.3999 56.4 77.1999 56.3 77.9999C55.4 82.5999 52.1 86.3999 47.6 87.8999C45.5 88.5999 43.2 88.6999 40.9 88.2999L43.4 118.8C45.6 118.2 48 118.2 50.2 118.8C54.2 119.9 57.5 122.9 58.9 126.8C59.5 128.3 59.7 129.8 59.7 131.4C59.7 132.1 59.7 132.8 59.6 133.5Z" fill="#371A45"/>
<path d="M157.7 88.2002L155 119C154 118.7 152.9 118.6 151.8 118.6C150.5 118.6 149.3 118.8 148.2 119.1C144.3 120.2 141.2 123.2 139.8 126.9C139.3 128.3 139 129.8 139 131.4C139 132.2 139.1 133 139.2 133.7H59.4C59.5 133 59.6 132.2 59.6 131.4C59.6 129.8 59.3 128.3 58.8 126.9C57.4 123.1 54.2 120.1 50.2 119C49.1 118.7 48 118.5 46.8 118.5C45.6 118.5 44.4 118.7 43.4 119L40.8 88.1002C41.7 88.3002 42.6 88.4002 43.6 88.4002C45 88.4002 46.4 88.2002 47.6 87.8002C52 86.4002 55.3 82.6002 56.2 78.1002C56.4 77.3002 56.4 76.5002 56.4 75.6002C56.4 74.1002 56.1 72.6002 55.6 71.2002H143.5C143 72.6002 142.7 74.0002 142.7 75.6002C142.7 76.5002 142.8 77.3002 142.9 78.1002C143.8 82.5002 146.8 86.0002 150.9 87.6002C152.3 88.2002 153.9 88.5002 155.6 88.5002C156.3 88.4002 157 88.3002 157.7 88.2002Z" fill="#33AEF1"/>
<g opacity="0.55">
<path opacity="0.55" d="M59.5 132.6C59.5 133 59.6 133.3 59.6 133.7H59.4C59.4 133.4 59.5 133 59.5 132.6Z" fill="white"/>
<path opacity="0.55" d="M59.6 133.9H59.4C59.3 133.9 59.3 133.9 59.3 133.8V133.7C59.4 133.4 59.4 133 59.4 132.6C59.4 132.5 59.5 132.4 59.6 132.4C59.7 132.4 59.8 132.5 59.8 132.6C59.8 132.9 59.9 133.3 59.9 133.7C59.9 133.7 59.9 133.8 59.8 133.8C59.7 133.9 59.6 133.9 59.6 133.9Z" fill="#371A45"/>
</g>
<g opacity="0.55">
<path opacity="0.55" d="M56.2 73.6002C56.1 72.8002 55.9 71.9002 55.6 71.2002H143.5C143.2 72.0002 143 72.8002 142.9 73.6002H56.2Z" fill="white"/>
</g>
<path d="M139.1 134.9H59.4C59.1 134.9 58.7 134.7 58.5 134.5C58.3 134.2 58.2 133.9 58.3 133.6C58.4 132.9 58.5 132.2 58.5 131.5C58.5 130.1 58.2 128.7 57.7 127.4C56.4 123.9 53.4 121.2 49.8 120.2C47.8 119.6 45.6 119.6 43.5 120.2C43.2 120.3 42.8 120.2 42.5 120C42.2 119.8 42 119.5 42 119.2L39.4 88.3C39.4 87.9 39.5 87.6 39.8 87.3C40.1 87.1 40.4 87 40.8 87C42.9 87.5 45.1 87.3 47 86.7C51 85.4 54 82 54.8 77.8C54.9 77.1 55 76.3 55 75.5C55 74.1 54.8 72.8 54.3 71.5C54.2 71.2 54.2 70.8 54.4 70.5C54.6 70.2 55 70 55.3 70H143.2C143.6 70 143.9 70.2 144.1 70.5C144.3 70.8 144.4 71.2 144.2 71.5C143.7 72.8 143.5 74.1 143.5 75.5C143.5 76.3 143.6 77 143.7 77.8C144.5 81.7 147.2 85 151 86.5C152.4 87 153.8 87.3 155.2 87.3C155.9 87.3 156.5 87.2 157.2 87.1C157.5 87 157.9 87.1 158.2 87.4C158.5 87.6 158.6 88 158.6 88.3L155.9 119.1C155.9 119.4 155.7 119.7 155.4 119.9C155.1 120.1 154.8 120.2 154.5 120.1C152.5 119.6 150.3 119.6 148.2 120.2C144.7 121.2 141.8 123.9 140.5 127.3C140 128.6 139.7 130 139.7 131.4C139.7 132.1 139.8 132.8 139.9 133.5C140 133.8 139.9 134.2 139.7 134.4C139.7 134.7 139.4 134.9 139.1 134.9ZM60.7 132.6H137.8C137.8 132.2 137.8 131.8 137.8 131.4C137.8 129.7 138.1 128 138.7 126.4C140.2 122.3 143.7 119.1 147.8 117.9C149.8 117.3 151.9 117.2 154 117.5L156.5 89.4C154.4 89.5 152.4 89.2 150.5 88.5C146.1 86.8 142.7 82.8 141.8 78.2C141.6 77.3 141.5 76.4 141.5 75.5C141.5 74.4 141.6 73.3 141.9 72.3H57.1C57.3 73.3 57.5 74.4 57.5 75.5C57.5 76.4 57.4 77.3 57.2 78.2C56.2 83.2 52.6 87.2 47.8 88.8C45.9 89.4 43.9 89.6 41.9 89.4L44.2 117.6C46.2 117.2 48.4 117.3 50.3 117.9C54.6 119.1 58.1 122.3 59.7 126.5C60.3 128.1 60.6 129.7 60.6 131.5C60.7 131.8 60.7 132.2 60.7 132.6Z" fill="#371A45"/>
<path d="M150.9 87.5L150.6 90.6L148.1 119.1C144.2 120.2 141.1 123.2 139.7 126.9H58.7C57.3 123.1 54.1 120.1 50.1 119L47.5 87.7C51.9 86.3 55.2 82.5 56.1 78H142.9C143.8 82.4 146.9 85.9 150.9 87.5Z" fill="#FF9F40"/>
<g opacity="0.3">
<path opacity="0.3" d="M150.6 90.6L150.5 91.2C149.7 90.9 149 90.5 148.3 90C149.1 90.3 149.8 90.5 150.6 90.6Z" fill="#6B184E"/>
<path opacity="0.3" d="M150.6 91.3998C150.6 91.3998 150.5 91.3998 150.6 91.3998C149.7 91.0998 149 90.5998 148.3 90.0998C148.2 89.9998 148.2 89.8998 148.2 89.8998C148.2 89.7998 148.3 89.7998 148.4 89.7998C149.1 90.0998 149.9 90.2998 150.7 90.3998C150.8 90.3998 150.9 90.4998 150.8 90.5998L150.7 91.1998C150.8 91.2998 150.7 91.2998 150.6 91.3998ZM149.8 90.5998C150 90.6998 150.2 90.7998 150.5 90.8998V90.6998C150.2 90.6998 150 90.6998 149.8 90.5998Z" fill="#371A45"/>
</g>
<g opacity="0.1">
<g opacity="0.1">
<path opacity="0.1" d="M66.2 104.8C65.4 104.8 64.5 104.7 63.7 104.4C60.8 103.3 59.2 100.5 58.3 98.3C57.9 97.3 57.6 96.3 57.3 95.3C56.8 93.8 56.4 92.5 55.8 91.2C54.8 89.2 53.3 87.5 51.3 86.2C50.9 86 50.8 85.4 51.1 85.1C51.3 84.7 51.9 84.6 52.2 84.9C54.4 86.4 56.1 88.3 57.3 90.5C58 91.9 58.5 93.4 58.9 94.9C59.2 95.9 59.5 96.9 59.9 97.8C60.6 99.7 62 102.1 64.3 102.9C67 103.9 70 102.5 72.1 101.1C72.8 100.6 73.5 100.1 74.2 99.7C76 98.4 77.8 97 80 96.3C83.2 95.2 87.4 96.1 88.9 99.3C89.1 99.7 88.9 100.2 88.5 100.4C88.1 100.6 87.6 100.4 87.4 100C86.3 97.7 83 97.1 80.5 97.9C78.6 98.5 76.9 99.8 75.1 101C74.4 101.5 73.7 102 73 102.5C71.1 103.6 68.7 104.8 66.2 104.8Z" fill="#371A45"/>
</g>
<g opacity="0.1">
<path opacity="0.1" d="M70.6 96.4001C69.7 96.4001 68.9 96.2001 68.1 95.8001C65.4 94.4001 64.9 91.2001 64.5 88.4001C64.4 87.7001 64.3 87.0001 64.1 86.3001C63.5 83.3001 61.6 80.5001 59.1 78.6001C58.7 78.3001 58.7 77.8001 58.9 77.5001C59.2 77.1001 59.7 77.1001 60 77.3001C62.9 79.5001 64.9 82.6001 65.6 86.0001C65.8 86.7001 65.9 87.5001 66 88.2001C66.4 90.8001 66.8 93.3001 68.8 94.4001C70 95.0001 71.7 94.9001 73.1 94.0001C74.6 93.1001 75.7 91.6001 76.4 90.3001C77 89.3001 77.6 88.3001 78.1 87.3001C79.1 85.4001 80.1 83.5001 81.5 81.8001C83.5 79.4001 87.4 76.9001 91.2 77.1001C91.6 77.1001 92 77.5001 92 78.0001C92 78.4001 91.6 78.8001 91.1 78.8001C88.1 78.6001 84.6 80.7001 82.8 82.9001C81.5 84.5001 80.5 86.2001 79.5 88.1001C78.9 89.1001 78.4 90.2001 77.8 91.2001C76.9 92.6001 75.7 94.3001 73.9 95.4001C72.9 96.1001 71.7 96.4001 70.6 96.4001Z" fill="#371A45"/>
</g>
<g opacity="0.1">
<path opacity="0.1" d="M72.1 88.2C69.9 88.2 68 86.5 67.1 84.6C66.2 82.5 66.3 80.3 66.5 78V77.8C66.5 77.4 66.9 77 67.4 77.1C67.8 77.1 68.2 77.5 68.1 78V78.2C67.9 80.3 67.8 82.3 68.6 84C69.3 85.6 71.1 87 72.8 86.5C74.1 86.1 74.9 84.7 75.4 83.6C75.6 83.1 75.8 82.6 76 82C76.3 81 76.7 80 77.2 79.1C77.6 78.4 78.1 77.9 78.6 77.4C78.9 77.1 79.5 77.2 79.7 77.5C80 77.8 79.9 78.4 79.6 78.6C79.2 78.9 78.8 79.4 78.5 79.9C78 80.7 77.7 81.6 77.4 82.5C77.2 83.1 77 83.6 76.8 84.2C76.2 85.6 75.1 87.4 73.2 88C72.9 88.1 72.5 88.2 72.1 88.2Z" fill="#371A45"/>
</g>
<g opacity="0.1">
<path opacity="0.1" d="M90.3 92.5004C90 92.5004 89.6 92.3004 89.5 92.0004C88.5 89.2004 90.3 86.3004 92.6 85.1004C95.2 83.7004 98.1 84.1004 100.1 84.6004C101.6 85.0004 103.1 85.6004 104.5 86.3004C105.2 86.6004 106 86.9004 106.8 87.2004C113.2 89.7004 120.4 89.9004 127 87.7004C132.7 85.9004 137.8 82.3004 141.5 77.5004C141.8 77.1004 142.3 77.1004 142.6 77.4004C143 77.7004 143 78.2004 142.7 78.5004C138.8 83.5004 133.3 87.3004 127.4 89.2004C120.5 91.4004 112.9 91.2004 106.2 88.6004C105.4 88.3004 104.6 88.0004 103.9 87.6004C102.5 87.0004 101.1 86.4004 99.7 86.0004C98 85.5004 95.5 85.2004 93.4 86.3004C91.8 87.2004 90.4 89.3004 91.1 91.2004C91.2 91.6004 91 92.1004 90.6 92.2004C90.4 92.5004 90.4 92.5004 90.3 92.5004Z" fill="#371A45"/>
</g>
<g opacity="0.1">
<path opacity="0.1" d="M115.9 82.1002C113.2 82.1002 110.7 80.6002 109.7 78.4002V78.3002C109.5 77.9002 109.7 77.4002 110.1 77.2002C110.5 77.0002 111 77.2002 111.2 77.6002C112 79.3002 114.1 80.5002 116.3 80.4002C118.3 80.3002 120.3 79.2002 122 77.4002C122 77.4002 122 77.4002 122.1 77.3002C122.4 77.0002 122.9 77.0002 123.3 77.3002C123.6 77.6002 123.6 78.1002 123.3 78.4002C121.3 80.5002 118.9 81.8002 116.5 81.9002C116.2 82.1002 116.1 82.1002 115.9 82.1002Z" fill="#371A45"/>
</g>
<g opacity="0.1">
<path opacity="0.1" d="M148.9 110.9C148.8 110.9 148.8 110.9 148.7 110.9C145.9 110.1 143.3 108.9 141 107.1C138.8 105.4 135.9 102.5 135.1 98.5004C134.4 95.0004 135.4 91.3004 137.8 88.7004C140.2 86.1004 143.9 84.8004 147.4 85.3004C147.8 85.4004 148.2 85.8004 148.1 86.2004C148 86.6004 147.6 87.0004 147.2 86.9004C144.2 86.5004 141.1 87.6004 139 89.8004C137 92.0004 136.1 95.2004 136.7 98.1004C137.3 100.8 139.2 103.5 142 105.7C144.1 107.3 146.6 108.5 149.2 109.2C149.6 109.3 149.9 109.8 149.8 110.2C149.6 110.7 149.3 110.9 148.9 110.9Z" fill="#371A45"/>
</g>
<g opacity="0.1">
<path opacity="0.1" d="M149.5 104C149.4 104 149.3 104 149.2 104C148.2 103.7 147.3 103.2 146.6 102.6C144.9 101.3 143.7 99.4003 143.3 97.3003C142.9 95.3003 143.3 93.5003 144.5 92.3003C145.3 91.5003 146.5 91.0003 147.9 90.9003C148.9 90.8003 149.8 91.0003 150.6 91.1003C151 91.2003 151.3 91.6003 151.3 92.0003C151.2 92.4003 150.8 92.7003 150.4 92.7003C149.6 92.6003 148.8 92.5003 148 92.5003C147 92.6003 146.2 92.9003 145.6 93.5003C144.9 94.3003 144.6 95.6003 144.9 97.0003C145.2 98.7003 146.2 100.3 147.6 101.3C148.2 101.8 149 102.2 149.8 102.5C150.2 102.6 150.5 103.1 150.3 103.5C150.2 103.8 149.9 104 149.5 104Z" fill="#371A45"/>
</g>
<g opacity="0.1">
<path opacity="0.1" d="M105.5 127.7C105.3 127.7 105 127.6 104.9 127.4C104.6 127.1 104.7 126.5 105 126.3C105.5 125.9 106 125.4 106.4 125C108.8 122.3 110.3 118.9 111.7 115.5C111.9 115 112.1 114.5 112.3 114.1C114 110.1 116.1 106 119.7 103.4C123.1 100.8 128.8 99.9002 132.5 103.1C134.8 105.1 135.6 108 136.4 110.7C136.6 111.5 136.8 112.2 137.1 113C138.3 116.4 140.3 119.6 142.9 122.2C143.2 122.5 143.2 123 142.9 123.4C142.6 123.7 142.1 123.7 141.7 123.4C138.9 120.7 136.7 117.3 135.5 113.6C135.2 112.8 135 112 134.8 111.2C134 108.5 133.3 106 131.4 104.3C128.4 101.6 123.6 102.5 120.7 104.7C117.5 107.1 115.5 110.9 113.8 114.7C113.6 115.2 113.4 115.6 113.2 116.1C111.7 119.5 110.2 123.1 107.6 126C107.1 126.5 106.6 127.1 106.1 127.5C105.9 127.6 105.7 127.7 105.5 127.7Z" fill="#371A45"/>
</g>
<g opacity="0.1">
<path opacity="0.1" d="M130.7 127.7C130.4 127.7 130.1 127.5 130 127.2C129.5 126.1 129.2 124.8 129.1 123.5C129 122.3 129 121.1 129.1 120C129.1 118.2 129.2 116.6 128.8 114.9C128.2 112.4 126 110 123.7 110.4C121.9 110.7 120.7 112.5 120.2 114C119.8 115.2 119.7 116.4 119.5 117.7C119.4 118.4 119.3 119.1 119.2 119.9C118.7 122.5 117.7 125 116.1 127.3C115.8 127.7 115.3 127.8 115 127.5C114.6 127.2 114.5 126.7 114.8 126.4C116.2 124.3 117.2 122 117.6 119.6C117.7 118.9 117.8 118.2 117.9 117.5C118.1 116.2 118.2 114.8 118.7 113.4C119.4 111.4 121 109.1 123.4 108.7C126.7 108.1 129.6 111.2 130.4 114.4C130.8 116.2 130.8 118.1 130.7 119.9C130.7 121 130.6 122.1 130.7 123.2C130.8 124.3 131.1 125.4 131.5 126.4C131.7 126.8 131.5 127.3 131.1 127.5C130.9 127.7 130.8 127.7 130.7 127.7Z" fill="#371A45"/>
</g>
<g opacity="0.1">
<path opacity="0.1" d="M87.7 127.7C87.4 127.7 87.1 127.6 87 127.3C86.8 126.9 86.9 126.4 87.3 126.2C92.5 123.2 97.4 119.7 101.9 115.8C103.2 114.6 104.6 113.4 105.5 111.8C106.4 110.2 106.6 108.4 106 107.1C105.1 104.9 102.5 104.1 100.4 104.2C98 104.3 95.8 105.4 93.6 106.7C91.5 107.8 89.4 109.1 87.4 110.2C82.4 113.1 77.3 116 71.9 118.2C65.6 120.7 59.7 121.9 54.2 121.7C53.8 121.7 53.4 121.3 53.4 120.9C53.4 120.5 53.8 120.1 54.2 120.1C59.5 120.3 65.2 119.1 71.3 116.7C76.6 114.5 81.7 111.6 86.6 108.8C88.6 107.6 90.8 106.4 92.9 105.3C95.2 104 97.7 102.8 100.4 102.6C103 102.5 106.3 103.6 107.6 106.5C108.4 108.3 108.1 110.6 107 112.7C106 114.5 104.5 115.9 103.1 117.1C98.5 121.1 93.5 124.7 88.3 127.7C87.9 127.7 87.8 127.7 87.7 127.7Z" fill="#371A45"/>
</g>
<g opacity="0.1">
<path opacity="0.1" d="M65.5 113.5C62.6 113.5 59.8 112.6 57.8 110.9C56.8 110.1 56 109.1 55.2 108.2C54.6 107.4 54 106.7 53.3 106.1C52 104.9 50.4 104 48.6 103.5C48.2 103.4 47.9 102.9 48 102.5C48.1 102.1 48.6 101.8 49 101.9C51 102.5 52.9 103.5 54.4 104.9C55.1 105.6 55.8 106.4 56.4 107.1C57.2 108 57.9 108.9 58.8 109.6C61.7 112 66.3 112.5 70.5 110.8C74.6 109.2 77.8 106.2 80.8 103.2C81.1 102.9 81.6 102.9 82 103.2C82.3 103.5 82.3 104 82 104.4C79.1 107.4 75.5 110.7 71.2 112.4C69.2 113.1 67.3 113.5 65.5 113.5Z" fill="#371A45"/>
</g>
<g opacity="0.1">
<path opacity="0.1" d="M139.7 127.7H58.7C58.4 127.7 58.1 127.5 57.9 127.2C56.5 123.6 53.5 120.9 49.8 119.8C49.5 119.7 49.2 119.4 49.2 119.1L46.6 87.8002C46.6 87.4002 46.8 87.1002 47.2 87.0002C51.3 85.6002 54.4 82.1002 55.3 77.9002C55.4 77.5002 55.7 77.2002 56.1 77.2002H142.9C143.3 77.2002 143.6 77.5002 143.7 77.9002C144.5 81.9002 147.3 85.3002 151.2 86.8002C151.5 86.9002 151.7 87.3002 151.7 87.6002L148.9 119.2C148.9 119.5 148.6 119.8 148.3 119.9C144.7 121 141.8 123.7 140.4 127.2C140.4 127.5 140 127.7 139.7 127.7ZM59.3 126.1H139.2C140.7 122.5 143.7 119.8 147.4 118.5L150 88.0002C146.2 86.3002 143.3 82.9002 142.2 78.8002H56.8C55.7 83.1002 52.6 86.7002 48.4 88.3002L50.9 118.4C54.7 119.6 57.7 122.4 59.3 126.1Z" fill="#371A45"/>
</g>
<g opacity="0.1">
<path opacity="0.1" d="M70.7 127.9C70.3 127.9 70 127.6 69.9 127.3C69.8 126.9 70.1 126.4 70.5 126.3C77.4 124.7 83.8 121.3 89 116.5C89.3 116.2 89.8 116.2 90.2 116.5C90.5 116.8 90.5 117.3 90.2 117.7C84.8 122.7 78.1 126.2 71 127.9C70.9 127.9 70.8 127.9 70.7 127.9Z" fill="#371A45"/>
</g>
<g opacity="0.1">
<path opacity="0.1" d="M123.6 125H123.5C123.1 124.9 122.7 124.5 122.8 124.1L123.8 117C123.9 116.6 124.3 116.2 124.7 116.3C125.1 116.4 125.5 116.8 125.4 117.2L124.4 124.3C124.3 124.7 124 125 123.6 125Z" fill="#371A45"/>
</g>
<g opacity="0.1">
<path opacity="0.1" d="M119.8 86.3002C119.3 86.3002 118.8 86.3002 118.3 86.2002C117.9 86.1002 117.5 85.7002 117.6 85.3002C117.7 84.9002 118.1 84.5002 118.5 84.6002C121.9 85.0002 125.4 83.8002 127.8 81.3002C128.1 81.0002 128.6 81.0002 129 81.3002C129.3 81.6002 129.3 82.1002 129 82.5002C126.6 84.8002 123.2 86.3002 119.8 86.3002Z" fill="#371A45"/>
</g>
<g opacity="0.1">
<path opacity="0.1" d="M135 123.7C134.7 123.7 134.3 123.5 134.2 123.1L132.9 118.9C132.8 118.5 133 118 133.4 117.9C133.8 117.8 134.3 118 134.4 118.4L135.7 122.6C135.8 123 135.6 123.5 135.2 123.6C135.2 123.7 135.1 123.7 135 123.7Z" fill="#371A45"/>
</g>
<g opacity="0.1">
<path opacity="0.1" d="M120.4 98.5001C120.2 98.5001 119.9 98.4001 119.8 98.2001C119.5 97.8001 119.6 97.3001 119.9 97.1001L125 93.1001C125.4 92.8001 125.9 92.9001 126.1 93.2001C126.4 93.6001 126.3 94.1001 126 94.3001L120.9 98.3001C120.8 98.4001 120.6 98.5001 120.4 98.5001Z" fill="#371A45"/>
</g>
</g>
<g opacity="0.55">
<path opacity="0.55" d="M148.7 112H49.5V115.3H148.7V112Z" fill="white"/>
</g>
<g opacity="0.55">
<path opacity="0.55" d="M149.5 94.1001H48.5V97.4001H149.5V94.1001Z" fill="white"/>
</g>
<path d="M139.7 128H58.7C58.2 128 57.8 127.7 57.6 127.3C56.3 123.8 53.3 121.1 49.7 120.1C49.2 120 48.9 119.6 48.9 119.1L46.3 87.7998C46.3 87.2998 46.6 86.7998 47.1 86.5998C51.1 85.2998 54.1 81.8998 54.9 77.6998C55 77.1998 55.5 76.7998 56 76.7998H142.8C143.3 76.7998 143.8 77.1998 143.9 77.6998C144.7 81.5998 147.4 84.8998 151.2 86.3998C151.7 86.5998 152 87.0998 151.9 87.5998L149.1 119.2C149.1 119.7 148.7 120.1 148.3 120.2C144.8 121.2 141.9 123.9 140.6 127.3C140.6 127.7 140.2 128 139.7 128ZM59.5 125.7H138.9C140.5 122.2 143.4 119.5 147 118.2L149.7 88.1998C146 86.4998 143.1 83.0998 142 79.0998H57C55.9 83.2998 52.8 86.7998 48.7 88.4998L51.2 118.1C54.9 119.4 57.9 122.2 59.5 125.7Z" fill="#371A45"/>
<path d="M158.7 77.0001L157.7 88.2001C157 88.3001 156.3 88.4001 155.6 88.4001C154 88.4001 152.4 88.1001 150.9 87.5001C146.8 85.9001 143.8 82.4001 142.9 78.0001C142.7 77.2001 142.7 76.4001 142.7 75.5001C142.7 74.0001 143 72.5001 143.5 71.1001H153.4C156.5 71.2001 159 73.9001 158.7 77.0001Z" fill="#35B7EB"/>
<path d="M155.6 88.6001C154 88.6001 152.4 88.3001 150.9 87.7001C146.8 86.1001 143.7 82.4001 142.8 78.1001C142.6 77.3001 142.6 76.4001 142.6 75.6001C142.6 74.1001 142.9 72.6001 143.4 71.2001C143.4 71.1001 143.5 71.1001 143.6 71.1001H153.5C155 71.1001 156.5 71.8001 157.6 72.9001C158.6 74.0001 159.2 75.6001 159 77.1001L158 88.3001C158 88.4001 157.9 88.4001 157.9 88.5001C157 88.5001 156.3 88.6001 155.6 88.6001ZM143.6 71.4001C143.1 72.7001 142.9 74.1001 142.9 75.6001C142.9 76.4001 143 77.3001 143.1 78.1001C143.9 82.3001 146.9 85.9001 151 87.5001C152.5 88.1001 154 88.4001 155.6 88.4001C156.3 88.4001 156.9 88.3001 157.6 88.2001L158.6 77.1001C158.7 75.7001 158.2 74.2001 157.3 73.2001C156.3 72.1001 154.9 71.5001 153.5 71.5001H143.6V71.4001Z" fill="#371A45"/>
<path d="M158.7 77.0001L157.7 88.2001C157 88.3001 156.3 88.4001 155.6 88.4001C154 88.4001 152.4 88.1001 150.9 87.5001C146.8 85.9001 143.8 82.4001 142.9 78.0001C142.7 77.2001 142.7 76.4001 142.7 75.5001C142.7 74.0001 143 72.5001 143.5 71.1001H153.4C156.5 71.2001 159 73.9001 158.7 77.0001Z" fill="#33AEF1"/>
<g opacity="0.3">
<path opacity="0.3" d="M150.9 87.4996L150.6 90.5996C149.8 90.4996 149 90.1996 148.3 89.9996C144.7 88.5996 141.9 85.5996 140.7 81.8996H54.7C55.4 80.6996 55.8 79.4996 56.1 78.0996H142.9C143.8 82.3996 146.9 85.8996 150.9 87.4996Z" fill="#6B184E"/>
<path opacity="0.3" d="M150.6 90.7998C149.8 90.6998 149 90.3998 148.2 90.0998C144.6 88.6998 141.7 85.6998 140.5 81.9998H54.7C54.6 81.9998 54.6 81.9998 54.5 81.8998C54.5 81.7998 54.5 81.7998 54.5 81.6998C55.2 80.4998 55.6 79.2998 55.9 77.8998C55.9 77.7998 56 77.7998 56.1 77.7998H142.9C143 77.7998 143.1 77.8998 143.1 77.8998C143.9 82.0998 146.9 85.6998 151 87.2998C151.1 87.2998 151.1 87.3998 151.1 87.4998L150.8 90.5998C150.8 90.6998 150.8 90.6998 150.7 90.6998C150.7 90.7998 150.7 90.7998 150.6 90.7998ZM55 81.5998H140.7C140.8 81.5998 140.8 81.6998 140.9 81.6998C142 85.2998 144.8 88.2998 148.4 89.6998C149.1 89.9998 149.8 90.1998 150.5 90.2998L150.7 87.4998C146.7 85.8998 143.7 82.2998 142.8 78.0998H56.3C56 79.3998 55.6 80.5998 55 81.5998Z" fill="#371A45"/>
</g>
<g opacity="0.55">
<path opacity="0.55" d="M158.2 77.3L157.2 88.5C156.6 88.6 155.9 88.7 155.2 88.7L156 79.3C156.3 76.2 153.8 73.5 150.7 73.5H142.3C142.4 72.8 142.6 72.1 142.8 71.5H152.7C156 71.5 158.5 74.2 158.2 77.3Z" fill="white"/>
</g>
<path d="M155 119L154.1 128.9C153.9 131.7 151.6 133.8 148.8 133.8H139.1C139 133.1 138.9 132.3 138.9 131.5C138.9 129.9 139.2 128.4 139.7 127C141.1 123.3 144.2 120.3 148.1 119.2C149.3 118.9 150.5 118.7 151.7 118.7C152.9 118.6 154 118.7 155 119Z" fill="#33AEF1"/>
<g opacity="0.55">
<path opacity="0.55" d="M155 119L154.8 121.5C154 121.4 153.2 121.3 152.4 121.3C151.1 121.3 149.9 121.5 148.8 121.8C144.9 122.9 141.8 125.9 140.4 129.6C139.9 130.9 139.6 132.3 139.6 133.7H139.2C139.1 133 139 132.2 139 131.4C139 129.8 139.3 128.3 139.8 126.9C141.2 123.2 144.3 120.2 148.2 119.1C149.4 118.8 150.6 118.6 151.8 118.6C152.9 118.6 154 118.7 155 119Z" fill="white"/>
</g>
<path d="M59.6 131.4C59.6 132.2 59.5 133 59.4 133.7H49.4C46.6 133.7 44.3 131.6 44.1 128.8L43.3 119C44.4 118.7 45.6 118.5 46.7 118.5C47.9 118.5 49 118.7 50.1 119C54.1 120.1 57.3 123 58.7 126.9C59.3 128.3 59.6 129.8 59.6 131.4Z" fill="#33AEF1"/>
<g opacity="0.55">
<path opacity="0.55" d="M59.6 131.4C59.6 132.2 59.5 133 59.4 133.7H58.4C58.3 132.4 58 131.2 57.6 130C56.2 126.2 53 123.2 49 122.1C47.9 121.8 46.8 121.6 45.6 121.6C44.9 121.6 44.3 121.7 43.6 121.8L43.4 118.9C44.5 118.6 45.7 118.4 46.8 118.4C48 118.4 49.1 118.6 50.2 118.9C54.2 120 57.4 122.9 58.8 126.8C59.3 128.3 59.6 129.8 59.6 131.4Z" fill="white"/>
</g>
<path d="M56.4 75.5001C56.4 76.4001 56.3 77.2001 56.2 78.0001C55.3 82.6001 52 86.3001 47.6 87.7001C46.3 88.1001 45 88.3001 43.6 88.3001C42.6 88.3001 41.7 88.2001 40.8 88.0001L39.9 76.9001C39.6 73.8001 42.1 71.1001 45.2 71.1001H55.7C56.1 72.5001 56.4 74.0001 56.4 75.5001Z" fill="#33AEF1"/>
<g opacity="0.55">
<path opacity="0.55" d="M56.4 75.5001C56.4 76.4001 56.3 77.2001 56.2 78.0001C55.7 80.6001 54.4 82.8001 52.7 84.6001C53.3 83.5001 53.7 82.3001 53.9 81.1001C54.1 80.3001 54.1 79.5001 54.1 78.6001C54.1 77.1001 53.8 75.6001 53.3 74.2001H42.8C41.7 74.2001 40.8 74.5001 39.9 75.0001C40.5 72.7001 42.6 71.1001 45 71.1001H55.5C56.1 72.5001 56.4 74.0001 56.4 75.5001Z" fill="white"/>
</g>
<path d="M155.6 89.5C153.8 89.5 152.1 89.2 150.5 88.5C146.1 86.8 142.7 82.8 141.8 78.2C141.6 77.3 141.5 76.4 141.5 75.5C141.5 73.9 141.8 72.3 142.3 70.8C142.5 70.3 142.9 70 143.4 70H153.3C155.1 70 156.9 70.8 158.1 72.1C159.3 73.4 159.9 75.2 159.8 77L158.8 88.2C158.8 88.7 158.4 89.1 157.9 89.2C157.1 89.5 156.3 89.5 155.6 89.5ZM144.3 72.3C144 73.3 143.9 74.4 143.9 75.5C143.9 76.3 144 77 144.1 77.8C144.9 81.7 147.6 85 151.4 86.5C153.1 87.2 154.9 87.4 156.7 87.2L157.6 76.9C157.7 75.7 157.3 74.6 156.5 73.7C155.7 72.8 154.6 72.3 153.4 72.3H144.3Z" fill="#371A45"/>
<path d="M148.8 134.9H139.1C138.5 134.9 138.1 134.5 138 134C137.9 133.2 137.8 132.4 137.8 131.5C137.8 129.8 138.1 128.1 138.7 126.5C140.2 122.4 143.7 119.2 147.8 118C150.2 117.3 152.8 117.2 155.3 117.9C155.8 118 156.2 118.5 156.2 119.1L155.3 129C155 132.3 152.2 134.9 148.8 134.9ZM140.1 132.6H148.8C151 132.6 152.8 131 153 128.8L153.8 119.9C152 119.6 150.2 119.7 148.5 120.2C145 121.2 142.1 123.9 140.8 127.3C140.3 128.6 140 130 140 131.4C140 131.8 140 132.2 140.1 132.6Z" fill="#371A45"/>
<path d="M59.4 134.9H49.4C46.1 134.9 43.2 132.3 43 129L42.2 119.2C42.2 118.7 42.5 118.2 43 118C45.4 117.3 48.1 117.3 50.5 118C54.8 119.2 58.3 122.4 59.9 126.6C60.5 128.2 60.8 129.8 60.8 131.6C60.8 132.5 60.7 133.3 60.6 134.1C60.4 134.5 59.9 134.9 59.4 134.9ZM44.5 119.9L45.2 128.7C45.4 130.9 47.2 132.5 49.4 132.5H58.4C58.4 132.1 58.5 131.7 58.5 131.3C58.5 129.9 58.2 128.5 57.7 127.2C56.4 123.7 53.4 121 49.8 120C48.1 119.6 46.2 119.6 44.5 119.9Z" fill="#371A45"/>
<path d="M43.5 89.5C42.5 89.5 41.5 89.4 40.4 89.2C39.9 89.1 39.5 88.7 39.5 88.2L38.6 77C38.5 75.2 39.1 73.4 40.3 72.1C41.5 70.8 43.3 70 45.1 70H55.6C56.1 70 56.5 70.3 56.7 70.8C57.2 72.3 57.5 73.9 57.5 75.5C57.5 76.4 57.4 77.3 57.2 78.2C56.2 83.2 52.6 87.2 47.8 88.8C46.5 89.3 45 89.5 43.5 89.5ZM41.7 87.1C43.5 87.4 45.4 87.2 47.1 86.6C51.1 85.3 54.1 81.9 54.9 77.7C55 77 55.1 76.2 55.1 75.4C55.1 74.3 55 73.2 54.7 72.2H45C43.8 72.2 42.7 72.7 41.9 73.6C41.1 74.5 40.7 75.6 40.8 76.8L41.7 87.1Z" fill="#371A45"/>
<path d="M150.3 95.2H48C47.4 95.2 46.9 94.7 46.9 94.1C46.9 93.5 47.4 93 48 93H150.3C150.9 93 151.4 93.5 151.4 94.1C151.4 94.7 151 95.2 150.3 95.2Z" fill="#371A45"/>
<path d="M148.7 113.2H49.5C48.9 113.2 48.4 112.7 48.4 112.1C48.4 111.5 48.9 111 49.5 111H148.7C149.3 111 149.8 111.5 149.8 112.1C149.8 112.7 149.4 113.2 148.7 113.2Z" fill="#371A45"/>
<path d="M107.5 103.6H91.3C87.9 103.6 85.1 100.8 85.1 97.4001V97.3001C85.1 93.9001 87.9 91.1001 91.3 91.1001H107.5C110.9 91.1001 113.7 93.9001 113.7 97.3001V97.4001C113.8 100.8 111 103.6 107.5 103.6Z" fill="#96A7BC"/>
<g opacity="0.55">
<path opacity="0.55" d="M98.4 100.7C96.9 100.7 95.7 99.4998 95.7 97.9998C95.7 96.4998 96.9 95.2998 98.4 95.2998C99.9 95.2998 101.1 96.4998 101.1 97.9998C101.1 99.4998 99.9 100.7 98.4 100.7Z" fill="white"/>
</g>
<g opacity="0.3">
<path opacity="0.3" d="M111.6 103.2V103.3C111.6 105.4 109.9 107 107.9 107H86.7C84.6 107 83 105.3 83 103.3V98.2999C83 96.7999 83.9 95.4999 85.2 94.8999V99.7999C85.2 101.9 86.9 103.5 88.9 103.5H110C110.6 103.6 111.1 103.4 111.6 103.2Z" fill="#371A45"/>
</g>
<g opacity="0.55">
<path opacity="0.55" d="M113.6 95.0002V100C113.6 101.4 112.8 102.7 111.6 103.3C111.7 102.9 111.8 102.5 111.8 102.1V97.1002C111.8 95.0002 110.1 93.4002 108.1 93.4002H86.9C86.3 93.4002 85.7 93.6002 85.1 93.8002C85.6 92.3002 87 91.2002 88.7 91.2002H109.9C111.9 91.2002 113.6 92.9002 113.6 95.0002Z" fill="white"/>
</g>
<path d="M110 104.7H88.8C86.1 104.7 83.9 102.5 83.9 99.7999V94.7999C83.9 92.0999 86.1 89.8999 88.8 89.8999H110C112.7 89.8999 114.9 92.0999 114.9 94.7999V99.7999C114.9 102.5 112.7 104.7 110 104.7ZM88.8 92.1999C87.4 92.1999 86.2 93.3999 86.2 94.7999V99.7999C86.2 101.2 87.4 102.4 88.8 102.4H110C111.4 102.4 112.6 101.2 112.6 99.7999V94.7999C112.6 93.3999 111.4 92.1999 110 92.1999H88.8Z" fill="#371A45"/>
<path d="M99.1 100C97.6 100 96.4 98.8001 96.4 97.3001C96.4 95.8001 97.6 94.6001 99.1 94.6001C100.6 94.6001 101.8 95.8001 101.8 97.3001C101.8 98.8001 100.6 100 99.1 100Z" fill="#371A45"/>
<g opacity="0.3">
<path opacity="0.3" d="M150.6 90.6C150.6 90.6 154.5 91.9 157.4 91L157.2 88.5H151.5L150.6 90.6Z" fill="#6B184E"/>
<path opacity="0.3" d="M155.1 91.4999C152.8 91.4999 150.7 90.7999 150.6 90.7999L150.5 90.6999V90.5999L151.4 88.4999C151.4 88.3999 151.5 88.3999 151.6 88.3999H157.3C157.4 88.3999 157.5 88.4999 157.5 88.5999L157.7 91.0999C157.7 91.1999 157.7 91.2999 157.6 91.2999C156.7 91.3999 155.9 91.4999 155.1 91.4999ZM150.9 90.4999C151.7 90.6999 154.8 91.5999 157.3 90.8999L157.1 88.6999H151.7L150.9 90.4999Z" fill="#371A45"/>
</g>
<path d="M161.3 27.0997C161.3 28.9997 161.1 30.7997 160.7 32.5997H150.8C151.2 30.7997 151.4 28.9997 151.4 27.0997C151.4 13.0997 140.4 1.79971 126.6 1.19971H136.5C150.3 1.69971 161.3 13.0997 161.3 27.0997Z" fill="#33AEF1"/>
<g opacity="0.55">
<path opacity="0.55" d="M161.3 27.1001C161.3 29.0001 161.1 30.8001 160.7 32.6001H158.7C158.9 31.3001 159 29.9001 159 28.5001C159 14.5001 148 3.2001 134.2 2.6001H134C131.6 1.8001 129.1 1.3001 126.5 1.1001H136.4C150.3 1.7001 161.3 13.1001 161.3 27.1001Z" fill="white"/>
</g>
<path d="M46.3 27.0997C46.3 28.9997 46.5 30.7997 46.9 32.5997H37.4C37 30.7997 36.8 28.9997 36.8 27.0997C36.8 13.0997 47.8 1.79971 61.6 1.19971H71.1C57.3 1.69971 46.3 13.0997 46.3 27.0997Z" fill="#33AEF1"/>
<g opacity="0.55">
<path opacity="0.55" d="M46.3 27.1001C46.3 29.0001 46.5 30.8001 46.9 32.6001H37.4C37.3 32.3001 37.3 32.0001 37.2 31.7001H43.6C43.2 30.0001 43 28.1001 43 26.2001C43 14.2001 51.2 4.1001 62.2 1.1001H71C57.3 1.7001 46.3 13.1001 46.3 27.1001Z" fill="white"/>
</g>
<path d="M160.7 33.6999H150.8C150.5 33.6999 150.1 33.4999 149.9 33.2999C149.7 32.9999 149.6 32.6999 149.7 32.2999C150.1 30.5999 150.3 28.7999 150.3 26.9999C150.3 13.6999 139.9 2.7999 126.6 2.1999C126 2.1999 125.5 1.6999 125.5 0.999902C125.5 0.399902 126 -0.100098 126.6 -0.100098H136.5C151 0.499902 162.4 12.3999 162.4 26.9999C162.4 28.8999 162.2 30.8999 161.8 32.7999C161.7 33.3999 161.3 33.6999 160.7 33.6999ZM152.2 31.4999H159.8C160.1 30.0999 160.2 28.5999 160.2 27.0999C160.2 13.7999 149.8 2.8999 136.5 2.2999H136.4C145.9 6.4999 152.5 15.9999 152.5 27.0999C152.5 28.4999 152.4 29.9999 152.2 31.4999Z" fill="#371A45"/>
<path d="M46.8 33.7H37.3C36.8 33.7 36.3 33.3 36.2 32.8C35.8 30.9 35.6 29 35.6 27C35.6 12.5 47 0.6 61.5 0H71C71.6 0 72.1 0.5 72.1 1.1C72.1 1.7 71.6 2.2 71 2.3C57.8 2.8 47.4 13.7 47.4 27.1C47.4 28.9 47.6 30.7 48 32.4C48.1 32.7 48 33.1 47.8 33.4C47.5 33.6 47.2 33.7 46.8 33.7ZM38.3 31.5H45.5C45.3 30.1 45.1 28.6 45.1 27.1C45.1 16.1 51.7 6.5 61.2 2.3C48.1 3.1 37.9 13.9 37.9 27.1C37.9 28.6 38 30 38.3 31.5Z" fill="#371A45"/>
<path d="M151.4 27.0997C151.4 28.9997 151.2 30.7997 150.8 32.5997H46.8C46.4 30.7997 46.2 28.9997 46.2 27.0997C46.2 13.0997 57.2 1.79971 71 1.19971H126.5C140.4 1.69971 151.4 13.0997 151.4 27.0997Z" fill="#FF9F40"/>
<g opacity="0.55">
<path opacity="0.55" d="M151.2 22.6001H46.6V24.7001H151.2V22.6001Z" fill="white"/>
</g>
<g opacity="0.55">
<path opacity="0.55" d="M146.7 11.1001H50.9V13.2001H146.7V11.1001Z" fill="white"/>
</g>
<g opacity="0.3">
<path opacity="0.3" d="M151.4 27.0997C151.4 28.9997 151.2 30.7997 150.8 32.5997H145C145.4 30.7997 145.6 28.9997 145.6 27.0997C145.6 13.0997 134.6 1.79971 120.8 1.19971H126.6C140.4 1.69971 151.4 13.0997 151.4 27.0997Z" fill="#371A45"/>
</g>
<path d="M150.8 33.7H46.8C46.3 33.7 45.8 33.3 45.7 32.8C45.3 30.9 45.1 29 45.1 27C45.1 12.5 56.5 0.6 71 0H126.5C141 0.6 152.4 12.5 152.4 27.1C152.4 29 152.2 31 151.8 32.9C151.8 33.4 151.3 33.7 150.8 33.7ZM47.8 31.5H149.9C150.2 30.1 150.3 28.6 150.3 27.1C150.3 13.8 139.9 2.9 126.6 2.3H71.1C57.8 2.9 47.4 13.7 47.4 27.1C47.4 28.6 47.5 30 47.8 31.5Z" fill="#371A45"/>
<g opacity="0.3">
<path opacity="0.3" d="M129.1 20C129.1 24.8 120.6 28.6 110.2 28.6C99.8 28.6 91.3 24.8 91.3 20C91.3 15.2 99.8 14.5 110.2 14.5C120.6 14.5 129.1 15.3 129.1 20Z" fill="white"/>
</g>
<path d="M150.7 22.8001H46.8C46.2 22.8001 45.7 22.3001 45.7 21.7001C45.7 21.1001 46.2 20.6001 46.8 20.6001H150.7C151.3 20.6001 151.8 21.1001 151.8 21.7001C151.8 22.3001 151.4 22.8001 150.7 22.8001Z" fill="#371A45"/>
<path d="M145.1 11.4998H52.3C51.7 11.4998 51.2 10.9998 51.2 10.3998C51.2 9.7998 51.7 9.2998 52.3 9.2998H145C145.6 9.2998 146.1 9.7998 146.1 10.3998C146.2 10.9998 145.7 11.4998 145.1 11.4998Z" fill="#371A45"/>
<g opacity="0.1">
<g opacity="0.1">
<path opacity="0.1" d="M74 33.9003C73.8 33.9003 73.7 33.9003 73.5 33.8003C71.6 32.5003 69.7 30.8003 67.5 28.4003C67 27.8003 66.4 27.2003 65.9 26.6003C63.4 23.7003 60.8 20.7003 57.5 18.9003C54.8 17.4003 51.5 16.9003 48.9 17.7003C48.4 17.8003 48 17.6003 47.8 17.1003C47.7 16.6003 47.9 16.2003 48.4 16.0003C51.5 15.1003 55.2 15.6003 58.3 17.4003C61.9 19.4003 64.6 22.5003 67.2 25.5003C67.7 26.1003 68.2 26.7003 68.8 27.3003C70.9 29.6003 72.7 31.3003 74.5 32.5003C74.9 32.8003 75 33.3003 74.7 33.7003C74.5 33.7003 74.3 33.9003 74 33.9003Z" fill="#371A45"/>
</g>
<g opacity="0.1">
<path opacity="0.1" d="M59 33.9003C58.6 33.9003 58.2 33.6003 58.2 33.2003C58 32.0003 58.1 30.7003 58.2 29.5003C58.4 27.4003 58.5 25.4003 57.4 24.0003C55.7 21.8003 51.9 22.6003 50.8 22.9003C49.5 23.3003 48.2 23.7003 47 24.3003C46.9 24.4003 46.8 24.4003 46.6 24.4003C46.1 24.4003 45.7 24.0003 45.7 23.5003C45.7 23.1003 45.9 22.8003 46.2 22.7003C47.5 22.1003 48.9 21.5003 50.3 21.2003C52.1 20.7003 56.4 19.9003 58.7 22.9003C60.2 24.8003 60 27.2003 59.9 29.6003C59.8 30.8003 59.7 31.9003 59.9 32.9003C60 33.4003 59.6 33.8003 59.2 33.9003C59.1 33.9003 59.1 33.9003 59 33.9003Z" fill="#371A45"/>
</g>
<g opacity="0.1">
<path opacity="0.1" d="M89.3 33.3C84.9 33.3 80.2 30.8 76.3 26.4C74.5 24.4 73 22.2 71.6 20C70.1 17.8 68.6 15.6 66.8 13.6C63.7 10.2 60 7.89998 56.6 7.49998C56.1 7.39998 55.8 6.99998 55.9 6.49998C56 5.99998 56.4 5.69998 56.9 5.79998C62.2 6.49998 66.3 10.2 68.2 12.4C70 14.5 71.6 16.7 73.1 19C74.5 21.1 76 23.3 77.7 25.2C79.6 27.4 84.6 32.3 90.7 31.5C96.9 30.7 100.5 24.3 101.8 21.6C102.8 19.5 103.6 17.2 104.4 15C105.4 12.1 106.5 9.09998 108 6.39998C109.1 4.29998 110.6 2.49998 112.3 0.999977C112.7 0.699977 113.2 0.699977 113.5 1.09998C113.8 1.49998 113.8 1.99998 113.4 2.29998C111.9 3.69998 110.5 5.39998 109.5 7.29998C108 9.89998 107 12.9 106 15.7C105.2 17.9 104.4 20.3 103.4 22.5C100.5 28.7 95.9 32.7 91 33.4C90.4 33.3 89.9 33.3 89.3 33.3Z" fill="#371A45"/>
</g>
<g opacity="0.1">
<path opacity="0.1" d="M87.2 26.0001C85.8 26.0001 84.4 25.7001 83.1 24.9001C79.6 22.9001 78.3 19.1001 77.1 15.4001C76.7 14.1001 76.2 12.8001 75.7 11.6001C74 7.9001 71.1 4.7001 67.4 2.6001C67 2.4001 66.8 1.9001 67.1 1.4001C67.4 0.900098 67.8 0.800098 68.3 1.1001C72.3 3.3001 75.5 6.8001 77.3 10.9001C77.9 12.2001 78.3 13.5001 78.8 14.8001C80 18.3001 81.1 21.7001 84.1 23.3001C87.9 25.4001 92.8 23.3001 95.1 20.0001C97.9 16.2001 98.3 11.3001 98.4 7.3001C98.4 6.2001 98.4 5.1001 98.4 4.0001C98.4 3.1001 98.4 2.2001 98.4 1.4001C98.4 0.900098 98.8 0.600098 99.3 0.600098C99.8 0.600098 100.1 1.0001 100.1 1.5001C100.1 2.4001 100.1 3.2001 100.1 4.1001C100.1 5.2001 100.1 6.3001 100.1 7.4001C100 11.6001 99.5 16.9001 96.4 21.0001C94.3 23.9001 90.7 26.0001 87.2 26.0001Z" fill="#371A45"/>
</g>
<g opacity="0.1">
<path opacity="0.1" d="M89 14.7999C87.5 14.7999 86.1 13.9999 85.1 12.9999C83.9 11.6999 83.3 9.89989 82.7 8.39989C82 6.39989 81.3 4.49989 80.6 2.49989L80.4 1.79989C80.2 1.39989 80.5 0.89989 80.9 0.69989C81.3 0.49989 81.8 0.79989 82 1.19989L82.2 1.89989C82.9 3.89989 83.6 5.79989 84.3 7.79989C84.8 9.19989 85.3 10.6999 86.3 11.7999C87.1 12.6999 88.5 13.3999 89.7 12.8999C90.7 12.4999 91.3 11.3999 91.5 10.5999C91.8 9.49989 91.7 8.19989 91.6 6.99989L91.2 1.59989C91.2 1.09989 91.5 0.69989 92 0.69989C92.5 0.69989 92.9 0.99989 92.9 1.49989L93.3 6.89989C93.4 8.19989 93.5 9.59989 93.2 10.9999C92.8 12.6999 91.7 13.9999 90.4 14.4999C89.9 14.6999 89.5 14.7999 89 14.7999Z" fill="#371A45"/>
</g>
<g opacity="0.1">
<path opacity="0.1" d="M105.5 33.9003C105.4 33.9003 105.3 33.9003 105.2 33.8003C104.8 33.6003 104.5 33.1003 104.7 32.7003C106.2 28.9003 108.1 24.5003 111.7 21.1003C117.5 15.6003 126.8 14.5003 133.7 18.3003C138.9 21.2003 142.6 26.7003 143.4 32.9003C143.5 33.4003 143.1 33.8003 142.7 33.9003C142.2 34.0003 141.8 33.6003 141.7 33.2003C141 27.6003 137.6 22.5003 132.9 19.9003C126.6 16.4003 118.1 17.5003 112.9 22.5003C109.6 25.6003 107.8 29.8003 106.4 33.4003C106.2 33.7003 105.9 33.9003 105.5 33.9003Z" fill="#371A45"/>
</g>
<g opacity="0.1">
<path opacity="0.1" d="M115.8 33.9002C115.7 33.9002 115.6 33.9002 115.5 33.8002C115.1 33.6002 114.8 33.1002 115 32.7002C116.4 28.9002 118.3 26.5002 120.9 25.3002C124.2 23.8002 128.5 24.7002 130.8 27.5002C132.1 29.0002 132.8 30.9002 132.8 33.0002C132.8 33.5002 132.4 33.9002 132 33.9002C131.5 33.9002 131.1 33.5002 131.1 33.1002C131.1 31.4002 130.5 29.9002 129.5 28.7002C127.6 26.5002 124.2 25.8002 121.6 27.0002C119.4 28.0002 117.8 30.0002 116.6 33.4002C116.5 33.7002 116.2 33.9002 115.8 33.9002Z" fill="#371A45"/>
</g>
<g opacity="0.1">
<path opacity="0.1" d="M125.9 13.5003C125.6 13.5003 125.3 13.5003 125.1 13.5003C122.9 13.4003 119.1 12.8003 117.6 9.70029C116.4 7.10029 117.7 3.90029 119.6 2.20029C120.2 1.70029 120.8 1.30029 121.5 0.900293C121.9 0.700293 122.4 0.800293 122.7 1.20029C122.9 1.60029 122.8 2.10029 122.4 2.40029C121.8 2.70029 121.3 3.10029 120.8 3.50029C119.3 4.80029 118.3 7.10029 119.2 9.00029C120.3 11.4003 123.8 11.8003 125.2 11.8003C130.7 12.0003 136.4 10.0003 140.8 6.30029C141.2 6.00029 141.7 6.00029 142 6.40029C142.3 6.80029 142.3 7.30029 141.9 7.60029C137.3 11.3003 131.6 13.5003 125.9 13.5003Z" fill="#371A45"/>
</g>
<g opacity="0.1">
<path opacity="0.1" d="M125 9.40002C124.8 9.40002 124.6 9.30002 124.4 9.20002C124.1 8.90002 124 8.30002 124.4 8.00002C127.1 5.20002 130.6 3.20002 134.5 2.40002C135 2.30002 135.4 2.60002 135.5 3.10002C135.6 3.60002 135.3 4.00002 134.8 4.10002C131.3 4.80002 128.1 6.60002 125.6 9.20002C125.4 9.30002 125.2 9.40002 125 9.40002Z" fill="#371A45"/>
</g>
<g opacity="0.1">
<path opacity="0.1" d="M150.8 33.9002H46.8C46.4 33.9002 46.1 33.6002 46 33.2002C45.6 31.3002 45.4 29.4002 45.4 27.5002C45.4 13.1002 56.7 1.3002 71 0.700195H126.5C140.9 1.3002 152.1 13.1002 152.1 27.5002C152.1 29.4002 151.9 31.3002 151.5 33.2002C151.5 33.6002 151.2 33.9002 150.8 33.9002ZM47.5 32.2002H150C150.3 30.7002 150.4 29.1002 150.4 27.5002C150.4 14.0002 139.9 3.0002 126.4 2.4002H71.1C57.7 3.0002 47.1 14.0002 47.1 27.5002C47.1 29.1002 47.3 30.6002 47.5 32.2002Z" fill="#371A45"/>
</g>
</g>
<path d="M158.7 133.4C166.322 133.4 172.5 127.222 172.5 119.6C172.5 111.979 166.322 105.8 158.7 105.8C151.078 105.8 144.9 111.979 144.9 119.6C144.9 127.222 151.078 133.4 158.7 133.4Z" fill="#E4F2F9"/>
<path d="M158.7 133.7C151 133.7 144.7 127.4 144.7 119.7C144.7 112 151 105.7 158.7 105.7C166.4 105.7 172.7 112 172.7 119.7C172.7 127.4 166.5 133.7 158.7 133.7ZM158.7 106C151.2 106 145 112.1 145 119.7C145 127.3 151.1 133.4 158.7 133.4C166.2 133.4 172.4 127.3 172.4 119.7C172.4 112.1 166.3 106 158.7 106Z" fill="#371A45"/>
<path d="M155.9 118.7C155.3 119.8 155.5 120.4 156.5 121.1C160 123.6 163.5 126.1 167.1 128.5C170.3 125.6 171.8 121.1 170.7 116.6C169.6 112 166 108.7 161.7 107.7C159.7 111.4 157.8 115.1 155.9 118.7Z" fill="#29A5DC"/>
<path d="M168.2 114.7C168.2 115 168.2 115.2 168.3 115.5C168.3 115.7 168.2 115.8 168 115.9C166.8 116.2 162 117.4 161.7 117.5C160.9 117.7 160.3 118.7 160.5 119.5C160.6 120.1 161.2 120.4 161.7 120.3C161.9 120.3 163.5 119.9 163.7 119.8L163.8 119.7C163.8 119.5 163.8 119.2 163.8 119L162.6 119.3C162.6 118.9 162.5 118.6 162.5 118.2L164.7 117.6C164.8 118.6 164.8 119.6 164.9 120.6L163.4 121C162.7 121.2 162.1 121.4 161.4 121.4C160.6 121.4 159.7 120.9 159.5 120C159.1 118.8 159.5 117.8 160.4 117C160.7 116.7 161.1 116.5 161.6 116.4C162 116.2 168.1 114.7 168.2 114.7Z" fill="#FCFCFC"/>
<path d="M165.8 117.2C165.8 117.7 165.9 118.3 165.9 118.8C165.9 119.3 166 119.7 166 120.2C166.3 120.1 166.5 120.1 166.8 120C166.8 120 167 119.9 167 119.7C166.9 118.7 166.9 117.9 166.8 116.9L165.8 117.2Z" fill="#FCFCFC"/>
<path d="M154.5 124.4C153.7 123.9 153.1 124 152.6 124.9C151.9 126.1 151.3 127.4 150.6 128.6C153.5 131.2 157.6 132.4 161.7 131.4C162.3 131.2 163 131 163.6 130.8C160.6 128.7 157.6 126.5 154.5 124.4Z" fill="#FF00FF"/>
<path d="M150.5 117C151.6 117.7 152.2 117.6 152.8 116.4C154.3 113.4 155.8 110.5 157.4 107.5C156.9 107.6 156.4 107.6 156 107.8C152.1 108.8 149.1 111.5 147.7 115C148.6 115.6 149.5 116.3 150.5 117Z" fill="#29A5DC"/>
<path d="M149.1 120.7C149.1 120.7 147.6 119.8 146.7 119.2C146.7 120.3 146.8 121.4 147.1 122.5C147.4 123.5 147.7 124.5 148.2 125.4C148.8 124.3 149.4 122.9 149.6 122.6C149.9 121.8 149.7 121.3 149.1 120.7Z" fill="#FF00FF"/>
<g opacity="0.55">
<path opacity="0.55" d="M168.5 129.2C169.8 127.1 170.5 124.6 170.5 122C170.5 119.1 169.6 116.4 168.1 114.2C165.8 115.8 162.9 112.8 164.5 110.6C162.3 109.1 159.6 108.2 156.7 108.2C152.9 108.2 149.5 109.7 147 112.2C149.4 108.2 153.8 105.6 158.8 105.6C166.4 105.6 172.6 111.8 172.6 119.4C172.6 123.3 171 126.7 168.5 129.2Z" fill="white"/>
</g>
<path d="M158.7 134.6C150.4 134.6 143.7 127.9 143.7 119.6C143.7 111.3 150.4 104.6 158.7 104.6C167 104.6 173.7 111.3 173.7 119.6C173.7 127.9 167 134.6 158.7 134.6ZM158.7 106.9C151.7 106.9 146 112.6 146 119.6C146 126.6 151.7 132.3 158.7 132.3C165.7 132.3 171.4 126.6 171.4 119.6C171.4 112.6 165.7 106.9 158.7 106.9Z" fill="#371A45"/>
<path d="M185.4 133.5H169.3C167 133.5 165.2 131.6 165.2 129.4C165.2 127.1 167.1 125.3 169.3 125.3H185.4C187.7 125.3 189.5 127.2 189.5 129.4C189.6 131.6 187.7 133.5 185.4 133.5Z" fill="#E4F2F9"/>
<g opacity="0.55">
<path opacity="0.55" d="M183.7 125.2H180.2V133.2H183.7V125.2Z" fill="white"/>
</g>
<path opacity="0.15" d="M171.9 125.2H165.4V133.2H171.9V125.2Z" fill="#371A45"/>
<g opacity="0.55">
<path opacity="0.55" d="M187.1 125.4H185.1V133.4H187.1V125.4Z" fill="white"/>
</g>
<path d="M187.5 134.6H167.3C165.5 134.6 164 133.1 164 131.3V127.2C164 125.4 165.5 123.9 167.3 123.9H187.5C189.3 123.9 190.8 125.4 190.8 127.2V131.3C190.7 133.2 189.3 134.6 187.5 134.6ZM167.3 126.3C166.8 126.3 166.3 126.7 166.3 127.3V131.4C166.3 131.9 166.7 132.4 167.3 132.4H187.5C188 132.4 188.5 132 188.5 131.4V127.3C188.5 126.8 188.1 126.3 187.5 126.3H167.3Z" fill="#371A45"/>
<path d="M47.3 133.7H31.1C28.8 133.7 27 131.8 27 129.6C27 127.3 28.9 125.5 31.1 125.5H47.2C49.5 125.5 51.3 127.4 51.3 129.6C51.4 131.9 49.6 133.7 47.3 133.7Z" fill="#E4F2F9"/>
<g opacity="0.55">
<path opacity="0.55" d="M45.5 125.5H42V133.5H45.5V125.5Z" fill="white"/>
</g>
<g opacity="0.15">
<path opacity="0.15" d="M33.7 125.5H27.2V133.5H33.7V125.5Z" fill="#371A45"/>
</g>
<g opacity="0.55">
<path opacity="0.55" d="M49 125.6H47V133.6H49V125.6Z" fill="white"/>
</g>
<path d="M49.3 134.9H29.1C27.3 134.9 25.8 133.4 25.8 131.6V127.5C25.8 125.7 27.3 124.2 29.1 124.2H49.3C51.1 124.2 52.6 125.7 52.6 127.5V131.6C52.6 133.4 51.1 134.9 49.3 134.9ZM29.1 126.5C28.6 126.5 28.1 126.9 28.1 127.5V131.6C28.1 132.1 28.5 132.6 29.1 132.6H49.3C49.8 132.6 50.3 132.2 50.3 131.6V127.5C50.3 127 49.9 126.5 49.3 126.5H29.1Z" fill="#371A45"/>
<path d="M30.8 123.6L13 133.1C12 133.7 10.7 133.3 10.1 132.2L8.2 128.6C7.6 127.6 8 126.3 9.1 125.7L26.9 116.2C27.9 115.6 29.2 116 29.8 117.1L31.7 120.7C32.2 121.8 31.8 123.1 30.8 123.6Z" fill="#E4F2F9"/>
<path d="M11.9 133.5C11.1 133.5 10.3 133.1 9.9 132.3L8 128.7C7.4 127.6 7.8 126.2 9 125.6L26.8 116.1C27.9 115.5 29.3 115.9 29.9 117.1L31.8 120.7C32.1 121.2 32.1 121.9 32 122.5C31.8 123.1 31.4 123.6 30.9 123.9L13 133.2C12.7 133.4 12.3 133.5 11.9 133.5ZM27.8 116.2C27.5 116.2 27.2 116.3 26.9 116.4L9.1 125.9C8.2 126.4 7.8 127.6 8.3 128.5L10.2 132.1C10.7 133 11.9 133.4 12.8 132.9L30.6 123.4C31.1 123.2 31.4 122.7 31.5 122.3C31.7 121.8 31.6 121.3 31.4 120.8L29.5 117.2C29.3 116.7 28.8 116.4 28.4 116.3C28.2 116.2 28 116.2 27.8 116.2Z" fill="#371A45"/>
<g opacity="0.55">
<path opacity="0.55" d="M23.4997 118.061L20.4081 119.701L24.1577 126.768L27.2493 125.127L23.4997 118.061Z" fill="white"/>
</g>
<path opacity="0.15" d="M13.1564 123.633L7.41496 126.679L11.1646 133.746L16.906 130.699L13.1564 123.633Z" fill="#371A45"/>
<g opacity="0.55">
<path opacity="0.55" d="M26.6994 116.595L24.9328 117.532L28.6824 124.599L30.449 123.661L26.6994 116.595Z" fill="white"/>
</g>
<path d="M11.9 134.5C10.7 134.5 9.6 133.9 9 132.8L7.1 129.2C6.3 127.6 6.9 125.6 8.5 124.8L26.3 115.3C27.1 114.9 28 114.8 28.8 115.1C29.6 115.4 30.3 115.9 30.7 116.7L32.6 120.3C33.4 121.9 32.8 123.9 31.2 124.7L13.4 134.2C13 134.3 12.5 134.5 11.9 134.5ZM27.8 117.1C27.6 117.1 27.5 117.1 27.3 117.2L9.5 126.7C9 127 8.8 127.6 9.1 128L11 131.6C11.3 132.1 11.9 132.3 12.3 132L30.1 122.5C30.3 122.4 30.5 122.2 30.6 121.9C30.7 121.6 30.7 121.4 30.5 121.1L28.6 117.5C28.5 117.3 28.3 117.1 28 117C28 117.2 27.9 117.1 27.8 117.1Z" fill="#371A45"/>
<path d="M181 125.1H164.9C162.6 125.1 160.8 123.2 160.8 121C160.8 118.7 162.7 116.9 164.9 116.9H181C183.3 116.9 185.1 118.8 185.1 121C185.1 123.2 183.3 125.1 181 125.1Z" fill="#E4F2F9"/>
<g opacity="0.55">
<path opacity="0.55" d="M179.2 116.8H175.7V124.8H179.2V116.8Z" fill="white"/>
</g>
<path opacity="0.15" d="M167.5 116.8H161V124.8H167.5V116.8Z" fill="#371A45"/>
<g opacity="0.55">
<path opacity="0.55" d="M182.7 117H180.7V125H182.7V117Z" fill="white"/>
</g>
<path d="M183 126.2H162.8C161 126.2 159.5 124.7 159.5 122.9V118.8C159.5 117 161 115.5 162.8 115.5H183C184.8 115.5 186.3 117 186.3 118.8V122.9C186.3 124.7 184.8 126.2 183 126.2ZM162.8 117.9C162.3 117.9 161.8 118.3 161.8 118.9V123C161.8 123.5 162.2 124 162.8 124H183C183.5 124 184 123.6 184 123V118.9C184 118.4 183.6 117.9 183 117.9H162.8Z" fill="#371A45"/>
<path d="M181.4 77.7999C182.063 77.7999 182.6 77.2626 182.6 76.5999C182.6 75.9372 182.063 75.3999 181.4 75.3999C180.737 75.3999 180.2 75.9372 180.2 76.5999C180.2 77.2626 180.737 77.7999 181.4 77.7999Z" fill="white"/>
<path d="M182.3 97.4C183.239 97.4 184 96.6389 184 95.7C184 94.7611 183.239 94 182.3 94C181.361 94 180.6 94.7611 180.6 95.7C180.6 96.6389 181.361 97.4 182.3 97.4Z" fill="white"/>
<path d="M1.2 75.0001C1.86274 75.0001 2.4 74.4628 2.4 73.8001C2.4 73.1374 1.86274 72.6001 1.2 72.6001C0.537258 72.6001 0 73.1374 0 73.8001C0 74.4628 0.537258 75.0001 1.2 75.0001Z" fill="white"/>
<path d="M12.8 86.7999C13.7389 86.7999 14.5 86.0388 14.5 85.0999C14.5 84.161 13.7389 83.3999 12.8 83.3999C11.8611 83.3999 11.1 84.161 11.1 85.0999C11.1 86.0388 11.8611 86.7999 12.8 86.7999Z" fill="white"/>
<path d="M192.3 90.2003C192.7 90.2003 193.1 89.6003 193.3 88.6003C193.4 88.3003 193.6 88.1003 193.9 88.0003C194.8 87.8003 195.5 87.4003 195.5 87.0003C195.5 86.6003 194.9 86.2003 193.9 86.0003C193.6 85.9003 193.4 85.7003 193.3 85.4003C193.1 84.5003 192.7 83.8003 192.3 83.8003C191.9 83.8003 191.5 84.4003 191.3 85.4003C191.2 85.7003 191 85.9003 190.7 86.0003C189.8 86.2003 189.1 86.6003 189.1 87.0003C189.1 87.4003 189.7 87.8003 190.7 88.0003C191 88.1003 191.2 88.3003 191.3 88.6003C191.5 89.6003 191.9 90.2003 192.3 90.2003Z" fill="white"/>
<path d="M10.2 69.1001C10.5 69.4001 11.3 69.2001 12.1 68.7001C12.4 68.5001 12.7 68.5001 12.9 68.7001C13.8 69.3001 14.5 69.5001 14.8 69.1001C15.1 68.8001 14.9 68.0001 14.4 67.2001C14.2 66.9001 14.2 66.6001 14.4 66.4001C15 65.5001 15.2 64.8001 14.8 64.5001C14.5 64.2001 13.7 64.4001 12.9 64.9001C12.6 65.1001 12.3 65.1001 12.1 64.9001C11.2 64.3001 10.5 64.1001 10.2 64.5001C9.9 64.8001 10.1 65.6001 10.6 66.4001C10.8 66.7001 10.8 67.0001 10.6 67.2001C10.1 68.0001 9.9 68.7001 10.2 69.1001Z" fill="white"/>
</svg>
