<svg width="31" height="31" viewBox="0 0 31 31" fill="none" xmlns="http://www.w3.org/2000/svg">
<path d="M15.3499 30.1799C23.3304 30.1799 29.7999 23.7104 29.7999 15.7299C29.7999 7.74939 23.3304 1.27991 15.3499 1.27991C7.36939 1.27991 0.899902 7.74939 0.899902 15.7299C0.899902 23.7104 7.36939 30.1799 15.3499 30.1799Z" stroke="#F0B90B" stroke-miterlimit="10"/>
<path d="M10.2799 15.8299L8.18994 17.9399L6.07996 15.8299L8.18994 13.7299L10.2799 15.8299ZM15.3899 10.7299L18.9899 14.3399L21.0999 12.2299L17.4899 8.63991L15.3899 6.52991L13.2799 8.63991L9.68994 12.2299L11.7999 14.3399L15.3899 10.7299ZM22.58 13.7299L20.4899 15.8299L22.59 17.9399L24.6899 15.8299L22.58 13.7299ZM15.3899 20.9399L11.7799 17.3299L9.68994 19.4399L13.2899 23.0399L15.3899 25.1399L17.4899 23.0299L21.0999 19.4199L18.9899 17.3299L15.3899 20.9399ZM15.3899 17.9399L17.4899 15.8299L15.3899 13.7299L13.2799 15.8299L15.3899 17.9399Z" fill="#F0B90B"/>
</svg>
