<svg width="31" height="31" viewBox="0 0 31 31" fill="none" xmlns="http://www.w3.org/2000/svg">
<path d="M15.66 30.69C23.9221 30.69 30.62 23.9922 30.62 15.73C30.62 7.46784 23.9221 0.77002 15.66 0.77002C7.39777 0.77002 0.699951 7.46784 0.699951 15.73C0.699951 23.9922 7.39777 30.69 15.66 30.69Z" fill="#F0B90B"/>
<path d="M10.0801 15.7299L7.79004 18.0299L5.47998 15.7299L7.79004 13.4199L10.0801 15.7299ZM15.66 10.1499L19.6 14.0899L21.9 11.7899L17.9601 7.85992L15.66 5.54993L13.35 7.85992L9.43005 11.7899L11.73 14.0899L15.66 10.1499ZM23.53 13.4199L21.24 15.7299L23.54 18.0299L25.8301 15.7299L23.53 13.4199ZM15.66 21.3099L11.66 17.3699L9.38 19.6699L13.3201 23.6099L15.61 25.8999L17.91 23.5999L21.85 19.6499L19.55 17.3699L15.66 21.3099ZM15.66 18.0299L17.9601 15.7299L15.66 13.4199L13.35 15.7299L15.66 18.0299Z" fill="white"/>
</svg>
