<svg xmlns="http://www.w3.org/2000/svg" viewBox="0 0 214.75346 46.23463"><path d="M8.92767,46.16946c-3.62564.3733-6.45625-.83631-8.14644-4.16431A8.0571,8.0571,0,0,1,0,38.31587Q.00341,23.19841.00272,8.08093C.005,3.29381,3.02771.138,7.80013.06824c4.6155-.06746,9.23561-.11643,13.84853.01113,5.58278.15439,9.72968,2.67069,12.094,7.838a12.37148,12.37148,0,0,1-3.75834,14.49444c-.87781.64084-.89334.86461-.00086,1.55618a12.37747,12.37747,0,0,1,4.093,13.71007,12.56341,12.56341,0,0,1-11.289,8.50142c-3.07194.11132-6.152.00066-9.22853-.01023,1.02861-1.21013,2.28262-2.27528,2.57459-3.95956,2.17269-.02735,4.34887.01352,6.51736-.09611a8.39021,8.39021,0,0,0,8.05091-8.74011,8.49369,8.49369,0,0,0-8.44943-8.11619c-1.78943.02661-3.58-.02357-5.37006-.03882l-.00673-4.01107c1.57834-.017,3.15663-.04174,4.735-.04909a8.59363,8.59363,0,0,0,6.72391-2.73549A7.91782,7.91782,0,0,0,30.14026,9.7614a8.23964,8.23964,0,0,0-7.27993-5.55689c-2.91736-.27114-5.88041-.05576-8.96407-.05576.84327,1.78249.65487,3.61406.68454,5.4262.005.30314-.16186.68063.28376.87527a6.05168,6.05168,0,0,0,4.01234-.72946,4.01141,4.01141,0,0,1,5.80457,5.53757,4.01033,4.01033,0,0,1-5.50852.20695,3.05613,3.05613,0,0,0-2.68471-.963c-.63819.03023-1.27749.03737-1.91628.05483q-2.04124-.00294-4.08254-.0058-2.06235-.053-4.12481-.1059.00545-2.06937.01108-4.13878a9.02964,9.02964,0,0,0,1.1217.15847c3.01273.05809,3.01283.053,3.00009-2.90284a3.16449,3.16449,0,1,0-6.25273.36887,34.29673,34.29673,0,0,0-.13651,5.88362q-.00126,9.31389-.003,18.62715a34.477,34.477,0,0,0,.1395,5.85387,3.08346,3.08346,0,0,0,1.30248,3.32642,3.13263,3.13263,0,0,0,3.49281.08632c1.41032-.82608,1.5212-2.24672,1.515-3.68432l3.97629-.01125a6.79078,6.79078,0,0,1-.69914,4.09216C12.89622,44.29454,10.98809,45.32294,8.92767,46.16946Z" style="fill:#f2b906"/><path d="M74.76508,27.92454c3.35943.945,5.69508,4.04046,5.3047,8.55363-.55233,6.38549-5.3178,8.458-9.83318,8.91845-5.44523.55527-10.92531.10376-16.388.23928-.89439.02219-.80075-.50364-.80023-1.06765q.00635-6.95151.00237-13.903c.00008-6.16495.01982-12.33-.02077-18.49473-.00606-.91945.17862-1.22842,1.17626-1.21533,4.52942.05943,9.06273-.06789,13.58939.0582a13.94827,13.94827,0,0,1,8.97981,3.03989C80.189,16.94984,80.91343,24.97209,74.76508,27.92454ZM61.57406,35.017c0,1.1037.01764,2.2078-.00761,3.31093-.01218.53232.16776.777.728.7668,1.96165-.03583,3.9306.04514,5.88382-.09583a3.57477,3.57477,0,0,0,3.47137-4.03843c-.08335-2.635-1.22839-3.94432-3.696-4.05989-1.83058-.08573-3.668-.01669-5.50137-.05909-.65518-.01515-.91753.18678-.89044.86487C61.6058,32.80831,61.57365,33.91328,61.57406,35.017Zm-.00017-13.7055c0,1.06167.02429,2.1241-.00943,3.18472-.01917.60291.19448.829.81024.81428,1.62129-.03872,3.24823.04221,4.86462-.05758a3.61642,3.61642,0,0,0,3.742-3.41891,3.73918,3.73918,0,0,0-3.35752-4.26755c-1.79427-.25723-3.56792-.09742-5.34657-.20707-.58836-.03628-.72183.25074-.71042.76725C61.5903,19.18778,61.5739,20.24981,61.57389,21.31148Z" style="fill:#f2b906"/><path d="M85.27169,34.22212c1.15429.00015,2.30915.02133,3.46263-.0092.53909-.01428.699.15437.7585.71.3527,3.29448,1.922,4.66741,5.28083,4.69874.59836.00559,1.1984.02092,1.795-.0135A3.61191,3.61191,0,0,0,99.94539,37.151a3.682,3.682,0,0,0-1.78279-4.01332,32.31947,32.31947,0,0,0-5.52351-2.24788c-2.88119-1.06329-5.73516-2.18579-7.96716-4.41583a8.58856,8.58856,0,0,1,1.97265-13.89618,17.22345,17.22345,0,0,1,16.83665-.09526,9.47932,9.47932,0,0,1,4.95421,7.55966c.11016.83947-.06431,1.20374-1.03738,1.16993-2.17768-.07566-4.35985-.01955-6.54015-.02685-.39762-.00133-.81661.13031-.88063-.56626-.314-3.41662-3.5833-4.12388-6.22968-3.67224a5.46029,5.46029,0,0,0-1.21138.386c-2.49768,1.07014-2.82886,3.74366-.63866,5.32646a18.05274,18.05274,0,0,0,4.99075,2.19706c3.02861,1.0183,6.02136,2.11129,8.44958,4.29948A9.49547,9.49547,0,0,1,106.539,42.00534a10.08527,10.08527,0,0,1-5.7102,3.41262,19.469,19.469,0,0,1-13.88369-1.3462,10.37978,10.37978,0,0,1-5.96785-8.84641c-.06718-.79248.1581-1.06029.96063-1.018C83.04628,34.26567,84.16015,34.222,85.27169,34.22212Z" style="fill:#f2b906"/><path d="M139.74431,28.21436c0-5.35341.02479-10.707-.02314-16.06-.00848-.94778.22729-1.20838,1.19469-1.19735,4.69726.05357,9.39872-.08416,14.09248.05452,4.92779.1456,9.82386,2.64255,11.50309,7.86728,2.03005,6.31621-.883,12.53827-7.87117,14.31615a35.394,35.394,0,0,1-9.26008.64848c-1.00825-.01171-1.30561.26738-1.28458,1.27893.06532,3.14272.00009,6.28794.04014,9.43151.01063.83414-.25078,1.10751-1.096,1.08617-2.09123-.05281-4.1862-.0631-6.27661.00379-.90744.029-1.037-.338-1.03313-1.11435C139.757,39.0912,139.74428,33.65275,139.74431,28.21436Zm8.37537-6.00609c0,1.359.05444,2.72088-.01951,4.07586-.04778.87567.29135,1.07046,1.09471,1.04469,1.62048-.052,3.2444.01234,4.86583-.02218a4.20353,4.20353,0,0,0,4.40906-3.57068c.41491-3.00546-.87841-5.43783-3.29624-6.09611-2.13237-.58057-4.32054-.15995-6.48033-.27239-.57352-.02986-.57319.3648-.57277.76388Q148.12264,20.16981,148.11968,22.20827Z" style="fill:#f2b906"/><path d="M206.87065,43.11787a8.30931,8.30931,0,0,1-4.75888,2.82447,9.07539,9.07539,0,0,1-9.91943-5.43587,20.61169,20.61169,0,0,1-1.25822-11.30707,12.75265,12.75265,0,0,1,3.30855-7.37858c2.74781-2.87083,8.61422-3.661,12.02811-.26689.40095-.22157.20365-.60345.205-.898.01631-3.48711.036-6.97465-.00755-10.46131-.01088-.86926.2157-1.20313,1.13632-1.17287,1.87884.06178,3.76437.08413,5.64087-.006,1.14682-.05508,1.51152.243,1.50543,1.45274-.052,10.33375-.02976,20.66786-.02976,31.00187,0,.93556-.06419,1.87669.01714,2.8052.09,1.02757-.20356,1.44129-1.31907,1.372a39.55409,39.55409,0,0,0-4.74174-.00321c-.99424.05784-1.43155-.308-1.45318-1.23847A3.00949,3.00949,0,0,0,206.87065,43.11787Zm-.3844-10.38146c0-1.36063-.0663-2.72537.0186-4.08073a2.60553,2.60553,0,0,0-1.72811-2.67935,3.73293,3.73293,0,0,0-5.4758,2.53062,16.56667,16.56667,0,0,0-.48214,5.91507,8.22407,8.22407,0,0,0,1.04025,3.74525c.93334,1.50854,2.45026,1.9916,4.47014,1.4102,1.48495-.42742,2.15647-1.4052,2.157-3.14185Q206.48676,34.586,206.48625,32.73641Z" style="fill:#f2b906"/><path d="M138.38577,22.97353c-2.60463,0-5.1223-.01717-7.63941.01231-.61442.00719-.76677-.20535-.82442-.79428-.322-3.28941-1.92568-4.89023-4.91426-5.092-3.71955-.25115-5.73042.78613-6.63067,4.57487a32.61189,32.61189,0,0,0-.15912,12.73846c.67377,4.256,3.58743,5.59663,7.66427,4.803,2.4259-.47228,3.65634-1.87373,4.00636-4.59789.10587-.8239.39133-.93991,1.09766-.92757,2.09272.03655,4.18751.05109,6.27929-.006.81409-.02221,1.06146.24936.97878,1.015-.45968,4.25706-2.41032,7.60125-6.34194,9.46531-6.03113,2.85948-12.00037,2.90153-17.48182-1.31146-2.99985-2.30565-4.33462-5.666-4.92433-9.31145a33.57856,33.57856,0,0,1-.27236-8.60952c.58058-6.035,3.4087-12.16539,10.44522-13.94944,6.4504-1.63544,13.87562.022,17.17744,6.29261A13.92458,13.92458,0,0,1,138.38577,22.97353Z" style="fill:#f2b906"/><path d="M182.12053,43.41957c-3.35373,3.56192-8.40148,3.12846-11.51758,1.10084a7.32725,7.32725,0,0,1-3.37822-7.5627c.364-3.03691,2.20583-4.95169,4.98014-6.05117a19.69781,19.69781,0,0,1,7.77-1.1158c1.75089.03428,1.75143.00585,1.70284-1.70641-.06383-2.2479-1.1392-3.22639-3.3908-3.08528a2.25845,2.25845,0,0,0-2.327,2.07522c-.10049.645-.32469.73773-.87679.732q-3.26859-.03386-6.53767-.00034c-.69218.00785-.8196-.18811-.74322-.89879a7.42,7.42,0,0,1,4.49663-6.05612,14.76132,14.76132,0,0,1,12.35481-.48529c3.61538,1.42026,5.22015,4.30852,5.28066,8.06439.0623,3.86721.02757,7.73626.00738,11.60436a11.59658,11.59658,0,0,0,.8726,4.70195c.24695.57453.28086.88658-.46147.88574-2.30739-.00264-4.61508.01873-6.922-.01523C182.76081,45.59709,182.64831,45.34158,182.12053,43.41957Zm-.39028-7.04572c0-.50867.00116-1.01734-.00044-1.526-.00095-.30289.00116-.67427-.39984-.6706-1.63776.01495-3.33681-.33993-4.819.72444a3.7132,3.7132,0,0,0-1.07208,3.77916c.439,1.17839,1.47806,1.70851,2.99993,1.53053C180.89209,39.92446,181.7319,38.94583,181.73025,36.37385Z" style="fill:#f2b906"/><path d="M8.92767,46.16946c2.06042-.84652,3.96855-1.87492,4.90442-4.06451q1.15057.05219,2.30148.10476c-.292,1.68427-1.546,2.74942-2.57459,3.95955Z" style="fill:#ac8504"/><path d="M6.35218,35.94714a3.55972,3.55972,0,0,0-2.10732,2.34837,34.46453,34.46453,0,0,1-.13958-5.85357c.78367-.01791,1.43724-.60991,2.249-.50247Q6.35327,33.94332,6.35218,35.94714Z" style="fill:#ac8504"/><path d="M4.24475,7.93117A3.03351,3.03351,0,0,0,6.3755,10.30655q-.00529,2.06958-.01089,4.1389-1.12846-.31507-2.25674-.63037A34.337,34.337,0,0,1,4.24475,7.93117Z" style="fill:#ac8504"/><path d="M16.88235,25.21848q-1.14274.03146-2.28562.063.00691-2.06453.01414-4.12926l2.26478.05517Q16.879,23.21294,16.88235,25.21848Z" style="fill:#ac8504"/><path d="M10.55509,38.02423q-.06009-1.11786-.12044-2.23606,2.08653,0,4.17359.00058l-.07687,2.22434Q12.54324,38.01855,10.55509,38.02423Z" style="fill:#ac8504"/><path d="M10.57273,16.80068q-.04167-1.1247-.08332-2.24936,2.04129.00292,4.08255.00583-.01881,1.02394-.03759,2.04763A14.01449,14.01449,0,0,1,10.57273,16.80068Z" style="fill:#ac8504"/><path d="M10.57273,16.80068a14.01449,14.01449,0,0,0,3.96164-.1959q.03805,2.27376.07631,4.54732-.00686,2.0649-.01395,4.1294c-.00788,1.90908.01679,3.81924-.0402,5.727-.0225.75287.26179.907.95382.90352,1.43741-.00712,2.72245.02937,3.89513-1.23473,1.31217-1.41445,3.87658-1.05111,5.26627.404a3.84069,3.84069,0,0,1,.16539,5.27224c-1.41373,1.58932-3.99644,2.12847-5.32658.70365-1.26461-1.35461-2.63181-1.26427-4.13412-1.26029-.25588.00068-.51178-.00567-.76794-.00842q-2.08732,0-4.17385-.00024a25.43414,25.43414,0,0,0-4.08241.159q.001-2.00384.002-4.00767a19.10274,19.10274,0,0,1,2.6742-.02043c1.29638.16316,1.51828-.36721,1.49675-1.54139-.07444-4.06163-.03185-8.12542-.02638-12.18838C10.49945,17.72637,10.547,17.26354,10.57273,16.80068Z" style="fill:#f2b906"/></svg>