<svg width="66" height="17" viewBox="0 0 66 17" fill="none" xmlns="http://www.w3.org/2000/svg">
<path d="M7.89999 16.4C5.49999 16.4 3.19999 16.4 0.799988 16.4C0.499988 16.4 0.39999 16.3 0.39999 16C0.39999 13.8 0.39999 11.7 0.39999 9.5C0.59999 9.6 0.599987 9.8 0.599987 10C0.799987 10.7 0.99999 11.5 1.39999 12.1C1.79999 12.7 2.39999 12.8 3.29999 12.6C3.89999 12.4 3.79999 11.9 3.79999 11.5C3.79999 10.5 3.79999 9.60001 3.79999 8.60001C3.79999 7.10001 3.79999 7.00001 5.39999 7.10001C5.39999 7.10001 5.39999 7.10001 5.49999 7.10001C6.09999 7.10001 6.39999 7.4 6.39999 8C6.39999 9.2 6.39999 10.3 6.39999 11.5C6.39999 11.7 6.19999 12.1 6.59999 12.1C6.89999 12.1 7.29999 11.9 7.29999 11.5C7.29999 11.3 7.29999 11.1 7.29999 11C7.29999 9.4 7.29999 7.89999 7.29999 6.29999C7.29999 5.69999 7.59999 5.39999 8.19999 5.39999C8.39999 5.39999 8.59999 5.39999 8.79999 5.39999C9.69999 5.39999 9.89999 5.6 9.89999 6.5C9.89999 8 9.89999 9.50001 9.89999 11.1C10.6 11 10.9 10.7 10.8 10C10.8 8.2 10.8 6.50001 10.8 4.70001C10.8 4.40001 10.8 4.09999 11 3.89999C11.6 3.59999 12.2 3.69999 12.8 3.79999C13.4 3.89999 13.3 4.49999 13.3 4.89999C13.3 6.29999 13.3 7.69999 13.3 9.29999C14.4 8.59999 15.2 7.79999 16 6.89999C16.4 6.39999 16.5 5.89999 16.2 5.39999C14.9 2.09999 11.7 1.22041e-05 7.99999 0.200012C4.59999 0.400012 1.49999 2.89999 0.599987 6.29999C0.499987 6.49999 0.599988 6.79999 0.299988 6.89999C0.299988 4.69999 0.299988 2.59999 0.299988 0.399994C0.299988 0.0999939 0.399989 0 0.699989 0C22 0 43.3 0 64.6 0C64.9 0 65 0.0999939 65 0.399994C65 5.59999 65 10.9 65 16.1C65 16.6 64.7 16.5 64.4 16.5C45.9 16.5 27.3 16.5 8.79999 16.5C8.89999 16.3 8.99999 16.4 9.09999 16.4C12.5 16.1 15.4 13.8 16.3 10.6C16.6 9.70001 16.7 8.89999 16.6 7.89999C13.3 12.2 8.79999 14 3.69999 14.9C4.49999 15.5 5.29999 15.9 6.19999 16.1C6.89999 16.2 7.39999 16.1 7.89999 16.4ZM24.1 8.10001C25.2 7.40001 25.5 6.79999 25.2 5.79999C25 4.99999 24.3 4.39999 23.2 4.39999C22.2 4.29999 21.2 4.39999 20.2 4.39999C19.9 4.39999 19.8 4.49999 19.8 4.79999C19.8 7.09999 19.8 9.40001 19.8 11.6C19.8 11.8 19.8 12 20.1 12C21.3 12 22.5 12.1 23.7 11.9C24.9 11.7 25.6 10.6 25.3 9.5C25.3 8.8 24.8 8.30001 24.1 8.10001ZM56.6 7.29999C55.9 6.19999 55 5.8 54 6C53 6.2 52.3 6.80001 51.9 7.70001C51.6 8.60001 51.6 9.49999 51.9 10.3C52.3 11.4 53.2 12 54.4 12C55.3 12 56 11.6 56.6 10.7C56.6 11.1 56.6 11.4 56.6 11.6C56.6 12.1 56.9 12 57.2 12C57.5 12 57.9 12.2 57.9 11.6C57.9 9.90001 57.9 8.09999 57.9 6.39999C57.9 6.19999 57.9 6.1 57.7 6C57 5.8 56.7 6.00001 56.7 6.70001C56.6 6.90001 56.6 6.99999 56.6 7.29999ZM41.6 12C41.7 12 41.8 12 42 12C43.1 11.9 43.8 11.3 44 10.3C44.2 9.19999 43.8 8.4 42.7 8C42.3 7.8 41.9 7.70001 41.5 7.60001C41.2 7.50001 40.9 7.40001 40.6 7.20001C40.2 6.90001 40 6.60001 40.1 6.10001C40.2 5.60001 40.6 5.39999 41.1 5.39999C41.7 5.39999 42.2 5.60001 42.4 6.10001C42.7 6.70001 43.3 6.49999 43.6 6.29999C44 6.19999 43.6 5.7 43.5 5.5C43 4.6 41.8 4.19999 40.5 4.39999C39.5 4.59999 38.9 5.20001 38.8 6.10001C38.7 7.10001 39.1 7.80001 40 8.20001C40.6 8.40001 41.1 8.59999 41.7 8.79999C42.1 8.99999 42.4 9.10001 42.6 9.60001C42.8 10.1 42.6 10.7 42.2 10.9C41.6 11.2 40.6 11 40.4 10.4C40.2 9.79999 39.8 9.79999 39.3 9.79999C38.8 9.79999 38.8 9.99999 38.9 10.4C39.3 11.4 40.3 12 41.6 12ZM60.6 6.89999C60.6 6.79999 60.6 6.6 60.6 6.5C60.7 5.9 60.3 5.99999 59.9 5.89999C59.5 5.89999 59.3 6 59.3 6.5C59.3 8.1 59.3 9.79999 59.3 11.4C59.3 11.9 59.5 12 59.9 11.9C60.2 11.9 60.6 12 60.6 11.4C60.6 10.5 60.6 9.60001 60.6 8.60001C60.6 7.50001 61.3 6.79999 62.3 6.79999C63.3 6.79999 63.8 7.40001 63.8 8.60001C63.8 9.50001 63.8 10.5 63.8 11.4C63.8 11.8 64 11.9 64.3 11.8C64.6 11.7 65.1 12.1 65.1 11.5C65.1 10.2 65.2 8.90001 65 7.60001C64.8 6.50001 64 5.79999 62.8 5.79999C61.8 5.89999 61.2 6.29999 60.6 6.89999ZM48 12C49.4 12 50.4 11.3 50.8 10.2C50.8 10.1 51 9.89999 50.8 9.79999C50.5 9.59999 49.7 9.90001 49.5 10.2C49.2 10.8 48.7 11 48 11C47.3 11 46.9 10.7 46.6 10.1C46.3 9.40001 46.3 8.7 46.6 8C46.9 7.4 47.4 7.10001 48 7.10001C48.6 7.10001 49.1 7.29999 49.4 7.79999C49.6 8.19999 50.5 8.50001 50.7 8.20001C51 7.80001 50.6 7.50001 50.5 7.20001C50.4 6.90001 50.1 6.7 49.9 6.5C48.9 5.8 47.3 5.8 46.3 6.5C45.3 7.2 44.9 8.80001 45.3 10.1C45.6 11.3 46.6 12 48 12ZM32.1 9C32.1 9.2 32.1 9.40001 32.2 9.70001C32.4 10.9 33.4 11.9 34.6 12C36.1 12.2 37.3 11.6 37.8 10.3C37.9 10.1 38.1 9.90001 37.8 9.70001C37.5 9.50001 36.7 9.80001 36.5 10.1C36.2 10.7 35.6 11 34.9 10.9C34.2 10.9 33.8 10.5 33.5 9.89999C33.3 9.29999 33.3 8.70001 33.5 8.10001C33.7 7.40001 34.2 7 34.9 7C35.6 6.9 36.2 7.09999 36.5 7.79999C36.8 8.39999 37.4 8.20001 37.7 8.10001C38.1 8.00001 37.7 7.49999 37.6 7.29999C37 6.19999 35.7 5.7 34.3 6C32.9 6.4 32.1 7.4 32.1 9ZM26.4 10.1C26.6 11.4 27.7 12.1 29.3 12C30.3 11.9 31 11.4 31.1 10.5C31.2 9.7 30.7 9.09999 29.7 8.79999C29.2 8.69999 28.7 8.49999 28.2 8.39999C27.8 8.29999 27.5 8 27.6 7.5C27.7 7 28.1 6.89999 28.5 6.89999C29.1 6.89999 29.5 7.10001 29.7 7.60001C29.9 8.20001 30.5 7.99999 30.8 7.89999C31.2 7.79999 30.8 7.40001 30.7 7.20001C30.2 6.30001 29.1 5.80001 27.9 6.10001C26.9 6.30001 26.4 6.80001 26.3 7.70001C26.3 8.50001 26.7 8.99999 27.7 9.29999C28.2 9.39999 28.7 9.50001 29.1 9.70001C29.6 9.80001 29.9 10.1 29.8 10.7C29.7 11.2 29.2 11.3 28.7 11.3C28.3 11.3 27.9 11.2 27.7 10.8C27.6 9.89999 27 10.1 26.4 10.1Z" fill="#FDFDFD"/>
<path d="M0.399963 6.80003C0.599963 6.60003 0.599963 6.40006 0.699963 6.20006C1.59996 2.90006 4.69996 0.300049 8.09996 0.100049C11.8 -0.0999505 15 2.00003 16.3 5.30003C16.5 5.90003 16.5 6.40003 16.1 6.80003C15.3 7.70003 14.5 8.50006 13.4 9.20006C13.4 7.70006 13.4 6.20003 13.4 4.80003C13.4 4.40003 13.5 3.80006 12.9 3.70006C12.3 3.60006 11.7 3.50003 11.1 3.80003C10.8 4.00003 10.9 4.30005 10.9 4.60005C10.9 6.40005 10.9 8.10004 10.9 9.90004C10.9 10.6 10.6 10.9 9.99996 11C9.99996 9.40004 9.99996 7.90004 9.99996 6.40004C9.99996 5.50004 9.79996 5.30003 8.89996 5.30003C8.69996 5.30003 8.49996 5.30003 8.29996 5.30003C7.69996 5.30003 7.39996 5.60006 7.39996 6.20006C7.39996 7.80006 7.39996 9.30004 7.39996 10.9C7.39996 11.1 7.39996 11.3 7.39996 11.4C7.29996 11.8 6.99996 12 6.69996 12C6.29996 12 6.49996 11.6 6.49996 11.4C6.49996 10.2 6.49996 9.10004 6.49996 7.90004C6.49996 7.30004 6.19996 7.00004 5.59996 7.00004C5.59996 7.00004 5.59996 7.00004 5.49996 7.00004C3.89996 7.00004 3.89996 7.00004 3.89996 8.50004C3.89996 9.50004 3.89996 10.4 3.89996 11.4C3.89996 11.8 4.09996 12.3 3.39996 12.5C2.49996 12.8 1.89996 12.6 1.49996 12C1.09996 11.4 0.799963 10.6 0.699963 9.90004C0.699963 9.70004 0.699962 9.50004 0.499962 9.40004C0.399962 8.60004 0.399963 7.70003 0.399963 6.80003Z" fill="#14181E"/>
<path d="M7.89996 16.4C7.49996 16.1 6.89996 16.1 6.39996 16C5.49996 15.7 4.69996 15.4 3.89996 14.8C8.99996 13.9 13.5 12 16.8 7.79999C17 8.79999 16.8 9.7 16.5 10.5C15.6 13.7 12.7 16 9.29996 16.3C9.19996 16.3 8.99996 16.3 8.99996 16.4C8.59996 16.4 8.19996 16.4 7.89996 16.4Z" fill="#EFB90F"/>
<path d="M24.1 8.10004C24.8 8.40004 25.3 8.80003 25.4 9.50003C25.7 10.6 25 11.7 23.8 11.9C22.6 12.1 21.4 12 20.2 12C19.9 12 19.9 11.8 19.9 11.6C19.9 9.30004 19.9 7.00002 19.9 4.80002C19.9 4.50002 20 4.40002 20.3 4.40002C21.3 4.40002 22.3 4.40002 23.3 4.40002C24.4 4.50002 25.1 5.00002 25.3 5.80002C25.5 6.80002 25.2 7.40004 24.1 8.10004ZM21.2 9.80002C21.2 10.1 21.2 10.4 21.2 10.7C21.2 10.9 21.2 11 21.4 11C22.1 11 22.7 11.1 23.4 10.9C24 10.7 24.2 10.3 24.2 9.80002C24.2 9.30002 23.9 8.90004 23.4 8.70004C23.1 8.60004 22.7 8.60004 22.4 8.60004C21.2 8.50004 21.2 8.50002 21.2 9.80002ZM21.2 6.50003C21.2 6.80003 21.2 7.00002 21.2 7.30002C21.2 7.50002 21.2 7.70004 21.5 7.70004C22.1 7.70004 22.7 7.80004 23.2 7.60004C23.8 7.50004 24.1 7.00002 24 6.40002C24 5.80002 23.6 5.50002 23.1 5.40002C22.8 5.40002 22.6 5.40002 22.3 5.40002C21.2 5.40002 21.2 5.40003 21.2 6.50003Z" fill="#1B1E24"/>
<path d="M56.6 7.29995C56.6 6.99995 56.6 6.89995 56.6 6.79995C56.6 6.09995 57 5.89997 57.6 6.09997C57.8 6.19997 57.8 6.29996 57.8 6.49996C57.8 8.19996 57.8 9.99998 57.8 11.7C57.8 12.3 57.4 12.1 57.1 12.1C56.8 12.1 56.5 12.3 56.5 11.7C56.5 11.5 56.5 11.2 56.5 10.8C55.9 11.7 55.3 12.1 54.3 12.1C53.1 12.1 52.2 11.5 51.8 10.4C51.5 9.49996 51.5 8.59995 51.8 7.79995C52.1 6.79995 52.8 6.19997 53.9 6.09997C55.1 5.79997 55.9 6.19995 56.6 7.29995ZM54.8 10.9C55.9 10.9 56.6 10.1 56.6 8.99996C56.6 7.89996 55.9 7.09996 54.8 6.99996C53.7 6.99996 53 7.79996 52.9 8.89996C53 10.1 53.7 10.9 54.8 10.9Z" fill="#171B21"/>
<path d="M41.6 12C40.2 12 39.2 11.3 38.9 10.4C38.8 9.99996 38.8 9.79995 39.3 9.79995C39.8 9.79995 40.1 9.79996 40.4 10.4C40.7 11 41.6 11.2 42.2 10.9C42.7 10.7 42.9 10.1 42.6 9.59997C42.4 9.19997 42.1 8.99995 41.7 8.79995C41.1 8.59995 40.6 8.39998 40 8.19998C39 7.79998 38.6 6.99997 38.8 6.09997C38.9 5.19997 39.6 4.59996 40.5 4.39996C41.9 4.19996 43 4.59997 43.5 5.49997C43.6 5.69997 44 6.19995 43.6 6.29995C43.3 6.39995 42.7 6.69997 42.4 6.09997C42.1 5.49997 41.7 5.29996 41.1 5.39996C40.6 5.39996 40.2 5.59997 40.1 6.09997C40 6.59997 40.2 6.99998 40.6 7.19998C40.9 7.39998 41.2 7.49997 41.5 7.59997C41.9 7.79997 42.3 7.89997 42.7 7.99997C43.7 8.49997 44.2 9.19995 44 10.3C43.8 11.2 43.1 11.9 42 12C41.9 12 41.7 12 41.6 12Z" fill="#1B1E24"/>
<path d="M60.6 6.90002C61.2 6.20002 61.9 5.90002 62.8 5.90002C64 5.90002 64.8 6.60004 65 7.70004C65.2 9.00004 65.1 10.3 65.1 11.6C65.1 12.2 64.6 11.9 64.3 11.9C64 12 63.8 11.9 63.8 11.5C63.8 10.6 63.8 9.60004 63.8 8.70004C63.8 7.50004 63.3 6.90002 62.3 6.90002C61.3 6.90002 60.7 7.50004 60.6 8.70004C60.6 9.60004 60.6 10.5 60.6 11.5C60.6 12.1 60.3 12 59.9 12C59.5 12 59.3 12 59.3 11.5C59.3 9.90003 59.3 8.20004 59.3 6.60004C59.3 6.20004 59.4 6.00003 59.9 6.00003C60.3 6.00003 60.7 5.90004 60.6 6.60004C60.5 6.70004 60.6 6.80002 60.6 6.90002Z" fill="#1B1E24"/>
<path d="M48 12C46.6 12 45.6 11.3 45.2 10.1C44.7 8.69998 45.2 7.19998 46.2 6.49998C47.2 5.79998 48.8 5.79998 49.8 6.49998C50.1 6.69998 50.3 6.89999 50.4 7.19999C50.6 7.49999 50.9 7.79999 50.6 8.19999C50.4 8.49999 49.5 8.09996 49.3 7.79996C49 7.29996 48.5 7.09998 47.9 7.09998C47.3 7.09998 46.8 7.39998 46.5 7.99998C46.2 8.69998 46.2 9.39998 46.5 10.1C46.8 10.7 47.2 11 47.9 11C48.6 11 49.1 10.8 49.4 10.2C49.6 9.89999 50.5 9.59996 50.7 9.79996C50.9 9.89996 50.8 10.1 50.7 10.2C50.4 11.3 49.3 12 48 12Z" fill="#1B1E24"/>
<path d="M32.1 8.99999C32.2 7.39999 32.9 6.39999 34.3 5.99999C35.7 5.69999 37 6.19998 37.6 7.29998C37.7 7.59998 38.1 7.99999 37.7 8.09999C37.4 8.19999 36.8 8.49998 36.5 7.79998C36.2 7.09998 35.6 6.89999 34.9 6.99999C34.2 7.09999 33.7 7.49999 33.5 8.09999C33.3 8.7 33.3 9.29998 33.5 9.89998C33.7 10.5 34.2 10.9 34.9 10.9C35.6 10.9 36.1 10.7 36.5 10.1C36.7 9.8 37.4 9.5 37.8 9.7C38.1 9.9 37.9 10.1 37.8 10.3C37.3 11.5 36.2 12.1 34.6 12C33.4 11.9 32.4 10.9 32.2 9.7C32.1 9.4 32.1 9.19999 32.1 8.99999Z" fill="#1B1E24"/>
<path d="M26.4 10.1C27 10.1 27.5 9.89997 27.8 10.6C27.9 11 28.4 11.1 28.8 11.1C29.3 11.1 29.7 11 29.9 10.5C30 9.89997 29.7 9.69997 29.2 9.49997C28.7 9.39997 28.2 9.29997 27.8 9.09997C26.8 8.79997 26.4 8.29997 26.4 7.49997C26.4 6.69997 27 6.09996 28 5.89996C29.2 5.69996 30.3 6.09997 30.8 6.99997C30.9 7.19997 31.3 7.59998 30.9 7.69998C30.6 7.79998 30.1 7.99996 29.8 7.39996C29.6 6.89996 29.1 6.59998 28.6 6.69998C28.2 6.69998 27.8 6.79995 27.7 7.29995C27.6 7.79995 27.9 8.09998 28.3 8.19998C28.8 8.39998 29.3 8.49997 29.8 8.59997C30.8 8.89997 31.3 9.49995 31.2 10.3C31.1 11.2 30.4 11.7 29.4 11.8C27.7 12.1 26.7 11.5 26.4 10.1Z" fill="#1B1E24"/>
<path d="M21.2 9.79996C21.2 8.59996 21.2 8.59998 22.4 8.59998C22.7 8.59998 23.1 8.59998 23.4 8.69998C23.9 8.89998 24.2 9.19996 24.2 9.79996C24.2 10.3 24 10.7 23.4 10.9C22.7 11.1 22.1 11 21.4 11C21.2 11 21.2 10.9 21.2 10.7C21.2 10.3 21.2 9.99996 21.2 9.79996Z" fill="#F7F7F7"/>
<path d="M21.2 6.50003C21.2 5.40003 21.2 5.40002 22.3 5.40002C22.6 5.40002 22.8 5.40002 23.1 5.40002C23.6 5.50002 24 5.80002 24 6.40002C24 7.00002 23.8 7.50004 23.2 7.60004C22.6 7.70004 22 7.70004 21.5 7.70004C21.2 7.70004 21.2 7.50002 21.2 7.30002C21.2 7.00002 21.2 6.70003 21.2 6.50003Z" fill="#F7F7F7"/>
<path d="M54.8 10.9C53.7 10.9 53 10.1 53 8.89999C53 7.69999 53.8 7 54.9 7C55.9 7 56.7 7.8 56.7 9C56.6 10.1 55.9 10.9 54.8 10.9Z" fill="#FDFDFD"/>
</svg>
