<svg width="21" height="13" viewBox="0 0 21 13" fill="none" xmlns="http://www.w3.org/2000/svg">
<path d="M8.99998 2.90002C11.4 2.90002 13.8 2.90002 16.2 2.90002C17 2.90002 17.8 2.90002 17.9 1.90002C17.9 0.900024 17 0.900024 16.3 0.900024C11.5 0.900024 6.69998 0.900024 1.89997 0.900024C1.09997 0.900024 0.299976 0.900024 0.199976 1.90002C0.199976 2.90002 1.09997 2.90002 1.79997 2.90002C4.19997 2.90002 6.59998 2.90002 8.99998 2.90002ZM9.19998 10.8C6.59998 10.8 4.09998 10.8 1.49998 10.8C0.799975 10.8 0.0999756 11 0.0999756 11.8C0.0999756 12.7 0.799975 12.8 1.49998 12.8C6.39998 12.8 11.4 12.8 16.3 12.8C17 12.8 17.7 12.6 17.7 11.8C17.7 10.9 17 10.8 16.3 10.8C14 10.8 11.6 10.8 9.19998 10.8Z" fill="#0C1C2B"/>
<path d="M9.00001 2.90002C6.60001 2.90002 4.20001 2.90002 1.80001 2.90002C1.10001 2.90002 0.10001 2.90002 0.20001 1.90002C0.20001 0.900024 1.10001 0.900024 1.90001 0.900024C6.70001 0.900024 11.5 0.900024 16.3 0.900024C17.1 0.900024 17.9 0.900024 17.9 1.90002C17.9 2.90002 17 2.90002 16.2 2.90002C13.7 2.90002 11.3 2.90002 9.00001 2.90002Z" fill="#0C1C2B"/>
<path d="M8.99999 5.80005C11.4 5.80005 8.79999 5.80005 11.2 5.80005C12 5.80005 12.8 5.80005 12.8 6.90005C12.8 7.90005 11.9 7.90005 11.1 7.90005C6.29999 7.90005 6.49999 7.90005 1.69999 7.90005C0.89999 7.90005 -1.03042e-05 7.90005 0.0999897 6.90005C0.0999897 5.90005 0.999988 5.90005 1.79999 5.90005C4.19999 5.80005 6.59999 5.80005 8.99999 5.80005Z" fill="#0C1C2B"/>
<path d="M9.20001 10.8C11.6 10.8 14 10.8 16.4 10.8C17.1 10.8 17.8 11 17.8 11.8C17.8 12.7 17.1 12.8 16.4 12.8C11.5 12.8 6.50001 12.8 1.60001 12.8C0.900012 12.8 0.200012 12.7 0.200012 11.8C0.200012 11 0.900012 10.8 1.60001 10.8C4.10001 10.8 6.70001 10.8 9.20001 10.8Z" fill="#0C1C2B"/>
<path fill-rule="evenodd" clip-rule="evenodd" d="M15.4 6.69999C15.2 6.89999 15.2 7.29999 15.4 7.49999L19.5 11.7C19.6 11.8 19.8 11.8 19.9 11.7L20.3 11.3C20.4 11.2 20.4 11 20.3 10.9V3.29999C20.4 3.19999 20.4 2.99999 20.3 2.89999L19.9 2.49999C19.8 2.39999 19.6 2.39999 19.5 2.49999L15.4 6.69999Z" fill="#0C1C2B"/>
</svg>
