<svg width="19" height="13" viewBox="0 0 19 13" fill="none" xmlns="http://www.w3.org/2000/svg">
<path d="M9.52 2.23347H16.7C17.45 2.23347 18.34 2.23347 18.36 1.23347C18.38 0.233471 17.49 0.233472 16.74 0.183472H2.39C1.63 0.183472 0.739998 0.183472 0.719998 1.18347C0.699998 2.18347 1.59 2.18347 2.34 2.18347C4.78 2.24347 7.13 2.23347 9.52 2.23347ZM9.57 5.14347H2.39C1.64 5.14347 0.739997 5.14347 0.709997 6.14347C0.679997 7.14347 1.57 7.19347 2.32 7.19347H16.68C17.43 7.19347 18.33 7.19347 18.36 6.19347C18.39 5.19347 17.51 5.19347 16.75 5.19347C14.36 5.13347 11.96 5.14347 9.57 5.14347ZM9.78 10.1435H2.11C1.42 10.1435 0.699997 10.3235 0.709997 11.1435C0.719997 11.9635 1.44 12.1435 2.12 12.1435H16.97C17.66 12.1435 18.38 11.9735 18.37 11.1435C18.36 10.3135 17.65 10.1435 16.96 10.1435C14.57 10.1035 12.17 10.1135 9.78 10.1135V10.1435Z" fill="#0C1C2B"/>
<path d="M9.52 2.23352H2.34C1.59 2.23352 0.689999 2.23352 0.719999 1.23352C0.749999 0.233521 1.63 0.233521 2.39 0.233521H16.78C17.53 0.233521 18.43 0.23352 18.4 1.28352C18.37 2.33352 17.49 2.28352 16.74 2.28352C14.3 2.24352 11.91 2.23352 9.52 2.23352Z" fill="#0C1C2B"/>
<path d="M9.57 5.14352H16.75C17.51 5.14352 18.4 5.14352 18.36 6.14352C18.32 7.14352 17.43 7.14352 16.68 7.14352H2.32C1.57 7.14352 0.669997 7.14352 0.709997 6.09352C0.749997 5.04352 1.64 5.09352 2.39 5.09352L9.57 5.14352Z" fill="#0C1C2B"/>
<path d="M9.77999 10.1135H16.96C17.65 10.1135 18.37 10.2735 18.37 11.1135C18.37 11.9535 17.66 12.1135 16.97 12.1135H2.11999C1.43999 12.1135 0.709991 11.9635 0.709991 11.1135C0.709991 10.2635 1.41999 10.1135 2.10999 10.1135C4.66999 10.1035 7.21999 10.1135 9.77999 10.1135Z" fill="#0C1C2B"/>
</svg>
