<svg xmlns="http://www.w3.org/2000/svg" width="226" height="212" viewBox="0 0 226 212"><defs><clipPath id="km46a"><path d="M28.383 98.96c0 54.446 44.137 98.583 98.583 98.583 54.445 0 98.583-44.137 98.583-98.583S181.411.376 126.966.376C72.52.376 28.383 44.514 28.383 98.96z"/></clipPath><clipPath id="km46b"><path d="M28.383 98.96c0 54.446 44.137 98.583 98.583 98.583 54.445 0 98.583-44.137 98.583-98.583S181.411.376 126.966.376C72.52.376 28.383 44.514 28.383 98.96z"/></clipPath><clipPath id="km46c"><path d="M28.383 98.96c0 54.446 44.137 98.583 98.583 98.583 54.445 0 98.583-44.137 98.583-98.583S181.411.376 126.966.376C72.52.376 28.383 44.514 28.383 98.96z"/></clipPath><clipPath id="km46d"><path d="M28.383 98.96c0 54.446 44.137 98.583 98.583 98.583 54.445 0 98.583-44.137 98.583-98.583S181.411.376 126.966.376C72.52.376 28.383 44.514 28.383 98.96z"/></clipPath><clipPath id="km46e"><path d="M28.383 98.96c0 54.446 44.137 98.583 98.583 98.583 54.445 0 98.583-44.137 98.583-98.583S181.411.376 126.966.376C72.52.376 28.383 44.514 28.383 98.96z"/></clipPath><clipPath id="km46f"><path d="M28.383 98.96c0 54.446 44.137 98.583 98.583 98.583 54.445 0 98.583-44.137 98.583-98.583S181.411.376 126.966.376C72.52.376 28.383 44.514 28.383 98.96z"/></clipPath><clipPath id="km46g"><path d="M28.383 98.96c0 54.446 44.137 98.583 98.583 98.583 54.445 0 98.583-44.137 98.583-98.583S181.411.376 126.966.376C72.52.376 28.383 44.514 28.383 98.96z"/></clipPath><clipPath id="km46h"><path d="M28.383 98.96c0 54.446 44.137 98.583 98.583 98.583 54.445 0 98.583-44.137 98.583-98.583S181.411.376 126.966.376C72.52.376 28.383 44.514 28.383 98.96z"/></clipPath><clipPath id="km46i"><path d="M28.383 98.96c0 54.446 44.137 98.583 98.583 98.583 54.445 0 98.583-44.137 98.583-98.583S181.411.376 126.966.376C72.52.376 28.383 44.514 28.383 98.96z"/></clipPath><clipPath id="km46j"><path d="M28.383 98.96c0 54.446 44.137 98.583 98.583 98.583 54.445 0 98.583-44.137 98.583-98.583S181.411.376 126.966.376C72.52.376 28.383 44.514 28.383 98.96z"/></clipPath><clipPath id="km46k"><path d="M28.383 98.96c0 54.446 44.137 98.583 98.583 98.583 54.445 0 98.583-44.137 98.583-98.583S181.411.376 126.966.376C72.52.376 28.383 44.514 28.383 98.96z"/></clipPath><clipPath id="km46l"><path d="M28.383 98.96c0 54.446 44.137 98.583 98.583 98.583 54.445 0 98.583-44.137 98.583-98.583S181.411.376 126.966.376C72.52.376 28.383 44.514 28.383 98.96z"/></clipPath><clipPath id="km46m"><path d="M28.383 98.96c0 54.446 44.137 98.583 98.583 98.583 54.445 0 98.583-44.137 98.583-98.583S181.411.376 126.966.376C72.52.376 28.383 44.514 28.383 98.96z"/></clipPath><clipPath id="km46n"><path d="M28.383 98.96c0 54.446 44.137 98.583 98.583 98.583 54.445 0 98.583-44.137 98.583-98.583S181.411.376 126.966.376C72.52.376 28.383 44.514 28.383 98.96z"/></clipPath><clipPath id="km46o"><path d="M28.383 98.96c0 54.446 44.137 98.583 98.583 98.583 54.445 0 98.583-44.137 98.583-98.583S181.411.376 126.966.376C72.52.376 28.383 44.514 28.383 98.96z"/></clipPath><clipPath id="km46p"><path d="M28.383 98.96c0 54.446 44.137 98.583 98.583 98.583 54.445 0 98.583-44.137 98.583-98.583S181.411.376 126.966.376C72.52.376 28.383 44.514 28.383 98.96z"/></clipPath><clipPath id="km46q"><path d="M28.383 98.96c0 54.446 44.137 98.583 98.583 98.583 54.445 0 98.583-44.137 98.583-98.583S181.411.376 126.966.376C72.52.376 28.383 44.514 28.383 98.96z"/></clipPath><clipPath id="km46r"><path d="M28.383 98.96c0 54.446 44.137 98.583 98.583 98.583 54.445 0 98.583-44.137 98.583-98.583S181.411.376 126.966.376C72.52.376 28.383 44.514 28.383 98.96z"/></clipPath><clipPath id="km46s"><path d="M28.383 98.96c0 54.446 44.137 98.583 98.583 98.583 54.445 0 98.583-44.137 98.583-98.583S181.411.376 126.966.376C72.52.376 28.383 44.514 28.383 98.96z"/></clipPath><clipPath id="km46t"><path d="M28.383 98.96c0 54.446 44.137 98.583 98.583 98.583 54.445 0 98.583-44.137 98.583-98.583S181.411.376 126.966.376C72.52.376 28.383 44.514 28.383 98.96z"/></clipPath><clipPath id="km46u"><path d="M28.383 98.96c0 54.446 44.137 98.583 98.583 98.583 54.445 0 98.583-44.137 98.583-98.583S181.411.376 126.966.376C72.52.376 28.383 44.514 28.383 98.96z"/></clipPath><clipPath id="km46v"><path d="M28.383 98.96c0 54.446 44.137 98.583 98.583 98.583 54.445 0 98.583-44.137 98.583-98.583S181.411.376 126.966.376C72.52.376 28.383 44.514 28.383 98.96z"/></clipPath><clipPath id="km46w"><path d="M28.383 98.96c0 54.446 44.137 98.583 98.583 98.583 54.445 0 98.583-44.137 98.583-98.583S181.411.376 126.966.376C72.52.376 28.383 44.514 28.383 98.96z"/></clipPath><clipPath id="km46x"><path d="M28.383 98.96c0 54.446 44.137 98.583 98.583 98.583 54.445 0 98.583-44.137 98.583-98.583S181.411.376 126.966.376C72.52.376 28.383 44.514 28.383 98.96z"/></clipPath><clipPath id="km46y"><path d="M28.383 98.96c0 54.446 44.137 98.583 98.583 98.583 54.445 0 98.583-44.137 98.583-98.583S181.411.376 126.966.376C72.52.376 28.383 44.514 28.383 98.96z"/></clipPath><clipPath id="km46z"><path d="M28.383 98.96c0 54.446 44.137 98.583 98.583 98.583 54.445 0 98.583-44.137 98.583-98.583S181.411.376 126.966.376C72.52.376 28.383 44.514 28.383 98.96z"/></clipPath><clipPath id="km46A"><path d="M28.383 98.96c0 54.446 44.137 98.583 98.583 98.583 54.445 0 98.583-44.137 98.583-98.583S181.411.376 126.966.376C72.52.376 28.383 44.514 28.383 98.96z"/></clipPath><clipPath id="km46B"><path d="M28.383 98.96c0 54.446 44.137 98.583 98.583 98.583 54.445 0 98.583-44.137 98.583-98.583S181.411.376 126.966.376C72.52.376 28.383 44.514 28.383 98.96z"/></clipPath><clipPath id="km46C"><path d="M28.383 98.96c0 54.446 44.137 98.583 98.583 98.583 54.445 0 98.583-44.137 98.583-98.583S181.411.376 126.966.376C72.52.376 28.383 44.514 28.383 98.96z"/></clipPath><clipPath id="km46D"><path d="M28.383 98.96c0 54.446 44.137 98.583 98.583 98.583 54.445 0 98.583-44.137 98.583-98.583S181.411.376 126.966.376C72.52.376 28.383 44.514 28.383 98.96z"/></clipPath><clipPath id="km46E"><path d="M28.383 98.96c0 54.446 44.137 98.583 98.583 98.583 54.445 0 98.583-44.137 98.583-98.583S181.411.376 126.966.376C72.52.376 28.383 44.514 28.383 98.96z"/></clipPath><clipPath id="km46F"><path d="M28.383 98.96c0 54.446 44.137 98.583 98.583 98.583 54.445 0 98.583-44.137 98.583-98.583S181.411.376 126.966.376C72.52.376 28.383 44.514 28.383 98.96z"/></clipPath><clipPath id="km46G"><path d="M28.383 98.96c0 54.446 44.137 98.583 98.583 98.583 54.445 0 98.583-44.137 98.583-98.583S181.411.376 126.966.376C72.52.376 28.383 44.514 28.383 98.96z"/></clipPath><clipPath id="km46H"><path d="M28.383 98.96c0 54.446 44.137 98.583 98.583 98.583 54.445 0 98.583-44.137 98.583-98.583S181.411.376 126.966.376C72.52.376 28.383 44.514 28.383 98.96z"/></clipPath><clipPath id="km46I"><path d="M28.383 98.96c0 54.446 44.137 98.583 98.583 98.583 54.445 0 98.583-44.137 98.583-98.583S181.411.376 126.966.376C72.52.376 28.383 44.514 28.383 98.96z"/></clipPath><clipPath id="km46J"><path d="M28.383 98.96c0 54.446 44.137 98.583 98.583 98.583 54.445 0 98.583-44.137 98.583-98.583S181.411.376 126.966.376C72.52.376 28.383 44.514 28.383 98.96z"/></clipPath><clipPath id="km46K"><path d="M28.383 98.96c0 54.446 44.137 98.583 98.583 98.583 54.445 0 98.583-44.137 98.583-98.583S181.411.376 126.966.376C72.52.376 28.383 44.514 28.383 98.96z"/></clipPath><clipPath id="km46L"><path d="M28.383 98.96c0 54.446 44.137 98.583 98.583 98.583 54.445 0 98.583-44.137 98.583-98.583S181.411.376 126.966.376C72.52.376 28.383 44.514 28.383 98.96z"/></clipPath><clipPath id="km46M"><path d="M28.383 98.96c0 54.446 44.137 98.583 98.583 98.583 54.445 0 98.583-44.137 98.583-98.583S181.411.376 126.966.376C72.52.376 28.383 44.514 28.383 98.96z"/></clipPath><clipPath id="km46N"><path d="M28.383 98.96c0 54.446 44.137 98.583 98.583 98.583 54.445 0 98.583-44.137 98.583-98.583S181.411.376 126.966.376C72.52.376 28.383 44.514 28.383 98.96z"/></clipPath><clipPath id="km46O"><path d="M28.383 98.96c0 54.446 44.137 98.583 98.583 98.583 54.445 0 98.583-44.137 98.583-98.583S181.411.376 126.966.376C72.52.376 28.383 44.514 28.383 98.96z"/></clipPath><clipPath id="km46P"><path d="M28.383 98.96c0 54.446 44.137 98.583 98.583 98.583 54.445 0 98.583-44.137 98.583-98.583S181.411.376 126.966.376C72.52.376 28.383 44.514 28.383 98.96z"/></clipPath><clipPath id="km46Q"><path d="M28.383 98.96c0 54.446 44.137 98.583 98.583 98.583 54.445 0 98.583-44.137 98.583-98.583S181.411.376 126.966.376C72.52.376 28.383 44.514 28.383 98.96z"/></clipPath><clipPath id="km46R"><path d="M28.383 98.96c0 54.446 44.137 98.583 98.583 98.583 54.445 0 98.583-44.137 98.583-98.583S181.411.376 126.966.376C72.52.376 28.383 44.514 28.383 98.96z"/></clipPath><clipPath id="km46S"><path d="M28.383 98.96c0 54.446 44.137 98.583 98.583 98.583 54.445 0 98.583-44.137 98.583-98.583S181.411.376 126.966.376C72.52.376 28.383 44.514 28.383 98.96z"/></clipPath><clipPath id="km46T"><path d="M28.383 98.96c0 54.446 44.137 98.583 98.583 98.583 54.445 0 98.583-44.137 98.583-98.583S181.411.376 126.966.376C72.52.376 28.383 44.514 28.383 98.96z"/></clipPath><clipPath id="km46U"><path d="M28.383 98.96c0 54.446 44.137 98.583 98.583 98.583 54.445 0 98.583-44.137 98.583-98.583S181.411.376 126.966.376C72.52.376 28.383 44.514 28.383 98.96z"/></clipPath><clipPath id="km46V"><path d="M28.383 98.96c0 54.446 44.137 98.583 98.583 98.583 54.445 0 98.583-44.137 98.583-98.583S181.411.376 126.966.376C72.52.376 28.383 44.514 28.383 98.96z"/></clipPath><clipPath id="km46W"><path d="M28.383 98.96c0 54.446 44.137 98.583 98.583 98.583 54.445 0 98.583-44.137 98.583-98.583S181.411.376 126.966.376C72.52.376 28.383 44.514 28.383 98.96z"/></clipPath><clipPath id="km46X"><path d="M28.383 98.96c0 54.446 44.137 98.583 98.583 98.583 54.445 0 98.583-44.137 98.583-98.583S181.411.376 126.966.376C72.52.376 28.383 44.514 28.383 98.96z"/></clipPath><clipPath id="km46Y"><path d="M28.383 98.96c0 54.446 44.137 98.583 98.583 98.583 54.445 0 98.583-44.137 98.583-98.583S181.411.376 126.966.376C72.52.376 28.383 44.514 28.383 98.96z"/></clipPath><clipPath id="km46Z"><path d="M28.383 98.96c0 54.446 44.137 98.583 98.583 98.583 54.445 0 98.583-44.137 98.583-98.583S181.411.376 126.966.376C72.52.376 28.383 44.514 28.383 98.96z"/></clipPath><clipPath id="km46aa"><path d="M28.383 98.96c0 54.446 44.137 98.583 98.583 98.583 54.445 0 98.583-44.137 98.583-98.583S181.411.376 126.966.376C72.52.376 28.383 44.514 28.383 98.96z"/></clipPath><clipPath id="km46ab"><path d="M28.383 98.96c0 54.446 44.137 98.583 98.583 98.583 54.445 0 98.583-44.137 98.583-98.583S181.411.376 126.966.376C72.52.376 28.383 44.514 28.383 98.96z"/></clipPath><clipPath id="km46ac"><path d="M28.383 98.96c0 54.446 44.137 98.583 98.583 98.583 54.445 0 98.583-44.137 98.583-98.583S181.411.376 126.966.376C72.52.376 28.383 44.514 28.383 98.96z"/></clipPath><clipPath id="km46ad"><path d="M28.383 98.96c0 54.446 44.137 98.583 98.583 98.583 54.445 0 98.583-44.137 98.583-98.583S181.411.376 126.966.376C72.52.376 28.383 44.514 28.383 98.96z"/></clipPath><clipPath id="km46ae"><path d="M28.383 98.96c0 54.446 44.137 98.583 98.583 98.583 54.445 0 98.583-44.137 98.583-98.583S181.411.376 126.966.376C72.52.376 28.383 44.514 28.383 98.96z"/></clipPath><clipPath id="km46af"><path d="M28.383 98.96c0 54.446 44.137 98.583 98.583 98.583 54.445 0 98.583-44.137 98.583-98.583S181.411.376 126.966.376C72.52.376 28.383 44.514 28.383 98.96z"/></clipPath><clipPath id="km46ag"><path d="M28.383 98.96c0 54.446 44.137 98.583 98.583 98.583 54.445 0 98.583-44.137 98.583-98.583S181.411.376 126.966.376C72.52.376 28.383 44.514 28.383 98.96z"/></clipPath><clipPath id="km46ah"><path d="M28.383 98.96c0 54.446 44.137 98.583 98.583 98.583 54.445 0 98.583-44.137 98.583-98.583S181.411.376 126.966.376C72.52.376 28.383 44.514 28.383 98.96z"/></clipPath><clipPath id="km46ai"><path d="M28.383 98.96c0 54.446 44.137 98.583 98.583 98.583 54.445 0 98.583-44.137 98.583-98.583S181.411.376 126.966.376C72.52.376 28.383 44.514 28.383 98.96z"/></clipPath><clipPath id="km46aj"><path d="M28.383 98.96c0 54.446 44.137 98.583 98.583 98.583 54.445 0 98.583-44.137 98.583-98.583S181.411.376 126.966.376C72.52.376 28.383 44.514 28.383 98.96z"/></clipPath><clipPath id="km46ak"><path d="M28.383 98.96c0 54.446 44.137 98.583 98.583 98.583 54.445 0 98.583-44.137 98.583-98.583S181.411.376 126.966.376C72.52.376 28.383 44.514 28.383 98.96z"/></clipPath><clipPath id="km46al"><path d="M28.383 98.96c0 54.446 44.137 98.583 98.583 98.583 54.445 0 98.583-44.137 98.583-98.583S181.411.376 126.966.376C72.52.376 28.383 44.514 28.383 98.96z"/></clipPath><clipPath id="km46am"><path d="M28.383 98.96c0 54.446 44.137 98.583 98.583 98.583 54.445 0 98.583-44.137 98.583-98.583S181.411.376 126.966.376C72.52.376 28.383 44.514 28.383 98.96z"/></clipPath><clipPath id="km46an"><path d="M28.383 98.96c0 54.446 44.137 98.583 98.583 98.583 54.445 0 98.583-44.137 98.583-98.583S181.411.376 126.966.376C72.52.376 28.383 44.514 28.383 98.96z"/></clipPath><clipPath id="km46ao"><path d="M28.383 98.96c0 54.446 44.137 98.583 98.583 98.583 54.445 0 98.583-44.137 98.583-98.583S181.411.376 126.966.376C72.52.376 28.383 44.514 28.383 98.96z"/></clipPath><clipPath id="km46ap"><path d="M28.383 98.96c0 54.446 44.137 98.583 98.583 98.583 54.445 0 98.583-44.137 98.583-98.583S181.411.376 126.966.376C72.52.376 28.383 44.514 28.383 98.96z"/></clipPath><clipPath id="km46aq"><path d="M28.383 98.96c0 54.446 44.137 98.583 98.583 98.583 54.445 0 98.583-44.137 98.583-98.583S181.411.376 126.966.376C72.52.376 28.383 44.514 28.383 98.96z"/></clipPath><clipPath id="km46ar"><path d="M28.383 98.96c0 54.446 44.137 98.583 98.583 98.583 54.445 0 98.583-44.137 98.583-98.583S181.411.376 126.966.376C72.52.376 28.383 44.514 28.383 98.96z"/></clipPath><clipPath id="km46as"><path d="M28.383 98.96c0 54.446 44.137 98.583 98.583 98.583 54.445 0 98.583-44.137 98.583-98.583S181.411.376 126.966.376C72.52.376 28.383 44.514 28.383 98.96z"/></clipPath><clipPath id="km46at"><path d="M28.383 98.96c0 54.446 44.137 98.583 98.583 98.583 54.445 0 98.583-44.137 98.583-98.583S181.411.376 126.966.376C72.52.376 28.383 44.514 28.383 98.96z"/></clipPath><clipPath id="km46au"><path d="M28.383 98.96c0 54.446 44.137 98.583 98.583 98.583 54.445 0 98.583-44.137 98.583-98.583S181.411.376 126.966.376C72.52.376 28.383 44.514 28.383 98.96z"/></clipPath><clipPath id="km46av"><path d="M28.383 98.96c0 54.446 44.137 98.583 98.583 98.583 54.445 0 98.583-44.137 98.583-98.583S181.411.376 126.966.376C72.52.376 28.383 44.514 28.383 98.96z"/></clipPath><clipPath id="km46aw"><path d="M28.383 98.96c0 54.446 44.137 98.583 98.583 98.583 54.445 0 98.583-44.137 98.583-98.583S181.411.376 126.966.376C72.52.376 28.383 44.514 28.383 98.96z"/></clipPath><clipPath id="km46ax"><path d="M28.383 98.96c0 54.446 44.137 98.583 98.583 98.583 54.445 0 98.583-44.137 98.583-98.583S181.411.376 126.966.376C72.52.376 28.383 44.514 28.383 98.96z"/></clipPath><clipPath id="km46ay"><path d="M28.383 98.96c0 54.446 44.137 98.583 98.583 98.583 54.445 0 98.583-44.137 98.583-98.583S181.411.376 126.966.376C72.52.376 28.383 44.514 28.383 98.96z"/></clipPath><clipPath id="km46az"><path d="M28.383 98.96c0 54.446 44.137 98.583 98.583 98.583 54.445 0 98.583-44.137 98.583-98.583S181.411.376 126.966.376C72.52.376 28.383 44.514 28.383 98.96z"/></clipPath><clipPath id="km46aA"><path d="M28.383 98.96c0 54.446 44.137 98.583 98.583 98.583 54.445 0 98.583-44.137 98.583-98.583S181.411.376 126.966.376C72.52.376 28.383 44.514 28.383 98.96z"/></clipPath><clipPath id="km46aB"><path d="M28.383 98.96c0 54.446 44.137 98.583 98.583 98.583 54.445 0 98.583-44.137 98.583-98.583S181.411.376 126.966.376C72.52.376 28.383 44.514 28.383 98.96z"/></clipPath><clipPath id="km46aC"><path d="M28.383 98.96c0 54.446 44.137 98.583 98.583 98.583 54.445 0 98.583-44.137 98.583-98.583S181.411.376 126.966.376C72.52.376 28.383 44.514 28.383 98.96z"/></clipPath><clipPath id="km46aD"><path d="M28.383 98.96c0 54.446 44.137 98.583 98.583 98.583 54.445 0 98.583-44.137 98.583-98.583S181.411.376 126.966.376C72.52.376 28.383 44.514 28.383 98.96z"/></clipPath><clipPath id="km46aE"><path d="M28.383 98.96c0 54.446 44.137 98.583 98.583 98.583 54.445 0 98.583-44.137 98.583-98.583S181.411.376 126.966.376C72.52.376 28.383 44.514 28.383 98.96z"/></clipPath><clipPath id="km46aF"><path d="M28.383 98.96c0 54.446 44.137 98.583 98.583 98.583 54.445 0 98.583-44.137 98.583-98.583S181.411.376 126.966.376C72.52.376 28.383 44.514 28.383 98.96z"/></clipPath><clipPath id="km46aG"><path d="M28.383 98.96c0 54.446 44.137 98.583 98.583 98.583 54.445 0 98.583-44.137 98.583-98.583S181.411.376 126.966.376C72.52.376 28.383 44.514 28.383 98.96z"/></clipPath></defs><g><g/><g clip-path="url(#km46a)"><path fill="#fff" d="M97.32 109.599c-6.76 14.074-13.484 32.635-17.032 35.53-7.036 5.74-15.059 7.757-22.419 7.606 0 0-5.358-10.117-9.146-8.31-1.732.825-3.597 3.493-.452 9.29.13.24.334.442.52.669 0 0-5.772-.305-10.92-5.21-5.707-5.435-7.023-1.226-7.458 1.333-.435 2.559-1.328 16.702 8.366 22.856 9.741 6.184 32.531 9.479 49.998-8.122l12.802-18.45z"/></g><g/><g clip-path="url(#km46b)"><path fill="#fff" d="M187.866 187.993c-8.297 10.458-29.393 6.44-29.393 6.44l.753-54.57.238-17.01.02-1.561.179-12.898s7.886.337 15.721 2.552c1.303.366 2.611.787 3.876 1.269.533.2 1.058.413 1.574.633 4.388 1.899 8.09 4.593 9.43 8.398 4.659 13.23 4.422 58.15-2.398 66.747z"/></g><g/><g clip-path="url(#km46c)" opacity=".35"><g opacity=".35"><path fill="#371a45" d="M193.423 151.17c.026 15.702-1.727 31.995-5.556 36.823-8.298 10.46-29.396 6.44-29.396 6.44l.9-18.916s21.097 4.019 29.395-6.441c2.247-2.835 3.78-9.615 4.657-17.905z"/></g></g><g/><g clip-path="url(#km46d)"><path fill="#371a45" d="M167.62 196.775c-5.243 0-9.251-.75-9.444-.787a1.581 1.581 0 1 1 .592-3.107c.087.016 3.943.722 8.895.722 6.417.001 14.674-1.185 18.965-6.593.993-1.25 2.42-4.256 3.584-11.464.86-5.329 1.405-11.978 1.576-19.225.343-14.566-.87-28.45-3.017-34.549-1.891-5.374-9.573-8.295-15.684-9.799-6.904-1.698-13.425-1.999-13.49-2.002a1.582 1.582 0 0 1 .137-3.16c.276.012 6.858.312 14.06 2.08 4.286 1.05 7.898 2.407 10.735 4.033 3.725 2.134 6.156 4.757 7.226 7.797 1.464 4.16 2.24 10.558 2.634 15.194.527 6.211.726 13.484.56 20.48-.183 7.813-1.121 26.63-5.843 32.581-2.082 2.625-5.047 4.62-8.813 5.93-2.925 1.018-6.344 1.627-10.16 1.81-.86.041-1.701.06-2.512.06z"/></g><g/><g clip-path="url(#km46e)"><path fill="#fff" d="M191.762 157.745l-14.437.846a2.83 2.83 0 0 0-2.615 2.275c-.918 4.637-2.483 15.46 1.983 19.114 3.707 3.034 9.81 2.786 13.433-.18 4.052-3.317 4.617-13.946 4.64-19.212a2.835 2.835 0 0 0-3.004-2.843z"/></g><g/><g clip-path="url(#km46f)" opacity=".35"><g opacity=".35"><path fill="#371a45" d="M174.71 160.868c-.92 4.636-2.481 15.458 1.985 19.112 3.707 3.035 9.809 2.786 13.433-.18 2.49-2.041 3.664-6.848 4.203-11.47-.688 2.302-1.74 4.164-3.027 5.375-7.384 6.942-12.672-1.472-12.672-1.472s-.975 2.006-1.727 2.108c-3.145.427-2.335-9.384-1.798-14.452-.19.29-.326.619-.396.979z"/></g></g><g/><g clip-path="url(#km46g)"><path fill="#371a45" d="M175.692 181.204c-2.313-1.892-3.52-5.388-3.591-10.39-.053-3.794.546-7.67 1.057-10.255a4.416 4.416 0 0 1 4.075-3.547l14.437-.846a4.434 4.434 0 0 1 3.298 1.203 4.434 4.434 0 0 1 1.379 3.225c-.011 2.726-.165 6.778-.832 10.603-.853 4.895-2.29 8.11-4.387 9.827-2.2 1.8-5.074 2.704-7.921 2.704-2.742 0-5.457-.839-7.515-2.524zm1.726-21.034a1.253 1.253 0 0 0-1.157 1.003c-.482 2.436-1.046 6.078-.997 9.596.056 3.97.897 6.731 2.43 7.987 3.04 2.487 8.273 2.405 11.43-.18 2.504-2.049 4.022-8.776 4.06-17.995a1.241 1.241 0 0 0-.392-.915 1.242 1.242 0 0 0-.937-.342z"/></g><g/><g clip-path="url(#km46h)"><path fill="#371a45" d="M179.31 163.776c.11.867.161 1.743.22 2.615.056.871.112 1.741.191 2.604.158 1.724.402 3.435.874 5.037.236.8.53 1.569.897 2.278a8.299 8.299 0 0 0 1.325 1.897 6.627 6.627 0 0 0 1.744 1.323 7.727 7.727 0 0 0 2.067.708 1.588 1.588 0 1 1-.85 3.05l-.03-.011a10.664 10.664 0 0 1-2.686-1.421 9.204 9.204 0 0 1-2.105-2.176 10.467 10.467 0 0 1-1.289-2.608 14.505 14.505 0 0 1-.62-2.714c-.245-1.811-.22-3.595-.117-5.351.052-.878.127-1.751.203-2.621.074-.87.154-1.737.176-2.61z"/></g><g/><g clip-path="url(#km46i)"><path fill="#371a45" d="M182.92 120.943a2.701 2.701 0 0 0-.704-.439 5.847 5.847 0 0 0-.773-.28 13.122 13.122 0 0 0-1.606-.36 27.485 27.485 0 0 0-3.274-.32 36.557 36.557 0 0 0-3.278.013c-1.088.054-2.17.16-3.236.33-.533.085-1.062.184-1.585.3-.523.116-1.04.25-1.547.401-.508.153-1.01.321-1.497.511-.487.194-.964.402-1.423.638-.46.233-.905.486-1.327.767l-.311.216-.302.226a9.828 9.828 0 0 0-1.607 1.539c-.312.38-.594.78-.843 1.203l-.008.013a1.17 1.17 0 0 1-2.047-1.126 9.851 9.851 0 0 1 1.022-1.593c.388-.499.824-.956 1.29-1.373.232-.209.473-.406.718-.596l.376-.274.384-.258a14.608 14.608 0 0 1 1.599-.893 17.459 17.459 0 0 1 3.384-1.188 22.666 22.666 0 0 1 3.475-.565c2.324-.198 4.65-.11 6.923.304 1.134.21 2.256.5 3.338.912a10.69 10.69 0 0 1 1.57.745c.253.146.493.314.718.5.057.044.11.094.164.144.053.048.103.102.152.156.099.106.184.225.255.347z"/></g><g/><g clip-path="url(#km46j)" opacity=".35"><g opacity=".35"><path fill="#371a45" d="M179.26 112.215c-5.437 3.876-12.182 6.99-19.776 9.076l.18-12.898s7.884.337 15.72 2.552c1.303.367 2.61.787 3.876 1.27z"/></g></g><g/><g clip-path="url(#km46k)" opacity=".35"><g opacity=".35"><path fill="#371a45" d="M101.58 146.792L88.778 165.24c-17.466 17.603-40.26 14.305-49.998 8.123-3.498-2.219-5.617-5.484-6.874-8.864.991 1.166-.825-10.41.578-9.519.52.33.841 5.16 5.022 10.015 2.032 2.36 5.168 4.25 8.987 5.453 1.13.356.24 1.49 1.492 1.628 22.794 2.537 29.136-6.37 32.877-15.097l14.34-42.832a228.841 228.841 0 0 1 2.12-4.546z"/></g></g><g/><g clip-path="url(#km46l)"><path fill="#371a45" d="M47.877 178.715c-3.795-.907-7.234-2.296-9.945-4.018-2.452-1.556-4.465-3.696-5.984-6.359-1.23-2.156-2.14-4.659-2.7-7.439-.947-4.69-.672-9.022-.394-10.658.18-1.056.726-4.27 3.255-5.11 1.902-.632 4.143.316 6.852 2.897a18.136 18.136 0 0 0 6.827 4.091c-.866-2.274-1.03-4.268-.483-5.947.464-1.427 1.436-2.555 2.737-3.176.966-.46 2.545-.72 4.59.651 1.053.708 2.173 1.81 3.328 3.278 1.252 1.59 2.278 3.263 2.84 4.235 5.528-.029 13.289-1.384 20.488-7.257.576-.47 1.718-1.974 3.892-6.47 1.684-3.484 3.604-7.944 5.637-12.665 2.292-5.322 4.66-10.825 7.077-15.855a1.581 1.581 0 0 1 2.997.505l4.26 37.194c.044.381-.053.766-.272 1.081l-12.802 18.45a1.61 1.61 0 0 1-.176.211c-10.121 10.2-21.311 12.94-28.915 13.445-1 .066-1.996.1-2.99.1-3.435 0-6.827-.397-10.12-1.184zm-14.771-30.582c-.121.04-.745.356-1.133 2.638-.196 1.155-.511 5.112.376 9.503 1.096 5.429 3.545 9.384 7.278 11.754 4.149 2.634 11.884 5.229 21.15 4.615 7.035-.466 17.382-3.002 26.78-12.42L99.94 146.38l-3.553-31.021c-1.58 3.498-3.14 7.12-4.665 10.66-4.865 11.3-7.972 18.327-10.434 20.336-8.343 6.806-17.357 8.088-23.451 7.962a1.583 1.583 0 0 1-1.365-.841c-.013-.024-1.311-2.458-3.02-4.623-1.953-2.474-3.441-3.29-4.048-3-.296.14-.831.497-1.091 1.298-.436 1.339.042 3.4 1.345 5.806.026.04.11.136.17.207.064.073.127.145.188.22a1.582 1.582 0 0 1-1.31 2.58c-.258-.014-6.417-.397-11.926-5.644-2.066-1.968-3.113-2.208-3.501-2.208a.56.56 0 0 0-.173.022z"/></g><g/><g clip-path="url(#km46m)"><path fill="#371a45" d="M30.134 164.294c-.365-1.186-.537-2.412-.572-3.64a14.275 14.275 0 0 1 .387-3.697c.073-.309.161-.616.264-.923.053-.153.102-.306.164-.46.06-.153.117-.306.19-.458a7.796 7.796 0 0 1 1.08-1.794l.186-.214.095-.105.104-.104c.07-.069.14-.137.212-.204l.235-.193c.04-.032.078-.064.12-.095l.131-.089c.088-.058.172-.118.266-.17.095-.054.191-.105.287-.155l.072-.037.077-.033.155-.063c.202-.088.426-.14.643-.196.223-.036.447-.077.67-.076l.167-.002h.083l.07.004c.095.007.186.01.282.022.191.021.386.051.584.098.394.09.803.24 1.177.463.372.223.703.51.96.814.258.304.458.62.616.922.16.304.284.6.394.885.216.571.376 1.105.544 1.614.168.507.34.99.547 1.444.407.91.98 1.703 1.772 2.34.196.16.407.305.627.441.22.138.45.266.686.385.476.233.981.432 1.503.603l.002.001a.228.228 0 0 1-.08.444 9.343 9.343 0 0 1-1.714-.224 7.334 7.334 0 0 1-2.48-1.06 7.342 7.342 0 0 1-.732-.579 7.996 7.996 0 0 1-1.217-1.406c-.697-1.008-1.167-2.113-1.655-2.994-.244-.435-.5-.804-.742-1a1.146 1.146 0 0 0-.346-.206 1.38 1.38 0 0 0-.387-.078 2.36 2.36 0 0 0-.24-.004c-.042 0-.09.006-.134.008l-.034.002-.02.006a.611.611 0 0 1-.04.01c-.057.003-.103.032-.153.041-.046.03-.095.04-.14.076-.187.104-.397.328-.6.625a5.425 5.425 0 0 0-.532 1.104c-.039.101-.073.21-.108.318-.037.105-.065.22-.097.33-.033.108-.057.224-.085.337-.03.113-.052.23-.077.346a15.667 15.667 0 0 0-.288 2.904c-.009.988.068 1.977.201 2.952l.006.04a1.586 1.586 0 0 1-3.086.68z"/></g><g/><g/><g/><g/><g clip-path="url(#km46n)"><path fill="#fff" d="M43.568 175.733s-7.29-2.97-6.69-8.166c.571-4.93 4.004-7.096 5.592-6.808 2.4.435 1.514 7.23 1.514 7.23s6.455-1.482 9.012-.06z"/></g><g/><g clip-path="url(#km46o)" opacity=".35"><g opacity=".35"><path fill="#371a45" d="M47.985 172.076l-4.417 3.655s-7.29-2.968-6.691-8.164c.179-1.553.641-2.827 1.245-3.843a8.814 8.814 0 0 0-.008.33c-.017 6.427 7.627 7.768 9.871 8.022z"/></g></g><g/><g/><g/><g/><g/><g/><g/><g clip-path="url(#km46p)"><path fill="#fff" d="M170.076 180.882a30.879 30.879 0 0 1-.591 4.226c-1.761 8.31-6.85 14.584-13.773 18.922-26.695 16.745-80.686 4.726-76.373-30.188 2.22-17.944 9.102-36.267 14.193-54.486.862-3.081 1.67-6.158 2.398-9.226 8.669-19.98 61.019-11.928 63.638-5.488.786 1.936 1.548 4.126 2.277 6.528.937 3.048 1.815 6.429 2.635 10.038 3.452 15.23 5.775 34.53 5.875 49.982.02 3.45-.067 6.71-.28 9.692z"/></g><g/><g clip-path="url(#km46q)" opacity=".35"><g opacity=".35"><path fill="#371a45" d="M170.076 180.882c-.741 10.438-6.312 18.102-14.364 23.148-26.487 16.616-79.845 4.913-76.46-29.376 3.085 29.547 51.605 38.894 76.46 23.302 8.052-5.046 13.623-12.711 14.364-23.148.129-1.782.212-3.668.254-5.638.075 4.205 0 8.156-.254 11.712z"/></g></g><g/><g clip-path="url(#km46r)"><path fill="#371a45" d="M120.546 212.819c-11.38-.966-21.877-4.576-29.554-10.164-4.765-3.468-8.333-7.593-10.606-12.261-2.479-5.091-3.358-10.725-2.615-16.745 1.471-11.907 4.93-23.834 8.646-36.024l1.068-3.488c2.453-8.01 4.99-16.29 6.904-24.373l.033-.136.055-.13c2.148-4.95 6.783-8.627 13.776-10.93 5.625-1.852 12.823-2.781 20.805-2.688 7.035.083 14.575.98 20.687 2.466 2.892.702 5.396 1.523 7.24 2.374 2.233 1.03 3.558 2.119 4.05 3.329 7.038 17.324 12.2 54.719 10.62 76.947-.442 6.202-2.524 11.737-6.189 16.45-3.345 4.304-7.926 7.828-13.615 10.473-7.266 3.38-16.052 5.158-25.224 5.158-2.013 0-4.043-.085-6.08-.258zM90.51 135.063c-.356 1.162-.712 2.324-1.066 3.485-3.675 12.05-7.093 23.833-8.532 35.488-1.627 13.17 5.596 21.443 11.943 26.062 14.934 10.87 40.263 13.045 57.663 4.953 7.67-3.566 17.014-10.674 17.981-24.28 1.554-21.85-3.498-58.557-10.395-75.532-.188-.463-2.264-2.158-9.104-3.82-5.89-1.43-13.172-2.296-19.978-2.376-7.64-.09-14.48.785-19.779 2.53-6.037 1.988-10.008 5.036-11.808 9.06-1.934 8.139-4.47 16.42-6.925 24.43z"/></g><g/><g clip-path="url(#km46s)"><path fill="#fff" d="M76.448 170.728a6.73 6.73 0 1 0 13.462 0 6.73 6.73 0 0 0-13.462 0z"/></g><g/><g clip-path="url(#km46t)" opacity=".35"><g opacity=".35"><path fill="#371a45" d="M76.45 170.727a6.732 6.732 0 0 0 6.727 6.734 6.736 6.736 0 0 0 6.087-9.61 6.743 6.743 0 0 1-6.087 3.85 6.728 6.728 0 0 1-6.08-3.85 6.653 6.653 0 0 0-.648 2.876z"/></g></g><g/><g clip-path="url(#km46u)"><path fill="#371a45" d="M75.047 170.728c0-4.484 3.648-8.132 8.132-8.132s8.132 3.648 8.132 8.132-3.648 8.132-8.132 8.132-8.132-3.648-8.132-8.132zm2.803 0a5.336 5.336 0 0 0 5.329 5.33 5.336 5.336 0 0 0 5.329-5.33 5.336 5.336 0 0 0-5.33-5.329 5.336 5.336 0 0 0-5.328 5.33z"/></g><g/><g clip-path="url(#km46v)" opacity=".35"><g opacity=".35"><path fill="#371a45" d="M170.076 180.882a30.879 30.879 0 0 1-.591 4.226c-2.82.853-11.65 2.623-33.216.853l-.108 1.795c-.25 4.209-3.901 7.444-8.102 7.194l-35.522-2.111c-4.201-.254-7.444-3.897-7.19-8.106l.233-3.93.895-14.972c.246-4.21 3.893-7.444 8.102-7.19l35.514 2.11a7.572 7.572 0 0 1 1.52.247c3.439.92 5.89 4.17 5.674 7.856l-.191 3.243c4.713.587 21.383 2.319 33.057-.862.067-.016.137-.033.204-.045.02 3.45-.067 6.71-.28 9.692z"/></g></g><g/><g clip-path="url(#km46w)"><path fill="#fff" d="M90.195 187.425l35.519 2.113c4.204.251 7.85-2.985 8.103-7.194l1.123-18.9c.219-3.686-2.236-6.938-5.675-7.858a7.401 7.401 0 0 0-1.52-.246l-35.512-2.113c-4.21-.25-7.857 2.985-8.103 7.194l-.893 14.97-.236 3.931c-.251 4.21 2.99 7.852 7.194 8.103z"/></g><g/><g clip-path="url(#km46x)" opacity=".35"><g opacity=".35"><path fill="#371a45" d="M90.195 187.425l35.519 2.113c4.204.251 7.85-2.985 8.103-7.194l1.123-18.9c.219-3.686-2.236-6.938-5.675-7.858-2.096 1.22-3.428 2-3.428 2-2.632 15.07-7.402 22.378-26.261 21.565-8.14-.353-13.2-1.899-16.34-3.76l-.235 3.931c-.251 4.21 2.99 7.852 7.194 8.103z"/></g></g><g/><g clip-path="url(#km46y)"><path fill="#371a45" d="M125.618 191.119l-35.516-2.114a9.178 9.178 0 0 1-6.357-3.097 9.179 9.179 0 0 1-2.321-6.68l1.125-18.903c.303-5.088 4.685-8.981 9.776-8.678l35.516 2.113c5.088.303 8.98 4.689 8.678 9.776l-1.125 18.905a9.18 9.18 0 0 1-3.096 6.356 9.177 9.177 0 0 1-6.68 2.322zm-39.911-30.606l-1.125 18.904a6.035 6.035 0 0 0 1.529 4.39 6.036 6.036 0 0 0 4.179 2.04l35.516 2.114a6.036 6.036 0 0 0 4.392-1.53 6.04 6.04 0 0 0 2.039-4.178l1.124-18.904a6.033 6.033 0 0 0-1.53-4.392 6.035 6.035 0 0 0-4.178-2.04l-35.516-2.112a6.087 6.087 0 0 0-6.43 5.708z"/></g><g/><g clip-path="url(#km46z)"><path fill="#fff" d="M88.778 187.2c.455.124.925.199 1.417.226l35.519 2.112c3.08.181 5.862-1.504 7.226-4.082a7.55 7.55 0 0 0 .872-3.111l.502-8.397.166-2.771.46-7.734c.252-4.21-2.99-7.851-7.193-8.103l-7.675-.454c3.498.877 6.006 4.155 5.787 7.878l-.605 10.21-.52 8.697c-.25 4.204-3.898 7.445-8.101 7.193z"/></g><g/><g clip-path="url(#km46A)" opacity=".35"><g opacity=".35"><path fill="#371a45" d="M88.778 187.2c.455.124.925.199 1.417.226l35.519 2.112c4.204.251 7.852-2.985 8.098-7.194l.668-11.168c-1.011 1.92-2.76 4.247-5.343 4.348-1.417.06-2.744-1.037-3.883-2.55l-.52 8.697c-.25 4.204-3.898 7.445-8.101 7.193z"/></g></g><g/><g clip-path="url(#km46B)"><path fill="#371a45" d="M125.62 191.118l-35.513-2.114a8.687 8.687 0 0 1-1.733-.272l.496-3.108 27.858 1.66a6.022 6.022 0 0 0 4.388-1.53 6.027 6.027 0 0 0 2.039-4.178l1.124-18.904a6.084 6.084 0 0 0-4.591-6.255l.48-3.113 7.67.455a9.19 9.19 0 0 1 6.359 3.098 9.17 9.17 0 0 1 2.32 6.68l-1.124 18.902a9.176 9.176 0 0 1-3.096 6.359 9.17 9.17 0 0 1-6.677 2.32zm.188-3.158a6.026 6.026 0 0 0 4.389-1.528 6.032 6.032 0 0 0 2.038-4.18l1.125-18.904a6.031 6.031 0 0 0-1.528-4.391 6.045 6.045 0 0 0-4.181-2.04l-2.03-.121a9.217 9.217 0 0 1 1.816 6.064l-1.125 18.903a9.16 9.16 0 0 1-2.777 6.062z"/></g><g/><g clip-path="url(#km46C)"><path fill="#22a7f0" d="M111.282 171.537c-.037.7.643 6.396.643 6.396l3.983.215c2.743.147 5.12-2.574 5.307-6.077.19-3.504-1.882-6.463-4.625-6.61l-3.984-.215s-1.262 5.152-1.323 6.291z"/></g><g/><g clip-path="url(#km46D)" opacity=".35"><g opacity=".35"><path fill="#371a45" d="M111.282 171.537c-.037.7.643 6.396.643 6.396l3.983.215c2.743.147 5.12-2.574 5.307-6.077.19-3.504-1.882-6.463-4.625-6.61l-3.984-.215s-1.262 5.152-1.323 6.291z"/></g></g><g/><g clip-path="url(#km46E)"><path fill="#371a45" d="M115.844 179.332l-3.983-.214a1.188 1.188 0 0 1-1.115-1.044c-.207-1.744-.686-5.877-.648-6.6.063-1.19 1.14-5.632 1.356-6.51a1.185 1.185 0 0 1 1.217-.902l3.982.214c1.7.091 3.233.997 4.321 2.551 1.025 1.465 1.531 3.35 1.426 5.307-.105 1.958-.81 3.778-1.987 5.125-1.177 1.35-2.691 2.081-4.286 2.081-.095 0-.189-.003-.283-.008zm.129-2.369c.955.051 1.896-.398 2.653-1.265.83-.949 1.328-2.26 1.405-3.69.077-1.432-.279-2.789-1-3.82-.66-.944-1.55-1.492-2.505-1.543l-2.998-.16c-.46 1.938-1.025 4.468-1.06 5.111-.01.401.24 2.804.518 5.207zm-4.69-5.426"/></g><g/><g clip-path="url(#km46F)"><path fill="#22a7f0" d="M107.299 171.323c-.188 3.504 1.883 6.463 4.626 6.611 2.743.147 5.119-2.574 5.308-6.077.188-3.504-1.883-6.463-4.626-6.61-2.743-.148-5.12 2.572-5.308 6.076z"/></g><g/><g clip-path="url(#km46G)" opacity=".35"><g opacity=".35"><path fill="#371a45" d="M111.927 177.933c2.74.148 5.115-2.573 5.304-6.076a7.876 7.876 0 0 0-.207-2.3c-.661 2.782-2.748 4.763-5.097 4.638-2.114-.114-3.83-1.898-4.417-4.311a8.05 8.05 0 0 0-.21 1.438c-.19 3.507 1.883 6.463 4.627 6.61z"/></g></g><g/><g clip-path="url(#km46H)" opacity=".7"><g opacity=".7"><path fill="#fff" d="M107.38 172.976c.463-3.123 2.687-5.442 5.226-5.305 2.296.121 4.125 2.22 4.546 4.96.038-.25.065-.513.08-.775.19-3.502-1.883-6.462-4.626-6.61-2.744-.148-5.12 2.573-5.306 6.075-.03.57-.003 1.124.08 1.655z"/></g></g><g/><g clip-path="url(#km46I)"><path fill="#371a45" d="M111.86 179.118c-1.698-.09-3.232-.997-4.32-2.55-1.024-1.466-1.531-3.35-1.426-5.309.106-1.957.81-3.777 1.987-5.124 1.248-1.428 2.87-2.165 4.569-2.073 1.699.091 3.233.997 4.32 2.551 1.026 1.465 1.532 3.35 1.427 5.307-.105 1.958-.811 3.778-1.987 5.125-1.178 1.35-2.691 2.081-4.287 2.081-.094 0-.188-.003-.282-.008zm-1.972-11.422c-.83.95-1.328 2.26-1.404 3.691-.077 1.431.278 2.787 1 3.82.66.943 1.55 1.491 2.504 1.542.955.051 1.898-.398 2.655-1.265.829-.949 1.328-2.26 1.405-3.69.077-1.432-.28-2.789-1.001-3.82-.66-.944-1.55-1.492-2.504-1.543a2.404 2.404 0 0 0-.147-.004c-.904 0-1.79.446-2.508 1.27zm-2.59 3.627h.002"/></g><g/><g clip-path="url(#km46J)"><path fill="#371a45" d="M101.245 189.113h-.042a1.168 1.168 0 0 1-1.126-1.21l.33-9.174a8.608 8.608 0 0 0-2.203-6.079l-.464-.518a11.049 11.049 0 0 1-2.779-8.04l.692-10.657a1.169 1.169 0 0 1 2.331.151l-.692 10.658a8.695 8.695 0 0 0 2.188 6.33l.464.517a10.93 10.93 0 0 1 2.796 7.721l-.328 9.175a1.169 1.169 0 0 1-1.167 1.126z"/></g><g/><g clip-path="url(#km46K)"><path fill="#fff" d="M173.6 172.064c-.174 5.234-5.361 7.231-5.361 7.231s-7.177 3.722-36.783 1.043c0 0-8.372-8.57 2.008-13.823 0 0 20.62 3.045 34.342-.692 2.474-.674 5.95 1.565 5.794 6.241z"/></g><g/><g clip-path="url(#km46L)" opacity=".35"><g opacity=".35"><path fill="#371a45" d="M173.598 172.064c-.17 5.233-5.358 7.232-5.358 7.232s-7.178 3.722-36.784 1.04c0 0-4.738-4.85-2.664-9.488l.027.074c.955 2.539 3.334 4.269 6.038 4.48 26.76 2.103 33.383-1.331 33.383-1.331s3.63-1.4 4.917-4.917c.312.828.478 1.798.441 2.91z"/></g></g><g/><g clip-path="url(#km46M)"><path fill="#371a45" d="M133.072 182.067a5.624 5.624 0 0 1-4.193-2.439c-1.279-1.877-2.67-4.763-2.039-7.852.468-2.289 1.954-4.248 4.416-5.824a5.62 5.62 0 0 1 3.716-.833c4.736.59 21.071 2.268 32.42-.822 1.644-.448 3.513-.014 5 1.162 1.864 1.474 2.88 3.901 2.79 6.657-.198 5.922-5.586 8.331-6.305 8.626-.464.219-2.5 1.055-7.424 1.615-3.149.358-6.795.537-10.912.537-5.11 0-10.948-.275-17.469-.826zm-.11-13.45c-1.716 1.098-2.733 2.374-3.023 3.793-.41 2.006.62 4.064 1.554 5.438a2.468 2.468 0 0 0 1.845 1.066c14.046 1.189 22.582.848 27.268.354 4.91-.518 6.755-1.31 6.914-1.382l.088-.05.062-.018c.165-.065 4.213-1.714 4.35-5.807.078-2.384-.963-3.573-1.59-4.07-.693-.547-1.539-.773-2.208-.591-11.906 3.243-28.758 1.516-33.639.909a2.428 2.428 0 0 0-1.622.359z"/></g><g/><g/><g/><g/><g/><g/><g/><g clip-path="url(#km46N)"><path fill="#ffb200" d="M57.028 110.033a24.4 24.4 0 0 1 .025 3.035 24.725 24.725 0 0 1-.584 4.207 24.702 24.702 0 0 1-10.46 15.158 24.712 24.712 0 0 1-18.072 3.752 24.94 24.94 0 0 1-6.852-2.29c5.756-2.486 12.296-6.05 18.946-10.464 6.65-4.414 12.472-9.06 16.997-13.398z"/></g><g/><g clip-path="url(#km46O)"><path fill="#d66b09" d="M28.034 136.591l-.096-.405-.252-.335.07-.052.085-.02c3.271-.778 9.248-3.845 15.227-7.815 6.013-3.992 11.02-8.184 13.066-10.939l.671.498c-2.1 2.828-7.187 7.095-13.274 11.137-6.149 4.082-12.087 7.121-15.497 7.931z"/></g><g/><g clip-path="url(#km46P)"><path fill="#d66b09" d="M40.032 123.43c6.649-4.414 12.472-9.058 16.997-13.397.07 1.013.078 2.026.024 3.035-3.457 3.488-9.151 8.026-15.911 12.514-6.476 4.299-12.614 7.678-17.124 9.567a25.048 25.048 0 0 1-2.933-1.253c5.756-2.487 12.296-6.05 18.947-10.465z"/></g><g/><g clip-path="url(#km46Q)" opacity=".35"><g opacity=".35"><path fill="#371a45" d="M57.028 106.598a24.4 24.4 0 0 1 .025 3.035 24.725 24.725 0 0 1-.584 4.207 24.702 24.702 0 0 1-10.46 15.158 24.712 24.712 0 0 1-18.072 3.752 24.834 24.834 0 0 1-3.919-1.037 24.848 24.848 0 0 1-2.933-1.252c5.756-2.487 12.296-6.05 18.946-10.465 6.65-4.414 12.472-9.059 16.997-13.398z"/></g></g><g/><g clip-path="url(#km46R)" opacity=".35"><g opacity=".35"><path fill="#371a45" d="M54.497 97.417c-.15.169-.307.34-.472.516.14-.209.278-.422.41-.637l.062.121z"/></g></g><g/><g clip-path="url(#km46S)"><path fill="#ffb200" d="M52.95 98.07c.578.87 1.094 1.764 1.548 2.676-3.456 3.866-10.584 9.652-19.284 15.428-8.7 5.775-16.8 10.1-21.704 11.784a24.82 24.82 0 0 1-1.865-2.466 24.159 24.159 0 0 1-.802-1.29 24.737 24.737 0 0 1-2.81-7.308 24.814 24.814 0 0 1-.296-8.487c.938-6.802 4.679-13.183 10.849-17.279 6.119-4.063 13.383-5.052 19.972-3.334a24.784 24.784 0 0 1 7.647 3.457 24.59 24.59 0 0 1 3.812 3.186 24.839 24.839 0 0 1 2.933 3.632z"/></g><g/><g clip-path="url(#km46T)"><path fill="#d66b09" d="M52.766 97.798l.184.27a24.951 24.951 0 0 1 1.548 2.678c-3.456 3.866-10.585 9.652-19.284 15.428-8.7 5.775-16.8 10.1-21.704 11.784a24.969 24.969 0 0 1-1.866-2.465c-.027-.041-.054-.081-.08-.123 4.698-1.307 12.967-5.562 21.835-11.45 9.219-6.12 16.56-12.33 19.367-16.122z"/></g><g/><g clip-path="url(#km46U)"><path fill="#d66b09" d="M8.124 117.724l-.183-1.66c3.363-.37 11.634-4.562 20.115-10.192 10.117-6.717 16.4-12.6 17.377-14.943l1.542.644c-1.293 3.098-8.525 9.404-17.995 15.691-8.817 5.854-17.199 10.058-20.856 10.46z"/></g><g/><g clip-path="url(#km46V)"><path fill="#d66b09" d="M7.991 109.203l-.508-1.592c3.66-1.168 9.8-4.46 16.023-8.591 6.521-4.33 12.04-8.833 14.402-11.751l1.3 1.05c-2.463 3.043-8.125 7.676-14.778 12.093-6.343 4.21-12.642 7.58-16.439 8.79z"/></g><g/><g clip-path="url(#km46W)"><path fill="#d66b09" d="M9.517 122.088l-.26-1.651c3.829-.604 12.37-4.972 21.253-10.87 9.316-6.185 16.923-12.672 18.497-15.774l1.49.756c-1.718 3.386-9.38 9.982-19.063 16.41-9.206 6.113-17.808 10.48-21.917 11.129z"/></g><g/><g clip-path="url(#km46X)"><path fill="#371a45" d="M20.366 135.318a1.594 1.594 0 0 1 .088-2.887c5.875-2.538 12.34-6.11 18.695-10.329s12.156-8.79 16.776-13.22a1.593 1.593 0 0 1 2.694 1.04 26.512 26.512 0 0 1-2.549 13.311 26.36 26.36 0 0 1-9.18 10.528 26.357 26.357 0 0 1-14.569 4.406c-4.144 0-8.251-.975-11.955-2.849zm24.76-4.214c5.948-3.949 9.7-10.41 10.287-17.414-4.227 3.754-9.177 7.536-14.5 11.07-5.322 3.533-10.729 6.627-15.829 9.066 6.682 2.177 14.094 1.227 20.042-2.722z"/></g><g/><g clip-path="url(#km46Y)"><path fill="#ffc536" d="M66.61 93.216c2.009 3.026-1.938 9.488-9.581 16.817-4.526 4.339-10.348 8.984-16.997 13.398-6.65 4.415-13.19 7.978-18.946 10.465-9.721 4.199-17.208 5.327-19.216 2.302-1.825-2.748 1.262-8.328 7.566-14.818.404.959.872 1.902 1.407 2.822-1.718 1.944-2.485 3.389-2.024 4.084.47.707 2.153.543 4.69-.328 4.906-1.684 13.006-6.008 21.705-11.784 8.7-5.776 15.828-11.562 19.284-15.428 1.787-2.001 2.59-3.488 2.122-4.196-.461-.693-2.091-.548-4.548.28a24.839 24.839 0 0 0-2.055-2.393c8.428-3.29 14.769-3.97 16.593-1.221z"/></g><g/><g clip-path="url(#km46Z)"><path fill="#ffec90" d="M8.92 131.48c-1.217 0-2.15-.311-2.641-1.052-.99-1.491.159-4.005 3.512-7.685l1 .91c-3.151 3.458-3.815 5.38-3.386 6.027.72 1.086 5.278.402 13.583-3.662 4.644-2.273 9.824-5.284 14.98-8.707 5.157-3.424 9.942-7.03 13.839-10.426 6.969-6.077 9.368-10.012 8.648-11.097-.43-.647-2.46-.781-6.87.78l-.45-1.274c4.694-1.662 7.456-1.745 8.446-.254 1.778 2.678-3.85 8.473-8.885 12.864-3.941 3.435-8.775 7.077-13.98 10.533-5.204 3.456-10.438 6.497-15.134 8.796-4.34 2.123-9.477 4.247-12.661 4.247z"/></g><g/><g clip-path="url(#km46aa)"><path fill="#ffec90" d="M7.388 135.077c-1.718 0-3.088-.429-3.81-1.516-1.862-2.806 2.096-7.966 5.745-11.801l.98.933c-5.35 5.621-6.4 8.914-5.597 10.12.989 1.489 5.789 1.558 16.068-3.151 5.313-2.434 11.194-5.76 17.008-9.62 5.813-3.859 11.16-7.988 15.466-11.941 8.33-7.645 10.13-12.097 9.142-13.585-.801-1.207-4.242-1.518-11.5 1.23l-.478-1.264c4.95-1.875 11.242-3.521 13.105-.714 2.42 3.646-4.822 11.169-9.354 15.33-4.357 3.999-9.763 8.173-15.633 12.071-5.871 3.898-11.817 7.26-17.193 9.722-3.927 1.799-9.901 4.186-13.95 4.186z"/></g><g/><g clip-path="url(#km46ab)" opacity=".35"><g opacity=".35"><path fill="#371a45" d="M42.566 120.757c-6.51 4.292-12.9 7.758-18.537 10.194-9.72 4.2-17.207 5.327-19.216 2.302-1.823-2.748 1.263-8.327 7.566-14.818.404.96.873 1.903 1.408 2.823-1.719 1.943-2.486 3.388-2.025 4.083.471.708 2.154.544 4.691-.327 3.254-1.117 7.914-3.397 13.224-6.492-.017.76.153 1.423.517 1.972 1.505 2.267 6.083 2.202 12.372.263z"/></g></g><g/><g clip-path="url(#km46ac)"><path fill="#371a45" d="M.643 137.012c-1.211-1.824-.99-4.348.656-7.5 1.4-2.682 3.782-5.762 7.08-9.158a1.471 1.471 0 0 1 2.413.453c.383.91.828 1.802 1.324 2.655.318.55.25 1.24-.17 1.715-.87.984-1.317 1.644-1.546 2.06.487-.053 1.309-.218 2.632-.672 4.941-1.696 13.128-6.148 21.367-11.618 8.239-5.47 15.52-11.287 19.001-15.182.931-1.043 1.402-1.736 1.639-2.165-.471.05-1.253.205-2.497.625a1.474 1.474 0 0 1-1.646-.509 23.306 23.306 0 0 0-1.933-2.25 1.472 1.472 0 0 1 .518-2.4c4.41-1.722 8.174-2.72 11.187-2.97 3.546-.295 5.957.481 7.168 2.305 3.285 4.948-4.723 13.836-9.789 18.694-4.749 4.554-10.697 9.244-17.201 13.562-6.505 4.32-13.136 7.98-19.176 10.59-4.211 1.818-10.496 4.127-15.263 4.127-2.526 0-4.626-.648-5.764-2.362zm2.453-1.629c.619.933 2.552 1.266 5.302.913 3.183-.409 7.369-1.707 12.104-3.752 5.882-2.54 12.354-6.116 18.715-10.34 6.361-4.223 12.168-8.799 16.793-13.234 3.723-3.57 6.543-6.924 8.156-9.7 1.393-2.397 1.837-4.307 1.217-5.24-.97-1.46-5.286-1.632-12.83 1.033.015.02.031.038.046.056 2.057-.6 4.253-.88 5.247.617 1.171 1.764-.587 4.128-2.251 5.99-3.692 4.131-11.006 9.99-19.567 15.674-8.561 5.684-16.8 10.151-22.04 11.95-2.362.81-5.224 1.514-6.395-.25-.994-1.497.117-3.413 1.469-5.076-.012-.02-.023-.043-.034-.064-5.384 5.918-6.902 9.962-5.932 11.423z"/></g><g/><g clip-path="url(#km46ad)" opacity=".35"><g opacity=".35"><path fill="#371a45" d="M57.196 98.047c-3.455 3.866-10.584 9.652-19.284 15.428-8.699 5.775-16.799 10.1-21.704 11.785a25.542 25.542 0 0 1-1.866-2.466l-.08-.122a25.088 25.088 0 0 1-2.129-3.991l-.047-.117a24.67 24.67 0 0 1-1.355-4.368 24.843 24.843 0 0 1-.295-8.488 24.744 24.744 0 0 1 7.577-14.69 24.903 24.903 0 0 0-1.871 6.622 24.77 24.77 0 0 0 .296 8.488c.31 1.478.76 2.94 1.353 4.367l.049.118c.022.05.05.114.086.188 1.914 4.009 6.723 5.053 11.03 3.965 8.211-2.075 24.706-14.682 28.186-17.54.369.605-.257.198.054.82z"/></g></g><g/><g clip-path="url(#km46ae)" opacity=".41"><g opacity=".41"><path fill="#fff" d="M53.91 101.342c-.402.45-.853.925-1.352 1.425a25.216 25.216 0 0 0-1.96-3.03 24.993 24.993 0 0 0-2.32-2.659 24.477 24.477 0 0 0-3.549-2.92 24.764 24.764 0 0 0-7.646-3.456c-6.59-1.718-13.854-.73-19.973 3.333a24.665 24.665 0 0 0-8.952 10.603 24.679 24.679 0 0 1 9.84-12.914c6.12-4.062 13.384-5.05 19.972-3.333a24.756 24.756 0 0 1 7.648 3.458 24.501 24.501 0 0 1 3.811 3.185 24.706 24.706 0 0 1 2.933 3.632c.578.87 1.094 1.764 1.548 2.676z"/></g></g><g/><g clip-path="url(#km46af)"><path fill="#371a45" d="M12.3 128.998A26.666 26.666 0 0 1 7.967 122c-4.908-11.654-.813-25.195 9.737-32.2 10.55-7.004 24.62-5.522 33.454 3.524a26.276 26.276 0 0 1 3.12 3.864 26.507 26.507 0 0 1 1.648 2.848 1.593 1.593 0 0 1-.238 1.773c-3.698 4.138-11.022 10.005-19.591 15.694-8.57 5.69-16.82 10.162-22.068 11.964a1.594 1.594 0 0 1-1.727-.468zm7.168-36.542c-9.275 6.158-12.876 18.062-8.563 28.304a23.374 23.374 0 0 0 3.122 5.313c4.993-1.917 12.625-6.13 20.305-11.228 7.679-5.098 14.523-10.497 18.228-14.355a23.329 23.329 0 0 0-1.76-2.698 23.265 23.265 0 0 0-1.925-2.24c-4.484-4.593-10.505-6.967-16.577-6.967-4.442 0-8.912 1.27-12.83 3.871z"/></g><g/><g clip-path="url(#km46ag)"><path fill="#fff" d="M182.75 208.747c-2.928 2.182-5.372.4-15.88 1.228-1.715.138-8.156 1.103-10.234-1.42-.945-1.144-1.103-2.839-.924-4.525.312-2.914 1.632-5.804 1.632-5.804s-2.769-.445-3.876-4.446c-1.099-3.976 3.59-11.637 3.59-11.637s.994-28.93-2.828-48.699l-3.535-4.447-19.368-24.355 29.481 4.958s.375.537 1.037 1.57c1.04 1.603 2.781 4.401 4.896 8.206 7.261 13.07 18.943 38.012 21.68 67.19.49 5.25 1.148 17.102-5.672 22.181z"/></g><g/><g clip-path="url(#km46ah)" opacity=".35"><g opacity=".35"><path fill="#371a45" d="M188.224 198.364c-.683 4.034-2.236 7.973-5.475 10.383-2.927 2.182-5.37.4-15.879 1.229-1.715.137-8.156 1.103-10.234-1.42-.945-1.145-1.103-2.84-.924-4.526.312-2.914 1.632-5.803 1.632-5.803s-2.768-.446-3.876-4.447c-.587-2.119.471-5.279 1.586-7.773-.075.766-.045 1.486.13 2.111 1.107 4.001 3.876 4.446 3.876 4.446s-1.32 2.89-1.633 5.804c-.179 1.686 1.488-1.713 1.535-.229.22 7.053 7.908 6.312 9.623 6.174 10.51-.828 12.953.954 15.88-1.228 1.661-1.236 2.876-2.872 3.76-4.721z"/></g></g><g/><g clip-path="url(#km46ai)"><path fill="#371a45" d="M154.749 133.345c.354.973.657 1.96.951 2.954l.214.746c.067.249.122.5.184.75.122.5.234 1.003.348 1.506.113.503.219 1.007.325 1.512.054.252.095.505.14.758l.129.76c.085.507.165 1.015.244 1.523l.115.762c.038.255.076.509.105.764.515 4.075.831 8.166 1.001 12.259l.097 3.069.023.768.014.767.027 1.534.028 1.535.015 1.534.017 1.534c.009.51.005 1.022.011 1.533.006 1.023.018 2.045.015 3.068a285.05 285.05 0 0 1-.008 3.067l-.013 1.534-.023 1.535a215.35 215.35 0 0 1-.07 3.08c-.009.27-.086.524-.214.742l-.018.03-.133.223-.137.238a35.687 35.687 0 0 0-.796 1.471 34.762 34.762 0 0 0-.956 2.01 25.117 25.117 0 0 0-.796 2.04c-.23.683-.422 1.367-.551 2.033-.13.665-.179 1.313-.134 1.866.022.128.03.268.063.38l.019.089c.004.015.005.028.01.046l.019.057.074.23c.05.154.093.312.158.453l.089.218c.029.072.057.147.095.212.261.558.601 1.038.999 1.413.195.192.412.349.632.477l.082.049c.028.015.056.026.084.04l.082.042.082.033c.055.026.105.04.155.058.024.009.042.012.063.019.013.005.012.003.018.005l.006.002h.001l-.005-.001-.011-.002-.021-.003 1.187 2.219-.094.216-.099.238a23.362 23.362 0 0 0-.539 1.481c-.108.333-.208.668-.3 1.003-.089.335-.175.67-.243 1.005a12.498 12.498 0 0 0-.27 1.973 7.28 7.28 0 0 0 .012.926c.007.152.032.29.049.433.011.07.027.136.039.204l.02.1.026.096a2.793 2.793 0 0 0 .344.818c.032.04.064.082.094.124.029.048.061.075.09.108.015.016.028.033.044.049l.055.047c.142.128.333.254.563.365.234.11.503.205.791.285.579.158 1.235.248 1.909.295.337.023.682.033 1.029.037.348.002.699-.004 1.053-.017a36.586 36.586 0 0 0 2.152-.152l.553-.055.583-.056 1.152-.085a74.742 74.742 0 0 1 6.891-.142c.763.019 1.523.05 2.268.079.743.028 1.473.055 2.14.036.331-.011.646-.034.933-.077.288-.043.546-.104.786-.193.24-.088.468-.202.699-.348l.086-.054.087-.062c.058-.043.114-.077.178-.132l.376-.301.094-.075.088-.083.177-.164c.118-.11.24-.215.347-.338l.333-.353.312-.377c.051-.064.106-.124.154-.191l.144-.2.145-.2c.048-.065.097-.131.14-.203l.268-.42c.046-.067.085-.141.126-.214l.123-.22.124-.217c.04-.073.075-.151.113-.226l.225-.453c.133-.314.281-.62.397-.943.502-1.275.843-2.641 1.093-4.033.117-.7.217-1.405.288-2.117.069-.713.126-1.43.152-2.151a47.531 47.531 0 0 0-.027-4.352 64.937 64.937 0 0 0-.15-2.19c-.057-.73-.148-1.47-.225-2.207l-.24-2.211-.03-.277-.038-.275-.075-.551-.151-1.103-.151-1.102-.076-.551-.037-.276-.045-.274-.361-2.197c-.223-1.467-.526-2.921-.799-4.38l-.105-.547-.052-.273-.059-.272-.236-1.09-.472-2.175c-.167-.724-.347-1.444-.52-2.167l-.262-1.082-.13-.542-.143-.538-.573-2.154c-.097-.358-.187-.72-.291-1.076l-.309-1.07-.62-2.142-.662-2.13-.332-1.063-.083-.266-.089-.264-.176-.53-.706-2.114c-.115-.354-.242-.703-.366-1.053l-.374-1.051c-.251-.7-.49-1.404-.758-2.098l-.784-2.088c-.129-.35-.268-.694-.404-1.04l-.411-1.037c-.537-1.387-1.124-2.754-1.69-4.13-.595-1.363-1.175-2.733-1.798-4.084-.605-1.36-1.246-2.702-1.883-4.046l-.978-2.005c-.331-.667-.669-1.33-1.004-1.993a182.828 182.828 0 0 0-4.243-7.846 156.018 156.018 0 0 0-2.859-4.772 64.507 64.507 0 0 0-.593-.938c-.198-.312-.4-.62-.601-.928a58.34 58.34 0 0 0-.603-.9l1.036.656-7.371-1.237c-2.457-.411-4.926-.752-7.389-1.133a108.68 108.68 0 0 1-7.344-1.395 56.044 56.044 0 0 1-3.629-.96c-.601-.18-1.2-.374-1.796-.582a24.808 24.808 0 0 1-1.779-.69.543.543 0 0 1 .175-1.04 24.42 24.42 0 0 1 1.906-.07c.632-.002 1.262.009 1.889.037 1.255.049 2.501.148 3.742.28 2.481.275 4.946.64 7.397 1.084 2.452.445 4.897.93 7.353 1.346l7.37 1.24.009.003c.432.072.796.32 1.027.654.231.336.437.647.65.969.208.32.418.639.622.96.205.32.409.642.61.964.201.322.403.643.6.968a155.674 155.674 0 0 1 2.321 3.909 186.086 186.086 0 0 1 4.318 7.983 186.478 186.478 0 0 1 3.929 8.178c.633 1.373 1.223 2.766 1.827 4.152.576 1.398 1.173 2.788 1.719 4.198l.417 1.055c.139.35.281.702.411 1.057l.798 2.124c.272.706.516 1.422.771 2.134l.38 1.069c.126.356.256.712.373 1.072l.718 2.152.18.539.09.269.084.27.338 1.084.675 2.167.631 2.18.315 1.092c.106.363.197.73.296 1.096l.584 2.195.146.549.133.552.267 1.104c.176.736.36 1.47.53 2.208l.481 2.22.241 1.11.06.279.054.279.107.558c.278 1.49.587 2.973.816 4.472l.369 2.244.045.28.039.282.077.563.154 1.127.154 1.127.077.563.038.28.032.284.245 2.262c.079.755.171 1.504.231 2.269.065.763.118 1.53.157 2.299.075 1.539.095 3.088.029 4.644-.029.777-.09 1.557-.166 2.337-.077.78-.188 1.56-.318 2.34-.28 1.559-.666 3.118-1.262 4.637-.139.382-.314.754-.477 1.13l-.274.555c-.047.092-.09.185-.14.276l-.152.272-.153.27c-.052.092-.101.183-.159.27l-.338.529a3.737 3.737 0 0 1-.178.26l-.185.256-.186.255c-.062.086-.133.165-.199.248-.135.163-.269.327-.406.489l-.437.466c-.142.158-.303.3-.459.447l-.236.217-.118.109-.125.1-.502.404c-.078.066-.18.134-.274.2l-.143.102-.151.096a6.823 6.823 0 0 1-1.312.65c-.465.17-.941.28-1.394.347-.455.068-.89.097-1.308.11-.833.024-1.602-.008-2.358-.036-.754-.03-1.492-.06-2.229-.077a70.292 70.292 0 0 0-6.599.135l-1.092.08-1.103.109c-.764.074-1.546.134-2.336.165-.396.014-.795.02-1.196.019a21.864 21.864 0 0 1-1.219-.045c-.821-.058-1.66-.165-2.529-.4a8.137 8.137 0 0 1-1.321-.482 5.58 5.58 0 0 1-1.311-.864l-.155-.141c-.051-.05-.099-.103-.148-.156-.097-.105-.197-.212-.273-.321-.081-.11-.162-.218-.239-.33a5.906 5.906 0 0 1-.76-1.754c-.016-.058-.033-.117-.047-.176l-.036-.174c-.022-.117-.048-.234-.066-.35-.03-.228-.066-.46-.078-.683-.04-.454-.035-.89-.019-1.322.045-.858.163-1.684.335-2.481a22.79 22.79 0 0 1 .63-2.333 27.992 27.992 0 0 1 .616-1.69l.117-.281.061-.143.069-.157 1.187 2.219-.057-.01-.051-.01-.064-.014c-.042-.01-.09-.021-.123-.031-.072-.02-.148-.041-.216-.063a4.941 4.941 0 0 1-.39-.144c-.062-.026-.126-.051-.187-.08l-.178-.086c-.059-.03-.12-.057-.177-.088l-.169-.097a6.35 6.35 0 0 1-1.223-.916 7.792 7.792 0 0 1-1.684-2.352c-.057-.105-.098-.211-.143-.318l-.131-.32c-.094-.214-.157-.43-.226-.645l-.103-.324-.025-.081a1.664 1.664 0 0 1-.023-.095l-.045-.195c-.067-.264-.089-.512-.124-.766-.01-.124-.016-.246-.023-.37l-.01-.182.001-.18.004-.355.023-.345.012-.173.019-.168.04-.335c.033-.22.067-.44.108-.653a18.84 18.84 0 0 1 .663-2.455c.265-.787.568-1.547.893-2.291.325-.745.672-1.474 1.041-2.19a38.901 38.901 0 0 1 .864-1.597l.153-.266.165-.276-.232.77c.031-.996.052-2.014.07-3.024l.021-1.52.013-1.52c.011-1.012.009-2.025.009-3.04.004-1.012-.011-2.026-.021-3.04-.054-4.052-.227-8.102-.45-12.144l-.178-3.03-.042-.757a31.999 31.999 0 0 0-.044-.757l-.098-1.513c-.068-1.007-.109-2.02-.189-3.025-.073-1.007-.137-2.015-.202-3.024-.012-.252-.038-.503-.056-.755l-.057-.754a126.45 126.45 0 0 1-.1-1.512l-.043-.757c-.016-.253-.022-.506-.044-.757-.036-.504-.071-1.007-.101-1.512-.027-.506-.056-1.011-.077-1.52l-.031-.76-.047-.758a51.76 51.76 0 0 1-.095-3.064v-.02a.532.532 0 0 1 1.035-.18z"/></g><g/><g clip-path="url(#km46aj)" opacity=".35"><g opacity=".35"><path fill="#371a45" d="M166.741 119.376a56.348 56.348 0 0 1-16.046 9.622c-7.13 2.797-14.954 4.175-23.102 3.805a56.14 56.14 0 0 1-34.06-13.448 239.14 239.14 0 0 0 2.397-9.226c8.668-19.98 61.02-11.928 63.638-5.487.786 1.936 1.548 4.126 2.277 6.528 1.041 1.603 2.781 4.401 4.896 8.206z"/></g></g><g/><g clip-path="url(#km46ak)"><path fill="#fff" d="M185.197 84.12a1.15 1.15 0 0 1-1.178-1.119l-.848-33.082a1.149 1.149 0 0 1 1.119-1.178c6.654-.171 12.187 5.085 12.358 11.74l.289 11.281c.17 6.655-5.086 12.187-11.74 12.358z"/></g><g/><g clip-path="url(#km46al)"><path fill="#371a45" d="M183.735 83.008l-.848-33.082c-.01-.383.13-.746.394-1.024a1.424 1.424 0 0 1 1.002-.445 12.256 12.256 0 0 1 8.813 3.389 12.248 12.248 0 0 1 3.836 8.628l.289 11.28a12.256 12.256 0 0 1-3.388 8.814 12.256 12.256 0 0 1-8.628 3.836h-.038a1.435 1.435 0 0 1-1.432-1.396zm9.686-2.831a11.69 11.69 0 0 0 3.232-8.408l-.29-11.281a11.689 11.689 0 0 0-3.658-8.23 11.692 11.692 0 0 0-8.407-3.233.858.858 0 0 0-.605.269.859.859 0 0 0-.238.617l.848 33.083c.013.476.41.853.887.842a11.695 11.695 0 0 0 8.23-3.66z"/></g><g/><g clip-path="url(#km46am)" opacity=".35"><g opacity=".35"><path fill="#371a45" d="M196.801 66.472l.137 5.291c.17 6.652-5.086 12.186-11.742 12.359a1.15 1.15 0 0 1-1.178-1.121l-.229-8.795c.19.397.597.663 1.063.655l.784-.022c5.26-.134 9.647-3.62 11.165-8.367z"/></g></g><g/><g clip-path="url(#km46an)"><path fill="#371a45" d="M182.437 83.041l-.848-33.081a2.718 2.718 0 0 1 .75-1.952 2.715 2.715 0 0 1 1.91-.849 13.548 13.548 0 0 1 9.74 3.746 13.548 13.548 0 0 1 4.24 9.535l.29 11.282a13.547 13.547 0 0 1-3.746 9.74 13.543 13.543 0 0 1-9.536 4.238c-.024.002-.047.002-.07.002a2.734 2.734 0 0 1-2.73-2.66zm3.151-.522a10.394 10.394 0 0 0 6.891-3.236 10.406 10.406 0 0 0 2.877-7.48l-.29-11.281a10.401 10.401 0 0 0-3.255-7.323 10.399 10.399 0 0 0-7.048-2.88z"/></g><g/><g clip-path="url(#km46ao)"><path fill="#fff" d="M75.093 51.54a1.15 1.15 0 0 1 1.178 1.12l.848 33.081A1.149 1.149 0 0 1 76 86.92c-6.655.171-12.187-5.085-12.358-11.74l-.289-11.28c-.17-6.656 5.085-12.188 11.74-12.359z"/></g><g/><g clip-path="url(#km46ap)"><path fill="#371a45" d="M67.194 83.815a12.256 12.256 0 0 1-3.836-8.629l-.289-11.28c-.174-6.8 5.216-12.476 12.017-12.65a1.434 1.434 0 0 1 1.47 1.396l.847 33.082c.02.79-.606 1.45-1.396 1.47l-.324.003a12.245 12.245 0 0 1-8.489-3.392zm-3.557-19.924l.29 11.281a11.697 11.697 0 0 0 3.658 8.231 11.693 11.693 0 0 0 8.408 3.232.866.866 0 0 0 .842-.887l-.848-33.082a.863.863 0 0 0-.887-.842c-6.487.166-11.629 5.58-11.463 12.067z"/></g><g/><g clip-path="url(#km46aq)" opacity=".35"><g opacity=".35"><path fill="#371a45" d="M76.887 76.564l.234 9.178A1.15 1.15 0 0 1 76 86.92a12.027 12.027 0 0 1-8.942-3.638 12.008 12.008 0 0 1-3.414-8.1l-.122-4.754c1.996 4.122 6.279 6.92 11.158 6.795l1.207-.031a1.16 1.16 0 0 0 1-.628z"/></g></g><g/><g clip-path="url(#km46ar)"><path fill="#371a45" d="M66.3 84.755a13.545 13.545 0 0 1-4.239-9.535l-.289-11.282c-.193-7.515 5.765-13.786 13.28-13.979a2.732 2.732 0 0 1 2.8 2.66l.848 33.082a2.732 2.732 0 0 1-2.659 2.8 13.54 13.54 0 0 1-9.741-3.745zm8.401-31.614c-5.566.37-9.91 5.09-9.767 10.716l.29 11.282a10.404 10.404 0 0 0 3.255 7.323 10.39 10.39 0 0 0 7.047 2.878zm.392-1.6l.04 1.58h.001z"/></g><g/><g clip-path="url(#km46as)"><path fill="#fff" d="M186.487 70.387c-1.412 31.113-27.779 55.19-58.892 53.778-31.113-1.412-55.19-27.78-53.778-58.892 1.412-31.113 27.78-55.191 58.892-53.778 31.113 1.412 55.19 27.779 53.778 58.892z"/></g><g/><g clip-path="url(#km46at)"><path fill="#371a45" d="M127.582 124.45c-7.643-.348-14.99-2.182-21.837-5.45A56.489 56.489 0 0 1 88.3 106.047 56.489 56.489 0 0 1 76.982 87.5c-2.636-7.114-3.796-14.597-3.449-22.24.347-7.644 2.18-14.99 5.45-21.837a56.477 56.477 0 0 1 12.95-17.446 56.472 56.472 0 0 1 18.548-11.317c7.114-2.636 14.598-3.796 22.241-3.45 7.643.347 14.99 2.181 21.837 5.45a56.5 56.5 0 0 1 17.446 12.951 56.506 56.506 0 0 1 11.317 18.548c2.635 7.114 3.796 14.597 3.45 22.24-.348 7.644-2.182 14.991-5.45 21.837a56.493 56.493 0 0 1-12.952 17.447A56.482 56.482 0 0 1 149.823 121a56.199 56.199 0 0 1-19.606 3.51c-.876 0-1.754-.02-2.635-.06zM92.316 26.395C81.25 36.502 74.78 50.313 74.1 65.286c-.679 14.971 4.512 29.312 14.618 40.38 10.107 11.066 23.918 17.535 38.89 18.215.87.04 1.74.06 2.605.06 14.024 0 27.35-5.159 37.774-14.678 11.067-10.106 17.537-23.918 18.216-38.889.68-14.972-4.512-29.313-14.618-40.38-10.106-11.067-23.917-17.536-38.889-18.216-.87-.039-1.74-.059-2.605-.059-14.024 0-27.35 5.158-37.775 14.677z"/></g><g/><g clip-path="url(#km46au)" opacity=".35"><g opacity=".35"><path fill="#371a45" d="M186.301 62.564c.243 2.564.307 5.175.187 7.823-1.416 31.112-27.782 55.189-58.894 53.78-31.112-1.416-55.189-27.782-53.78-58.894.04-.895.102-1.789.185-2.669 2.553 27.596 25.125 49.777 53.592 51.07 30.218 1.37 55.953-21.301 58.71-51.11z"/></g></g><g/><g clip-path="url(#km46av)"><path fill="#371a45" d="M127.523 125.745c-7.817-.355-15.332-2.23-22.336-5.575a57.77 57.77 0 0 1-17.847-13.247 57.766 57.766 0 0 1-11.575-18.971c-2.696-7.28-3.884-14.933-3.529-22.751.355-7.818 2.231-15.333 5.575-22.337a57.778 57.778 0 0 1 13.247-17.845 57.8 57.8 0 0 1 18.972-11.576c7.278-2.696 14.933-3.883 22.75-3.528 7.818.355 15.333 2.23 22.337 5.575a57.755 57.755 0 0 1 17.845 13.247 57.77 57.77 0 0 1 11.576 18.97c2.696 7.28 3.884 14.934 3.53 22.752-.356 7.818-2.232 15.333-5.576 22.337a57.794 57.794 0 0 1-13.247 17.845 57.784 57.784 0 0 1-18.972 11.576 57.499 57.499 0 0 1-20.055 3.59c-.897 0-1.794-.021-2.695-.062zm-34.331-98.39C82.38 37.227 76.06 50.719 75.397 65.345c-.665 14.625 4.407 28.634 14.28 39.445 9.872 10.812 23.363 17.13 37.99 17.795.85.039 1.7.058 2.545.058 13.7 0 26.718-5.04 36.9-14.338 10.812-9.872 17.132-23.364 17.796-37.99.664-14.625-4.408-28.634-14.28-39.445-9.873-10.812-23.365-17.131-37.99-17.795-.85-.04-1.7-.058-2.545-.058-13.7 0-26.718 5.039-36.901 14.338z"/></g><g/><g clip-path="url(#km46aw)"><path fill="#371a45" d="M127.523 125.745c-7.817-.355-15.332-2.23-22.336-5.575a57.77 57.77 0 0 1-17.847-13.247 57.766 57.766 0 0 1-11.575-18.971c-2.696-7.28-3.884-14.933-3.529-22.751.355-7.818 2.231-15.333 5.575-22.337a57.778 57.778 0 0 1 13.247-17.845 57.8 57.8 0 0 1 18.972-11.576c7.278-2.696 14.933-3.883 22.75-3.528 7.818.355 15.333 2.23 22.337 5.575a57.755 57.755 0 0 1 17.845 13.247 57.77 57.77 0 0 1 11.576 18.97c2.696 7.28 3.884 14.934 3.53 22.752-.356 7.818-2.232 15.333-5.576 22.337a57.794 57.794 0 0 1-13.247 17.845 57.784 57.784 0 0 1-18.972 11.576 57.499 57.499 0 0 1-20.055 3.59c-.897 0-1.794-.021-2.695-.062zm-34.331-98.39C82.38 37.227 76.06 50.719 75.397 65.345c-.665 14.625 4.407 28.634 14.28 39.445 9.872 10.812 23.363 17.13 37.99 17.795.85.039 1.7.058 2.545.058 13.7 0 26.718-5.04 36.9-14.338 10.812-9.872 17.132-23.364 17.796-37.99.664-14.625-4.408-28.634-14.28-39.445-9.873-10.812-23.365-17.131-37.99-17.795-.85-.04-1.7-.058-2.545-.058-13.7 0-26.718 5.039-36.901 14.338z"/></g><g/><g clip-path="url(#km46ax)"><path fill="#293856" d="M186.471 70.978c-.334 11.03-4.224 21.162-10.604 29.45-4.783 6.213-23.992 16.76-47.302 16.263-21.614-.459-40.925-12.575-45.324-19.066-5.867-8.658-9.138-19.007-8.804-30.037.883-29.19 26.328-40.53 57.266-39.595 30.94.936 55.651 13.796 54.768 42.985z"/></g><g/><g clip-path="url(#km46ay)"><path fill="#371a45" d="M128.31 118.706c-12.353-.262-22.915-4.162-29.6-7.387-7.585-3.659-14.126-8.444-16.665-12.19-6.222-9.182-9.336-19.808-9.005-30.729.219-7.25 1.944-13.704 5.127-19.184 2.996-5.158 7.299-9.488 12.79-12.87 10.025-6.173 24.049-9.173 40.552-8.673 16.505.5 30.32 4.341 39.953 11.11 5.277 3.707 9.311 8.29 11.989 13.62 2.845 5.661 4.177 12.208 3.958 19.458-.331 10.921-4.081 21.34-10.846 30.127-2.815 3.656-9.403 7.878-17.193 11.018-6.556 2.643-16.883 5.718-29.429 5.718-.54 0-1.083-.006-1.631-.018zm-36.128-80.37C81.434 44.953 75.78 55.092 75.375 68.47c-.316 10.428 2.659 20.576 8.603 29.347 1.766 2.606 6.949 7.154 15.747 11.398 6.476 3.125 16.701 6.902 28.635 7.156 12.886.274 23.501-2.857 30.137-5.53 8.886-3.583 14.288-7.776 16.215-10.278 6.463-8.396 10.046-18.346 10.362-28.773.405-13.377-4.627-23.84-14.955-31.096-9.258-6.506-22.634-10.2-38.681-10.686-1.161-.035-2.31-.053-3.445-.053-14.546 0-26.874 2.876-35.811 8.38z"/></g><g/><g clip-path="url(#km46az)" opacity=".5"><g opacity=".5"><path fill="#fff" d="M161.082 65.805c-1.146 5.391 1.091 10.435 4.998 11.266 3.906.83 8.003-2.867 9.149-8.258 1.146-5.39-1.091-10.435-4.998-11.266-3.906-.83-8.003 2.867-9.149 8.258z"/></g></g><g/><g clip-path="url(#km46aA)" opacity=".5"><g opacity=".5"><path fill="#fff" d="M155.008 85.46c-.863 2.378.092 4.906 2.133 5.647 2.04.74 4.394-.587 5.257-2.965.863-2.378-.091-4.906-2.132-5.647-2.041-.74-4.395.587-5.258 2.965z"/></g></g><g/><g clip-path="url(#km46aB)" opacity=".35"><g opacity=".35"><path fill="#111a28" d="M176.17 44.265c6.65 6.742 10.424 15.835 10.07 27.559-.333 11.032-4.226 21.164-10.602 29.452-4.784 6.213-23.995 16.758-47.305 16.265-8.23-.173-16.124-2.039-22.992-4.644 28.667-.004 52.07-12.953 58-20.659 8.098-10.518 13.035-23.379 13.457-37.376.116-3.741-.108-7.271-.628-10.597z"/></g></g><g/><g clip-path="url(#km46aC)"><path fill="#371a45" d="M182.198 47.485a1.4 1.4 0 0 1-.93-.354l-.139-.122-.103-.154c-9.099-13.61-27.226-21.807-49.732-22.49-22.63-.683-41.21 6.65-50.972 20.123l-.038.053-.056.063a1.402 1.402 0 0 1-2.15-1.796c2.64-3.634 5.895-6.885 9.68-9.663 3.683-2.706 7.897-4.986 12.524-6.778 4.532-1.755 9.49-3.053 14.733-3.858 5.197-.798 10.702-1.116 16.364-.945 11.177.339 21.746 2.586 30.564 6.498 4.535 2.012 8.634 4.467 12.184 7.295 3.648 2.908 6.738 6.229 9.184 9.874a1.4 1.4 0 0 1-1.113 2.254zm-103.093-3.88l.076.068"/></g><g/><g clip-path="url(#km46aD)" opacity=".5"><g opacity=".5"><path fill="#fff" d="M86.262 86.18s-8.169-29.068 7.697-40.073c15.866-11.006 38.192-10.284 37.626-8.868 0 0-24.898 5.236-35.16 24.485C88.51 76.566 86.261 86.18 86.261 86.18z"/></g></g><g/><g clip-path="url(#km46aE)"><path fill="#371a45" d="M156.777 158.147a1.168 1.168 0 0 1-.446-2.248c.163-.067 4.043-1.65 9.223-2.6 3.06-.56 5.94-.78 8.556-.652 3.33.163 6.251.893 8.682 2.17a1.167 1.167 0 1 1-1.086 2.068c-4.856-2.549-11.21-2.112-15.686-1.297-4.948.902-8.762 2.455-8.8 2.471-.145.06-.295.088-.443.088z"/></g><g/><g clip-path="url(#km46aF)"><path fill="#371a45" d="M159.52 191.882a15.826 15.826 0 0 1 .108.907 18.486 18.486 0 0 1 .056 2.724 14.036 14.036 0 0 1-.237 1.86 9.17 9.17 0 0 1-.617 1.897l-.001.002a1.173 1.173 0 1 1-2.033-1.151c.263-.385.493-.832.688-1.313.185-.487.339-1.003.465-1.535a17.036 17.036 0 0 0 .365-2.468c.011-.14.019-.28.027-.42.007-.136.012-.281.015-.407l.001-.023a.585.585 0 0 1 1.163-.073z"/></g><g/><g clip-path="url(#km46aG)"><path fill="#371a45" d="M52.886 168.126a4.1 4.1 0 0 0-1.036-.274 8.978 8.978 0 0 0-1.09-.076c-.368-.005-.739.015-1.108.042-.369.027-.739.066-1.107.115-.739.094-1.473.235-2.205.385a33.79 33.79 0 0 0-1.633.385 17.51 17.51 0 0 0-.525.146.84.84 0 0 1-1.078-.841l.007-.132.01-.227.008-.237.013-.475a21.44 21.44 0 0 0-.003-.95 16.213 16.213 0 0 0-.138-1.853 9.07 9.07 0 0 0-.16-.867 4.64 4.64 0 0 0-.237-.756c-.093-.218-.208-.395-.29-.465-.041-.036-.067-.044-.073-.04-.01.003.008.017-.006.022a.05.05 0 0 1-.021.002.148.148 0 0 1-.035.005c-.01 0-.03.005-.044.007-.017.004-.03.003-.05.009-.038.009-.075.016-.12.03-.041.01-.088.029-.134.044a3.024 3.024 0 0 0-.594.305 4.903 4.903 0 0 0-1.123 1.023 6.667 6.667 0 0 0-.848 1.354 7.934 7.934 0 0 0-.534 1.55c-.03.137-.064.27-.086.409l-.038.205c-.011.069-.02.139-.03.209l-.03.208-.02.21-.011.106-.005.052-.001.043-.006.17a3.72 3.72 0 0 0 .216 1.322c.045.107.086.215.132.323l.08.16c.027.053.05.107.084.159.064.105.115.214.189.318l.103.157c.034.053.077.104.114.156.307.412.674.814 1.088 1.19.83.754 1.823 1.424 2.864 1.995a13.339 13.339 0 0 0 .77.396l.043.019.01.005-.007-.003-.01-.003.109.044.222.087.446.177a55.524 55.524 0 0 0 1.745.658l.029.01a1.583 1.583 0 0 1-.882 3.036c-.363-.082-.697-.177-1.03-.271a43.151 43.151 0 0 1-.978-.302c-.161-.053-.323-.103-.483-.16l-.241-.082-.122-.043-.068-.026-.053-.021-.072-.03a17.205 17.205 0 0 1-2.887-1.555 14.817 14.817 0 0 1-1.752-1.371 11.07 11.07 0 0 1-1.542-1.745 8.085 8.085 0 0 1-1.117-2.217 6.826 6.826 0 0 1-.295-2.57l.029-.323.008-.08.01-.07.023-.14.045-.278c.017-.093.037-.186.056-.278.019-.093.037-.185.058-.278l.068-.276c.043-.185.099-.367.152-.55.446-1.458 1.199-2.863 2.298-4.005a7.654 7.654 0 0 1 1.922-1.467 5.476 5.476 0 0 1 1.216-.474c.113-.028.224-.055.345-.073.116-.023.243-.036.368-.047.06-.008.13-.007.196-.01.067-.001.13-.004.203 0l.21.015c.076.009.15.02.225.033.312.054.645.18.916.357.275.176.495.392.666.608.34.438.51.866.639 1.266.243.8.305 1.532.33 2.248.02.714-.011 1.408-.068 2.094-.03.343-.066.683-.11 1.022-.021.17-.042.34-.07.509l-.041.255-.045.264-1.072-.973a29.012 29.012 0 0 1 1.177-.162c.388-.045.777-.084 1.166-.117.39-.033.78-.057 1.17-.07.392-.015.784-.023 1.176-.02.784.006 1.573.055 2.358.184.392.065.783.15 1.167.273a4.35 4.35 0 0 1 1.106.512.227.227 0 0 1-.216.397z"/></g><g><path fill="#fff" d="M97.541 109.608c-6.759 14.075-13.483 32.635-17.031 35.53-7.036 5.74-15.059 7.757-22.419 7.606 0 0-5.358-10.117-9.146-8.31-1.732.825-3.597 3.493-.452 9.291.129.24.334.442.519.668 0 0-5.771-.305-10.92-5.21-5.706-5.435-7.022-1.226-7.457 1.333-.435 2.56-1.328 16.702 8.366 22.856 9.741 6.184 32.531 9.48 49.998-8.122l12.802-18.449z"/></g><g opacity=".35"><g opacity=".35"><path fill="#371a45" d="M101.802 146.802L89 165.25c-17.466 17.603-40.26 14.305-49.998 8.123-3.498-2.22-5.617-5.483-6.874-8.864.99 1.166-.825-10.41.578-9.52.519.33.84 5.16 5.022 10.016 2.032 2.36 5.168 4.25 8.987 5.453 1.129.356.24 1.489 1.492 1.628 22.793 2.537 29.136-6.37 32.877-15.097l14.34-42.832a228.841 228.841 0 0 1 2.119-4.546z"/></g></g><g><path fill="#371a45" d="M48.099 178.725c-3.795-.907-7.234-2.297-9.945-4.018-2.452-1.556-4.465-3.696-5.984-6.359-1.23-2.157-2.14-4.659-2.7-7.439-.947-4.69-.672-9.022-.394-10.658.18-1.056.726-4.27 3.255-5.11 1.902-.632 4.143.316 6.852 2.897a18.136 18.136 0 0 0 6.827 4.091c-.866-2.274-1.03-4.268-.483-5.948.464-1.426 1.436-2.554 2.737-3.175.965-.46 2.545-.72 4.59.651 1.053.706 2.173 1.81 3.328 3.277 1.252 1.59 2.278 3.264 2.84 4.236 5.528-.029 13.289-1.384 20.488-7.257.576-.47 1.718-1.974 3.892-6.472 1.684-3.483 3.604-7.942 5.637-12.663 2.29-5.322 4.66-10.825 7.077-15.855a1.581 1.581 0 0 1 2.997.505l4.26 37.194c.044.381-.053.766-.272 1.081l-12.802 18.45a1.543 1.543 0 0 1-.177.211c-10.12 10.2-21.31 12.94-28.914 13.445-1 .066-1.996.1-2.99.1-3.435 0-6.827-.397-10.12-1.184zm-14.771-30.582c-.121.04-.745.356-1.133 2.638-.196 1.154-.511 5.111.376 9.502 1.096 5.43 3.545 9.384 7.278 11.754 4.149 2.634 11.884 5.23 21.15 4.615 7.035-.466 17.382-3.002 26.78-12.419l12.383-17.843-3.553-31.022c-1.58 3.498-3.14 7.12-4.665 10.661-4.865 11.3-7.972 18.326-10.434 20.335-8.343 6.806-17.357 8.088-23.451 7.962a1.583 1.583 0 0 1-1.365-.84c-.013-.025-1.311-2.46-3.02-4.624-1.953-2.474-3.441-3.29-4.048-3-.296.141-.831.497-1.091 1.298-.436 1.34.042 3.401 1.345 5.806.026.04.11.136.17.207.064.072.127.145.188.22a1.582 1.582 0 0 1-1.31 2.58c-.26-.014-6.417-.397-11.927-5.644-2.065-1.968-3.112-2.208-3.5-2.208a.56.56 0 0 0-.173.022z"/></g><g><path fill="#371a45" d="M30.356 164.304c-.365-1.186-.536-2.412-.572-3.64a14.318 14.318 0 0 1 .387-3.697c.073-.31.16-.616.264-.923.053-.153.102-.306.164-.46.059-.153.117-.306.189-.458a7.796 7.796 0 0 1 1.08-1.794l.187-.214.095-.105.104-.104c.07-.07.14-.137.212-.204l.235-.193c.04-.032.078-.064.12-.095l.13-.09c.089-.057.173-.117.267-.17.095-.053.19-.104.287-.154l.072-.037.077-.033.155-.063c.202-.088.427-.141.643-.196.223-.036.447-.077.67-.076l.167-.002.083-.001.07.005c.095.007.186.01.283.022.19.02.385.05.583.098.394.09.803.24 1.177.463.372.223.703.51.959.814.259.304.459.619.617.922.16.304.284.6.394.885.216.57.376 1.105.544 1.614.169.507.339.99.547 1.444.407.91.98 1.703 1.772 2.339.197.16.407.306.627.442.219.138.449.266.686.385.476.233.98.432 1.503.603h.002a.228.228 0 0 1-.08.445 9.343 9.343 0 0 1-1.714-.224 7.334 7.334 0 0 1-2.48-1.061 7.342 7.342 0 0 1-.732-.578 7.949 7.949 0 0 1-1.216-1.406c-.698-1.008-1.168-2.113-1.656-2.994-.244-.435-.5-.804-.742-1.001a1.146 1.146 0 0 0-.346-.205 1.38 1.38 0 0 0-.387-.078 2.36 2.36 0 0 0-.241-.004c-.041-.001-.09.006-.133.008l-.034.002-.02.006a.611.611 0 0 1-.041.01c-.055.003-.102.032-.152.04-.046.03-.095.04-.141.077-.186.104-.396.328-.6.625a5.425 5.425 0 0 0-.531 1.104c-.04.102-.072.21-.108.318-.037.105-.065.219-.097.329-.033.109-.057.225-.085.338-.03.113-.052.23-.077.346a15.667 15.667 0 0 0-.288 2.904c-.01.988.068 1.977.2 2.952l.007.039a1.586 1.586 0 0 1-3.086.68z"/></g><g><path fill="#fff" d="M43.79 175.742s-7.291-2.97-6.689-8.166c.57-4.929 4.003-7.096 5.591-6.808 2.4.435 1.514 7.231 1.514 7.231s6.455-1.483 9.012-.06z"/></g><g opacity=".35"><g opacity=".35"><path fill="#371a45" d="M48.207 172.086l-4.417 3.656s-7.29-2.97-6.691-8.165c.179-1.553.64-2.827 1.245-3.843a8.814 8.814 0 0 0-.008.329c-.017 6.428 7.627 7.769 9.87 8.023z"/></g></g><g><path fill="#fcfcfc" d="M57.25 110.042a24.4 24.4 0 0 1 .025 3.035 24.725 24.725 0 0 1-.584 4.207 24.7 24.7 0 0 1-10.462 15.158 24.709 24.709 0 0 1-18.07 3.752 24.94 24.94 0 0 1-6.852-2.289c5.756-2.487 12.296-6.05 18.946-10.465 6.65-4.414 12.472-9.059 16.997-13.398z"/></g><g opacity=".35"><g opacity=".35"><path fill="#371a45" d="M57.25 106.608a24.4 24.4 0 0 1 .025 3.035 24.725 24.725 0 0 1-.584 4.207 24.7 24.7 0 0 1-10.462 15.158 24.709 24.709 0 0 1-18.07 3.752 24.94 24.94 0 0 1-6.852-2.29c5.756-2.486 12.296-6.05 18.946-10.464 6.65-4.414 12.472-9.06 16.997-13.398z"/></g></g><g opacity=".35"><g opacity=".35"><path fill="#371a45" d="M54.719 97.427c-.15.168-.307.34-.472.515.14-.208.278-.421.409-.636l.063.12z"/></g></g><g><path fill="#f9f9f9" d="M53.171 98.079c.578.87 1.094 1.764 1.548 2.677-3.456 3.866-10.584 9.65-19.284 15.427-8.699 5.776-16.799 10.1-21.703 11.785a24.675 24.675 0 0 1-1.866-2.466l-.08-.122a24.745 24.745 0 0 1-2.177-4.108 24.533 24.533 0 0 1-1.355-4.368 24.793 24.793 0 0 1-.295-8.488c.937-6.801 4.678-13.182 10.848-17.278 6.12-4.063 13.384-5.052 19.972-3.334a24.784 24.784 0 0 1 7.647 3.457 24.535 24.535 0 0 1 3.547 2.92c.09.087.177.176.265.266a24.719 24.719 0 0 1 2.933 3.632z"/></g><g><path fill="#29a5dc" d="M26.317 111.505c-.354 2.417.309 3.412 2.658 4.09 8.052 2.318 16.105 4.632 24.155 6.954 3.952-7.366 3.879-16.603-.99-24.113-5.006-7.724-13.748-11.565-22.316-10.69-1.167 7.92-2.346 15.838-3.507 23.76z"/></g><g><path fill="#fcfcfc" d="M46.283 96.27l.615 1.449a.678.678 0 0 1-.256.835 5825.341 5825.341 0 0 0-10.637 6.897c-1.347.895-1.79 3.028-.918 4.387.598.93 1.765 1.229 2.727.685.311-.176 3.044-1.95 3.337-2.153.065-.045.133-.18.11-.24-.169-.435-.36-.863-.555-1.32l-1.978 1.282-.841-1.973 3.76-2.438 2.279 5.365c-.015.03-2.451 1.63-2.464 1.64-1.125.7-2.147 1.582-3.395 2.065-1.38.54-3.412.095-4.399-1.263-1.422-1.957-1.38-4.01-.307-6.092.416-.81 1.038-1.444 1.815-1.93.775-.484 10.987-7.117 11.107-7.195z"/></g><g><path fill="#fcfcfc" d="M43.415 102.511l1.244 2.95c.343.812.69 1.623 1.049 2.467.58-.376.866-.555 1.417-.93.045-.03.394-.246.198-.703l-2.12-4.943z"/></g><g><path fill="#f0f" d="M27.362 122.907c-1.768-.5-2.869.258-3.178 2.11-.45 2.692-.86 5.391-1.28 8.09 7.016 3.003 15.353 2.57 22.24-1.893a23.99 23.99 0 0 0 3.032-2.332c-6.936-1.997-13.869-4.01-20.814-5.975z"/></g><g><path fill="#29a5dc" d="M15.266 111.815c2.41.682 3.46-.013 3.822-2.53.92-6.415 1.833-12.832 2.748-19.247-.842.412-1.668.878-2.474 1.4-6.565 4.256-10.324 11.21-10.767 18.463 2.223.64 4.445 1.284 6.67 1.914z"/></g><g><path fill="#f0f" d="M15.002 119.588c-.105-.038-3.297-.767-5.39-1.236a23.707 23.707 0 0 0 2.753 5.865 23.743 23.743 0 0 0 3.89 4.603c.289-2.45.68-5.472.744-6.106.164-1.62-.466-2.567-1.997-3.126z"/></g><g><path fill="none" stroke="#29a5dc" stroke-linecap="round" stroke-miterlimit="20" stroke-width=".78" d="M28.24 88.59c-1.168 7.92-2.346 15.838-3.508 23.759-.354 2.418.31 3.412 2.66 4.089 8.05 2.319 16.103 4.633 24.154 6.955"/></g><g><path fill="none" stroke="#f0f" stroke-linecap="round" stroke-miterlimit="20" stroke-width=".78" d="M17.72 127.94c.288-2.449.68-5.472.743-6.106.164-1.619-.466-2.567-1.997-3.126-.05-.018-.797-.192-1.792-.421"/></g><g><path fill="none" stroke="#f0f" stroke-linecap="round" stroke-miterlimit="20" stroke-width=".78" d="M47.153 127.055c-6.936-1.997-13.868-4.01-20.814-5.975-1.768-.5-2.868.258-3.178 2.11"/></g><g><path fill="#371a45" d="M20.588 135.328a1.595 1.595 0 0 1 .087-2.887c5.876-2.538 12.341-6.11 18.696-10.329 6.355-4.219 12.155-8.791 16.775-13.221a1.595 1.595 0 0 1 2.695 1.04 26.514 26.514 0 0 1-2.55 13.312 26.352 26.352 0 0 1-9.18 10.528 26.354 26.354 0 0 1-14.569 4.406c-4.143 0-8.25-.976-11.954-2.849zm20.547-10.559c-5.323 3.534-10.729 6.628-15.829 9.067 6.681 2.177 14.094 1.226 20.041-2.722 5.948-3.949 9.701-10.411 10.288-17.414z"/></g><g><path fill="#293856" d="M66.831 93.225c2.01 3.026-1.938 9.488-9.58 16.817-4.527 4.34-10.349 8.984-16.998 13.398-6.65 4.415-13.19 7.978-18.946 10.465-9.72 4.2-17.208 5.328-19.216 2.302-1.825-2.748 1.262-8.328 7.565-14.818.405.96.873 1.902 1.408 2.822-1.718 1.944-2.485 3.39-2.024 4.084.47.707 2.153.543 4.691-.328 4.905-1.684 13.005-6.008 21.704-11.784 8.7-5.776 15.828-11.56 19.284-15.428 1.787-2 2.591-3.488 2.122-4.196-.46-.693-2.09-.548-4.548.28a24.839 24.839 0 0 0-2.055-2.393c8.428-3.29 14.77-3.969 16.593-1.22z"/></g><g opacity=".32"><g opacity=".32"><path fill="#fff" d="M9.143 131.49c-1.22 0-2.15-.312-2.643-1.053-.99-1.49.16-4.005 3.513-7.685l1 .91c-3.151 3.46-3.815 5.381-3.386 6.027.72 1.086 5.278.402 13.583-3.662 4.644-2.273 9.824-5.284 14.98-8.707 5.157-3.424 9.942-7.029 13.839-10.426 6.968-6.077 9.367-10.012 8.647-11.097-.43-.647-2.458-.78-6.868.781l-.451-1.275c4.694-1.662 7.456-1.745 8.446-.254 1.778 2.678-3.851 8.474-8.885 12.864-3.941 3.435-8.775 7.077-13.98 10.533-5.206 3.456-10.439 6.497-15.135 8.796-4.339 2.123-9.477 4.247-12.66 4.247z"/></g></g><g opacity=".32"><g opacity=".32"><path fill="#fff" d="M7.61 135.087c-1.719 0-3.089-.43-3.81-1.516-1.863-2.806 2.095-7.966 5.744-11.801l.98.933c-5.349 5.62-6.399 8.913-5.597 10.12.99 1.489 5.79 1.558 16.068-3.151 5.313-2.434 11.194-5.76 17.008-9.62 5.813-3.86 11.161-7.988 15.466-11.941 8.33-7.645 10.131-12.097 9.142-13.585-.8-1.207-4.242-1.518-11.5 1.23l-.478-1.264c4.95-1.875 11.242-3.521 13.105-.714 2.421 3.646-4.822 11.169-9.354 15.33-4.357 3.999-9.763 8.173-15.633 12.07-5.872 3.899-11.817 7.26-17.193 9.723-3.927 1.799-9.9 4.186-13.949 4.186z"/></g></g><g opacity=".35"><g opacity=".35"><path fill="#371a45" d="M39.788 122.767c-6.51 4.292-12.9 7.758-18.537 10.194-9.72 4.2-17.208 5.327-19.217 2.302-1.823-2.748 1.263-8.327 7.566-14.818.405.96.874 1.903 1.41 2.823-1.72 1.943-2.488 3.388-2.026 4.083.47.708 2.154.544 4.691-.327 3.254-1.117 7.914-3.397 13.223-6.492-.016.76.153 1.423.518 1.972 1.504 2.267 6.083 2.202 12.372.263z"/></g></g><g><path fill="#371a45" d="M.865 137.022c-1.211-1.824-.99-4.348.656-7.501 1.4-2.681 3.782-5.761 7.08-9.157a1.47 1.47 0 0 1 2.413.453c.383.909.828 1.802 1.324 2.655.318.549.25 1.24-.17 1.715-.87.984-1.317 1.645-1.546 2.059.488-.052 1.309-.217 2.633-.671 4.94-1.696 13.127-6.148 21.366-11.618 8.239-5.47 15.52-11.287 19-15.182.932-1.043 1.403-1.736 1.64-2.165-.471.05-1.253.205-2.497.625a1.474 1.474 0 0 1-1.646-.51 23.306 23.306 0 0 0-1.933-2.25 1.472 1.472 0 0 1 .518-2.4c4.41-1.721 8.174-2.72 11.187-2.97 3.546-.294 5.957.482 7.168 2.306 3.285 4.948-4.723 13.836-9.79 18.694-4.748 4.554-10.696 9.244-17.2 13.562-6.505 4.319-13.136 7.98-19.176 10.59-4.211 1.818-10.496 4.127-15.263 4.127-2.526 0-4.626-.648-5.764-2.362zm2.453-1.63c.619.934 2.552 1.267 5.302.914 3.184-.41 7.369-1.707 12.104-3.752 5.883-2.541 12.354-6.116 18.715-10.34 6.36-4.223 12.168-8.8 16.793-13.234 3.723-3.57 6.543-6.924 8.156-9.7 1.393-2.397 1.837-4.307 1.217-5.24-.97-1.461-5.286-1.632-12.83 1.033l.046.056c2.057-.6 4.253-.88 5.247.617 1.172 1.764-.587 4.128-2.25 5.99-3.693 4.13-11.007 9.99-19.568 15.674-8.561 5.684-16.8 10.15-22.04 11.95-2.362.81-5.224 1.514-6.395-.251-.994-1.496.117-3.412 1.469-5.075l-.034-.064c-5.384 5.918-6.902 9.962-5.932 11.423z"/></g><g opacity=".35"><g opacity=".35"><path fill="#371a45" d="M57.418 98.056c-3.455 3.867-10.584 9.653-19.284 15.429-8.7 5.774-16.8 10.1-21.704 11.784a25.542 25.542 0 0 1-1.866-2.466l-.08-.121a25.088 25.088 0 0 1-2.129-3.991l-.047-.118a24.655 24.655 0 0 1-1.355-4.368 24.842 24.842 0 0 1-.295-8.489 24.744 24.744 0 0 1 7.577-14.687 24.906 24.906 0 0 0-1.871 6.62 24.768 24.768 0 0 0 .296 8.487c.31 1.48.76 2.942 1.353 4.369l.049.117c.022.051.05.114.086.188 1.914 4.01 6.723 5.053 11.03 3.965 8.21-2.075 24.705-14.682 28.186-17.539.369.604-.257.197.054.82z"/></g></g><g opacity=".41"><g opacity=".41"><path fill="#fff" d="M54.132 101.352c-.402.45-.853.925-1.352 1.425a25.216 25.216 0 0 0-1.96-3.03 24.993 24.993 0 0 0-2.32-2.66 24.477 24.477 0 0 0-3.549-2.92 24.764 24.764 0 0 0-7.646-3.455c-6.59-1.718-13.854-.73-19.973 3.333a24.674 24.674 0 0 0-8.953 10.603 24.69 24.69 0 0 1 9.841-12.914c6.12-4.062 13.384-5.051 19.972-3.333a24.74 24.74 0 0 1 11.46 6.643 24.826 24.826 0 0 1 2.932 3.632 25.01 25.01 0 0 1 1.548 2.676z"/></g></g><g><path fill="#371a45" d="M12.522 129.008a26.666 26.666 0 0 1-4.335-7c-4.908-11.653-.812-25.194 9.738-32.2 10.55-7.003 24.62-5.521 33.453 3.525a26.276 26.276 0 0 1 3.121 3.864h.001a26.667 26.667 0 0 1 1.646 2.848 1.593 1.593 0 0 1-.238 1.773c-3.698 4.138-11.022 10.005-19.59 15.694-8.57 5.689-16.82 10.162-22.069 11.964a1.594 1.594 0 0 1-1.727-.468zm7.167-36.541c-9.275 6.157-12.876 18.06-8.563 28.303a23.374 23.374 0 0 0 3.122 5.313c4.993-1.917 12.625-6.13 20.305-11.228s14.523-10.497 18.228-14.355a23.329 23.329 0 0 0-1.76-2.698 23.397 23.397 0 0 0-1.924-2.241c-4.485-4.592-10.505-6.966-16.578-6.966-4.442 0-8.912 1.27-12.83 3.872z"/></g><g><path fill="#371a45" d="M53.108 168.136a4.1 4.1 0 0 0-1.036-.274 8.978 8.978 0 0 0-1.09-.076c-.369-.005-.739.015-1.108.042-.369.026-.739.066-1.107.115-.739.094-1.473.235-2.205.385a33.79 33.79 0 0 0-1.633.385 17.51 17.51 0 0 0-.526.146.84.84 0 0 1-1.078-.841l.006-.132.011-.227.01-.237.011-.475a21.44 21.44 0 0 0-.002-.95 16.213 16.213 0 0 0-.138-1.853 9.013 9.013 0 0 0-.16-.867 4.64 4.64 0 0 0-.238-.756c-.093-.218-.208-.395-.29-.465-.04-.036-.067-.044-.073-.04-.009.003.008.017-.006.022a.05.05 0 0 1-.02.002.148.148 0 0 1-.036.005c-.01-.001-.029.005-.044.007-.017.004-.03.002-.05.009-.038.009-.075.015-.12.03-.04.01-.088.028-.134.044a3.024 3.024 0 0 0-.594.305 4.88 4.88 0 0 0-1.123 1.023 6.667 6.667 0 0 0-.848 1.354 7.934 7.934 0 0 0-.534 1.55c-.029.136-.064.27-.086.409l-.038.205-.03.209-.029.208-.02.21-.012.106-.005.052v.043l-.007.17c-.01.453.066.888.216 1.322.044.107.086.215.132.322l.08.16c.027.054.05.108.084.16.064.105.115.214.19.318l.102.157c.033.053.076.104.114.156.307.412.674.814 1.088 1.19.83.754 1.823 1.424 2.864 1.995a13.339 13.339 0 0 0 .771.396l.042.019.01.005c.004 0-.005-.002-.007-.003l-.01-.003.11.044.221.087.446.177a55.524 55.524 0 0 0 1.745.658l.03.01a1.583 1.583 0 0 1-.883 3.036c-.363-.082-.697-.177-1.03-.271a38.595 38.595 0 0 1-.978-.303c-.16-.052-.323-.102-.483-.158l-.24-.083-.123-.043-.068-.026-.053-.021-.072-.03a13.43 13.43 0 0 1-.515-.225 15.955 15.955 0 0 1-1.447-.752c-.314-.18-.62-.375-.925-.578a14.817 14.817 0 0 1-1.752-1.371 11.114 11.114 0 0 1-1.542-1.745 8.057 8.057 0 0 1-1.117-2.217 6.806 6.806 0 0 1-.295-2.57l.03-.323.007-.08.011-.07.022-.14.045-.278c.017-.093.037-.186.056-.278.02-.093.037-.185.058-.278l.068-.276c.042-.185.1-.368.152-.55.446-1.458 1.198-2.863 2.298-4.005a7.654 7.654 0 0 1 1.922-1.467 5.476 5.476 0 0 1 1.216-.474c.113-.028.224-.055.345-.073.116-.023.243-.036.368-.047.061-.008.131-.007.196-.01.067-.001.131-.004.203 0l.211.014c.075.01.15.02.224.034.312.053.645.18.916.357.275.176.495.392.666.608.34.438.511.866.64 1.266.242.8.304 1.532.33 2.248.02.714-.012 1.408-.069 2.094-.029.343-.066.683-.109 1.022-.022.17-.043.34-.07.509l-.042.255-.045.264-1.072-.973a29.012 29.012 0 0 1 1.177-.162 35.12 35.12 0 0 1 1.166-.117 25.558 25.558 0 0 1 2.346-.089c.784.005 1.573.054 2.358.183a8.09 8.09 0 0 1 1.167.273 4.35 4.35 0 0 1 1.106.512.227.227 0 0 1-.216.397z"/></g><g><path fill="#fff" d="M188.43 186.57c-1.973-21.047-8.602-39.888-14.868-53.66H153.81l.43.54c3.822 19.767 2.827 48.7 2.827 48.7s-4.688 7.66-3.589 11.635c1.108 4.001 3.876 4.447 3.876 4.447s-1.319 2.89-1.632 5.804c-.179 1.686-.02 3.38.925 4.525 2.077 2.523 8.518 1.557 10.233 1.42 10.51-.828 12.953.953 15.88-1.228 6.82-5.079 6.161-16.933 5.67-22.183z"/></g><g><path fill="#371a45" d="M179.321 163.782c.11.867.161 1.743.219 2.614.057.872.113 1.742.192 2.605.158 1.724.402 3.435.874 5.037.235.8.529 1.569.897 2.278a8.299 8.299 0 0 0 1.325 1.897 6.627 6.627 0 0 0 1.744 1.323 7.727 7.727 0 0 0 2.067.708 1.588 1.588 0 1 1-.851 3.05l-.03-.011a10.664 10.664 0 0 1-2.685-1.421 9.204 9.204 0 0 1-2.105-2.176 10.467 10.467 0 0 1-1.289-2.608 14.505 14.505 0 0 1-.621-2.714c-.244-1.811-.22-3.595-.116-5.351.052-.878.127-1.751.203-2.621.074-.87.154-1.737.176-2.61z"/></g><g opacity=".35"><g opacity=".35"><path fill="#371a45" d="M188.235 198.37c-.683 4.033-2.236 7.972-5.475 10.382-2.927 2.182-5.371.4-15.88 1.23-1.714.137-8.155 1.103-10.233-1.42-.945-1.145-1.103-2.84-.924-4.526.312-2.914 1.632-5.803 1.632-5.803s-2.768-.446-3.876-4.447c-.587-2.12.47-5.28 1.586-7.773-.075.766-.045 1.486.129 2.11 1.108 4.002 3.877 4.447 3.877 4.447s-1.32 2.89-1.633 5.804c-.18 1.686 1.488-1.713 1.535-.23.22 7.053 7.908 6.312 9.623 6.174 10.509-.828 12.953.954 15.879-1.228 1.662-1.236 2.877-2.872 3.76-4.72z"/></g></g><g><path fill="#371a45" d="M156.788 158.153a1.168 1.168 0 0 1-.445-2.248c.162-.067 4.042-1.651 9.222-2.6 3.06-.561 5.939-.78 8.556-.652 3.33.163 6.25.893 8.682 2.169a1.167 1.167 0 1 1-1.086 2.068c-4.856-2.548-11.21-2.111-15.685-1.296-4.95.902-8.762 2.455-8.8 2.47-.146.06-.296.089-.444.089z"/></g><g><path fill="#371a45" d="M159.53 191.887a15.826 15.826 0 0 1 .108.907 18.486 18.486 0 0 1 .056 2.724 14.036 14.036 0 0 1-.236 1.861 9.114 9.114 0 0 1-.618 1.896v.002a1.173 1.173 0 1 1-2.034-1.15c.263-.386.493-.833.688-1.314.185-.487.34-1.003.465-1.535a17.036 17.036 0 0 0 .365-2.468 15.458 15.458 0 0 0 .042-.827l.001-.023a.585.585 0 0 1 1.163-.073z"/></g><g><path fill="#371a45" d="M190.227 189.448a67.182 67.182 0 0 0-.157-2.3c-.06-.764-.152-1.513-.231-2.268l-.245-2.262-.032-.283-.038-.282-.077-.563-.154-1.126-.154-1.127-.078-.563-.038-.282-.046-.28-.368-2.244c-.23-1.5-.538-2.982-.817-4.472l-.106-.558-.054-.28-.06-.277-.241-1.11-.481-2.221c-.17-.738-.354-1.472-.53-2.21l-.267-1.103-.133-.552-.146-.55-.584-2.193c-.1-.365-.19-.733-.296-1.096l-.315-1.091-.631-2.181-.675-2.167-.338-1.084-.084-.271-.09-.27-.18-.537-.72-2.153c-.115-.36-.245-.715-.371-1.071l-.38-1.07c-.255-.711-.5-1.428-.771-2.133l-.798-2.124c-.13-.355-.272-.706-.411-1.058l-.417-1.054c-.546-1.41-1.143-2.801-1.72-4.2-.603-1.385-1.193-2.777-1.826-4.151-.081-.181-.17-.358-.251-.54h-3.49c.288.615.583 1.226.859 1.844.623 1.35 1.203 2.72 1.798 4.085.566 1.375 1.153 2.742 1.69 4.13l.41 1.037c.137.345.276.69.405 1.04l.784 2.088c.268.694.507 1.398.758 2.097l.374 1.05c.124.352.25.7.366 1.055l.706 2.115.176.528.089.265.083.266.332 1.064.662 2.129.62 2.142.309 1.07c.104.357.193.717.29 1.076l.574 2.153.142.539.13.542.263 1.082c.173.722.353 1.443.52 2.167l.472 2.176.236 1.089.059.272.052.273.105.547c.272 1.459.576 2.913.799 4.38l.36 2.197.046.274.037.276.076.55.15 1.103.152 1.103.075.55.038.276.03.277.24 2.21c.077.738.168 1.478.225 2.208.062.732.113 1.46.15 2.19.07 1.457.089 2.91.027 4.352a35.617 35.617 0 0 1-.152 2.15 32.124 32.124 0 0 1-.288 2.117c-.25 1.393-.592 2.759-1.093 4.034-.116.324-.263.629-.397.942l-.225.454c-.038.075-.073.152-.113.226l-.124.218-.123.219c-.041.072-.08.147-.126.215l-.268.419c-.043.072-.092.138-.14.204l-.145.199-.144.2c-.048.067-.103.127-.154.19l-.312.378-.333.353c-.107.122-.23.228-.347.338l-.177.164-.088.082-.094.075-.376.302c-.064.055-.12.089-.178.132l-.087.06-.086.055a3.536 3.536 0 0 1-.7.349c-.24.088-.497.15-.785.193a8.47 8.47 0 0 1-.933.076c-.667.02-1.397-.007-2.14-.035-.745-.028-1.505-.06-2.268-.08a76.443 76.443 0 0 0-2.298-.024 74.742 74.742 0 0 0-4.593.167l-1.152.085-.583.056-.553.055c-.73.07-1.444.125-2.152.152-.354.013-.705.019-1.053.017a17.366 17.366 0 0 1-1.03-.038c-.673-.046-1.33-.136-1.908-.294a5.17 5.17 0 0 1-.791-.285 2.414 2.414 0 0 1-.563-.365l-.055-.047c-.016-.016-.03-.033-.044-.05-.03-.032-.062-.06-.091-.107a2.67 2.67 0 0 0-.093-.124 2.777 2.777 0 0 1-.344-.819c-.01-.032-.018-.062-.026-.095l-.02-.101c-.012-.068-.03-.133-.04-.203-.016-.143-.041-.282-.048-.433a7.28 7.28 0 0 1-.012-.926c.034-.64.125-1.304.269-1.973.069-.335.155-.67.244-1.005a23.018 23.018 0 0 1 .649-1.996c.06-.164.126-.327.19-.488l.099-.238.094-.217-1.187-2.22.02.005h.01l.007.003-.001-.001-.006-.001c-.006-.002-.005 0-.018-.005-.021-.007-.04-.011-.064-.02-.05-.017-.1-.032-.154-.057-.027-.012-.054-.021-.081-.034l-.083-.041c-.028-.014-.056-.026-.084-.041l-.082-.048a3.245 3.245 0 0 1-.633-.477 4.653 4.653 0 0 1-.998-1.413c-.038-.066-.066-.14-.095-.213l-.09-.217c-.064-.141-.107-.3-.157-.453l-.074-.23-.02-.057c-.004-.02-.005-.031-.01-.047l-.018-.088c-.033-.112-.041-.252-.063-.38-.045-.553.004-1.201.134-1.866.128-.666.32-1.35.55-2.032.23-.682.502-1.364.797-2.041a35.05 35.05 0 0 1 .956-2.01 35.687 35.687 0 0 1 .796-1.471l.137-.238.133-.224.018-.03c.128-.217.205-.47.213-.741.032-1.037.053-2.055.07-3.08l.023-1.535.014-1.534c.01-1.023.009-2.045.008-3.067.003-1.023-.01-2.045-.015-3.068-.006-.511-.002-1.022-.011-1.533l-.017-1.535-.015-1.533-.028-1.535-.027-1.534-.014-.767-.023-.768-.097-3.07c-.17-4.092-.487-8.184-1.001-12.26-.03-.253-.068-.508-.105-.762l-.115-.762c-.08-.508-.16-1.016-.244-1.523l-.13-.76c-.044-.253-.085-.506-.14-.758-.105-.505-.211-1.01-.324-1.512-.114-.503-.226-1.005-.348-1.506-.062-.25-.117-.501-.184-.75l-.214-.747a50.988 50.988 0 0 0-.951-2.953.534.534 0 0 0-1.035.18v.02a51.76 51.76 0 0 0 .095 3.064l.047.758.03.76c.02.508.05 1.014.078 1.519.029.505.064 1.009.1 1.512.023.25.029.505.045.758l.043.757c.03.504.064 1.008.1 1.512l.057.754c.018.252.043.503.056.755.065 1.009.129 2.017.203 3.024.079 1.006.12 2.017.188 3.025l.097 1.513c.019.252.033.504.045.757l.042.758.178 3.029c.223 4.04.396 8.092.45 12.145.01 1.013.025 2.027.02 3.04 0 1.013.003 2.027-.008 3.04l-.013 1.52-.021 1.518c-.016.879-.036 1.76-.061 2.63l-.095.166a38.901 38.901 0 0 0-.864 1.598 37.258 37.258 0 0 0-1.041 2.19 28.57 28.57 0 0 0-.894 2.29 18.954 18.954 0 0 0-.662 2.456 16.46 16.46 0 0 0-.108.653l-.04.335-.02.168-.011.173-.023.345-.004.356-.001.178.009.184c.008.123.014.245.024.368.034.255.057.503.124.767l.045.195c.007.032.015.067.023.095l.025.08.103.325c.069.215.132.43.226.644l.13.32c.045.108.087.214.144.319a7.792 7.792 0 0 0 1.684 2.352c.315.304.676.57 1.06.809-.094.259-.19.519-.275.782a22.79 22.79 0 0 0-.63 2.333c-.172.797-.29 1.622-.335 2.48-.016.433-.021.869.019 1.322.012.224.048.456.078.684.018.115.044.233.066.349l.036.175c.014.059.03.118.047.177a5.929 5.929 0 0 0 .76 1.754c.077.11.158.22.239.329.076.108.176.215.273.32.049.053.097.108.148.157l.155.14a5.61 5.61 0 0 0 1.31.865c.445.21.887.362 1.322.482.869.235 1.708.342 2.529.4.41.028.816.039 1.218.044.402.003.8-.004 1.197-.02.79-.03 1.572-.09 2.336-.163l1.103-.108 1.092-.081a71.035 71.035 0 0 1 6.599-.136c.736.019 1.475.049 2.229.078.756.027 1.525.06 2.358.036.418-.014.853-.043 1.308-.11a7.175 7.175 0 0 0 1.394-.347c.465-.17.91-.395 1.31-.65l.153-.097.143-.1c.094-.067.196-.135.274-.202l.502-.402.125-.101.118-.11.236-.217c.156-.145.317-.288.459-.446l.437-.466c.137-.162.27-.326.406-.49.066-.082.137-.162.199-.247l.186-.256.185-.255c.062-.085.124-.171.178-.26l.338-.53c.058-.086.107-.178.159-.268l.153-.272.152-.271c.05-.091.093-.185.14-.276l.274-.555c.163-.376.338-.75.477-1.13.596-1.52.982-3.08 1.26-4.637.133-.78.243-1.56.32-2.341.076-.78.137-1.56.166-2.336a50.976 50.976 0 0 0-.03-4.644z"/></g></g></svg>