<svg xmlns="http://www.w3.org/2000/svg" width="198" height="198" viewBox="0 0 198 198"><g><g><path fill="#371a45" d="M146.02 184.345c28.361-17.168 47.41-48.972 47.41-85.375 0-54.618-42.872-98.894-95.757-98.894C44.788.076 1.916 44.352 1.916 98.97c0 36.403 19.048 68.207 47.41 85.375 14.618-.272 31.02-.424 48.347-.424s33.728.152 48.347.424z"/></g><g><path fill="#fff" d="M156.333 158.35c-2.09-5.52-5.068-10.78-8.858-15.64v-6.164c0-3.08-1.27-6.015-3.59-8.338l.077-.652c.289-2.448-.47-4.829-2.135-6.704-1.754-1.973-4.311-3.104-7.018-3.104h-.268c.227-.29.45-.585.669-.88.278-.312.507-.59.698-.85a42.664 42.664 0 0 0 6.427-12.678 11.919 11.919 0 0 0 7.149-3.798 11.93 11.93 0 0 0 3.113-8.644l-.416-8.834a11.921 11.921 0 0 0-3.912-8.313 11.968 11.968 0 0 0-7.628-3.117 46.62 46.62 0 0 0-9.152-13.834c-8.616-9.039-20.237-14.182-32.722-14.48a51.67 51.67 0 0 0-1.181-.015c-12.026 0-23.461 4.586-32.196 12.913-5.68 5.413-9.907 12.15-12.271 19.535a11.912 11.912 0 0 0-7.317 3.824 11.921 11.921 0 0 0-3.112 8.643l.416 8.834a11.984 11.984 0 0 0 11.58 11.433 46.702 46.702 0 0 0 6.073 10.261h-.223c-2.706 0-5.264 1.131-7.017 3.103-1.585 1.785-2.35 4.026-2.17 6.35a13.465 13.465 0 0 0-2.318 2.396c-1.555 2.068-2.378 4.472-2.378 6.95v7.87c-3.185 4.381-5.732 9.066-7.574 13.933-2.887 7.63-3.016 13.62-.381 17.807h-.882a95.904 95.904 0 0 0 11.509 8.188c14.619-.272 31.02-.424 48.348-.424s33.729.152 48.347.424a95.916 95.916 0 0 0 11.51-8.188h-.816c2.635-4.187 2.506-10.177-.381-17.807z"/></g><g><path fill="#fff" d="M155.609 44.156a21.705 21.705 0 0 0 5.598 14.385.655.655 0 0 1 .066.783l-3.15 5.394a3.704 3.704 0 0 0 3.197 5.567c.655 0 1.3-.174 1.866-.504l8.108-4.735a.57.57 0 0 1 .287-.08c.043 0 .086.007.127.018a21.8 21.8 0 0 0 5.453.74l.18.002a21.5 21.5 0 0 0 9.705-2.315c-5.164-13.835-13.251-26.171-23.483-36.196-4.892 4.037-8.007 10.155-7.954 16.94z"/></g><g><path fill="#fff" d="M144.918 136.547v32.006a8.733 8.733 0 0 1-1.078 4.189c-1.896 3.516-6.097 5.974-10.946 5.974h-71.66c-4.077 0-7.695-1.735-9.872-4.378-1.354-1.644-2.152-3.638-2.152-5.785v-32.006c0-1.986.686-3.844 1.867-5.415 2.132-2.848 5.895-4.748 10.157-4.748h71.66c.578 0 1.144.035 1.702.105 5.816.702 10.322 4.958 10.322 10.058z"/></g><g><path fill="#371a45" d="M61.234 179.793c-4.241 0-8.243-1.784-10.703-4.771-1.57-1.903-2.398-4.14-2.398-6.47v-32.005c0-2.153.72-4.25 2.083-6.062 2.425-3.241 6.545-5.178 11.018-5.178h71.66c.618 0 1.235.038 1.835.114 6.42.774 11.266 5.557 11.266 11.126v32.006a9.762 9.762 0 0 1-1.21 4.704c-2.14 3.969-6.808 6.536-11.891 6.536zm0-52.332c-3.798 0-7.273 1.614-9.295 4.316-1.081 1.439-1.652 3.087-1.652 4.77v32.006c0 1.823.659 3.587 1.906 5.1 2.056 2.496 5.436 3.986 9.04 3.986h71.66c4.303 0 8.227-2.123 9.999-5.407a7.638 7.638 0 0 0 .949-3.68v-32.005c0-4.48-4.03-8.344-9.374-8.99a12.824 12.824 0 0 0-1.573-.096z"/></g><g><path fill="#fff" d="M97.976 117.487c24.483 4.048 47.319 18.92 55.965 41.769 6.988 18.465-5.704 19.46-5.704 19.46H97.473h.466-50.764s-12.692-.995-5.704-19.46c8.646-22.848 31.482-37.721 55.965-41.77z"/></g><g opacity=".35"><g opacity=".35"><path fill="#371a45" d="M148.236 178.716H47.174s-8.88-.697-7.692-11.73c.017.133.036.264.056.393.854 5.4 8.207 6.458 10.663 1.57l1.11-2.21h92.715l1.19 2.328c2.48 4.85 9.757 3.77 10.645-1.605.026-.156.049-.314.069-.476 1.188 11.033-7.694 11.73-7.694 11.73z"/></g></g><g><path fill="#fff" d="M43.039 167.66s4.834-14.579 17.854-14.62c12.013-.04 16.6 5.953 13.786 14.181-1.401 4.095-16.365 7.966-23.368-.48z"/></g><g opacity=".35"><g opacity=".35"><path fill="#371a45" d="M74.68 167.223c-1.403 4.095-16.366 7.964-23.368-.482 0-1.48 1.639-2.345 2.878-1.538 7.572 4.936 19.258 1.515 20.49-2.08.269-.784.468-1.548.603-2.29.398 1.89.197 4.05-.603 6.39z"/></g></g><g><path fill="#371a45" d="M42.698 167.546c.026-1.713.61-3.25 1.37-4.685.744-1.448 1.718-2.774 2.804-3.998 1.097-1.214 2.264-2.382 3.595-3.37a18.2 18.2 0 0 1 4.349-2.416 16.684 16.684 0 0 1 4.875-1.069l1.245-.045c.403.006.806.006 1.209.02.808.031 1.617.078 2.427.175 1.617.187 3.24.511 4.814 1.094 1.57.572 3.1 1.425 4.363 2.651a9.06 9.06 0 0 1 2.554 4.57c.38 1.72.3 3.478-.058 5.114-.08.414-.197.814-.305 1.217l-.188.594-.047.148c-.016.051-.051.126-.076.188l-.175.384c-.541.932-1.264 1.52-1.985 2.018-1.461.977-3.032 1.551-4.624 1.986-3.19.817-6.54.971-9.795.29a14.554 14.554 0 0 1-1.21-.304c-.404-.104-.796-.25-1.192-.386-.395-.135-.78-.306-1.175-.453-.38-.18-.777-.332-1.145-.544-.37-.207-.741-.415-1.072-.685a6.771 6.771 0 0 1-.955-.844c-.588-.614-1.05-1.362-1.266-2.227a.396.396 0 0 1 .512-.472l.04.014c.42.143.749.343 1.092.52.348.168.64.381.962.558.156.093.305.193.452.295.152.094.312.18.46.278.155.09.295.2.452.286.156.088.308.182.459.28 1.2.793 2.605 1.268 4.034 1.576 2.87.607 5.937.471 8.798-.265 1.419-.382 2.822-.915 3.964-1.686.564-.377 1.058-.838 1.304-1.267a1.56 1.56 0 0 1 .065-.15c.012-.03.024-.04.037-.084l.042-.13.166-.525c.093-.352.198-.703.265-1.058.312-1.413.359-2.855.063-4.192a6.892 6.892 0 0 0-1.96-3.504c-.984-.957-2.238-1.675-3.602-2.17-1.362-.506-2.826-.805-4.314-.975a27.978 27.978 0 0 0-2.251-.164l-1.135-.018-1.1.04a14.52 14.52 0 0 0-4.257.934c-2.72 1.047-5.144 2.885-7.013 5.21a28.626 28.626 0 0 0-1.323 1.806 58.507 58.507 0 0 0-1.243 1.875c-.801 1.273-1.594 2.56-2.625 3.791l-.017.021a.376.376 0 0 1-.664-.247z"/></g><g><path fill="#fff" d="M152.298 167.66s-4.834-14.579-17.854-14.62c-12.013-.04-16.601 5.953-13.786 14.181 1.4 4.095 16.365 7.966 23.368-.48z"/></g><g><path fill="#fff" d="M152.298 167.66s-4.834-14.579-17.854-14.62c-12.013-.04-16.601 5.953-13.786 14.181 1.4 4.095 16.365 7.966 23.368-.48z"/></g><g opacity=".35"><g opacity=".35"><path fill="#371a45" d="M144.025 166.74c-7.002 8.446-21.966 4.578-23.368.483-.8-2.34-1.002-4.5-.603-6.39.134.742.334 1.506.603 2.29 1.231 3.595 12.918 7.016 20.49 2.08 1.24-.807 2.878.059 2.878 1.538z"/></g></g><g><path fill="#371a45" d="M151.957 167.772c-1.03-1.232-1.824-2.517-2.624-3.79a62.096 62.096 0 0 0-1.243-1.876 29.042 29.042 0 0 0-1.324-1.806c-1.869-2.325-4.294-4.163-7.013-5.21a14.52 14.52 0 0 0-4.257-.934l-1.099-.04-1.136.018a28.48 28.48 0 0 0-2.25.164c-1.488.171-2.953.47-4.315.974-1.363.496-2.618 1.214-3.603 2.171a6.89 6.89 0 0 0-1.958 3.504c-.296 1.337-.25 2.78.063 4.192.066.355.172.706.265 1.058l.166.524.041.131c.014.043.026.054.038.083.024.05.045.1.064.151.246.43.74.89 1.304 1.267 1.143.771 2.546 1.304 3.965 1.686 2.86.736 5.926.872 8.797.265 1.43-.308 2.834-.783 4.034-1.577.152-.097.303-.19.46-.279.156-.087.296-.196.452-.286.148-.098.307-.184.46-.278.147-.102.296-.2.452-.295.321-.177.613-.39.961-.559.343-.175.671-.376 1.092-.519l.041-.014a.396.396 0 0 1 .512.472c-.218.865-.679 1.613-1.266 2.227a6.779 6.779 0 0 1-.956.844c-.33.27-.702.478-1.072.685-.368.212-.765.363-1.145.544-.394.147-.779.318-1.175.453-.395.136-.788.282-1.19.386-.4.122-.806.216-1.212.303-3.256.682-6.605.528-9.795-.289-1.592-.435-3.162-1.009-4.623-1.986-.72-.499-1.445-1.086-1.986-2.018l-.174-.384c-.026-.062-.06-.137-.077-.188l-.047-.148-.188-.594c-.108-.403-.226-.803-.305-1.217-.359-1.636-.439-3.394-.057-5.114a9.067 9.067 0 0 1 2.553-4.57c1.263-1.226 2.794-2.079 4.363-2.65 1.574-.584 3.197-.908 4.815-1.095a30.467 30.467 0 0 1 2.426-.176c.404-.013.807-.013 1.21-.019l1.245.045c1.66.112 3.315.467 4.874 1.07a18.169 18.169 0 0 1 4.35 2.415c1.331.988 2.498 2.156 3.595 3.37 1.086 1.224 2.06 2.55 2.804 3.998.76 1.435 1.344 2.972 1.37 4.685a.376.376 0 1 1-.663.248z"/></g><g><path fill="#371a45" d="M148.28 179.793l-101.19-.004c-.185-.014-4.591-.403-7.12-4.387-2.394-3.774-2.228-9.335.494-16.527 8.232-21.753 29.995-38.02 56.797-42.451a1.07 1.07 0 0 1 .445.02c.142-.037.293-.045.446-.02 26.8 4.432 48.564 20.698 56.797 42.45 2.72 7.193 2.887 12.754.493 16.528-2.528 3.984-6.934 4.373-7.12 4.387zm-.093-2.154c.385-.041 3.596-.465 5.452-3.416 1.966-3.128 1.723-8.172-.705-14.586-7.961-21.037-29.087-36.781-55.133-41.087a1.453 1.453 0 0 1-.095-.02 2.596 2.596 0 0 1-.094.02c-26.046 4.306-47.172 20.05-55.133 41.087-2.428 6.414-2.672 11.458-.705 14.585 1.85 2.945 5.05 3.374 5.453 3.417z"/></g><g><path fill="#fff" d="M141.05 100.898a.9.9 0 0 1-.941-.856l-1.22-25.907a.9.9 0 0 1 .857-.941 9.445 9.445 0 0 1 9.88 8.99l.416 8.835a9.445 9.445 0 0 1-8.991 9.88z"/></g><g><path fill="#371a45" d="M139.916 100.05l-1.22-25.906a1.095 1.095 0 0 1 1.04-1.144c5.313-.25 9.833 3.866 10.083 9.175l.416 8.834a9.58 9.58 0 0 1-2.5 6.942 9.58 9.58 0 0 1-6.675 3.141l-.052.001c-.58 0-1.065-.458-1.092-1.043zm-.16-26.664a.709.709 0 0 0-.674.74l1.22 25.906c.018.39.35.69.74.673 5.096-.24 9.046-4.58 8.806-9.678l-.416-8.834c-.233-4.948-4.333-8.817-9.237-8.817-.146 0-.293.003-.44.01z"/></g><g opacity=".35"><g opacity=".35"><path fill="#371a45" d="M149.847 86.876l.196 4.143c.245 5.21-3.78 9.634-8.992 9.881a.902.902 0 0 1-.942-.859l-.327-6.887c.154.308.479.51.843.496l.615-.03a9.438 9.438 0 0 0 8.607-6.744z"/></g></g><g><path fill="#371a45" d="M139.033 100.091l-1.22-25.905a1.98 1.98 0 0 1 1.882-2.069c5.792-.273 10.734 4.22 11.007 10.016l.416 8.835c.273 5.795-4.22 10.733-10.017 11.006a1.98 1.98 0 0 1-2.068-1.883zm2.143-.278c4.525-.308 8.005-4.193 7.79-8.744l-.416-8.833c-.214-4.552-4.05-8.097-8.577-7.974z"/></g><g><path fill="#fff" d="M54.235 77.22a.9.9 0 0 1 .942.858l1.22 25.905a.9.9 0 0 1-.857.942 9.445 9.445 0 0 1-9.88-8.99l-.416-8.835a9.445 9.445 0 0 1 8.991-9.88z"/></g><g><path fill="#371a45" d="M45.467 95.944l-.416-8.834a9.579 9.579 0 0 1 2.5-6.942 9.577 9.577 0 0 1 6.675-3.14 1.093 1.093 0 0 1 1.144 1.04l1.22 25.907a1.095 1.095 0 0 1-1.04 1.144c-.154.007-.308.01-.46.01-5.109 0-9.38-4.03-9.623-9.185zm-.03-8.852l.416 8.834c.24 5.096 4.58 9.043 9.678 8.807a.709.709 0 0 0 .673-.74l-1.22-25.906a.711.711 0 0 0-.74-.673c-5.096.24-9.047 4.58-8.807 9.678z"/></g><g opacity=".35"><g opacity=".35"><path fill="#371a45" d="M56.06 96.797l.339 7.187a.903.903 0 0 1-.86.942 9.43 9.43 0 0 1-7.067-2.7 9.41 9.41 0 0 1-2.81-6.29l-.176-3.722a9.45 9.45 0 0 0 8.857 5.137l.945-.045a.911.911 0 0 0 .773-.509z"/></g></g><g><path fill="#371a45" d="M44.585 95.985l-.416-8.834c-.273-5.796 4.22-10.733 10.016-11.006a1.98 1.98 0 0 1 2.068 1.881l1.22 25.907a1.98 1.98 0 0 1-1.882 2.068 10.5 10.5 0 0 1-.501.012c-5.577 0-10.24-4.4-10.505-10.028zm9.525-17.679c-4.524.307-8.004 4.193-7.79 8.744l.416 8.834c.214 4.55 4.046 8.091 8.577 7.972z"/></g><g><path fill="#fff" d="M141.831 90.117c-.584 24.4-20.839 43.709-45.24 43.125-24.402-.583-43.71-20.838-43.126-45.24.584-24.401 20.84-43.71 45.241-43.125 24.401.584 43.71 20.839 43.125 45.24z"/></g><g><path fill="#371a45" d="M96.587 133.436c-24.47-.586-43.9-20.97-43.315-45.439.284-11.853 5.167-22.886 13.749-31.067 8.582-8.181 19.836-12.527 31.69-12.247 11.853.284 22.886 5.166 31.067 13.748 8.18 8.583 12.53 19.837 12.247 31.69-.577 24.108-20.376 43.328-44.361 43.328-.36 0-.716-.005-1.077-.013zm-29.3-76.226C58.78 65.319 53.94 76.257 53.66 88.007c-.58 24.255 18.68 44.461 42.937 45.042 24.25.581 44.46-18.681 45.042-42.937.28-11.75-4.03-22.906-12.14-31.413-8.11-8.508-19.047-13.348-30.797-13.629-.36-.009-.721-.013-1.08-.013-11.353 0-22.086 4.292-30.333 12.153z"/></g><g opacity=".35"><g opacity=".35"><path fill="#371a45" d="M141.554 83.99c.234 2.005.327 4.05.278 6.127-.587 24.4-20.84 43.708-45.242 43.126-24.4-.587-43.708-20.84-43.126-45.24a42.53 42.53 0 0 1 .1-2.096c2.463 21.58 20.522 38.58 42.848 39.115 23.7.565 43.482-17.629 45.142-41.032z"/></g></g><g><path fill="#371a45" d="M96.565 134.319c-24.956-.597-44.773-21.387-44.176-46.343.597-24.956 21.372-44.771 46.342-44.176 12.09.289 23.342 5.269 31.686 14.022 8.344 8.753 12.78 20.23 12.491 32.32-.589 24.588-20.782 44.19-45.244 44.19-.367 0-.73-.004-1.099-.013zm-28.668-76.47c-8.337 7.947-13.08 18.665-13.355 30.179-.569 23.769 18.306 43.569 42.075 44.138 23.762.57 43.568-18.306 44.137-42.075.57-23.77-18.305-43.57-42.074-44.138a46.805 46.805 0 0 0-1.059-.012c-11.125 0-21.643 4.205-29.724 11.908zm73.934 32.268h.004"/></g><g><path fill="#293856" d="M141.663 91.248c-.076 8.648-2.954 16.652-7.814 23.253-3.643 4.948-18.517 13.534-36.79 13.537-16.942.003-32.276-9.166-35.831-14.178-4.743-6.685-7.48-14.739-7.403-23.387.202-22.885 19.948-32.199 44.205-31.985 24.256.214 43.835 9.875 43.633 32.76z"/></g><g><path fill="#371a45" d="M97.053 129.115c-17.528 0-32.978-9.38-36.704-14.632-5.048-7.116-7.677-15.422-7.601-24.02.099-11.2 4.666-19.796 13.574-25.549 7.778-5.023 18.746-7.624 31.717-7.503 12.972.115 23.892 2.902 31.579 8.061 8.806 5.91 13.22 14.585 13.122 25.786-.076 8.597-2.851 16.855-8.024 23.881-3.587 4.872-18.314 13.973-37.656 13.976zM67.49 66.723c-8.262 5.335-12.497 13.33-12.59 23.76-.071 8.141 2.42 16.01 7.205 22.754 3.398 4.79 18.395 13.724 34.947 13.724h.007c18.345-.003 32.665-8.676 35.922-13.099 4.903-6.659 7.532-14.482 7.604-22.624.249-28.246-29.685-31.559-42.566-31.673a72.066 72.066 0 0 0-.804-.004c-12.197 0-22.462 2.471-29.725 7.162zm74.172 24.525h.004"/></g><g opacity=".7"><g opacity=".7"><path fill="#fff" d="M121.849 86.954c-.808 4.243 1.03 8.158 4.105 8.743 3.075.585 6.222-2.38 7.03-6.624.808-4.243-1.03-8.157-4.105-8.743-3.075-.585-6.222 2.38-7.03 6.624z"/></g></g><g opacity=".7"><g opacity=".7"><path fill="#fff" d="M117.42 102.456c-.636 1.878.154 3.843 1.766 4.389 1.61.546 3.433-.534 4.069-2.412.637-1.878-.154-3.842-1.765-4.388-1.612-.546-3.434.533-4.07 2.41z"/></g></g><g opacity=".35"><g opacity=".35"><path fill="#111a28" d="M133.31 69.823c5.323 5.17 8.432 12.232 8.352 21.424-.076 8.65-2.956 16.653-7.812 23.254-3.645 4.949-18.519 13.534-36.79 13.539-6.453.002-12.67-1.327-18.094-3.253 22.46-.484 40.58-11.023 45.097-17.16 6.168-8.378 9.821-18.538 9.916-29.511a44.75 44.75 0 0 0-.67-8.293z"/></g></g><g><path fill="#371a45" d="M138.059 72.222c-.24 0-.48-.08-.68-.245l-.114-.093-.09-.125c-7.363-10.518-21.709-16.64-39.362-16.795-17.736-.165-32.19 5.905-39.616 16.63l-.055.072a1.078 1.078 0 0 1-1.518.15 1.073 1.073 0 0 1-.18-1.473c7.844-11.306 22.94-17.7 41.389-17.533 18.345.162 33.32 6.61 41.09 17.692a1.077 1.077 0 0 1-.864 1.72z"/></g><g opacity=".7"><g opacity=".7"><path fill="#fff" d="M63.568 104.174s-6.889-22.639 5.358-31.528c12.246-8.89 29.751-8.698 29.332-7.58 0 0-19.421 4.522-27.139 19.776-5.951 11.761-7.551 19.332-7.551 19.332z"/></g></g><g><path fill="#371a45" d="M11.088 187.082c3.608-.571 7.215-.708 10.823-.778 1.803-.04 3.607-.046 5.411-.036 1.804-.003 3.607.023 5.411.042 3.609.033 7.217.042 10.824.036H162.61l5.412-.002 2.705-.026 2.706-.047c3.608-.012 7.216.02 10.823.81a.376.376 0 0 1 0 .736c-3.607.79-7.215.823-10.823.81l-2.706-.045-2.705-.027-5.412-.002H43.556c-3.607-.005-7.215.003-10.823.037-1.804.018-3.607.045-5.41.042-1.805.01-3.609.002-5.413-.036-3.608-.071-7.215-.207-10.823-.78a.372.372 0 0 1 0-.734z"/></g><g><path fill="#f92323" d="M167.41 187.016H27.936a4.084 4.084 0 0 1-4.084-4.084v-.133a4.084 4.084 0 0 1 4.084-4.083H167.41a4.084 4.084 0 0 1 4.084 4.083v.133a4.084 4.084 0 0 1-4.084 4.084z"/></g><g><path fill="#371a45" d="M27.935 187.171a4.244 4.244 0 0 1-4.24-4.239v-.133a4.244 4.244 0 0 1 4.24-4.239H167.41a4.244 4.244 0 0 1 4.239 4.24v.132a4.244 4.244 0 0 1-4.24 4.24zm0-8.3a3.933 3.933 0 0 0-3.93 3.928v.133a3.933 3.933 0 0 0 3.93 3.928H167.41a3.932 3.932 0 0 0 3.928-3.928v-.133a3.932 3.932 0 0 0-3.928-3.928z"/></g><g><path fill="#371a45" d="M27.935 188.092a5.166 5.166 0 0 1-5.161-5.16v-.133a5.167 5.167 0 0 1 5.16-5.16h139.477a5.166 5.166 0 0 1 5.16 5.16v.133a5.166 5.166 0 0 1-5.16 5.16zm0-8.3a3.01 3.01 0 0 0-3.007 3.007v.133a3.01 3.01 0 0 0 3.007 3.007H167.41a3.01 3.01 0 0 0 3.007-3.007v-.133a3.01 3.01 0 0 0-3.007-3.007z"/></g><g opacity=".5"><g opacity=".5"><path fill="#fff" d="M167.476 179.945H27.87c-1.56 0-2.828 1.31-2.828 2.921a2.93 2.93 0 0 0 1.66 2.657 2.967 2.967 0 0 1-.47-1.609c0-1.61 1.269-2.921 2.828-2.921h11.959c.619.71 2.625 1.23 5.008 1.23 2.384 0 4.389-.52 5.008-1.23h117.632c.416 0 .81.096 1.167.264-.507-.79-1.374-1.312-2.358-1.312z"/></g></g><g><path fill="#c5d3e2" d="M137.134 178.383H58.162a6.489 6.489 0 0 1-6.49-6.489v-.33h91.95v.33a6.489 6.489 0 0 1-6.488 6.49z"/></g><g opacity=".35"><g opacity=".35"><path fill="#371a45" d="M143.624 171.563v.33a6.493 6.493 0 0 1-6.491 6.492h-78.97a6.491 6.491 0 0 1-6.491-6.491v-.331h.288a6.494 6.494 0 0 0 6.203 4.577h78.97a6.496 6.496 0 0 0 6.203-4.577z"/></g></g><g><path fill="#371a45" d="M58.162 179.46c-4.172 0-7.566-3.394-7.566-7.566v-1.408H144.7v1.408c0 4.172-3.394 7.566-7.566 7.566zm-5.361-6.82a5.42 5.42 0 0 0 5.36 4.667h78.973a5.42 5.42 0 0 0 5.36-4.667z"/></g><g opacity=".6"><g opacity=".6"><path fill="#fff" d="M55.817 173.715h86.268a5.37 5.37 0 0 0 .256-.922H52.955c.37 2.016 1.838 3.636 3.734 4.172a5.39 5.39 0 0 1-1.603-2.104c-.23-.54.16-1.146.73-1.146z"/></g></g><g><path fill="#3aaaff" d="M129.432 178.313H65.913c-3.39 0-6.238-2.398-6.613-5.567l-5.377-45.49c-.438-3.707 2.647-6.95 6.613-6.95h74.273c3.966 0 7.051 3.243 6.613 6.95l-5.377 45.49c-.375 3.169-3.223 5.567-6.613 5.567z"/></g><g opacity=".6"><g opacity=".6"><path fill="#fff" d="M102.111 154.253a.615.615 0 0 0 .038-.016.43.43 0 0 1 .534.624 5.843 5.843 0 0 1-2.826 2.376c-2.767 1.106-5.979-.077-7.361-2.717a5.865 5.865 0 0 1 6.419-8.467c.383.083.438.606.079.762l-.012.005a4.033 4.033 0 0 0-1.94 5.596c.96 1.805 3.175 2.606 5.069 1.837z"/></g></g><g><path fill="#371a45" d="M130.473 132.116c.057 1.546-.175 3.045-.789 4.47a7.625 7.625 0 0 1-1.948 2.73c-.378.335-.771.653-1.149.987-.043.035-.075.135-.057.188.43 1.35.133 2.59-.563 3.768-.557.936-1.318 1.69-2.181 2.345-.375.282-.76.553-1.146.812-.428.288-.867.107-.971-.4-.222-1.066-.434-2.14-.649-3.21-.014-.067-.032-.137-.051-.225-.087.035-.159.062-.232.098-.4.178-.594.147-.916-.16-.281-.268-.561-.541-.857-.83-.232.24-.448.476-.677.697a.558.558 0 0 1-.642.118c-.223-.09-.378-.308-.343-.55a.892.892 0 0 1 .189-.423c.186-.23.406-.43.625-.66-.217-.207-.427-.41-.633-.61-.038-.036-.075-.078-.116-.111-.381-.298-.512-.657-.261-1.104.008-.016.012-.034.016-.05.002-.011-.002-.023-.004-.046-.783-.13-1.566-.257-2.35-.387l-.983-.163c-.52-.092-.716-.516-.443-.963.639-1.055 1.345-2.058 2.287-2.87.869-.747 1.842-1.275 3.003-1.397a3.434 3.434 0 0 1 1.289.093c.179.05.263-.01.365-.142.38-.484.749-.98 1.167-1.434 1.154-1.255 2.603-2 4.245-2.393a11.27 11.27 0 0 1 3.822-.231c.182.017.358.072.537.108.061.056.118.115.179.172.204.577.215 1.179.237 1.773zm-12.892 6.719c.616-1.17 1.22-2.318 1.822-3.468-.424-.102-1.102-.014-1.663.235-1.299.577-2.172 1.61-2.97 2.764l2.811.469zm7.935 3.345c.055-.357.059-.716-.038-1.04-1.129.648-2.254 1.29-3.403 1.95.192.944.388 1.907.586 2.892.744-.548 1.421-1.126 1.968-1.848.439-.587.773-1.22.887-1.954zm3.507-7.323c.026-.1.008-.165-.065-.233-.245-.226-.482-.461-.721-.691-.799-.773-1.595-1.544-2.4-2.313-.051-.05-.147-.096-.206-.078a7.51 7.51 0 0 0-1.851.767c-.913.522-1.619 1.273-2.25 2.099a17.31 17.31 0 0 0-1.764 2.793c-.502.995-.971 2.005-1.446 3.01-.029.058-.041.166-.008.203.195.206.405.399.624.61.473-.49.924-.96 1.379-1.43.61-.633 1.221-1.265 1.833-1.896.219-.224.502-.27.743-.126.345.204.396.639.102.942-1.016 1.057-2.038 2.11-3.054 3.166l-.144.149c.02.033.026.05.038.06.178.175.365.344.535.522.079.08.14.077.234.034 1.922-.908 3.784-1.921 5.465-3.235.62-.485 1.199-1.012 1.685-1.634.63-.81 1.018-1.732 1.271-2.72zm.216-1.277c.075-.804.082-1.58-.027-2.407-.781.024-1.554.045-2.325.069 0 .02-.002.045 0 .064.779.754 1.556 1.503 2.352 2.274z"/></g><g><path fill="#fff" d="M128.959 134.623c.072.07.09.133.064.233-.253.987-.641 1.91-1.271 2.72-.486.621-1.065 1.15-1.685 1.633-1.681 1.315-3.543 2.327-5.465 3.235-.094.043-.155.047-.234-.033-.17-.179-.357-.347-.535-.522-.012-.01-.018-.028-.037-.06.045-.05.094-.099.143-.15 1.016-1.055 2.038-2.109 3.054-3.166.294-.302.243-.738-.102-.942-.241-.143-.524-.098-.743.126a1420.173 1420.173 0 0 0-3.212 3.327c-.219-.212-.429-.404-.623-.61-.034-.037-.022-.145.007-.202.475-1.007.944-2.017 1.446-3.01a17.276 17.276 0 0 1 1.764-2.795c.631-.826 1.338-1.577 2.25-2.099a7.578 7.578 0 0 1 1.852-.767c.058-.018.154.03.205.08.805.768 1.601 1.54 2.4 2.311.239.23.476.465.722.691zm-1.817 1.634c.757-.775.728-2.06-.061-2.82-.796-.766-2.065-.748-2.821.038a2.007 2.007 0 0 0 .045 2.835 2.011 2.011 0 0 0 2.837-.053z"/></g><g><path fill="#db2c2c" d="M129.239 133.58c-.797-.77-1.574-1.52-2.352-2.274v-.065c.77-.022 1.544-.044 2.325-.068.11.827.1 1.602.027 2.406z"/></g><g><path fill="#db2c2c" d="M119.404 135.367l-1.822 3.469c-.908-.153-1.848-.309-2.812-.469.799-1.155 1.67-2.189 2.97-2.765.56-.25 1.239-.338 1.664-.235z"/></g><g><path fill="#db2c2c" d="M124.628 144.134c-.547.722-1.223 1.3-1.967 1.848l-.586-2.892c1.15-.66 2.273-1.301 3.404-1.951.096.325.091.683.037 1.042-.113.733-.447 1.366-.888 1.953z"/></g><g><path fill="#371a45" d="M127.08 133.437c.79.76.819 2.046.062 2.82-.78.795-2.046.82-2.836.053a2.005 2.005 0 0 1-.045-2.834c.755-.787 2.024-.804 2.82-.04zm-.64 2.179a1.06 1.06 0 0 0-.008-1.503 1.063 1.063 0 0 0-1.477.008 1.062 1.062 0 0 0 .01 1.517 1.06 1.06 0 0 0 1.475-.022z"/></g><g><path fill="#22a7f0" d="M126.44 135.616a1.06 1.06 0 0 1-1.477.02 1.062 1.062 0 0 1-.009-1.514 1.063 1.063 0 0 1 1.477-.01c.42.413.423 1.08.008 1.504z"/></g><g opacity=".35"><g opacity=".35"><path fill="#371a45" d="M132.975 172.873l5.377-45.49c.147-1.242-.237-2.47-1.081-3.454-.956-1.115-2.372-1.768-3.906-1.821l.003-.01c-2.198 7.553-14.458 49.677-72.55 51.278.515 2.175 2.614 3.76 5.095 3.76h61.876c2.669 0 4.899-1.833 5.186-4.263z"/></g></g><g opacity=".6"><g opacity=".6"><path fill="#fff" d="M62.349 173.638l-5.377-45.49c-.156-1.316.25-2.614 1.14-3.654 1.046-1.219 2.609-1.918 4.29-1.918h74.274c.578 0 1.14.09 1.674.246a5.112 5.112 0 0 0-.362-.48c-1.044-1.219-2.607-1.918-4.29-1.918H59.427c-1.681 0-3.245.7-4.29 1.918-.891 1.04-1.296 2.338-1.141 3.654l5.377 45.49c.239 2.022 1.75 3.647 3.754 4.241a4.768 4.768 0 0 1-.777-2.089z"/></g></g><g><path fill="#371a45" d="M65.913 179.389c-3.94 0-7.243-2.802-7.682-6.517l-5.377-45.49c-.239-2.022.39-3.992 1.771-5.546 1.473-1.657 3.627-2.608 5.911-2.608h74.273c2.284 0 4.438.951 5.911 2.608 1.381 1.554 2.01 3.524 1.771 5.546l-5.377 45.49c-.439 3.715-3.74 6.517-7.682 6.517zm-5.377-58.007c-1.669 0-3.237.687-4.3 1.884-.968 1.088-1.409 2.46-1.243 3.863l5.377 45.49c.311 2.632 2.694 4.617 5.543 4.617h63.52c2.848 0 5.231-1.985 5.542-4.617l5.377-45.49c.166-1.403-.275-2.775-1.242-3.863-1.064-1.197-2.632-1.884-4.3-1.884z"/></g><g opacity=".35"><g opacity=".35"><path fill="#371a45" d="M30.097 187.016h137.38c2.218 0 4.017-1.858 4.017-4.15 0-2.292-1.799-4.15-4.018-4.15h-55.315c-2.186 1.232-18.574 8.869-86.226 6.889z"/></g></g><g opacity=".15"><g opacity=".15"><path fill="#fff" d="M72.881 149.636H68.74a2.692 2.692 0 0 1-2.692-2.692v-13.677a2.691 2.691 0 0 1 2.692-2.69h4.142a2.691 2.691 0 0 1 2.692 2.69v13.677a2.692 2.692 0 0 1-2.692 2.692z"/></g></g><g><path fill="#371a45" d="M102.851 153.513a.615.615 0 0 0 .038-.016.43.43 0 0 1 .534.624 5.843 5.843 0 0 1-2.826 2.376c-2.767 1.106-5.979-.078-7.36-2.717a5.865 5.865 0 0 1 6.418-8.467c.383.083.438.606.08.762l-.013.005a4.033 4.033 0 0 0-1.94 5.596c.96 1.805 3.175 2.606 5.07 1.837z"/></g><g><path fill="#00a9a5" d="M161.32 67.694a1.11 1.11 0 0 1-.959-1.67l3.148-5.395a3.243 3.243 0 0 0-.38-3.825 19.116 19.116 0 0 1-4.93-12.669c-.08-10.44 8.34-19.098 18.773-19.299a19.01 19.01 0 0 1 14.026 5.714 19.018 19.018 0 0 1 5.5 13.743c-.165 10.388-8.756 18.841-19.15 18.841h-.166a19.175 19.175 0 0 1-4.803-.653 3.076 3.076 0 0 0-.799-.106c-.557 0-1.108.15-1.593.434l-8.108 4.734a1.119 1.119 0 0 1-.56.151z"/></g><g><path fill="#371a45" d="M195.388 44.276c-.155 9.805-8.252 17.747-18.04 17.747h-.155a18.05 18.05 0 0 1-4.525-.615 4.2 4.2 0 0 0-1.088-.143c-.75 0-1.493.2-2.152.585l-8.11 4.734 3.15-5.395a4.368 4.368 0 0 0-.514-5.129 17.964 17.964 0 0 1-4.644-11.934c-.076-9.828 7.857-17.99 17.684-18.18.119-.002.237-.003.356-.003 10.06 0 18.198 8.236 18.038 18.333zm-18.436-20.55c-11.038.213-19.948 9.372-19.862 20.418a20.218 20.218 0 0 0 5.216 13.404c.624.691.722 1.704.245 2.521l-3.15 5.395a2.222 2.222 0 0 0 3.038 3.037l8.108-4.733a2.047 2.047 0 0 1 1.033-.282c.174 0 .346.022.512.067a20.26 20.26 0 0 0 5.082.69l.174.001c10.997 0 20.086-8.942 20.26-19.933.087-5.476-1.98-10.64-5.818-14.54a20.112 20.112 0 0 0-14.838-6.045z"/></g><g opacity=".2"><g opacity=".2"><path fill="#371a45" d="M195.367 43.144a16.64 16.64 0 0 0-.062-.893 16.536 16.536 0 0 0-.068-.593c-.011-.085-.02-.171-.032-.256a18.325 18.325 0 0 0-.13-.78c-.02-.111-.045-.222-.07-.334-.031-.152-.063-.305-.1-.456-.03-.134-.064-.266-.098-.4-.032-.122-.067-.245-.101-.367-.041-.144-.081-.288-.125-.43-.027-.086-.056-.17-.084-.255a18.436 18.436 0 0 0-.352-.981l-.053-.137a17.985 17.985 0 0 0-.225-.531l-.071-.16a18.047 18.047 0 0 0-.257-.545l-.021-.042a18.038 18.038 0 0 0-1.39-2.341 17.998 17.998 0 0 1 1.319 7.076c-.133 8.422-6.127 15.465-14.018 17.286-8.365 1.853-13.235.288-16.197-2.634-.015-.017-1.203-2.851-1.218-2.868a18.077 18.077 0 0 1-1.381-1.737c.068.167.139.33.21.494l-.003-.004a18.068 18.068 0 0 0 3.114 4.804 4.37 4.37 0 0 1 .515 5.129l-3.15 5.395 8.108-4.734a4.25 4.25 0 0 1 3.24-.441 18.035 18.035 0 0 0 5.37.6c.262-.01.52-.028.779-.05l.116-.007c.237-.021.472-.05.706-.08.059-.007.118-.012.177-.02.22-.031.438-.068.656-.107.07-.013.143-.023.215-.037.207-.04.412-.085.617-.131.079-.018.16-.034.239-.053.197-.048.392-.101.586-.155l.256-.07c.188-.056.373-.116.559-.177.089-.03.178-.057.267-.088.179-.062.357-.13.534-.197l.275-.106c.172-.07.34-.142.51-.217.094-.041.188-.081.28-.124.165-.075.326-.154.488-.234l.285-.142a26.304 26.304 0 0 0 .751-.412c.15-.087.297-.177.444-.267l.286-.18c.142-.091.283-.186.423-.281.095-.066.19-.131.285-.2a18.745 18.745 0 0 0 2.899-2.568c.087-.096.172-.192.257-.29a16.644 16.644 0 0 0 1.064-1.34c.087-.12.174-.241.259-.364.077-.113.15-.228.226-.342.08-.123.16-.246.238-.371.073-.12.143-.24.214-.36.073-.125.147-.25.217-.377.069-.125.135-.251.2-.377.067-.127.134-.253.197-.381.065-.13.125-.263.186-.395.06-.128.12-.255.176-.385.059-.135.114-.273.17-.41.052-.13.106-.258.156-.39.053-.14.102-.283.152-.425.046-.13.093-.26.136-.391.047-.147.09-.296.134-.444.038-.13.079-.26.114-.391.042-.153.078-.31.116-.464.03-.13.065-.257.093-.387.036-.162.065-.326.096-.49.024-.125.05-.25.072-.376.029-.173.05-.348.075-.522.016-.12.036-.238.05-.36.023-.195.038-.392.055-.59.008-.1.02-.201.027-.302.02-.3.033-.602.038-.906.004-.29 0-.576-.01-.862-.002-.09-.007-.18-.011-.27z"/></g></g><g opacity=".5"><g opacity=".5"><path fill="#fff" d="M160.28 45.42c-.076-9.828 7.857-17.99 17.684-18.18a18 18 0 0 1 14.275 6.561c-3.312-4.835-8.915-7.976-15.245-7.854-9.827.19-17.76 8.351-17.684 18.18a17.95 17.95 0 0 0 4.1 11.3 17.936 17.936 0 0 1-3.13-10.007z"/></g></g><g opacity=".3"><g opacity=".3"><path fill="#371a45" d="M193.91 190.311c0 3.751-43.337 6.794-96.793 6.794-53.455 0-96.792-3.042-96.792-6.793 0-1.054 3.427-2.056 9.546-2.945h174.493c6.118.89 9.545 1.892 9.545 2.945z"/></g></g><g><path fill="#fff2bd" d="M40.82 116.462l-2.603.402a1.21 1.21 0 0 0-1.011 1.012l-.404 2.604-.401-2.604a1.21 1.21 0 0 0-1.012-1.012l-2.604-.402 2.605-.402a1.21 1.21 0 0 0 1.01-1.012l.403-2.603.403 2.603c.08.522.488.931 1.01 1.012z"/></g><g><path fill="#fff2bd" d="M30.485 133.63l-2.443.376c-.49.076-.874.46-.949.95l-.377 2.443-.378-2.444a1.135 1.135 0 0 0-.949-.949l-2.443-.377 2.443-.377c.49-.076.874-.46.95-.949l.377-2.443.377 2.443c.075.49.46.873.95.95z"/></g><g><path fill="#fff2bd" d="M22.229 103.838l-1.822.28a.849.849 0 0 0-.708.709l-.281 1.822-.281-1.822a.849.849 0 0 0-.708-.708l-1.822-.281 1.822-.281a.849.849 0 0 0 .708-.708l.28-1.822.282 1.822a.849.849 0 0 0 .708.708z"/></g><g><path fill="#fff2bd" d="M176.112 109.702l2.675.413c.536.083.957.503 1.04 1.039l.412 2.675.413-2.675a1.245 1.245 0 0 1 1.04-1.039l2.675-.413-2.675-.413a1.245 1.245 0 0 1-1.04-1.039l-.413-2.675-.413 2.675a1.242 1.242 0 0 1-1.039 1.039z"/></g><g><path fill="#fff2bd" d="M160.02 126.914l2.51.387c.502.078.896.473.974.976l.388 2.51.387-2.51c.078-.503.472-.898.975-.976l2.51-.387-2.51-.388a1.166 1.166 0 0 1-.975-.975l-.387-2.51-.388 2.51a1.166 1.166 0 0 1-.975.975z"/></g><g><path fill="#fff2bd" d="M165.759 95.13l1.872.288a.87.87 0 0 1 .727.727l.289 1.873.289-1.873a.87.87 0 0 1 .727-.726l1.872-.29-1.872-.289a.87.87 0 0 1-.727-.727l-.29-1.872-.288 1.872a.87.87 0 0 1-.727.727z"/></g><g><path fill="#fff2bd" d="M50.756 44.087l-2.04.315a.949.949 0 0 0-.792.792l-.315 2.04-.315-2.04a.949.949 0 0 0-.793-.792l-2.04-.315 2.04-.315a.949.949 0 0 0 .793-.792l.315-2.04.315 2.04a.949.949 0 0 0 .792.792z"/></g><g><path fill="#fff2bd" d="M36.224 60.502l-2.117.327a.985.985 0 0 0-.823.822l-.327 2.118-.327-2.118a.982.982 0 0 0-.822-.822l-2.117-.327 2.117-.327a.982.982 0 0 0 .822-.822l.327-2.117.327 2.117a.985.985 0 0 0 .823.822z"/></g><g><path fill="#fff2bd" d="M131.85 31.503l2.04.315a.947.947 0 0 1 .791.793l.315 2.039.315-2.04a.949.949 0 0 1 .793-.792l2.04-.315-2.04-.315a.949.949 0 0 1-.793-.792l-.315-2.04-.315 2.04a.947.947 0 0 1-.792.791z"/></g><g><path fill="#def3ff" d="M173.052 52.324c-1.022 0-2.044-.012-3.066.007-.333.006-.456-.069-.452-.432.017-2.059.015-4.119 0-6.178-.001-.324.087-.422.414-.415.913.022 1.827.016 2.74.002.265-.004.346.08.342.342-.013.898.02 1.797-.016 2.694-.017.43.13.515.525.502.88-.028 1.765.002 2.647-.015.283-.005.374.075.368.365a71.508 71.508 0 0 0 0 2.74c.005.3-.082.4-.39.394-1.037-.017-2.075-.006-3.112-.006z"/></g><g><path fill="#def3ff" d="M187.081 48.811c0 1.038-.008 2.076.005 3.114.004.29-.07.407-.385.405a570.484 570.484 0 0 0-6.274 0c-.29.001-.366-.094-.362-.373.015-.929.015-1.859 0-2.788-.004-.27.09-.34.346-.337.898.014 1.798-.012 2.695.014.374.011.513-.075.498-.478-.03-.897.001-1.797-.016-2.695-.005-.285.078-.37.365-.366.914.018 1.83.018 2.742 0 .303-.005.398.084.393.39-.018 1.038-.007 2.076-.007 3.114z"/></g><g><path fill="#def3ff" d="M173.057 38.267c-1.038 0-2.076-.008-3.114.005-.283.004-.416-.05-.408-.376.02-.914.016-1.829.002-2.743-.005-.276.07-.377.362-.375 2.092.011 4.184.01 6.275.001.267 0 .386.052.38.354a70.084 70.084 0 0 0 0 2.79c.007.307-.12.352-.383.35-1.038-.013-2.076-.006-3.114-.006z"/></g><g><path fill="#def3ff" d="M183.574 34.784c1.038 0 2.077.01 3.115-.006.299-.004.405.082.399.391a69.674 69.674 0 0 0 0 2.743c.005.298-.107.361-.38.36-2.092-.009-4.184-.01-6.277.001-.284.001-.371-.08-.366-.366.017-.93.015-1.86.001-2.79-.004-.268.088-.34.346-.338 1.054.012 2.108.005 3.162.005z"/></g><g><path fill="#371a45" d="M172.29 51.781c-1.021 0-2.043-.012-3.065.007-.333.006-.456-.069-.452-.432.017-2.059.015-4.119 0-6.178-.001-.324.087-.422.414-.415.913.022 1.827.016 2.74.002.265-.004.346.079.342.342-.013.898.02 1.797-.016 2.694-.017.43.13.515.525.502.88-.028 1.765.002 2.647-.015.283-.005.374.075.368.365a71.508 71.508 0 0 0 0 2.74c.005.3-.082.4-.39.394-1.037-.017-2.075-.006-3.112-.006z"/></g><g><path fill="#371a45" d="M186.32 48.268c0 1.038-.007 2.076.006 3.114.004.29-.07.407-.385.405a570.484 570.484 0 0 0-6.274 0c-.29 0-.366-.094-.362-.373.015-.93.015-1.86 0-2.788-.004-.27.089-.34.346-.337.898.014 1.798-.012 2.695.014.374.01.513-.075.498-.478-.031-.897 0-1.797-.016-2.695-.005-.285.078-.371.365-.366.914.018 1.829.018 2.742 0 .303-.005.398.084.393.39-.018 1.038-.007 2.076-.007 3.114z"/></g><g><path fill="#371a45" d="M172.296 37.724c-1.038 0-2.076-.008-3.114.005-.283.004-.416-.05-.408-.376.02-.914.016-1.829.002-2.743-.005-.276.07-.376.362-.375 2.092.011 4.183.01 6.275.001.267 0 .386.052.38.354a70.084 70.084 0 0 0 0 2.79c.007.307-.12.352-.383.35-1.038-.013-2.076-.006-3.114-.006z"/></g><g><path fill="#371a45" d="M182.813 34.241c1.038 0 2.077.009 3.115-.006.3-.004.405.082.4.391a69.674 69.674 0 0 0 0 2.743c.004.298-.108.361-.38.36-2.093-.009-4.185-.01-6.278.001-.284.001-.37-.08-.366-.366.017-.93.015-1.86.001-2.79-.004-.268.088-.341.346-.338 1.054.012 2.108.005 3.162.005z"/></g></g></svg>