<svg width="209" height="50" viewBox="0 0 209 50" fill="none" xmlns="http://www.w3.org/2000/svg">
<path d="M23.1999 0.900391C25.0999 1.60039 27.0999 2.10039 28.9999 2.70039C31.9999 3.60039 34.8999 4.50039 37.8999 5.30039C37.9999 5.30039 38.1999 5.40039 38.2999 5.40039C38.8999 5.60039 39.1999 6.00039 38.9999 6.60039C38.7999 7.20039 38.2999 7.40039 37.6999 7.20039C35.2999 6.50039 32.9999 5.80039 30.5999 5.10039C28.1999 4.40039 25.6999 3.70039 23.2999 2.90039C22.8999 2.80039 22.4999 2.80039 21.9999 2.90039C17.4999 4.30039 12.9999 5.60039 8.49994 6.90039C7.39994 7.20039 6.79994 7.10039 6.69994 6.40039C6.49994 6.00039 6.89994 5.60039 7.99994 5.20039C12.4999 3.90039 17.0999 2.50039 21.5999 1.20039C21.7999 1.10039 22.0999 1.20039 22.2999 0.900391C22.4999 0.900391 22.7999 0.900391 23.1999 0.900391Z" fill="black"/>
<path d="M88.4004 25.1006C88.4004 22.3006 88.4004 19.6006 88.4004 16.8006C88.4004 16.3006 88.5004 16.1006 89.1004 16.1006C94.3004 16.1006 99.4004 16.1006 104.6 16.1006C105.2 16.1006 105.3 16.3006 105.3 16.8006C105.3 18.2006 105.3 18.2006 103.9 18.2006C99.7004 18.2006 95.5004 18.2006 91.2004 18.2006C90.6004 18.2006 90.5004 18.3006 90.5004 18.9006C90.5004 20.4006 90.5004 21.9006 90.5004 23.5006C90.5004 24.0006 90.6004 24.2006 91.2004 24.2006C94.6004 24.2006 98.1004 24.2006 101.5 24.2006C102.2 24.2006 102.4 24.3006 102.4 25.1006C102.3 26.3006 102.4 26.3006 101.1 26.3006C97.8004 26.3006 94.5004 26.3006 91.2004 26.3006C90.7004 26.3006 90.5004 26.4006 90.5004 27.0006C90.5004 28.5006 90.5004 30.1006 90.5004 31.6006C90.5004 32.2006 90.7004 32.3006 91.2004 32.3006C95.6004 32.3006 100.1 32.3006 104.5 32.3006C105.1 32.3006 105.3 32.4006 105.3 33.0006C105.3 34.3006 105.3 34.3006 103.9 34.3006C99.0004 34.3006 94.1004 34.3006 89.2004 34.3006C88.6004 34.3006 88.4004 34.2006 88.4004 33.6006C88.4004 30.6006 88.4004 27.9006 88.4004 25.1006Z" fill="black"/>
<path d="M68.4996 16.1006C70.8996 16.1006 73.3996 16.1006 75.7996 16.1006C76.3996 16.1006 76.5996 16.2006 76.4996 16.8006C76.4996 18.1006 76.4996 18.1006 75.1996 18.1006C70.6996 18.1006 66.1996 18.1006 61.6996 18.1006C60.3996 18.1006 60.0996 18.4006 60.0996 19.6006C60.0996 23.2006 60.0996 26.8006 60.0996 30.3006C60.0996 31.7006 60.2996 32.0006 61.7996 32.0006C66.3996 32.0006 70.9996 32.0006 75.6996 32.0006C76.2996 32.0006 76.5996 32.1006 76.4996 32.8006C76.3996 34.1006 76.4996 34.1006 75.1996 34.1006C70.5996 34.1006 66.0996 34.1006 61.4996 34.1006C59.2996 34.1006 58.0996 32.9006 58.0996 30.8006C58.0996 27.0006 58.0996 23.2006 58.0996 19.4006C58.0996 17.4006 59.3996 16.2006 61.4996 16.1006C63.7996 16.1006 66.0996 16.1006 68.4996 16.1006Z" fill="black"/>
<path d="M208.7 34.1008C207.8 34.1008 207 34.1008 206.3 34.1008C205.9 34.1008 205.8 33.9008 205.6 33.7008C203.6 31.4008 201.6 29.0008 199.6 26.7008C199.3 26.3008 199 26.2008 198.5 26.2008C196.9 26.2008 195.4 26.2008 193.8 26.2008C193.3 26.2008 193.2 26.3008 193.2 26.8008C193.2 29.0008 193.2 31.3008 193.2 33.5008C193.2 34.0008 193.1 34.2008 192.5 34.2008C191 34.2008 191 34.2008 191 32.8008C191 27.5008 191 22.2008 191 17.0008C191 16.4008 191.2 16.3008 191.8 16.3008C193.1 16.3008 193.1 16.3008 193.1 17.6008C193.1 19.6008 193.1 21.6008 193.1 23.5008C193.1 24.1008 193.3 24.2008 193.9 24.2008C195.4 24.2008 196.9 24.2008 198.4 24.2008C198.9 24.2008 199.2 24.1008 199.5 23.7008C201.5 21.4008 203.5 19.1008 205.4 16.8008C205.8 16.3008 206.2 16.1008 206.8 16.2008C207.3 16.2008 207.9 16.2008 208.4 16.2008C208.5 16.5008 208.3 16.6008 208.1 16.7008C205.8 19.4008 203.5 22.0008 201.2 24.7008C200.9 25.1008 200.9 25.3008 201.2 25.6008C203.7 28.4008 206.1 31.2008 208.7 34.1008Z" fill="black"/>
<path d="M155.9 16.1006C158.7 16.1006 161.5 16.1006 164.3 16.1006C164.8 16.1006 165 16.2006 165 16.7006C165 18.1006 165 18.1006 163.6 18.1006C161.6 18.1006 159.5 18.1006 157.5 18.1006C156.9 18.1006 156.8 18.3006 156.8 18.8006C156.8 23.6006 156.8 28.4006 156.8 33.3006C156.8 33.9006 156.7 34.2006 156 34.1006C154.8 34.0006 154.8 34.1006 154.8 32.9006C154.8 28.3006 154.8 23.6006 154.8 19.0006C154.8 18.3006 154.6 18.2006 153.9 18.2006C151.7 18.2006 149.5 18.2006 147.3 18.2006C146.8 18.2006 146.6 18.1006 146.6 17.6006C146.6 16.2006 146.6 16.2006 148 16.2006C150.6 16.1006 153.3 16.1006 155.9 16.1006Z" fill="black"/>
<path d="M178.3 25.2003C178.3 28.0003 178.3 30.7003 178.3 33.5003C178.3 34.0003 178.2 34.1003 177.7 34.1003C176.3 34.1003 176.3 34.1003 176.3 32.7003C176.3 27.4003 176.3 22.2003 176.3 16.9003C176.3 16.3003 176.4 16.1003 177.1 16.2003C178.4 16.2003 178.4 16.2003 178.4 17.5003C178.3 20.0003 178.3 22.6003 178.3 25.2003Z" fill="black"/>
<path d="M45 8.50037C44.9 7.90037 44.8 7.30037 44.1 7.20037C43.4 7.10037 43.1 7.60037 42.8 8.20037C40.2 13.5004 37.6 18.8004 34.9 24.1004C34.8 24.4004 34.6 24.6004 34.2 24.6004C26.8 24.6004 19.3 24.6004 11.9 24.6004C11.5 24.6004 11.2 24.5004 11 24.1004C8.20003 18.8004 5.40003 13.5004 2.60003 8.10037C2.30003 7.60037 2.00003 7.10037 1.40003 7.20037C0.700029 7.30037 0.600029 7.90037 0.500029 8.50037C0.400029 9.30037 -0.399971 15.2004 0.300029 19.1004C1.50003 26.1004 3.70003 32.6004 8.30003 38.3004C12.1 43.0004 16.8 46.5004 22.2 49.2004C22.6 49.4004 22.9 49.4004 23.3 49.2004C23.6 49.0004 23.9 48.9004 24.2 48.7004C31.2 45.0004 36.9 40.0004 40.6 33.1004C44.9 25.4004 46.3 17.2004 45 8.50037ZM2.00003 11.7004C2.10003 11.7004 2.10003 11.6004 2.20003 11.6004C8.20003 23.0004 14.2 34.4004 20.2 45.8004C7.10003 37.9004 1.50003 26.3004 2.00003 11.7004ZM22.7 46.3004C19.2 39.7004 15.8 33.2004 12.3 26.6004C19.4 26.6004 26.4 26.6004 33.5 26.6004C30 33.1004 26.4 39.7004 22.7 46.3004ZM25.3 45.8004C31.5 34.5004 37.9 23.4004 43.3 11.7004C45.2 24.0004 36.7 40.2004 25.3 45.8004Z" fill="black"/>
<path d="M132.3 27.4006C134.3 27.4006 135.6 26.2006 135.6 24.2006C135.6 22.6006 135.6 21.0006 135.6 19.4006C135.6 17.3006 134.4 16.1006 132.2 16.1006C127.5 16.1006 122.7 16.1006 118 16.1006C117.4 16.1006 117.2 16.3006 117.2 16.9006C117.2 22.2006 117.2 27.4006 117.2 32.7006C117.2 34.1006 117.2 34.1006 118.7 34.1006C119.2 34.1006 119.4 34.0006 119.3 33.5006C119.3 31.6006 119.3 29.7006 119.3 27.9006C119.3 27.6006 119.3 27.4006 119.7 27.4006C121.9 27.4006 124.1 27.4006 126.3 27.4006C126.8 27.4006 127.1 27.5006 127.4 27.9006C129 29.8006 130.7 31.7006 132.3 33.6006C132.5 33.8006 132.6 34.1006 132.9 34.1006C133.7 34.1006 134.5 34.1006 135.5 34.1006C133.5 31.8006 131.7 29.7006 129.7 27.4006C130.7 27.4006 131.5 27.4006 132.3 27.4006ZM126.4 25.4006C124.5 25.4006 122.6 25.4006 120.7 25.4006C119.6 25.4006 119.3 25.1006 119.3 24.0006C119.3 22.5006 119.3 21.0006 119.3 19.4006C119.3 18.5006 119.6 18.2006 120.5 18.2006C124.4 18.2006 128.4 18.2006 132.3 18.2006C133.2 18.2006 133.5 18.5006 133.5 19.4006C133.5 21.0006 133.5 22.6006 133.5 24.2006C133.5 25.1006 133.2 25.4006 132.2 25.4006C130.3 25.4006 128.3 25.4006 126.4 25.4006Z" fill="black"/>
</svg>
