<svg width="346" height="120" viewBox="0 0 346 120" fill="none" xmlns="http://www.w3.org/2000/svg">
<path d="M7.7 43.5998C5.4 43.5998 3.2 43.5998 0.9 43.5998C0.3 43.5998 0 43.4998 0 42.7998C0 38.1998 0 33.5998 0 29.0998C0 28.4998 0.1 28.2998 0.8 28.2998C2.9 28.2998 4.9 28.2998 7 28.2998C7.6 28.2998 7.8 28.4998 7.8 29.0998C7.8 31.0998 7.8 33.0998 7.8 35.0998C7.8 35.8998 8 35.9998 8.8 35.9998C10.8 35.9998 12.7 35.9998 14.7 35.9998C15.3 35.9998 15.6 36.0998 15.6 36.7998C15.6 38.7998 15.6 40.7998 15.6 42.8998C15.6 43.5998 15.3 43.6998 14.7 43.6998C12.2 43.5998 9.9 43.5998 7.7 43.5998Z" fill="#49A7A6"/>
<path d="M30.7 43.6002C28.4 43.6002 26.1 43.6002 23.8 43.6002C23.2 43.6002 23 43.4002 23 42.8002C23 40.7002 23 38.6002 23 36.6002C23 36.0002 23.2 35.9002 23.7 35.9002C25.7 35.9002 27.7 35.9002 29.7 35.9002C30.6 35.9002 30.7 35.6002 30.7 34.9002C30.6 33.0002 30.7 31.0002 30.7 29.1002C30.7 28.5002 30.8 28.2002 31.5 28.2002C33.6 28.3002 35.6 28.2002 37.7 28.2002C38.3 28.2002 38.4 28.4002 38.4 29.0002C38.4 33.6002 38.4 38.2002 38.4 42.8002C38.4 43.4002 38.2 43.6002 37.6 43.6002C35.3 43.6002 33 43.6002 30.7 43.6002Z" fill="#49A7A6"/>
<path d="M68.7003 23.4002C68.7003 20.2002 68.7003 17.0002 68.7003 13.9002C68.7003 13.6002 68.5003 13.2002 69.2003 13.2002C72.2003 13.3002 75.2003 13.1002 78.1003 13.3002C81.7003 13.6002 84.0003 15.7002 85.0003 19.0002C86.0003 22.2002 85.9003 25.5002 84.7003 28.6002C83.4003 31.9002 80.9003 33.5002 77.5003 33.6002C74.8003 33.7002 72.0003 33.6002 69.3003 33.7002C68.7003 33.7002 68.8003 33.3002 68.8003 33.0002C68.7003 29.7002 68.7003 26.5002 68.7003 23.4002ZM71.4003 23.4002C71.4003 25.8002 71.4003 28.2002 71.4003 30.5002C71.4003 30.9002 71.4003 31.2002 72.0003 31.1002C73.7003 31.1002 75.4003 31.1002 77.1003 31.1002C79.6003 31.0002 81.4003 29.9002 82.2003 27.5002C83.1003 24.9002 83.2003 22.2002 82.4003 19.6002C81.7003 17.0002 79.8003 15.7002 77.1003 15.6002C75.5003 15.5002 73.8003 15.6002 72.2003 15.6002C71.6003 15.6002 71.4003 15.7002 71.4003 16.3002C71.5003 18.7002 71.4003 21.0002 71.4003 23.4002Z" fill="#0A0A0A"/>
<path d="M7.7 5.2002C10 5.2002 12.2 5.2002 14.5 5.2002C15.2 5.2002 15.5 5.3002 15.4 6.1002C15.3 8.1002 15.4 10.1002 15.4 12.2002C15.4 12.8002 15.3 13.0002 14.7 13.0002C10.1 13.0002 5.4 13.0002 0.8 13.0002C0.2 13.0002 0.1 12.8002 0.1 12.2002C0 10.1002 0 8.0002 0 6.0002C0 5.3002 0.2 5.2002 0.8 5.2002C3.1 5.2002 5.4 5.2002 7.7 5.2002Z" fill="#49A7A6"/>
<path d="M30.8002 5.2002C33.1002 5.2002 35.3002 5.2002 37.6002 5.2002C38.3002 5.2002 38.5002 5.3002 38.5002 6.1002C38.4002 8.1002 38.5002 10.1002 38.5002 12.2002C38.5002 12.8002 38.4002 13.0002 37.8002 13.0002C33.2002 13.0002 28.5002 13.0002 23.9002 13.0002C23.3002 13.0002 23.2002 12.8002 23.2002 12.2002C23.2002 10.2002 23.2002 8.2002 23.2002 6.1002C23.2002 5.3002 23.5002 5.2002 24.1002 5.2002C26.2002 5.2002 28.5002 5.2002 30.8002 5.2002Z" fill="#49A7A6"/>
<path d="M101.6 33.6004C100.7 33.6004 100.1 33.6004 99.3998 33.6004C98.5998 33.6004 98.6998 32.9004 98.5998 32.5004C98.3998 31.9004 98.2998 31.9004 97.8998 32.3004C95.9998 33.7004 93.8998 34.3004 91.5998 33.8004C89.4998 33.4004 88.0998 32.0004 87.9998 30.2004C87.7998 28.1004 88.8998 26.4004 90.8998 25.6004C92.1998 25.1004 93.5998 25.1004 94.8998 24.8004C95.7998 24.6004 96.7998 24.4004 97.6998 24.3004C98.0998 24.2004 98.2998 24.0004 98.2998 23.6004C98.2998 21.7004 97.6998 20.8004 95.7998 20.5004C94.9998 20.4004 94.2998 20.4004 93.4998 20.5004C92.2998 20.7004 91.3998 21.4004 91.0998 22.6004C90.8998 23.2004 90.6998 23.4004 90.0998 23.2004C89.9998 23.2004 89.9998 23.2004 89.8998 23.2004C88.1998 23.0004 88.1998 22.9004 88.8998 21.3004C89.2998 20.4004 89.8998 19.7004 90.6998 19.3004C93.2998 18.0004 95.9998 17.9004 98.5998 19.0004C99.8998 19.5004 100.5 20.6004 100.6 21.9004C100.8 24.5004 100.7 27.1004 100.7 29.7004C100.9 31.0004 100.8 32.3004 101.6 33.6004ZM98.1998 27.4004C98.1998 27.1004 98.1998 26.9004 98.1998 26.6004C98.1998 26.2004 98.0998 26.1004 97.6998 26.3004C95.9998 26.9004 94.1998 27.0004 92.4998 27.4004C91.1998 27.7004 90.4998 28.6004 90.5998 29.8004C90.5998 30.9004 91.4998 31.8004 92.6998 32.0004C95.5998 32.4004 98.2998 30.8004 98.1998 27.4004Z" fill="#0A0A0A"/>
<path d="M66.5998 33.6002C63.5998 33.8002 63.5998 33.8002 62.1998 31.5002C61.5998 30.5002 60.8998 29.5002 60.2998 28.5002C59.9998 28.0002 59.7998 27.9002 59.3998 28.5002C58.3998 30.0002 57.2998 31.5002 56.2998 33.0002C55.9998 33.5002 55.5998 33.8002 54.9998 33.7002C54.2998 33.6002 53.5998 33.7002 52.7998 33.7002C53.2998 33.0002 53.6998 32.4002 54.0998 31.9002C55.3998 30.1002 56.5998 28.3002 57.8998 26.5002C58.1998 26.1002 58.1998 25.8002 57.8998 25.4002C56.3998 23.2002 54.8998 21.0002 53.1998 18.7002C54.1998 18.7002 55.1998 18.7002 56.0998 18.7002C56.3998 18.7002 56.4998 18.9002 56.5998 19.1002C57.4998 20.5002 58.3998 21.8002 59.2998 23.2002C59.6998 23.8002 59.8998 23.7002 60.1998 23.2002C61.0998 21.9002 61.9998 20.7002 62.7998 19.4002C63.1998 18.9002 63.5998 18.7002 64.1998 18.7002C64.7998 18.8002 65.4998 18.7002 66.2998 18.7002C65.3998 20.0002 64.4998 21.3002 63.6998 22.5002C62.9998 23.5002 62.3998 24.4002 61.6998 25.3002C61.2998 25.8002 61.3998 26.1002 61.6998 26.5002C63.2998 28.8002 64.8998 31.1002 66.5998 33.6002Z" fill="#0A0A0A"/>
<path d="M107 26.2006C107 28.4006 107 30.7006 107 32.9006C107 33.5006 106.9 33.7006 106.2 33.7006C104.5 33.7006 104.5 33.7006 104.5 32.0006C104.5 27.8006 104.5 23.6006 104.5 19.4006C104.5 18.7006 104.7 18.6006 105.3 18.6006C107 18.6006 107 18.6006 107 20.3006C107 22.3006 107 24.2006 107 26.2006Z" fill="#0A0A0A"/>
<path d="M104.5 14.4006C104.5 14.3006 104.5 14.1006 104.5 14.0006C104.4 13.3006 104.6 13.1006 105.3 13.1006C106.9 13.2006 106.9 13.1006 107 14.8006C107 15.6006 106.8 16.0006 106 15.8006H105.9C104.5 15.8006 104.5 15.8006 104.5 14.4006Z" fill="#0A0A0A"/>
<path d="M142.699 25.5002C142.899 25.1002 143.099 24.7002 143.399 24.4002C147.499 17.6002 151.599 10.8002 155.599 4.1002C156.399 2.8002 157.099 1.5002 157.899 0.300195C157.899 0.200195 157.899 0.200195 157.999 0.200195C157.999 0.300195 157.999 0.400195 157.999 0.500195C157.999 6.5002 157.999 12.5002 157.999 18.5002C157.999 18.6002 157.999 18.7002 157.999 18.7002C157.899 18.8002 157.699 18.8002 157.599 18.9002C154.799 20.2002 151.999 21.5002 149.099 22.7002C147.199 23.6002 145.299 24.4002 143.499 25.3002C143.199 25.2002 142.999 25.4002 142.699 25.5002Z" fill="#8B8B8B"/>
<path d="M158 18.5004C158 18.4004 158 18.3004 158 18.3004C158 12.3004 158 6.30041 158 0.300406C158 0.200406 158 0.100406 158 0.000405733C158.1 -0.0995943 158.1 0.000405736 158.1 0.100406C158.4 0.600406 158.8 1.20041 159.1 1.70041C163.8 9.60041 168.6 17.4004 173.3 25.3004C173.3 25.4004 173.4 25.4004 173.4 25.5004H173.3C172.9 25.3004 172.5 25.1004 172.1 25.0004C171.3 24.7004 170.6 24.3004 169.8 24.0004C168.5 23.4004 167.2 22.8004 165.9 22.2004C165 21.8004 164.1 21.4004 163.2 21.0004C161.8 20.4004 160.5 19.8004 159.1 19.1004C158.7 18.9004 158.4 18.7004 158 18.5004Z" fill="#343434"/>
<path d="M142.7 25.5C143 25.4 143.3 25.3 143.6 25.1C145.5 24.2 147.4 23.4 149.2 22.5C152 21.2 154.8 19.9 157.7 18.7C157.8 18.6 158 18.6 158.1 18.5V18.6C158.1 23.9 158.1 29.2 158.1 34.6C157.7 34.4 157.3 34.2 156.9 33.9C152.2 31.1 147.5 28.4 142.8 25.6C142.7 25.6 142.6 25.6 142.7 25.5Z" fill="#393939"/>
<path d="M158 34.6C158 29.3 158 24 158 18.6V18.5C158.4 18.6 158.7 18.8 159.1 19C160.5 19.6 161.8 20.2 163.2 20.9C164.1 21.3 165 21.7 165.9 22.1C167.2 22.7 168.5 23.3 169.8 23.9C170.6 24.2 171.3 24.6 172.1 24.9C172.5 25.1 172.9 25.3 173.3 25.4H173.4C173.4 25.4 173.4 25.4 173.4 25.5C172.4 26.1 171.5 26.6 170.5 27.2C166.4 29.6 162.3 32.1 158.1 34.5C158.1 34.6 158.1 34.6 158 34.6Z" fill="#141414"/>
<path d="M158 50.1004C157.7 49.8004 157.5 49.4004 157.2 49.0004C152.8 42.8004 148.4 36.6004 144 30.4004C143.6 29.8004 143.2 29.2004 142.7 28.6004C142.7 28.5004 142.6 28.5004 142.6 28.4004C143.1 28.6004 143.6 28.9004 144 29.2004C147.5 31.3004 151 33.3004 154.5 35.4004C155.5 36.0004 156.6 36.6004 157.6 37.2004C157.7 37.3004 157.8 37.3004 157.9 37.3004C157.9 37.4004 157.9 37.5004 157.9 37.6004C157.9 41.6004 157.9 45.6004 157.9 49.7004C158 50.0004 158 50.1004 158 50.1004Z" fill="#8B8B8B"/>
<path d="M158 50.1C158 50 158 49.9 158 49.9C158 45.9 158 41.9 158 37.8C158 37.7 158 37.6 158 37.5C161.2 35.6 164.4 33.7 167.6 31.9C169.5 30.8 171.3 29.7 173.2 28.6C173.3 28.6 173.3 28.5 173.4 28.5C173.4 28.6 173.4 28.6 173.3 28.7C171.9 30.7 170.5 32.6 169.1 34.6C165.5 39.7 161.8 44.9 158.2 50C158.1 50.1 158.1 50.1 158 50.1C158.1 50.1 158 50.1 158 50.1C158 50.2 158 50.1 158 50.1Z" fill="#3C3C3B"/>
<path d="M243.4 22.7996C243.4 24.0996 243.4 25.3996 243.4 26.6996C243.4 27.6996 243 28.3996 242.3 28.8996C239.8 30.3996 237.3 31.7996 234.7 33.1996C233.9 33.5996 233.1 33.4996 232.4 33.0996C230 31.6996 227.5 30.3996 225.1 28.9996C224.3 28.4996 224 27.6996 224 26.7996C224 26.0996 224 25.4996 224 24.7996C224 24.2996 224.2 23.9996 224.6 23.7996C225.3 23.3996 226 22.9996 226.7 22.5996C227.5 22.0996 227.7 22.4996 227.8 23.1996C227.8 23.2996 227.8 23.3996 227.8 23.4996C227.2 25.5996 228.1 26.7996 230 27.5996C230.9 27.8996 231.7 28.3996 232.4 28.8996C233.2 29.3996 234 29.4996 234.8 28.9996C236 28.2996 237.3 27.5996 238.6 26.8996C239.4 26.3996 239.8 25.6996 239.8 24.6996C239.8 23.4996 239.8 22.1996 239.8 20.9996C239.8 19.7996 239.3 19.0996 238.4 18.5996C237.3 17.9996 236.3 17.3996 235.2 16.7996C234.2 16.1996 233.2 16.2996 232.2 16.8996C228 19.2996 223.7 21.6996 219.5 24.0996C218.5 24.6996 217.6 24.6996 216.6 24.0996C214.3 22.7996 212 21.4996 209.7 20.1996C208.8 19.6996 208.4 18.9996 208.4 17.9996C208.4 15.1996 208.4 12.3996 208.4 9.5996C208.4 8.6996 208.8 8.0996 209.5 7.69959C211.8 6.3996 214.2 5.09959 216.5 3.79959C217.6 3.19959 218.6 3.2996 219.7 3.8996C221.9 5.1996 224.2 6.4996 226.4 7.7996C227.2 8.1996 227.5 8.89959 227.5 9.69959C227.5 10.4996 227.5 11.2996 227.5 12.0996C227.5 12.4996 227.3 12.7996 227 12.8996C226.3 13.2996 225.5 13.6996 224.8 14.0996C224.3 14.3996 223.9 14.1996 224 13.5996C224.5 10.7996 222.8 9.6996 220.7 8.4996C218.6 7.1996 217 7.3996 215.1 8.5996C211.4 10.8996 212.1 9.8996 211.9 14.0996C211.8 16.4996 212.6 17.7996 214.7 18.9996C217.1 20.3996 218.9 20.5996 221.2 18.9996C224.5 16.6996 228.2 14.9996 231.7 12.8996C233.4 11.7996 234.8 12.3996 236.2 13.1996C238.1 14.2996 240 15.4996 242 16.4996C243 17.0996 243.5 17.8996 243.4 18.9996C243.3 20.2996 243.4 21.5996 243.4 22.7996Z" fill="#8752DF"/>
<path d="M315.201 19.1999C315.201 20.6999 315.101 22.0999 315.201 23.5999C315.401 26.8999 313.501 28.9999 310.601 29.7999C307.801 30.5999 305.101 30.2999 302.701 28.2999C302.301 27.9999 302.201 27.6999 302.601 27.2999C302.701 27.1999 302.801 27.0999 302.901 26.9999C303.301 26.4999 303.701 25.7999 304.201 25.4999C304.901 25.1999 305.301 26.0999 305.901 26.2999C307.301 26.8999 308.701 26.9999 310.101 26.2999C310.901 25.8999 311.301 25.1999 311.301 24.2999C311.301 23.9999 311.401 23.5999 311.101 23.3999C310.801 23.1999 310.601 23.4999 310.301 23.6999C308.201 24.8999 306.001 24.9999 304.001 23.7999C301.801 22.4999 300.701 20.3999 301.001 17.7999C301.601 13.1999 306.001 10.8999 310.401 12.8999C310.901 13.0999 311.201 13.2999 311.801 12.8999C312.701 12.3999 313.801 12.6999 314.901 12.7999C315.301 12.7999 315.201 13.3999 315.201 13.7999C315.201 15.4999 315.201 17.2999 315.201 19.1999ZM311.401 18.2999C311.701 16.0999 310.101 15.1999 308.301 15.1999C306.301 15.1999 304.901 16.4999 304.901 18.3999C304.901 20.1999 306.301 21.4999 308.201 21.4999C310.401 21.4999 311.401 20.4999 311.401 18.2999Z" fill="#2C2C2C"/>
<path d="M250.801 21.1002C250.801 18.6002 250.801 16.0002 250.801 13.5002C250.801 12.6002 251.001 12.2002 252.001 12.3002C252.901 12.4002 254.001 11.9002 254.401 13.3002C254.501 13.7002 255.001 13.3002 255.201 13.1002C257.201 12.0002 259.301 11.6002 261.401 12.6002C263.401 13.5002 264.401 15.2002 264.601 17.3002C264.901 20.0002 264.301 22.3002 261.801 23.7002C259.801 24.8002 257.801 24.8002 255.701 24.0002C254.601 23.6002 254.601 23.6002 254.501 24.8002C254.501 26.2002 254.501 27.6002 254.501 28.9002C254.501 29.6002 254.301 29.8002 253.601 29.8002C250.801 29.9002 250.801 29.9002 250.801 27.1002C250.801 25.1002 250.801 23.1002 250.801 21.1002ZM254.701 18.4002C254.701 20.6002 255.601 21.6002 257.501 21.6002C259.401 21.6002 260.801 20.3002 260.701 18.4002C260.701 16.5002 259.501 15.3002 257.601 15.3002C255.501 15.3002 254.601 16.2002 254.701 18.4002Z" fill="#2C2C2C"/>
<path d="M333.101 18.3998C333.101 16.8998 333.201 15.2998 333.101 13.7998C333.101 12.7998 333.401 12.4998 334.301 12.5998C334.801 12.5998 335.301 12.5998 335.901 12.5998C336.201 12.5998 336.601 12.5998 336.701 12.8998C337.001 14.1998 337.501 13.4998 338.101 13.0998C339.501 11.9998 341.201 11.7998 342.901 12.1998C344.601 12.5998 345.501 13.8998 345.501 15.6998C345.501 18.1998 345.501 20.7998 345.501 23.2998C345.501 24.0998 345.301 24.2998 344.501 24.2998C341.001 24.1998 341.701 24.5998 341.601 21.3998C341.601 19.9998 341.601 18.5999 341.601 17.1999C341.601 16.3998 341.501 15.6998 340.601 15.3998C339.701 15.0998 338.901 15.2998 338.301 15.9998C337.301 16.8998 337.201 18.1998 337.101 19.3998C337.001 20.6998 337.101 22.0998 337.101 23.3998C337.101 24.0998 336.801 24.3998 336.101 24.3998C332.701 24.2998 333.301 24.7998 333.301 21.5998C333.101 20.4998 333.101 19.4998 333.101 18.3998Z" fill="#2C2C2C"/>
<path d="M324.5 12.0996C326.8 12.0996 328.9 12.9996 330.1 15.1996C331.3 17.4996 331.2 19.8996 329.7 21.9996C328.3 24.0996 324.9 24.8996 322.1 24.1996C318.1 23.2996 316.1 18.7996 318.2 15.0996C319.5 12.9996 321.7 12.0996 324.5 12.0996ZM321.3 18.2996C321.3 20.2996 322.4 21.4996 324.2 21.4996C325.9 21.4996 327 20.2996 327 18.3996C327 16.5996 325.8 15.2996 324.1 15.2996C322.4 15.1996 321.3 16.4996 321.3 18.2996Z" fill="#2C2C2C"/>
<path d="M272.7 24.5C268.8 24.5 266.1 22.2 266 18.6C265.9 15.4 268.2 12.6 271.4 12.2C273.9 11.9 276.2 12.2 277.9 14.2C279.7 16.3 279.9 18.6 278.8 21.1C277.8 23.3 275.6 24.5 272.7 24.5ZM272.7 21.5C274.4 21.5 275.6 20.3 275.6 18.4C275.6 16.5 274.4 15.2 272.7 15.2C271 15.2 269.9 16.5 269.9 18.4C269.9 20.3 271 21.5 272.7 21.5Z" fill="#2C2C2C"/>
<path d="M294.5 19.2004C295.3 17.3004 296.1 15.6004 296.9 13.8004C297.1 13.4004 297.2 12.8004 297.7 12.7004C298.6 12.6004 299.6 12.5004 300.5 12.7004C301 12.8004 300.6 13.3004 300.5 13.5004C299.3 16.1004 298.2 18.8004 297 21.4004C296 23.7004 294.9 26.0004 293.9 28.4004C293.5 29.4004 293 29.8004 291.9 29.8004C289.6 29.7004 289.6 29.8004 290.6 27.7004C290.8 27.2004 290.9 26.7004 291.2 26.3004C292.6 24.4004 292.2 22.7004 291.1 20.8004C289.7 18.5004 288.7 16.0004 287.4 13.6004C287 12.9004 287.1 12.6004 288 12.6004C291.3 12.5004 291.3 12.5004 292.6 15.6004C293.2 16.8004 293.6 18.1004 294.5 19.2004Z" fill="#2C2C2C"/>
<path d="M285.5 13.8C285.5 16.9 285.5 20 285.5 23.1C285.5 24 285.3 24.4 284.3 24.3C281.7 24.2 281.7 24.3 281.7 21.7C281.7 16 281.7 10.3 281.7 4.60004C281.7 3.60004 281.9 3.30004 282.9 3.40004C285.4 3.50004 285.4 3.40004 285.4 5.90004C285.5 8.50004 285.5 11.2 285.5 13.8Z" fill="#2C2C2C"/>
<path d="M268.101 41.5999C268.101 42.9999 268.101 44.3999 268.101 45.7999C268.101 46.2999 268.101 46.6999 267.401 46.6999C266.701 46.6999 266.701 46.2999 266.701 45.7999C266.701 43.6999 266.701 41.5999 266.701 39.4999C266.701 39.0999 266.601 38.4999 267.201 38.3999C267.801 38.2999 268.401 38.2999 268.701 39.0999C269.301 40.5999 270.001 42.1999 270.701 43.6999C270.801 43.9999 270.901 44.3999 271.301 44.3999C271.701 44.3999 271.701 43.8999 271.801 43.5999C272.501 42.1999 273.101 40.6999 273.701 39.1999C274.001 38.4999 274.401 38.2999 275.101 38.3999C275.901 38.4999 275.701 39.0999 275.701 39.5999C275.701 41.5999 275.701 43.6999 275.701 45.6999C275.701 46.0999 275.801 46.5999 275.101 46.5999C274.401 46.5999 274.401 46.1999 274.401 45.6999C274.401 44.6999 274.401 43.6999 274.401 42.6999C274.401 42.3999 274.401 41.9999 274.101 41.8999C273.701 41.7999 273.701 42.1999 273.601 42.3999C273.101 43.4999 272.501 44.6999 272.001 45.7999C271.801 46.1999 271.701 46.4999 271.201 46.4999C270.601 46.4999 270.401 46.1999 270.201 45.6999C269.601 44.2999 269.001 42.9999 268.401 41.5999C268.601 41.6999 268.601 41.5999 268.101 41.5999Z" fill="#2C2C2C"/>
<path d="M306.6 42.7004C306.6 43.7004 306.6 44.6004 306.6 45.6004C306.6 46.0004 306.9 46.5004 306.3 46.6004C305.7 46.7004 305.3 46.6004 305 46.1004C304.1 44.7004 303.2 43.4004 302.3 42.0004C302 41.6004 301.8 40.7004 301.3 40.9004C300.7 41.1004 301.1 41.9004 301.1 42.4004C301.1 43.6004 301.1 44.8004 301.1 46.0004C301.1 46.4004 301 46.7004 300.5 46.7004C300 46.7004 299.9 46.5004 299.9 46.0004C299.9 43.8004 299.9 41.5004 299.9 39.3004C299.9 38.9004 300 38.6004 300.5 38.5004C301.1 38.4004 301.7 38.6004 302 39.1004C302.9 40.4004 303.7 41.8004 304.6 43.1004C304.8 43.4004 304.9 43.8004 305.3 43.7004C305.7 43.6004 305.5 43.1004 305.5 42.8004C305.5 41.6004 305.5 40.4004 305.5 39.2004C305.5 38.7004 305.6 38.4004 306.2 38.4004C306.7 38.4004 306.8 38.8004 306.8 39.2004C306.6 40.4004 306.6 41.6004 306.6 42.7004Z" fill="#2C2C2C"/>
<path d="M320.601 44.6999C321.201 43.6999 321.401 42.7999 321.701 41.7999C321.901 41.2999 322.201 40.9999 322.601 40.9999C323.101 40.9999 323.301 41.3999 323.401 41.8999C323.501 42.7999 323.801 43.5999 324.501 44.5999C324.801 43.7999 325.001 43.1999 325.201 42.5999C325.301 42.1999 325.501 41.7999 325.601 41.3999C325.801 40.9999 326.201 40.8999 326.501 40.9999C326.801 41.0999 326.701 41.4999 326.601 41.7999C326.101 43.2999 325.601 44.6999 325.101 46.1999C325.001 46.5999 324.601 46.6999 324.301 46.7999C323.801 46.7999 323.801 46.4999 323.701 46.1999C323.501 45.4999 323.201 44.7999 322.901 44.0999C322.801 43.7999 322.801 43.4999 322.401 43.4999C322.001 43.4999 322.101 43.7999 322.001 44.0999C321.701 44.7999 321.401 45.4999 321.201 46.2999C321.101 46.6999 320.901 46.7999 320.501 46.7999C320.101 46.7999 319.901 46.6999 319.701 46.3999C319.201 44.8999 318.701 43.3999 318.201 41.8999C318.101 41.5999 318.201 41.3999 318.501 41.2999C318.901 41.1999 319.201 41.2999 319.401 41.6999C320.001 42.5999 320.001 43.6999 320.601 44.6999Z" fill="#2C2C2C"/>
<path d="M343.8 46.5004C342.9 46.9004 342.3 46.7004 341.8 45.9004C341.7 45.6004 341.5 45.4004 341.3 45.2004C341.1 44.9004 341 44.4004 340.5 44.6004C340 44.7004 339.9 45.2004 339.9 45.7004C339.9 46.2004 340.1 46.7004 339.3 46.7004C338.5 46.7004 338.7 46.1004 338.7 45.7004C338.7 43.6004 338.7 41.5004 338.7 39.4004C338.7 38.9004 338.7 38.4004 339.4 38.4004C340.1 38.4004 339.9 39.0004 339.9 39.4004C339.9 40.4004 339.9 41.4004 339.9 42.4004C339.9 42.6004 339.8 42.9004 340.1 43.0004C340.4 43.2004 340.6 42.9004 340.7 42.7004C341.2 42.2004 341.6 41.8004 342.1 41.3004C342.5 41.0004 343 40.9004 343.3 41.2004C343.6 41.5004 343.1 41.8004 342.8 42.1004C342.6 42.3004 342.3 42.6004 342.1 42.8004C341.5 43.3004 341.5 43.8004 342 44.4004C342.6 45.0004 343.2 45.7004 343.8 46.5004Z" fill="#2C2C2C"/>
<path d="M211 42.5003C211 41.4003 211 40.3003 211 39.3003C211 38.8003 211.2 38.5003 211.7 38.4003C212.7 38.4003 213.7 38.2003 214.7 38.5003C216.2 38.9003 216.9 39.8003 216.8 41.1003C216.7 42.3003 215.6 43.3003 214.3 43.5003C212.4 43.8003 212.4 43.8003 212.4 45.7003C212.4 46.1003 212.6 46.7003 211.8 46.7003C211 46.7003 211 46.2003 211.1 45.6003C211 44.6003 211 43.5003 211 42.5003ZM212.3 40.8003C212.2 41.7003 212.3 42.3003 213.4 42.2003C214.8 42.1003 215.4 41.8003 215.4 40.8003C215.4 39.9003 214.8 39.5003 213.5 39.4003C212.5 39.5003 212 39.8003 212.3 40.8003Z" fill="#8752DF"/>
<path d="M278.601 42.8999C278.201 42.8999 277.701 43.0999 277.501 42.5999C277.301 42.0999 277.701 41.7999 278.001 41.5999C278.801 40.8999 279.801 40.7999 280.801 41.0999C281.701 41.3999 282.101 42.2999 282.101 43.1999C282.101 44.0999 282.101 44.9999 282.101 45.8999C282.101 46.5999 281.801 46.8999 281.101 46.6999C280.801 46.5999 280.501 46.5999 280.201 46.6999C278.801 47.1999 277.701 46.7999 277.401 45.8999C277.001 44.6999 277.501 43.9999 279.101 43.4999C279.301 43.4999 279.501 43.3999 279.801 43.3999C280.201 43.3999 280.601 43.3999 280.801 42.9999C280.901 42.7999 280.801 42.4999 280.601 42.2999C280.201 41.9999 279.801 41.9999 279.301 42.1999C278.901 42.1999 278.601 42.4999 278.601 42.8999ZM279.501 45.7999C280.301 45.7999 280.801 45.3999 280.901 44.5999C281.001 44.1999 280.701 43.9999 280.401 44.1999C279.701 44.3999 278.701 44.0999 278.601 45.1999C278.501 45.6999 279.001 45.8999 279.501 45.7999Z" fill="#2C2C2C"/>
<path d="M330.4 40.9004C332.1 40.9004 333.3 42.2004 333.3 43.9004C333.3 45.5004 331.9 46.9004 330.3 46.9004C328.8 46.8004 327.3 45.6004 327.5 43.7004C327.6 42.0004 328.7 40.9004 330.4 40.9004ZM332 43.9004C332 42.7004 331.3 41.9004 330.4 41.9004C329.4 41.9004 328.7 42.9004 328.7 44.0004C328.7 45.1004 329.4 45.8004 330.4 45.8004C331.4 45.7004 332 45.1004 332 43.9004Z" fill="#2C2C2C"/>
<path d="M293.2 40.9004C294.1 40.9004 294.8 41.2004 295.2 42.0004C295.3 42.2004 295.8 42.5004 295.3 42.8004C295 43.0004 294.6 43.1004 294.3 42.7004C293.8 42.0004 293.2 41.9004 292.5 42.1004C291.7 42.3004 291.5 43.0004 291.5 43.7004C291.5 44.4004 291.6 45.1004 292.3 45.5004C293 45.9004 293.7 45.8004 294.2 45.2004C294.5 44.8004 294.9 44.6004 295.3 45.0004C295.7 45.4004 295.2 45.8004 295 46.0004C293.7 47.5004 291.2 47.0004 290.4 45.0004C289.6 43.0004 291 40.9004 293.2 40.9004Z" fill="#2C2C2C"/>
<path d="M236.201 43.8999C236.201 42.0999 237.401 40.7999 239.101 40.8999C240.701 40.8999 241.901 42.2999 242.001 43.8999C242.001 45.5999 240.801 46.8999 239.001 46.8999C237.801 46.9999 236.001 45.7999 236.201 43.8999ZM239.001 45.7999C239.901 45.8999 240.801 45.0999 240.801 44.0999C240.901 42.9999 240.201 41.9999 239.201 41.7999C238.301 41.6999 237.501 42.4999 237.401 43.5999C237.301 44.8999 237.901 45.6999 239.001 45.7999Z" fill="#8752DF"/>
<path d="M262.8 41.4996C262.6 41.9996 262.3 42.5996 262 43.1996C261.2 44.8996 260.5 46.5996 259.7 48.1996C259.5 48.5996 259.3 48.8996 258.9 48.9996C258.4 48.9996 257.9 48.7996 258.4 48.2996C260.1 46.1996 258.7 44.4996 257.8 42.5996C257.7 42.3996 257.6 42.1996 257.5 41.9996C257.4 41.6996 257 41.2996 257.5 40.9996C258 40.6996 258.4 40.9996 258.7 41.4996C259.1 42.1996 259.4 42.9996 259.8 43.6996C259.9 43.8996 259.8 44.1996 260.1 44.1996C260.3 44.1996 260.5 43.9996 260.6 43.7996C261 42.9996 261.3 42.1996 261.7 41.3996C261.9 40.9996 262.3 40.9996 262.7 40.9996C262.8 41.0996 262.8 41.2996 262.8 41.4996Z" fill="#8752DF"/>
<path d="M251.5 40.9C252.1 40.9 252.6 41.2 253.1 41.6C253.4 41.8 253.5 42.2 253.3 42.5C253.1 42.8 252.7 42.8 252.4 42.6C252.1 42.5 251.8 42.2 251.5 42.1C251.1 41.9 250.8 42.1 250.6 42.5C250.4 43 250.8 43.1 251.1 43.2C251.5 43.3 251.8 43.4 252.2 43.5C253.3 43.9 253.7 44.6 253.5 45.5C253.3 46.4 252.2 47.1 251.3 47C250.6 46.9 249.9 46.7 249.5 46.1C249.3 45.8 249.1 45.4 249.5 45.1C249.9 44.8 250.2 44.9 250.5 45.2C250.6 45.3 250.7 45.5 250.9 45.6C251.3 45.8 251.7 45.8 252.1 45.6C252.3 45.5 252.4 45.3 252.3 45C252.2 44.6 251.9 44.4 251.5 44.4C250.7 44.3 250 44.1 249.6 43.2C249 42.1 250.1 40.8 251.5 40.9Z" fill="#8752DF"/>
<path d="M248.001 44.0996C248.001 46.8996 248.001 46.8996 245.301 46.9996C244.301 47.0996 243.301 46.1996 243.201 45.0996C243.101 43.9996 243.201 42.8996 243.201 41.7996C243.201 41.3996 243.301 41.0996 243.801 41.0996C244.301 41.0996 244.401 41.4996 244.401 41.8996C244.401 42.6996 244.301 43.4996 244.401 44.1996C244.501 44.8996 244.501 45.7996 245.601 45.7996C246.701 45.7996 246.901 45.0996 246.901 44.1996C246.901 43.3996 246.901 42.5996 247.001 41.8996C247.001 41.5996 246.901 41.1996 247.401 41.0996C247.901 41.0996 248.201 41.3996 248.201 41.8996C248.101 42.5996 248.001 43.2996 248.001 44.0996Z" fill="#8752DF"/>
<path d="M224.6 44.1996C224.3 44.1996 223.9 44.1996 223.6 44.1996C223.3 44.1996 222.8 44.0996 222.7 44.4996C222.6 44.8996 222.9 45.2996 223.2 45.4996C223.9 45.9996 224.7 45.9996 225.3 45.2996C225.6 44.9996 226 44.6996 226.3 44.9996C226.7 45.3996 226.2 45.6996 225.9 45.9996C224.8 47.0996 222.7 46.8996 221.7 45.4996C221 44.4996 221 43.2996 221.6 42.2996C222.1 41.2996 223 40.6996 224.2 40.8996C225.3 40.9996 226.1 41.4996 226.4 42.5996C226.8 43.7996 226.6 44.0996 225.4 44.0996C225.2 44.1996 224.9 44.1996 224.6 44.1996ZM224.1 43.2996C224.5 43.0996 225.3 43.5996 225.3 42.7996C225.3 42.1996 224.7 41.9996 224.1 41.9996C223.5 41.9996 222.8 41.9996 222.8 42.6996C222.8 43.5996 223.6 43.0996 224.1 43.2996Z" fill="#8752DF"/>
<path d="M311.3 44.1999C311 44.1999 310.6 44.1999 310.3 44.1999C309.9 44.1999 309.5 44.0999 309.3 44.4999C309.1 44.9999 309.5 45.3999 309.9 45.5999C310.6 45.8999 311.3 45.9999 311.8 45.3999C312.1 45.0999 312.5 44.5999 312.9 45.0999C313.3 45.5999 312.8 45.9999 312.4 46.3999C311.2 47.3999 309.3 47.0999 308.4 45.6999C307.5 44.3999 307.8 42.2999 309.2 41.4999C310.7 40.4999 312.7 41.1999 313.2 42.8999C313.5 43.9999 313.3 44.2999 312.2 44.2999C311.9 44.1999 311.6 44.1999 311.3 44.1999ZM310.6 43.2999C311 43.0999 311.9 43.6999 311.9 42.7999C311.9 42.0999 311.2 41.9999 310.7 41.8999C310.1 41.7999 309.4 42.1999 309.4 42.8999C309.5 43.5999 310.3 43.0999 310.6 43.2999Z" fill="#2C2C2C"/>
<path d="M284.101 43.9998C283.901 43.2998 284.601 42.2998 283.201 41.9998C282.901 41.9998 282.701 41.2998 283.301 41.0998C283.901 40.8998 284.201 40.4998 284.101 39.8998C284.101 39.5998 284.201 39.2998 284.601 39.2998C285.001 39.2998 285.201 39.5998 285.201 39.8998C285.201 40.4998 285.201 40.9998 286.001 41.0998C286.301 41.0998 286.401 41.3998 286.301 41.6998C286.301 41.9998 286.101 42.1998 285.801 42.1998C285.201 42.1998 285.101 42.5998 285.201 43.0998C285.301 44.0998 284.701 45.3998 286.201 45.8998C286.501 45.9998 286.401 46.5998 285.801 46.6998C284.901 46.8998 284.101 46.2998 284.001 45.2998C284.001 44.8998 284.101 44.4998 284.101 43.9998Z" fill="#2C2C2C"/>
<path d="M230 46.7C229.6 46.7 229.2 46.6 229.1 46.1C228.6 44.7 228.1 43.4 227.6 42.1C227.5 41.8 227.3 41.4 227.7 41.3C228.1 41.1 228.5 41.3 228.6 41.7C228.9 42.5 229.2 43.3 229.6 44.1C229.7 44.3 229.7 44.5 230 44.5C230.3 44.5 230.4 44.3 230.4 44.1C230.7 43.3 231 42.6 231.3 41.8C231.5 41.3 231.9 40.9 232.4 41.2C232.9 41.4 232.6 41.9 232.4 42.3C231.9 43.6 231.4 44.9 230.9 46.2C230.7 46.5 230.4 46.7 230 46.7Z" fill="#8752DF"/>
<path d="M256.101 42.6002C256.101 43.7002 256.101 44.8002 256.101 45.9002C256.101 46.3002 256.001 46.6002 255.501 46.6002C255.001 46.6002 254.801 46.4002 254.801 45.9002C254.801 43.6002 254.801 41.3002 254.801 39.0002C254.801 38.5002 255.001 38.2002 255.501 38.2002C256.101 38.2002 256.101 38.6002 256.101 39.0002C256.101 40.2002 256.101 41.4002 256.101 42.6002Z" fill="#8752DF"/>
<path d="M335.2 41.0001C335.8 41.5001 336.4 41.2001 337 41.0001C337.4 40.9001 337.7 41.1001 337.7 41.5001C337.7 41.9001 337.8 42.3001 337.2 42.3001C336 42.3001 335.8 43.1001 335.8 44.1001C335.8 44.7001 335.8 45.4001 335.8 46.0001C335.8 46.4001 335.7 46.7001 335.2 46.8001C334.7 46.8001 334.6 46.6001 334.6 46.1001C334.6 44.7001 334.6 43.3001 334.6 41.9001C334.5 41.4001 334.6 41.0001 335.2 41.0001Z" fill="#2C2C2C"/>
<path d="M217.6 43.9002C217.6 43.2002 217.6 42.5002 217.6 41.8002C217.6 41.5002 217.6 41.2002 217.9 41.2002C218.7 41.2002 219.5 41.3002 220.3 41.0002C220.5 40.9002 220.6 41.3002 220.6 41.5002C220.6 41.8002 220.7 42.2002 220.3 42.2002C218.5 42.4002 218.7 43.7002 218.7 44.8002C218.7 45.2002 218.7 45.7002 218.7 46.1002C218.7 46.5002 218.4 46.6002 218 46.6002C217.6 46.6002 217.5 46.4002 217.5 46.0002C217.6 45.3002 217.6 44.6002 217.6 43.9002Z" fill="#8752DF"/>
<path d="M316.8 46.7001C315.6 46.7001 315.2 46.2001 315.1 45.3001C315 44.6001 315.1 44.0001 315.1 43.3001C315.1 42.8001 315.3 42.2001 314.4 42.1001C313.9 42.0001 314 41.4001 314.4 41.2001C314.9 40.9001 315.2 40.6001 315.2 40.0001C315.2 39.7001 315.4 39.4001 315.8 39.5001C316.1 39.5001 316.2 39.8001 316.2 40.1001C316.2 40.7001 316.3 41.2001 317 41.3001C317.3 41.3001 317.4 41.6001 317.4 41.9001C317.4 42.2001 317.2 42.4001 316.9 42.4001C316.3 42.4001 316.2 42.8001 316.2 43.3001C316.2 43.8001 316.2 44.3001 316.2 44.9001C316.2 45.4001 316.3 45.8001 316.9 45.9001C317.3 46.0001 317.5 46.2001 317.4 46.6001C317.3 46.8001 316.9 46.7001 316.8 46.7001Z" fill="#2C2C2C"/>
<path d="M288.9 44C288.9 44.7 288.9 45.3 288.9 46C288.9 46.5 288.8 46.7 288.3 46.7C287.9 46.7 287.7 46.5 287.7 46C287.7 44.6 287.7 43.3 287.7 41.9C287.7 41.4 287.8 41.1 288.3 41C288.9 41 288.9 41.5 288.9 41.9C289 42.6 288.9 43.3 288.9 44Z" fill="#2C2C2C"/>
<path d="M234.901 43.8998C234.901 44.5998 234.901 45.2998 234.901 45.9998C234.901 46.4998 234.801 46.6998 234.301 46.6998C233.901 46.6998 233.601 46.4998 233.601 45.9998C233.601 44.6998 233.601 43.2998 233.601 41.9998C233.601 41.4998 233.801 40.9998 234.401 41.0998C235.001 41.1998 234.801 41.6998 234.801 42.0998C234.901 42.5998 234.901 43.2998 234.901 43.8998Z" fill="#8752DF"/>
<path d="M288.5 38.3002C288.9 38.3002 289.1 38.7002 289.1 39.1002C289.1 39.5002 288.8 40.0002 288.2 39.9002C287.8 39.8002 287.4 39.6002 287.5 39.1002C287.6 38.5002 287.9 38.2002 288.5 38.3002Z" fill="#2C2C2C"/>
<path d="M235.2 39.0002C235 39.5002 234.8 39.9002 234.3 39.9002C233.8 39.9002 233.5 39.6002 233.5 39.0002C233.5 38.5002 233.8 38.2002 234.3 38.2002C234.9 38.2002 235.1 38.6002 235.2 39.0002Z" fill="#8752DF"/>
<path d="M113.5 79.4004C114.1 80.7004 115.4 81.5004 116.4 82.6004C119.1 85.3004 121.8 88.0004 124.6 90.7004C125.3 91.4004 125.3 91.8004 124.6 92.5004C123.4 93.6004 122.3 95.5004 121 95.6004C119.6 95.8004 118.6 93.7004 117.5 92.6004C116.3 91.5004 115.1 90.4004 114 89.2004C113.3 88.5004 112.9 88.6004 112.3 89.2004C110.3 91.2004 108.2 93.2004 106.3 95.2004C105.7 95.9004 105.2 95.9004 104.6 95.2004C103.7 94.3004 102.9 93.3004 101.9 92.5004C101 91.8004 101.2 91.3004 101.9 90.6004C105.7 86.9004 109.4 83.1004 113.1 79.4004C113.3 79.4004 113.4 79.4004 113.5 79.4004Z" fill="#EFB90D"/>
<path d="M113.2 119.101C109.5 115.401 105.8 111.701 102.1 108.001C101.2 107.201 101.1 106.601 102.1 105.801C103 105.001 103.9 104.101 104.7 103.201C105.3 102.501 105.7 102.601 106.4 103.201C108.3 105.201 110.4 107.101 112.3 109.101C113 109.901 113.5 109.901 114.2 109.101C116.1 107.101 118.2 105.201 120.1 103.201C120.8 102.501 121.2 102.501 121.9 103.201C123 104.401 124.9 105.401 125.1 106.701C125.3 108.001 123.2 109.101 122 110.201C119.3 112.901 116.6 115.601 113.9 118.301C113.8 118.401 113.7 118.701 113.6 118.901C113.4 119.101 113.3 119.101 113.2 119.101Z" fill="#EFB90D"/>
<path d="M247.699 99.2002C244.299 99.2002 240.899 99.1002 237.399 99.1002C236.199 99.1002 235.799 98.7002 235.899 97.5002C235.999 93.4002 235.999 89.3002 235.899 85.2002C235.899 84.1002 236.199 83.7002 237.399 83.7002C240.299 83.8002 243.199 83.7002 246.099 83.7002C246.699 83.7002 247.299 83.7002 247.699 84.1002C247.699 84.9002 247.699 85.7002 247.699 86.5002C245.399 86.5002 243.099 86.6002 240.699 86.5002C239.299 86.4002 239.199 87.1002 239.199 88.2002C239.199 89.2002 239.299 89.8002 240.599 89.7002C242.199 89.6002 243.899 89.7002 245.499 89.7002C246.899 89.6002 246.499 90.6002 246.599 91.4002C246.699 92.2002 246.699 92.9002 245.499 92.8002C243.899 92.7002 242.199 92.9002 240.599 92.7002C239.199 92.6002 239.299 93.3002 239.299 94.3002C239.299 95.2002 239.099 96.0002 240.599 95.9002C242.999 95.8002 245.399 95.8002 247.699 95.8002C247.699 97.1002 247.699 98.2002 247.699 99.2002Z" fill="#EFBA13"/>
<path d="M247.699 114.501C246.199 114.801 245.299 114.101 244.499 112.801C243.399 110.901 242.099 109.001 240.699 106.701C240.699 109.201 240.699 111.201 240.699 113.301C240.699 113.901 240.899 114.501 239.899 114.501C238.899 114.501 238.899 114.001 238.899 113.301C238.899 110.701 238.899 108.101 238.899 105.501C238.899 105.001 238.499 104.201 239.499 104.201C240.199 104.101 240.899 104.101 241.299 104.801C242.399 106.701 243.599 108.501 244.799 110.401C245.099 110.801 245.199 111.401 245.799 111.701C245.799 109.701 245.899 107.801 245.799 106.001C245.699 104.501 246.199 104.001 247.599 104.201C247.699 107.601 247.699 111.101 247.699 114.501Z" fill="#EFB90D"/>
<path d="M93.2998 98.9005C94.8998 98.2005 95.7998 96.7005 96.9998 95.6005C97.6998 95.0005 98.0998 94.9005 98.6998 95.6005C99.5998 96.6005 100.6 97.6005 101.7 98.5005C102.3 99.0005 102.3 99.4005 101.7 99.9005L101.6 100.001C100.4 101.101 99.3998 103.001 98.0998 103.201C96.6998 103.401 95.7998 101.201 94.4998 100.301C94.1998 100.001 93.9998 99.5005 93.3998 99.6005C93.2998 99.4005 93.2998 99.1005 93.2998 98.9005Z" fill="#EFB90D"/>
<path d="M152.6 91.1007C153.8 91.8007 154.9 92.5007 155.1 93.9007C155.6 96.3007 154.4 98.2007 152.1 98.8007C149.1 99.5007 146 99.0007 142.9 99.1007C142.2 99.1007 142.2 98.6007 142.2 98.2007C142.2 93.7007 142.2 89.3007 142.2 84.8007C142.2 84.0007 142.6 83.8007 143.3 83.9007C145.3 83.9007 147.4 83.9007 149.4 83.9007C151.4 83.9007 153.2 84.3007 154.1 86.2007C154.9 88.1007 154.2 89.8007 152.6 91.1007ZM148.1 96.2007C148.9 96.2007 149.6 96.2007 150.4 96.1007C151.3 96.0007 151.9 95.5007 151.9 94.5007C151.9 93.6007 151.4 93.1007 150.5 92.9007C149.1 92.6007 147.6 92.7007 146.2 92.7007C145.8 92.7007 145.6 92.8007 145.4 93.2007C144.8 95.0007 145.5 96.2007 147.4 96.2007C147.7 96.2007 147.9 96.2007 148.1 96.2007ZM148.1 90.1007C148.2 90.1007 148.8 90.1007 149.3 90.0007C150.2 89.9007 151 89.5007 151 88.4007C151 87.3007 150.2 86.9007 149.3 86.8007C148.4 86.7007 147.4 86.8007 146.5 86.7007C145.7 86.6007 145.4 87.0007 145.4 87.8007C145.3 90.1007 145.2 90.1007 148.1 90.1007Z" fill="#EFB90D"/>
<path d="M170.2 89.4008C170.2 92.5008 170.1 95.2008 170.2 97.8008C170.3 99.3008 169.4 99.1008 168.4 99.1008C167.4 99.1008 166.8 99.0008 166.8 97.7008C166.9 93.7008 166.8 89.7008 166.9 85.7008C166.9 85.1008 166.3 84.0008 167.4 83.8008C168.4 83.7008 169.7 83.2008 170.6 84.5008C172.4 87.0008 174.3 89.4008 176.2 91.8008C176.4 92.1008 176.7 92.4008 177.3 93.1008C177.3 90.2008 177.4 87.7008 177.3 85.2008C177.2 83.8008 177.9 83.8008 179 83.8008C180 83.8008 180.7 83.8008 180.7 85.2008C180.6 89.2008 180.7 93.2008 180.6 97.2008C180.6 97.8008 181.2 98.9008 180 99.1008C179 99.2008 177.9 99.5008 177 98.3008C175.1 95.7008 173.1 93.2008 171.2 90.7008C171 90.4008 170.8 90.1008 170.2 89.4008Z" fill="#EFB90D"/>
<path d="M212.4 93.3004C212.4 90.3004 212.5 87.8004 212.4 85.4004C212.3 84.1004 212.9 83.9004 214 83.9004C215 83.9004 215.7 83.9004 215.7 85.3004C215.6 89.3004 215.7 93.3004 215.6 97.3004C215.6 97.9004 216.2 99.0004 215 99.2004C214 99.4004 212.9 99.6004 212 98.4004C210.2 95.8004 208.2 93.3004 206.2 90.8004C206 90.5004 205.7 90.2004 205.2 89.5004C205.2 92.6004 205.1 95.2004 205.2 97.8004C205.3 99.3004 204.5 99.3004 203.4 99.3004C202.2 99.3004 201.8 99.0004 201.8 97.8004C201.9 93.9004 201.8 89.9004 201.9 86.0004C201.9 85.4004 201.3 84.3004 202.4 84.1004C203.5 83.9004 204.8 83.6004 205.7 84.9004C207.5 87.3004 209.3 89.7004 211.2 92.1004C211.5 92.3004 211.8 92.6004 212.4 93.3004Z" fill="#EFB90D"/>
<path d="M197.899 99.0005C195.999 99.6005 195.499 98.5005 195.199 97.4005C194.799 96.1005 194.099 95.5005 192.699 95.7005C192.099 95.8005 191.499 95.8005 190.999 95.7005C188.899 95.4005 187.399 95.8005 186.999 98.2005C186.899 99.0005 184.499 99.6005 183.699 99.1005C183.199 98.8005 183.499 98.4005 183.699 98.0005C185.599 93.5005 187.599 89.1005 189.399 84.6005C189.799 83.6005 190.499 83.7005 191.299 83.8005C192.099 83.8005 192.899 83.5005 193.299 84.6005C195.199 89.1005 197.099 93.5005 198.999 98.0005C199.799 99.9005 197.999 98.8005 197.899 99.0005ZM191.299 87.8005C190.599 89.4005 190.099 90.7005 189.499 92.0005C189.399 92.3005 189.299 92.7005 189.599 92.7005C190.699 92.8005 191.899 93.0005 192.899 92.7005C193.599 92.4005 192.799 91.5005 192.599 91.0005C192.199 90.0005 191.799 89.1005 191.299 87.8005Z" fill="#EFB90D"/>
<path d="M227.7 83.6006C228.8 83.6006 230.5 84.0006 232 85.0006C232.4 85.3006 233.7 85.6006 232.6 86.4006C231.9 87.0006 231.8 88.8006 230.2 87.7006C229.5 87.2006 228.7 86.8006 227.8 86.7006C225.6 86.4006 223.8 87.4006 223 89.3006C222.1 91.3006 222.6 93.8006 224.2 95.2006C225.7 96.6006 227.9 96.6006 229.9 95.5006C230.4 95.2006 230.8 94.2006 231.8 95.1006C233.4 96.6006 233.4 97.0006 231.5 98.2006C228.7 99.9006 224.6 99.7006 222 97.7006C219.4 95.7006 218.4 92.0006 219.5 88.9006C220.6 85.6006 223.4 83.6006 227.7 83.6006Z" fill="#EFB90D"/>
<path d="M160.9 107.2C159.9 108.9 158.9 110.5 157.8 112.4C156.7 110.6 155.7 109 154.7 107.3C154.6 107.3 154.5 107.4 154.3 107.4C154.3 109.3 154.3 111.3 154.3 113.2C154.3 113.8 154.5 114.5 153.5 114.6C152.4 114.6 152.7 113.8 152.7 113.3C152.7 110.8 152.7 108.2 152.7 105.7C152.7 105.2 152.3 104.4 153.3 104.3C154 104.2 154.8 104.1 155.2 105C156 106.5 156.9 107.9 157.8 109.6C158.7 108 159.6 106.6 160.4 105.2C160.9 104.3 161.6 104.1 162.4 104.3C163.3 104.5 162.9 105.3 162.9 105.9C162.9 108.4 162.9 111 162.9 113.5C162.9 114.1 162.9 114.6 162 114.6C161.1 114.6 161.2 114 161.2 113.4C161.2 111.4 161.2 109.3 161.2 107.3C161.1 107.2 161 107.2 160.9 107.2Z" fill="#EFBA13"/>
<path d="M159 91.4C159 89.3 159.1 87.1 159 85C158.9 83.5 160 83.9 160.8 83.9C161.6 83.9 162.6 83.6 162.5 85.1C162.4 89.4 162.4 93.8 162.5 98.1C162.5 99.6 161.5 99.2 160.7 99.2C159.9 99.2 158.9 99.5 159 98C159 95.8 159 93.6 159 91.4Z" fill="#EFBA13"/>
<path d="M184.6 114.3C183.2 114.8 182.5 114.3 182 113.3C181.6 112.5 181.2 111.8 180.8 111C180.3 110 179.4 110.4 178.6 110.4C177.8 110.5 178.2 111.2 178.1 111.7C178 112.4 178.1 113.1 178.1 113.8C178.1 114.4 177.8 114.6 177.2 114.6C176.7 114.6 176.3 114.5 176.3 113.9C176.3 110.9 176.3 108 176.3 105C176.3 104.2 176.8 104.2 177.3 104.2C178.6 104.2 179.9 104.2 181.1 104.2C182.6 104.2 183.8 104.8 184.2 106.3C184.6 107.7 184.4 109.1 182.9 109.9C182.2 110.3 182.3 110.6 182.6 111.1C183.4 112.1 184 113.1 184.6 114.3ZM180 109C180.2 109 180.3 109 180.4 109C181.3 109 182.4 109.1 182.6 107.9C182.8 107.2 182.8 106.3 181.9 105.9C180.8 105.4 179.4 105.2 178.4 105.9C177.7 106.3 178 107.7 178.2 108.5C178.5 109.4 179.5 108.8 180 109Z" fill="#EFB90D"/>
<path d="M218.7 109.501C218.7 110.801 218.7 112.201 218.7 113.501C218.7 114.001 218.7 114.501 217.9 114.501C217.1 114.501 216.9 114.201 216.9 113.501C216.8 112.401 217.5 110.801 216.6 110.201C215.8 109.601 214.4 110.101 213.2 110.001C212.1 109.901 211.6 110.301 211.7 111.401C211.8 112.101 211.7 112.801 211.7 113.501C211.7 114.101 211.6 114.501 210.9 114.501C210.2 114.501 210 114.301 210 113.601C210 110.801 210 107.901 210 105.101C210 104.501 210.2 104.101 210.9 104.101C211.6 104.101 211.9 104.301 211.8 105.001C211.8 105.101 211.8 105.101 211.8 105.201C212 108.901 212.1 108.901 216 108.601C216.8 108.501 217 108.301 217 107.501C217 106.601 217 105.801 217 104.901C217 104.101 217.4 104.101 218 104.101C218.6 104.101 218.8 104.401 218.8 104.901C218.7 106.501 218.7 108.001 218.7 109.501Z" fill="#EFB90D"/>
<path d="M174.399 113.7C174.499 114.2 174.399 114.4 174.099 114.5C173.699 114.5 173.199 114.7 172.799 114.3C172.699 114.2 172.599 114 172.599 113.8C172.399 111.8 170.999 111.8 169.399 111.7C167.999 111.7 167.299 112.1 166.999 113.5C166.799 114.4 166.199 114.8 165.399 114.5C164.499 114.2 165.199 113.5 165.399 113.1C166.299 110.5 167.299 107.9 168.299 105.3C168.599 104.6 168.899 104.2 169.799 104.2C170.699 104.2 171.099 104.5 171.399 105.3C172.299 107.9 173.299 110.5 174.299 113.1C174.199 113.3 174.299 113.6 174.399 113.7ZM171.199 110.2C170.699 108.7 170.199 107.3 169.699 105.7C168.899 107.3 168.499 108.7 168.099 110.2C169.099 110.4 170.099 110.3 171.199 110.2Z" fill="#EFBA13"/>
<path d="M225.4 104.2C226.4 103.9 226.8 104.401 227.1 105.301C228 108.001 229.1 110.601 230 113.301C230.1 113.701 230.7 114.3 229.9 114.6C229.2 114.8 228.5 114.701 228.3 113.801C228 112.201 227.1 111.801 225.5 111.901C224 111.901 222.9 112.101 222.7 113.801C222.6 114.801 221.8 114.9 221.1 114.6C220.4 114.3 220.9 113.701 221 113.301C222 110.601 222.9 108.001 223.9 105.301C224.2 104.501 224.5 103.9 225.4 104.2ZM225.5 105.6C224.9 107.1 224.5 108.201 224.1 109.401C224 109.701 223.8 110.301 224.5 110.301C225.3 110.301 226.3 110.5 226.9 110.2C227.4 109.9 226.7 109.101 226.5 108.501C226.2 107.601 225.9 106.8 225.5 105.6Z" fill="#EFBA13"/>
<path d="M128.6 103.5C128.2 103.1 127.7 102.7 127.3 102.2C124.2 99.2001 124.3 99.3001 127.2 96.2001C128.5 94.9001 129.2 94.9002 130.3 96.3002C131.1 97.4002 133 98.1002 132.9 99.3002C132.8 100.3 131.3 101.2 130.3 102.2C129.8 102.6 129.4 103.2 128.6 103.5Z" fill="#EFBA13"/>
<path d="M146.5 104C147.5 104 148.5 104.2 149.3 104.8C149.6 105 150.3 105.2 149.9 105.8C149.6 106.2 149.2 106.7 148.5 106.2C147.8 105.6 146.9 105.5 146 105.5C145.2 105.6 144.5 105.8 144.3 106.7C144.2 107.7 144.9 108 145.7 108.2C146.5 108.4 147.4 108.6 148.2 108.8C149.4 109.2 150.2 109.9 150.3 111.2C150.4 112.7 149.7 113.7 148.4 114.2C146.6 114.9 144.7 114.8 143.1 113.7C142.8 113.5 142 113.3 142.6 112.6C143 112.1 143.5 111.9 144.1 112.4C145 113.2 146.1 113.3 147.2 113.1C147.9 113 148.5 112.6 148.5 111.7C148.6 110.8 148.1 110.4 147.4 110.2C146.7 110 146 109.9 145.4 109.8C143.3 109.3 142.4 108.3 142.6 106.7C142.8 105.2 144 104.2 146 104.1C146.1 104 146.3 104 146.5 104Z" fill="#EFBA13"/>
<path d="M113.299 103.5C113.099 103.3 112.799 103.2 112.599 103C111.499 102 110.499 100.9 109.399 99.8003C108.899 99.3003 108.899 99.0003 109.399 98.5003C109.499 98.4003 109.599 98.3003 109.699 98.3003C113.399 94.4003 113.399 94.4003 116.999 98.4003C117.299 98.8003 117.799 99.1003 117.199 99.7003C115.999 100.8 114.899 102 113.699 103.1C113.599 103.3 113.499 103.4 113.299 103.5Z" fill="#EFB90D"/>
<path d="M201.2 109.601C201.1 110.801 201.2 112.201 202.6 112.901C204 113.601 205.3 113.301 206.3 112.001C206.7 111.501 207.1 111.801 207.5 112.101C208.2 112.501 207.6 112.901 207.4 113.201C205.6 115.501 201.1 115.001 199.8 112.401C198.9 110.401 198.9 108.301 199.8 106.301C201 103.701 205.4 103.101 207.2 105.301C207.5 105.601 208.1 106.001 207.5 106.401C207.1 106.701 206.6 107.201 206.1 106.501C205.1 105.301 203.9 105.101 202.5 105.701C201.5 106.401 201.2 107.201 201.2 109.601Z" fill="#EFBA13"/>
<path d="M189 110.001C189 109.401 189 108.701 189 108.101C189 105.701 189 105.701 186.6 105.501C186.2 105.501 185.6 105.601 185.6 104.901C185.6 104.101 186 104.101 186.6 104.101C188.8 104.101 191 104.101 193.2 104.101C193.7 104.101 194.1 104.101 194.2 104.801C194.2 105.601 193.7 105.501 193.2 105.601C190.8 105.801 190.8 105.801 190.8 108.201C190.8 110.001 190.8 111.801 190.8 113.601C190.8 114.201 190.8 114.601 190 114.601C189.2 114.601 189 114.301 189 113.601C189 112.401 189 111.201 189 110.001Z" fill="#EFB90D"/>
<path d="M235.1 109.3C235.1 110.7 235.1 112.1 235.1 113.4C235.1 114.1 235 114.5 234.1 114.4C233.4 114.4 233.2 114 233.2 113.4C233.2 110.6 233.2 107.8 233.2 104.9C233.2 104.3 233.3 104 234.1 103.9C234.9 103.9 235.1 104.3 235 105C235.1 106.6 235.1 107.9 235.1 109.3Z" fill="#EFB90D"/>
</svg>
