<svg xmlns="http://www.w3.org/2000/svg" width="98" height="20" viewBox="0 0 98 20"><g><g><path fill="#8067d0" d="M61.174 17.752c-.017-.02-.026-.073-.082-.06-.054.015-.039.069-.039.109 0 .037.012.077.06.066.046-.01.065-.05.061-.115z"/></g><g><path fill="#000001" d="M15.5 16.933c-.09-.1-.16-.107-.28-.063-.646.24-1.295.474-1.946.704-.948.334-1.856.306-2.686-.328-.063-.05-.121-.068-.2-.04-1.472.503-2.974.576-4.5.32-1.114-.268-2.127-.741-2.99-1.507-1.39-1.234-2.154-2.795-2.363-4.63C.3 9.336.737 7.433 1.984 5.767c1.585-2.117 3.744-3.09 6.378-3.035.34.007.682.052 1.023.078.579.112 1.168.212 1.689.494.4.217.743.243 1.188.096.806-.265 1.643-.438 2.474-.621.897-.197 1.726-.075 2.395.625.05.054.093.063.169.043.88-.225 1.76-.452 2.647-.657.832-.193 1.623-.121 2.304.46.067.057.128.05.2.03l2.016-.485c.794-.19 1.547-.124 2.23.36.093.127.202.149.359.109.705-.177 1.414-.335 2.12-.507 1.174-.287 2.19.107 2.774 1.077.115.19.174.403.274.628A2.506 2.506 0 0 1 33.9 3.3c.405-.085.805-.195 1.21-.282.679-.145 1.342-.395 2.055-.343.52.058.986.236 1.37.605.632.606.839 1.356.762 2.205-.151 1.672-.303 3.344-.46 5.015-.013.145 0 .206.175.189.48-.046.96-.044 1.424.12.078.887.275 1.747.583 2.582.16.436.389.84.574 1.266-.193.609-.382 1.22-.797 1.73-.425.52-.964.855-1.611 1.023-.597.155-1.21.106-1.817.145-1.294.08-2.591.058-3.885.114a4.425 4.425 0 0 1-.868-.074c-.083-.02-.166-.027-.247-.068-.172-.087-.353-.087-.547-.057-.475.078-.958.058-1.438.086-1.316.077-2.633.063-3.95.112-.58.022-1.131-.093-1.632-.395-.112-.067-.208-.06-.325-.035-.677.137-1.317.409-2 .52-.818.133-1.535-.078-2.151-.62-.131-.115-.23-.124-.383-.066-.674.252-1.343.52-2.053.66-.107.022-.216.032-.324.048-.82.036-1.511-.241-2.064-.847zm1.742-5.403c.177-.008.209.058.193.21-.082.778-.17 1.556-.237 2.336-.035.404-.038.812-.047 1.219-.004.169.087.252.263.236.079-.007.156-.013.235-.036.673-.194 1.322-.454 1.98-.692.23-.083.29-.216.302-.432.019-.355.058-.708.092-1.062.083-.844.179-1.687.248-2.532.07-.86.14-1.723.286-2.57.16-.941.197-1.89.284-2.834.039-.423-.07-.498-.493-.4-.724.17-1.445.35-2.17.52-.21.05-.304.175-.304.385 0 .167.007.336-.008.502-.081.902-.17 1.804-.25 2.708-.01.116-.033.157-.158.156a95.77 95.77 0 0 0-2.144.006c-.146.003-.173-.05-.155-.174.033-.236.05-.476.095-.71.179-.92.209-1.857.29-2.787.016-.162.059-.328.014-.496-.02-.073-.04-.125-.122-.122-.124.005-.251-.01-.37.018-.64.15-1.278.31-1.916.466-.436.106-.436.106-.487.555-.01.079-.03.158-.035.237-.076.925-.148 1.85-.227 2.774-.02.222-.074.43-.21.624-.34.488-.657.99-.982 1.489-.174.265-.117.395.199.423.203.018.408.009.612.007.093-.001.15.005.135.128-.031.252-.037.507-.067.759-.108.9-.16 1.806-.202 2.712-.015.338.082.415.415.375a.832.832 0 0 0 .168-.044c.659-.235 1.316-.474 1.976-.705.15-.053.217-.148.23-.302.087-.938.179-1.876.26-2.814.01-.11.043-.131.142-.13.365.006.729.002 1.094.002.357 0 .715.012 1.07-.005zm-8.738 3.826c.589-.088 1.16-.225 1.683-.523.063-.036.118-.068.118-.161.003-.648.018-1.294.019-1.942 0-.213-.08-.263-.251-.164-.56.32-1.162.465-1.803.496-.958.046-1.58-.106-2.055-1.114-.486-1.03-.5-2.12-.04-3.175.49-1.125 1.583-1.652 2.768-1.364.49.119.922.374 1.34.647.109.073.218.143.346.18.286.086.382.02.367-.278-.026-.543-.108-1.09-.082-1.63.028-.587-.307-.828-.765-1.015-.697-.284-1.423-.363-2.171-.357-1.546.013-2.851.578-3.872 1.724-1.24 1.393-1.603 3.04-1.284 4.856.38 2.173 2.19 3.976 4.703 3.868.326-.011.653 0 .979-.048zm27.93-.003a93.389 93.389 0 0 0 2.05-.09c.293-.017.532-.156.66-.43.252-.542.399-1.122.593-1.686.05-.147-.02-.241-.205-.241-.33-.001-.653.043-.978.075-.687.067-1.374.13-2.06.203-.102.01-.13-.018-.122-.113.018-.225.03-.45.049-.673.047-.55.095-1.097.146-1.646.066-.714.136-1.43.203-2.143.059-.613.084-1.23.16-1.842.065-.532.102-1.068.14-1.603.017-.238-.056-.295-.283-.242-.814.19-1.626.386-2.44.579-.127.03-.191.102-.217.234-.04.195-.018.392-.031.587-.058.854-.113 1.708-.172 2.562-.042.622-.087 1.244-.136 1.866-.068.845-.15 1.689-.21 2.536-.03.412-.052.814-.274 1.185-.121.203-.197.433-.275.658-.072.204-.022.268.192.269.445.003.889 0 1.334 0 .626.017 1.252-.022 1.877-.045zm-5.026-.088c.332-.015.597-.168.717-.48.205-.535.388-1.08.567-1.625.046-.14.004-.251-.191-.254-.315-.006-.624.037-.935.065-.702.065-1.403.136-2.103.212-.114.012-.143-.018-.133-.123.019-.217.029-.434.048-.651.045-.542.09-1.083.14-1.624.068-.721.143-1.442.208-2.162.04-.448.063-.898.103-1.346.063-.7.14-1.398.198-2.1.022-.26-.058-.311-.31-.25-.771.186-1.54.384-2.314.55-.246.053-.326.18-.338.396-.046.81-.09 1.623-.138 2.434-.028.47-.06.942-.096 1.41-.051.645-.113 1.288-.165 1.93-.05.622-.098 1.244-.136 1.866-.022.36-.113.69-.293 1.005-.106.186-.174.396-.244.6-.075.219-.03.279.198.28.437.003.875 0 1.312 0 1.303-.005 2.604-.072 3.905-.133zm-9.123.254c.69-.235 1.409-.364 2.1-.598.182-.062.25-.17.264-.343.027-.34.058-.68.086-1.018.088-1.04.178-2.08.26-3.12.088-1.084.177-2.17.249-3.254.039-.594.055-1.19.127-1.78.05-.41-.002-.482-.41-.443-.042.004-.084.018-.126.028-.696.165-1.39.338-2.088.492-.225.05-.315.167-.322.387-.01.31-.032.623-.055.933-.053.732-.112 1.462-.166 2.193-.048.658-.09 1.317-.138 1.975-.054.739-.114 1.476-.168 2.213-.048.659-.086 1.319-.14 1.977-.023.306.019.369.372.369.01-.001.089.012.155-.011z"/></g><g><path fill="#000001" d="M79.288 17.468c-.64.07-1.29.065-1.935.084-1.06.034-2.119.06-3.178.089-.602.01-1.172-.106-1.69-.426-.088-.053-.166-.02-.25-.003-.609.119-1.186.353-1.793.477-.793.162-1.548.063-2.21-.422a2.35 2.35 0 0 1-.855-1.203c-.082-.007-.097.062-.13.104a2.73 2.73 0 0 1-1.387.941c-.768.221-1.529.488-2.319.606-1.178.177-2.155-.396-2.648-1.481-.02-.046-.044-.091-.066-.137l-1.503-5.936c-.012-.115-.03-.231-.035-.346a10.172 10.172 0 0 0-.454-2.675c-.153-.477-.369-.928-.552-1.393.006-.262.006-.524.08-.779.297-1.045 1.022-1.644 2.038-1.925.696-.194 1.415-.268 2.13-.352.935-.11 1.782.074 2.457.784.18.241.18.242.408.074a2.62 2.62 0 0 1 .732-.381 10.84 10.84 0 0 1 2.302-.476c.737-.079 1.454-.015 2.094.413.092.062.184.024.274.003.41-.097.823-.185 1.23-.296.924-.255 1.79-.188 2.563.436.074.027.142-.001.213-.018l2.184-.516c1.103-.261 2.1.127 2.673 1.038.131.208.208.44.306.685.428-.69 1.048-1.039 1.813-1.196.797-.164 1.583-.374 2.375-.564l.151-.018c1.161-.146 2.16.428 2.578 1.472.045.112.027.32.123.319.11-.002.167-.188.232-.304.263-.467.611-.842 1.12-1.048a2.24 2.24 0 0 1 .884-.178 52.169 52.169 0 0 0 5.535-.192c.611-.053 1.211-.087 1.793.157.734.375 1.227.942 1.385 1.765.1.523.012 1.031-.17 1.522a49.231 49.231 0 0 1-.705 1.783 2.362 2.362 0 0 1-.628.855c-.049.043-.1.083-.092.162.075.682-.177 1.285-.45 1.883-.013.026-.023.055-.039.079-.13.188-.095.28.127.391.751.38 1.167 1.003 1.238 1.848.056.668-.07 1.282-.464 1.841-.277.392-.51.812-.767 1.219-.476.757-1.152 1.217-2.04 1.358-.02.004-.04.016-.06.024-1.268.055-2.532-.018-3.796-.102-.755-.049-1.514-.079-2.259-.199-.369-.06-.692.014-1.037.088-.665.144-1.347.106-2.022.139-1.214.057-2.429.069-3.644.091a5.048 5.048 0 0 1-.717-.044c-.369-.156-.742-.163-1.143-.12zm12.36-4.125c-.13.002-.159-.035-.145-.161.062-.584.12-1.169.166-1.754.01-.117.042-.141.151-.143.422-.007.843-.026 1.265-.035.136-.003.243-.043.3-.172.245-.554.498-1.105.728-1.664.121-.296.033-.405-.286-.396a80.38 80.38 0 0 0-1.702.057c-.153.007-.22-.005-.196-.188.056-.438.111-.879.125-1.32.007-.222.1-.245.274-.25.814-.025 1.628-.06 2.442-.085.15-.005.258-.065.306-.2.215-.604.515-1.176.678-1.8.046-.179-.024-.285-.208-.285-.197-.001-.393.017-.589.029-1.039.067-2.074.188-3.116.202-.794.012-1.589.003-2.384.003-.093 0-.174-.009-.238.099-.347.587-.709 1.166-1.058 1.752-.164.276-.096.395.228.413.204.011.41.014.612 0 .153-.011.198.03.185.186a64.783 64.783 0 0 0-.132 1.867.725.725 0 0 1-.146.419c-.246.324-.49.65-.72.986-.16.232-.114.329.166.374.143.023.291.021.436.014.11-.005.132.029.123.135a117.2 117.2 0 0 0-.126 1.67c-.023.326-.064.64-.264.919-.172.241-.319.501-.469.757-.123.208-.042.346.201.363.594.043 1.188.095 1.782.141 1.176.09 2.353.138 3.533.123.177-.002.341-.06.445-.195.381-.495.683-1.043.998-1.581.11-.187.03-.282-.195-.282h-1.553c-.539 0-1.079-.003-1.618.002zm-27.362-4.53c-.275-1.186-.55-2.374-.828-3.56-.068-.289-.137-.349-.435-.333-.68.034-1.354.138-2.015.303-.455.113-.535.279-.422.727.478 1.887.953 3.775 1.428 5.663l.918 3.647c.042.168.11.292.322.273.15-.013.27-.099.41-.136.48-.127.957-.268 1.44-.388.273-.067.432-.228.534-.483.952-2.378 1.908-4.754 2.864-7.13.276-.688.556-1.376.828-2.067.111-.281.025-.406-.257-.412-.726-.019-1.42.156-2.113.339a.482.482 0 0 0-.36.333c-.356 1.021-.723 2.038-1.086 3.056l-.768 2.162-.46-1.994zm14.834 6.456c.378-.017.662-.17.796-.529.193-.519.371-1.042.546-1.567.06-.173-.015-.256-.198-.266-.32-.017-.638.036-.957.065-.687.062-1.373.131-2.059.205-.137.016-.159-.036-.147-.153.021-.209.031-.42.048-.629.046-.542.091-1.084.141-1.626.068-.728.143-1.457.208-2.185.04-.434.05-.87.1-1.303.083-.692.145-1.385.2-2.078.023-.289-.05-.342-.329-.276-.79.187-1.582.376-2.374.562-.134.031-.208.1-.237.242-.039.195-.017.392-.03.587-.058.861-.113 1.723-.172 2.584-.042.615-.077 1.23-.138 1.844-.088.881-.146 1.762-.213 2.644-.027.35-.038.7-.24 1.018a2.702 2.702 0 0 0-.296.694c-.073.246-.038.296.222.297h1.192c1.38-.011 2.658-.072 3.937-.13zm6.98.002c.397-.017.688-.177.827-.551.19-.51.364-1.028.535-1.546.061-.183-.013-.263-.215-.268-.336-.007-.667.044-.999.077-.665.065-1.33.125-1.994.194-.132.015-.163-.026-.152-.149.034-.375.06-.751.091-1.126.044-.527.083-1.055.14-1.58.083-.777.164-1.555.212-2.336a15.7 15.7 0 0 1 .095-1.104 30.56 30.56 0 0 0 .16-1.709c.018-.26-.055-.31-.313-.25-.768.184-1.533.381-2.305.546-.242.053-.332.172-.344.393-.032.572-.06 1.144-.095 1.717a98.106 98.106 0 0 1-.11 1.628c-.062.788-.133 1.575-.194 2.363-.05.643-.096 1.286-.135 1.931-.022.358-.11.69-.29 1.005-.106.186-.173.396-.243.6-.082.235-.039.291.2.292.43.002.86.001 1.29 0 1.28-.01 2.56-.072 3.838-.127zm-16.089.254c.742-.237 1.513-.375 2.245-.645.077-.029.11-.074.13-.154.06-.226.053-.46.073-.689.086-.952.153-1.906.231-2.859.107-1.33.22-2.659.326-3.989.047-.593.066-1.187.126-1.778.044-.434-.015-.513-.447-.447-.02.002-.042.008-.063.014l-2.079.506c-.31.074-.34.116-.358.439-.026.485-.056.969-.092 1.454-.054.722-.117 1.444-.17 2.167-.049.665-.089 1.331-.136 1.996-.055.765-.115 1.531-.172 2.297-.032.441-.055.882-.097 1.323-.029.296.021.37.31.367.057 0 .12.015.173-.002z"/></g><g><path fill="#7f23b9" d="M58.836 7.14c.279.871.414 1.764.453 2.675.005.115.024.23.036.346-.108.421-.077.86-.147 1.288a9.933 9.933 0 0 1-.633 2.226c-.103.247-.23.485-.341.73-.064.14-.15.263-.26.37a3.794 3.794 0 0 1-.67.315c-.804.268-1.627.27-2.454.16-.495-.069-.99-.136-1.47-.285 0-2.006.002-4.012-.001-6.018 0-.08.057-.2-.09-.23l.004-.082c.059-.054.12-.105.173-.164.5-.565.997-1.133 1.497-1.699.072-.08.167-.157.116-.28-.056-.14-.189-.112-.302-.114-.479-.005-.959-.008-1.438-.012 0-1.599 0-3.199-.004-4.797 0-.098.027-.186.046-.278.22.03.408.15.601.243a9.473 9.473 0 0 1 3.062 2.354c.255.294.497.602.697.941.182.31.38.612.571.918.183.464.4.916.553 1.393zM56.9 9.082c-.14-.027-.199-.094-.22-.224a27.396 27.396 0 0 0-.125-.706c-.008-.039.002-.1-.056-.105-.07-.006-.073.058-.082.106-.044.243-.09.485-.13.728-.02.117-.075.175-.198.19-.166.02-.329.057-.492.09-.04.005-.094-.006-.092.06 0 .064.054.053.094.061.163.03.326.063.49.088.116.017.178.07.196.192.034.236.084.47.126.704.01.055-.01.136.068.14.091.003.083-.092.094-.148.043-.219.078-.44.11-.663.02-.138.072-.212.227-.237.181-.029.372-.039.57-.13-.197-.11-.396-.109-.58-.146z"/></g><g><path fill="#608bde" d="M45.784 18.585c-.25-.21-.56-.324-.833-.499-.425-.272-.846-.552-1.224-.891.074-.376.102-.756.14-1.136.062-.603.14-1.202.209-1.804.049-.43.088-.86.14-1.29.01-.073.014-.191.147-.173.252.032.503.06.753.1.485.08.97.167 1.454.25.617.157 1.233.316 1.85.467.45.11.884.285 1.345.352l-.001 1.135c-.223.552-.434.697-1.038.695-.351-.001-.587.189-.763.462-.112.173-.2.387-.09.574.103.172.319.089.488.097l.022-.002 2.475-.003c-.043.824-.174 1.639-.262 2.457-.032.038-.075.04-.12.042-1.005.037-2.002-.025-2.982-.264a8.266 8.266 0 0 1-1.46-.508.493.493 0 0 0-.25-.06z"/></g><g><path fill="#88b4d4" d="M50.596 19.376c.088-.818.219-1.633.262-2.457.064-.051.14-.03.21-.03.452-.001.904 0 1.356 0 .422 0 .485-.086.346-.49a.743.743 0 0 0-.068-.134c-.21-.343-.517-.484-.918-.473-.47.012-.856-.312-.883-.73-.015-.24.002-.48.005-.72.252.066.505.13.758.198.56.149 1.113.328 1.687.426.479.148.974.216 1.469.283.827.11 1.65.109 2.454-.158.236-.08.455-.194.67-.316-.088.342-.337.587-.526.868-.36.532-.81.986-1.288 1.408a9.375 9.375 0 0 1-3.844 2.056c-.553.148-1.113.266-1.69.269z"/></g><g><path fill="#1920e7" d="M45.116 12.892c-.25-.04-.501-.068-.752-.1-.134-.018-.138.1-.147.172-.053.43-.092.861-.141 1.29-.068.602-.147 1.201-.208 1.804-.04.38-.067.761-.14 1.137a9.292 9.292 0 0 1-2.072-2.48c-.014-.024-.042-.04-.063-.058-.185-.425-.413-.83-.574-1.266a9.908 9.908 0 0 1-.583-2.582c-.017-.47-.038-.939-.005-1.412a9.362 9.362 0 0 1 3.582-6.786c.797-.63 1.67-1.133 2.644-1.45l-.003 3.814c-.426-.3-.9-.446-1.416-.355a1.804 1.804 0 0 0-1.485 1.645c-.057.704.382 1.46 1.07 1.761.57.251 1.115.176 1.65-.1.155.035.095.161.095.25.004 1.655.003 3.311.003 4.966-.485-.084-.97-.17-1.455-.25zm-.733-1.475c.158.015.206.093.223.237.023.193.062.385.108.575.012.051-.02.157.08.147.063-.006.059-.089.069-.145.033-.199.07-.399.099-.599.018-.132.069-.198.214-.222.162-.027.34-.022.525-.145-.156-.03-.268-.065-.383-.07-.25-.015-.362-.128-.388-.387-.02-.203-.028-.422-.168-.672-.06.31-.117.553-.152.801-.021.152-.102.205-.24.227-.16.027-.327.031-.536.143.227.047.386.095.549.11z"/></g><g><path fill="#fdfdfd" d="M16.17 11.535c-.365 0-.729.004-1.094-.002-.099-.001-.132.02-.14.13-.083.938-.174 1.876-.26 2.814-.014.154-.08.249-.232.302-.659.232-1.317.47-1.976.705a.823.823 0 0 1-.167.044c-.334.04-.43-.037-.415-.375.041-.906.093-1.81.201-2.712.031-.252.036-.507.067-.76.015-.122-.042-.127-.135-.126-.204 0-.409.01-.612-.008-.315-.028-.372-.158-.199-.423.325-.498.642-1.001.982-1.488.137-.195.191-.403.21-.624.08-.925.151-1.85.227-2.775.007-.08.026-.158.035-.237.051-.448.051-.448.487-.555.64-.155 1.277-.315 1.917-.466.118-.027.246-.013.37-.018.082-.003.102.05.121.122.045.168.002.334-.012.496-.083.93-.113 1.867-.29 2.787-.047.234-.063.474-.097.71-.017.124.01.177.156.174a95.68 95.68 0 0 1 2.143-.006c.126 0 .15-.04.16-.156.078-.904.168-1.806.248-2.708.015-.166.01-.335.01-.502-.002-.21.093-.335.304-.385.723-.17 1.445-.35 2.168-.52.424-.098.532-.023.493.4-.086.945-.122 1.893-.283 2.834-.145.848-.216 1.71-.287 2.57-.069.845-.165 1.688-.247 2.532-.035.354-.074.707-.093 1.062-.012.216-.072.35-.3.433-.659.237-1.309.497-1.982.69-.079.024-.155.03-.235.037-.176.016-.267-.067-.263-.236.01-.406.012-.815.047-1.22.068-.78.155-1.557.238-2.335.016-.152-.017-.218-.194-.21-.356.017-.714.005-1.07.005z"/></g><g><path fill="#fdfdfd" d="M7.524 15.404c-2.51.108-4.322-1.695-4.703-3.868-.319-1.816.044-3.463 1.284-4.856 1.022-1.146 2.326-1.711 3.872-1.724.748-.006 1.474.073 2.171.357.458.187.793.428.765 1.016-.025.54.056 1.086.083 1.629.014.299-.08.364-.368.279a1.278 1.278 0 0 1-.345-.181c-.419-.273-.85-.528-1.34-.647-1.186-.288-2.279.239-2.769 1.364-.459 1.056-.445 2.145.041 3.175.475 1.008 1.096 1.16 2.054 1.114.641-.031 1.244-.175 1.803-.496.173-.1.252-.05.252.164-.002.648-.016 1.294-.02 1.942 0 .093-.054.125-.117.16-.523.299-1.094.436-1.683.524-.326.049-.653.037-.98.048z"/></g><g><path fill="#fdfdfd" d="M34.557 15.399c-.445 0-.889.002-1.334-.001-.213-.001-.264-.065-.192-.27.078-.224.154-.455.275-.657.222-.371.246-.773.275-1.185.06-.847.141-1.691.21-2.536.048-.622.093-1.245.136-1.867.058-.853.113-1.707.171-2.561.013-.195-.009-.392.031-.587.027-.132.09-.204.218-.234.813-.193 1.625-.389 2.44-.58.227-.052.3.004.282.243-.038.535-.075 1.071-.14 1.603-.075.612-.1 1.229-.16 1.842-.066.714-.136 1.429-.202 2.143a223.49 223.49 0 0 0-.147 1.646c-.019.224-.03.448-.049.673-.008.095.02.124.122.113.686-.072 1.373-.137 2.06-.203.326-.032.65-.076.979-.075.185 0 .256.094.205.241-.195.564-.342 1.144-.594 1.686-.127.274-.366.413-.658.43a93.57 93.57 0 0 1-2.05.09c-.625.023-1.25.062-1.877.046z"/></g><g><path fill="#fdfdfd" d="M27.503 15.399c-.437 0-.875.002-1.312-.001-.227-.001-.273-.061-.198-.28.07-.204.138-.414.244-.6.18-.315.27-.645.293-1.005.038-.622.086-1.244.136-1.865.052-.644.113-1.286.165-1.93.037-.469.068-.94.096-1.411.048-.811.092-1.623.138-2.434.012-.216.09-.343.337-.396.776-.166 1.544-.364 2.315-.55.252-.061.332-.009.31.251-.058.7-.135 1.4-.198 2.099-.04.448-.063.897-.103 1.346-.065.72-.14 1.441-.207 2.162-.051.541-.096 1.082-.142 1.624-.018.217-.03.434-.048.651-.01.105.02.135.133.123.7-.076 1.402-.147 2.103-.212.31-.028.62-.071.936-.065.195.003.237.114.19.254-.178.545-.361 1.09-.567 1.625-.12.312-.385.465-.716.48-1.301.061-2.602.128-3.905.134z"/></g><g><path fill="#fdfdfd" d="M22.13 15.53c-.353 0-.395-.063-.371-.37.053-.657.09-1.317.139-1.976.054-.737.114-1.474.168-2.213.048-.658.09-1.317.138-1.975.054-.731.113-1.461.166-2.193.023-.31.045-.622.055-.933.007-.22.097-.337.322-.387.698-.154 1.392-.327 2.088-.492.042-.01.084-.024.127-.028.407-.04.459.033.409.443-.072.59-.088 1.186-.127 1.78-.072 1.085-.161 2.17-.248 3.254-.083 1.04-.173 2.08-.261 3.12-.028.339-.06.679-.086 1.018-.014.173-.082.28-.264.343-.691.234-1.41.363-2.1.598-.066.023-.144.01-.155.01z"/></g><g><path fill="#fdfdfd" d="M93.266 13.341h1.553c.224 0 .303.095.194.281-.314.538-.616 1.086-.997 1.581-.104.135-.27.194-.446.196a40.46 40.46 0 0 1-3.533-.123c-.594-.046-1.187-.098-1.781-.14-.243-.019-.324-.156-.202-.364.15-.256.298-.516.47-.757.2-.279.24-.594.264-.919.039-.557.079-1.114.126-1.67.009-.106-.013-.14-.123-.136-.145.007-.294.01-.436-.013-.281-.045-.326-.142-.167-.374.23-.336.474-.663.72-.987a.718.718 0 0 0 .146-.419c.035-.623.08-1.245.132-1.866.013-.156-.032-.197-.184-.186-.203.013-.408.01-.612 0-.324-.018-.392-.137-.228-.414.349-.586.71-1.165 1.058-1.752.064-.108.145-.098.238-.098.794 0 1.589.01 2.384-.003 1.04-.015 2.076-.136 3.115-.202.196-.012.393-.03.589-.03.185 0 .255.107.208.286-.163.624-.463 1.196-.677 1.8-.048.134-.157.195-.306.2-.815.025-1.63.06-2.443.085-.174.004-.267.028-.274.25-.013.441-.068.881-.125 1.32-.023.183.043.194.196.187a74.4 74.4 0 0 1 1.702-.056c.319-.009.408.1.286.395-.23.56-.482 1.111-.727 1.664-.057.13-.165.17-.301.172-.422.01-.843.03-1.265.035-.108.002-.141.027-.15.144-.047.585-.105 1.17-.167 1.754-.013.126.015.163.145.161.539-.006 1.078-.002 1.618-.002z"/></g><g><path fill="#fdfdfd" d="M64.746 10.807l.768-2.162c.363-1.019.73-2.035 1.085-3.056a.482.482 0 0 1 .361-.333c.693-.183 1.387-.358 2.113-.34.282.007.368.131.257.412-.27.692-.55 1.38-.828 2.068-.955 2.376-1.912 4.752-2.864 7.13-.102.255-.26.416-.534.483-.483.12-.96.261-1.44.388-.14.037-.26.123-.41.136-.212.02-.279-.105-.322-.273-.305-1.216-.61-2.432-.917-3.647-.476-1.888-.95-3.777-1.428-5.663-.114-.449-.034-.615.421-.727a10.47 10.47 0 0 1 2.015-.304c.298-.015.367.044.435.333.278 1.187.553 2.374.828 3.561.15.645.298 1.292.46 1.994z"/></g><g><path fill="#fdfdfd" d="M75.183 15.399h-1.192c-.26-.001-.295-.051-.222-.297.071-.243.161-.483.295-.694.203-.318.214-.668.241-1.018.067-.882.125-1.763.213-2.644.061-.614.096-1.229.138-1.844.06-.861.114-1.723.172-2.584.013-.195-.009-.392.03-.587.03-.143.103-.211.237-.242.792-.186 1.583-.375 2.374-.562.278-.066.352-.013.33.276a51.948 51.948 0 0 1-.2 2.078c-.052.432-.062.869-.1 1.303-.066.728-.14 1.457-.209 2.185-.05.542-.095 1.084-.14 1.626-.018.209-.028.42-.049.629-.012.117.01.169.148.153.685-.074 1.372-.143 2.058-.205.32-.029.636-.082.957-.065.184.01.257.093.2.266a50.938 50.938 0 0 1-.548 1.567c-.134.359-.418.512-.796.529-1.279.058-2.558.119-3.937.13z"/></g><g><path fill="#fdfdfd" d="M82.261 15.399c-.43 0-.86.001-1.29-.001-.239-.001-.282-.057-.2-.292.07-.204.137-.414.243-.601.18-.314.268-.646.29-1.004.04-.645.085-1.289.135-1.931.061-.788.132-1.575.193-2.363.042-.542.078-1.085.111-1.628.035-.573.063-1.145.095-1.717.012-.221.102-.34.344-.393.772-.165 1.537-.362 2.305-.546.258-.06.331-.01.312.25a30.56 30.56 0 0 1-.159 1.709c-.047.366-.073.736-.095 1.104a52.08 52.08 0 0 1-.212 2.336c-.057.525-.096 1.053-.14 1.58-.032.375-.057.751-.09 1.126-.012.123.02.164.151.149.664-.069 1.33-.129 1.994-.194.332-.033.663-.084 1-.077.201.005.275.085.214.268a43.37 43.37 0 0 1-.535 1.546c-.139.374-.43.533-.828.551-1.279.055-2.558.117-3.838.128z"/></g><g><path fill="#fdfdfd" d="M69.837 15.527c-.288.003-.338-.071-.309-.367.042-.441.065-.882.097-1.323.057-.766.117-1.532.172-2.297.047-.665.087-1.331.136-1.996.053-.723.116-1.445.17-2.167.036-.485.066-.969.092-1.454.017-.323.047-.365.358-.439l2.08-.506c.02-.006.041-.012.062-.014.432-.066.491.013.447.447-.06.591-.079 1.185-.126 1.778-.106 1.33-.219 2.659-.326 3.989-.078.953-.145 1.907-.23 2.859-.02.229-.015.463-.074.689-.02.08-.053.125-.13.154-.732.27-1.503.408-2.245.645-.053.017-.116.002-.174.002z"/></g><g><path fill="#4b1fd1" d="M47.827.811c.05-.01.096-.029.143-.044.73-.118 1.462-.204 2.204-.172a9.842 9.842 0 0 1 3.088.637c.033.012.06.04.09.06-.02.091-.047.18-.047.277.003 1.598.003 3.198.004 4.797-.043.003-.087.01-.13.01l-5.686.002c-.058 0-.116-.008-.174-.013.006-.573-.257-1.016-.666-1.39l.004-3.813c.377-.16.773-.258 1.17-.35zm3.684 2.998c.146.03.207.085.228.234.04.287.103.57.16.852.007.044-.004.112.075.106.073-.005.058-.068.066-.115.043-.249.105-.496.128-.747.021-.237.13-.337.362-.362.18-.02.368-.035.597-.153-.27-.055-.478-.114-.689-.135-.176-.019-.233-.112-.258-.264-.043-.27-.095-.543-.142-.814-.009-.049-.004-.114-.073-.115-.074 0-.057.073-.066.118-.053.27-.11.54-.152.811-.024.162-.093.231-.26.26-.209.035-.429.043-.68.16.264.107.488.122.704.164z"/></g><g><path fill="#fdfdfd" d="M47.32 6.365c.057.005.115.014.173.014l5.685-.003c.045 0 .088-.007.132-.01.478.004.958.007 1.437.013.114.002.247-.028.303.112.05.124-.044.2-.116.28-.5.568-.998 1.135-1.498 1.7-.053.059-.114.11-.172.165-.055-.017-.11-.04-.166-.047a5.598 5.598 0 0 0-2.39.192c-.568.174-1.14.35-1.748.277-.286-.325-.572-.652-.86-.976-.498-.565-1-1.128-1.5-1.692.24-.015.482.03.72-.025z"/></g><g><path fill="#4b1fd1" d="M53.35 14.965c-.574-.098-1.126-.277-1.687-.426-.252-.067-.505-.132-.758-.197-.004-.094-.01-.189-.01-.282-.004-.895-.006-1.788-.008-2.682.007-.005.011-.012.01-.02.36-.408.71-.824 1.08-1.222.433-.467.82-.978 1.282-1.42.147.03.09.15.09.23.002 2.006.001 4.013.001 6.02z"/></g><g><path fill="#9654c8" d="M53.259 8.716c-.462.442-.848.953-1.283 1.42-.37.398-.72.814-1.08 1.222l-1.126-.005c-.033-.029-.07-.054-.098-.086-.504-.562-1.01-1.123-1.511-1.688-.278-.313-.55-.634-.824-.95.07-.01.126.027.186.052.462.19.938.325 1.437.377.609.072 1.18-.104 1.749-.278a5.614 5.614 0 0 1 2.389-.192c.056.008.11.03.166.047l-.005.081z"/></g><g><path fill="#fdfdfd" d="M57.48 9.228c-.196.091-.387.101-.568.13-.156.025-.208.1-.228.237-.031.222-.066.444-.11.663-.01.056-.002.151-.093.147-.079-.003-.059-.084-.069-.139-.041-.234-.091-.468-.125-.704-.018-.123-.08-.175-.196-.192-.164-.025-.327-.059-.49-.088-.04-.008-.094.003-.095-.06-.002-.067.053-.056.093-.062.163-.032.326-.07.49-.089.124-.015.18-.073.199-.19.04-.243.086-.485.13-.728.009-.048.012-.112.082-.106.058.005.048.066.056.105.044.234.088.47.126.706.02.13.079.197.219.224.185.037.384.035.58.146z"/></g><g><path fill="#4b1fd1" d="M47.337 8.63c.274.315.546.636.824.95.5.564 1.007 1.125 1.51 1.687.03.033.066.058.099.087l-.005 2.607c-.461-.068-.894-.243-1.344-.353-.618-.15-1.234-.31-1.85-.466 0-1.655 0-3.31-.003-4.965 0-.09.06-.215-.095-.251l.11-.085c.283.232.48.547.754.789z"/></g><g><path fill="#fdfdfd" d="M50.887 11.379c.002.894.004 1.787.008 2.682 0 .093.007.188.01.282-.002.239-.02.48-.004.719.027.418.413.742.883.73.4-.011.708.13.918.473a.743.743 0 0 1 .068.135c.139.403.076.49-.347.49-.451 0-.903-.002-1.354 0-.071 0-.147-.022-.211.029l-2.475.003c-.086-.552.41-1.092 1.035-1.127.55-.03.869-.36.869-.904v-3.507l.6-.005z"/></g><g><path fill="#5b93e2" d="M50.286 11.383v3.507c0 .544-.318.874-.868.904-.626.035-1.122.575-1.036 1.127l-.02.002c-.17-.008-.387.075-.488-.097-.11-.187-.024-.4.088-.574.177-.273.412-.463.763-.462.604.002.816-.143 1.038-.695.077-.07.044-.164.044-.248.002-.995.001-1.99 0-2.986 0-.485 0-.485.48-.478z"/></g><g><path fill="#88b4d4" d="M50.286 11.383c-.479-.007-.479-.007-.479.478.001.996.002 1.991 0 2.986 0 .084.033.177-.044.248l.002-1.135.004-2.607 1.128.005c.001.008-.003.015-.01.02l-.6.005z"/></g><g><path fill="#f5ca46" d="M46.583 7.84l-.11.085c-.535.276-1.08.352-1.65.101-.688-.302-1.127-1.057-1.07-1.76a1.807 1.807 0 0 1 1.484-1.647c.517-.09.99.055 1.416.356.41.374.672.817.666 1.39-.238.055-.479.01-.719.025-.288-.046-.578-.024-.866-.016-.197.006-.259.164-.137.32.085.108.19.201.275.307.232.284.52.521.711.84z"/></g><g><path fill="#fdfdfd" d="M43.834 11.307c.209-.112.377-.116.536-.143.138-.022.219-.075.24-.227.035-.248.092-.492.152-.8.14.25.148.468.168.671.026.26.138.372.388.386.115.006.227.041.383.071-.185.123-.363.118-.525.145-.145.024-.196.09-.214.222-.028.2-.066.4-.1.6-.01.055-.005.138-.068.144-.1.01-.068-.096-.08-.147a4.931 4.931 0 0 1-.108-.575c-.017-.144-.065-.222-.223-.237-.163-.015-.322-.063-.55-.11z"/></g><g><path fill="#fdfdfd" d="M50.806 3.645c.252-.117.472-.125.681-.16.167-.029.236-.098.26-.26.041-.272.1-.542.152-.81.01-.046-.008-.119.066-.119.07.001.064.066.073.115.047.271.1.543.142.814.025.152.082.245.258.264.211.021.42.08.69.135-.23.118-.419.133-.598.153-.233.025-.34.125-.362.362-.023.251-.085.498-.128.747-.008.047.007.11-.066.115-.079.006-.068-.062-.076-.106-.056-.283-.12-.565-.159-.852-.02-.149-.082-.205-.228-.234-.216-.042-.44-.057-.705-.164z"/></g><g><path fill="#5b93e2" d="M46.583 7.84c-.19-.318-.479-.555-.71-.839-.087-.106-.19-.199-.276-.307-.122-.156-.06-.314.137-.32.288-.008.578-.03.866.016l1.5 1.691c.288.324.573.652.86.977a5.23 5.23 0 0 1-1.438-.377c-.059-.025-.116-.063-.185-.052-.274-.242-.47-.557-.754-.789z"/></g></g></svg>