<svg width="92" height="17" viewBox="0 0 92 17" fill="none" xmlns="http://www.w3.org/2000/svg">
<path d="M8.7 0.299988C9.2 0.399988 9.6 0.399991 10.1 0.599991C13.2 1.49999 15 3.49999 15.7 6.59999C15.9 7.49999 16 8.39997 15.7 9.29997C15.5 10.1 15 10.7 14.2 11C13 11.5 11.7 10.9 11.3 9.59999C11.2 9.19999 11.1 8.79998 11.1 8.49998C11.1 8.09998 11.1 7.6 11 7.2C10.9 7.3 10.9 7.39998 10.8 7.49998C10.2 8.39998 9.7 9.39997 9.1 10.3C8.9 10.6 8.6 10.9 8.3 11.1C7.9 11.4 7.2 11.3 7 10.8C6.8 10.4 6.7 9.99999 6.7 9.59999C6.7 8.79999 6.7 8.1 6.7 7.2C6.6 7.4 6.5 7.39998 6.5 7.49998C5.5 9.09999 4.6 10.6 3.6 12.2C3.5 12.4 3.5 12.5 3.7 12.7C6 15.1 9.8 15.2 12.2 13.1C12.3 13 12.4 12.9 12.5 12.9C12.8 12.6 13.2 12.7 13.5 13C13.8 13.3 13.8 13.7 13.4 14C12.9 14.4 12.4 14.8 11.9 15.1C7.2 17.7 1.5 14.8 0.599998 9.59999C0.599998 9.39999 0.5 9.09998 0.5 8.89998C0.5 8.49998 0.5 8.09999 0.5 7.59999C0.5 7.39999 0.599998 7.09998 0.599998 6.89998C1.3 3.79998 3.1 1.69999 6.1 0.799988C6.6 0.699988 7.1 0.599985 7.6 0.499985C7.9 0.299985 8.3 0.299988 8.7 0.299988ZM8.1 9.09999C8.2 8.99999 8.3 8.99998 8.3 8.89998C8.8 8.09998 9.2 7.29999 9.8 6.59999C10.1 6.19999 10.4 5.79998 10.8 5.49998C11.4 5.09998 12.1 5.29998 12.3 5.99998C12.4 6.29998 12.5 6.59998 12.5 6.89998C12.5 7.49998 12.5 8.09999 12.5 8.59999C12.5 8.79999 12.5 9 12.6 9.2C12.8 9.8 13.4 9.89999 13.8 9.59999C14.2 9.29999 14.4 8.99998 14.4 8.49998C14.4 7.89998 14.4 7.3 14.3 6.7C13.6 3.2 10.1 0.999979 6.6 1.89998C3.5 2.69998 1.4 5.89998 1.9 8.99998C2 9.69998 2.2 10.4 2.6 11C2.7 10.9 2.7 10.8 2.8 10.7C3.9 8.9 5 7.19998 6.1 5.39998C6.2 5.19998 6.3 4.99998 6.5 4.89998C6.7 4.59998 7 4.49999 7.4 4.59999C7.8 4.69999 8 4.99997 8.1 5.29997C8.2 5.59997 8.2 5.79999 8.2 6.09999C8.1 7.19999 8.1 8.09999 8.1 9.09999Z" fill="black"/>
<path d="M47.1 8.19998C46.7 8.59998 46.4 8.89996 46.1 9.29996C45.9 9.49996 45.7 9.69996 45.5 9.89996C45.2 10.2 45 10.2 44.8 9.89996C44.3 9.39996 43.9 8.89996 43.4 8.39996L43.3 8.29996H43.2C43.2 8.39996 43.2 8.49998 43.2 8.59998C43.2 9.39998 43.2 10.2 43.2 11.1C43.2 11.2 43.2 11.4 43.2 11.5C43.1 11.8 42.8 12 42.5 12C42.2 12 41.9 11.8 41.9 11.4C41.9 11.3 41.9 11.2 41.9 11.1C41.9 9.19998 41.9 7.29996 41.9 5.39996C41.9 5.29996 42 5.09997 42.1 4.99997C42.2 5.09997 42.4 5.09998 42.5 5.19998C43.3 6.09998 44.1 6.99996 44.9 7.89996C45.2 8.19996 45.3 8.19996 45.6 7.89996C46.4 6.99996 47.2 6.09998 48 5.19998C48.1 5.09998 48.1 5.09997 48.2 4.99997C48.3 4.99997 48.4 4.89996 48.5 4.89996C48.6 4.89996 48.6 5.09998 48.6 5.19998C48.6 5.29998 48.6 5.39997 48.6 5.49997C48.6 7.39997 48.6 9.19998 48.6 11.1C48.6 11.7 48.4 12 47.9 12C47.4 12 47.2 11.7 47.2 11.1C47.2 10.3 47.2 9.39998 47.2 8.59998C47.2 8.49998 47.2 8.39998 47.1 8.19998Z" fill="black"/>
<path d="M87.2 7.6C88 6.9 88.9 6.79998 89.9 7.29998C90.8 7.69998 91.1 8.49999 91.2 9.49999C91.3 10.7 90.6 11.7 89.5 12.1C89 12.3 88.4 12.2 87.5 11.8C87.5 12.3 87.5 12.8 87.5 13.2C87.5 13.3 87.5 13.5 87.5 13.6C87.4 13.9 87.1 14.2 86.8 14.2C86.5 14.2 86.1 13.9 86.1 13.6C86.1 11.6 86.1 9.60001 86.1 7.70001C86.1 7.40001 86.3 7.20001 86.6 7.20001C86.9 7.20001 87.1 7.3 87.1 7.6C87.2 7.5 87.2 7.5 87.2 7.6ZM89.8 9.70001C89.8 9.10001 89.6 8.69999 89.2 8.39999C88.8 8.19999 88.4 8.19999 88.1 8.39999C87.7 8.69999 87.5 9.1 87.5 9.6C87.5 10.1 87.7 10.5 88.2 10.7C88.7 10.9 89.2 10.8 89.5 10.4C89.7 10.1 89.7 9.80001 89.8 9.70001Z" fill="black"/>
<path d="M24.6 12.1C22.6 12.1 21.1 10.6 21 8.60001C20.9 6.70001 22.3 5.1 24.2 4.9C25.1 4.8 25.9 5.00001 26.6 5.50001C26.8 5.70001 27 5.90002 26.9 6.20002C26.8 6.50002 26.7 6.70002 26.4 6.70002C26.2 6.70002 26 6.70001 25.9 6.60001C24.9 6.00001 23.8 6.09999 23.1 6.79999C22.1 7.79999 22.2 9.70001 23.4 10.5C24 11 25.1 11 25.8 10.5C26 10.4 26.1 10.3 26.3 10.2C26.6 10 27 10.1 27.2 10.3C27.4 10.6 27.3 10.9 27.1 11.1C26.2 11.7 25.4 12 24.6 12.1Z" fill="black"/>
<path d="M73.2 8.29996C73.2 6.99996 73.8 5.89996 75.1 5.29996C76.3 4.59996 77.6 4.69997 78.7 5.49997C78.9 5.69997 79.1 5.89998 79.1 6.19998C79.1 6.49998 78.9 6.69998 78.6 6.69998C78.4 6.69998 78.2 6.69997 78.1 6.59997C77.1 5.99997 76 6.09996 75.3 6.79996C74.3 7.79996 74.4 9.79997 75.6 10.5C76.4 11 77.2 10.9 77.9 10.5C78.1 10.4 78.2 10.3 78.3 10.2C78.6 9.99998 79 10.1 79.2 10.3C79.4 10.6 79.4 10.9 79.1 11.2C78 12.1 76.7 12.4 75.3 11.8C74.1 11.2 73.2 9.89996 73.2 8.29996Z" fill="black"/>
<path d="M83.8 7.70002C83.8 7.60002 83.8 7.5 83.9 7.4C84 7.1 84.2 7 84.4 7C84.7 7 84.9 7.2 84.9 7.5C84.9 7.8 84.9 7.99999 84.9 8.29999C84.9 9.29999 84.9 10.3 84.9 11.3C84.9 11.7 84.6 12 84.3 11.9C84 11.9 83.9 11.7 83.8 11.3C83.4 11.7 83 11.9 82.5 12C81.5 12.1 80.7 11.7 80.2 10.8C79.5 9.49999 79.9 7.99999 81.1 7.29999C81.9 6.79999 82.9 6.9 83.6 7.5C83.6 7.6 83.7 7.60002 83.8 7.70002ZM83.5 9.60001C83.5 9.20001 83.4 8.80001 83.1 8.60001C82.8 8.30001 82.3 8.2 81.9 8.4C81.5 8.6 81.2 9.10002 81.2 9.70002C81.2 10.2 81.4 10.6 81.9 10.8C82.3 11 82.6 10.9 83 10.6C83.3 10.3 83.5 9.90001 83.5 9.60001Z" fill="black"/>
<path d="M53.3 11.4C52.5 12.3 51 12.3 50.1 11.4C49 10.2 49.2 8.09999 50.6 7.29999C51.4 6.79999 52.3 6.9 53.1 7.5C53.2 7.6 53.3 7.60002 53.4 7.70002C53.4 7.60002 53.4 7.5 53.5 7.4C53.6 7.1 53.8 7 54.1 7C54.4 7 54.6 7.2 54.6 7.5C54.6 8 54.6 8.4 54.6 8.9C54.6 9.7 54.6 10.5 54.6 11.4C54.6 11.9 54.2 12.1 53.8 11.9C53.5 11.8 53.4 11.6 53.3 11.4ZM50.8 9.5C50.8 9.6 50.8 9.70002 50.8 9.70002C50.9 10.3 51.5 10.8 52 10.7C52.5 10.6 52.9 10.3 53 9.79999C53.1 9.29999 53 8.7 52.6 8.4C52.3 8.2 51.9 8.09999 51.5 8.29999C51 8.59999 50.8 9 50.8 9.5Z" fill="black"/>
<path d="M60.9 9.09996C61.4 8.59996 61.8 8.09996 62.3 7.49996C62.4 7.39996 62.5 7.29997 62.6 7.19997C62.9 6.99997 63.2 6.99997 63.5 7.19997C63.7 7.49997 63.8 7.79996 63.5 8.09996C63.1 8.49996 62.7 8.99995 62.3 9.39995C62.7 9.89995 63.1 10.4 63.5 10.9C63.8 11.2 63.8 11.6 63.5 11.9C63.2 12.2 62.8 12.0999 62.5 11.7999C62 11.2999 61.6 10.7 61.1 10.2C61 10.1 60.9 9.99995 60.8 9.89995C60.8 10.4 60.8 10.9 60.8 11.4C60.8 11.8 60.5 12 60.2 12.1C59.8 12.1 59.6 11.9 59.5 11.5C59.5 11.4 59.5 11.2 59.5 11.1C59.5 9.79996 59.5 8.39996 59.5 7.09996C59.5 6.59996 59.5 6.19997 59.5 5.69997C59.5 5.39997 59.7 5.19996 60 5.09996C60.3 4.99996 60.5 5.09995 60.7 5.29995C60.8 5.49995 60.9 5.69995 60.9 5.89995C60.9 6.89995 60.9 7.89995 60.9 8.79995C60.8 8.79995 60.8 8.99996 60.9 9.09996Z" fill="black"/>
<path d="M65.4 9.89999C65.4 10.4 65.7 10.8 66.3 10.8C66.7 10.8 67.1 10.7 67.4 10.6C67.8 10.5 68.1 10.5 68.2 10.8C68.4 11.1 68.3 11.4 67.9 11.6C67.7 11.7 67.6 11.8 67.4 11.8C66.3 12.1 64.9 11.9 64.3 10.8C63.7 9.79999 63.9 8.09999 64.7 7.39999C65.4 6.69999 66.3 6.7 67.2 7C68 7.3 68.5 7.89999 68.6 8.79999C68.6 8.89999 68.6 9.10001 68.6 9.20001C68.6 9.60001 68.4 9.79999 68 9.79999C67.2 9.79999 66.4 9.79999 65.6 9.79999C65.6 9.89999 65.5 9.89999 65.4 9.89999ZM67.3 9.1C67.3 8.6 66.9 8.29999 66.3 8.29999C65.7 8.29999 65.3 8.6 65.4 9.1C66.1 9.1 66.7 9.1 67.3 9.1Z" fill="black"/>
<path d="M30 12.1C28.6 12 27.5 10.8 27.5 9.5C27.6 8.1 28.8 7.00001 30.2 7.10001C31.5 7.20001 32.5 8.40001 32.5 9.70001C32.5 11 31.4 12.1 30 12.1ZM30.1 8.29999C29.4 8.29999 28.9 8.8 28.9 9.5C28.9 10.2 29.4 10.8 30 10.8C30.6 10.8 31.1 10.2 31.1 9.5C31.2 8.8 30.7 8.29999 30.1 8.29999Z" fill="black"/>
<path d="M37.2 7.60001C37.6 7.20001 38.1 7 38.6 7C39.7 7 40.6 7.69999 40.6 8.79999C40.7 9.59999 40.6 10.5 40.6 11.3C40.6 11.7 40.3 12 39.9 12C39.5 12 39.2 11.7 39.2 11.3C39.2 10.7 39.2 10.1 39.2 9.5C39.2 9.3 39.2 9.2 39.2 9C39.1 8.5 38.9 8.30001 38.4 8.20001C37.9 8.20001 37.6 8.39999 37.5 8.89999C37.5 9.09999 37.4 9.3 37.4 9.5C37.4 10.1 37.4 10.7 37.4 11.2C37.4 11.6 37.1 11.9 36.7 11.9C36.3 11.9 36 11.6 36 11.1C36 9.90001 36 8.70001 36 7.60001C36 7.20001 36.2 7 36.4 7C36.8 7 37 7.10001 37.2 7.60001C37.2 7.50001 37.2 7.50001 37.2 7.60001Z" fill="black"/>
<path d="M70 8.29998C69.3 8.19998 69 8 69 7.6C69 7.2 69.2 6.99998 70 6.89998C70 6.49998 70 6 70 5.6C70 5.3 70.2 5.09999 70.4 4.99999C70.7 4.89999 70.9 4.9 71.1 5.2C71.2 5.4 71.3 5.59998 71.3 5.79998C71.3 6.19998 71.3 6.59999 71.3 6.99999C71.8 6.99999 72.4 6.9 72.5 7.6C72.5 7.9 72.4 8.1 72.1 8.2C71.9 8.3 71.6 8.29998 71.3 8.29998C71.3 8.99998 71.3 9.79999 71.3 10.5C71.3 10.8 71.6 10.9 71.9 10.9C72.5 10.9 72.8 11.4 72.5 11.8C72.4 11.9 72.2 12.1 72.1 12.1C71.8 12.1 71.4 12.1 71.1 12.1C70.5 12 70.1 11.5 70.1 10.9C70 10.2 70 9.59998 70 8.89998C70 8.59998 70 8.49998 70 8.29998Z" fill="black"/>
<path d="M56.8 7.60001C57.2 7.30001 57.6 7 58.1 7C58.5 7 58.9 7.20001 58.9 7.60001C58.9 8.00001 58.6 8.19999 58.2 8.29999C57.5 8.29999 57.1 8.69999 57.1 9.39999C57.1 10.1 57.1 10.7 57.1 11.4C57.1 11.7 57 12 56.7 12C56.5 12 56.2 12 56 11.9C55.8 11.8 55.7 11.5 55.7 11.3C55.7 10.1 55.7 8.90001 55.7 7.70001C55.7 7.40001 55.9 7.10001 56.2 7.10001C56.5 7.00001 56.6 7.20001 56.8 7.60001Z" fill="black"/>
<path d="M33.4 9.5C33.4 8.9 33.4 8.39999 33.4 7.79999C33.4 7.29999 33.7 7 34.1 7C34.5 7 34.8 7.29999 34.8 7.79999C34.8 8.89999 34.8 10.1 34.8 11.2C34.8 11.7 34.5 12 34.1 12C33.7 12 33.4 11.7 33.4 11.2C33.4 10.6 33.4 10.1 33.4 9.5Z" fill="black"/>
<path d="M34.1 6.49997C33.7 6.49997 33.3 6.09998 33.3 5.69998C33.3 5.29998 33.7 4.89996 34.1 4.89996C34.5 4.89996 34.9 5.29998 34.9 5.69998C34.9 6.09998 34.6 6.49997 34.1 6.49997Z" fill="black"/>
</svg>
