<svg width="68" height="18" viewBox="0 0 68 18" fill="none" xmlns="http://www.w3.org/2000/svg">
<path d="M28.4 7.10001C28.2 6.40001 27.8 5.89999 26.8 5.89999C25.5 5.89999 24.9 7.1 24.9 8.3C24.9 9.5 25.5 10.7 26.8 10.7C27.8 10.7 28.3 10 28.4 9.10001H29.5C29.4 10.6 28.4 11.6 26.8 11.6C24.9 11.6 23.8 10.1 23.8 8.3C23.8 6.5 24.9 5 26.8 5C28.2 5 29.3 5.80001 29.4 7.10001H28.4Z" fill="#4C4C4C"/>
<path d="M30.1 9.10002C30.1 7.70002 30.9 6.70001 32.4 6.70001C33.8 6.70001 34.7 7.70002 34.7 9.10002C34.7 10.5 33.9 11.5 32.4 11.5C30.9 11.5 30.1 10.5 30.1 9.10002ZM33.7 9.10002C33.7 8.30002 33.3 7.50002 32.4 7.50002C31.5 7.50002 31.1 8.30002 31.1 9.10002C31.1 9.90002 31.5 10.7 32.4 10.7C33.3 10.7 33.7 9.90002 33.7 9.10002Z" fill="#4C4C4C"/>
<path d="M35.5001 5.20001H36.5001V6.10002H35.5001V5.20001ZM35.5001 6.90001H36.5001V11.4H35.5001V6.90001Z" fill="#4C4C4C"/>
<path d="M37.6001 6.89998H38.5001V7.59999C38.8001 7.09999 39.3001 6.79999 39.9001 6.79999C40.9001 6.79999 41.5001 7.29999 41.5001 8.29999V11.4H40.5001V8.59999C40.5001 7.89999 40.2001 7.59999 39.6001 7.59999C38.9001 7.59999 38.5001 8.09999 38.5001 8.79999V11.5H37.5001V6.89998H37.6001Z" fill="#4C4C4C"/>
<path d="M48.2 11.4H47.5L47.3 10.7C46.7 11.4 46.2 11.6 45.4 11.6C43.5 11.6 42.4 10.1 42.4 8.3C42.4 6.5 43.5 5 45.4 5C46.8 5 47.9 5.70001 48.1 7.10001H47C46.9 6.30001 46.2 5.89999 45.4 5.89999C44.1 5.89999 43.5 7.1 43.5 8.3C43.5 9.5 44.1 10.7 45.4 10.7C46.5 10.7 47.1 10 47.1 9H45.4V8.2H48.1V11.4H48.2Z" fill="#4C4C4C"/>
<path d="M50.0001 9.39996C50.0001 10.1 50.4001 10.7 51.2001 10.7C51.8001 10.7 52.1001 10.4 52.3001 9.89996H53.2001C53.0001 10.9 52.1001 11.4 51.2001 11.4C49.8001 11.4 49.0001 10.4 49.0001 8.99997C49.0001 7.69997 49.8001 6.59998 51.2001 6.59998C52.6001 6.59998 53.5001 7.89997 53.3001 9.19997H50.0001V9.39996ZM52.3001 8.69997C52.3001 8.09997 51.8001 7.49997 51.2001 7.49997C50.5001 7.49997 50.0001 7.99997 50.0001 8.69997H52.3001Z" fill="#4C4C4C"/>
<path d="M57.1 8.39998C57 7.79998 56.6 7.59999 56.1 7.59999C55.6 7.59999 54.9 7.89998 54.9 9.19998C54.9 9.99998 55.2 10.7 56.1 10.7C56.7 10.7 57.1 10.3 57.2 9.69998H58.2C58 10.9 57.3 11.5 56.1 11.5C54.7 11.5 53.9 10.5 53.9 9.19998C53.9 7.79998 54.6 6.79999 56.1 6.79999C57.1 6.79999 58 7.29998 58.1 8.39998H57.1Z" fill="#4C4C4C"/>
<path d="M59.0001 5.20001H60.0001V8.70001L61.8001 6.90001H63.0001L61.3001 8.60002L63.2001 11.5H62.0001L60.6001 9.30002L60.0001 9.90001V11.5H59.0001V5.20001Z" fill="#4C4C4C"/>
<path d="M63.4 9.10002C63.4 7.70002 64.2 6.70001 65.7 6.70001C67.1 6.70001 68 7.70002 68 9.10002C68 10.5 67.2 11.5 65.7 11.5C64.3 11.5 63.4 10.5 63.4 9.10002ZM67 9.10002C67 8.30002 66.6 7.50002 65.7 7.50002C64.8 7.50002 64.4 8.30002 64.4 9.10002C64.4 9.90002 64.8 10.7 65.7 10.7C66.6 10.7 67 9.90002 67 9.10002Z" fill="#4C4C4C"/>
<path d="M18.3 8.99997C18.3 13.9 14.3 17.9 9.40002 18C4.50002 18 0.500024 14 0.400024 9.09998C0.400024 4.19998 4.40002 0.199976 9.30002 0.0999756C14.2 0.0999756 18.3 4.09997 18.3 8.99997Z" fill="#8DC63F"/>
<path d="M17.6 8.99998C17.6 13.6 13.9 17.3 9.40004 17.3C4.80004 17.3 1.10004 13.6 1.10004 9.09999C1.10004 4.49999 4.80004 0.799988 9.30004 0.799988C13.9 0.799988 17.6 4.49998 17.6 8.99998Z" fill="#F9E988"/>
<path d="M9.5 1.29998C10 1.19998 10.6 1.19998 11.1 1.29998C11.6 1.39998 12.1 1.59998 12.6 1.79998C13.1 2.09998 13.5 2.39997 13.9 2.69997C14.3 2.99997 14.7 3.39997 15.1 3.69997C15.5 4.09997 15.8 4.49997 16.1 4.89997C16.4 5.39997 16.6 5.79998 16.8 6.29998C17.1 7.29998 17.3 8.39997 17.1 9.39997H17C16.8 8.39997 16.6 7.39997 16.2 6.39997C16 5.89997 15.8 5.49997 15.6 4.99997C15.4 4.59997 15.1 4.09997 14.8 3.69997C14.5 3.29997 14.1 2.89998 13.7 2.59998C13.3 2.29998 12.8 2.09997 12.3 1.89997C11.8 1.69997 11.4 1.49997 10.9 1.39997C10.5 1.59997 10 1.49998 9.5 1.29998Z" fill="white"/>
<path d="M13.5 6.09995C12.9 5.89995 12.3 5.69994 11.7 5.39994C11.7 5.19994 11.5 4.99995 11.2 4.79995C10.8 4.39995 10 4.49995 9.40004 4.59995C8.70004 4.39995 7.90004 4.39995 7.20004 4.49995C1.50004 6.09995 4.70004 9.89995 2.60004 13.8C2.90004 14.4 6.10004 18.1 10.8 17.1C10.8 17.1 9.20004 13.2999 12.8 11.3999C15.7 9.99994 17.8 7.29995 13.5 6.09995Z" fill="#8BC53F"/>
<path d="M14.3 8.59999C14.3 8.79999 14.1 8.89998 14 8.89998C13.8 8.89998 13.7 8.69999 13.7 8.59999C13.7 8.39999 13.9 8.29999 14 8.29999C14.1 8.29999 14.2 8.39999 14.3 8.59999Z" fill="white"/>
<path d="M9.40002 4.69995C9.80002 4.69995 11.3 5.19996 11.7 5.49996C11.4 4.49996 10.3 4.39995 9.40002 4.69995Z" fill="#009345"/>
<path d="M9.80004 6.99997C9.80004 7.89997 9.10004 8.59998 8.20004 8.59998C7.30004 8.59998 6.60004 7.89997 6.60004 6.99997C6.60004 6.09997 7.30004 5.39996 8.20004 5.39996C9.10004 5.39996 9.80004 6.09997 9.80004 6.99997Z" fill="white"/>
<path d="M9.30004 6.99997C9.30004 7.59997 8.80004 8.09998 8.20004 8.09998C7.60004 8.09998 7.10004 7.59997 7.10004 6.99997C7.10004 6.39997 7.60004 5.89996 8.20004 5.89996C8.80004 5.89996 9.30004 6.39997 9.30004 6.99997Z" fill="#58595B"/>
<path d="M15.5 9.29997C14.2 10.2 12.7 10.9 10.6 10.9C9.6 10.9 9.4 9.89996 8.8 10.4C8.5 10.7 7.3 11.2 6.4 11.2C5.5 11.2 4 10.6 3.5 8.59998C3.3 10.6 3.2 12.1 2.5 13.7C4 16.1 7.5 17.9 10.8 17.1C10.5 14.7 12.6 12.3 13.8 11.1C14.2 10.7 15.1 9.99997 15.5 9.29997Z" fill="#8BC53F"/>
<path d="M15.5 9.39996C15.1 9.79996 14.6 9.99997 14.1 10.3C13.6 10.5 13.1 10.7 12.6 10.9C12.1 11 11.5 11.1 11 11.1C10.5 11.1 9.9 10.9 9.5 10.4C10 10.7 10.5 10.8 11 10.8C11.5 10.8 12 10.8 12.6 10.7C13.1 10.6 13.6 10.4 14.1 10.2C14.6 9.89997 15.1 9.69996 15.5 9.39996Z" fill="#58595B"/>
</svg>
