<svg xmlns="http://www.w3.org/2000/svg" width="26" height="26" viewBox="0 0 26 26"><g><g><path fill="#f7f7f7" d="M8.067 16.581c0-1.787-.025-3.574.008-5.36.03-1.686 1.533-3.177 3.222-3.187 3.51-.022 7.019-.004 10.529-.012 1.687-.004 3.384 1.395 3.383 3.468-.004 3.412.019 6.824-.009 10.237-.017 2.016-1.514 3.445-3.535 3.448-3.358.004-6.716.003-10.074 0-1.809-.003-3.228-1.186-3.497-2.915-.036-.237-.034-.48-.034-.722-.003-1.653-.002-3.305-.002-4.957zm14.85-4.983c-.001-.857-.447-1.306-1.307-1.306h-9.964c-.857 0-1.309.45-1.31 1.307-.002 3.331-.002 6.662 0 9.993.001.837.457 1.287 1.297 1.287h9.991c.843 0 1.292-.449 1.293-1.288v-4.956-5.037z"/></g><g><path fill="#f7f7f7" d="M.046 8.615c0-1.697-.005-3.395.002-5.092C.054 2.04.734.952 2.065.32c.42-.2.927-.303 1.396-.307 3.438-.025 6.877-.027 10.315-.008 1.932.01 3.368 1.463 3.416 3.396.01.41.012.822-.004 1.232a1.13 1.13 0 0 1-1.13 1.092 1.134 1.134 0 0 1-1.133-1.09c-.015-.357-.003-.715-.007-1.072-.01-.811-.462-1.267-1.266-1.267-3.35-.002-6.698-.002-10.047 0-.812 0-1.267.453-1.267 1.259v10.05c0 .808.468 1.27 1.283 1.278.348.003.697-.01 1.045.007.635.029 1.115.538 1.099 1.149a1.127 1.127 0 0 1-1.14 1.11c-.543.003-1.098.046-1.63-.037-1.791-.278-2.94-1.658-2.948-3.486C.04 11.956.046 10.286.046 8.615z"/></g></g></svg>