<svg width="194" height="162" viewBox="0 0 194 162" fill="none" xmlns="http://www.w3.org/2000/svg">
<path d="M11.6873 105.449C12.1392 105.449 12.5867 105.538 13.0042 105.711C13.4217 105.884 13.8011 106.138 14.1206 106.457C14.4402 106.777 14.6937 107.156 14.8666 107.574C15.0396 107.991 15.1286 108.439 15.1286 108.89C15.1286 109.803 14.766 110.678 14.1207 111.324C13.4753 111.969 12.6 112.332 11.6873 112.332C10.7747 112.332 9.89937 111.969 9.25401 111.324C8.60865 110.678 8.24609 109.803 8.24609 108.89C8.2461 107.978 8.60865 107.102 9.25401 106.457C9.89937 105.812 10.7747 105.449 11.6873 105.449Z" fill="white"/>
<path d="M5.16438 90.0461C5.16438 88.6199 4.00829 87.4639 2.58219 87.4639C1.15609 87.4639 0 88.6199 0 90.0461C0 91.4722 1.15609 92.6282 2.58219 92.6282C4.00829 92.6282 5.16438 91.4722 5.16438 90.0461Z" fill="white"/>
<path d="M15.7184 78.6475C16.0765 78.6475 16.4199 78.7897 16.6731 79.0429C16.9263 79.2961 17.0686 79.6396 17.0686 79.9977C17.0686 80.3558 16.9263 80.6992 16.6731 80.9524C16.4199 81.2056 16.0765 81.3479 15.7184 81.3479C15.3603 81.3479 15.0169 81.2056 14.7636 80.9524C14.5104 80.6992 14.3682 80.3558 14.3682 79.9977C14.3682 79.8204 14.4031 79.6448 14.4709 79.481C14.5388 79.3171 14.6382 79.1683 14.7636 79.0429C14.889 78.9175 15.0379 78.8181 15.2017 78.7502C15.3655 78.6824 15.5411 78.6475 15.7184 78.6475Z" fill="white"/>
<path d="M189.38 79.7979H189.38C187.307 79.7979 185.627 81.4781 185.627 83.5507V83.5507C185.627 85.6234 187.307 87.3036 189.38 87.3036H189.38C191.452 87.3036 193.133 85.6234 193.133 83.5507V83.5507C193.133 81.4781 191.452 79.7979 189.38 79.7979Z" fill="white"/>
<path d="M176.124 96.1992C176.774 96.1992 177.397 96.4573 177.856 96.9166C178.315 97.3759 178.573 97.9989 178.573 98.6484C178.573 99.298 178.315 99.921 177.856 100.38C177.397 100.84 176.774 101.098 176.124 101.098C175.474 101.098 174.851 100.84 174.392 100.38C173.933 99.921 173.675 99.298 173.675 98.6484C173.675 97.9989 173.933 97.3759 174.392 96.9166C174.851 96.4573 175.474 96.1992 176.124 96.1992L176.124 96.1992Z" fill="white"/>
<path d="M181.076 70.7264C181.076 69.8609 180.374 69.1592 179.509 69.1592C178.643 69.1592 177.941 69.8609 177.941 70.7264C177.941 71.592 178.643 72.2937 179.509 72.2937C180.374 72.2937 181.076 71.592 181.076 70.7264Z" fill="white"/>
<g opacity="0.6">
<path opacity="0.4" d="M96.7351 161.166C136.878 161.166 169.419 128.624 169.419 88.4812C169.419 48.3388 136.878 15.7969 96.7351 15.7969C56.5927 15.7969 24.0508 48.3388 24.0508 88.4812C24.0508 128.624 56.5927 161.166 96.7351 161.166Z" fill="white"/>
</g>
<g opacity="0.2">
<path opacity="0.2" d="M128.594 23.252L122.628 32.1307L122.62 32.1435C121.549 33.7461 121.157 35.7075 121.529 37.5986L124.933 54.941C125.043 55.4925 125.217 56.0293 125.451 56.5405L122.545 60.8658C122.188 60.7984 121.825 60.7642 121.461 60.7634H76.1416C74.6311 60.7633 73.1781 61.3426 72.0821 62.3819C70.986 63.4212 70.3303 64.8414 70.2502 66.3498L68.8879 91.9613L61.1146 91.6025L60.3212 87.6678C60.2747 87.4372 60.1566 87.2271 59.9837 87.0674C59.8108 86.9078 59.592 86.8068 59.3584 86.7787L53.4876 86.0744C53.4036 85.2156 53.0292 84.4111 52.4263 83.7937C51.8233 83.1763 51.0279 82.783 50.1713 82.6786L38.7051 81.3C38.5545 81.2819 38.4029 81.2728 38.2512 81.2728H38.251C37.2857 81.2733 36.357 81.6423 35.6546 82.3044C34.9522 82.9665 34.529 83.8718 34.4716 84.8353C34.4141 85.7989 34.7266 86.7481 35.3454 87.489C35.9641 88.2299 36.8423 88.7067 37.8007 88.8219L49.2669 90.2005C50.0152 90.2908 50.7734 90.1555 51.4442 89.8119C52.115 89.4683 52.6679 88.9321 53.0319 88.2721L58.2891 88.9027L58.9521 92.1913C58.8496 92.4089 58.8199 92.6537 58.8675 92.8895C58.915 93.1253 59.0373 93.3395 59.2161 93.5005L66.0498 127.392C65.0147 127.687 64.1036 128.311 63.4545 129.169C62.8053 130.028 62.4532 131.074 62.4514 132.15V132.917C62.4529 134.23 62.9751 135.488 63.9033 136.416C64.8315 137.345 66.09 137.867 67.4028 137.868H73.1826C72.2281 138.656 71.5349 139.714 71.1947 140.904C70.8545 142.094 70.8832 143.359 71.2771 144.532C75.0378 144.476 78.9341 144.433 82.9401 144.403C83.2996 143.243 83.3063 142.003 82.9593 140.839C82.6123 139.676 81.9272 138.642 80.9912 137.868H109.53C108.595 138.64 107.911 139.671 107.564 140.832C107.216 141.992 107.22 143.23 107.576 144.388C111.58 144.413 115.481 144.451 119.254 144.501C119.64 143.331 119.663 142.072 119.321 140.888C118.98 139.705 118.288 138.652 117.338 137.868H123.368C123.664 137.868 123.949 137.75 124.158 137.541C124.368 137.331 124.486 137.047 124.486 136.75C124.486 136.454 124.368 136.169 124.158 135.96C123.949 135.75 123.664 135.632 123.368 135.632H67.4027C66.6829 135.631 65.9928 135.345 65.4838 134.836C64.9748 134.327 64.6884 133.637 64.6876 132.917V132.151C64.6887 131.506 64.919 130.883 65.3374 130.392C65.7557 129.902 66.3348 129.576 66.9713 129.473C67.1076 129.531 67.2543 129.562 67.4027 129.563H130.012C130.28 129.563 130.538 129.467 130.741 129.292C130.944 129.118 131.078 128.876 131.118 128.611L135.453 99.7552C135.542 99.1632 135.505 98.5591 135.346 97.9821C135.187 97.405 134.908 96.8679 134.528 96.4053C134.148 95.9428 133.675 95.5652 133.14 95.2971C132.605 95.0289 132.019 94.876 131.421 94.8485L128.862 94.7303L127.408 67.3997L131.833 60.8138C131.914 60.8165 131.994 60.8246 132.076 60.8246C132.549 60.8243 133.021 60.7783 133.486 60.6871L150.828 57.2832C151.771 57.1019 152.667 56.734 153.466 56.201C154.264 55.668 154.948 54.9808 155.477 54.1797L158.182 50.1531C151.014 38.6078 140.767 29.2914 128.594 23.252ZM61.5702 93.8622L67.1655 94.1205L67.8675 97.5857L62.2431 97.1989L61.5702 93.8622ZM67.2859 122.078L67.2592 122.076L65.9309 115.489L67.6302 115.606L67.2859 122.078ZM67.7193 113.93L65.5872 113.784L64.2589 107.196L68.0636 107.458L67.7193 113.93ZM68.1527 105.783L63.9151 105.491L62.5868 98.9038L68.2128 99.2907L68.4387 100.406L68.1527 105.783ZM130.666 116.564L129.794 112.262L129.764 111.701L131.38 111.812L130.666 116.564ZM131.63 110.148L129.675 110.013L129.328 103.493L132.596 103.718L131.63 110.148ZM131.318 97.0824C131.603 97.0956 131.883 97.1685 132.138 97.2964C132.393 97.4243 132.619 97.6044 132.8 97.825C132.981 98.0456 133.114 98.3019 133.19 98.5771C133.266 98.8524 133.284 99.1405 133.241 99.4229L132.846 102.054L129.238 101.806L128.981 96.9745L131.318 97.0824Z" fill="#371A45"/>
</g>
<g style="mix-blend-mode:multiply" opacity="0.15">
<g style="mix-blend-mode:multiply" opacity="0.68">
<path d="M172.027 147.529C172.027 145.775 138.152 144.354 96.3642 144.354C54.5766 144.354 20.7012 145.775 20.7012 147.529C20.7012 148.543 32.0211 149.446 49.6456 150.027C53.4486 151.164 68.1939 152.012 85.8041 152.012C100.551 152.012 113.289 151.417 119.274 150.556C149.862 150.149 172.027 148.948 172.027 147.529Z" fill="#371A45"/>
</g>
</g>
<path d="M165.024 146.529H27.7056C27.4096 146.528 27.1261 146.41 26.9171 146.201C26.7082 145.991 26.5908 145.707 26.5908 145.411C26.5908 145.115 26.7082 144.831 26.9171 144.622C27.1261 144.412 27.4096 144.294 27.7056 144.293H165.024C165.171 144.293 165.316 144.321 165.452 144.377C165.589 144.433 165.712 144.515 165.816 144.619C165.921 144.723 166.003 144.847 166.06 144.982C166.116 145.118 166.145 145.264 166.145 145.411C166.145 145.558 166.116 145.704 166.06 145.84C166.003 145.976 165.921 146.099 165.816 146.203C165.712 146.307 165.589 146.389 165.452 146.445C165.316 146.501 165.171 146.53 165.024 146.529H165.024Z" fill="#371A45"/>
<path d="M66.457 126.105C66.3052 126.105 66.1549 126.074 66.0155 126.014C65.876 125.954 65.7502 125.866 65.6457 125.756C65.5412 125.646 65.4603 125.516 65.4078 125.373C65.3553 125.231 65.3324 125.079 65.3404 124.928L68.5722 64.1732C68.6371 62.9506 69.1684 61.7996 70.0568 60.9572C70.9452 60.1149 72.1228 59.6454 73.347 59.6455H118.666C119.89 59.6454 121.068 60.1149 121.956 60.9573C122.845 61.7996 123.376 62.9506 123.441 64.1732L126.673 124.928C126.681 125.079 126.658 125.231 126.605 125.373C126.553 125.516 126.472 125.646 126.368 125.756C126.263 125.866 126.137 125.954 125.998 126.014C125.858 126.074 125.708 126.105 125.556 126.105H66.457Z" fill="#19B5FE"/>
<path d="M118.666 60.7636C119.604 60.7636 120.506 61.1233 121.187 61.7687C121.868 62.4141 122.275 63.296 122.325 64.2326L125.556 124.987H66.4569L69.6887 64.2326C69.7385 63.2959 70.1456 62.4141 70.8262 61.7687C71.5068 61.1233 72.409 60.7636 73.347 60.7636H118.666V60.7636ZM118.666 58.5273H73.347C71.8365 58.5272 70.3834 59.1065 69.2874 60.1458C68.1913 61.1852 67.5356 62.6054 67.4556 64.1138L64.2239 124.868C64.2077 125.171 64.2535 125.475 64.3585 125.76C64.4634 126.045 64.6253 126.305 64.8342 126.526C65.0432 126.746 65.2948 126.921 65.5738 127.041C65.8528 127.161 66.1533 127.223 66.4569 127.223H125.556C125.86 127.223 126.16 127.161 126.439 127.041C126.718 126.921 126.97 126.746 127.179 126.526C127.388 126.305 127.55 126.045 127.655 125.76C127.76 125.475 127.805 125.171 127.789 124.868L124.558 64.1137C124.478 62.6053 123.822 61.1851 122.726 60.1458C121.63 59.1065 120.177 58.5272 118.666 58.5274L118.666 58.5273Z" fill="#371A45"/>
<g opacity="0.15">
<path opacity="0.15" d="M82.6679 76.6475H82.6679C79.426 76.6475 76.7979 79.2756 76.7979 82.5175V95.6553C76.7979 98.8972 79.426 101.525 82.6679 101.525C85.9098 101.525 88.538 98.8972 88.538 95.6553V82.5175C88.538 79.2756 85.9098 76.6475 82.6679 76.6475Z" fill="white"/>
</g>
<g opacity="0.5">
<path opacity="0.5" d="M71.3658 65.3507C71.4156 64.4141 71.8228 63.5322 72.5034 62.8869C73.184 62.2415 74.0862 61.8818 75.0241 61.8818H120.343C120.721 61.8822 121.097 61.9413 121.457 62.0569C121.114 61.6515 120.686 61.3258 120.204 61.1025C119.722 60.8791 119.197 60.7635 118.666 60.7637H73.347C72.409 60.7637 71.5068 61.1234 70.8262 61.7688C70.1456 62.4141 69.7385 63.2959 69.6887 64.2325L66.457 124.987H68.1937L71.3658 65.3507Z" fill="white"/>
</g>
<path d="M66.757 119.351L66.457 124.987H125.556L125.256 119.351H66.757Z" fill="white"/>
<path d="M96.0066 93.5297C86.9436 93.5297 79.5703 85.7514 79.5703 76.1907V67.1014C79.5703 66.8419 79.6734 66.5931 79.8569 66.4096C80.0403 66.2261 80.2892 66.123 80.5487 66.123C80.8081 66.123 81.057 66.2261 81.2404 66.4096C81.4239 66.5931 81.527 66.8419 81.527 67.1014V76.1907C81.527 84.6726 88.0226 91.5731 96.0067 91.5731C103.991 91.5731 110.486 84.6726 110.486 76.1907V67.1014C110.487 66.8425 110.591 66.5944 110.774 66.4116C110.957 66.2288 111.206 66.1262 111.465 66.1262C111.724 66.1262 111.972 66.2288 112.155 66.4116C112.339 66.5944 112.442 66.8425 112.443 67.1014V76.1907C112.443 85.7514 105.07 93.5297 96.0066 93.5297Z" fill="#371A45"/>
<g opacity="0.2">
<path opacity="0.2" d="M122.325 64.2322C122.275 63.2956 121.868 62.4138 121.187 61.7684C120.506 61.1231 119.604 60.7633 118.666 60.7633L115.931 60.7139C116.673 67.3068 124.343 120.658 66.7348 118.296L66.457 124.987H125.556L122.325 64.2322Z" fill="#371A45"/>
</g>
<path d="M127.217 127.327H64.6081C64.3499 127.327 64.0997 127.237 63.8999 127.074C63.7001 126.91 63.563 126.683 63.512 126.429L56.4215 91.264C56.2428 91.1031 56.1206 90.8889 56.0731 90.6532C56.0256 90.4174 56.0552 90.1726 56.1576 89.955L55.4945 86.6666L39.6869 84.7701C39.5403 84.7536 39.3983 84.7083 39.2693 84.6368C39.1402 84.5652 39.0266 84.4689 38.935 84.3532C38.8434 84.2375 38.7755 84.1049 38.7354 83.9629C38.6953 83.8208 38.6837 83.6723 38.7013 83.5258C38.7189 83.3793 38.7653 83.2377 38.8379 83.1092C38.9104 82.9807 39.0077 82.8679 39.1241 82.7772C39.2405 82.6865 39.3737 82.6197 39.516 82.5807C39.6583 82.5418 39.807 82.5313 39.9533 82.5501L56.5639 84.5426C56.7976 84.5706 57.0164 84.6716 57.1893 84.8312C57.3622 84.9909 57.4803 85.201 57.5268 85.4317L58.3202 89.3663L128.627 92.612C129.225 92.6397 129.81 92.7925 130.345 93.0607C130.881 93.329 131.353 93.7065 131.733 94.169C132.113 94.6316 132.392 95.1687 132.551 95.7457C132.711 96.3227 132.747 96.9268 132.658 97.5187L128.323 126.375C128.283 126.639 128.15 126.881 127.947 127.056C127.744 127.231 127.485 127.327 127.217 127.327ZM65.5233 125.09H126.255L130.447 97.1868C130.489 96.9044 130.472 96.6162 130.396 96.3409C130.32 96.0656 130.187 95.8094 130.006 95.5887C129.824 95.3681 129.599 95.1879 129.344 95.0599C129.088 94.932 128.809 94.859 128.524 94.8458L58.7757 91.626L65.5233 125.09Z" fill="#371A45"/>
<path d="M120.572 135.632H64.6075C63.2948 135.631 62.0363 135.108 61.1081 134.18C60.1799 133.252 59.6577 131.993 59.6562 130.681V129.914C59.6577 128.601 60.1799 127.343 61.1081 126.415C62.0363 125.487 63.2948 124.964 64.6075 124.963C64.7547 124.962 64.9004 124.991 65.0365 125.047C65.1725 125.103 65.2962 125.185 65.4003 125.289C65.5045 125.393 65.5872 125.516 65.6436 125.652C65.7 125.788 65.729 125.934 65.729 126.081C65.729 126.228 65.7 126.374 65.6436 126.51C65.5872 126.646 65.5045 126.769 65.4003 126.873C65.2962 126.977 65.1725 127.059 65.0365 127.115C64.9004 127.171 64.7547 127.2 64.6075 127.199C63.8877 127.2 63.1976 127.486 62.6886 127.995C62.1796 128.504 61.8933 129.194 61.8925 129.914V130.681C61.8933 131.401 62.1796 132.091 62.6886 132.6C63.1976 133.109 63.8877 133.395 64.6075 133.396H120.572C120.868 133.397 121.152 133.515 121.361 133.724C121.57 133.934 121.687 134.218 121.687 134.514C121.687 134.81 121.57 135.094 121.361 135.303C121.152 135.513 120.868 135.631 120.572 135.632Z" fill="#371A45"/>
<path d="M74.2919 145.361C73.3011 145.361 72.3325 145.067 71.5087 144.517C70.6848 143.966 70.0427 143.184 69.6636 142.269C69.2844 141.353 69.1852 140.346 69.3785 139.374C69.5718 138.402 70.0489 137.51 70.7495 136.809C71.4501 136.108 72.3428 135.631 73.3145 135.438C74.2863 135.245 75.2936 135.344 76.209 135.723C77.1244 136.102 77.9068 136.744 78.4572 137.568C79.0077 138.392 79.3015 139.361 79.3015 140.351C79.3 141.68 78.7717 142.953 77.8325 143.892C76.8934 144.831 75.62 145.36 74.2919 145.361Z" fill="#808080"/>
<path d="M74.292 136.46C75.0617 136.46 75.8141 136.688 76.454 137.116C77.094 137.543 77.5928 138.151 77.8873 138.862C78.1818 139.573 78.2589 140.356 78.1087 141.111C77.9586 141.866 77.5879 142.559 77.0437 143.103C76.4994 143.648 75.806 144.018 75.0511 144.168C74.2962 144.318 73.5138 144.241 72.8027 143.947C72.0916 143.652 71.4838 143.154 71.0562 142.514C70.6286 141.874 70.4003 141.121 70.4003 140.352C70.4003 139.84 70.5009 139.334 70.6965 138.862C70.8921 138.39 71.1787 137.961 71.5401 137.6C71.9015 137.238 72.3305 136.952 72.8027 136.756C73.2748 136.56 73.7809 136.46 74.292 136.46ZM74.292 134.224C73.08 134.224 71.8952 134.583 70.8875 135.256C69.8798 135.93 69.0944 136.887 68.6305 138.006C68.1667 139.126 68.0454 140.358 68.2818 141.547C68.5182 142.736 69.1018 143.827 69.9588 144.684C70.8158 145.541 71.9077 146.125 73.0963 146.362C74.285 146.598 75.5171 146.477 76.6368 146.013C77.7566 145.549 78.7136 144.764 79.387 143.756C80.0603 142.748 80.4197 141.564 80.4197 140.352C80.4179 138.727 79.7717 137.169 78.6229 136.021C77.4742 134.872 75.9166 134.226 74.292 134.224Z" fill="#371A45"/>
<g opacity="0.3">
<path opacity="0.3" d="M76.0723 136.894C76.451 137.626 76.5867 138.46 76.4601 139.275C76.3334 140.09 75.9508 140.844 75.3676 141.427C74.7844 142.01 74.0308 142.393 73.2158 142.52C72.4009 142.646 71.5667 142.511 70.834 142.132C71.1142 142.677 71.5191 143.148 72.0157 143.506C72.5124 143.865 73.0867 144.101 73.692 144.196C74.2973 144.291 74.9164 144.241 75.4989 144.051C76.0814 143.862 76.6108 143.537 77.044 143.104C77.4772 142.67 77.802 142.141 77.9919 141.558C78.1817 140.976 78.2313 140.357 78.1366 139.752C78.0419 139.146 77.8056 138.572 77.4468 138.075C77.0881 137.579 76.6172 137.174 76.0723 136.894Z" fill="#371A45"/>
</g>
<g opacity="0.5">
<path opacity="0.5" d="M74.571 142.001C75.3276 142.001 75.9409 141.388 75.9409 140.632C75.9409 139.875 75.3276 139.262 74.571 139.262C73.8145 139.262 73.2012 139.875 73.2012 140.632C73.2012 141.388 73.8145 142.001 74.571 142.001Z" fill="white"/>
</g>
<g opacity="0.5">
<path opacity="0.5" d="M70.9594 140.911C70.9592 140.175 71.1678 139.454 71.561 138.831C71.9541 138.209 72.5156 137.711 73.1804 137.395C73.8452 137.08 74.586 136.959 75.3166 137.047C76.0473 137.135 76.738 137.429 77.3084 137.894C76.9647 137.472 76.5362 137.127 76.0507 136.881C75.5652 136.634 75.0334 136.493 74.4897 136.465C73.946 136.437 73.4026 136.524 72.8945 136.719C72.3864 136.915 71.9249 137.215 71.54 137.6C71.1551 137.985 70.8552 138.446 70.6598 138.954C70.4643 139.462 70.3777 140.006 70.4055 140.549C70.4332 141.093 70.5748 141.625 70.8209 142.11C71.0671 142.596 71.4124 143.024 71.8346 143.368C71.2676 142.675 70.9583 141.806 70.9594 140.911Z" fill="white"/>
</g>
<path d="M74.2917 141.721C75.0483 141.721 75.6616 141.108 75.6616 140.351C75.6616 139.595 75.0483 138.981 74.2917 138.981C73.5352 138.981 72.9219 139.595 72.9219 140.351C72.9219 141.108 73.5352 141.721 74.2917 141.721Z" fill="#371A45"/>
<path d="M110.639 145.361C109.649 145.361 108.68 145.067 107.856 144.517C107.032 143.966 106.39 143.184 106.011 142.268C105.632 141.353 105.533 140.346 105.726 139.374C105.919 138.402 106.397 137.51 107.097 136.809C107.798 136.108 108.69 135.631 109.662 135.438C110.634 135.245 111.641 135.344 112.557 135.723C113.472 136.102 114.254 136.744 114.805 137.568C115.355 138.392 115.649 139.361 115.649 140.351C115.648 141.68 115.119 142.953 114.18 143.892C113.241 144.831 111.968 145.36 110.639 145.361Z" fill="#808080"/>
<path d="M110.639 136.46C111.408 136.46 112.161 136.688 112.801 137.116C113.441 137.543 113.939 138.151 114.234 138.862C114.529 139.573 114.606 140.356 114.455 141.111C114.305 141.866 113.935 142.559 113.39 143.103C112.846 143.647 112.153 144.018 111.398 144.168C110.643 144.318 109.861 144.241 109.149 143.947C108.438 143.652 107.83 143.154 107.403 142.514C106.975 141.874 106.747 141.121 106.747 140.352C106.747 139.319 107.157 138.33 107.887 137.6C108.617 136.87 109.606 136.46 110.639 136.46ZM110.639 134.224C109.427 134.224 108.242 134.583 107.234 135.256C106.226 135.93 105.441 136.887 104.977 138.006C104.513 139.126 104.392 140.358 104.628 141.547C104.865 142.736 105.449 143.828 106.306 144.684C107.163 145.541 108.254 146.125 109.443 146.362C110.632 146.598 111.864 146.477 112.984 146.013C114.103 145.549 115.06 144.764 115.734 143.756C116.407 142.748 116.766 141.563 116.766 140.352C116.765 138.727 116.118 137.169 114.97 136.02C113.821 134.872 112.263 134.225 110.639 134.224Z" fill="#371A45"/>
<g opacity="0.3">
<path opacity="0.3" d="M112.42 136.894C112.799 137.626 112.934 138.46 112.808 139.275C112.681 140.09 112.298 140.844 111.715 141.427C111.132 142.01 110.378 142.393 109.563 142.52C108.749 142.646 107.914 142.511 107.182 142.132C107.462 142.677 107.867 143.148 108.363 143.506C108.86 143.865 109.434 144.101 110.04 144.196C110.645 144.291 111.264 144.241 111.847 144.051C112.429 143.862 112.958 143.537 113.392 143.104C113.825 142.67 114.15 142.141 114.34 141.558C114.529 140.976 114.579 140.357 114.484 139.752C114.39 139.146 114.153 138.572 113.795 138.075C113.436 137.579 112.965 137.174 112.42 136.894Z" fill="#371A45"/>
</g>
<g opacity="0.5">
<path opacity="0.5" d="M110.919 142.001C111.675 142.001 112.289 141.388 112.289 140.632C112.289 139.875 111.675 139.262 110.919 139.262C110.162 139.262 109.549 139.875 109.549 140.632C109.549 141.388 110.162 142.001 110.919 142.001Z" fill="white"/>
</g>
<g opacity="0.5">
<path opacity="0.5" d="M107.306 140.911C107.306 140.175 107.515 139.454 107.908 138.831C108.301 138.209 108.862 137.711 109.527 137.395C110.192 137.08 110.933 136.959 111.663 137.047C112.394 137.135 113.085 137.429 113.655 137.894C113.311 137.472 112.883 137.127 112.397 136.881C111.912 136.634 111.38 136.493 110.836 136.465C110.293 136.437 109.749 136.524 109.241 136.719C108.733 136.915 108.272 137.215 107.887 137.6C107.502 137.985 107.202 138.446 107.006 138.954C106.811 139.462 106.724 140.006 106.752 140.549C106.78 141.093 106.921 141.625 107.168 142.11C107.414 142.596 107.759 143.024 108.181 143.368C107.614 142.675 107.305 141.806 107.306 140.911Z" fill="white"/>
</g>
<path d="M110.639 141.721C111.396 141.721 112.009 141.108 112.009 140.351C112.009 139.595 111.396 138.981 110.639 138.981C109.883 138.981 109.27 139.595 109.27 140.351C109.27 141.108 109.883 141.721 110.639 141.721Z" fill="#371A45"/>
<path d="M131.046 101.566C131.027 101.566 131.008 101.565 130.988 101.564L58.4061 96.5727C58.1845 96.5569 57.9783 96.4539 57.8326 96.2863C57.6869 96.1187 57.6137 95.9002 57.6289 95.6786C57.6442 95.457 57.7467 95.2506 57.9139 95.1045C58.0812 94.9584 58.2996 94.8846 58.5212 94.8993L131.103 99.8902C131.32 99.9052 131.523 100.004 131.668 100.165C131.814 100.326 131.891 100.538 131.884 100.755C131.876 100.972 131.785 101.178 131.629 101.33C131.473 101.481 131.264 101.565 131.047 101.566H131.046Z" fill="#371A45"/>
<path d="M131.046 109.744C131.027 109.744 131.008 109.743 130.988 109.742L58.4061 104.75C58.1845 104.735 57.9783 104.632 57.8326 104.464C57.6869 104.296 57.6137 104.078 57.6289 103.856C57.6442 103.635 57.7467 103.428 57.9139 103.282C58.0812 103.136 58.2996 103.062 58.5212 103.077L131.103 108.068C131.32 108.083 131.523 108.182 131.668 108.343C131.814 108.504 131.891 108.716 131.884 108.933C131.876 109.151 131.785 109.356 131.629 109.508C131.473 109.659 131.264 109.743 131.047 109.744H131.046Z" fill="#371A45"/>
<path d="M131.046 117.921C131.027 117.921 131.008 117.92 130.988 117.919L58.4061 112.928C58.1845 112.912 57.9783 112.809 57.8326 112.642C57.6869 112.474 57.6137 112.256 57.6289 112.034C57.6442 111.813 57.7467 111.606 57.9139 111.46C58.0812 111.314 58.2996 111.24 58.5212 111.255L131.103 116.246C131.32 116.261 131.523 116.359 131.668 116.521C131.814 116.682 131.891 116.894 131.884 117.111C131.876 117.328 131.785 117.534 131.629 117.685C131.473 117.836 131.264 117.921 131.047 117.921H131.046Z" fill="#371A45"/>
<path d="M131.046 126.098C131.027 126.098 131.008 126.097 130.988 126.096L58.4061 121.105C58.1845 121.089 57.9783 120.986 57.8326 120.819C57.6869 120.651 57.6137 120.432 57.6289 120.211C57.6442 119.989 57.7467 119.783 57.9139 119.637C58.0812 119.491 58.2996 119.417 58.5212 119.432L131.103 124.422C131.32 124.437 131.523 124.536 131.668 124.697C131.814 124.859 131.891 125.07 131.884 125.288C131.876 125.505 131.785 125.711 131.629 125.862C131.473 126.013 131.264 126.097 131.046 126.098Z" fill="#371A45"/>
<path d="M72.1529 126.92C71.9595 126.92 71.7722 126.853 71.6226 126.731C71.473 126.608 71.3703 126.438 71.3319 126.248L64.1837 90.9613C64.1395 90.7433 64.1837 90.5167 64.3066 90.3313C64.4295 90.1459 64.621 90.017 64.839 89.9728C65.057 89.9286 65.2836 89.9728 65.469 90.0957C65.6543 90.2186 65.7833 90.4101 65.8275 90.6281L72.9757 125.915C73 126.037 72.9971 126.162 72.967 126.283C72.937 126.404 72.8806 126.516 72.8019 126.612C72.7232 126.708 72.6242 126.786 72.512 126.839C72.3997 126.892 72.2771 126.92 72.1529 126.92H72.1529Z" fill="#371A45"/>
<path d="M80.3306 126.92C80.1372 126.92 79.9499 126.853 79.8003 126.73C79.6507 126.608 79.548 126.438 79.5097 126.248L72.3614 90.9613C72.3173 90.7433 72.3615 90.5167 72.4844 90.3313C72.6073 90.1459 72.7988 90.017 73.0167 89.9728C73.2347 89.9286 73.4613 89.9728 73.6467 90.0957C73.8321 90.2186 73.961 90.4101 74.0052 90.6281L81.1534 125.915C81.1778 126.037 81.1748 126.162 81.1448 126.283C81.1147 126.404 81.0583 126.516 80.9796 126.612C80.9009 126.708 80.8019 126.786 80.6897 126.839C80.5775 126.892 80.4548 126.92 80.3306 126.92Z" fill="#371A45"/>
<path d="M88.5084 126.92C88.315 126.92 88.1277 126.853 87.9781 126.731C87.8285 126.608 87.7258 126.438 87.6874 126.248L80.5392 90.9613C80.495 90.7433 80.5392 90.5167 80.6621 90.3313C80.785 90.1459 80.9765 90.017 81.1945 89.9728C81.4125 89.9286 81.6391 89.9728 81.8244 90.0957C82.0098 90.2186 82.1388 90.4101 82.183 90.6281L89.3312 125.915C89.3555 126.037 89.3525 126.162 89.3225 126.283C89.2924 126.404 89.236 126.516 89.1574 126.612C89.0787 126.708 88.9797 126.786 88.8674 126.839C88.7552 126.892 88.6326 126.92 88.5083 126.92H88.5084Z" fill="#371A45"/>
<path d="M96.6861 126.92C96.4927 126.92 96.3054 126.853 96.1558 126.731C96.0062 126.608 95.9035 126.438 95.8651 126.248L88.7169 90.9613C88.6727 90.7433 88.7169 90.5167 88.8398 90.3313C88.9627 90.1459 89.1542 90.017 89.3722 89.9728C89.5902 89.9286 89.8168 89.9728 90.0022 90.0957C90.1876 90.2186 90.3166 90.4101 90.3607 90.6281L97.509 125.915C97.5333 126.037 97.5303 126.162 97.5003 126.283C97.4702 126.404 97.4138 126.516 97.3352 126.612C97.2565 126.708 97.1575 126.786 97.0452 126.839C96.933 126.892 96.8104 126.92 96.6861 126.92H96.6861Z" fill="#371A45"/>
<path d="M104.863 126.92C104.67 126.92 104.482 126.853 104.333 126.731C104.183 126.608 104.08 126.438 104.042 126.248L96.8937 90.9613C96.8495 90.7433 96.8937 90.5167 97.0166 90.3313C97.1395 90.1459 97.331 90.017 97.549 89.9728C97.7669 89.9286 97.9935 89.9728 98.1789 90.0957C98.3643 90.2186 98.4933 90.4101 98.5374 90.6281L105.686 125.915C105.71 126.037 105.707 126.162 105.677 126.283C105.647 126.404 105.591 126.516 105.512 126.612C105.433 126.708 105.334 126.786 105.222 126.839C105.11 126.892 104.987 126.92 104.863 126.92H104.863Z" fill="#371A45"/>
<path d="M113.041 126.92C112.847 126.92 112.66 126.853 112.51 126.731C112.361 126.608 112.258 126.438 112.22 126.248L105.071 90.9613C105.027 90.7433 105.071 90.5167 105.194 90.3313C105.317 90.1459 105.509 90.017 105.727 89.9728C105.945 89.9286 106.171 89.9728 106.357 90.0957C106.542 90.2186 106.671 90.4101 106.715 90.6281L113.863 125.915C113.888 126.037 113.885 126.162 113.855 126.283C113.825 126.404 113.768 126.516 113.69 126.612C113.611 126.708 113.512 126.786 113.4 126.839C113.287 126.892 113.165 126.92 113.041 126.92H113.041Z" fill="#371A45"/>
<path d="M121.218 126.92C121.025 126.92 120.838 126.853 120.688 126.73C120.538 126.608 120.436 126.438 120.397 126.248L113.249 90.9613C113.205 90.7433 113.249 90.5167 113.372 90.3313C113.495 90.1459 113.686 90.017 113.904 89.9728C114.122 89.9286 114.349 89.9728 114.534 90.0957C114.72 90.2186 114.849 90.4101 114.893 90.6281L122.041 125.915C122.065 126.037 122.063 126.162 122.032 126.283C122.002 126.404 121.946 126.516 121.867 126.612C121.789 126.708 121.69 126.786 121.577 126.839C121.465 126.892 121.343 126.92 121.218 126.92Z" fill="#371A45"/>
<path d="M129.396 126.92C129.203 126.92 129.015 126.853 128.866 126.731C128.716 126.608 128.613 126.438 128.575 126.248L121.427 90.9613C121.383 90.7433 121.427 90.5167 121.55 90.3313C121.673 90.1459 121.864 90.017 122.082 89.9728C122.3 89.9286 122.527 89.9728 122.712 90.0957C122.898 90.2186 123.026 90.4101 123.071 90.6281L130.219 125.915C130.243 126.037 130.24 126.162 130.21 126.283C130.18 126.404 130.124 126.516 130.045 126.612C129.966 126.708 129.867 126.786 129.755 126.839C129.643 126.892 129.52 126.92 129.396 126.92H129.396Z" fill="#371A45"/>
<path d="M46.926 86.8736C46.8188 86.8737 46.7117 86.8672 46.6053 86.8543L35.1391 85.4757C34.791 85.4338 34.4546 85.3238 34.149 85.1519C33.8434 84.9801 33.5747 84.7497 33.3581 84.4739C33.1416 84.1982 32.9815 83.8825 32.887 83.5449C32.7924 83.2073 32.7653 82.8544 32.8072 82.5063C32.8917 81.8033 33.2521 81.1627 33.8089 80.7253C34.0847 80.5088 34.4004 80.3487 34.738 80.2542C35.0756 80.1596 35.4285 80.1325 35.7766 80.1744L47.2428 81.553C47.9182 81.6342 48.5372 81.9702 48.9733 82.4923C49.4094 83.0144 49.6297 83.6833 49.5893 84.3624C49.5488 85.0415 49.2507 85.6796 48.7557 86.1463C48.2608 86.613 47.6063 86.8732 46.926 86.8736Z" fill="white"/>
<path d="M35.456 81.2733C35.5185 81.2733 35.581 81.277 35.6432 81.2845L47.1094 82.6632C47.3121 82.687 47.5081 82.7507 47.6862 82.8504C47.8643 82.9501 48.021 83.084 48.1473 83.2444C48.2736 83.4047 48.367 83.5885 48.4222 83.785C48.4773 83.9815 48.4932 84.187 48.4688 84.3897C48.4445 84.5923 48.3804 84.7882 48.2802 84.966C48.18 85.1439 48.0457 85.3002 47.885 85.4261C47.7243 85.552 47.5404 85.6449 47.3437 85.6996C47.147 85.7543 46.9415 85.7696 46.7389 85.7447L35.2727 84.3661C34.8802 84.3189 34.5205 84.1236 34.267 83.8202C34.0136 83.5168 33.8855 83.1281 33.9088 82.7335C33.9322 82.3388 34.1054 81.968 34.3929 81.6966C34.6804 81.4253 35.0606 81.2739 35.456 81.2734V81.2733ZM35.4561 79.0371H35.456C34.4907 79.0377 33.5621 79.4067 32.8597 80.0688C32.1573 80.7309 31.7341 81.6361 31.6766 82.5997C31.6192 83.5632 31.9317 84.5124 32.5504 85.2533C33.1691 85.9942 34.0473 86.471 35.0056 86.5862L46.472 87.965C46.6227 87.983 46.7743 87.992 46.9261 87.9921C47.8913 87.9916 48.82 87.6226 49.5224 86.9605C50.2248 86.2984 50.6479 85.3931 50.7054 84.4296C50.7629 83.466 50.4504 82.5169 49.8317 81.776C49.213 81.0351 48.3348 80.5583 47.3764 80.443L35.9101 79.0642C35.7594 79.0462 35.6078 79.0372 35.4561 79.0371V79.0371Z" fill="#371A45"/>
<g opacity="0.2">
<path opacity="0.2" d="M47.1095 82.6629L45.1455 82.4268C44.0528 82.976 40.3433 84.47 34.0166 83.4C34.1199 83.659 34.291 83.8854 34.5121 84.0554C34.7332 84.2253 34.996 84.3325 35.2728 84.3657L46.739 85.7444C47.1477 85.7935 47.5591 85.6783 47.8828 85.4241C48.2064 85.1699 48.4159 84.7975 48.465 84.3889C48.5141 83.9803 48.3989 83.5689 48.1447 83.2452C47.8905 82.9215 47.5182 82.712 47.1095 82.6629L47.1095 82.6629Z" fill="#371A45"/>
</g>
<path d="M129.281 57.4707C127.853 57.4673 126.47 56.9692 125.368 56.0611C124.266 55.153 123.512 53.891 123.235 52.4899L119.832 35.1476C119.517 33.5449 119.85 31.8828 120.757 30.5249L138.673 3.85945C139.237 3.01637 140 2.32523 140.895 1.84711C141.789 1.369 142.788 1.11864 143.802 1.11816C145.026 1.11942 146.221 1.48173 147.239 2.15967L167.992 16.1025C169.346 17.019 170.284 18.4325 170.603 20.0363C170.761 20.8293 170.759 21.6457 170.599 22.4382C170.439 23.2306 170.123 23.9835 169.67 24.6531L151.749 51.3267C151.302 52.0042 150.724 52.5853 150.049 53.0359C149.374 53.4864 148.615 53.7973 147.818 53.9502L130.476 57.3542C130.082 57.4314 129.682 57.4705 129.281 57.4707H129.281ZM132.282 44.1863C132.107 44.1865 131.932 44.2035 131.76 44.2373C131.11 44.3651 130.531 44.73 130.135 45.2612C129.739 45.7924 129.554 46.4519 129.618 47.1115C129.681 47.771 129.987 48.3835 130.477 48.8299C130.966 49.2762 131.605 49.5245 132.267 49.5265C132.442 49.5263 132.617 49.5092 132.789 49.4755C133.439 49.3477 134.018 48.9827 134.414 48.4515C134.81 47.9203 134.994 47.2608 134.931 46.6013C134.868 45.9418 134.562 45.3293 134.072 44.8829C133.583 44.4366 132.944 44.1883 132.282 44.1863Z" fill="#FF5722"/>
<path d="M143.802 2.23621C144.806 2.23862 145.786 2.53624 146.622 3.092L167.368 17.0306C168.479 17.7766 169.247 18.9331 169.505 20.2456C169.762 21.5581 169.488 22.9192 168.742 24.0295L150.821 50.7032C150.455 51.2577 149.981 51.7335 149.429 52.1026C148.876 52.4717 148.255 52.7269 147.602 52.853L130.26 56.257C129.609 56.3855 128.939 56.3844 128.289 56.2538C127.639 56.1231 127.021 55.8654 126.47 55.4955C125.919 55.1255 125.447 54.6506 125.08 54.0979C124.714 53.5452 124.459 52.9256 124.332 52.2745L120.929 34.9321C120.673 33.6178 120.947 32.2558 121.69 31.142L139.601 4.48288C140.063 3.79205 140.688 3.22567 141.42 2.83381C142.153 2.44196 142.971 2.2367 143.802 2.23621ZM132.267 50.6445C132.514 50.6444 132.761 50.6203 133.004 50.5726C133.926 50.3913 134.749 49.8733 135.311 49.1193C135.873 48.3653 136.134 47.4292 136.044 46.4931C135.954 45.5571 135.519 44.688 134.823 44.0549C134.128 43.4219 133.222 43.0702 132.282 43.0681C132.034 43.0683 131.788 43.0923 131.545 43.1401C130.622 43.3213 129.8 43.8393 129.238 44.5933C128.676 45.3474 128.414 46.2835 128.505 47.2196C128.595 48.1557 129.03 49.0248 129.725 49.6578C130.421 50.2909 131.327 50.6426 132.267 50.6445ZM143.802 0C142.604 0.000559769 141.425 0.296074 140.369 0.860441C139.312 1.42481 138.411 2.24066 137.745 3.23593L119.834 29.8948C118.758 31.5 118.362 33.4663 118.734 35.3626L122.138 52.7051C122.322 53.6443 122.689 54.5382 123.218 55.3354C123.747 56.1327 124.429 56.8178 125.223 57.3515C126.017 57.8852 126.909 58.2571 127.847 58.4458C128.785 58.6345 129.752 58.6364 130.691 58.4513L148.033 55.0474C148.977 54.8658 149.875 54.4971 150.674 53.963C151.473 53.4288 152.157 52.7401 152.686 51.9373L170.598 25.2766C171.134 24.4852 171.507 23.5955 171.696 22.659C171.885 21.7226 171.886 20.7579 171.7 19.8208C171.324 17.9263 170.215 16.2567 168.615 15.1743L147.869 1.23572C146.665 0.431667 145.25 0.00172607 143.802 0V0ZM132.267 48.4083C131.882 48.4063 131.512 48.2615 131.228 48.0018C130.944 47.7421 130.767 47.3862 130.73 47.0032C130.694 46.6201 130.801 46.2372 131.032 45.9289C131.262 45.6205 131.598 45.4087 131.976 45.3345C132.077 45.3146 132.179 45.3045 132.282 45.3044C132.667 45.3064 133.037 45.4513 133.321 45.711C133.605 45.9707 133.782 46.3266 133.818 46.7097C133.854 47.0927 133.747 47.4756 133.517 47.7839C133.287 48.0923 132.95 48.3041 132.573 48.3784C132.472 48.3981 132.37 48.4082 132.267 48.4084L132.267 48.4083Z" fill="#371A45"/>
<g opacity="0.2">
<path opacity="0.2" d="M150.821 50.7032L168.742 24.0293C169.472 22.9445 169.75 21.6184 169.518 20.332C168.169 22.7228 151.711 52.3285 122.081 40.0293L124.333 52.2744C124.46 52.9252 124.715 53.5445 125.082 54.0969C125.449 54.6493 125.921 55.1239 126.471 55.4938C127.022 55.8636 127.64 56.1213 128.29 56.2523C128.94 56.3832 129.61 56.3848 130.26 56.2569L147.603 52.8529C148.255 52.7268 148.876 52.4716 149.429 52.1025C149.981 51.7334 150.455 51.2576 150.821 50.7032ZM133.004 50.5725C132.269 50.7168 131.508 50.6398 130.816 50.3514C130.125 50.063 129.535 49.5761 129.12 48.9523C128.706 48.3284 128.485 47.5957 128.487 46.8466C128.489 46.0976 128.713 45.366 129.131 44.7442C129.549 44.1225 130.141 43.6386 130.834 43.3537C131.527 43.0688 132.288 42.9958 133.023 43.1438C133.757 43.2918 134.431 43.6542 134.959 44.1851C135.487 44.7161 135.846 45.3918 135.991 46.1269C136.087 46.6149 136.086 47.1172 135.988 47.605C135.89 48.0928 135.697 48.5565 135.42 48.9694C135.142 49.3824 134.786 49.7366 134.372 50.0117C133.957 50.2867 133.492 50.4773 133.004 50.5725Z" fill="#371A45"/>
</g>
<g opacity="0.5">
<path opacity="0.5" d="M133.563 52.5292C134.163 52.4124 134.726 52.1519 135.203 51.77C135.68 51.3881 136.058 50.8961 136.303 50.3363C136.549 49.7765 136.655 49.1655 136.613 48.5557C136.57 47.9459 136.381 47.3554 136.06 46.835C136.065 47.6618 135.8 48.4675 135.304 49.1291C134.808 49.7906 134.109 50.2715 133.313 50.4981C132.518 50.7248 131.671 50.6849 130.9 50.3844C130.13 50.0839 129.479 49.5394 129.048 48.8342C129.05 49.3918 129.175 49.9421 129.415 50.4456C129.654 50.9491 130.002 51.3934 130.434 51.7465C130.866 52.0997 131.37 52.353 131.911 52.4883C132.452 52.6236 133.016 52.6376 133.563 52.5292V52.5292Z" fill="white"/>
</g>
<g opacity="0.5">
<path opacity="0.5" d="M121.487 36.8891C121.232 35.5747 121.505 34.2127 122.249 33.0989L140.16 6.43994C140.529 5.88736 141.004 5.41301 141.557 5.04402C142.11 4.67502 142.73 4.4186 143.382 4.28942C144.034 4.16024 144.705 4.16083 145.357 4.29115C146.009 4.42147 146.629 4.67897 147.181 5.04894L167.927 18.9875C168.625 19.4585 169.194 20.0962 169.582 20.8428C169.529 20.0804 169.302 19.3404 168.918 18.6795C168.534 18.0187 168.004 17.4547 167.368 17.0308L146.622 3.0923C146.07 2.72233 145.45 2.46483 144.798 2.33451C144.146 2.20419 143.475 2.2036 142.823 2.33278C142.171 2.46196 141.551 2.71838 140.998 3.08738C140.445 3.45638 139.97 3.93072 139.601 4.4833L121.69 31.1423C120.946 32.256 120.673 33.6181 120.928 34.9324L124.332 52.2748C124.418 52.7011 124.557 53.1145 124.749 53.5048L121.487 36.8891Z" fill="white"/>
</g>
<path d="M151.163 32.1828C150.797 31.5196 150.27 30.959 149.631 30.5526C149.205 30.2311 148.718 29.9989 148.2 29.8698C147.682 29.7407 147.143 29.7174 146.616 29.8013C145.61 30.0654 144.734 30.6877 144.154 31.5514C143.574 32.4151 143.328 33.4608 143.464 34.4925C143.586 35.0123 143.811 35.5023 144.126 35.9332C144.442 36.364 144.841 36.7268 145.3 36.9998C145.917 37.4382 146.636 37.7141 147.388 37.8022C148.06 37.874 148.738 37.727 149.32 37.383C149.906 37.0404 150.407 36.5699 150.785 36.0066C151.164 35.4433 151.41 34.8019 151.506 34.1301C151.604 33.4611 151.484 32.7782 151.163 32.1828ZM148.444 34.4154C148.133 34.9668 147.664 35.4126 147.098 35.6958C146.959 35.7465 146.809 35.7616 146.663 35.7396C146.517 35.7176 146.378 35.6592 146.26 35.5699C146.134 35.4958 146.028 35.3905 145.954 35.264C145.879 35.1375 145.839 34.9941 145.835 34.8474C145.885 34.2167 146.121 33.6148 146.512 33.1176C146.823 32.5662 147.292 32.1204 147.858 31.8371C147.995 31.7817 148.144 31.7628 148.29 31.7825C148.437 31.8021 148.575 31.8595 148.693 31.949C148.821 32.0253 148.927 32.133 149.002 32.2618C149.077 32.3907 149.118 32.5365 149.12 32.6855C149.072 33.3167 148.837 33.9191 148.444 34.4154Z" fill="white"/>
<path d="M137.372 31.7308L135.065 30.1808L155.794 19.2988L158.076 20.8328L137.372 31.7308Z" fill="white"/>
<path d="M149.421 15.6906C149.058 15.0269 148.534 14.4656 147.896 14.059C147.468 13.7359 146.98 13.5027 146.46 13.3733C145.94 13.244 145.399 13.2212 144.87 13.3063C144.362 13.4147 143.881 13.6259 143.458 13.9268C143.034 14.2278 142.677 14.6121 142.407 15.0563C142.098 15.4736 141.877 15.9498 141.759 16.4556C141.64 16.9614 141.626 17.4861 141.718 17.9974C141.839 18.5194 142.065 19.0115 142.381 19.4441C142.697 19.8767 143.098 20.2408 143.559 20.5145C144.176 20.9512 144.894 21.2248 145.646 21.3099C146.318 21.3818 146.996 21.2348 147.578 20.8907C148.161 20.5455 148.661 20.0743 149.039 19.5115C149.417 18.9487 149.664 18.3086 149.763 17.6378C149.862 16.9688 149.742 16.2859 149.421 15.6906ZM146.7 17.9161C146.389 18.4675 145.92 18.9134 145.354 19.1965C145.217 19.252 145.068 19.2708 144.922 19.2512C144.775 19.2315 144.637 19.1741 144.519 19.0846C144.392 19.0092 144.286 18.903 144.21 18.7758C144.134 18.6486 144.092 18.5045 144.086 18.3566C144.137 17.7227 144.375 17.118 144.768 16.6184C145.079 16.0671 145.548 15.6212 146.114 15.3379C146.253 15.2872 146.403 15.2721 146.549 15.2942C146.695 15.3162 146.834 15.3745 146.952 15.4639C147.079 15.538 147.184 15.6432 147.258 15.7697C147.333 15.8962 147.374 16.0396 147.377 16.1862C147.329 16.8174 147.093 17.4198 146.7 17.9161Z" fill="white"/>
<path d="M119.696 65.5972C119.096 65.1946 118.682 64.5705 118.543 63.8621C118.404 63.1537 118.552 62.419 118.954 61.8198L130.009 45.3653C130.412 44.7661 131.036 44.3513 131.744 44.2123C132.453 44.0733 133.187 44.2213 133.787 44.6239C134.386 45.0265 134.801 45.6507 134.94 46.3591C135.079 47.0675 134.931 47.8021 134.528 48.4013L123.473 64.8558C123.07 65.4551 122.446 65.8698 121.738 66.0089C121.03 66.1479 120.295 65.9998 119.696 65.5972Z" fill="white"/>
<path d="M121.206 67.1791C120.51 67.1773 119.828 66.9867 119.232 66.6276C118.637 66.2686 118.15 65.7545 117.823 65.1403C117.497 64.5261 117.343 63.8348 117.379 63.1402C117.415 62.4455 117.638 61.7736 118.026 61.1961L129.081 44.7418C129.65 43.8974 130.53 43.313 131.529 43.1169C132.528 42.9208 133.564 43.129 134.41 43.6958H134.41C135.255 44.2646 135.839 45.1451 136.035 46.1441C136.231 47.1431 136.023 48.1791 135.456 49.0249L124.401 65.4794C124.121 65.8989 123.76 66.2587 123.34 66.538C122.92 66.8172 122.449 67.0103 121.953 67.1062C121.707 67.1546 121.457 67.179 121.206 67.1791ZM132.271 45.28C132.008 45.2795 131.748 45.3439 131.516 45.4676C131.283 45.5912 131.084 45.7703 130.937 45.989L119.882 62.4433C119.765 62.6181 119.683 62.8144 119.641 63.0208C119.6 63.2273 119.599 63.44 119.64 63.6467C119.68 63.8533 119.761 64.05 119.878 64.2255C119.994 64.4009 120.144 64.5516 120.319 64.6691C120.494 64.7866 120.69 64.8684 120.897 64.9101C121.103 64.9517 121.316 64.9522 121.523 64.9117C121.729 64.8711 121.926 64.7902 122.101 64.6737C122.277 64.5571 122.428 64.4071 122.545 64.2323L133.6 47.7779C133.837 47.4247 133.924 46.9919 133.842 46.5746C133.76 46.1573 133.516 45.7896 133.163 45.552H133.163C132.9 45.3745 132.589 45.2798 132.271 45.28H132.271Z" fill="#371A45"/>
<g opacity="0.2">
<path opacity="0.2" d="M134.967 47.2315C134.422 47.0962 134.101 47.0176 134.101 47.0176C134.101 47.0176 126.431 57.9733 121.938 57.3797L118.955 61.8196C118.755 62.1163 118.616 62.4495 118.545 62.8C118.474 63.1505 118.473 63.5116 118.542 63.8626C118.611 64.2135 118.748 64.5475 118.946 64.8454C119.144 65.1433 119.398 65.3992 119.695 65.5987C119.992 65.7981 120.325 65.9371 120.676 66.0077C121.026 66.0783 121.388 66.0791 121.738 66.0101C122.089 65.9411 122.423 65.8036 122.721 65.6055C123.019 65.4074 123.274 65.1526 123.474 64.8556L134.529 48.4011C134.764 48.0507 134.914 47.6502 134.967 47.2315Z" fill="#371A45"/>
</g>
</svg>
