<svg width="60" height="63" viewBox="0 0 60 63" fill="none" xmlns="http://www.w3.org/2000/svg">
<path d="M29.6996 9.90039C29.8996 10.4004 29.9996 10.7004 30.0996 11.0004C32.0996 16.2004 34.0996 21.5004 36.0996 26.7004C36.5996 28.0004 36.7996 29.7004 37.6996 30.4004C38.6996 31.2004 40.2996 30.5004 41.6996 30.6004C42.4996 30.7004 42.8996 30.3004 43.0996 29.6004C44.5996 25.7004 46.0996 21.8004 47.5996 17.8004C48.5996 15.2004 49.5996 12.5004 50.6996 9.80039C48.9996 9.80039 47.3997 9.90039 45.8997 9.80039C44.8997 9.70039 44.4996 10.1004 44.1996 11.0004C42.9996 14.7004 41.6997 18.4004 40.3997 22.1004C39.5997 21.9004 39.5996 21.2004 39.4996 20.7004C38.2996 17.4004 37.1996 14.1004 36.0996 10.7004C35.8996 10.2004 35.8996 9.70039 35.1996 9.70039C33.3996 9.90039 31.5996 9.90039 29.6996 9.90039ZM8.09961 33.8004C8.19961 34.2004 8.29966 34.5004 8.39966 34.8004C10.4997 40.1004 12.4996 45.4004 14.5996 50.8004C16.1996 54.9004 16.1997 54.8004 20.3997 54.6004C20.8997 54.6004 21.1997 54.5004 21.3997 53.9004C23.8997 47.5004 26.2996 41.0004 28.7996 34.6004C29.0996 33.9004 28.9996 33.7004 28.2996 33.7004C26.7996 33.7004 25.3997 33.7004 23.8997 33.7004C23.1997 33.7004 22.9996 34.0004 22.7996 34.6004C22.1996 36.5004 21.4997 38.3004 20.8997 40.2004C20.1997 42.3004 19.4996 44.4004 18.5996 46.7004C17.0996 42.5004 15.7996 38.6004 14.4996 34.7004C14.2996 34.2004 14.2996 33.7004 13.5996 33.7004C11.7996 33.8004 9.99961 33.8004 8.09961 33.8004ZM30.3997 44.1004C30.6997 52.5004 36.1996 55.2004 42.0996 54.9004C44.6996 54.8004 47.0996 53.3004 48.7996 50.9004C49.2996 50.2004 49.1996 50.0004 48.5996 49.6004C47.7996 49.1004 47.0997 48.6004 46.3997 48.0004C45.5997 47.3004 45.0996 47.2004 44.2996 48.1004C41.9996 50.5004 38.2996 50.0004 36.7996 47.2004C35.7996 45.4004 35.7996 43.4004 36.4996 41.5004C37.4996 38.7004 42.1997 37.8004 43.8997 40.2004C44.4997 41.0004 45.1996 41.1004 45.9996 40.3004C46.6996 39.6004 47.3996 39.0004 48.1996 38.5004C48.9996 37.9004 49.0997 37.5004 48.3997 36.7004C45.7997 33.7004 41.0996 32.5004 36.9996 34.0004C32.9996 35.6004 30.3997 39.5004 30.3997 44.1004ZM19.3997 9.50039C18.6997 9.60039 17.9996 9.50039 17.2996 9.70039C16.4996 9.90039 15.7996 10.1004 14.9996 10.4004C8.69963 13.1004 6.79961 22.5004 11.5996 27.5004C14.2996 30.3004 17.3996 31.5004 21.1996 30.8004C23.7996 30.3004 25.7997 29.0004 27.3997 27.0004C27.8997 26.4004 27.7996 26.1004 27.1996 25.7004C26.2996 25.1004 25.3996 24.5004 24.5996 23.8004C23.9996 23.3004 23.6996 23.3004 23.0996 23.9004C21.6996 25.5004 19.8997 26.1004 17.8997 25.4004C15.1997 24.6004 13.9996 21.2004 14.7996 18.1004C15.5996 15.4004 18.5996 14.0004 21.1996 15.2004C22.1996 15.6004 22.7997 17.1004 23.8997 16.6004C24.8997 16.2004 25.6996 15.2004 26.5996 14.5004C26.6996 14.4004 26.7997 14.3004 26.8997 14.2004C27.5997 13.9004 27.4996 13.5004 26.9996 13.0004C25.1996 10.6004 22.4997 9.40039 19.3997 9.50039ZM0.0996094 62.8004C0.0996094 42.4004 0.0996094 22.0004 0.0996094 1.50039C0.0996094 0.600391 0.299646 0.400391 1.19965 0.400391C20.3996 0.400391 39.6997 0.400391 58.8997 0.400391C59.7997 0.400391 59.9996 0.600391 59.9996 1.50039C59.9996 21.5004 59.9996 41.6004 59.9996 61.6004C59.9996 62.5004 59.7997 62.7004 58.8997 62.7004C39.2997 62.8004 19.6996 62.8004 0.0996094 62.8004Z" fill="#292E45"/>
<path d="M19.3993 9.5C22.4993 9.5 25.1993 10.6 27.2993 13.1C27.7993 13.6 27.7993 14 27.1993 14.3C27.0993 14.4 26.9993 14.5 26.8993 14.6C25.9993 15.3 25.1993 16.3 24.1993 16.7C23.0993 17.2 22.4993 15.7 21.4993 15.3C18.7993 14.1 15.7993 15.5 15.0993 18.2C14.1993 21.3 15.4993 24.7 18.1993 25.5C20.1993 26.1 21.9993 25.6 23.3993 24C23.8993 23.4 24.2993 23.4 24.8993 23.9C25.6993 24.6 26.5993 25.2 27.4993 25.8C28.0993 26.2 28.0993 26.5 27.6993 27.1C25.9993 29.1 23.9993 30.4 21.4993 30.9C17.6993 31.6 14.5993 30.4 11.8993 27.6C7.19934 22.6 8.9993 13.1 15.2993 10.5C15.9993 10.2 16.7993 9.9 17.5993 9.8C17.9993 9.5 18.6993 9.5 19.3993 9.5Z" fill="#F8F8F8"/>
<path d="M30.3994 44.1001C30.3994 39.5001 32.9994 35.6001 37.0994 34.0001C41.0994 32.5001 45.7994 33.6001 48.4994 36.7001C49.1994 37.5001 49.0994 37.9001 48.2994 38.5001C47.4994 39.0001 46.7994 39.6001 46.0994 40.3001C45.2994 41.1001 44.6994 41.0001 43.9994 40.2001C42.1994 37.9001 37.5994 38.8001 36.5994 41.5001C35.8994 43.5001 35.8994 45.4001 36.8994 47.2001C38.3994 50.0001 41.9994 50.5001 44.3994 48.1001C45.2994 47.2001 45.7994 47.4001 46.4994 48.0001C47.1994 48.6001 47.8994 49.1001 48.6994 49.6001C49.2994 50.0001 49.3994 50.3001 48.8994 50.9002C47.1994 53.2001 44.6994 54.7001 42.1994 54.9002C36.1994 55.2001 30.6994 52.5001 30.3994 44.1001Z" fill="#F8F8F8"/>
<path d="M8.09961 33.8008C9.99961 33.8008 11.7996 33.8008 13.5996 33.8008C14.2996 33.8008 14.2996 34.3008 14.4996 34.8008C15.7996 38.7008 17.1996 42.6008 18.5996 46.8008C19.3996 44.4008 20.0997 42.3008 20.8997 40.3008C21.4997 38.5008 22.1996 36.6008 22.7996 34.7008C22.9996 34.1008 23.1997 33.8008 23.8997 33.8008C25.3997 33.9008 26.7996 33.8008 28.2996 33.8008C28.9996 33.8008 29.0996 34.0008 28.7996 34.7008C26.2996 41.1008 23.7997 47.6008 21.3997 54.0008C21.1997 54.5008 20.8997 54.6008 20.3997 54.7008C16.1997 54.9008 16.0996 55.0008 14.5996 50.9008C12.4996 45.6008 10.4997 40.3008 8.39966 34.9008C8.29966 34.6008 8.19961 34.3008 8.09961 33.8008Z" fill="#F8F8F8"/>
<path d="M29.6992 9.90039C31.5992 9.90039 33.3992 9.90039 35.1992 9.90039C35.8992 9.90039 35.8992 10.4004 36.0992 10.9004C37.1992 14.2004 38.3992 17.6004 39.4992 20.9004C39.6992 21.4004 39.5992 22.0004 40.3992 22.3004C41.6992 18.6004 42.9992 14.9004 44.1992 11.2004C44.4992 10.2004 44.8992 9.90039 45.8992 10.0004C47.3992 10.1004 48.9992 10.0004 50.6992 10.0004C49.5992 12.8004 48.5992 15.4004 47.5992 18.0004C46.0992 21.9004 44.5992 25.8004 43.0992 29.8004C42.7992 30.5004 42.4992 30.9004 41.6992 30.8004C40.2992 30.7004 38.6992 31.3004 37.6992 30.6004C36.7992 29.9004 36.5992 28.2004 36.0992 26.9004C34.0992 21.7004 32.0992 16.4004 30.0992 11.2004C29.9992 10.7004 29.7992 10.3004 29.6992 9.90039Z" fill="#F8F8F8"/>
</svg>
