<svg id="dark_-bg" data-name="dark -bg" xmlns="http://www.w3.org/2000/svg" xmlns:xlink="http://www.w3.org/1999/xlink" viewBox="0 0 707.62 436.85"><defs><style>.cls-1{fill:#1a191f;}.cls-2{fill:url(#linear-gradient);}.cls-3{fill:url(#linear-gradient-2);}.cls-4{fill:url(#linear-gradient-3);}.cls-5{fill:url(#linear-gradient-4);}.cls-6{fill:url(#linear-gradient-5);}.cls-7{fill:url(#linear-gradient-6);}.cls-8{fill:url(#linear-gradient-7);}.cls-9{fill:url(#linear-gradient-8);}.cls-10{fill:#4d4d4d;}.cls-11{fill:url(#linear-gradient-9);}.cls-12{fill:url(#linear-gradient-10);}.cls-13{fill:url(#linear-gradient-11);}</style><linearGradient id="linear-gradient" x1="635.36" y1="611.52" x2="759.57" y2="737.95" gradientUnits="userSpaceOnUse"><stop offset="0" stop-color="#27aae1"/><stop offset="1" stop-color="#1b75bc"/></linearGradient><linearGradient id="linear-gradient-2" x1="650.08" y1="597.06" x2="774.29" y2="723.49" xlink:href="#linear-gradient"/><linearGradient id="linear-gradient-3" x1="667.15" y1="580.29" x2="791.36" y2="706.72" xlink:href="#linear-gradient"/><linearGradient id="linear-gradient-4" x1="686.74" y1="561.04" x2="810.96" y2="687.47" xlink:href="#linear-gradient"/><linearGradient id="linear-gradient-5" x1="702.98" y1="545.08" x2="827.2" y2="671.52" xlink:href="#linear-gradient"/><linearGradient id="linear-gradient-6" x1="718.68" y1="529.66" x2="842.9" y2="656.09" xlink:href="#linear-gradient"/><linearGradient id="linear-gradient-7" x1="736" y1="512.64" x2="860.22" y2="639.07" xlink:href="#linear-gradient"/><linearGradient id="linear-gradient-8" x1="751.18" y1="497.73" x2="875.39" y2="624.16" xlink:href="#linear-gradient"/><linearGradient id="linear-gradient-9" x1="585.33" y1="211.25" x2="782.65" y2="710.55" gradientUnits="userSpaceOnUse"><stop offset="0" stop-color="#1a191f"/><stop offset="1"/></linearGradient><linearGradient id="linear-gradient-10" x1="137.62" y1="101.89" x2="221.02" y2="169.01" xlink:href="#linear-gradient"/><linearGradient id="linear-gradient-11" x1="969.61" y1="156.43" x2="863.61" y2="231.43" xlink:href="#linear-gradient"/></defs><path class="cls-1" d="M428.37,518.27a38,38,0,0,1-2.14,13.2,28.06,28.06,0,0,1-6,9.87,26.1,26.1,0,0,1-9.29,6.18A32,32,0,0,1,399,549.66H376.35V486.89H399A32,32,0,0,1,410.91,489a26.1,26.1,0,0,1,9.29,6.18,28.06,28.06,0,0,1,6,9.87A38,38,0,0,1,428.37,518.27Zm-2.59,0a37.23,37.23,0,0,0-1.94-12.47,26,26,0,0,0-5.49-9.23,23.53,23.53,0,0,0-8.49-5.71,29.12,29.12,0,0,0-10.87-2H378.81v58.76H399a29.12,29.12,0,0,0,10.87-2,23.53,23.53,0,0,0,8.49-5.71,26,26,0,0,0,5.49-9.22A37.35,37.35,0,0,0,425.78,518.27Z" transform="translate(-376.35 -168.35)"/><path class="cls-1" d="M524.64,549.66h-1.92a1,1,0,0,1-1-.75L513.57,529H481.33l-8.17,19.87a1,1,0,0,1-1,.75H470.3l26-62.77h2.36Zm-11.88-22.5-14.38-35c-.32-.81-.64-1.7-.93-2.68a19,19,0,0,1-.94,2.68l-14.38,35Z" transform="translate(-376.35 -168.35)"/><path class="cls-1" d="M613.58,549.66h-2a2.57,2.57,0,0,1-.87-.13,1.72,1.72,0,0,1-.74-.62L587.82,521.8a4.83,4.83,0,0,0-.74-.8,3.46,3.46,0,0,0-.85-.52,5,5,0,0,0-1.11-.29,14.1,14.1,0,0,0-1.59-.08h-9.15v29.55h-2.46V486.89h15.14q10.22,0,15.54,4t5.31,12.06a16,16,0,0,1-1.38,6.72,15.69,15.69,0,0,1-3.89,5.22,19.1,19.1,0,0,1-6.07,3.53,27.7,27.7,0,0,1-7.9,1.58,6.07,6.07,0,0,1,1.56,1.34Zm-39.2-31.43h12a28,28,0,0,0,8-1.05,17.28,17.28,0,0,0,6-3,13.36,13.36,0,0,0,3.8-4.79,14.78,14.78,0,0,0,1.31-6.35q0-7.28-4.73-10.71t-13.66-3.44H574.38Z" transform="translate(-376.35 -168.35)"/><path class="cls-1" d="M663.41,516.67h4c.56,0,1.05,0,1.45,0a4.45,4.45,0,0,0,1.12-.22,3.44,3.44,0,0,0,.93-.49,7.85,7.85,0,0,0,.92-.81l27.68-27.28a3.34,3.34,0,0,1,1-.73,2.62,2.62,0,0,1,1.09-.2h1.79l-29.25,28.79a14.89,14.89,0,0,1-1.36,1.17,4.49,4.49,0,0,1-1.36.62,5.18,5.18,0,0,1,1.47.63,6.07,6.07,0,0,1,1.3,1.16l31,30.4h-1.78a2.81,2.81,0,0,1-1.25-.2,2.34,2.34,0,0,1-.76-.64L672.3,520.46c-.33-.32-.63-.6-.9-.82a3.72,3.72,0,0,0-.89-.56,4.87,4.87,0,0,0-1.18-.34,12.16,12.16,0,0,0-1.77-.11h-4.15v31H661V486.89h2.46Z" transform="translate(-376.35 -168.35)"/><path class="cls-1" d="M767.09,486.89q10.62,0,16.14,4.55t5.51,13.66a17.44,17.44,0,0,1-1.54,7.35,16.41,16.41,0,0,1-4.4,5.8,20.56,20.56,0,0,1-6.85,3.8,27.27,27.27,0,0,1-8.86,1.36H754.54v26.25h-2.45V486.89Zm0,34.51a24,24,0,0,0,8-1.25,18.12,18.12,0,0,0,6-3.44,15,15,0,0,0,3.81-5.18,15.4,15.4,0,0,0,1.34-6.43q0-7.94-4.77-12.1t-14.38-4.15H754.54V521.4Z" transform="translate(-376.35 -168.35)"/><path class="cls-1" d="M893,518.27a38.8,38.8,0,0,1-2.15,13.29,29.06,29.06,0,0,1-6,10.09,26.27,26.27,0,0,1-9.29,6.41,33,33,0,0,1-23.84,0,26.18,26.18,0,0,1-9.29-6.41,29.23,29.23,0,0,1-6-10.09,42.24,42.24,0,0,1,0-26.55,29.23,29.23,0,0,1,6-10.11,26.67,26.67,0,0,1,9.29-6.45,30.22,30.22,0,0,1,11.87-2.28,30.65,30.65,0,0,1,12,2.26,26.32,26.32,0,0,1,9.29,6.43,29,29,0,0,1,6,10.11A38.94,38.94,0,0,1,893,518.27Zm-2.59,0a38,38,0,0,0-1.94-12.56,27,27,0,0,0-5.5-9.45,23.6,23.6,0,0,0-8.48-5.94,28.14,28.14,0,0,0-10.92-2.05,27.81,27.81,0,0,0-10.82,2.05,23.72,23.72,0,0,0-8.49,5.94,27.56,27.56,0,0,0-5.53,9.45,40.66,40.66,0,0,0,0,25.13,27,27,0,0,0,5.53,9.4,24,24,0,0,0,8.49,5.9,27.81,27.81,0,0,0,10.82,2.05,28.14,28.14,0,0,0,10.92-2.05,23.87,23.87,0,0,0,8.48-5.9,26.54,26.54,0,0,0,5.5-9.4A38,38,0,0,0,890.37,518.27Z" transform="translate(-376.35 -168.35)"/><path class="cls-1" d="M999,518.27a38.8,38.8,0,0,1-2.15,13.29,29.06,29.06,0,0,1-6,10.09,26.27,26.27,0,0,1-9.29,6.41,33,33,0,0,1-23.84,0,26.18,26.18,0,0,1-9.29-6.41,29.23,29.23,0,0,1-6-10.09,42.24,42.24,0,0,1,0-26.55,29.23,29.23,0,0,1,6-10.11,26.67,26.67,0,0,1,9.29-6.45,30.22,30.22,0,0,1,11.87-2.28,30.65,30.65,0,0,1,12,2.26,26.32,26.32,0,0,1,9.29,6.43,29,29,0,0,1,6,10.11A38.94,38.94,0,0,1,999,518.27Zm-2.59,0a38,38,0,0,0-1.94-12.56,27,27,0,0,0-5.5-9.45,23.6,23.6,0,0,0-8.48-5.94,28.14,28.14,0,0,0-10.92-2.05,27.81,27.81,0,0,0-10.82,2.05,23.72,23.72,0,0,0-8.49,5.94,27.56,27.56,0,0,0-5.53,9.45,40.66,40.66,0,0,0,0,25.13,27,27,0,0,0,5.53,9.4,24,24,0,0,0,8.49,5.9,27.81,27.81,0,0,0,10.82,2.05,28.14,28.14,0,0,0,10.92-2.05,23.87,23.87,0,0,0,8.48-5.9,26.54,26.54,0,0,0,5.5-9.4A38,38,0,0,0,996.37,518.27Z" transform="translate(-376.35 -168.35)"/><path class="cls-1" d="M1084,547.52v2.14h-33.58V486.89h2.46v60.63Z" transform="translate(-376.35 -168.35)"/><path class="cls-2" d="M622.82,582.2l-9.43,22.72h-.79l-9.44-22.72h.69a.34.34,0,0,1,.36.27l8.43,20.35c.07.17.13.34.19.52s.12.36.17.54c.1-.36.21-.72.34-1.06l8.42-20.35a.35.35,0,0,1,.38-.27Z" transform="translate(-376.35 -168.35)"/><path class="cls-3" d="M653.38,604.16l0,.76H639.93V582.2h13.42V583H640.82V593h10.55v.75H640.82v10.39Z" transform="translate(-376.35 -168.35)"/><path class="cls-4" d="M688.72,582.2v22.72h-.38a.43.43,0,0,1-.35-.2L672.4,583.65c0,.1,0,.2,0,.3s0,.2,0,.28v20.69h-.78V582.2h.41a.46.46,0,0,1,.21,0,.54.54,0,0,1,.17.17l15.53,21c0-.1,0-.2,0-.29a2.72,2.72,0,0,1,0-.28V582.2Z" transform="translate(-376.35 -168.35)"/><path class="cls-5" d="M723.29,583H715v21.95h-.89V583h-8.37v-.77h17.58Z" transform="translate(-376.35 -168.35)"/><path class="cls-6" d="M748.37,604.4a7.65,7.65,0,0,0,3.14-.62,7,7,0,0,0,2.34-1.71,7.53,7.53,0,0,0,1.47-2.54,9.54,9.54,0,0,0,.51-3.15V582.2h.91v14.18a10.24,10.24,0,0,1-.58,3.45,8.28,8.28,0,0,1-1.68,2.81,7.71,7.71,0,0,1-2.63,1.88,9.15,9.15,0,0,1-7,0,7.75,7.75,0,0,1-2.64-1.88,8.4,8.4,0,0,1-1.66-2.81,10,10,0,0,1-.58-3.45V582.2h.89v14.15a9.54,9.54,0,0,0,.51,3.15,7.53,7.53,0,0,0,1.47,2.56,6.79,6.79,0,0,0,2.35,1.72A7.7,7.7,0,0,0,748.37,604.4Z" transform="translate(-376.35 -168.35)"/><path class="cls-7" d="M791.66,604.92h-.73a1.07,1.07,0,0,1-.32,0,.55.55,0,0,1-.26-.23l-8-9.81a1.48,1.48,0,0,0-.26-.29,1.92,1.92,0,0,0-.31-.18,1.45,1.45,0,0,0-.4-.11,4.73,4.73,0,0,0-.58,0h-3.31v10.7h-.89V582.2h5.48a9.26,9.26,0,0,1,5.62,1.44A5.1,5.1,0,0,1,789.6,588a5.68,5.68,0,0,1-.5,2.43,5.55,5.55,0,0,1-1.4,1.89,7.08,7.08,0,0,1-2.2,1.28,9.75,9.75,0,0,1-2.86.57,2.26,2.26,0,0,1,.57.49Zm-14.19-11.38h4.33a10.2,10.2,0,0,0,2.88-.38,6.26,6.26,0,0,0,2.19-1.1,4.93,4.93,0,0,0,1.37-1.74,5.27,5.27,0,0,0,.48-2.29,4.49,4.49,0,0,0-1.72-3.88,8.32,8.32,0,0,0-4.94-1.24h-4.59Z" transform="translate(-376.35 -168.35)"/><path class="cls-8" d="M822.24,604.16l0,.76H808.8V582.2h13.41V583H809.69V593h10.55v.75H809.69v10.39Z" transform="translate(-376.35 -168.35)"/><path class="cls-9" d="M851.25,584.56a.33.33,0,0,1-.28.16c-.12,0-.28-.11-.49-.32a6.91,6.91,0,0,0-.88-.7,6.22,6.22,0,0,0-1.46-.7,7.39,7.39,0,0,0-4.55.08,4.93,4.93,0,0,0-1.71,1.07,4.65,4.65,0,0,0-1.06,1.56,5.07,5.07,0,0,0-.35,1.85,4,4,0,0,0,.5,2.08,4.43,4.43,0,0,0,1.33,1.4,8.77,8.77,0,0,0,1.86,1c.69.26,1.41.51,2.14.75s1.45.5,2.14.78a7.52,7.52,0,0,1,1.87,1,4.55,4.55,0,0,1,1.82,3.86,7.19,7.19,0,0,1-.47,2.64,6.09,6.09,0,0,1-1.39,2.15,6.5,6.5,0,0,1-2.23,1.44,8.07,8.07,0,0,1-3,.52A9.38,9.38,0,0,1,843,605a7.4,7.4,0,0,1-1.72-.58,6.82,6.82,0,0,1-1.44-.93,11.23,11.23,0,0,1-1.25-1.24l.21-.33.14-.12a.35.35,0,0,1,.17,0c.07,0,.18.07.31.21l.53.5c.22.2.47.41.77.64a6.43,6.43,0,0,0,1.08.65,7.55,7.55,0,0,0,1.44.5,7.94,7.94,0,0,0,1.85.2,7,7,0,0,0,2.63-.46,5.71,5.71,0,0,0,2-1.26,5.1,5.1,0,0,0,1.22-1.87,6.14,6.14,0,0,0,.42-2.27,4.06,4.06,0,0,0-.5-2.14,4.38,4.38,0,0,0-1.31-1.4,8.41,8.41,0,0,0-1.87-.95c-.7-.25-1.41-.49-2.14-.73s-1.44-.48-2.14-.75a7.87,7.87,0,0,1-1.87-1.05,4.74,4.74,0,0,1-1.82-4,5.54,5.54,0,0,1,.42-2.13,5.25,5.25,0,0,1,1.23-1.8,5.88,5.88,0,0,1,2-1.25,7.22,7.22,0,0,1,2.69-.47,7.15,7.15,0,0,1,5.49,2.26Z" transform="translate(-376.35 -168.35)"/><path class="cls-10" d="M546.42,424.88V377.64h52.7c11.07,0,21.06-1.88,29.71-5.58a60,60,0,0,0,22-15.91,71.81,71.81,0,0,0,13.81-25.32,120.29,120.29,0,0,0,0-67.42,71.81,71.81,0,0,0-13.81-25.32,60.16,60.16,0,0,0-22-15.92c-8.65-3.7-18.65-5.57-29.71-5.57H545.88a46.31,46.31,0,0,1-46.25-46.25v-1h99.49c19.75,0,38,3.25,54.22,9.65a124.58,124.58,0,0,1,41.84,26.66,119.41,119.41,0,0,1,26.93,40.44,140.9,140.9,0,0,1,0,102,120.37,120.37,0,0,1-26.93,40.53,122.63,122.63,0,0,1-41.84,26.67c-16.22,6.34-34.46,9.55-54.22,9.55Z" transform="translate(-376.35 -168.35)"/><path class="cls-11" d="M694.48,206.37A123,123,0,0,0,653,179.93q-24.29-9.57-53.86-9.58H500.63a45.25,45.25,0,0,0,45.24,45.25h53.25q16.88,0,30.1,5.65a60.88,60.88,0,0,1,22.36,16.18,72.58,72.58,0,0,1,14,25.67A110.37,110.37,0,0,1,670.46,297a111.06,111.06,0,0,1-4.87,34.11,72.54,72.54,0,0,1-14,25.66A60.66,60.66,0,0,1,629.22,373q-13.22,5.65-30.1,5.66h-51.7v45.24h51.7q29.58,0,53.86-9.48A121.19,121.19,0,0,0,694.48,388a118.83,118.83,0,0,0,26.71-40.2q9.48-23.22,9.48-50.72a132.54,132.54,0,0,0-9.48-50.55A118.06,118.06,0,0,0,694.48,206.37Z" transform="translate(-376.35 -168.35)"/><rect class="cls-12" x="100.35" y="101.93" width="134.11" height="47.86" rx="19.45"/><path class="cls-10" d="M801,425.88,697.74,168.35H748c5.5,0,10.11,1.3,13.69,3.86a21.16,21.16,0,0,1,7.68,10.16L818.47,318.1c2.21,5.93,4.47,12.46,6.72,19.38,1.47,4.54,2.91,9.31,4.29,14.23,1.19-4.9,2.5-9.66,3.9-14.2,2.14-6.94,4.29-13.47,6.38-19.39L867.1,242a37.48,37.48,0,0,1,21.36-22.44,23.17,23.17,0,0,1,8.3-1.84h43.61L856.92,425.88Z" transform="translate(-376.35 -168.35)"/><path class="cls-1" d="M801.64,424.88,699.22,169.35H748c5.29,0,9.7,1.24,13.11,3.67a20.27,20.27,0,0,1,7.32,9.69l49.07,135.73c2.2,5.92,4.46,12.44,6.71,19.35,1.85,5.7,3.63,11.73,5.31,18,1.42-6.22,3-12.24,4.79-18,2.13-6.93,4.28-13.44,6.36-19.35L868,242.29a36.5,36.5,0,0,1,20.79-21.85,22.22,22.22,0,0,1,7.93-1.77H938.9L856.24,424.88Z" transform="translate(-376.35 -168.35)"/><path class="cls-13" d="M890.37,183.06,878.7,215.55c6-3.45,12.49-5.67,18.06-5.67h44.58l15.84-39.53H909.51c-.59,0-1.17,0-1.73.06l-.25,0a21.22,21.22,0,0,0-4.77.89,18.22,18.22,0,0,0-2.94,1.23,17.8,17.8,0,0,0-2.67,1.71c-.42.33-.82.66-1.21,1A18.78,18.78,0,0,0,890.37,183.06Z" transform="translate(-376.35 -168.35)"/></svg>