<svg xmlns="http://www.w3.org/2000/svg" viewBox="0 0 948.72705 257.80542"><defs><style>.a{fill:#0c1c2b;}</style></defs><path class="a" d="M0,2.04932H25.35889c37.65381,0,37.90966,26.8955,37.90966,49.43676v69.67261c0,26.3833-3.58593,51.99829-40.21533,51.99829H0ZM9.7334,164.19165H22.02881c24.07812,0,31.25-12.29517,31.25-39.44678V49.18066c0-23.82177-4.35449-38.16626-30.73779-38.16626H9.7334Z"/><path class="a" d="M137.80127,85.554H98.61035v78.63769h43.80127L140.875,173.157H88.87646V2.04932h51.23V11.0144H98.61035V76.33252h39.19092Z"/><path class="a" d="M219.5083,126.28174v4.8667c0,23.822-4.61084,44.05786-29.96924,44.05786-27.66406,0-30.99414-22.28516-30.99414-46.363V40.98389C158.54492,12.55127,170.07178,0,189.53906,0c25.10254,0,29.20069,19.46753,29.20069,40.47168V46.363H208.49414V40.98389c0-15.88111-1.53711-32.01856-19.46777-32.01856-16.90576,0-20.4917,14.34424-20.4917,32.78711v87.09082c0,23.30957,5.3789,37.39771,21.26025,37.39771,17.16211,0,19.46729-15.88135,19.46729-35.34864v-4.61059Z"/><path class="a" d="M289.68848,85.554H250.49756v78.63769h43.80127l-1.53662,8.96533H240.76367V2.04932h51.23V11.0144H250.49756V76.33252h39.19092Z"/><path class="a" d="M311.9707,173.157V2.04932H324.522L360.12646,125.001a255.27321,255.27321,0,0,1,7.17237,30.48169h.51221c-.76856-25.10254-1.28077-49.18067-1.28077-76.84473V2.04932h9.73389V173.157H363.96875L324.26562,33.55566a171.333,171.333,0,0,1-4.35449-19.21118h-.25586c1.02442,20.492,2.04883,52.2544,2.04883,83.24854v75.564Z"/><path class="a" d="M420.31689,11.0144H392.39648V2.04932h65.31788V11.0144H430.30664V173.157h-9.98975Z"/><path class="a" d="M472.56592,2.04932h23.05371c25.3584,0,35.34814,11.78271,35.34814,37.3977v9.22144c0,20.23584-5.63525,32.531-17.418,36.37329C525.07666,88.37158,529.687,97.593,529.687,120.134c0,14.85669-.25586,41.75244,1.79346,53.023h-9.99024c-2.04882-11.0144-1.793-40.47168-1.793-51.99829,0-23.56567-3.58594-31.25024-22.28467-31.25024H482.2998V173.157h-9.73388ZM482.2998,80.687h16.39356c18.69873,0,22.02881-13.57593,22.02881-31.50635V39.70312c0-17.93041-5.8916-28.68872-25.10254-28.68872H482.2998Z"/><path class="a" d="M567.07861,109.63208l-10.502,63.5249h-9.73389l28.689-171.10766H589.876L619.8457,173.157H609.34326l-10.7583-63.5249Zm29.71338-9.22144c-7.94043-46.363-12.80761-77.10107-14.08838-89.90844h-.5122c-.51221,12.29516-7.68457,52.5105-13.57569,89.90844Z"/><path class="a" d="M637.77344,2.04932h9.73388V164.19165H690.54l-1.793,8.96533H637.77344Z"/><path class="a" d="M713.33594,2.04932V173.157h-9.73389V2.04932Z"/><path class="a" d="M732.28613,166.49707,786.07764,11.0144H736.38428V2.04932H797.0918v6.916L743.55664,164.19165h53.2793l-1.53711,8.96533h-63.0127Z"/><path class="a" d="M863.17578,85.554H823.98535v78.63769h43.80127L866.25,173.157H814.25146V2.04932h51.23V11.0144h-41.4961V76.33252h39.19043Z"/><path class="a" d="M885.458,2.04932h25.35888c37.65381,0,37.91016,26.8955,37.91016,49.43676v69.67261c0,26.3833-3.58643,51.99829-40.21582,51.99829H885.458Zm9.73388,162.14233h12.29493c24.07812,0,31.25048-12.29517,31.25048-39.44678V49.18066c0-23.82177-4.355-38.16626-30.73828-38.16626H895.19189Z"/><path class="a" d="M3.50684,186.98315H24.87939v3.66675H7.48828v27.23926H23.727v3.77173H7.48828v35.3064H3.50684Z"/><path class="a" d="M63.64062,230.98511l-4.29541,25.98218H55.36377l11.73389-69.98414h5.86718l12.25733,69.98414H80.92676l-4.3999-25.98218Zm12.15284-3.77149c-3.248-18.96289-5.23828-31.53491-5.76221-36.77319h-.20947c-.20948,5.02881-3.14307,21.47705-5.55274,36.77319Z"/><path class="a" d="M122.20264,186.98315h9.42871c10.37207,0,14.458,4.8191,14.458,15.2959v3.77149c0,8.27661-2.30469,13.30542-7.124,14.87695,4.71436,1.36206,6.6001,5.13355,6.6001,14.353,0,6.07641-.10449,17.07715.7334,21.68677h-4.08594c-.83789-4.50489-.7334-16.55323-.7334-21.26758,0-9.63867-1.46679-12.78174-9.11474-12.78174h-6.18116v34.04932h-3.98095Zm3.98095,32.16333h6.70508c7.648,0,9.00977-5.55273,9.00977-12.88647v-3.87622c0-7.33374-2.40967-11.73389-10.26709-11.73389h-5.44776Z"/><path class="a" d="M218.584,224.4895c0-13.72436.31446-26.61084.52393-33.52539h-.105c-1.88574,11.31494-8.6958,44.63086-13.20068,66.00318h-4.29541c-3.457-17.81031-10.58155-53.8501-12.36231-66.00318h-.20947c.20947,8.06714.62842,23.9917.62842,35.93506v30.06812h-3.981V186.98315h5.8667c5.02881,23.67725,11.41943,55.10718,12.36279,63.17432h.10449c1.04786-7.54321,7.96241-40.96387,12.88623-63.17432h5.97168v69.98414H218.584Z"/><path class="a" d="M268.24023,186.98315v69.98414h-3.981V186.98315Z"/><path class="a" d="M309.72559,256.96729V186.98315h5.13379l14.5625,50.28809a104.51522,104.51522,0,0,1,2.93359,12.467h.20947c-.31445-10.26709-.52392-20.11523-.52392-31.42993v-31.3252h3.981v69.98414h-5.02881l-16.23877-57.09791a70.04136,70.04136,0,0,1-1.78076-7.85742h-.105c.41895,8.38135.83838,21.37232.83838,34.04908v30.90625Z"/><path class="a" d="M401.603,256.96729h-3.35254c-.105-1.04761-.31445-5.23829-.31445-6.91456-1.57129,5.76221-5.44776,7.75269-10.05762,7.75269-9.00977,0-12.04785-6.80981-12.04785-17.28662V203.32666c0-11.52441,4.81933-17.18188,13.30517-17.18188,9.63867,0,12.46729,6.39086,12.46729,16.658v1.36206h-3.981v-1.15234c0-6.07666-.62891-13.20068-8.59082-13.20068-5.86719,0-9.11475,3.45727-9.11475,13.8291v36.35425c0,8.17163,1.99024,14.14355,8.38135,14.14355,8.17139,0,9.21924-7.9624,9.21924-18.75342V223.33716h-9.4292v-3.667H401.603Z"/><path class="a" d="M486.87744,186.98315h9.95313c9.63867,0,13.93408,5.02881,13.93408,15.2959v4.40015c0,9.42895-2.2002,17.28662-14.353,17.28662h-5.55273v33.00147h-3.98145Zm3.98145,33.31568h5.44775c9.11475,0,10.26709-5.867,10.26709-13.61963V202.698c0-6.28589-1.57129-12.0481-9.95264-12.0481h-5.7622Z"/><path class="a" d="M549.52393,186.98315h9.42919c10.37208,0,14.458,4.8191,14.458,15.2959v3.77149c0,8.27661-2.30517,13.30542-7.12451,14.87695,4.71484,1.36206,6.60059,5.13355,6.60059,14.353,0,6.07641-.105,17.07715.7334,21.68677h-4.08594c-.83838-4.50489-.7334-16.55323-.7334-21.26758,0-9.63867-1.4668-12.78174-9.11475-12.78174h-6.18115v34.04932h-3.98144Zm3.98144,32.16333h6.70508c7.64795,0,9.00976-5.55273,9.00976-12.88647v-3.87622c0-7.33374-2.40966-11.73389-10.26709-11.73389h-5.44775Z"/><path class="a" d="M638.3623,202.80273v37.82105c0,11.21-4.50537,17.18164-13.41015,17.18164-10.37207,0-13.09619-7.33374-13.09619-17.18164V202.90747c0-10.37183,3.98144-16.76269,13.41015-16.76269C635.32373,186.14478,638.3623,194.21191,638.3623,202.80273Zm-22.42041.31446v37.50659c0,9.95264,3.667,13.51489,9.21973,13.51489,5.65723,0,9.00977-3.56225,9.00977-14.03882V203.22192c0-9.32421-3.457-13.41015-9.11475-13.41015C618.771,189.81177,615.94189,193.793,615.94189,203.11719Z"/><path class="a" d="M683.19873,190.6499H671.7793v-3.66675h26.71533v3.66675h-11.21v66.31739h-4.08594Z"/><path class="a" d="M758.52393,202.80273v37.82105c0,11.21-4.50489,17.18164-13.41016,17.18164-10.37207,0-13.09619-7.33374-13.09619-17.18164V202.90747c0-10.37183,3.98144-16.76269,13.41015-16.76269C755.48535,186.14478,758.52393,194.21191,758.52393,202.80273Zm-22.42041.31446v37.50659c0,9.95264,3.667,13.51489,9.21972,13.51489,5.65723,0,9.00977-3.56225,9.00977-14.03882V203.22192c0-9.32421-3.457-13.41015-9.11475-13.41015C738.93213,189.81177,736.10352,193.793,736.10352,203.11719Z"/><path class="a" d="M821.48438,237.79492v1.99048c0,9.74341-1.88575,18.02-12.25782,18.02-11.31445,0-12.67676-9.11475-12.67676-18.96289V202.90747c0-11.62891,4.71485-16.76269,12.67676-16.76269,10.26758,0,11.94385,7.9624,11.94385,16.55322v2.40967h-4.19092v-2.2002c0-6.49536-.62842-13.0957-7.9624-13.0957-6.91455,0-8.38135,5.86694-8.38135,13.41015v35.62061c0,9.53393,2.2002,15.29614,8.6958,15.29614,7.01953,0,7.96241-6.4956,7.96241-14.458v-1.88574Z"/><path class="a" d="M885.3877,202.80273v37.82105c0,11.21-4.50538,17.18164-13.41016,17.18164-10.37207,0-13.09619-7.33374-13.09619-17.18164V202.90747c0-10.37183,3.98144-16.76269,13.41015-16.76269C882.34912,186.14478,885.3877,194.21191,885.3877,202.80273Zm-22.42041.31446v37.50659c0,9.95264,3.667,13.51489,9.21972,13.51489,5.65723,0,9.00977-3.56225,9.00977-14.03882V203.22192c0-9.32421-3.457-13.41015-9.11475-13.41015C865.79639,189.81177,862.96729,193.793,862.96729,203.11719Z"/><path class="a" d="M925.40381,186.98315h3.98144v66.31739h17.60059l-.7334,3.66675H925.40381Z"/></svg>