<svg width="194" height="162" viewBox="0 0 194 162" fill="none" xmlns="http://www.w3.org/2000/svg">
<path d="M11.703 105.229H11.7162C12.6288 105.229 13.5041 105.592 14.1495 106.237C14.7949 106.883 15.1574 107.758 15.1574 108.671V108.684C15.1574 109.136 15.0684 109.583 14.8955 110.001C14.7225 110.418 14.469 110.798 14.1495 111.117C13.8299 111.437 13.4506 111.69 13.0331 111.863C12.6156 112.036 12.1681 112.125 11.7162 112.125H11.7029C10.7903 112.125 9.91499 111.763 9.26963 111.117C8.62428 110.472 8.26172 109.597 8.26172 108.684V108.671C8.26172 108.219 8.35073 107.771 8.52367 107.354C8.69661 106.936 8.95009 106.557 9.26963 106.237C9.58918 105.918 9.96854 105.664 10.3861 105.491C10.8036 105.319 11.251 105.229 11.703 105.229Z" fill="white"/>
<path d="M2.59209 87.21H2.58219C1.15609 87.21 0 88.366 0 89.7922V89.802C0 91.2282 1.15609 92.3842 2.58219 92.3842H2.59209C4.01819 92.3842 5.17428 91.2282 5.17428 89.802V89.7922C5.17428 88.366 4.01819 87.21 2.59209 87.21Z" fill="white"/>
<path d="M15.7457 78.376H15.7509C16.109 78.376 16.4524 78.5182 16.7057 78.7714C16.9589 79.0247 17.1011 79.3681 17.1011 79.7262V79.7314C17.1011 80.0895 16.9589 80.4329 16.7057 80.6861C16.4524 80.9393 16.109 81.0816 15.7509 81.0816H15.7457C15.3876 81.0816 15.0442 80.9393 14.791 80.6861C14.5378 80.4329 14.3955 80.0895 14.3955 79.7314V79.7262C14.3955 79.3681 14.5378 79.0247 14.791 78.7714C15.0442 78.5182 15.3876 78.376 15.7457 78.376Z" fill="white"/>
<path d="M189.751 79.5293H189.736C187.664 79.5293 185.983 81.2095 185.983 83.2822V83.2965C185.983 85.3692 187.664 87.0494 189.736 87.0494H189.751C191.823 87.0494 193.503 85.3692 193.503 83.2965V83.2822C193.503 81.2095 191.823 79.5293 189.751 79.5293Z" fill="white"/>
<path d="M176.457 95.9619H176.466C177.116 95.9619 177.739 96.22 178.198 96.6793C178.658 97.1386 178.916 97.7615 178.916 98.4111V98.4205C178.916 99.0701 178.658 99.6931 178.198 100.152C177.739 100.612 177.116 100.87 176.466 100.87H176.457C175.807 100.87 175.184 100.612 174.725 100.152C174.266 99.6931 174.008 99.0701 174.008 98.4205V98.4111C174.008 97.7615 174.266 97.1386 174.725 96.6793C175.184 96.22 175.807 95.9619 176.457 95.9619Z" fill="white"/>
<path d="M179.856 68.8701H179.85C178.985 68.8701 178.283 69.5718 178.283 70.4374V70.4434C178.283 71.309 178.985 72.0107 179.85 72.0107H179.856C180.722 72.0107 181.424 71.309 181.424 70.4434V70.4374C181.424 69.5718 180.722 68.8701 179.856 68.8701Z" fill="white"/>
<g opacity="0.6">
<path opacity="0.4" d="M96.9214 161.053C137.141 161.053 169.745 128.448 169.745 88.229C169.745 48.0096 137.141 15.4053 96.9214 15.4053C56.702 15.4053 24.0977 48.0096 24.0977 88.229C24.0977 128.448 56.702 161.053 96.9214 161.053Z" fill="white"/>
</g>
<g style="mix-blend-mode:multiply" opacity="0.15">
<g style="mix-blend-mode:multiply" opacity="0.15">
<path d="M172.357 147.39C172.357 145.632 138.417 144.208 96.5493 144.208C54.6816 144.208 20.7412 145.632 20.7412 147.39C20.7412 148.405 32.0828 149.31 49.7411 149.893C53.5515 151.032 68.325 151.881 85.969 151.881C100.744 151.881 113.506 151.285 119.503 150.423C150.149 150.015 172.357 148.811 172.357 147.39Z" fill="#371A45"/>
</g>
</g>
<path d="M165.34 146.388H27.7589C27.6118 146.388 27.4661 146.359 27.3302 146.303C27.1943 146.246 27.0708 146.164 26.9668 146.06C26.8628 145.956 26.7802 145.832 26.7239 145.696C26.6676 145.56 26.6387 145.415 26.6387 145.268C26.6387 145.121 26.6676 144.975 26.7239 144.839C26.7802 144.703 26.8628 144.58 26.9668 144.476C27.0708 144.372 27.1943 144.289 27.3302 144.233C27.4661 144.176 27.6118 144.147 27.7589 144.147H165.34C165.637 144.147 165.922 144.265 166.132 144.476C166.343 144.686 166.461 144.971 166.461 145.268C166.461 145.565 166.343 145.85 166.132 146.06C165.922 146.27 165.637 146.388 165.34 146.388Z" fill="#371A45"/>
<path d="M79.8579 118.682H66.0874C63.8246 118.682 61.9902 120.516 61.9902 122.779V139.484C61.9902 141.747 63.8246 143.581 66.0874 143.581H79.8579C82.1208 143.581 83.9551 141.747 83.9551 139.484V122.779C83.9551 120.516 82.1208 118.682 79.8579 118.682Z" fill="#FF6CA8"/>
<path d="M79.8577 119.546C80.2822 119.546 80.7025 119.63 81.0946 119.792C81.4868 119.955 81.8431 120.193 82.1432 120.493C82.4434 120.793 82.6815 121.15 82.8439 121.542C83.0063 121.934 83.0899 122.354 83.0899 122.779V139.484C83.0899 139.908 83.0063 140.329 82.8439 140.721C82.6814 141.113 82.4434 141.469 82.1432 141.769C81.8431 142.07 81.4868 142.308 81.0946 142.47C80.7025 142.633 80.2822 142.716 79.8577 142.716H66.0872C65.23 142.716 64.4078 142.376 63.8017 141.769C63.1956 141.163 62.855 140.341 62.855 139.484V122.779C62.855 122.354 62.9386 121.934 63.101 121.542C63.2635 121.15 63.5015 120.793 63.8017 120.493C64.1018 120.193 64.4581 119.955 64.8503 119.792C65.2424 119.63 65.6627 119.546 66.0872 119.546H79.8577ZM79.8577 117.816H66.0872C64.7716 117.818 63.5103 118.341 62.58 119.271C61.6497 120.202 61.1265 121.463 61.125 122.779V139.484C61.1265 140.8 61.6497 142.061 62.58 142.991C63.5103 143.921 64.7716 144.445 66.0872 144.446H79.8577C81.1733 144.445 82.4346 143.921 83.3649 142.991C84.2952 142.061 84.8184 140.8 84.8199 139.484V122.779C84.8184 121.463 84.2952 120.202 83.3649 119.271C82.4346 118.341 81.1733 117.818 79.8577 117.816H79.8577Z" fill="#371A45"/>
<g opacity="0.3">
<path opacity="0.3" d="M64.8408 124.185C66.0467 126.836 67.7702 129.219 69.9099 131.194C72.0496 133.17 74.5625 134.698 77.301 135.689C77.7665 135.818 78.1773 136.095 78.4709 136.478C78.7646 136.862 78.9251 137.33 78.928 137.813V137.854C78.928 138.572 78.6561 139.262 78.167 139.787C77.678 140.311 77.0082 140.631 76.2928 140.681L64.8408 141.485L64.8933 143.338H82.0173L83.7515 141.044L83.7473 134.441C83.7473 134.441 71.6373 129.004 64.8408 124.185Z" fill="#371A45"/>
</g>
<path d="M122.954 118.682H109.183C106.92 118.682 105.086 120.516 105.086 122.779V139.484C105.086 141.747 106.92 143.581 109.183 143.581H122.954C125.216 143.581 127.051 141.747 127.051 139.484V122.779C127.051 120.516 125.216 118.682 122.954 118.682Z" fill="#FF6CA8"/>
<path d="M122.953 119.546C123.378 119.546 123.798 119.63 124.19 119.792C124.582 119.955 124.939 120.193 125.239 120.493C125.539 120.793 125.777 121.15 125.94 121.542C126.102 121.934 126.186 122.354 126.186 122.779V139.484C126.186 139.908 126.102 140.329 125.94 140.721C125.777 141.113 125.539 141.469 125.239 141.769C124.939 142.07 124.582 142.308 124.19 142.47C123.798 142.633 123.378 142.716 122.953 142.716H109.183C108.326 142.716 107.504 142.376 106.897 141.769C106.291 141.163 105.951 140.341 105.951 139.484V122.779C105.951 122.354 106.034 121.934 106.197 121.542C106.359 121.15 106.597 120.793 106.897 120.493C107.198 120.193 107.554 119.955 107.946 119.792C108.338 119.63 108.758 119.546 109.183 119.546H122.953ZM122.953 117.816H109.183C107.867 117.818 106.606 118.341 105.676 119.271C104.745 120.202 104.222 121.463 104.221 122.779V139.484C104.222 140.8 104.745 142.061 105.676 142.991C106.606 143.921 107.867 144.445 109.183 144.446H122.953C124.269 144.445 125.53 143.921 126.461 142.991C127.391 142.061 127.914 140.8 127.916 139.484V122.779C127.914 121.463 127.391 120.202 126.461 119.271C125.53 118.341 124.269 117.818 122.953 117.816Z" fill="#371A45"/>
<g opacity="0.5">
<path opacity="0.5" d="M106.94 139.483V122.778C106.94 122.354 107.023 121.933 107.186 121.541C107.348 121.149 107.586 120.793 107.886 120.493C108.187 120.192 108.543 119.954 108.935 119.792C109.327 119.629 109.747 119.546 110.172 119.546H109.183C108.759 119.546 108.339 119.629 107.946 119.792C107.554 119.954 107.198 120.192 106.898 120.493C106.598 120.793 106.36 121.149 106.197 121.541C106.035 121.933 105.951 122.354 105.951 122.778V139.483C105.951 139.908 106.035 140.328 106.197 140.72C106.36 141.112 106.598 141.469 106.898 141.769C107.198 142.069 107.554 142.307 107.946 142.47C108.339 142.632 108.759 142.716 109.183 142.716H110.172C109.747 142.716 109.327 142.632 108.935 142.47C108.543 142.307 108.187 142.069 107.886 141.769C107.586 141.469 107.348 141.112 107.186 140.72C107.023 140.328 106.94 139.908 106.94 139.483Z" fill="white"/>
</g>
<path d="M93.9485 135.641C86.0258 135.529 78.2879 133.231 71.5878 129.001C68.8033 127.28 66.2953 125.147 64.1491 122.675C60.6818 119.005 58.1585 114.548 56.7966 109.687C55.4346 104.826 55.2749 99.7062 56.3311 94.7696C57.2239 90.3048 58.8617 86.0222 61.1759 82.1011C53.4435 76.9681 54.7043 71.2759 56.1894 68.2868C56.9378 66.7613 58.0325 65.4318 59.3861 64.4046C60.7397 63.3773 62.3146 62.6807 63.9853 62.3702C64.5664 62.267 65.1554 62.2146 65.7456 62.2136C70.7115 62.2136 73.8486 65.9563 75.032 67.6842C80.4036 63.8696 86.8232 61.8092 93.4114 61.7852C93.9343 61.7852 94.3149 61.8017 94.5207 61.8135C94.7264 61.8017 95.107 61.7852 95.6299 61.7852C102.218 61.8092 108.638 63.8696 114.009 67.6842C115.193 65.9562 118.329 62.2136 123.296 62.2136C123.886 62.2146 124.475 62.267 125.056 62.3702C126.727 62.6807 128.302 63.3773 129.655 64.4045C131.009 65.4318 132.103 66.7612 132.852 68.2867C134.337 71.2758 135.598 76.968 127.865 82.101C130.18 86.0222 131.818 90.3048 132.71 94.7695C133.767 99.7062 133.607 104.826 132.245 109.687C130.883 114.548 128.359 119.005 124.892 122.675C122.746 125.147 120.238 127.28 117.453 129.001C110.76 133.228 103.029 135.526 95.113 135.641L95.0928 135.641L93.9485 135.641Z" fill="#FF6CA8"/>
<path d="M95.6295 62.6499C102.351 62.6738 108.883 64.8825 114.24 68.9431C114.24 68.9431 117.418 63.0783 123.295 63.0783C123.835 63.0791 124.374 63.1271 124.905 63.2218C126.443 63.5063 127.893 64.1475 129.139 65.094C130.384 66.0404 131.391 67.2657 132.077 68.6714C133.736 72.0098 134.308 77.1443 126.674 81.8352C126.674 81.8352 141.32 103.347 124.233 122.113C124.233 122.113 114.621 134.319 95.0923 134.776H93.9481C74.4194 134.319 64.8076 122.113 64.8076 122.113C47.72 103.347 62.3666 81.8352 62.3666 81.8352C54.7324 77.1443 55.3049 72.0098 56.9636 68.6714C57.6498 67.2657 58.656 66.0404 59.9015 65.094C61.147 64.1476 62.597 63.5064 64.1352 63.2218C64.6666 63.127 65.2053 63.079 65.7451 63.0783C71.6217 63.0789 74.8009 68.9431 74.8009 68.9431C80.1574 64.8824 86.6892 62.6736 93.411 62.6499C93.9607 62.6499 94.3425 62.6687 94.5202 62.6798C94.6981 62.6687 95.0796 62.6499 95.6295 62.6499H95.6295ZM95.6296 60.9199H95.6295C95.1257 60.9199 94.7458 60.9349 94.5202 60.9469C94.2949 60.9349 93.9152 60.9199 93.411 60.9199C86.9336 60.9482 80.6081 62.8844 75.2248 66.4868C73.6715 64.4806 70.487 61.3488 65.7453 61.3483C65.1047 61.3493 64.4654 61.4061 63.8346 61.5181C62.0307 61.8523 60.33 62.6036 58.868 63.7119C57.406 64.8202 56.2234 66.2549 55.4144 67.9015C54.2289 70.1369 53.9062 72.7299 54.5076 75.1876C55.2056 77.832 57.0587 80.2387 60.0239 82.3581C57.8787 86.1765 56.3461 90.308 55.4821 94.6017C54.5486 99.1138 54.5643 103.771 55.5283 108.276C56.8192 113.878 59.5666 119.039 63.4924 123.238C65.6964 125.771 68.2676 127.959 71.1203 129.729C77.9476 134.042 85.8329 136.387 93.9076 136.506L93.9481 136.506H95.0923L95.1329 136.506C103.208 136.387 111.093 134.042 117.92 129.729C120.773 127.959 123.344 125.771 125.548 123.238C129.474 119.039 132.221 113.878 133.512 108.276C134.476 103.771 134.492 99.1138 133.558 94.6017C132.694 90.308 131.162 86.1765 129.017 82.358C131.982 80.2387 133.835 77.832 134.533 75.1876C135.134 72.7299 134.812 70.1369 133.626 67.9016C132.817 66.255 131.635 64.8202 130.173 63.7119C128.711 62.6036 127.01 61.8523 125.206 61.5181C124.575 61.4061 123.936 61.3493 123.295 61.3483C118.553 61.3483 115.369 64.4802 113.816 66.4867C108.432 62.8848 102.107 60.9487 95.6295 60.9199L95.6296 60.9199Z" fill="#371A45"/>
<g opacity="0.6">
<path opacity="0.6" d="M65.549 122.89C60.3236 117.416 57.3648 110.166 57.2677 102.598C58.7248 101.234 59.6049 99.3646 59.7278 97.3724C60.014 95.5628 59.6965 93.7093 58.8242 92.0982C59.7426 89.0405 61.0248 86.1041 62.6434 83.3521C62.7625 83.1531 62.8005 82.9159 62.7493 82.6897C62.6982 82.4635 62.562 82.2656 62.3689 82.1372C62.3225 82.1061 62.2763 82.075 62.2303 82.0439C60.457 84.9268 59.0678 88.0288 58.0978 91.2714C56.9176 95.0633 56.398 99.0299 56.5617 102.998C56.9433 110.149 59.8677 116.928 64.8076 122.113C65.2074 122.598 65.632 123.062 66.0796 123.503C65.7267 123.116 65.549 122.89 65.549 122.89Z" fill="white"/>
</g>
<g opacity="0.3">
<path opacity="0.3" d="M79.3231 131.942C79.4883 131.999 79.6559 132.055 79.8237 132.111C79.9138 132.141 80.0027 132.172 80.0935 132.202C80.3485 132.285 80.6064 132.367 80.8673 132.446C80.9499 132.472 81.0343 132.496 81.1175 132.52C81.3035 132.576 81.49 132.631 81.679 132.684C81.7861 132.715 81.8949 132.744 82.003 132.774C82.172 132.82 82.3414 132.866 82.5128 132.911C82.628 132.941 82.7441 132.97 82.8603 132.999C83.0291 133.042 83.1991 133.084 83.3701 133.124C83.4881 133.153 83.6066 133.18 83.7255 133.208C83.9021 133.248 84.08 133.288 84.2593 133.326C84.3738 133.351 84.4879 133.376 84.6034 133.4C84.8061 133.442 85.0111 133.482 85.2167 133.522C85.3103 133.54 85.4028 133.559 85.497 133.577C85.7968 133.632 86.0996 133.685 86.4054 133.736C86.4589 133.744 86.5137 133.752 86.5674 133.761C86.8221 133.802 87.0789 133.84 87.3375 133.878C87.447 133.893 87.5581 133.907 87.6683 133.922C87.8745 133.95 88.0813 133.977 88.2902 134.002C88.4152 134.017 88.5412 134.031 88.6671 134.045C88.8668 134.067 89.0677 134.088 89.2697 134.108C89.399 134.121 89.5288 134.133 89.659 134.145C89.8646 134.163 90.0714 134.18 90.2797 134.195C90.407 134.205 90.534 134.215 90.6622 134.223C90.8887 134.239 91.1173 134.251 91.3466 134.263C91.4578 134.269 91.568 134.276 91.6799 134.281C92.0213 134.297 92.3657 134.309 92.713 134.318H93.8572C113.386 133.86 122.998 121.654 122.998 121.654C123.239 121.39 123.472 121.124 123.7 120.858C123.769 120.779 123.835 120.699 123.903 120.619C124.067 120.425 124.229 120.23 124.387 120.034C124.453 119.953 124.519 119.872 124.584 119.79C124.776 119.548 124.964 119.306 125.147 119.064C125.166 119.039 125.186 119.013 125.205 118.988C125.405 118.72 125.598 118.452 125.787 118.184C125.841 118.108 125.892 118.032 125.945 117.956C126.083 117.756 126.218 117.557 126.349 117.357C126.403 117.275 126.457 117.193 126.51 117.111C126.659 116.881 126.804 116.651 126.945 116.42C126.969 116.381 126.994 116.341 127.018 116.302C127.181 116.032 127.339 115.762 127.491 115.491C127.53 115.422 127.567 115.353 127.605 115.284C127.72 115.078 127.831 114.871 127.939 114.665C127.981 114.585 128.023 114.504 128.064 114.424C128.179 114.2 128.29 113.976 128.398 113.753C128.421 113.705 128.445 113.658 128.467 113.611C128.596 113.339 128.72 113.068 128.839 112.796C128.865 112.737 128.889 112.678 128.915 112.618C129.007 112.404 129.096 112.19 129.183 111.975C129.214 111.898 129.245 111.82 129.275 111.743C129.361 111.524 129.444 111.305 129.524 111.086C129.543 111.034 129.563 110.981 129.582 110.929C129.679 110.657 129.772 110.386 129.86 110.115C129.875 110.068 129.889 110.022 129.904 109.975C129.976 109.75 130.044 109.526 130.11 109.302C130.131 109.229 130.152 109.156 130.173 109.083C130.234 108.867 130.293 108.652 130.348 108.436C130.362 108.382 130.377 108.327 130.391 108.273C130.46 108.002 130.524 107.732 130.584 107.462C130.59 107.432 130.596 107.403 130.603 107.373C130.654 107.136 130.703 106.9 130.748 106.664C130.765 106.575 130.782 106.486 130.798 106.396C130.836 106.193 130.869 105.988 130.903 105.783C130.91 105.741 130.918 105.698 130.924 105.655C130.966 105.387 131.004 105.12 131.039 104.854L131.042 104.829C131.074 104.577 131.102 104.325 131.127 104.075C131.134 104.005 131.141 103.934 131.147 103.864C131.167 103.655 131.184 103.445 131.2 103.236C131.203 103.188 131.207 103.14 131.21 103.092C131.245 102.574 131.267 102.06 131.276 101.551C131.277 101.498 131.277 101.444 131.278 101.391C131.28 101.174 131.281 100.957 131.279 100.74C131.279 100.692 131.278 100.644 131.278 100.596C131.271 100.094 131.253 99.5984 131.224 99.1078C131.22 99.0518 131.216 98.9961 131.213 98.9403C131.2 98.7474 131.186 98.5555 131.171 98.3646C131.166 98.3045 131.161 98.2443 131.156 98.1844C131.136 97.9562 131.114 97.7293 131.089 97.5037L131.086 97.4735C131.06 97.2339 131.031 96.9961 131 96.7601C130.993 96.7059 130.986 96.6522 130.978 96.5981C130.954 96.4172 130.928 96.2373 130.901 96.0585C130.891 95.9949 130.882 95.9315 130.872 95.8682C130.841 95.6718 130.809 95.4767 130.775 95.2829C130.77 95.2521 130.765 95.221 130.759 95.1902C130.72 94.966 130.678 94.7438 130.635 94.5235C130.624 94.4688 130.613 94.4148 130.602 94.3604C130.568 94.1948 130.534 94.0303 130.499 93.8669C130.485 93.7989 130.47 93.7312 130.455 93.6636C130.418 93.4982 130.381 93.334 130.342 93.1711C130.331 93.1218 130.32 93.0722 130.308 93.0232C130.259 92.8181 130.208 92.615 130.156 92.4139C130.141 92.3545 130.125 92.296 130.11 92.2369C130.072 92.092 130.033 91.948 129.994 91.805C129.974 91.7315 129.954 91.6583 129.933 91.5854C129.895 91.4496 129.856 91.315 129.817 91.1815C129.798 91.1174 129.78 91.0528 129.761 90.9892C129.706 90.8056 129.651 90.6239 129.594 90.4441C129.573 90.3765 129.551 90.3102 129.53 90.2431C129.492 90.1238 129.453 90.0051 129.415 89.8877C129.388 89.8069 129.361 89.7266 129.334 89.6469C129.299 89.5425 129.264 89.4391 129.228 89.3365C129.201 89.2579 129.174 89.179 129.147 89.1014C129.098 88.9633 129.049 88.8268 128.999 88.692C128.961 88.588 128.923 88.4857 128.885 88.3836C128.853 88.2987 128.822 88.2139 128.79 88.1303C128.755 88.0401 128.721 87.9511 128.686 87.8624C128.659 87.7909 128.631 87.7198 128.603 87.6493C128.566 87.5576 128.53 87.4659 128.494 87.3758C128.473 87.3246 128.452 87.2746 128.431 87.2239C128.354 87.0336 128.276 86.8472 128.198 86.6648C128.181 86.6255 128.165 86.5855 128.148 86.5465C128.104 86.4451 128.061 86.3456 128.017 86.2468L127.969 86.1361C127.76 85.6653 127.555 85.2248 127.356 84.8163L127.355 84.8134C126.792 83.6273 126.152 82.4792 125.439 81.3765C133.073 76.6856 132.501 71.5511 130.842 68.2127C129.946 66.4019 128.532 64.8984 126.779 63.8935C126.698 63.8152 126.617 63.7366 126.533 63.6611C127.496 64.528 128.288 65.5692 128.865 66.7299C130.524 70.0682 130.802 74.2665 123.168 78.9574L123.573 79.7616C125.894 84.3391 127.067 89.4127 126.99 94.5446C126.73 109.568 117.483 137.036 69.2627 126.3C69.9003 126.795 70.6091 127.31 71.3844 127.831L71.3795 127.828C71.4077 127.847 71.4372 127.866 71.4657 127.885C71.578 127.96 71.6909 128.035 71.8061 128.11C71.8523 128.14 71.8995 128.17 71.9461 128.201C72.0673 128.279 72.1887 128.357 72.313 128.436L72.3578 128.464C72.6425 128.643 72.9354 128.822 73.2366 129C73.2658 129.018 73.2941 129.035 73.3235 129.052C73.44 129.121 73.5593 129.189 73.6782 129.258C73.749 129.299 73.8192 129.339 73.8908 129.38C74.0031 129.444 74.1172 129.507 74.2317 129.571C74.3132 129.616 74.3948 129.661 74.4774 129.706C74.5895 129.767 74.7026 129.828 74.8167 129.889C74.9051 129.936 74.9941 129.983 75.0838 130.03C75.1966 130.089 75.3097 130.148 75.4243 130.207C75.5196 130.255 75.6163 130.304 75.7128 130.352C75.8256 130.409 75.9379 130.465 76.0525 130.521C76.1597 130.574 76.2692 130.626 76.3779 130.678C76.5368 130.754 76.6971 130.829 76.8589 130.904C77.015 130.977 77.1713 131.049 77.3304 131.12C77.4341 131.166 77.5401 131.212 77.6451 131.257C77.7699 131.312 77.8944 131.367 78.0211 131.42C78.1302 131.467 78.2411 131.512 78.3516 131.558C78.478 131.611 78.6046 131.663 78.7328 131.714C78.8445 131.759 78.9569 131.804 79.0702 131.848C79.1061 131.862 79.1427 131.876 79.1787 131.89C79.2266 131.907 79.2745 131.925 79.3231 131.942Z" fill="#371A45"/>
</g>
<g opacity="0.6">
<path opacity="0.6" d="M72.7508 71.2695C72.7508 71.2695 66.2004 77.8455 65.459 79.8226C65.459 79.8226 67.4382 73.3437 72.7508 71.2695Z" fill="white"/>
</g>
<g opacity="0.6">
<path opacity="0.6" d="M59.0254 79.2921C57.7791 78.0096 56.9779 76.3605 56.7402 74.5881C56.5024 72.8156 56.8406 71.0137 57.7049 69.4481C58.3911 68.0424 59.3973 66.8171 60.6428 65.8707C61.8883 64.9243 63.3383 64.2831 64.8765 63.9985C66.403 63.7514 67.9669 63.8818 69.4314 64.3784C70.8959 64.8751 72.2166 65.7228 73.2779 66.8475C72.2076 65.4922 70.7987 64.4433 69.1934 63.8066C67.5881 63.1699 65.8433 62.9681 64.135 63.2214C62.5969 63.506 61.1468 64.1472 59.9014 65.0936C58.6559 66.04 57.6496 67.2652 56.9634 68.671C55.6009 71.4132 54.9754 75.3673 59.0254 79.2921Z" fill="white"/>
</g>
<g opacity="0.6">
<path opacity="0.6" d="M75.5428 69.72C81.202 65.4304 88.165 63.2188 95.2622 63.4567C102.359 63.2188 109.322 65.4304 114.982 69.72C114.982 69.72 118.743 62.7803 125.647 63.9987C127.528 64.3369 129.27 65.2182 130.656 66.5339C129.18 64.7985 127.148 63.628 124.906 63.2215C118.001 62.0031 114.24 68.9428 114.24 68.9428C108.581 64.6532 101.618 62.4416 94.5208 62.6795C87.4941 62.4467 80.5974 64.612 74.9648 68.8195C75.1731 69.1093 75.366 69.4099 75.5428 69.72Z" fill="white"/>
</g>
<path d="M94.794 119.892C94.7178 119.892 94.6121 119.884 94.5682 119.88C85.3062 119.379 81.4847 114.223 80.2716 112.029C79.8308 111.231 79.5916 110.338 79.5746 109.426C79.5431 104.632 81.3502 100.008 84.6243 96.5063C85.9023 95.0672 87.4706 93.9152 89.226 93.126C90.9814 92.3368 92.8841 91.9285 94.8087 91.9277C96.7334 91.927 98.6363 92.334 100.392 93.1218C102.148 93.9097 103.718 95.0606 104.997 96.4987C108.279 99.9996 110.092 104.627 110.061 109.426C110.044 110.337 109.805 111.231 109.364 112.029C108.151 114.223 104.33 119.379 95.0678 119.88C95.0238 119.884 94.918 119.892 94.8418 119.892L94.794 119.892Z" fill="#FF6CA8"/>
<path d="M94.8124 92.6694C96.6323 92.6618 98.4329 93.0433 100.093 93.7882C101.754 94.5331 103.236 95.6244 104.44 96.9888C107.587 100.359 109.332 104.802 109.32 109.413C109.306 110.204 109.099 110.979 108.715 111.671C107.464 113.934 103.814 118.669 95.0171 119.141C95.0171 119.141 94.9114 119.151 94.8414 119.151L94.8181 119.15L94.7949 119.151C94.7249 119.151 94.6192 119.141 94.6192 119.141C85.8221 118.669 82.172 113.934 80.9207 111.671C80.5377 110.979 80.3301 110.204 80.3161 109.414C80.3026 104.807 82.042 100.367 85.1816 96.9958C86.3852 95.6291 87.8673 94.5358 89.5285 93.7896C91.1897 93.0434 92.9913 92.6614 94.8124 92.6694H94.8124ZM94.8124 91.1866C92.7809 91.1814 90.7716 91.6097 88.9187 92.4427C87.0658 93.2757 85.4119 94.4944 84.0674 96.0173C80.6697 99.6568 78.7966 104.46 78.8335 109.439C78.8526 110.472 79.1236 111.484 79.623 112.388C80.8952 114.689 84.8905 120.094 94.5124 120.62C94.578 120.625 94.6898 120.634 94.7949 120.634L94.8181 120.633L94.8414 120.634C94.9465 120.634 95.0584 120.625 95.1239 120.62C104.746 120.094 108.741 114.689 110.013 112.388C110.513 111.484 110.784 110.471 110.803 109.439C110.839 104.455 108.959 99.6475 105.553 96.0091C104.208 94.4887 102.554 93.2722 100.702 92.4407C98.8504 91.6091 96.8425 91.1816 94.8124 91.1866Z" fill="#371A45"/>
<g opacity="0.25">
<path opacity="0.25" d="M104.441 96.9887C103.199 95.576 101.658 94.4585 99.9294 93.7178C100.771 94.3011 101.539 94.9845 102.217 95.753C105.364 99.1235 107.109 103.566 107.096 108.178C107.082 108.968 106.875 109.743 106.492 110.435C105.24 112.698 101.59 117.433 92.7932 117.905C92.6609 117.918 92.5277 117.918 92.3954 117.905C89.9151 117.81 87.4748 117.25 85.2012 116.254C88.0176 118.059 91.2752 119.058 94.6196 119.14C94.752 119.153 94.8852 119.153 95.0175 119.14C103.815 118.668 107.465 113.934 108.716 111.671C109.099 110.979 109.307 110.204 109.32 109.413C109.333 104.802 107.588 100.359 104.441 96.9887Z" fill="#371A45"/>
</g>
<g opacity="0.6">
<path opacity="0.6" d="M91.3154 102.123H91C89.8501 102.123 88.918 103.055 88.918 104.205V109.463C88.918 110.613 89.8501 111.545 91 111.545H91.3154C92.4653 111.545 93.3975 110.613 93.3975 109.463V104.205C93.3975 103.055 92.4653 102.123 91.3154 102.123Z" fill="white"/>
<path opacity="0.6" d="M100.12 102.123H99.8047C98.6548 102.123 97.7227 103.055 97.7227 104.205V109.463C97.7227 110.613 98.6548 111.545 99.8047 111.545H100.12C101.27 111.545 102.202 110.613 102.202 109.463V104.205C102.202 103.055 101.27 102.123 100.12 102.123Z" fill="white"/>
</g>
<g opacity="0.6">
<path opacity="0.6" d="M81.6625 112.165C81.2795 111.473 81.0719 110.698 81.0579 109.908C81.0443 105.301 82.7838 100.861 85.9234 97.49C87.9437 95.2187 90.701 93.7335 93.7092 93.2962C96.7174 92.8589 99.7834 93.4976 102.367 95.0997C99.7754 93.2336 96.5841 92.3947 93.41 92.7449C90.2359 93.0951 87.3043 94.6096 85.182 96.9957C82.0424 100.367 80.3029 104.807 80.3165 109.414C80.3305 110.204 80.538 110.979 80.921 111.671C82.0479 113.656 83.6597 115.323 85.6058 116.516C83.9847 115.376 82.6376 113.89 81.6625 112.165Z" fill="white"/>
</g>
<path d="M92.6553 103.869C92.6553 102.632 91.6525 101.629 90.4155 101.629C89.1785 101.629 88.1758 102.632 88.1758 103.869V108.812C88.1758 110.048 89.1785 111.051 90.4155 111.051C91.6525 111.051 92.6553 110.048 92.6553 108.812V103.869Z" fill="#371A45"/>
<path d="M101.46 103.869C101.46 102.632 100.457 101.629 99.2202 101.629C97.9832 101.629 96.9805 102.632 96.9805 103.869V108.812C96.9805 110.048 97.9832 111.051 99.2202 111.051C100.457 111.051 101.46 110.048 101.46 108.812V103.869Z" fill="#371A45"/>
<path d="M72.3189 20.2244C72.2331 20.2209 72.1484 20.205 72.0673 20.1771C66.4721 18.2148 65.0287 15.2313 64.803 13.0741C64.687 12.036 64.9143 10.9884 65.45 10.0917C65.9858 9.19501 66.8006 8.49853 67.7698 8.10883C68.2907 7.90451 68.8452 7.79937 69.4047 7.79883C70.8327 7.86382 72.1877 8.44874 73.2145 9.44342C76.1148 11.863 78.2149 12.2251 79.2102 12.2251C79.5251 12.2356 79.8395 12.1925 80.14 12.0976C80.2463 12.0504 80.3612 12.026 80.4775 12.026C80.6143 12.0264 80.7489 12.06 80.8698 12.1238C80.9908 12.1876 81.0945 12.2798 81.172 12.3924C81.2495 12.5051 81.2986 12.6349 81.315 12.7706C81.3314 12.9064 81.3146 13.0441 81.2661 13.172C78.7601 20.0273 73.0442 20.2254 72.4 20.2254L72.3189 20.2244Z" fill="#FCD5BC"/>
<path d="M69.4049 8.64744C70.6207 8.71412 71.771 9.21994 72.6419 10.0709C75.6472 12.5871 77.9096 13.0737 79.2103 13.0737C79.6383 13.0895 80.0654 13.0238 80.4689 12.8799C78.1586 19.1998 72.9722 19.3761 72.4001 19.3761C72.3662 19.3761 72.3485 19.3754 72.3485 19.3754C67.1895 17.5661 65.8499 14.9188 65.6477 12.9853C65.5512 12.1323 65.7365 11.2712 66.1753 10.5334C66.6142 9.79568 67.2825 9.22184 68.0781 8.89955C68.5007 8.73324 68.9507 8.64772 69.4049 8.64744ZM69.4049 6.94922C68.7399 6.94969 68.0809 7.07453 67.4619 7.31729C66.3194 7.77478 65.3584 8.59399 64.7257 9.64954C64.0931 10.7051 63.8237 11.9389 63.9589 13.162C64.21 15.5632 65.7719 18.8684 71.7865 20.9777C71.9486 21.0331 72.1179 21.065 72.2891 21.0724C72.2891 21.0724 72.3273 21.0741 72.4002 21.0741C73.1044 21.0741 79.3594 20.8605 82.0638 13.463C82.1931 13.1403 82.2218 12.7861 82.1462 12.4469C82.0706 12.1076 81.8941 11.7991 81.6401 11.5619C81.336 11.2899 80.944 11.1367 80.536 11.1305C80.284 11.1312 80.036 11.193 79.813 11.3105C79.6157 11.3576 79.4132 11.3795 79.2103 11.3757C78.3329 11.3757 76.4656 11.0414 73.7853 8.81346C72.6057 7.67212 71.0452 7.00801 69.4049 6.94922Z" fill="#371A45"/>
<path d="M68.078 8.89993C67.5916 9.09216 67.1497 9.38177 66.7793 9.75099C66.4089 10.1202 66.1179 10.5612 65.9241 11.047C65.674 11.6607 65.579 12.3265 65.6476 12.9857C65.8001 14.293 66.3937 15.5094 67.3305 16.434C68.7502 17.7934 70.4688 18.8009 72.3484 19.3757C72.6502 19.3767 72.9516 19.3531 73.2496 19.3053C71.0899 18.6792 69.1681 17.4189 67.7332 15.6878C67.946 14.8861 67.9093 14.0386 67.6279 13.2583C67.4387 12.671 67.1295 12.1294 66.7201 11.6679C66.8518 11.0426 67.1361 10.4596 67.5477 9.9707C67.9592 9.48183 68.4852 9.10228 69.0788 8.86582C69.3065 8.77691 69.5423 8.71075 69.783 8.6683C69.2043 8.60745 68.6195 8.6869 68.078 8.89993Z" fill="white"/>
<path d="M81.8809 49.2293C79.687 49.2293 78.0205 47.1052 77.3446 46.0809C77.2144 46.0909 77.0731 46.0959 76.919 46.0959C76.2671 46.0831 75.6169 46.0249 74.973 45.9215C74.9063 45.9106 74.8412 45.8917 74.779 45.8653C70.4046 44.0057 70.2901 38.2168 70.3285 36.8167C67.8513 33.0184 67.0989 29.1796 68.0926 25.4032C70.2729 17.1174 80.0349 12.1368 80.4493 11.9288C99.2283 2.22136 129.415 0.994013 138.219 0.849173L138.285 0.848633C139.057 0.848402 139.813 1.07241 140.46 1.49346C141.108 1.91451 141.619 2.51446 141.932 3.22046C145.518 11.3356 142.768 19.8109 140.809 24.1407C140.421 24.9994 139.741 25.6924 138.889 26.0965C138.038 26.5005 137.071 26.5893 136.16 26.3471L127.236 23.9808C126.986 23.9143 126.728 23.8806 126.469 23.8804C125.962 23.8783 125.464 24.0134 125.028 24.2712C124.277 24.6739 123.674 25.3065 123.308 26.0764C122.942 26.8462 122.831 27.7131 122.993 28.55C123.003 28.5903 123.01 28.6311 123.014 28.6722C123.286 31.4604 122.844 34.272 121.73 36.8424C120.616 39.4128 118.867 41.6576 116.646 43.3654C115.436 44.3347 113.988 44.9601 112.453 45.1758C112.128 45.2183 111.802 45.2399 111.475 45.2405H111.475C110.595 45.2448 109.723 45.0714 108.912 44.7307C108.363 44.4988 107.871 44.1478 107.474 43.7029C107.077 43.258 106.784 42.7303 106.615 42.1581C106.443 41.5791 106.402 40.9691 106.494 40.3722C106.587 39.7753 106.811 39.2064 107.15 38.7066C108.487 36.5143 109.431 34.1052 109.939 31.588C110.135 28.2038 109.364 25.5624 107.646 23.7365C105.16 21.0948 101.264 20.7003 99.1621 20.7003C98.5243 20.7003 98.073 20.7382 97.9214 20.7529C86.9691 23.7184 86.6288 37.2923 86.6194 38.058C87.5215 48.0602 82.8035 49.1122 82.6019 49.1521C82.3651 49.2036 82.1233 49.2295 81.8809 49.2293Z" fill="#FCD5BC"/>
<path d="M138.285 1.69808C138.893 1.69773 139.487 1.87388 139.997 2.20514C140.506 2.5364 140.909 3.0085 141.155 3.56408C144.645 11.4615 141.836 19.8095 140.035 23.7912C139.73 24.4667 139.194 25.0119 138.524 25.3298C137.854 25.6476 137.094 25.7174 136.377 25.5268L127.453 23.1605C127.132 23.0753 126.801 23.032 126.469 23.0318C125.809 23.0295 125.16 23.206 124.592 23.5426C123.685 24.0389 122.96 24.8126 122.524 25.7503C122.088 26.6881 121.964 27.7407 122.169 28.7544C122.439 31.4019 122.024 34.0744 120.965 36.5158C119.906 38.9573 118.238 41.086 116.121 42.6981C115.032 43.5733 113.726 44.1385 112.343 44.3342C112.055 44.3721 111.765 44.3913 111.474 44.3917C110.708 44.3965 109.949 44.246 109.243 43.9492C108.806 43.7624 108.417 43.4812 108.102 43.1258C107.787 42.7705 107.555 42.3498 107.422 41.894C107.289 41.4382 107.259 40.9587 107.334 40.4898C107.408 40.021 107.586 39.5744 107.853 39.1824C109.264 36.8788 110.255 34.3439 110.782 31.6949C111.44 20.9144 102.653 19.8517 99.1618 19.8517C98.6956 19.8481 98.2296 19.8696 97.7657 19.9159C85.7014 23.1249 85.7697 38.0942 85.7697 38.0942C86.6298 47.4895 82.4366 48.3196 82.4366 48.3196C82.254 48.3601 82.0675 48.3805 81.8804 48.3805C79.5235 48.3805 77.7632 45.141 77.7632 45.141C77.4897 45.224 77.2041 45.2599 76.9186 45.2472C76.3129 45.2342 75.7088 45.1797 75.1106 45.0842C70.7274 43.2209 71.1883 36.5785 71.1883 36.5785C61.6215 22.3255 80.8297 12.6881 80.8297 12.6881C99.6193 2.97507 130.235 1.83007 138.233 1.6985L138.285 1.6981L138.285 1.69808ZM138.285 4.53163e-08H138.285L138.204 0.000680045C129.355 0.1462 99.0105 1.38168 80.058 11.1754C79.5021 11.4558 69.5323 16.5943 67.271 25.1875C66.2328 29.1331 66.9748 33.1255 69.4762 37.0621C69.4682 38.9518 69.8361 44.6871 74.4464 46.6469C74.5709 46.6998 74.7012 46.7377 74.8346 46.7597C75.5193 46.8703 76.211 46.9323 76.9045 46.9453C77.7913 48.179 79.5373 50.0786 81.8805 50.0786C82.1885 50.0785 82.4955 50.0451 82.7964 49.9792C84.0607 49.6252 85.1443 48.8058 85.8294 47.6857C87.2956 45.532 87.847 42.2822 87.4685 38.0252C87.557 35.5236 88.0311 33.0507 88.874 30.6937C90.6416 25.8506 93.7364 22.7889 98.0731 21.5919C98.2499 21.5767 98.6375 21.5498 99.1618 21.5498C101.126 21.5498 104.76 21.9094 107.027 24.3187C108.569 25.9577 109.264 28.3666 109.094 31.4803C108.608 33.8668 107.712 36.151 106.446 38.2316C106.037 38.8352 105.766 39.5222 105.655 40.243C105.543 40.9638 105.593 41.7005 105.801 42.3996C106.005 43.0921 106.36 43.7307 106.84 44.2691C107.321 44.8075 107.916 45.2324 108.581 45.5129C109.497 45.8981 110.481 46.0943 111.474 46.0898C111.838 46.0893 112.201 46.0653 112.562 46.0181C114.248 45.7827 115.84 45.0971 117.17 44.0333C119.504 42.2382 121.342 39.8788 122.512 37.1773C123.682 34.4757 124.146 31.5209 123.859 28.5908C123.853 28.5077 123.839 28.4254 123.817 28.3451C123.698 27.685 123.794 27.0042 124.09 26.4024C124.386 25.8006 124.867 25.3094 125.463 25.0006C125.768 24.8213 126.115 24.7277 126.469 24.7299C126.654 24.7301 126.839 24.7543 127.018 24.8019L135.942 27.1682C137.047 27.4618 138.22 27.3538 139.253 26.8636C140.286 26.3734 141.111 25.5326 141.582 24.4909C143.599 20.0321 146.428 11.2949 142.708 2.87772C142.329 2.02128 141.709 1.29344 140.923 0.782589C140.138 0.271742 139.222 -0.000128152 138.285 4.53163e-08V4.53163e-08Z" fill="#371A45"/>
<path d="M138.236 1.69862L138.167 1.69971L138.008 1.70252L137.729 1.70779L137.556 1.71126C137.456 1.71335 137.353 1.71559 137.248 1.71797L137.058 1.72233C136.951 1.72486 136.84 1.72768 136.727 1.73056L136.534 1.73547C136.375 1.73967 136.212 1.74425 136.044 1.74921L135.98 1.75099C135.787 1.75675 135.586 1.76299 135.381 1.76969L135.225 1.77497C135.07 1.78017 134.912 1.78557 134.751 1.79134L134.528 1.79955C134.387 1.80477 134.244 1.81017 134.098 1.81586C134.007 1.81942 133.914 1.82318 133.821 1.82693C133.682 1.83253 133.54 1.83837 133.397 1.84445L133.121 1.85635C132.964 1.86316 132.805 1.87035 132.644 1.87778C132.557 1.88178 132.471 1.88567 132.382 1.88986C132.196 1.89866 132.005 1.908 131.813 1.91761L131.619 1.92712C131.359 1.94029 131.095 1.95418 130.826 1.96878L130.673 1.97733C130.454 1.98933 130.234 2.00173 130.01 2.01474C129.914 2.02029 129.816 2.02627 129.719 2.03201C129.535 2.04287 129.351 2.05396 129.164 2.06555C129.054 2.07236 128.942 2.07943 128.831 2.08655C128.653 2.09788 128.473 2.10949 128.292 2.12137C128.174 2.12908 128.056 2.13695 127.937 2.14498C127.752 2.15749 127.564 2.17046 127.375 2.18364C127.262 2.19164 127.149 2.19944 127.034 2.20764C126.823 2.22281 126.608 2.23864 126.393 2.25464C126.298 2.26171 126.204 2.26851 126.108 2.27576C125.795 2.29946 125.478 2.32405 125.159 2.34954L125.147 2.35054C124.833 2.37573 124.515 2.40191 124.194 2.42909C124.09 2.43791 123.984 2.44729 123.878 2.45637C123.655 2.47553 123.432 2.49495 123.205 2.51509C123.081 2.52617 122.955 2.53771 122.829 2.54909C122.62 2.56816 122.409 2.58762 122.197 2.60746C122.063 2.61998 121.929 2.63269 121.795 2.64558C121.585 2.66574 121.373 2.68632 121.161 2.70733C121.026 2.72071 120.89 2.73407 120.754 2.74779C120.531 2.77031 120.306 2.79339 120.08 2.81703C119.956 2.82991 119.833 2.8425 119.709 2.85566C119.429 2.88526 119.148 2.9157 118.865 2.94698C118.792 2.95505 118.719 2.96266 118.646 2.97082C118.29 3.01032 117.933 3.05106 117.573 3.09304C117.476 3.10433 117.378 3.11621 117.281 3.12768C117.019 3.15867 116.755 3.19024 116.491 3.22241C116.356 3.23885 116.22 3.25589 116.085 3.27267C115.852 3.30173 115.618 3.33121 115.383 3.36112C115.24 3.37945 115.096 3.39803 114.952 3.41687C114.723 3.44677 114.493 3.47719 114.262 3.50812C114.117 3.52761 113.971 3.54728 113.825 3.56712C113.586 3.59979 113.346 3.63312 113.105 3.66712C112.969 3.68626 112.833 3.70512 112.696 3.72467C112.422 3.76379 112.148 3.80379 111.872 3.84467C111.768 3.86 111.665 3.87484 111.561 3.89038C111.181 3.94701 110.801 4.00509 110.42 4.06463C110.35 4.07556 110.279 4.08711 110.209 4.09815C110.1 4.11523 109.991 4.13307 109.883 4.15035C109.681 4.18252 109.479 4.21435 109.276 4.24747C109.143 4.26923 109.009 4.29176 108.875 4.3139C108.624 4.35547 108.373 4.3976 108.122 4.44028C107.973 4.46561 107.825 4.49126 107.676 4.51721C107.435 4.55888 107.195 4.60116 106.954 4.64405C106.803 4.67097 106.652 4.69813 106.5 4.72552C106.256 4.7697 106.013 4.81457 105.769 4.86013C105.623 4.88732 105.477 4.9146 105.331 4.94197C105.066 4.99197 104.802 5.04291 104.537 5.09478C104.413 5.11904 104.288 5.14284 104.164 5.16746C103.776 5.24413 103.388 5.32239 103 5.40225L102.983 5.40577C102.601 5.48465 102.219 5.56528 101.837 5.64767C101.712 5.67461 101.587 5.70249 101.462 5.72981C101.199 5.78729 100.936 5.84544 100.673 5.90426C100.526 5.93726 100.38 5.97098 100.233 6.00448C99.9905 6.05994 99.7479 6.11606 99.5055 6.17284C99.3524 6.2088 99.1995 6.24506 99.0466 6.28161C98.9816 6.29715 98.9166 6.3132 98.8517 6.32883C98.678 6.37065 98.5045 6.41269 98.3311 6.45494C98.1806 6.49186 98.0302 6.52895 97.8798 6.56622C97.6293 6.62872 97.3791 6.69217 97.1293 6.75658C96.9943 6.79119 96.8591 6.82535 96.7243 6.86047C96.4155 6.9409 96.1075 7.02272 95.8 7.10595C95.7257 7.12603 95.651 7.14536 95.5767 7.16558C95.1958 7.26919 94.8162 7.37481 94.4377 7.48244C94.3341 7.51189 94.2312 7.54235 94.1277 7.57208C93.8531 7.65107 93.5791 7.73092 93.3057 7.81164C93.1677 7.85264 93.0305 7.89444 92.8929 7.93597C92.654 8.00803 92.4157 8.0808 92.178 8.15428C92.0312 8.19985 91.8847 8.2458 91.7386 8.29213C91.5086 8.36475 91.2792 8.43819 91.0505 8.51245C90.9054 8.55953 90.7606 8.60686 90.6159 8.65445C90.3812 8.732 90.1473 8.81054 89.9143 8.89008C89.7795 8.93587 89.6443 8.98132 89.5101 9.02772C89.2451 9.1193 88.9813 9.21225 88.7187 9.30656C88.6199 9.34186 88.5203 9.37635 88.4218 9.41194C88.0612 9.54239 87.7026 9.67502 87.3462 9.80983C87.2786 9.83544 87.2119 9.86202 87.1444 9.88783C86.8573 9.9975 86.5717 10.1085 86.2874 10.2208C86.1651 10.2693 86.0441 10.319 85.9225 10.368C85.694 10.4602 85.4664 10.5532 85.2396 10.6469C85.1058 10.7026 84.9728 10.7591 84.8397 10.8155C84.6262 10.9059 84.4137 10.9972 84.2023 11.0894C84.0677 11.1482 83.9335 11.2073 83.7997 11.2667C83.5881 11.3609 83.3777 11.4561 83.1685 11.5523C83.0414 11.6106 82.9141 11.6686 82.788 11.7276C82.5624 11.833 82.3392 11.9401 82.1165 12.0478C82.0104 12.099 81.9032 12.1496 81.7978 12.2014C81.4721 12.3615 81.1495 12.5238 80.8299 12.6883C79.6164 13.33 78.4499 14.0569 77.3393 14.8636C75.2429 16.3363 73.365 18.0975 71.761 20.0951C71.4391 20.5086 71.1311 20.9375 70.8417 21.3812C70.5524 21.8249 70.2819 22.2833 70.035 22.756C69.0806 24.5255 68.5608 26.4966 68.5184 28.5066C68.5139 28.8869 68.5285 29.2727 68.5622 29.664C68.5792 29.8596 68.6014 30.0565 68.6286 30.2547C68.6832 30.6512 68.759 31.053 68.8561 31.4599C68.9049 31.6633 68.9593 31.8681 69.0193 32.0741C69.1395 32.486 69.2832 32.903 69.4503 33.3249C69.9123 34.4682 70.495 35.5589 71.1885 36.5786C71.1885 36.5786 71.1854 36.6266 71.1821 36.7116L71.1814 36.7294L71.1785 36.8251L71.178 36.8407C71.1771 36.8783 71.1764 36.9205 71.1758 36.9655L71.1756 36.9801C71.1751 37.026 71.1749 37.0762 71.1749 37.129C71.1749 37.135 71.1749 37.1406 71.1749 37.1466C71.1751 37.2004 71.1756 37.2578 71.1766 37.318L71.1768 37.3368C71.1779 37.3989 71.1794 37.4644 71.1816 37.5328L71.182 37.5475C71.1843 37.6185 71.1873 37.6926 71.1909 37.7697L71.1913 37.7769C71.206 39.9399 71.9297 42.0384 73.2513 43.7508L73.2538 43.7535C73.3374 43.8457 73.4244 43.9354 73.5147 44.0226L73.5219 44.0294C73.6115 44.1155 73.7045 44.1989 73.801 44.2796L73.8102 44.2872C73.9069 44.3676 74.0072 44.4451 74.1109 44.5196L74.1184 44.5248C74.2236 44.5998 74.3325 44.6715 74.4451 44.74C72.3869 42.9628 71.9685 39.8595 71.8988 38.2059C71.8841 22.9026 82.3617 15.6669 83.0408 15.2141C70.6298 23.0631 70.544 34.3058 70.5451 34.7144C64.4551 21.7793 81.5412 13.2035 81.5412 13.2035C87.2982 10.3714 93.3704 8.2311 99.6308 6.8272C101.469 7.53989 103.499 7.58523 105.367 6.95533C106.783 6.56761 108.093 5.86261 109.197 4.89372C119.381 3.23917 129.673 2.33902 139.989 2.20061C139.467 1.86368 138.857 1.68898 138.236 1.69862Z" fill="white"/>
<g opacity="0.25">
<path opacity="0.25" d="M85.7705 38.0939C85.7705 38.0939 85.7227 27.3671 93.0267 22.1279C93.0187 22.133 81.9762 29.2118 83.3857 41.1835C83.3857 41.1835 82.6008 46.8085 79.8232 47.5842C80.1769 47.8934 80.5951 48.1198 81.0473 48.247C81.4995 48.3742 81.9744 48.399 82.4374 48.3195C82.4374 48.3195 86.6307 47.4894 85.7705 38.0939Z" fill="#371A45"/>
</g>
<path d="M83.041 15.2135L83.076 15.1904L83.041 15.2135Z" fill="white"/>
<path d="M108.554 39.7129C109.97 37.4058 110.966 34.8657 111.494 32.2107C111.817 26.9111 109.857 23.9611 107.367 22.3301C109.506 24.0432 111.074 26.9123 110.783 31.6954C110.254 34.3503 109.259 36.8905 107.843 39.1976C107.592 39.5703 107.421 39.9916 107.343 40.4343C107.265 40.8769 107.28 41.3311 107.389 41.7674C107.497 42.2037 107.696 42.6124 107.972 42.9671C108.248 43.3217 108.596 43.6144 108.992 43.8262C108.446 43.302 108.103 42.602 108.023 41.8494C107.943 41.0969 108.131 40.3403 108.554 39.7129Z" fill="white"/>
<path d="M85.7147 17.9775C74.1149 30.4228 75.8203 41.1304 77.1332 45.2415C77.3474 45.2409 77.5603 45.2068 77.7641 45.1405C77.7641 45.1405 77.8965 45.3829 78.1352 45.7338L78.1347 45.7339L78.1525 45.7592C78.1945 45.8205 78.2396 45.8847 78.2878 45.9516L78.3326 46.0133C78.3843 46.0839 78.4387 46.1564 78.4966 46.2311L78.5371 46.2826C78.6005 46.3633 78.6668 46.4452 78.7371 46.5284L78.7641 46.5598C78.8374 46.6459 78.9135 46.7326 78.9936 46.8193L78.9944 46.8192C79.3727 47.2385 79.8085 47.6021 80.2887 47.8993C79.8998 47.5599 79.545 47.1831 79.2296 46.7745C72.8092 32.2872 85.7147 17.9775 85.7147 17.9775Z" fill="white"/>
<path d="M69.8692 36.9534C69.805 36.3638 69.7798 35.7706 69.7938 35.1777C69.8037 34.5966 69.8305 34.0167 69.8933 33.4408C70.0108 32.2887 70.2205 31.1478 70.5203 30.0292C71.1107 27.7908 72.0497 25.6592 73.3027 23.7127C73.6032 23.2213 73.9468 22.7585 74.2781 22.2894C74.6343 21.8381 74.9768 21.3772 75.3617 20.9513C76.1096 20.0853 76.924 19.2791 77.7974 18.54C79.5256 17.0687 81.4369 15.8273 83.4838 14.8468C83.5067 14.8357 83.5329 14.8339 83.5571 14.8416C83.5813 14.8493 83.6016 14.866 83.6139 14.8883C83.6262 14.9105 83.6294 14.9366 83.6231 14.9612C83.6167 14.9858 83.6011 15.007 83.5796 15.0205C81.6932 16.2006 79.94 17.5813 78.3507 19.1386C78.1483 19.3262 77.9653 19.5333 77.7769 19.7342C77.5915 19.9381 77.3967 20.1327 77.2197 20.3434C76.8684 20.7673 76.5047 21.1782 76.1768 21.6184C75.8315 22.0445 75.5298 22.5027 75.2145 22.9492C74.9245 23.4132 74.6225 23.8685 74.3639 24.3499C73.301 26.2518 72.499 28.2882 71.9793 30.4041C71.7177 31.4574 71.5231 32.5262 71.3968 33.6041C71.3359 34.1427 71.2882 34.6824 71.2599 35.2218C71.2469 35.4914 71.239 35.761 71.2385 36.0288C71.2367 36.2919 71.2382 36.5748 71.2503 36.8074L71.2518 36.8369C71.2612 37.0169 71.2002 37.1935 71.0817 37.3293C70.9632 37.4651 70.7965 37.5495 70.6169 37.5647C70.4373 37.5798 70.2589 37.5245 70.1194 37.4104C69.9798 37.2963 69.8901 37.1324 69.8692 36.9534L69.8692 36.9534Z" fill="#371A45"/>
<path d="M86.8256 17.137C84.8862 18.9509 83.1592 20.9792 81.6779 23.1831C80.9444 24.2775 80.274 25.413 79.6699 26.5838C79.0643 27.7455 78.5474 28.9513 78.1239 30.191C77.2703 32.6467 76.8175 35.2239 76.7829 37.8235C76.7815 37.9849 76.7706 38.1464 76.7769 38.3077L76.7953 38.7917C76.8107 39.1141 76.8072 39.4376 76.8374 39.7591C76.9062 40.4013 76.9449 41.0468 77.0631 41.6834C77.1176 42.002 77.154 42.3238 77.2223 42.6402L77.4264 43.5901C77.4856 43.9091 77.5797 44.2197 77.6688 44.5319L77.9255 45.4723L77.9332 45.5002C77.9805 45.6736 77.9588 45.8586 77.8725 46.0163C77.7862 46.1739 77.6422 46.292 77.4706 46.3456C77.2991 46.3992 77.1134 46.3842 76.9527 46.3037C76.792 46.2232 76.6688 46.0836 76.609 45.9141C75.6686 43.3134 75.2169 40.5613 75.2767 37.7965C75.3521 35.0383 75.9234 32.3161 76.9634 29.7602C77.9731 27.2284 79.338 24.8531 81.017 22.7059C82.653 20.5565 84.5647 18.6318 86.7028 16.9812C86.7231 16.9658 86.7485 16.9587 86.7737 16.9615C86.799 16.9643 86.8223 16.9768 86.8386 16.9962C86.855 17.0157 86.8633 17.0407 86.8618 17.0661C86.8602 17.0915 86.8489 17.1153 86.8303 17.1326L86.8256 17.137Z" fill="#371A45"/>
<path d="M106.058 37.2826C107.379 39.1224 108.12 41.3152 108.184 43.5791C108.249 45.8431 107.635 48.0746 106.422 49.9869C105.208 51.8992 103.45 53.4048 101.374 54.3101C99.298 55.2154 96.9987 55.4791 94.7715 55.0673C94.1667 54.9566 93.5721 54.7962 92.9938 54.5876C90.9058 53.8431 89.0836 52.4995 87.755 50.725C87.703 50.6555 87.6519 50.5874 87.6013 50.5168C86.3109 48.718 85.5744 46.5812 85.4825 44.3693C85.3905 42.1573 85.9471 39.9668 87.0838 38.067C88.2206 36.1673 89.8878 34.6413 91.8804 33.6766C93.873 32.712 96.1042 32.3509 98.2994 32.6377C98.9094 32.7187 99.512 32.8479 100.102 33.0242C102.504 33.7453 104.599 35.243 106.058 37.2825V37.2826Z" fill="#F7C714"/>
<g opacity="0.55">
<path opacity="0.55" d="M106.058 37.2825C106.223 37.5134 106.379 37.7491 106.525 37.9872C104.687 35.7887 102.085 34.3665 99.2422 34.006C96.3991 33.6454 93.5248 34.3731 91.1959 36.043C88.8669 37.713 87.2554 40.2018 86.6846 43.0102C86.1138 45.8186 86.6259 48.739 88.1182 51.1856C87.9397 50.9707 87.7664 50.7477 87.6008 50.5168C86.7318 49.3049 86.1101 47.9337 85.771 46.4815C85.432 45.0293 85.3823 43.5246 85.6248 42.0532C85.8673 40.5818 86.3972 39.1725 87.1843 37.9059C87.9714 36.6393 89.0003 35.5402 90.2122 34.6712C92.6597 32.9162 95.7042 32.2054 98.6758 32.6951C101.647 33.1849 104.303 34.835 106.058 37.2825H106.058Z" fill="white"/>
</g>
<path d="M106.059 37.2833C106.966 38.5502 107.603 39.9902 107.929 41.5138C108.256 43.0374 108.266 44.6119 107.958 46.1393C107.65 47.6668 107.031 49.1145 106.139 50.3924C105.247 51.6703 104.102 52.751 102.775 53.5674C101.448 54.3837 99.9668 54.9181 98.4241 55.1374C96.8814 55.3567 95.3101 55.2561 93.8079 54.842C92.3058 54.4279 90.9049 53.709 89.6925 52.7302C88.4801 51.7513 87.4822 50.5335 86.7607 49.1523C88.6515 51.1285 91.1919 52.356 93.9151 52.6092C96.6384 52.8624 99.3615 52.1244 101.584 50.5306C103.807 48.9369 105.38 46.5946 106.014 43.9341C106.648 41.2736 106.3 38.4737 105.035 36.0488C105.405 36.4358 105.747 36.8483 106.059 37.2833Z" fill="#F89E1D"/>
<path d="M101.444 50.335C100.171 51.2476 98.6562 51.7623 97.091 51.814C95.5257 51.8657 93.9803 51.4521 92.6501 50.6255C91.3199 49.7988 90.2647 48.5963 89.6179 47.17C88.9712 45.7437 88.7619 44.1576 89.0165 42.6123C89.2712 41.0671 89.9783 39.632 91.0486 38.4886C92.1188 37.3453 93.5041 36.5449 95.0292 36.1888C96.5542 35.8328 98.1507 35.9369 99.6166 36.4881C101.082 37.0393 102.352 38.0129 103.265 39.2856C104.486 40.9931 104.98 43.1154 104.639 45.1868C104.298 47.2583 103.149 49.1097 101.444 50.335Z" fill="#F9DD6A"/>
<g opacity="0.55">
<path opacity="0.55" d="M103.264 39.2864C103.389 39.4599 103.505 39.6372 103.613 39.8158C102.327 38.2958 100.517 37.3156 98.5412 37.0705C96.5657 36.8255 94.5704 37.3335 92.9527 38.4935C91.335 39.6535 90.2136 41.3802 89.8118 43.3299C89.4099 45.2795 89.7573 47.309 90.7845 49.014C90.65 48.8544 90.5193 48.6877 90.3949 48.5142C89.7881 47.6692 89.3537 46.7129 89.1166 45.7C88.8795 44.6871 88.8443 43.6374 89.0131 42.6109C89.1819 41.5844 89.5513 40.6012 90.1002 39.7175C90.6491 38.8338 91.3668 38.0669 92.2122 37.4607C93.0576 36.8546 94.0142 36.4209 95.0273 36.1846C96.0404 35.9482 97.0901 35.9139 98.1165 36.0834C99.1429 36.253 100.126 36.6231 101.009 37.1727C101.892 37.7223 102.659 38.4405 103.264 39.2864Z" fill="white"/>
</g>
<path d="M100.139 43.6625C100.457 44.105 100.616 44.6421 100.59 45.1864C100.564 45.7307 100.354 46.2501 99.9952 46.6601L100.73 47.685L99.4244 48.6212L98.8044 47.7566C98.1862 48.1916 97.4814 48.4881 96.7381 48.6259L96.1493 47.1557C96.8588 47.0454 97.5343 46.7764 98.1254 46.3688C98.8209 45.8701 98.9804 45.3193 98.6673 44.8826C98.3689 44.4665 97.8805 44.456 96.8695 44.7445C95.4805 45.1549 94.3138 45.0586 93.6158 44.0851C93.29 43.6104 93.1425 43.0358 93.1995 42.4629C93.2564 41.89 93.5141 41.3556 93.9269 40.9543L93.1899 39.9265L94.4957 38.9902L95.181 39.946C95.6355 39.6721 96.1328 39.4766 96.6521 39.3677L97.1915 40.831C96.6038 40.9326 96.047 41.1673 95.5639 41.5172C94.9081 41.9874 94.8035 42.5122 95.0534 42.8607C95.3591 43.2871 95.872 43.2044 96.9703 42.9134C98.4657 42.5024 99.4633 42.72 100.139 43.6625Z" fill="#371A45"/>
<g opacity="0.27">
<path opacity="0.27" d="M98.2992 32.638L92.9936 54.5879C90.9056 53.8434 89.0834 52.4999 87.7549 50.7253L91.8764 33.6789C93.8692 32.7104 96.1025 32.3485 98.2992 32.638Z" fill="#FCE5E5"/>
</g>
<g opacity="0.27">
<path opacity="0.27" d="M102.475 34.0434L97.9622 55.1143C96.9061 55.3114 95.8213 55.2955 94.7715 55.0675L100.102 33.0244C100.965 33.1603 101.782 33.5106 102.475 34.0434Z" fill="#FCE5E5"/>
</g>
<path d="M96.8409 52.3576C94.8271 52.3583 92.8793 51.6396 91.3487 50.331C89.8181 49.0224 88.8053 47.21 88.4929 45.2206C88.1805 43.2312 88.5891 41.1957 89.645 39.481C90.7009 37.7662 92.3347 36.4851 94.2517 35.8685C96.1688 35.252 98.243 35.3406 100.101 36.1184C101.958 36.8961 103.477 38.3119 104.382 40.1104C105.288 41.9089 105.522 43.9719 105.041 45.9274C104.56 47.8829 103.397 49.6023 101.76 50.7756C100.327 51.8058 98.6059 52.3592 96.8409 52.3576ZM96.8196 36.5264C95.6581 36.5279 94.5134 36.8037 93.4787 37.3314C92.444 37.8591 91.5486 38.6237 90.8654 39.563C90.1822 40.5023 89.7305 41.5896 89.5471 42.7365C89.3638 43.8834 89.4539 45.0574 89.8101 46.1629C90.1664 47.2684 90.7787 48.2741 91.5973 49.0981C92.4159 49.9221 93.4175 50.5411 94.5206 50.9047C95.6237 51.2683 96.797 51.3663 97.9451 51.1905C99.0932 51.0147 100.184 50.5703 101.127 49.8933C102.397 48.9833 103.345 47.6934 103.835 46.2097C104.324 44.726 104.33 43.1251 103.851 41.6381C103.371 40.1511 102.432 38.8547 101.168 37.936C99.9048 37.0172 98.3819 36.5236 96.8196 36.5264Z" fill="#371A45"/>
<path d="M96.8396 56.0897C96.0955 56.0894 95.3531 56.0216 94.6213 55.887C91.6147 55.3328 88.9262 53.669 87.0888 51.2256C87.0311 51.1485 86.9776 51.0768 86.9244 51.0026C85.5393 49.0718 84.7488 46.7782 84.6502 44.4039C84.5515 42.0297 85.149 39.6784 86.3691 37.6393C87.5893 35.6002 89.3788 33.9622 91.5177 32.9268C93.6565 31.8915 96.0514 31.5039 98.4076 31.8117C99.0618 31.8987 99.7081 32.0372 100.34 32.2262C102.919 33.0001 105.168 34.6077 106.736 36.7972C108.616 39.4255 109.376 42.6923 108.851 45.8809C108.325 49.0695 106.557 51.9194 103.933 53.8055C101.866 55.2908 99.3847 56.0898 96.8395 56.0897L96.8396 56.0897ZM96.8152 33.374C94.8812 33.377 92.9853 33.9127 91.3359 34.9226C89.6864 35.9324 88.3471 37.3773 87.4651 39.0984C86.583 40.8196 86.1923 42.7506 86.3358 44.6793C86.4793 46.608 87.1515 48.4598 88.2785 50.0315C88.3251 50.0963 88.372 50.159 88.42 50.223C90.0847 52.437 92.5552 53.9053 95.2956 54.3092C98.036 54.7132 100.825 54.0202 103.058 52.3807C105.291 50.7412 106.787 48.2875 107.222 45.5518C107.657 42.8162 106.995 40.0193 105.381 37.7682C104.029 35.8784 102.088 34.4907 99.8624 33.8225C99.3151 33.6591 98.7558 33.5392 98.1897 33.4638C97.7339 33.4041 97.2748 33.3741 96.8152 33.374Z" fill="#371A45"/>
<g opacity="0.25">
<path opacity="0.25" d="M123.331 24.5498C123.331 24.5498 119.106 27.5393 118.786 31.8203C118.716 32.97 118.447 34.0988 117.99 35.1558C117.133 37.1359 115.847 38.9012 114.226 40.3247C112.604 41.7482 110.688 42.7944 108.613 43.3879L109.286 44.6561C109.286 44.6561 115.006 47.3901 120.35 39.1148L123.016 31.3933L123.331 24.5498Z" fill="#371A45"/>
</g>
<g opacity="0.25">
<path opacity="0.25" d="M123.811 24.1593C124.981 23.1876 126.241 22.3296 127.574 21.597C128.731 20.8877 130.105 20.6187 131.445 20.8393L134.053 21.2692C134.968 21.4212 135.907 21.2596 136.718 20.8107C137.53 20.3617 138.166 19.6518 138.523 18.796C140.22 14.7102 142.57 7.31294 139.947 2.33594L141.563 3.39848L143.842 13.7263L141.951 21.5756L139.86 25.809L137.343 26.5885L123.811 24.1593Z" fill="#371A45"/>
</g>
<path d="M65.1814 139.135V142.103C65.1814 142.44 65.0521 142.765 64.8202 143.01C64.5882 143.256 64.2711 143.403 63.934 143.422C63.9105 143.424 63.8838 143.424 63.8603 143.424H46.8308C46.4804 143.424 46.1444 143.284 45.8967 143.037C45.649 142.789 45.5098 142.453 45.5098 142.103V139.135C45.5098 138.784 45.649 138.448 45.8967 138.2C46.1444 137.953 46.4804 137.814 46.8308 137.813H63.8603C64.2107 137.814 64.5467 137.953 64.7944 138.2C65.0422 138.448 65.1814 138.784 65.1814 139.135Z" fill="#F7C714"/>
<path d="M63.7037 137.813H56.3379V143.424H63.7037V137.813Z" fill="#F89E1D"/>
<g opacity="0.55">
<path opacity="0.55" d="M51.2969 137.812H47.7188V143.423H51.2969V137.812Z" fill="#FCE5E5"/>
</g>
<path d="M63.8598 144.411H46.8313C46.2844 144.411 45.7601 144.193 45.3734 143.807C44.9867 143.42 44.7692 142.895 44.7686 142.349V139.381C44.7692 138.834 44.9867 138.31 45.3734 137.923C45.7601 137.537 46.2844 137.319 46.8313 137.318H63.8598C64.4067 137.319 64.931 137.537 65.3177 137.923C65.7044 138.31 65.9219 138.834 65.9225 139.381V142.349C65.9219 142.895 65.7044 143.42 65.3177 143.807C64.931 144.193 64.4067 144.411 63.8598 144.411ZM46.8313 138.801C46.6775 138.801 46.5301 138.863 46.4214 138.971C46.3127 139.08 46.2516 139.227 46.2514 139.381V142.349C46.2516 142.502 46.3127 142.65 46.4214 142.759C46.5301 142.867 46.6775 142.928 46.8313 142.929H63.8598C64.0135 142.928 64.1609 142.867 64.2696 142.759C64.3783 142.65 64.4395 142.502 64.4396 142.349V139.381C64.4395 139.227 64.3783 139.08 64.2696 138.971C64.1609 138.863 64.0135 138.801 63.8598 138.801H46.8313Z" fill="#371A45"/>
<path d="M68.1238 122.259V125.227C68.1238 125.564 67.9946 125.889 67.7626 126.134C67.5306 126.38 67.2136 126.527 66.8764 126.546C66.8529 126.548 66.8263 126.548 66.8028 126.548H49.7732C49.4229 126.548 49.0869 126.408 48.8391 126.161C48.5914 125.913 48.4522 125.577 48.4521 125.227V122.259C48.4522 121.908 48.5914 121.572 48.8391 121.324C49.0869 121.077 49.4229 120.938 49.7732 120.938H66.8028C67.1531 120.938 67.4891 121.077 67.7368 121.324C67.9846 121.572 68.1238 121.908 68.1238 122.259Z" fill="#F7C714"/>
<path d="M66.6461 120.938H59.2803V126.548H66.6461V120.938Z" fill="#F89E1D"/>
<g opacity="0.55">
<path opacity="0.55" d="M54.2393 120.937H50.6611V126.547H54.2393V120.937Z" fill="#FCE5E5"/>
</g>
<path d="M66.8022 127.535H49.7738C49.2269 127.535 48.7025 127.317 48.3158 126.931C47.9291 126.544 47.7115 126.02 47.7109 125.473V122.505C47.7115 121.958 47.9291 121.434 48.3158 121.047C48.7025 120.661 49.2269 120.443 49.7738 120.442H66.8022C67.3491 120.443 67.8734 120.661 68.2602 121.047C68.6469 121.434 68.8644 121.958 68.865 122.505V125.473C68.8644 126.02 68.6469 126.544 68.2602 126.931C67.8734 127.317 67.3491 127.535 66.8022 127.535ZM49.7738 121.925C49.62 121.925 49.4726 121.987 49.3638 122.095C49.2551 122.204 49.1939 122.351 49.1938 122.505V125.473C49.1939 125.626 49.2551 125.774 49.3638 125.883C49.4726 125.991 49.62 126.052 49.7738 126.053H66.8022C66.956 126.052 67.1034 125.991 67.2121 125.883C67.3209 125.774 67.382 125.626 67.3822 125.473V122.505C67.382 122.351 67.3209 122.204 67.2121 122.095C67.1034 121.987 66.956 121.925 66.8022 121.925H49.7738Z" fill="#371A45"/>
<path d="M68.0824 133.524V136.492C68.0823 136.83 67.9529 137.155 67.7208 137.4C67.4888 137.646 67.1716 137.793 66.8344 137.812C66.8109 137.813 66.7842 137.813 66.7607 137.813H49.7221C49.3717 137.813 49.0356 137.674 48.7877 137.426C48.5398 137.179 48.4005 136.843 48.4004 136.492V133.524C48.4005 133.174 48.5399 132.838 48.7877 132.59C49.0356 132.342 49.3717 132.203 49.7221 132.203H66.7606C67.1111 132.203 67.4472 132.342 67.695 132.59C67.9429 132.838 68.0822 133.174 68.0824 133.524Z" fill="#F7C714"/>
<path d="M66.6041 132.202H59.2344V137.812H66.6041V132.202Z" fill="#F89E1D"/>
<g opacity="0.55">
<path opacity="0.55" d="M54.1904 132.202H50.6104V137.812H54.1904V132.202Z" fill="#FCE5E5"/>
</g>
<path d="M66.7604 138.801H49.7222C49.1753 138.8 48.6509 138.583 48.2641 138.196C47.8774 137.809 47.6598 137.285 47.6592 136.738V133.771C47.6598 133.224 47.8774 132.7 48.2641 132.313C48.6509 131.926 49.1753 131.709 49.7222 131.708H66.7604C67.3074 131.709 67.8318 131.926 68.2186 132.313C68.6053 132.7 68.8229 133.224 68.8235 133.771V136.738C68.8229 137.285 68.6053 137.809 68.2186 138.196C67.8318 138.583 67.3074 138.8 66.7604 138.801ZM49.7222 133.191C49.5684 133.191 49.4209 133.252 49.3122 133.361C49.2034 133.47 49.1422 133.617 49.142 133.771V136.738C49.1422 136.892 49.2034 137.039 49.3122 137.148C49.4209 137.257 49.5684 137.318 49.7222 137.318H66.7604C66.9143 137.318 67.0618 137.257 67.1705 137.148C67.2793 137.039 67.3405 136.892 67.3406 136.738V133.771C67.3405 133.617 67.2793 133.47 67.1705 133.361C67.0618 133.252 66.9143 133.191 66.7604 133.191H49.7222Z" fill="#371A45"/>
<path d="M64.8934 127.913V130.881C64.8933 131.219 64.7641 131.543 64.5321 131.789C64.3002 132.034 63.9831 132.181 63.646 132.2C63.6225 132.202 63.5958 132.202 63.5723 132.202H46.5427C46.1924 132.202 45.8564 132.063 45.6087 131.815C45.3609 131.567 45.2217 131.231 45.2217 130.881V127.913C45.2217 127.563 45.3609 127.227 45.6087 126.979C45.8564 126.731 46.1924 126.592 46.5427 126.592H63.5723C63.9227 126.592 64.2586 126.731 64.5064 126.979C64.7541 127.227 64.8933 127.563 64.8934 127.913Z" fill="#F7C714"/>
<path d="M63.4156 126.592H56.0498V132.202H63.4156V126.592Z" fill="#F89E1D"/>
<g opacity="0.55">
<path opacity="0.55" d="M51.0089 126.591H47.4307V132.201H51.0089V126.591Z" fill="#FCE5E5"/>
</g>
<path d="M63.5717 133.19H46.5432C45.9963 133.189 45.472 132.972 45.0853 132.585C44.6986 132.198 44.4811 131.674 44.4805 131.127V128.16C44.4811 127.613 44.6986 127.088 45.0853 126.702C45.472 126.315 45.9963 126.097 46.5432 126.097H63.5717C64.1186 126.097 64.6429 126.315 65.0296 126.702C65.4163 127.088 65.6338 127.613 65.6344 128.16V131.127C65.6338 131.674 65.4162 132.198 65.0295 132.585C64.6428 132.972 64.1186 133.189 63.5717 133.19ZM46.5432 127.58C46.3894 127.58 46.242 127.641 46.1333 127.75C46.0246 127.858 45.9635 128.006 45.9633 128.16V131.127C45.9635 131.281 46.0247 131.428 46.1334 131.537C46.2421 131.646 46.3895 131.707 46.5432 131.707H63.5717C63.7254 131.707 63.8728 131.646 63.9815 131.537C64.0902 131.428 64.1513 131.281 64.1515 131.127V128.16C64.1514 128.006 64.0903 127.858 63.9816 127.75C63.8729 127.641 63.7255 127.58 63.5717 127.58H46.5432Z" fill="#371A45"/>
<path d="M139.563 131.953C139.565 134.347 138.85 136.686 137.511 138.671C136.173 140.656 134.271 142.194 132.051 143.089C129.83 143.985 127.393 144.195 125.052 143.694C122.711 143.193 120.574 142.003 118.914 140.278C118.463 139.81 118.051 139.306 117.682 138.771C116.347 136.845 115.61 134.569 115.561 132.226C115.56 132.134 115.558 132.045 115.558 131.953C115.557 129.613 116.241 127.324 117.524 125.367C118.807 123.41 120.635 121.871 122.781 120.94C124.928 120.008 127.3 119.724 129.606 120.123C131.911 120.522 134.05 121.586 135.759 123.184C136.234 123.629 136.672 124.111 137.07 124.626C138.689 126.725 139.566 129.302 139.563 131.953L139.563 131.953Z" fill="#F7C714"/>
<g opacity="0.55">
<path opacity="0.55" d="M139.563 131.952C139.563 132.253 139.552 132.551 139.531 132.845C139.306 129.825 137.947 127.001 135.727 124.94C133.507 122.879 130.59 121.734 127.561 121.734C124.531 121.734 121.614 122.879 119.394 124.94C117.174 127.001 115.815 129.825 115.59 132.845C115.569 132.551 115.558 132.253 115.558 131.952C115.556 130.375 115.866 128.813 116.468 127.356C117.071 125.898 117.955 124.574 119.069 123.458C120.184 122.342 121.508 121.457 122.965 120.853C124.422 120.249 125.983 119.938 127.561 119.938C129.138 119.938 130.699 120.249 132.156 120.853C133.613 121.457 134.937 122.342 136.052 123.458C137.166 124.574 138.05 125.898 138.653 127.356C139.255 128.813 139.565 130.375 139.563 131.952Z" fill="white"/>
</g>
<path d="M139.563 131.952C139.562 133.599 139.222 135.229 138.565 136.738C137.907 138.248 136.945 139.607 135.74 140.729C134.535 141.852 133.111 142.714 131.558 143.262C130.005 143.811 128.356 144.034 126.713 143.918C125.07 143.801 123.469 143.348 122.009 142.587C120.548 141.825 119.261 140.771 118.225 139.49C117.19 138.209 116.429 136.728 115.991 135.141C115.552 133.553 115.445 131.892 115.676 130.262C116.083 133.124 117.509 135.743 119.693 137.638C121.876 139.533 124.67 140.576 127.561 140.576C130.451 140.576 133.245 139.533 135.429 137.638C137.612 135.743 139.038 133.124 139.445 130.262C139.524 130.822 139.564 131.387 139.563 131.952Z" fill="#F89E1D"/>
<path d="M127.561 140.322C125.906 140.322 124.288 139.831 122.911 138.911C121.535 137.991 120.462 136.684 119.829 135.155C119.195 133.625 119.029 131.943 119.352 130.319C119.675 128.695 120.472 127.204 121.643 126.034C122.813 124.863 124.305 124.066 125.928 123.743C127.552 123.42 129.235 123.586 130.764 124.219C132.293 124.853 133.601 125.925 134.52 127.302C135.44 128.678 135.931 130.296 135.931 131.952C135.928 134.171 135.046 136.298 133.477 137.867C131.908 139.436 129.78 140.319 127.561 140.322Z" fill="#F9DD6A"/>
<g opacity="0.55">
<path opacity="0.55" d="M135.93 131.953C135.93 132.178 135.92 132.402 135.903 132.622C135.735 130.524 134.784 128.567 133.238 127.14C131.692 125.713 129.665 124.92 127.561 124.92C125.456 124.92 123.43 125.713 121.884 127.14C120.338 128.567 119.386 130.524 119.218 132.622C119.201 132.402 119.191 132.178 119.191 131.953C119.19 130.853 119.406 129.763 119.826 128.747C120.246 127.731 120.862 126.807 121.639 126.029C122.417 125.251 123.34 124.633 124.356 124.212C125.372 123.791 126.461 123.574 127.561 123.574C128.66 123.574 129.749 123.791 130.765 124.212C131.781 124.633 132.704 125.251 133.482 126.029C134.259 126.807 134.875 127.731 135.295 128.747C135.715 129.763 135.931 130.853 135.93 131.953Z" fill="white"/>
</g>
<path d="M130.55 133.787C130.55 134.363 130.356 134.922 129.998 135.374C129.641 135.825 129.141 136.142 128.58 136.274V137.607H126.882V136.482C126.083 136.475 125.295 136.295 124.571 135.956L124.971 134.33C125.648 134.673 126.394 134.858 127.153 134.872C128.058 134.872 128.534 134.497 128.534 133.929C128.534 133.388 128.121 133.078 127.075 132.703C125.629 132.2 124.686 131.399 124.686 130.132C124.699 129.524 124.926 128.94 125.328 128.482C125.729 128.025 126.28 127.725 126.882 127.635V126.298H128.58V127.541C129.139 127.586 129.687 127.724 130.2 127.95L129.762 129.54C129.194 129.265 128.572 129.124 127.941 129.127C127.088 129.127 126.675 129.513 126.675 129.966C126.675 130.521 127.167 130.766 128.289 131.192C129.827 131.76 130.55 132.561 130.55 133.787Z" fill="#371A45"/>
<g opacity="0.27">
<path opacity="0.27" d="M135.76 123.184L117.683 138.771C116.348 136.845 115.61 134.569 115.562 132.226L129.601 120.122C131.91 120.518 134.051 121.582 135.76 123.184Z" fill="#FCE5E5"/>
</g>
<g opacity="0.27">
<path opacity="0.27" d="M138.481 126.963L121.626 142.283C120.597 141.802 119.675 141.12 118.914 140.278L137.07 124.626C137.728 125.275 138.213 126.078 138.481 126.963Z" fill="#FCE5E5"/>
</g>
<path d="M127.561 140.896C125.792 140.896 124.063 140.371 122.592 139.388C121.121 138.406 119.975 137.009 119.298 135.375C118.621 133.741 118.444 131.942 118.789 130.207C119.134 128.473 119.986 126.879 121.237 125.628C122.487 124.378 124.081 123.526 125.816 123.181C127.551 122.836 129.349 123.013 130.983 123.69C132.617 124.366 134.014 125.513 134.997 126.983C135.979 128.454 136.504 130.183 136.504 131.952C136.501 134.323 135.558 136.596 133.882 138.273C132.205 139.95 129.932 140.893 127.561 140.896ZM127.561 124.156C126.019 124.156 124.511 124.613 123.229 125.47C121.947 126.327 120.948 127.544 120.358 128.969C119.768 130.393 119.613 131.961 119.914 133.473C120.215 134.985 120.958 136.374 122.048 137.465C123.138 138.555 124.527 139.298 126.04 139.598C127.552 139.899 129.119 139.745 130.544 139.155C131.968 138.565 133.186 137.565 134.043 136.283C134.899 135.001 135.356 133.494 135.356 131.952C135.354 129.885 134.532 127.904 133.071 126.442C131.609 124.981 129.627 124.159 127.561 124.156Z" fill="#371A45"/>
<path d="M127.561 144.697C125.562 144.703 123.591 144.234 121.81 143.328C120.532 142.681 119.373 141.824 118.381 140.793C116.164 138.49 114.893 135.438 114.82 132.243C114.818 132.142 114.816 132.048 114.816 131.953C114.816 129.468 115.542 127.038 116.904 124.96C118.267 122.883 120.207 121.249 122.487 120.26C124.766 119.271 127.284 118.969 129.733 119.392C132.181 119.816 134.452 120.946 136.266 122.643C136.769 123.115 137.234 123.627 137.656 124.172C139.376 126.401 140.308 129.138 140.305 131.953C140.301 135.332 138.957 138.571 136.568 140.96C134.179 143.35 130.94 144.693 127.561 144.697ZM127.561 120.69C124.575 120.693 121.712 121.881 119.601 123.993C117.49 126.104 116.302 128.967 116.299 131.953C116.299 132.038 116.301 132.121 116.303 132.206C116.343 133.986 116.804 135.73 117.649 137.297C118.493 138.864 119.697 140.209 121.162 141.221C122.627 142.232 124.31 142.882 126.075 143.117C127.839 143.353 129.634 143.166 131.313 142.573C132.991 141.981 134.505 140.998 135.731 139.707C136.956 138.416 137.858 136.853 138.363 135.146C138.867 133.439 138.96 131.636 138.633 129.886C138.307 128.137 137.57 126.489 136.483 125.079C136.109 124.596 135.697 124.143 135.252 123.725C133.167 121.773 130.417 120.688 127.561 120.69V120.69Z" fill="#371A45"/>
<path d="M148.369 142.255L144.612 143.186C144.185 143.292 143.733 143.23 143.35 143.013C142.967 142.797 142.681 142.442 142.551 142.021C142.542 141.992 142.533 141.958 142.526 141.928L137.183 120.374C137.074 119.93 137.144 119.462 137.38 119.07C137.616 118.679 137.998 118.397 138.441 118.287L142.198 117.356C142.641 117.246 143.11 117.317 143.501 117.553C143.893 117.789 144.174 118.17 144.284 118.614L149.627 140.168C149.737 140.612 149.666 141.081 149.43 141.472C149.194 141.863 148.813 142.145 148.369 142.255Z" fill="#F7C714"/>
<path d="M147.098 129.962L139.997 131.722L142.308 141.045L149.409 139.285L147.098 129.962Z" fill="#F89E1D"/>
<g opacity="0.55">
<path opacity="0.55" d="M144.564 119.737L137.463 121.497L138.585 126.026L145.686 124.266L144.564 119.737Z" fill="#FCE5E5"/>
</g>
<path d="M144.195 143.978C143.646 143.977 143.112 143.792 142.679 143.452C142.247 143.113 141.94 142.639 141.808 142.106L136.465 120.553C136.309 119.918 136.41 119.248 136.748 118.688C137.085 118.129 137.63 117.726 138.264 117.568L142.02 116.637C142.655 116.48 143.326 116.581 143.886 116.918C144.445 117.256 144.848 117.802 145.005 118.436L150.348 139.989C150.504 140.623 150.403 141.294 150.065 141.853C149.728 142.413 149.183 142.816 148.549 142.974L144.793 143.905C144.597 143.953 144.397 143.978 144.195 143.978ZM142.615 118.047C142.535 118.047 142.455 118.057 142.377 118.076L138.621 119.007C138.369 119.07 138.151 119.231 138.017 119.453C137.883 119.676 137.842 119.943 137.905 120.196L143.247 141.749C143.278 141.874 143.333 141.992 143.41 142.096C143.486 142.199 143.583 142.287 143.693 142.353C143.803 142.42 143.926 142.464 144.053 142.483C144.181 142.503 144.311 142.497 144.436 142.465L148.192 141.535C148.444 141.472 148.662 141.311 148.796 141.088C148.93 140.865 148.971 140.598 148.908 140.346L143.566 118.793C143.513 118.58 143.391 118.391 143.219 118.256C143.047 118.121 142.834 118.048 142.615 118.047Z" fill="#371A45"/>
<path d="M65.4057 77.8877C65.3502 77.8877 65.2951 77.8802 65.2416 77.8656C65.0699 77.8182 61.031 76.6664 60.7662 73.0045C60.677 71.7648 61.0405 70.5348 61.7892 69.5426C62.5378 68.5504 63.6209 67.8634 64.8375 67.609C65.1491 67.5445 65.4664 67.5116 65.7846 67.5107C67.8061 67.5107 69.4766 68.832 70.7492 71.4379C70.8158 71.5744 70.8298 71.7306 70.7886 71.8768C70.7474 72.0229 70.6538 72.1488 70.5257 72.2304C68.5653 73.5498 66.9946 75.3709 65.9774 77.5038C65.9309 77.6173 65.8518 77.7144 65.75 77.7828C65.6481 77.8511 65.5283 77.8877 65.4057 77.8877Z" fill="#FF6CA8"/>
<path d="M65.7851 68.1283C67.2169 68.1282 68.8402 68.9359 70.1944 71.7087C68.124 73.0942 66.4689 75.0163 65.406 77.2695C65.406 77.2695 61.6194 76.2282 61.383 72.9597C61.3073 71.8701 61.6277 70.7898 62.2854 69.9178C62.943 69.0458 63.8935 68.4407 64.962 68.214C65.2327 68.1577 65.5085 68.129 65.7851 68.1283ZM65.7851 66.8926C65.4252 66.8934 65.0664 66.9306 64.714 67.0034C63.3506 67.2882 62.1367 68.0579 61.2975 69.1696C60.4584 70.2813 60.0508 71.6595 60.1505 73.0488C60.4464 77.1411 64.8894 78.409 65.0784 78.4609C65.3697 78.5413 65.6804 78.5121 65.9516 78.3787C66.2228 78.2454 66.4357 78.0172 66.5498 77.7373C67.5176 75.7214 69.0054 73.9999 70.8597 72.75C71.115 72.5864 71.3013 72.3348 71.3834 72.0428C71.4654 71.7509 71.4374 71.4391 71.3048 71.1664C69.5797 67.634 67.351 66.8926 65.7851 66.8926Z" fill="#371A45"/>
<g opacity="0.3">
<path opacity="0.3" d="M70.1944 71.7084C68.1239 73.0939 66.4688 75.016 65.406 77.2692C65.406 77.2692 61.6193 76.2278 61.383 72.9594C61.3073 71.8699 61.6277 70.7896 62.2853 69.9176C62.943 69.0455 63.8935 68.4404 64.9619 68.2137C66.5645 67.8854 68.5725 68.3874 70.1944 71.7084Z" fill="#371A45"/>
</g>
<g opacity="0.3">
<path opacity="0.3" d="M62.3715 74.1951C62.2958 73.1055 62.6163 72.0253 63.2739 71.1532C63.9316 70.2812 64.8821 69.6761 65.9505 69.4493C66.6015 69.3099 67.2775 69.342 67.9122 69.5426C68.5469 69.7433 69.1186 70.1054 69.5712 70.5937C68.078 68.2752 66.3647 67.9264 64.962 68.2137C63.8935 68.4404 62.943 69.0455 62.2854 69.9175C61.6277 70.7896 61.3073 71.8698 61.383 72.9594C61.4714 74.0765 61.9992 75.1129 62.8505 75.8414C62.5745 75.3334 62.4112 74.7719 62.3715 74.1951Z" fill="#371A45"/>
</g>
<path d="M64.9372 80.0622C64.9269 79.9169 64.9288 79.771 64.943 79.626C64.9551 79.4868 64.9717 79.3487 64.9964 79.2166C65.0419 78.9469 65.1067 78.6862 65.1773 78.4249C65.2569 78.1685 65.3356 77.9103 65.4305 77.6584C65.5347 77.4117 65.6282 77.1579 65.7432 76.9148C66.1979 75.9331 66.7908 75.0216 67.5039 74.208C67.6744 73.9976 67.8769 73.8135 68.0619 73.6157C68.2509 73.4203 68.4518 73.2369 68.6637 73.0666C69.0744 72.7103 69.5135 72.3883 69.9768 72.1038C70.9046 71.5471 71.9263 71.1649 72.9916 70.9758C73.0404 70.9672 73.0907 70.9764 73.1333 71.0018C73.176 71.0271 73.2081 71.0669 73.2239 71.1139C73.2397 71.1609 73.2382 71.212 73.2196 71.2579C73.2009 71.3039 73.1664 71.3416 73.1224 71.3643L73.1115 71.3698C72.2108 71.8124 71.3538 72.3389 70.5519 72.9423C70.3579 73.0955 70.1751 73.2637 69.987 73.4221C69.7961 73.5781 69.6145 73.7452 69.4432 73.9224C69.2629 74.0905 69.0912 74.2676 68.9288 74.4531C68.7658 74.6385 68.5914 74.8126 68.4374 75.0062C67.8026 75.7703 67.2261 76.581 66.7129 77.4316C66.4481 77.8557 66.2045 78.2936 65.9665 78.7369C65.8562 78.961 65.7303 79.1823 65.6313 79.4105C65.5723 79.5239 65.5233 79.6363 65.4777 79.7498C65.4209 79.8678 65.3917 79.9677 65.3487 80.0777L65.3305 80.1244C65.3136 80.1677 65.2824 80.2039 65.2421 80.227C65.2017 80.2502 65.1547 80.2588 65.1088 80.2516C65.0629 80.2443 65.0208 80.2216 64.9896 80.1871C64.9584 80.1527 64.9399 80.1086 64.9371 80.0622L64.9372 80.0622Z" fill="#371A45"/>
<path d="M123.635 77.8878C123.513 77.8877 123.393 77.8511 123.291 77.7828C123.189 77.7144 123.11 77.6173 123.064 77.5038C122.046 75.3707 120.476 73.5495 118.515 72.23C118.387 72.1483 118.294 72.0224 118.253 71.8764C118.212 71.7303 118.226 71.5743 118.292 71.4379C119.565 68.832 121.235 67.5107 123.257 67.5107C123.575 67.5116 123.892 67.5445 124.204 67.609C125.42 67.8634 126.503 68.5504 127.252 69.5426C128.001 70.5348 128.364 71.7649 128.275 73.0046C128.01 76.6664 123.971 77.8182 123.799 77.8655C123.746 77.8802 123.691 77.8877 123.635 77.8878Z" fill="#FF6CA8"/>
<path d="M123.256 68.1283C123.533 68.129 123.809 68.1577 124.08 68.214C125.148 68.4407 126.099 69.0458 126.756 69.9178C127.414 70.7898 127.734 71.8701 127.658 72.9597C127.422 76.2282 123.635 77.2695 123.635 77.2695C122.573 75.0163 120.918 73.0942 118.847 71.7087C120.201 68.9359 121.825 68.1283 123.256 68.1283H123.256ZM123.256 66.8926C121.691 66.8926 119.462 67.634 117.737 71.1664C117.603 71.4393 117.575 71.7518 117.658 72.0441C117.74 72.3364 117.927 72.5882 118.184 72.7513C120.037 74.0009 121.524 75.722 122.492 77.7373C122.606 78.0172 122.819 78.2454 123.09 78.3787C123.361 78.5121 123.672 78.5413 123.963 78.4609C124.152 78.409 128.595 77.1411 128.891 73.0488C128.991 71.6595 128.583 70.2812 127.744 69.1695C126.905 68.0578 125.691 67.2882 124.327 67.0034C123.975 66.9306 123.616 66.8934 123.256 66.8926Z" fill="#371A45"/>
<g opacity="0.3">
<path opacity="0.3" d="M118.847 71.7084C120.917 73.0939 122.572 75.016 123.635 77.2692C123.635 77.2692 127.422 76.2278 127.658 72.9594C127.734 71.8699 127.413 70.7896 126.756 69.9176C126.098 69.0455 125.148 68.4404 124.079 68.2137C122.477 67.8854 120.469 68.3874 118.847 71.7084Z" fill="#371A45"/>
</g>
<path d="M123.693 80.0777C123.65 79.9677 123.62 79.8677 123.564 79.7498C123.518 79.6363 123.469 79.5239 123.41 79.4105C123.311 79.1823 123.185 78.961 123.075 78.7369C122.837 78.2936 122.593 77.8557 122.328 77.4316C121.815 76.581 121.239 75.7703 120.604 75.0062C120.45 74.8126 120.276 74.6385 120.113 74.4531C119.95 74.2676 119.778 74.0905 119.598 73.9224C119.427 73.7452 119.245 73.5781 119.054 73.4221C118.866 73.2637 118.683 73.0955 118.489 72.9423C117.688 72.3389 116.831 71.8124 115.93 71.3698L115.919 71.3644C115.875 71.3418 115.841 71.304 115.822 71.2581C115.803 71.2121 115.802 71.161 115.817 71.114C115.833 71.067 115.865 71.0271 115.908 71.0018C115.951 70.9764 116.001 70.9672 116.05 70.9758C117.115 71.1649 118.137 71.5471 119.065 72.1038C119.528 72.3883 119.967 72.7103 120.378 73.0666C120.59 73.2369 120.791 73.4203 120.979 73.6157C121.165 73.8135 121.367 73.9976 121.538 74.208C122.251 75.0216 122.844 75.9331 123.298 76.9148C123.413 77.1579 123.507 77.4117 123.611 77.6584C123.706 77.9103 123.784 78.1685 123.864 78.4249C123.935 78.6862 123.999 78.9469 124.045 79.2166C124.07 79.3487 124.086 79.4868 124.098 79.626C124.113 79.771 124.115 79.9169 124.104 80.0622C124.101 80.1086 124.083 80.1527 124.052 80.1871C124.021 80.2216 123.979 80.2443 123.933 80.2516C123.887 80.2589 123.84 80.2502 123.799 80.2272C123.759 80.2041 123.728 80.1679 123.711 80.1246L123.693 80.0777Z" fill="#371A45"/>
<path d="M80.6807 90.5918C83.2792 90.5918 85.3858 88.4853 85.3858 85.8867C85.3858 83.2882 83.2792 81.1816 80.6807 81.1816C78.0821 81.1816 75.9756 83.2882 75.9756 85.8867C75.9756 88.4853 78.0821 90.5918 80.6807 90.5918Z" fill="#371A45"/>
<path d="M81.4973 86.4214C82.2623 86.4214 82.8823 85.8013 82.8823 85.0364C82.8823 84.2715 82.2623 83.6514 81.4973 83.6514C80.7324 83.6514 80.1123 84.2715 80.1123 85.0364C80.1123 85.8013 80.7324 86.4214 81.4973 86.4214Z" fill="white"/>
<path d="M108.36 90.5918C110.959 90.5918 113.065 88.4853 113.065 85.8867C113.065 83.2882 110.959 81.1816 108.36 81.1816C105.762 81.1816 103.655 83.2882 103.655 85.8867C103.655 88.4853 105.762 90.5918 108.36 90.5918Z" fill="#371A45"/>
<path d="M107.543 86.4214C108.308 86.4214 108.928 85.8013 108.928 85.0364C108.928 84.2715 108.308 83.6514 107.543 83.6514C106.778 83.6514 106.158 84.2715 106.158 85.0364C106.158 85.8013 106.778 86.4214 107.543 86.4214Z" fill="white"/>
<g opacity="0.3">
<path opacity="0.3" d="M105.62 135.306C105.62 135.306 107.319 135.306 109.143 135.121C110.02 135.037 110.896 135.298 111.584 135.849C112.273 136.399 112.72 137.196 112.832 138.071C113.162 140.487 114.233 143.202 117.359 143.338L122.776 142.963C122.776 142.963 113.5 139.428 115.677 130.262L105.249 134.688L105.62 135.306Z" fill="#371A45"/>
</g>
</svg>
