<svg width="215" height="41" viewBox="0 0 215 41" fill="none" xmlns="http://www.w3.org/2000/svg">
<path d="M0.5 37.2012C4.9 35.4012 8.99995 32.8012 13.2 30.7012C18.6 27.9012 23.9 25.0012 29.2 22.2012C29.7 21.9012 30.1 21.6012 30.6 21.3012C31.7 20.6012 32 20.1012 30.5 19.3012C23.2 15.4012 16.1 11.4012 8.80005 7.60117C6.10005 6.10117 3.6 4.20117 0.5 3.40117C0.5 3.10117 0.5 2.80117 0.5 2.50117C1.3 1.90117 1.40002 1.00117 1.90002 0.201172C2.40002 0.201172 2.80005 0.201172 3.30005 0.201172C3.40005 1.50117 4.60005 1.20117 5.30005 1.70117C6.50005 2.60117 8.00005 3.20117 9.30005 3.90117C9.50005 4.00117 9.60005 4.20117 9.80005 4.30117C15.6 7.40117 21.4 10.5012 27.2 13.6012C28.9 14.5012 30.3 16.0012 32.4 16.1012C33.9 17.7012 36.1 18.2012 37.9 19.2012C39.5 20.1012 39.1 20.5012 37.9 21.3012C36.1 22.4012 34 23.0012 32.4 24.5012C31.6 24.8012 30.8 25.1012 30.1 25.5012C23.3 29.1012 16.5 32.8012 9.69995 36.4012C7.79995 38.0012 5.00005 38.4012 3.30005 40.5012C0.500049 40.5012 0.5 40.5012 0.5 37.2012Z" fill="#FFDE00"/>
<path d="M1.90008 0.200687C1.40008 1.00069 1.30005 2.00069 0.500053 2.50069C0.800053 1.60069 -0.499922 -0.199313 1.90008 0.200687Z" fill="#FFDE00"/>
<path d="M46.2002 6.80105C52.6002 7.00105 59.0003 5.90106 65.4003 7.10106C71.6003 8.30106 75.2003 12.4011 75.9003 18.9011C76.5003 24.7011 73.2002 30.7011 68.1002 33.0011C64.9002 34.4011 61.6002 35.0011 58.2002 34.7011C54.4002 34.4011 50.6002 34.4011 46.5002 34.2011C49.6002 33.8011 49.4003 31.6011 49.4003 29.6011C49.4003 23.4011 49.4002 17.1011 49.5002 10.9011C49.5002 8.50106 48.9002 7.00105 46.2002 6.80105ZM54.3003 19.8011C54.3003 23.0011 54.4003 26.3011 54.3003 29.5011C54.3003 30.6011 54.5002 31.7011 55.7002 32.2011C59.5002 33.8011 67.7003 33.1011 69.9003 27.4011C71.8003 22.5011 71.7003 17.5011 68.4003 13.1011C65.3003 8.90105 60.7003 8.10106 55.8003 8.40106C54.6003 8.50106 54.2003 9.00105 54.3003 10.1011C54.3003 13.4011 54.3003 16.6011 54.3003 19.8011Z" fill="#77787B"/>
<path d="M214.5 13.901C213.4 9.10104 209.8 8.10103 205.7 7.90103C199.3 7.60103 196 10.301 194.9 16.701C193.6 24.101 197.2 30.301 203.7 32.201C208.7 33.701 212.3 32.101 214.6 27.701C215.9 31.101 214.3 34.001 210.7 34.501C206.2 35.201 201.8 34.901 197.5 33.001C191.5 30.301 188.4 24.201 189.6 17.501C190.7 11.401 195.6 6.80104 201.9 6.10104C205.8 5.70104 209.6 6.00104 213.4 6.70104C214.1 6.80104 215 6.90103 214.9 8.00103C214.8 10.001 214.6 12.001 214.5 13.901Z" fill="#77787B"/>
<path d="M83.7002 6.60081C88.3002 6.60081 92.8003 6.60081 97.4003 6.60081C101.2 6.60081 101.2 6.50081 100.7 10.5008C100.7 10.9008 100.5 11.2008 100.4 11.7008C99.0003 9.10081 94.8003 7.60081 92.3003 8.60081C91.6003 8.90081 91.7002 9.40081 91.7002 9.90081C91.7002 12.3008 91.7002 14.7008 91.7002 17.1008C91.7002 18.2008 92.2002 18.6008 93.2002 18.6008C95.6002 18.5008 98.0003 18.8008 100.3 17.8008C100.6 19.7008 100.1 21.4008 99.9003 23.5008C99.0003 22.2008 98.9002 20.5008 97.0002 20.6008C95.5002 20.7008 94.1002 20.6008 92.6002 20.6008C91.7002 20.6008 91.7002 21.2008 91.7002 21.9008C91.7002 24.5008 91.7002 27.1008 91.7002 29.8008C91.7002 31.4008 92.5003 32.4008 94.3003 32.4008C95.1003 32.4008 96.0003 32.6008 96.8003 32.6008C99.1003 32.6008 101 31.8008 101.4 29.1008C102.1 29.8008 101.8 30.3008 101.8 30.8008C101.7 34.5008 101.6 34.6008 97.8003 34.6008C93.7003 34.6008 89.6002 34.6008 85.5002 34.5008C85.1002 34.5008 84.6002 34.8008 84.2002 34.0008C86.8002 33.8008 86.9003 32.0008 86.9003 30.1008C86.9003 23.8008 86.9003 17.6008 86.9003 11.3008C86.9003 8.80081 86.8002 6.80081 83.7002 6.60081Z" fill="#77787B"/>
<path d="M181.5 28.8003C181.6 29.4003 181.7 29.6003 181.7 29.8003C181.6 34.4003 181.6 34.4003 177 34.4003C172.7 34.4003 168.4 34.4003 164 34.1003C166.8 33.6003 166.7 31.7003 166.7 29.7003C166.7 23.4003 166.7 17.2003 166.7 10.9003C166.7 7.60032 166.6 7.60031 163.4 6.40031C164.2 6.40031 164.9 6.40031 165.7 6.40031C166.6 6.40031 167.4 6.50031 168.3 6.40031C172.1 6.30031 175.9 6.70032 179.6 6.10032C180.3 6.00032 180.7 6.20031 180.6 6.90031C180.5 8.40031 180.4 9.90032 180.1 11.4003C178.8 8.80032 174.9 7.30031 172 8.30031C171.3 8.60031 171.3 9.10031 171.3 9.60031C171.3 12.1003 171.3 14.5003 171.3 17.0003C171.3 18.0003 171.7 18.4003 172.7 18.4003C175.1 18.2003 177.5 18.5003 179.9 17.6003C180.2 19.5003 179.7 21.3003 179.6 23.3003C178.1 20.8003 175 19.7003 172.2 20.4003C171.5 20.6003 171.3 20.9003 171.4 21.5003C171.4 24.2003 171.4 26.9003 171.5 29.6003C171.5 31.2003 172.4 32.0003 174.1 32.2003C178.4 32.8003 179.7 32.4003 181.5 28.8003Z" fill="#77787B"/>
<path d="M156.4 11.6007C155.1 9.40068 149.8 7.60068 147.5 8.60068C146.6 9.00068 146.8 9.70068 146.9 10.4007C146.9 16.7007 146.9 23.1007 147.1 29.4007C147.2 33.1007 147.2 33.1007 150.8 34.1007C147.1 34.1007 143.4 34.1007 139.7 34.1007C142.4 33.7007 142.3 31.7007 142.3 29.8007C142.3 23.3007 142.3 16.8007 142.4 10.4007C142.4 9.00068 142 8.40068 140.6 8.60068C139.4 8.70068 138.1 8.80068 136.9 8.80068C135 8.80068 133.4 9.20068 132.5 11.8007C131.8 9.60068 132.4 8.00068 133 6.60068C133.3 5.90068 134.1 6.30068 134.7 6.40068C141.6 6.90068 148.4 6.90068 155.3 6.40068C156.7 6.30068 157.1 6.70068 157 8.00068C156.7 9.20068 156.8 10.4007 156.4 11.6007Z" fill="#77787B"/>
<path d="M129 28.7012C129.4 30.5012 129.1 31.9012 128.8 33.4012C128.6 34.2012 128 34.4012 127.2 34.4012C121.8 34.4012 116.4 34.3012 111 34.2012C110.9 34.2012 110.8 34.0012 110.6 33.7012C113.4 33.7012 113.4 31.8012 113.4 30.0012C113.4 23.6012 113.4 17.2012 113.5 10.8012C113.5 8.60117 113.1 7.00117 110.5 6.70117C114.1 6.70117 117.7 6.70117 121.3 6.70117C117.7 7.00117 118.3 9.70117 118.3 12.0012C118.3 17.6012 118.3 23.1012 118.4 28.7012C118.4 31.7012 118.8 32.0012 121.7 32.2012C121.9 32.2012 122.2 32.2012 122.4 32.2012C125.2 32.4012 128.1 32.7012 129 28.7012Z" fill="#77787B"/>
<path d="M32.3998 16.1008C30.2998 16.0008 28.8997 14.5008 27.1997 13.6008C21.3997 10.5008 15.5998 7.40078 9.7998 4.30078C9.5998 4.20078 9.4998 4.00078 9.2998 3.90078C16.4998 3.90078 23.7998 3.80078 30.9998 3.80078C32.2998 3.80078 32.4998 4.50078 32.3998 5.60078C32.3998 9.00078 32.3998 12.6008 32.3998 16.1008Z" fill="#77787B"/>
<path d="M9.59961 36.401C16.3996 32.801 23.1996 29.101 29.9996 25.501C30.6996 25.101 31.4997 24.801 32.2997 24.501C32.2997 28.001 32.2997 31.601 32.2997 35.101C32.2997 36.001 32.3996 36.801 31.0996 36.801C24.0996 36.801 17.0996 36.801 10.0996 36.701C9.99961 36.801 9.79961 36.601 9.59961 36.401Z" fill="#77787B"/>
</svg>
