<svg width="31" height="30" viewBox="0 0 31 30" fill="none" xmlns="http://www.w3.org/2000/svg">
<path d="M15.19 29.2401C23.0987 29.2401 29.51 22.8288 29.51 14.9201C29.51 7.01138 23.0987 0.600098 15.19 0.600098C7.28128 0.600098 0.869995 7.01138 0.869995 14.9201C0.869995 22.8288 7.28128 29.2401 15.19 29.2401Z" stroke="#300475" stroke-miterlimit="10"/>
<path d="M21.6 10.3999C20.9088 9.74101 20.0834 9.23956 19.1801 8.92988L18.25 8.62983C18.16 8.62983 18.0101 8.6299 18.0601 8.4499C18.1101 8.2699 18.13 8.16988 18.33 8.17988C18.6688 8.20986 19.0038 8.2737 19.33 8.37007C20.3308 8.6463 21.2753 9.09633 22.12 9.6999C22.3465 9.91041 22.5211 10.1706 22.63 10.4599C23.4284 12.057 23.991 13.7614 24.3001 15.52C24.4791 16.4928 24.6091 17.474 24.69 18.4599C24.7064 18.561 24.6967 18.6647 24.6617 18.7609C24.6266 18.8572 24.5675 18.943 24.49 19.01C23.3325 20.1715 21.825 20.9199 20.2 21.1398C19.43 21.2598 19.43 21.2498 18.97 20.6298C18.9456 20.5889 18.9153 20.552 18.88 20.52C18.74 20.37 18.79 20.2999 18.97 20.2399C20.0227 19.8428 20.9827 19.2335 21.7901 18.4499C21.8505 18.4062 21.8987 18.3477 21.9301 18.28C21.9501 18.2 21.8501 18.28 21.8101 18.28C19.8215 19.5612 17.4689 20.158 15.11 19.9799C13.2613 19.9394 11.4579 19.4003 9.89004 18.4199L9.62003 18.27L9.52005 18.2099H9.43997V18.27L9.52005 18.3601C10.3013 19.1855 11.2582 19.8245 12.32 20.2299L12.52 20.31C12.63 20.31 12.66 20.4 12.58 20.5L12.09 21.1499C12.02 21.2499 11.93 21.2499 11.82 21.2399C9.918 21.1343 8.12875 20.304 6.81998 18.9199C6.78767 18.8868 6.76231 18.8478 6.74515 18.8049C6.72799 18.762 6.71939 18.7161 6.72 18.6699C6.85491 15.8657 7.5342 13.1147 8.72 10.57C8.96097 10.0527 9.36023 9.6255 9.86002 9.35005C10.7862 8.8089 11.8025 8.43954 12.86 8.25996C12.9333 8.25508 13.0067 8.25508 13.08 8.25996C13.3 8.20996 13.36 8.37998 13.39 8.52998C13.42 8.67998 13.2601 8.67991 13.1701 8.70991C11.9379 9.01548 10.7984 9.61607 9.85001 10.4599C9.8999 10.4698 9.95131 10.4697 10.0011 10.4594C10.0509 10.4491 10.0982 10.4288 10.14 10.3999C11.2551 9.82089 12.4523 9.41624 13.69 9.1999C16.1615 8.76375 18.7076 9.11349 20.97 10.1999C21.15 10.2999 21.3401 10.3699 21.5301 10.4599C21.5357 10.4662 21.5426 10.4714 21.5503 10.4748C21.5581 10.4783 21.5665 10.48 21.575 10.4799C21.5835 10.48 21.5919 10.4783 21.5996 10.4748C21.6074 10.4714 21.6144 10.4662 21.62 10.4599L21.6 10.3999ZM14.51 15.3999C14.5233 15.2505 14.5027 15.1002 14.45 14.9599C14.3917 14.7073 14.269 14.4742 14.0938 14.2832C13.9185 14.0921 13.6966 13.9498 13.45 13.8701C13.2187 13.8031 12.973 13.8041 12.7423 13.8735C12.5117 13.9429 12.306 14.0775 12.1501 14.2609C11.8607 14.5896 11.701 15.0125 11.701 15.4504C11.701 15.8883 11.8607 16.3112 12.1501 16.6398C12.271 16.7883 12.4235 16.908 12.5965 16.9902C12.7694 17.0724 12.9586 17.1149 13.1501 17.1149C13.3415 17.1149 13.5307 17.0724 13.7036 16.9902C13.8766 16.908 14.0291 16.7883 14.1501 16.6398C14.4167 16.3036 14.5453 15.8785 14.51 15.4509V15.3999ZM16.97 15.52C16.9674 15.6761 16.9911 15.8316 17.0401 15.9799C17.0876 16.2097 17.1934 16.4234 17.3472 16.6005C17.501 16.7777 17.6978 16.9124 17.9186 16.9917C18.1394 17.0709 18.3769 17.0922 18.6083 17.0534C18.8397 17.0146 19.0572 16.917 19.24 16.77C19.5842 16.4608 19.7936 16.0292 19.8235 15.5676C19.8534 15.1059 19.7015 14.651 19.4001 14.3C19.2791 14.1516 19.1266 14.0318 18.9536 13.9497C18.7807 13.8675 18.5915 13.8249 18.4001 13.8249C18.2086 13.8249 18.0194 13.8675 17.8465 13.9497C17.6735 14.0318 17.521 14.1516 17.4001 14.3C17.1056 14.6546 16.9619 15.1106 17 15.57L16.97 15.52Z" fill="#300475"/>
</svg>
