<svg width="17" height="10" viewBox="0 0 17 10" fill="none" xmlns="http://www.w3.org/2000/svg">
<path fill-rule="evenodd" clip-rule="evenodd" d="M7.50989 9.0899C7.69171 9.24751 7.92429 9.33427 8.16492 9.33427C8.40554 9.33427 8.63812 9.24751 8.81995 9.0899L15.97 2.0899C16.0123 2.04805 16.0458 1.99822 16.0687 1.94329C16.0917 1.88836 16.1035 1.82942 16.1035 1.7699C16.1035 1.71037 16.0917 1.65144 16.0687 1.59651C16.0458 1.54158 16.0123 1.49175 15.97 1.4499L15.3099 0.809898C15.2237 0.723796 15.1067 0.675438 14.9849 0.675438C14.863 0.675438 14.7462 0.723796 14.6599 0.809898H1.65991C1.57197 0.723179 1.45347 0.674561 1.32996 0.674561C1.20645 0.674561 1.08782 0.723179 0.999878 0.809898L0.339966 1.4499C0.297637 1.49175 0.264024 1.54158 0.241089 1.59651C0.218154 1.65144 0.206299 1.71037 0.206299 1.7699C0.206299 1.82942 0.218154 1.88836 0.241089 1.94329C0.264024 1.99822 0.297637 2.04805 0.339966 2.0899L7.50989 9.0899Z" fill="#00A1D4"/>
</svg>
