<svg width="161" height="77" viewBox="0 0 161 77" fill="none" xmlns="http://www.w3.org/2000/svg">
<path d="M131.184 31.4992C133.684 29.0992 136.184 26.6992 138.784 24.2992C140.784 26.1992 142.684 27.9992 144.684 29.9992C143.784 30.7992 142.884 31.4992 141.984 32.3992C140.884 31.3992 139.884 30.4992 138.784 29.4992C137.184 30.9992 135.684 32.3992 133.984 33.8992C135.484 35.1992 136.984 36.4992 138.384 37.5992C138.584 37.6992 139.184 37.4992 139.484 37.2992C144.884 32.7992 150.284 28.1992 155.584 23.6992C157.084 22.4992 158.484 21.1992 160.284 19.6992C160.084 21.0992 159.884 22.0992 159.684 23.0992C158.484 29.8992 157.184 36.5992 155.984 43.3992C155.784 44.2992 155.484 44.5992 154.584 44.5992C143.984 44.5992 133.384 44.5992 122.784 44.5992C122.084 44.5992 121.684 44.4992 121.484 43.6992C120.084 35.9992 118.684 28.3992 117.284 20.6992C117.284 20.5992 117.284 20.3992 117.284 19.9992C122.084 23.7992 126.584 27.5992 131.184 31.4992ZM129.984 37.2992C128.384 38.7992 126.884 40.0992 125.284 41.5992C129.784 41.5992 133.984 41.5992 138.484 41.5992C133.184 37.2992 128.084 33.0992 122.684 28.7992C123.184 32.0992 123.584 34.9992 124.084 38.1992C125.284 37.0992 126.184 36.1992 127.284 35.1992C128.184 35.8992 129.084 36.5992 129.984 37.2992ZM152.184 41.5992C150.484 39.9992 148.984 38.6992 147.484 37.2992C148.384 36.5992 149.284 35.8992 150.184 35.1992C151.284 36.1992 152.284 37.0992 153.484 38.2992C153.984 35.0992 154.384 32.0992 154.784 29.0992C154.684 29.0992 154.584 28.9992 154.484 28.9992C149.384 33.0992 144.284 37.2992 138.984 41.5992C143.484 41.5992 147.584 41.5992 152.184 41.5992Z" fill="black"/>
<path d="M22.7849 67.9987C22.7849 65.5987 22.7849 63.1988 22.7849 60.7988C22.7849 59.4988 22.7849 58.2988 22.7849 56.9988C22.7849 56.2988 23.085 56.0988 23.685 56.0988C27.085 55.8988 27.085 55.8987 27.085 59.1987C27.085 64.3987 27.085 69.4987 27.085 74.6987C27.085 75.6987 26.7849 75.8988 25.7849 75.9988C23.6849 76.1988 22.385 75.4988 21.185 73.7988C18.985 70.3988 16.385 67.1987 13.985 63.8987C13.885 63.7987 13.7849 63.5988 13.3849 63.2988C13.3849 64.7988 13.3849 65.9988 13.3849 67.0988C13.3849 69.6988 13.3849 72.2987 13.3849 74.8987C13.3849 75.6987 13.1849 75.9988 12.2849 75.9988C9.08494 76.0988 9.08496 76.0987 9.08496 72.8987C9.08496 67.7987 9.08496 62.5988 9.08496 57.4988C9.08496 56.3988 9.28495 56.0988 10.485 55.9988C12.685 55.7988 14.0849 56.5987 15.2849 58.3987C17.4849 61.6987 19.9849 64.7987 22.2849 67.9987C22.5849 68.0988 22.6849 68.0988 22.7849 67.9987Z" fill="black"/>
<path d="M1.78418 10.6C1.78418 7.60001 1.78418 4.7 1.78418 1.7C1.78418 0.799997 2.08419 0.5 2.98419 0.5C5.48419 0.6 7.88419 0.500006 10.3842 0.600006C15.1842 0.800006 18.8842 3.6 19.8842 7.7C21.5842 14.4 17.4842 20.1 10.5842 20.5C7.9842 20.6 5.38418 20.5 2.78418 20.6C1.98418 20.6 1.78418 20.2 1.78418 19.5C1.78418 16.5 1.78418 13.6 1.78418 10.6ZM6.0842 16.9C7.8842 16.8 9.4842 16.9 11.1842 16.6C13.5842 16.2 15.3842 14.2 15.7842 11.6C16.1842 8.80001 14.9842 6.20001 12.7842 5.10001C10.6842 4.00001 8.3842 4.5 6.1842 4.5C6.0842 8.6 6.0842 12.6 6.0842 16.9Z" fill="#FAA747"/>
<path d="M133.785 68.5995C135.285 71.0995 136.685 73.3995 138.185 76.0995C136.485 76.0995 134.985 76.0995 133.485 76.0995C133.285 76.0995 132.985 75.5995 132.785 75.2995C131.785 73.4995 130.785 71.5995 129.685 69.7995C129.285 69.0995 127.085 68.6994 126.585 69.1994C126.385 69.3994 126.385 69.7995 126.385 70.0995C126.385 71.6995 126.385 73.2994 126.385 74.9994C126.385 75.8994 126.185 76.1994 125.285 76.1994C122.085 76.1994 122.085 76.2995 122.085 73.0995C122.085 67.8995 122.085 62.6994 122.085 57.4994C122.085 56.4994 122.385 56.1995 123.285 56.2995C126.085 56.3995 128.985 56.2995 131.785 56.2995C136.585 56.4995 139.385 60.6994 137.685 65.1994C136.985 66.7994 135.585 67.7995 133.785 68.5995ZM126.385 65.1994C128.085 65.1994 129.685 65.2994 131.285 65.1994C132.685 65.0994 133.485 64.0995 133.585 62.7995C133.685 61.4995 132.985 60.3994 131.685 60.1994C129.985 59.9994 128.185 60.1994 126.385 60.1994C126.385 61.7994 126.385 63.3994 126.385 65.1994Z" fill="black"/>
<path d="M109.284 55.7988C115.284 55.7988 119.684 60.0988 119.684 65.9988C119.684 71.9988 115.384 76.3988 109.284 76.3988C103.284 76.3988 98.7842 71.9988 98.7842 65.9988C98.7842 60.0988 103.184 55.8988 109.284 55.7988ZM109.284 59.6988C105.784 59.6988 103.284 62.3988 103.284 66.1988C103.284 69.9988 105.784 72.5988 109.284 72.5988C112.784 72.5988 115.284 69.9988 115.284 66.1988C115.284 62.3988 112.784 59.6988 109.284 59.6988Z" fill="black"/>
<path d="M21.6846 28.4995C25.1846 28.4995 28.5846 28.3995 31.9846 28.4995C34.9846 28.6995 37.1846 30.8995 37.5846 33.6995C38.0846 36.9995 36.7845 39.2995 33.7845 40.5995C33.6845 40.5995 33.5846 40.6995 33.3846 40.8995C34.7846 43.2995 36.1845 45.6995 37.7845 48.3995C36.0845 48.3995 34.6845 48.4995 33.2845 48.3995C32.9845 48.3995 32.5846 47.8995 32.3846 47.5995C31.3846 45.7995 30.3846 43.9995 29.3846 42.1995C28.9846 41.4995 26.7846 40.9995 26.1846 41.4995C25.9846 41.6995 25.9846 42.0995 25.9846 42.3995C25.9846 44.0995 25.9846 45.7995 25.9846 47.4995C25.9846 48.1995 25.7846 48.4995 24.9846 48.4995C23.8846 48.4995 22.7846 48.4995 21.6846 48.4995C21.6846 41.6995 21.6846 35.1995 21.6846 28.4995ZM25.9846 32.1995C25.9846 33.9995 25.9846 35.6995 25.9846 37.3995C27.5846 37.3995 28.9846 37.3995 30.4846 37.3995C32.0846 37.3995 33.1846 36.3995 33.1846 34.8995C33.2846 33.3995 32.2846 32.2995 30.6846 32.1995C29.1846 32.1995 27.6846 32.1995 25.9846 32.1995Z" fill="black"/>
<path d="M101.585 48.6996C95.4846 48.6996 91.1846 44.2996 91.1846 38.2996C91.2846 32.2996 95.6845 28.0996 101.785 28.0996C107.785 28.0996 112.085 32.5996 112.085 38.4996C112.085 44.4996 107.585 48.7996 101.585 48.6996ZM107.585 38.5996C107.685 34.7996 105.185 31.9996 101.685 31.9996C98.1846 31.8996 95.6846 34.5996 95.5846 38.2996C95.4846 41.9996 97.9846 44.8996 101.485 44.9996C104.985 44.9996 107.585 42.2996 107.585 38.5996Z" fill="black"/>
<path d="M79.585 10.3999C79.585 7.49994 79.585 4.59995 79.585 1.69995C79.585 0.899946 79.885 0.599955 80.685 0.599955C83.885 0.599955 83.8849 0.499946 83.8849 3.69995C83.8849 4.99995 83.8849 6.19995 83.8849 7.49995C83.8849 8.19995 84.1849 8.49995 84.8849 8.49995C87.2849 8.49995 89.785 8.49995 92.185 8.49995C92.885 8.49995 93.185 8.19995 93.185 7.49995C93.185 5.59995 93.185 3.69995 93.185 1.79995C93.185 0.999952 93.3849 0.699946 94.2849 0.699946C97.5849 0.599946 97.585 0.599943 97.585 3.89994C97.585 8.99994 97.585 14.2 97.585 19.3C97.585 20.4 97.385 20.8 96.185 20.8C93.185 20.7 93.185 20.8 93.185 17.8C93.185 16.3 93.185 14.8999 93.185 13.3999C93.185 12.5999 92.985 12.3 92.185 12.3C89.785 12.3 87.2849 12.3 84.8849 12.3C84.1849 12.3 83.8849 12.6 83.8849 13.3C83.8849 15.4 83.8849 17.3999 83.8849 19.4999C83.8849 20.2999 83.6849 20.6999 82.7849 20.6999C79.5849 20.7999 79.585 20.8 79.585 17.6C79.585 15.1 79.585 12.7999 79.585 10.3999Z" fill="#FAA747"/>
<path d="M152.785 61.8989C150.985 60.3989 149.085 59.6989 146.985 59.7989C146.585 59.7989 145.985 59.7989 145.685 59.9989C145.185 60.3989 144.485 60.8989 144.385 61.4989C144.285 61.8989 144.985 62.6989 145.485 62.9989C146.285 63.3989 147.185 63.4989 147.985 63.7989C149.485 64.2989 151.085 64.5989 152.485 65.2989C157.085 67.2989 156.085 73.1989 153.085 75.1989C149.485 77.4989 142.585 76.8989 139.585 73.8989C139.385 73.6989 139.285 73.1989 139.385 72.9989C139.985 71.9989 140.685 71.0989 141.385 70.0989C142.985 71.4989 144.685 72.5989 146.785 72.6989C147.885 72.6989 149.085 72.5989 150.085 72.1989C150.585 71.9989 151.085 71.1989 151.085 70.5989C151.085 70.0989 150.485 69.3989 149.985 69.1989C148.685 68.6989 147.185 68.3989 145.785 67.9989C144.785 67.6989 143.885 67.3989 142.885 66.9989C140.885 66.0989 139.785 64.5989 139.685 62.3989C139.585 60.0989 140.585 58.3989 142.485 57.1989C144.685 55.7989 147.085 55.7989 149.485 56.1989C151.485 56.4989 153.385 57.2989 154.985 58.7989C154.385 59.6989 153.585 60.6989 152.785 61.8989Z" fill="black"/>
<path d="M81.4842 58.6987C80.6842 59.6987 79.9842 60.6987 79.2842 61.5987C77.7842 60.9987 76.3842 60.2987 74.9842 59.8987C74.1842 59.6987 73.2842 59.6987 72.4842 59.7987C71.5842 59.8987 70.6842 60.2987 70.5842 61.3987C70.4842 62.4987 71.2842 62.8987 72.0842 63.0987C73.5842 63.5987 75.0842 63.8987 76.4842 64.2987C77.1842 64.4987 77.8842 64.6987 78.4842 64.9987C80.5842 65.9987 81.7842 67.4987 81.7842 69.8987C81.7842 72.2987 80.7842 74.1987 78.5842 75.2987C74.6842 77.3987 68.4842 76.3987 65.2842 73.0987C65.9842 72.0987 66.7842 70.9987 67.5842 69.7987C69.1842 71.1987 70.8842 72.2987 72.9842 72.3987C73.9842 72.3987 75.0842 72.3987 76.0842 71.9987C76.5842 71.7987 77.2842 70.9987 77.2842 70.3987C77.2842 69.8987 76.5842 69.0987 76.0842 68.8987C74.7842 68.3987 73.3842 68.0987 71.9842 67.6987C70.9842 67.3987 69.9842 67.0987 68.9842 66.6987C65.1842 64.7987 64.8842 59.6987 68.3842 57.2987C72.1842 54.8987 78.3842 55.4987 81.4842 58.6987Z" fill="black"/>
<path d="M54.6846 59.9992C54.5846 60.1992 54.4846 60.1992 54.4846 60.2992C53.9846 64.0992 53.9845 64.0992 57.7845 64.0992C59.4845 64.0992 61.1846 64.0992 62.8846 64.0992C63.7846 64.0992 64.0846 64.3992 64.0846 65.2992C64.0846 67.8992 64.0846 67.8992 61.4846 67.8992C59.4846 67.8992 57.4846 67.8992 55.5846 67.8992C54.7846 67.8992 54.4846 68.0992 54.4846 68.8992C54.3846 72.3992 54.3846 72.3992 57.8846 72.3992C59.6846 72.3992 61.4846 72.3992 63.3846 72.3992C64.0846 72.3992 64.3846 72.5992 64.3846 73.3992C64.2846 76.8992 64.7846 76.1992 61.6846 76.1992C58.2846 76.1992 54.7846 76.1992 51.3846 76.1992C50.4846 76.1992 50.1846 75.9992 50.1846 74.9992C50.1846 69.0992 50.1846 63.1992 50.1846 57.2992C50.1846 56.4992 50.3845 56.1992 51.2845 56.1992C55.2845 56.1992 59.2845 56.1992 63.2845 56.1992C64.0845 56.1992 64.2846 56.4992 64.3846 57.2992C64.4846 60.0992 64.4846 60.0992 61.6846 60.0992C59.2846 59.9992 56.9846 59.9992 54.6846 59.9992Z" fill="black"/>
<path d="M36.0845 0.599798C37.3845 0.599798 38.5845 0.599798 39.7845 0.599798C40.0845 0.599798 40.4845 1.09979 40.4845 1.29979C40.4845 5.49979 40.6845 9.79979 40.3845 13.9998C40.1845 17.2998 38.1845 19.4998 34.9845 20.3998C32.7845 20.9998 30.4845 20.9998 28.2845 20.3998C24.7845 19.3998 22.6845 16.7998 22.5845 12.9998C22.4845 9.19979 22.5845 5.29979 22.5845 1.49979C22.5845 0.799792 22.7845 0.499791 23.5845 0.499791C26.9845 0.399791 26.9845 0.399794 26.9845 3.79979C26.9845 6.59979 26.9845 9.39979 26.9845 12.1998C26.9845 15.9998 30.0845 18.0998 33.6845 16.6998C35.5845 15.9998 36.2845 14.3998 36.2845 12.5998C36.2845 9.0998 36.2845 5.69979 36.2845 2.19979C36.0845 1.69979 36.0845 1.2998 36.0845 0.599798Z" fill="#FAA747"/>
<path d="M62.4845 48.4C61.1845 48.4 60.1845 48.4 59.1845 48.4C58.3845 48.4 58.1845 48.1 58.2845 47.4C58.2845 44.7 58.2845 42 58.2845 39.3C58.2845 36.1 58.2845 32.8 58.2845 29.6C58.2845 28.8 58.5845 28.5 59.3845 28.5C62.2845 28.5 65.0845 28.5 67.9845 28.5C71.5845 28.6 74.1845 31.1 74.2845 34.6C74.3845 38.2 72.0845 40.9 68.4845 41.2C66.8845 41.3 65.2845 41.3 63.7845 41.2C62.7845 41.2 62.4845 41.5 62.5845 42.5C62.4845 44.4 62.4845 46.3 62.4845 48.4ZM62.4845 37.4C64.0845 37.4 65.5845 37.4 66.9845 37.4C68.6845 37.4 69.7845 36.4 69.7845 34.9C69.7845 33.5 68.8845 32.4 67.1845 32.2C65.8845 32.1 64.4845 32.1 63.1845 32.2C62.8845 32.2 62.4845 32.5 62.4845 32.7C62.4845 34.3 62.4845 35.8 62.4845 37.4Z" fill="black"/>
<path d="M28.3848 56.1996C29.9848 56.1996 31.2848 56.0996 32.6848 56.1996C32.9848 56.1996 33.3848 56.7996 33.4848 57.1996C35.0848 61.3996 36.5848 65.6996 38.0848 69.8996C38.1848 70.1996 38.2848 70.5996 38.5848 71.1996C38.8848 70.4996 38.9848 70.0996 39.1848 69.7996C40.6848 65.5996 42.2848 61.3996 43.7848 57.0996C44.0848 56.3996 44.3848 56.0996 45.1848 56.0996C46.3848 56.1996 47.5848 56.0996 48.9848 56.0996C48.7848 56.7996 48.6848 57.1996 48.4848 57.5996C46.2848 63.2996 44.0848 68.9996 41.9848 74.6996C41.5848 75.6996 41.1848 76.1996 40.0848 76.0996C38.7848 75.9996 37.1848 76.3996 36.2848 75.7996C35.3848 75.1996 35.1848 73.5996 34.6848 72.3996C32.7848 67.3996 30.8848 62.4996 28.8848 57.4996C28.6848 57.1996 28.5848 56.7996 28.3848 56.1996Z" fill="black"/>
<path d="M74.1851 14.1995C75.3851 14.7995 76.4851 15.2995 77.6851 15.8995C76.0851 19.6995 71.7851 21.4995 67.0851 20.6995C62.2851 19.7995 58.9851 15.8995 58.8851 10.9995C58.6851 5.89948 61.7851 1.89947 66.6851 0.699473C71.3851 -0.400527 75.7851 1.39948 77.7851 5.29948C76.5851 5.89948 75.4851 6.49948 74.2851 6.99948C71.2851 3.69948 67.7851 3.29947 65.1851 5.89947C62.6851 8.39947 62.6851 13.0995 65.3851 15.4995C67.9851 17.9995 71.4851 17.4995 74.1851 14.1995Z" fill="#FAA747"/>
<path d="M16.4847 42.1987C17.2847 42.5987 18.4847 43.1987 19.5847 43.6987C18.3847 47.0987 14.0847 49.1987 9.78465 48.5987C4.68465 47.8987 1.18465 44.1987 0.78465 39.2987C0.38465 34.1987 3.38467 29.8987 8.18467 28.5987C12.9847 27.2987 17.5847 28.9987 19.6847 33.0987C18.5847 33.5987 17.5847 34.1987 16.4847 34.6987C16.2847 34.7987 15.8847 34.5987 15.6847 34.3987C14.0847 32.0987 11.1847 31.4987 8.88466 32.5987C6.48466 33.6987 4.98467 36.1987 5.18467 38.9987C5.48467 43.1987 9.28466 46.0987 12.8847 44.7987C14.0847 44.0987 15.0847 43.0987 16.4847 42.1987Z" fill="black"/>
<path d="M37.4844 28.4003C39.0844 28.4003 40.4844 28.3003 41.8844 28.4003C42.2844 28.4003 42.6844 28.9003 42.8844 29.2003C44.2844 31.4003 45.6844 33.7003 47.1844 36.1003C47.4844 35.8003 47.6844 35.5003 47.8844 35.2003C49.1844 33.2003 50.3844 31.1003 51.6844 29.1003C51.8844 28.8003 52.2844 28.3003 52.5844 28.3003C53.9844 28.2003 55.3844 28.3003 56.9844 28.3003C55.8844 30.1003 54.8844 31.6003 53.8844 33.2003C52.9844 34.5003 52.2844 35.9003 51.2844 37.1003C49.6844 39.0003 49.1844 41.2003 49.3844 43.6003C49.4844 44.8003 49.3844 46.1003 49.3844 47.4003C49.3844 48.0003 49.1844 48.2003 48.4844 48.3003C44.9844 48.5003 44.8844 48.5003 45.0844 45.1003C45.2844 41.7003 44.5844 38.7003 42.3844 36.0003C40.6844 33.8003 39.2844 31.2003 37.4844 28.4003Z" fill="black"/>
<path d="M88.3849 60.0002C86.3849 60.0002 84.585 60.0002 82.585 60.0002C82.585 58.8002 82.585 57.8002 82.585 56.8002C82.585 56.6002 83.0849 56.2002 83.2849 56.2002C88.0849 56.2002 92.885 56.0002 97.685 56.2002C99.285 56.3002 98.1849 58.0002 98.3849 58.9002C98.5849 59.5002 98.385 60.0002 97.485 60.0002C95.885 60.0002 94.385 60.0002 92.585 60.0002C92.585 60.6002 92.585 61.0002 92.585 61.5002C92.585 65.9002 92.585 70.4002 92.585 74.8002C92.585 75.8002 92.3849 76.1002 91.2849 76.1002C88.1849 76.1002 88.185 76.1002 88.185 73.1002C88.185 69.2002 88.185 65.3002 88.185 61.5002C88.385 61.0002 88.3849 60.6002 88.3849 60.0002Z" fill="black"/>
<path d="M48.385 4.3996C46.585 4.3996 45.085 4.3996 43.585 4.3996C42.785 4.3996 42.485 4.1996 42.585 3.3996C42.685 -0.000402927 42.0849 0.699609 45.2849 0.599609C49.2849 0.599609 53.185 0.599609 57.185 0.599609C58.185 0.599609 58.585 0.799597 58.585 1.8996C58.485 4.3996 58.585 4.3996 56.085 4.3996C55.085 4.3996 53.9849 4.3996 52.7849 4.3996C52.7849 4.8996 52.7849 5.39961 52.7849 5.79961C52.7849 10.1996 52.7849 14.6996 52.7849 19.0996C52.7849 20.1996 52.585 20.5996 51.385 20.5996C48.485 20.4996 48.485 20.5996 48.485 17.6996C48.485 13.7996 48.485 9.89961 48.485 6.09961C48.385 5.49961 48.385 5.0996 48.385 4.3996Z" fill="#FAA747"/>
<path d="M90.8849 28.3989C90.8849 29.4989 90.9849 30.5989 90.8849 31.4989C90.8849 31.6989 90.285 32.0989 89.985 32.0989C88.385 32.1989 86.885 32.0989 85.185 32.0989C85.185 32.7989 85.185 33.2989 85.185 33.7989C85.185 38.1989 85.185 42.5989 85.185 46.9989C85.185 47.8989 84.985 48.2989 83.985 48.1989C80.885 48.1989 80.8849 48.1989 80.8849 45.0989C80.8849 41.1989 80.8849 37.2989 80.8849 33.2989C80.8849 32.2989 80.685 31.7989 79.585 31.8989C78.485 31.9989 77.3849 31.8989 76.2849 31.8989C75.3849 31.8989 75.085 31.6989 75.085 30.7989C75.185 27.5989 74.685 28.1989 77.685 28.1989C81.685 28.1989 85.585 28.1989 89.585 28.1989C89.885 28.3989 90.2849 28.3989 90.8849 28.3989Z" fill="black"/>
<path d="M5.98456 66.1992C5.98456 69.0992 5.98456 72.0992 5.98456 74.9992C5.98456 75.7992 5.68455 76.0992 4.88455 76.0992C1.68455 76.1992 1.68457 76.1992 1.68457 72.9992C1.68457 67.7992 1.68457 62.5992 1.68457 57.3992C1.68457 56.3992 1.98455 56.1992 2.88455 56.1992C5.98455 56.1992 5.98456 56.1992 5.98456 59.1992C5.98456 61.4992 5.98456 63.7992 5.98456 66.1992Z" fill="black"/>
<path d="M122.085 46.2988C133.185 46.2988 144.185 46.2988 155.085 46.2988C155.285 48.3988 155.085 48.6988 153.085 48.6988C143.585 48.6988 133.985 48.6988 124.485 48.6988C122.185 48.6988 122.485 49.0988 122.085 46.2988Z" fill="#FAA747"/>
</svg>
