<?xml version="1.0" standalone="no"?>
<!DOCTYPE svg PUBLIC "-//W3C//DTD SVG 20010904//EN"
 "http://www.w3.org/TR/2001/REC-SVG-20010904/DTD/svg10.dtd">
<svg version="1.0" xmlns="http://www.w3.org/2000/svg"
 width="2539.000000pt" height="779.000000pt" viewBox="0 0 2539.000000 779.000000"
 preserveAspectRatio="xMidYMid meet">
<metadata>
Created by potrace 1.16, written by Peter Selinger 2001-2019
</metadata>
<g transform="translate(0.000000,779.000000) scale(0.100000,-0.100000)"
fill="#000000" stroke="none">
<path d="M2140 7275 c0 -14 38 -462 85 -995 47 -533 85 -978 85 -990 0 -11 5
-20 10 -20 6 0 123 79 261 176 138 97 254 172 259 167 4 -4 807 -1145 1785
-2535 l1779 -2528 508 0 c279 0 508 2 508 4 0 3 -878 1252 -1950 2777 -1073
1524 -1950 2773 -1948 2774 2 1 108 75 236 165 128 89 229 167 225 171 -9 9
-1828 859 -1838 859 -3 0 -5 -11 -5 -25z"/>
<path d="M5415 5499 c-335 -479 -614 -881 -619 -893 -7 -18 31 -77 240 -378
137 -196 252 -357 255 -357 7 -1 1749 2483 1749 2493 0 3 -228 6 -507 6 l-508
0 -610 -871z"/>
<path d="M23350 6080 l0 -210 -1380 0 -1380 0 0 -455 0 -455 625 0 625 0 0
-1755 0 -1755 525 0 525 0 0 1755 0 1755 230 0 230 0 0 -241 c0 -189 3 -240
13 -236 33 14 1548 893 1550 900 1 5 -169 107 -378 227 -222 128 -384 228
-390 240 -6 12 -19 20 -34 20 -13 0 -188 95 -388 210 -201 116 -366 210 -369
210 -2 0 -4 -94 -4 -210z"/>
<path d="M9670 5834 c-369 -50 -664 -180 -866 -382 -372 -372 -430 -969 -137
-1403 103 -151 252 -288 414 -377 201 -110 425 -188 885 -306 439 -113 550
-147 671 -206 120 -59 186 -118 228 -205 56 -114 44 -298 -27 -413 -89 -145
-236 -248 -427 -300 -89 -24 -112 -26 -311 -26 -234 -1 -293 8 -431 65 -242
99 -400 305 -478 621 -24 101 -28 108 -51 108 -14 0 -202 -16 -419 -37 l-393
-37 7 -61 c19 -173 88 -417 161 -574 98 -210 285 -435 454 -548 297 -199 633
-283 1126 -283 345 0 567 30 805 110 348 116 599 328 752 635 91 183 129 353
130 570 0 385 -103 658 -337 891 -228 227 -489 341 -1191 519 -544 138 -716
204 -831 319 -71 72 -99 136 -97 231 2 128 82 232 235 305 153 73 212 84 468
84 202 0 233 -2 305 -22 245 -68 382 -215 447 -480 l23 -92 60 0 c33 0 227 5
431 12 l370 12 -3 55 c-16 251 -95 488 -222 668 -224 318 -575 498 -1073 552
-138 15 -550 12 -678 -5z"/>
<path d="M18000 5843 c-485 -50 -854 -212 -1151 -506 -442 -438 -640 -1014
-616 -1792 17 -519 128 -916 352 -1250 184 -276 407 -472 700 -615 330 -163
614 -217 1073 -207 320 7 501 38 732 124 563 210 972 662 1138 1258 64 231 90
416 99 700 22 774 -181 1363 -616 1777 -293 281 -650 443 -1104 503 -108 14
-499 19 -607 8z m580 -761 c340 -91 588 -302 723 -617 133 -308 173 -802 101
-1235 -86 -508 -381 -865 -816 -986 -115 -32 -356 -44 -489 -24 -218 31 -410
126 -577 284 -272 257 -402 633 -402 1161 0 333 51 606 154 831 145 314 431
534 779 600 111 21 429 13 527 -14z"/>
<path d="M12470 3660 l0 -2110 430 0 430 0 0 795 0 795 463 0 c875 0 1093 38
1397 241 160 107 285 249 378 429 100 193 131 327 139 597 6 213 -4 332 -43
480 -100 386 -392 699 -759 812 -194 60 -424 71 -1512 71 l-923 0 0 -2110z
m1760 1379 c209 -18 315 -62 431 -178 115 -115 162 -231 162 -401 0 -314 -202
-532 -538 -580 -94 -13 -500 -29 -767 -30 l-188 0 0 606 0 607 398 -7 c218 -4
444 -11 502 -17z"/>
<path d="M5932 4376 c-270 -387 -492 -706 -492 -710 0 -6 482 -700 500 -719 6
-7 1500 2112 1500 2128 0 3 -228 5 -508 5 l-507 0 -493 -704z"/>
<path d="M1522 3406 c-578 -827 -1052 -1506 -1052 -1510 0 -3 767 -6 1704 -6
l1705 0 350 500 351 500 -250 357 c-138 197 -254 359 -259 361 -5 2 -149 -198
-320 -443 l-312 -445 -685 0 c-377 0 -684 4 -682 8 2 5 215 311 473 680 l470
672 363 0 c207 0 362 4 360 9 -1 5 -131 191 -287 415 l-285 406 -295 0 -296 0
-1053 -1504z"/>
<path d="M4015 1649 c-402 -573 -738 -1055 -748 -1071 l-19 -28 510 0 510 0
487 696 c268 383 489 703 492 712 2 10 -93 155 -237 362 -133 190 -247 351
-254 358 -9 10 -165 -206 -741 -1029z"/>
</g>
</svg>
