<svg version="1.2" xmlns="http://www.w3.org/2000/svg" viewBox="0 0 392 76" width="392" height="76">
	<title>elite_text-svg</title>
	<style>
		.s0 { fill: #306aa9 } 
	</style>
	<g id="Layer">
		<path id="Layer" fill-rule="evenodd" class="s0" d="m25.5 74c-14.9 0-21.8-7.6-21.8-23v-31.8c0-10.3 4.5-16 16.6-16h59.8c12.2 0 16.5 5.7 16.5 16v10c0 10.3-4.3 16-16.5 16h-59.9v4.1c0 6.3 2.8 9.6 8.8 9.6h65.8v15.1zm54.8-50.9c0-4.1-1.7-6.2-6.1-6.2h-47.9c-4.4 0-6 2.1-6 6.2v10.1h53.9c4.4 0 6.1-2.3 6.1-6.2z" />
		<path id="Layer" class="s0" d="m123.3 74c-14.7 0-21.6-7.6-21.6-23v-47.8h16.4v46.1c0 6.3 2.8 9.6 8.7 9.6h52.9v15.1z" />
		<path id="Layer" class="s0" d="m242.1 74v-55.7h-36.8v-15.1h90.1v15.1h-37v55.7z" />
		<path id="Layer" fill-rule="evenodd" class="s0" d="m318.6 74c-14.9 0-21.8-7.6-21.8-23v-31.8c0-10.3 4.5-16 16.7-16h59.8c12.1 0 16.4 5.7 16.4 16v10c0 10.3-4.3 16-16.4 16h-59.9v4.1c0 6.3 2.7 9.6 8.7 9.6h65.8v15.1zm54.8-50.9c0-4.1-1.7-6.2-6.1-6.2h-47.9c-4.3 0-6 2.1-6 6.2v10.1h53.9c4.4 0 6.1-2.3 6.1-6.2z" />
		<path id="Layer" class="s0" d="m182.5 74v-70.8h16.4v70.8z" />
	</g>
</svg>