<svg width="30" height="30" viewBox="0 0 30 30" fill="none" xmlns="http://www.w3.org/2000/svg">
<path d="M15.0699 29.7999C23.0504 29.7999 29.5199 23.3304 29.5199 15.3499C29.5199 7.36939 23.0504 0.899902 15.0699 0.899902C7.08936 0.899902 0.619873 7.36939 0.619873 15.3499C0.619873 23.3304 7.08936 29.7999 15.0699 29.7999Z" fill="white"/>
<path d="M8.54004 15.91C8.5634 15.8419 8.59711 15.7778 8.64001 15.72L9.81006 13.72L11.28 11.29L12.6801 8.96997L14.0701 6.65997L15.02 5.08997V12.92L14.4601 13.18L13.51 13.61L12.16 14.22L11.16 14.67L9.71008 15.33L8.62 15.83L8.54004 15.91Z" fill="#8C8C8C"/>
<path d="M15.0498 12.9499V5.11987L16.3597 7.28989L21.5198 15.8499V15.9099H21.4698L21.2198 15.7999L20.4998 15.4699L19.9298 15.2099L19.1998 14.8799L18.6398 14.6199L17.9098 14.2899L17.1998 13.9699L16.4797 13.6399L15.7598 13.3199L15.0098 12.9799L15.0498 12.9499Z" fill="#343434"/>
<path d="M8.53979 15.9099L8.65979 15.8599L9.74976 15.3599L11.1998 14.7L12.1998 14.2499L13.5498 13.6399L14.4998 13.2099L15.0598 12.95V19.7199H14.9797L14.4098 19.3799L8.56982 15.9299H8.50977C8.50977 15.9299 8.52979 15.9099 8.53979 15.9099Z" fill="#393939"/>
<path d="M15.0798 19.76V12.96L15.8298 13.3L16.5498 13.62L17.2698 13.95L17.9797 14.27L18.7098 14.6L19.2698 14.86L19.9998 15.19L20.5698 15.45L21.2898 15.78L21.5398 15.89H21.5898L20.9198 16.29L15.1798 19.68L15.0798 19.76Z" fill="#141414"/>
<path d="M15.0701 26.3299L14.9501 26.1499C14.4601 25.4699 13.95 24.7799 13.49 24.0899C12.82 23.1599 12.16 22.2299 11.49 21.2899L10.28 19.5799L8.59998 17.2099C8.59644 17.202 8.59473 17.1935 8.59473 17.1849C8.59473 17.1763 8.59644 17.1678 8.59998 17.1599L8.84009 17.2999L11.4 18.8199L13.52 20.0699L15.0601 20.9799H15.11V26.2799L15.0701 26.3299Z" fill="#8C8C8C"/>
<path d="M15.0698 26.33V21.03L16.5498 20.16L21.5498 17.24H21.6298V17.29L17.0098 23.79L15.1798 26.38L15.0698 26.33Z" fill="#3C3C3B"/>
</svg>
