<svg width="31" height="31" viewBox="0 0 31 31" fill="none" xmlns="http://www.w3.org/2000/svg">
<path d="M15.3499 30.0399C23.3304 30.0399 29.7999 23.5704 29.7999 15.5899C29.7999 7.60938 23.3304 1.13989 15.3499 1.13989C7.36939 1.13989 0.899902 7.60938 0.899902 15.5899C0.899902 23.5704 7.36939 30.0399 15.3499 30.0399Z" stroke="white" stroke-miterlimit="10"/>
<path d="M8.81995 16.1399C8.84556 16.0759 8.87914 16.0154 8.91992 15.9599L10.09 14.0099L11.5599 11.5799C12.0299 10.8099 12.49 10.0299 12.96 9.24988L14.3499 6.94989L15.3499 5.36987V13.1999L14.7899 13.4599L13.84 13.8899L12.4899 14.4999L11.4899 14.9499L10.0399 15.6099L8.94995 16.0999C8.9101 16.1226 8.8657 16.1363 8.81995 16.1399Z" fill="#8C8C8C"/>
<path d="M15.33 13.1899V5.35986L16.6399 7.52988L21.7999 16.0899V16.1399L21.5499 16.0299L20.83 15.6999L20.2599 15.4399L19.5399 15.1099L18.97 14.8499L18.2399 14.5199L17.5299 14.1999L16.8099 13.8699L16.09 13.5399L15.3499 13.1999L15.33 13.1899Z" fill="#343434"/>
<path d="M8.81995 16.1399C8.86303 16.1319 8.90392 16.1149 8.93994 16.0899L10.0299 15.5999L11.4799 14.9399L12.4799 14.4899L13.83 13.8799L14.7799 13.45L15.34 13.1899C15.3359 13.2131 15.3359 13.2368 15.34 13.2599V19.9699H15.2699L14.6899 19.6299L8.84985 16.1799H8.78992L8.81995 16.1399Z" fill="#393939"/>
<path d="M15.3599 19.9999V13.2599C15.3558 13.2368 15.3558 13.2131 15.3599 13.1899L16.0999 13.5299L16.82 13.8599L17.54 14.1899L18.2499 14.5099L18.9799 14.8399L19.55 15.0999L20.2699 15.4299L20.84 15.6899L21.56 16.0199L21.81 16.1299L21.1399 16.5299L15.3999 19.9199L15.3599 19.9999Z" fill="#141414"/>
<path d="M15.3499 26.5599L15.2299 26.3799C14.7399 25.6999 14.2299 25.0099 13.7699 24.3199C13.1099 23.3899 12.4399 22.4599 11.7699 21.5199L10.5599 19.8099L8.87988 17.4399L9.11987 17.5799L11.6799 19.0999L13.7999 20.3499L15.34 21.2599H15.3899V26.5599H15.3499Z" fill="#8C8C8C"/>
<path d="M15.3499 26.56V21.27L16.83 20.4L21.7799 17.47H21.8599V17.52C20.3199 19.69 18.7799 21.85 17.2499 24.02C16.6299 24.88 16.0199 25.74 15.4099 26.61L15.3499 26.56Z" fill="#3C3C3B"/>
</svg>
