<svg width="68" height="18" viewBox="0 0 68 18" fill="none" xmlns="http://www.w3.org/2000/svg">
<path d="M0.400024 7.5C0.400024 5.1 0.400024 2.69999 0.400024 0.299988C0.400024 -1.2219e-05 0.500024 0 0.700024 0C22.8 0 44.9 0 67 0C67.3 0 67.3 0.0999878 67.3 0.299988C67.3 5.89999 67.3 11.4 67.3 17C67.3 17.3 67.2 17.3 67 17.3C47.9 17.3 28.7 17.3 9.60002 17.3V17.2C9.70002 17.2 9.80002 17.2 9.90002 17.2C12.9 16.8 16 14.6 16.8 11.1C17 10.1 17.1 9.20001 16.9 8.10001C13.4 12.2 9.00002 14.5 3.50002 15C4.90002 16.3 6.40002 17.1 8.10002 17.2V17.3C5.50002 17.3 3.00002 17.3 0.400024 17.3C0.400024 14.7 0.400024 12.2 0.400024 9.60001C0.500024 9.60001 0.500023 9.69999 0.500023 9.79999C0.600023 10.5 0.800021 11.2 1.10002 11.9C1.60002 13.2 1.70002 13.2 3.10002 13.1C3.80002 13 4.00002 12.9 4.00002 12.2C4.00002 10.9 4.10002 9.59999 4.00002 8.39999C4.00002 7.99999 4.10002 7.6 4.50002 7.5C5.00002 7.4 5.50002 7.4 6.10002 7.5C6.50002 7.6 6.70002 7.80001 6.70002 8.20001C6.70002 8.40001 6.70002 8.60001 6.70002 8.70001C6.70002 9.90001 6.70002 11.2 6.70002 12.4C6.70002 12.5 6.70002 12.6 6.80002 12.6C6.90002 12.6 7.00002 12.6 7.00002 12.5C7.30002 12.3 7.50002 12 7.50002 11.6C7.40002 10.1 7.60002 8.60001 7.50002 7.10001C7.40002 5.60001 7.50002 5.5 9.00002 5.5C10 5.5 10.2 5.70001 10.2 6.70001C10.1 8.00001 10.2 9.40001 10.2 10.7C10.2 10.9 10.1 11.1 10.4 11.2C10.7 11.2 11 11.2 11.1 10.9C11.2 10.7 11.2 10.6 11.2 10.4C11.2 8.69999 11.2 7.09999 11.2 5.39999C11.2 4.19999 11.4 3.9 12.6 4H12.7C13.6 4 13.8 4.30001 13.8 5.20001C13.8 6.50001 13.8 7.90001 13.8 9.20001C13.8 9.30001 13.7 9.4 13.9 9.5C14.8 8.8 15.6 8.09999 16.5 7.29999C17 6.79999 17.1 6.30001 16.9 5.60001C16.8 5.40001 16.7 5.20001 16.7 5.10001C14.9 1.40001 11.4 -0.400012 7.40002 0.299988C4.40002 0.899988 1.60002 3.7 1.00002 7C0.600023 7.1 0.600024 7.3 0.400024 7.5ZM66 6.79999C65.9 6.69999 65.9 6.70001 65.9 6.70001C65.5 6.10001 65 5.49999 64.7 4.89999C64.3 4.09999 63.7 3.79999 62.8 3.89999C62.5 3.89999 62.4 3.99999 62.4 4.29999C62.4 5.69999 62.4 7.20001 62.4 8.60001C62.4 9.10001 62.5 9.20001 63 9.10001C63.6 9.10001 63.6 9.1 63.6 8.5C63.6 7.6 63.6 6.6 63.6 5.5C64.3 6.5 64.9 7.39999 65.4 8.29999C65.7 8.89999 66.2 9.10001 66.8 9.10001C67.1 9.10001 67.1 8.99999 67.1 8.79999C67.1 7.39999 67.1 6.10001 67.1 4.70001C67.1 3.90001 67.1 3.89999 66.3 3.89999C66 3.89999 65.9 3.99999 65.9 4.29999C66 5.09999 66 5.89999 66 6.79999ZM45.9 9C45.4 8.4 44.9 7.70001 44.5 7.10001C44.4 6.90001 44.3 6.80001 44.6 6.60001C45.2 6.20001 45.5 5.59999 45.4 4.89999C45.3 4.29999 44.8 3.89999 44 3.79999C43.8 3.79999 43.7 3.79999 43.5 3.79999C42.8 3.79999 42.1 3.79999 41.4 3.79999C41.1 3.79999 41 3.90001 41 4.20001C41 5.50001 41 6.8 41 8C41 9.1 41 9.1 42.1 9C42.3 9 42.4 8.90001 42.4 8.70001C42.4 8.30001 42.4 7.79999 42.4 7.39999C42.4 7.29999 42.3 7.1 42.5 7C42.7 7 42.9 6.90001 43.1 7.20001C43.2 7.40001 43.4 7.59999 43.5 7.79999C43.9 8.99999 44.7 9.4 45.9 9ZM30 6.5C30 7 30 7.60001 30 8.10001C30 9.20001 30 9.10001 31.1 9.10001C31.3 9.10001 31.4 8.99999 31.4 8.79999C31.4 8.19999 31.4 7.70001 31.4 7.10001C31.4 6.90001 31.4 6.79999 31.7 6.79999C32.2 6.79999 32.7 6.79999 33.1 6.79999C33.3 6.79999 33.3 6.9 33.3 7C33.3 7.4 33.3 7.70001 33.3 8.10001C33.3 9.10001 33.3 9.10001 34.3 9.10001C34.6 9.10001 34.7 9.00001 34.7 8.70001C34.7 7.20001 34.7 5.79999 34.7 4.29999C34.7 3.89999 34.6 3.79999 34.2 3.79999C33.3 3.79999 33.3 3.80001 33.3 4.70001C33.3 5.00001 33.4 5.50001 33.2 5.70001C33 5.90001 32.6 5.79999 32.2 5.79999C31.3 5.79999 31.3 5.79999 31.3 4.89999C31.3 3.79999 31.3 3.89999 30.3 3.89999C30 3.89999 30 4.00001 30 4.20001C30 5.00001 30 5.7 30 6.5ZM48.1 9.20001C48.6 9.20001 49.2 9.09999 49.7 8.89999C50.3 8.59999 50.7 8.09999 50.7 7.39999C50.7 6.69999 50.2 6.30001 49.6 6.10001C49.1 6.00001 48.6 5.90001 48.1 5.70001C47.9 5.60001 47.6 5.59999 47.7 5.29999C47.7 4.99999 47.9 4.89999 48.2 4.79999C48.8 4.59999 49.3 4.8 49.9 5C50.2 5.1 50.5 5.49999 50.6 5.29999C50.8 5.09999 50.6 4.69999 50.7 4.39999C50.7 4.29999 50.6 4.20001 50.5 4.20001C49.5 3.90001 48.5 3.80001 47.5 4.10001C46.7 4.40001 46.3 4.90001 46.4 5.60001C46.4 6.30001 46.8 6.8 47.6 7C48 7.1 48.5 7.19999 49 7.29999C49.2 7.39999 49.5 7.49999 49.5 7.79999C49.5 8.09999 49.3 8.19999 49 8.29999C48.4 8.49999 47.8 8.30001 47.3 8.10001C47 8.00001 46.8 7.50001 46.5 7.70001C46.3 7.80001 46.5 8.30001 46.5 8.60001C46.5 8.80001 46.6 8.89999 46.8 8.89999C47 9.09999 47.6 9.20001 48.1 9.20001ZM61.7 9.10001C61.2 7.70001 60.7 6.29999 60.2 4.89999C59.8 3.79999 59.8 3.79999 58.6 3.79999C58.3 3.79999 58.2 3.90001 58.1 4.20001C57.6 5.70001 57 7.20001 56.5 8.70001C56.5 8.80001 56.4 8.90001 56.4 9.10001C56.5 9.10001 56.7 9.10001 56.8 9.10001C57.6 9.10001 57.6 9.09999 57.9 8.29999C58 8.09999 58 8 58.2 8C58.7 8 59.2 8 59.6 8C59.8 8 59.8 8.10001 59.9 8.20001C60 8.50001 60 8.9 60.2 9C60.5 9.1 60.8 9 61.2 9C61.4 9.1 61.5 9.10001 61.7 9.10001ZM20.2 6.5C20.2 7.2 20.2 8.00001 20.2 8.70001C20.2 9.10001 20.3 9.10001 20.6 9.10001C21.5 9.10001 22.4 9.10001 23.3 9.10001C24 9.10001 24 9.09999 24 8.39999C24 8.19999 23.9 8.10001 23.7 8.10001C23.3 8.10001 22.9 8.10001 22.5 8.10001C21.5 8.10001 21.5 8.10001 21.5 7.10001C21.5 6.90001 21.6 6.79999 21.8 6.79999C22.2 6.79999 22.7 6.79999 23.1 6.79999C23.8 6.79999 23.8 6.80001 23.8 6.10001C23.8 5.80001 23.7 5.79999 23.4 5.79999C22.9 5.79999 22.3 5.79999 21.7 5.79999C21.5 5.79999 21.4 5.7 21.4 5.5C21.4 5.4 21.4 5.30001 21.4 5.20001C21.4 4.90001 21.5 4.89999 21.7 4.89999C22.2 4.89999 22.7 4.89999 23.2 4.89999C23.9 4.89999 23.8 4.90001 23.9 4.20001C23.9 3.90001 23.8 3.79999 23.6 3.79999C22.6 3.79999 21.5 3.79999 20.5 3.79999C20.2 3.79999 20.1 3.90001 20.2 4.20001C20.2 5.00001 20.2 5.7 20.2 6.5ZM36 6.5C36 7.3 36 7.99999 36 8.79999C36 9.09999 36.1 9.20001 36.3 9.20001C37.2 9.20001 38.2 9.20001 39.1 9.20001C39.8 9.20001 39.8 9.2 39.8 8.5C39.8 8.2 39.7 8.20001 39.4 8.20001C38.8 8.20001 38.2 8.20001 37.5 8.20001C37 8.20001 37.3 7.80001 37.3 7.70001C37.3 7.50001 37 7 37.5 7C38 6.9 38.4 7 38.9 7C39.6 7 39.5 6.99999 39.6 6.29999C39.6 5.99999 39.5 5.89999 39.3 5.89999C38.8 5.89999 38.3 5.89999 37.8 5.89999C37.4 5.89999 37.3 5.79999 37.3 5.39999C37.3 5.09999 37.4 4.89999 37.8 4.89999C38.2 4.89999 38.7 4.89999 39.2 4.89999C39.9 4.89999 39.9 4.90001 39.9 4.20001C39.9 3.90001 39.8 3.89999 39.6 3.89999C38.6 3.89999 37.5 3.89999 36.5 3.89999C36.2 3.89999 36.1 3.99999 36.1 4.29999C36 4.99999 36 5.7 36 6.5ZM55.8 4.89999C55.8 4.19999 55.8 4.2 55.1 4C54.9 3.9 54.7 3.89999 54.5 3.89999C52.8 3.59999 51.5 4.50001 51.3 6.10001C51 7.80001 51.9 8.99999 53.5 9.29999C54.1 9.39999 54.7 9.30001 55.3 9.10001C55.7 9.00001 56 8.79999 55.9 8.29999C55.9 8.09999 55.9 7.80001 55.8 7.70001C55.6 7.60001 55.5 7.9 55.3 8C55.1 8.1 54.8 8.29999 54.5 8.29999C53.9 8.39999 53.4 8.29999 53.1 7.79999C52.6 7.19999 52.6 5.99999 53.1 5.39999C53.6 4.79999 54.5 4.79999 55.3 5.29999C55.5 5.39999 55.6 5.70001 55.8 5.60001C55.9 5.30001 55.8 5.09999 55.8 4.89999ZM26.9 3.89999C26.2 3.89999 25.6 3.89999 24.9 3.89999C24.7 3.89999 24.6 4.00001 24.6 4.20001C24.6 4.30001 24.6 4.4 24.6 4.5C24.6 4.8 24.6 4.89999 25 4.89999C25.3 4.89999 25.6 4.89999 25.9 4.89999C26.2 4.89999 26.2 5.00001 26.2 5.20001C26.2 6.20001 26.2 7.10001 26.2 8.10001C26.2 9.10001 26.2 9.10001 27.2 9.10001C27.5 9.10001 27.5 8.99999 27.5 8.79999C27.5 7.79999 27.5 6.79999 27.5 5.79999C27.5 4.89999 27.5 4.89999 28.4 4.89999C29.1 4.89999 29.1 4.90001 29.1 4.20001C29.1 3.90001 29 3.79999 28.7 3.89999C28.2 3.89999 27.5 3.89999 26.9 3.89999ZM40 13.3C40 13.4 40 13.4 40 13.5C40.1 13.8 39.8 14.2 40.2 14.2C40.6 14.2 40.3 13.7 40.4 13.5C40.4 13.4 40.4 13.2 40.4 13C40.4 12.7 40.6 12.6 40.8 12.6C41.1 12.6 41.2 12.8 41.2 13C41.2 13.3 41.2 13.6 41.2 14C41.2 14.1 41.2 14.3 41.4 14.3C41.6 14.3 41.6 14.2 41.6 14C41.6 13.7 41.6 13.4 41.6 13.1C41.6 12.8 41.7 12.7 42 12.6C42.3 12.6 42.3 12.8 42.4 13C42.5 13.3 42.4 13.7 42.4 14.1C42.4 14.2 42.4 14.3 42.6 14.3C42.7 14.3 42.8 14.2 42.8 14.1C42.8 13.7 42.9 13.2 42.7 12.8C42.6 12.4 42.2 12.2 41.8 12.4C41.5 12.6 41.4 12.6 41.2 12.4C41.1 12.3 40.9 12.3 40.7 12.4C40.5 12.5 40.4 12.7 40.2 12.4C40.1 12.3 40 12.4 40 12.6C40 12.8 40 13 40 13.3ZM44.7 14.3C44.8 14.3 44.9 14.3 45 14.3C45.4 14.3 45.7 14.2 45.8 13.8C45.9 13.5 45.8 13.2 45.5 13C45.3 12.9 45.5 12.8 45.5 12.7C45.8 12.3 45.7 11.8 45.2 11.7C44.9 11.6 44.7 11.6 44.4 11.6C44.2 11.6 44.1 11.7 44.1 12C44.1 12.6 44.1 13.2 44.1 13.8C44.2 14.3 44.2 14.3 44.7 14.3ZM57.7 13.7C57.7 14 57.7 14.2 57.7 14.5C57.7 14.7 57.5 15 57.9 15C58.3 15 58.1 14.7 58.1 14.5C58.1 14.3 58.1 14.1 58.4 14.3C58.8 14.5 59.1 14.3 59.3 14C59.6 13.6 59.6 13.2 59.3 12.8C59.1 12.4 58.7 12.3 58.3 12.5C58.1 12.6 58 12.7 57.8 12.5C57.7 12.4 57.6 12.5 57.6 12.7C57.7 12.9 57.7 13.3 57.7 13.7ZM30.8 12.5C30.8 12.2 30.8 12 30.8 11.7C30.8 11.6 30.8 11.5 30.6 11.5C30.4 11.5 30.4 11.6 30.4 11.7C30.4 12.5 30.4 13.2 30.4 14C30.4 14.1 30.4 14.3 30.6 14.3C30.8 14.3 30.8 14.2 30.8 14C30.8 13.8 30.8 13.5 30.8 13.3C30.8 13 30.8 12.6 31.3 12.6C31.8 12.6 31.7 13 31.7 13.3C31.7 13.5 31.7 13.7 31.7 13.9C31.7 14 31.6 14.3 31.9 14.3C32.2 14.3 32.1 14.1 32.1 14C32.1 13.8 32.1 13.6 32.1 13.3C32.1 12.4 31.7 12.1 30.8 12.5ZM22.1 12.8C22.1 13.1 22.1 13.4 22.1 13.7C22.1 13.9 21.9 14.2 22.3 14.2C22.6 14.2 22.5 13.8 22.5 13.7C22.5 13.5 22.5 13.3 22.5 13.1C22.5 12.8 22.7 12.7 23 12.7C23.3 12.7 23.4 12.9 23.4 13.1C23.4 13.4 23.4 13.7 23.4 14.1C23.4 14.3 23.4 14.3 23.6 14.3C23.8 14.3 23.8 14.2 23.8 14.1C23.8 13.7 23.8 13.4 23.8 13C23.8 12.5 23.4 12.2 23 12.4C22.4 12.7 22.5 12.3 22.5 11.9V11.8C22.5 11.7 22.5 11.5 22.3 11.5C22.1 11.5 22.1 11.6 22.1 11.8C22.1 12.1 22.1 12.5 22.1 12.8ZM27.1 12.9C27.1 13 27.1 13.2 27.1 13.3C27.1 14.2 27.1 14.2 28 14.2C28.2 14.2 28.6 14.3 28.6 14.1C28.6 13.8 28.2 13.9 28 13.9C27.6 13.9 27.5 13.8 27.5 13.4C27.5 13.1 27.6 12.9 27.9 13C28 13 28.2 13 28.3 13C28.4 13 28.5 13 28.5 12.9C28.5 12.8 28.4 12.8 28.3 12.8C28.1 12.8 28 12.8 27.8 12.8C27.6 12.8 27.5 12.7 27.5 12.5C27.5 12 27.5 12 28 12C28.1 12 28.2 12 28.3 12C28.4 12 28.6 12.1 28.6 11.8C28.6 11.6 28.4 11.6 28.3 11.6C28 11.6 27.8 11.6 27.5 11.6C27.2 11.6 27.1 11.7 27.1 12C27.2 12.3 27.1 12.6 27.1 12.9ZM54.7 14.3C54.8 14.3 54.8 14.3 54.9 14.3C55.1 14.2 55.5 14.4 55.5 14.2C55.5 13.9 55.1 14 54.9 14C54.5 14 54.4 13.9 54.4 13.5C54.4 13.2 54.5 13 54.8 13.1C54.9 13.1 55.1 13.1 55.2 13.1C55.3 13.1 55.4 13.1 55.4 13C55.4 12.9 55.3 12.9 55.2 12.9C55 12.9 54.9 12.9 54.7 12.9C54.5 12.9 54.4 12.8 54.4 12.6C54.4 12.1 54.4 12.1 54.9 12.1C55 12.1 55.1 12.1 55.2 12.1C55.3 12.1 55.5 12.2 55.5 11.9C55.5 11.7 55.3 11.7 55.2 11.7C54.9 11.7 54.7 11.7 54.4 11.7C54.1 11.7 54 11.8 54 12.1C54 12.6 54 13.1 54 13.7C53.9 14.3 53.9 14.3 54.7 14.3ZM51.6 13.1C51.6 12.6 51.6 12.2 51.6 11.8C51.6 11.7 51.6 11.5 51.4 11.5C51.2 11.5 51.2 11.6 51.2 11.8C51.2 12.6 51.2 13.3 51.2 14.1C51.2 14.2 51.2 14.4 51.4 14.4C51.6 14.4 51.6 14.3 51.6 14.2C51.6 14 51.5 13.7 51.7 13.7C51.9 13.6 52 14 52.1 14.1C52.2 14.1 52.2 14.2 52.2 14.3C52.3 14.5 52.5 14.6 52.8 14.5C52.7 14.3 52.5 14.2 52.4 14C52 13.5 52 13.5 52.4 13C52.5 12.9 52.6 12.8 52.5 12.7C52.4 12.6 52.2 12.7 52.1 12.8C52 12.6 51.9 12.9 51.6 13.1ZM39.5 13.4C39.5 13.2 39.5 12.9 39.5 12.7C39.5 12.6 39.5 12.4 39.3 12.4C39.1 12.4 39.1 12.6 39.1 12.7C39.1 13 39.1 13.2 39.1 13.5C39.1 13.8 39 14.1 38.6 14.1C38.2 14.1 38.2 13.8 38.2 13.6C38.2 13.3 38.2 13 38.2 12.7C38.2 12.6 38.1 12.5 38 12.5C37.9 12.5 37.8 12.5 37.8 12.7C37.8 13.1 37.7 13.6 37.9 14C38 14.4 38.4 14.6 38.8 14.4C39 14.3 39.1 14.1 39.3 14.4C39.4 14.5 39.5 14.4 39.5 14.2C39.5 13.8 39.5 13.6 39.5 13.4ZM47.1 13.3C47.1 13.9 47.5 14.3 48 14.3C48.5 14.3 48.9 13.8 48.9 13.3C48.9 12.7 48.5 12.3 48 12.3C47.4 12.3 47.1 12.7 47.1 13.3ZM60.7 13.3C60.7 13.9 61.1 14.3 61.6 14.3C62.1 14.3 62.6 13.8 62.5 13.3C62.5 12.7 62.1 12.3 61.6 12.3C61.1 12.3 60.7 12.7 60.7 13.3ZM20.7 13C20.7 13.3 20.7 13.6 20.7 14C20.7 14.1 20.7 14.2 20.9 14.2C21.1 14.2 21.1 14.1 21.1 13.9C21.1 13.4 21.1 12.9 21.1 12.4C21.1 11.8 21.1 11.8 21.7 11.8C21.8 11.8 21.9 11.8 21.9 11.6C21.9 11.4 21.8 11.4 21.7 11.4C21.2 11.4 20.7 11.4 20.2 11.4C20.1 11.4 20 11.4 20 11.6C20 11.7 20.1 11.8 20.2 11.7C20.8 11.6 20.8 11.9 20.8 12.3C20.7 12.7 20.7 12.9 20.7 13ZM65.3 14C65 14 64.8 14 64.7 13.8C64.6 13.7 64.6 13.6 64.6 13.5C64.6 13.3 64.8 13.4 64.9 13.4C65.2 13.4 65.4 13.4 65.7 13.4C65.9 13.4 66 13.4 66 13.2C66 12.8 65.7 12.4 65.3 12.4C64.9 12.4 64.7 12.5 64.5 12.8C64.3 13.2 64.3 13.6 64.5 14C64.7 14.4 65.1 14.5 65.4 14.4C65.6 14.4 65.9 14.4 65.8 14.2C65.7 13.8 65.4 14.1 65.3 14ZM36.9 14C36.7 14 36.5 14 36.3 13.9C36.2 13.8 36.1 13.7 36.1 13.5C36.2 13.3 36.3 13.4 36.4 13.4C36.6 13.4 36.9 13.4 37.1 13.4C37.3 13.4 37.4 13.4 37.4 13.2C37.4 12.8 37.1 12.4 36.7 12.4C36.1 12.4 35.7 12.8 35.7 13.4C35.7 14 36.1 14.4 36.7 14.4C36.9 14.4 37.2 14.4 37.2 14.2C37.2 13.8 37 14.1 36.9 14ZM33.6 14C33.4 14 33.2 14 33 13.9C32.9 13.8 32.8 13.7 32.8 13.5C32.9 13.3 33 13.4 33.1 13.4C33.3 13.4 33.6 13.4 33.8 13.4C34 13.4 34.1 13.4 34.1 13.2C34.1 12.8 33.8 12.4 33.3 12.4C32.7 12.4 32.4 12.8 32.4 13.4C32.4 14 32.8 14.4 33.4 14.3C33.6 14.3 33.9 14.3 33.9 14.1C34 13.8 33.7 14.1 33.6 14ZM24.2 13.3C24.2 14 24.7 14.4 25.5 14.2C25.6 14.2 25.8 14.2 25.7 14C25.7 13.8 25.5 14 25.4 14C25.1 14 24.8 14.1 24.6 13.8C24.5 13.7 24.5 13.6 24.5 13.5C24.5 13.4 24.7 13.4 24.8 13.4C25.1 13.4 25.3 13.4 25.6 13.4C25.8 13.4 25.9 13.4 25.9 13.2C25.9 12.8 25.6 12.4 25.1 12.4C24.6 12.3 24.2 12.7 24.2 13.3ZM57.4 14.2C57.3 14 57.2 13.8 57 13.7C56.7 13.4 56.7 13.2 57 12.9C57.1 12.8 57.4 12.6 57.2 12.4C57 12.2 56.8 12.6 56.7 12.7C56.5 13.1 56.4 12.9 56.2 12.7C56.1 12.5 56 12.2 55.6 12.4C55.7 12.6 55.8 12.7 55.9 12.9C56.2 13.2 56.2 13.5 55.9 13.8C55.8 13.9 55.7 14.1 55.5 14.3C56.1 14.4 56 13.8 56.3 13.7C56.8 13.7 56.7 14.4 57.4 14.2ZM29.7 14.3C29.8 14.3 30 14.3 30 14.2C30.1 14 29.9 14 29.8 14C29.6 14 29.6 13.8 29.6 13.7C29.6 13.4 29.6 13.2 29.6 12.9C29.6 12.7 29.6 12.6 29.8 12.6C29.9 12.6 30.1 12.5 30 12.4C29.7 12.3 29.6 11.9 29.4 11.8C29.1 11.6 29.3 12.3 28.9 12.3C28.8 12.3 28.8 12.4 28.9 12.5C29.1 12.5 29.1 12.7 29.1 12.9C29.1 13.2 29.1 13.4 29.1 13.7C29.2 14.1 29.3 14.3 29.7 14.3ZM59.9 12.8C59.9 13.2 59.9 13.6 59.9 13.9C59.9 14 59.9 14.2 60.1 14.2C60.3 14.2 60.3 14.1 60.3 13.9C60.3 13.2 60.3 12.4 60.3 11.7C60.3 11.6 60.3 11.4 60.1 11.4C59.9 11.4 59.9 11.6 59.9 11.7C59.9 12.1 59.9 12.5 59.9 12.8ZM50.4 14C50.1 14 49.9 14 49.7 13.7C49.5 13.4 49.6 13.2 49.7 12.9C49.9 12.6 50.1 12.5 50.4 12.6C50.5 12.6 50.6 12.7 50.6 12.5C50.6 12.3 50.5 12.3 50.4 12.3C50 12.2 49.6 12.4 49.3 12.7C49.1 13 49.1 13.5 49.3 13.9C49.5 14.2 49.9 14.4 50.3 14.3C50.4 14.3 50.6 14.3 50.6 14.1C50.7 13.8 50.5 14 50.4 14ZM46.7 12.9C46.7 12.5 46.7 12.1 46.7 11.7C46.7 11.6 46.6 11.5 46.5 11.5C46.4 11.5 46.3 11.6 46.3 11.7C46.3 12.5 46.3 13.3 46.3 14.1C46.3 14.2 46.3 14.3 46.5 14.3C46.7 14.3 46.7 14.2 46.7 14.1C46.7 13.6 46.7 13.3 46.7 12.9ZM34.9 12.6C34.9 12.5 34.9 12.3 34.7 12.3C34.6 12.3 34.5 12.4 34.5 12.5C34.5 13 34.5 13.6 34.5 14.1C34.5 14.2 34.6 14.3 34.7 14.3C34.8 14.3 34.9 14.3 34.9 14.1C34.9 13.9 34.9 13.6 34.9 13.4C34.9 13.1 34.9 12.7 35.4 12.7C35.5 12.7 35.5 12.6 35.5 12.5C35.5 12.4 35.4 12.4 35.3 12.4C35.2 12.3 35.1 12.5 34.9 12.6ZM66.3 13.3C66.3 13.5 66.3 13.7 66.3 13.9C66.3 14.1 66.2 14.3 66.5 14.3C66.8 14.3 66.7 14.1 66.7 13.9C66.7 13.7 66.7 13.5 66.7 13.2C66.7 12.9 66.8 12.7 67.1 12.7C67.3 12.7 67.4 12.6 67.3 12.5C67.2 12.3 67.1 12.4 66.9 12.5C66.8 12.5 66.7 12.9 66.5 12.5C66.4 12.4 66.2 12.5 66.2 12.7C66.3 12.8 66.3 13 66.3 13.3ZM63 13.3C63 13.5 63 13.7 63 13.9C63 14 62.9 14.2 63.2 14.2C63.5 14.2 63.4 14 63.4 13.9C63.4 13.7 63.4 13.6 63.4 13.4C63.4 13 63.4 12.6 63.9 12.6C64 12.6 64 12.5 64 12.4C64 12.3 63.9 12.3 63.8 12.3C63.7 12.3 63.6 12.4 63.5 12.5C63.4 12.6 63.4 12.6 63.3 12.5C63.3 12.4 63.2 12.4 63.1 12.4C63 12.4 63 12.5 63 12.6C63 12.8 63 13 63 13.3Z" fill="#FDFDFD"/>
<path d="M0.400002 7.50001C0.600002 7.30001 0.499998 7.1 0.599998 6.9C1.2 3.6 4 0.800021 7 0.200021C11 -0.499979 14.6 1.30001 16.3 5.00001C16.4 5.20001 16.5 5.40001 16.5 5.50001C16.8 6.20001 16.7 6.70002 16.1 7.20002C15.3 7.90002 14.4 8.7 13.5 9.4C13.3 9.3 13.4 9.20002 13.4 9.10001C13.4 7.80001 13.4 6.40001 13.4 5.10001C13.4 4.20001 13.1 4 12.3 3.9H12.2C11 3.9 10.7 4.1 10.8 5.3C10.8 7 10.8 8.6 10.8 10.3C10.8 10.5 10.8 10.7 10.7 10.8C10.5 11.1 10.3 11.2 10 11.1C9.7 11.1 9.8 10.8 9.8 10.6C9.8 9.30001 9.8 7.90001 9.8 6.60001C9.8 5.60001 9.6 5.4 8.6 5.4C7.1 5.4 7 5.50001 7.1 7.00001C7.2 8.50001 7 10 7.1 11.5C7.1 11.9 6.9 12.2 6.6 12.4C6.5 12.4 6.5 12.5 6.4 12.5C6.3 12.5 6.3 12.4 6.3 12.3C6.3 11.1 6.3 9.80001 6.3 8.60001C6.3 8.40001 6.3 8.20002 6.3 8.10001C6.3 7.70001 6.1 7.5 5.7 7.4C5.2 7.3 4.7 7.3 4.1 7.4C3.7 7.5 3.6 7.9 3.6 8.3C3.7 9.6 3.6 10.9 3.6 12.1C3.6 12.8 3.5 13 2.7 13C1.3 13.1 1.2 13 0.700001 11.8C0.400001 11.1 0.299998 10.4 0.0999985 9.70002C0.0999985 9.60002 0.1 9.50001 0 9.50001C0.4 8.90001 0.400002 8.20001 0.400002 7.50001Z" fill="#0E5A8B"/>
<path d="M8.09998 17.3C8.09998 17.3 8.09998 17.2 8.09998 17.3C8.59998 17.2 9.09998 17.2 9.49998 17.2V17.3C9.09998 17.3 8.59998 17.3 8.09998 17.3Z" fill="#A4A3A2"/>
<path d="M9.59998 17.2C9.09998 17.2 8.59998 17.2 8.19998 17.2C6.39998 17.1 4.89998 16.3 3.59998 15C9.09998 14.6 13.4 12.3 17 8.09998C17.2 9.19998 17.1 10.1 16.9 11.1C16.1 14.6 13 16.8 9.99998 17.2C9.79998 17.2 9.69998 17.2 9.59998 17.2Z" fill="#979695"/>
<path d="M66 6.80002C66 5.90002 66 5.10002 66 4.30002C66 4.00002 66.1 3.90003 66.4 3.90003C67.2 3.90003 67.2 3.90005 67.2 4.70005C67.2 6.10005 67.2 7.40002 67.2 8.80002C67.2 9.10002 67.1 9.10004 66.9 9.10004C66.2 9.20004 65.8 9.00002 65.5 8.30002C65 7.40002 64.4 6.50003 63.7 5.50003C63.7 6.60003 63.7 7.50003 63.7 8.50003C63.7 9.10003 63.7 9.10004 63.1 9.10004C62.7 9.10004 62.5 9.00004 62.5 8.60004C62.5 7.20004 62.5 5.70002 62.5 4.30002C62.5 4.00002 62.6 4.00003 62.9 3.90003C63.8 3.80003 64.4 4.10003 64.8 4.90003C65.1 5.50003 65.6 6.10005 66 6.70005C65.9 6.70005 65.9 6.70002 66 6.80002Z" fill="#0E5A8B"/>
<path d="M45.9 9.00003C44.7 9.40003 43.9 8.90002 43.4 7.90002C43.3 7.70002 43.1 7.50002 43 7.30002C42.9 7.10002 42.6 7.10004 42.4 7.10004C42.2 7.10004 42.3 7.30003 42.3 7.50003C42.3 7.90003 42.3 8.40002 42.3 8.80002C42.3 9.00002 42.2 9.10004 42 9.10004C40.9 9.10004 40.9 9.20004 40.9 8.10004C40.9 6.80004 40.9 5.50002 40.9 4.30002C40.9 4.00002 40.9 3.90002 41.3 3.90002C42 3.90002 42.7 3.90002 43.4 3.90002C43.6 3.90002 43.7 3.90002 43.9 3.90002C44.7 4.00002 45.1 4.40003 45.3 5.00003C45.4 5.70003 45.2 6.30004 44.5 6.70004C44.2 6.90004 44.3 7.00004 44.4 7.20004C44.9 7.80004 45.4 8.40003 45.9 9.00003ZM42.3 5.50003C42.3 6.30003 42.3 6.30004 43.1 6.20004C43.6 6.10004 43.9 5.80002 43.8 5.40002C43.8 5.00002 43.5 4.80002 43 4.80002C42.3 4.80002 42.3 4.80003 42.3 5.50003Z" fill="#0E5A8B"/>
<path d="M30 6.5C30 5.7 30 5.00001 30 4.20001C30 4.00001 30 3.89999 30.3 3.89999C31.3 3.89999 31.3 3.89999 31.3 4.89999C31.3 5.79999 31.3 5.79999 32.2 5.79999C32.5 5.79999 33 5.90001 33.2 5.70001C33.4 5.50001 33.3 5.10001 33.3 4.70001C33.3 3.80001 33.3 3.79999 34.2 3.79999C34.6 3.79999 34.7 3.89999 34.7 4.29999C34.7 5.79999 34.7 7.20001 34.7 8.70001C34.7 9.00001 34.7 9.10001 34.3 9.10001C33.3 9.10001 33.3 9.10001 33.3 8.10001C33.3 7.70001 33.3 7.4 33.3 7C33.3 6.8 33.2 6.79999 33.1 6.79999C32.6 6.79999 32.1 6.79999 31.7 6.79999C31.5 6.79999 31.4 6.90001 31.4 7.10001C31.4 7.70001 31.4 8.19999 31.4 8.79999C31.4 8.99999 31.4 9.10001 31.1 9.10001C30 9.10001 30 9.10001 30 8.10001C30 7.60001 30 7 30 6.5Z" fill="#0C598A"/>
<path d="M48.1 9.19998C47.5 9.19998 47 9.09996 46.4 8.89996C46.2 8.79996 46.1 8.79997 46.1 8.59997C46.1 8.29997 46 7.79998 46.1 7.69998C46.4 7.49998 46.6 7.99997 46.9 8.09997C47.5 8.29997 48 8.49996 48.6 8.29996C48.9 8.19996 49.1 8.09996 49.1 7.79996C49.1 7.49996 48.9 7.39996 48.6 7.29996C48.2 7.19996 47.7 7.09997 47.2 6.99997C46.4 6.69997 46 6.29997 46 5.59997C46 4.89997 46.4 4.39997 47.1 4.09997C48.1 3.69997 49.1 3.89998 50.1 4.19998C50.2 4.19998 50.3 4.29996 50.3 4.39996C50.3 4.69996 50.4 5.09996 50.2 5.29996C50.1 5.49996 49.7 5.09997 49.5 4.99997C49 4.79997 48.4 4.69996 47.8 4.79996C47.6 4.89996 47.3 4.99996 47.3 5.29996C47.3 5.59996 47.5 5.69998 47.7 5.69998C48.2 5.79998 48.7 5.89997 49.2 6.09997C49.8 6.29997 50.3 6.69996 50.3 7.39996C50.3 8.09996 50 8.59996 49.3 8.89996C49.2 9.09996 48.7 9.19998 48.1 9.19998Z" fill="#0E5A8B"/>
<path d="M61.7 9.10004C61.5 9.10004 61.4 9.10004 61.3 9.10004C61 9.10004 60.6 9.20004 60.3 9.10004C60.1 9.00004 60.1 8.60002 60 8.30002C59.9 8.20002 59.9 8.10004 59.7 8.10004C59.2 8.10004 58.7 8.10004 58.3 8.10004C58.1 8.10004 58 8.20002 58 8.40002C57.7 9.20002 57.7 9.20004 56.9 9.20004C56.8 9.20004 56.6 9.20004 56.5 9.20004C56.5 9.10004 56.5 8.90002 56.6 8.80002C57.2 7.30002 57.7 5.80002 58.2 4.30002C58.3 4.00002 58.4 3.90002 58.7 3.90002C59.9 3.90002 59.9 3.90003 60.3 5.00003C60.7 6.30003 61.2 7.70004 61.7 9.10004ZM58.3 7.10004C58.7 7.10004 59 7.10004 59.3 7.10004C59.5 7.10004 59.5 7.00002 59.5 6.90002C59.3 6.40002 59.2 5.90002 59 5.30002C58.8 5.80002 58.7 6.30004 58.5 6.70004C58.4 6.80004 58.4 6.90004 58.3 7.10004Z" fill="#0E5A8B"/>
<path d="M20.2 6.5C20.2 5.7 20.2 5.00001 20.2 4.20001C20.2 3.90001 20.3 3.79999 20.5 3.79999C21.5 3.79999 22.6 3.79999 23.6 3.79999C23.9 3.79999 24 3.90001 23.9 4.20001C23.9 4.90001 23.9 4.89999 23.2 4.89999C22.7 4.89999 22.2 4.89999 21.7 4.89999C21.4 4.89999 21.3 5.00001 21.4 5.20001C21.4 5.30001 21.4 5.4 21.4 5.5C21.4 5.7 21.5 5.79999 21.7 5.79999C22.3 5.79999 22.8 5.79999 23.4 5.79999C23.7 5.79999 23.8 5.80001 23.8 6.10001C23.8 6.80001 23.8 6.79999 23.1 6.79999C22.7 6.79999 22.2 6.79999 21.8 6.79999C21.6 6.79999 21.5 6.90001 21.5 7.10001C21.5 8.10001 21.5 8.10001 22.5 8.10001C22.9 8.10001 23.3 8.10001 23.7 8.10001C23.9 8.10001 24 8.19999 24 8.39999C24 9.09999 24 9.10001 23.3 9.10001C22.4 9.10001 21.5 9.10001 20.6 9.10001C20.3 9.10001 20.1 9.00001 20.2 8.70001C20.2 8.00001 20.2 7.2 20.2 6.5Z" fill="#0C598A"/>
<path d="M36 6.50003C36 5.80003 36 5.00002 36 4.30002C36 4.00002 36 3.90002 36.4 3.90002C37.4 3.90002 38.5 3.90002 39.5 3.90002C39.8 3.90002 39.8 4.00004 39.8 4.20004C39.8 4.90004 39.8 4.90002 39.1 4.90002C38.6 4.90002 38.2 4.90002 37.7 4.90002C37.3 4.90002 37.3 5.00002 37.2 5.40002C37.2 5.80002 37.3 5.90002 37.7 5.90002C38.2 5.90002 38.7 5.90002 39.2 5.90002C39.5 5.90002 39.6 6.00002 39.5 6.30002C39.5 7.00002 39.5 7.00003 38.8 7.00003C38.3 7.00003 37.9 7.00003 37.4 7.00003C36.9 7.10003 37.2 7.50004 37.2 7.70004C37.2 7.90004 37 8.20004 37.4 8.20004C38 8.20004 38.6 8.20004 39.3 8.20004C39.6 8.20004 39.7 8.20003 39.7 8.50003C39.7 9.20003 39.7 9.20004 39 9.20004C38.1 9.20004 37.1 9.20004 36.2 9.20004C35.9 9.20004 35.8 9.10002 35.9 8.80002C36 8.00002 36 7.20003 36 6.50003Z" fill="#0C598A"/>
<path d="M55.8 4.89998C55.8 5.09998 55.9 5.39999 55.7 5.49999C55.5 5.59999 55.4 5.3 55.2 5.2C54.4 4.7 53.5 4.69998 53 5.29998C52.5 5.89998 52.5 7.1 53 7.7C53.4 8.2 53.9 8.3 54.4 8.2C54.7 8.2 54.9 7.99998 55.2 7.89998C55.4 7.79998 55.5 7.5 55.7 7.6C55.8 7.7 55.7 8 55.8 8.2C55.9 8.7 55.6 8.89999 55.2 8.99999C54.6 9.19999 54 9.3 53.4 9.2C51.8 9 50.9 7.69999 51.2 5.99999C51.5 4.39999 52.7 3.59998 54.4 3.79998C54.6 3.79998 54.8 3.89998 55 3.89998C55.8 4.19998 55.8 4.19998 55.8 4.89998Z" fill="#0E5A8B"/>
<path d="M26.9 3.90002C27.5 3.90002 28.2 3.90002 28.8 3.90002C29.1 3.90002 29.2 4.00004 29.2 4.20004C29.2 4.90004 29.2 4.90002 28.5 4.90002C27.6 4.90002 27.6 4.90002 27.6 5.80002C27.6 6.80002 27.6 7.80002 27.6 8.80002C27.6 9.00002 27.6 9.10004 27.3 9.10004C26.3 9.10004 26.3 9.10004 26.3 8.10004C26.3 7.10004 26.3 6.20004 26.3 5.20004C26.3 4.90004 26.2 4.90002 26 4.90002C25.7 4.90002 25.4 4.90002 25.1 4.90002C24.8 4.90002 24.7 4.80003 24.7 4.50003C24.7 4.40003 24.7 4.30004 24.7 4.20004C24.7 4.00004 24.8 3.90002 25 3.90002C25.5 3.90002 26.2 3.90002 26.9 3.90002Z" fill="#0C598A"/>
<path d="M40 13.3C40 13.1 40 12.8 40 12.6C40 12.4 40.1 12.3 40.2 12.4C40.4 12.7 40.5 12.5 40.7 12.4C40.9 12.3 41.1 12.3 41.2 12.4C41.4 12.6 41.6 12.6 41.8 12.4C42.2 12.2 42.6 12.4 42.7 12.8C42.8 13.2 42.7 13.7 42.8 14.1C42.8 14.2 42.7 14.3 42.6 14.3C42.5 14.3 42.4 14.2 42.4 14.1C42.4 13.7 42.4 13.4 42.4 13C42.4 12.8 42.3 12.6 42 12.6C41.7 12.6 41.6 12.8 41.6 13.1C41.6 13.4 41.6 13.7 41.6 14C41.6 14.1 41.6 14.3 41.4 14.3C41.2 14.3 41.2 14.2 41.2 14C41.2 13.7 41.2 13.4 41.2 13C41.2 12.8 41.1 12.6 40.8 12.6C40.5 12.6 40.4 12.8 40.4 13C40.4 13.2 40.4 13.3 40.4 13.5C40.3 13.7 40.6 14.2 40.2 14.2C39.8 14.2 40.1 13.7 40 13.5C40 13.4 40 13.3 40 13.3Z" fill="#9D9D9C"/>
<path d="M44.7 14.3C44.2 14.3 44.2 14.3 44.2 13.8C44.2 13.2 44.2 12.6 44.2 12C44.2 11.8 44.3 11.6 44.5 11.6C44.8 11.6 45 11.6 45.3 11.7C45.8 11.9 45.9 12.3 45.6 12.7C45.5 12.8 45.3 12.8 45.6 13C45.9 13.2 46 13.5 45.9 13.8C45.8 14.2 45.4 14.3 45.1 14.3C44.9 14.3 44.8 14.3 44.7 14.3ZM44.6 13.4C44.6 13.9 44.6 13.9 44.9 14C45.3 14 45.5 13.8 45.6 13.5C45.6 13.2 45.4 13 45 13C44.4 13 44.6 13.3 44.6 13.4ZM44.6 12.4C44.6 12.5 44.5 12.8 44.9 12.8C45.2 12.8 45.5 12.7 45.5 12.3C45.5 12 45.2 11.9 45 11.9C44.5 11.8 44.5 12 44.6 12.4Z" fill="#9D9D9C"/>
<path d="M57.7 13.7C57.7 13.3 57.7 13 57.7 12.6C57.7 12.4 57.8 12.3 57.9 12.4C58.1 12.7 58.2 12.5 58.4 12.4C58.8 12.2 59.2 12.4 59.4 12.7C59.6 13.1 59.6 13.5 59.4 13.9C59.2 14.2 58.8 14.4 58.5 14.2C58.2 14.1 58.2 14.2 58.2 14.4C58.2 14.6 58.4 14.9 58 14.9C57.7 14.9 57.9 14.5 57.8 14.4C57.7 14.2 57.7 13.9 57.7 13.7ZM59.2 13.3C59.2 12.9 59 12.6 58.7 12.5C58.4 12.5 58.1 12.7 58.1 13.2C58.1 13.7 58.2 13.9 58.6 13.9C58.9 14 59.2 13.7 59.2 13.3Z" fill="#A4A3A2"/>
<path d="M30.8 12.5C31.6 12.1 32.1 12.4 32.1 13.2C32.1 13.4 32.1 13.6 32.1 13.9C32.1 14 32.2 14.2 31.9 14.2C31.6 14.2 31.7 14 31.7 13.8C31.7 13.6 31.7 13.4 31.7 13.2C31.7 12.9 31.7 12.5 31.3 12.5C30.9 12.5 30.8 12.8 30.8 13.2C30.8 13.4 30.8 13.7 30.8 13.9C30.8 14 30.8 14.2 30.6 14.2C30.4 14.2 30.4 14.1 30.4 13.9C30.4 13.1 30.4 12.4 30.4 11.6C30.4 11.5 30.4 11.4 30.6 11.4C30.8 11.4 30.8 11.5 30.8 11.6C30.8 11.9 30.8 12.2 30.8 12.5Z" fill="#A4A3A2"/>
<path d="M22.1 12.8C22.1 12.4 22.1 12.1 22.1 11.7C22.1 11.6 22.1 11.4 22.3 11.4C22.5 11.4 22.5 11.5 22.5 11.7V11.8C22.5 12.1 22.4 12.5 23 12.3C23.4 12.1 23.7 12.5 23.8 12.9C23.8 13.2 23.8 13.6 23.8 14C23.8 14.1 23.8 14.2 23.6 14.2C23.4 14.2 23.4 14.1 23.4 14C23.4 13.7 23.4 13.4 23.4 13C23.4 12.7 23.3 12.6 23 12.6C22.7 12.6 22.6 12.8 22.5 13C22.5 13.2 22.5 13.4 22.5 13.6C22.5 13.8 22.7 14.1 22.3 14.1C21.9 14.1 22.1 13.8 22.1 13.6C22.1 13.4 22.1 13.1 22.1 12.8Z" fill="#A4A3A2"/>
<path d="M27.1 12.9C27.1 12.6 27.1 12.2 27.1 11.9C27.1 11.6 27.2 11.5 27.5 11.5C27.8 11.5 28 11.5 28.3 11.5C28.4 11.5 28.6 11.5 28.6 11.7C28.6 11.9 28.4 11.8 28.3 11.9C28.2 11.9 28.1 11.9 28 11.9C27.5 11.9 27.5 11.9 27.5 12.4C27.5 12.6 27.6 12.7 27.8 12.7C28 12.7 28.1 12.7 28.3 12.7C28.4 12.7 28.5 12.7 28.5 12.8C28.5 12.9 28.4 12.9 28.3 12.9C28.2 12.9 28 12.9 27.9 12.9C27.5 12.8 27.5 13 27.5 13.3C27.5 13.7 27.6 13.8 28 13.8C28.2 13.8 28.6 13.6 28.6 14C28.6 14.3 28.2 14.1 28 14.1C27.1 14.1 27.1 14.1 27.1 13.2C27.1 13.2 27.1 13.1 27.1 12.9Z" fill="#9D9D9C"/>
<path d="M54.7 14.3C54 14.3 54 14.3 54 13.6C54 13.1 54 12.6 54 12C54 11.7 54.1 11.6 54.4 11.6C54.7 11.6 54.9 11.6 55.2 11.6C55.3 11.6 55.5 11.6 55.5 11.8C55.5 12 55.3 11.9 55.2 12C55.1 12 55 12 54.9 12C54.4 12 54.4 12 54.4 12.5C54.4 12.7 54.5 12.8 54.7 12.8C54.9 12.8 55 12.8 55.2 12.8C55.3 12.8 55.4 12.8 55.4 12.9C55.4 13 55.3 13 55.2 13C55.1 13 54.9 13 54.8 13C54.4 12.9 54.4 13.1 54.4 13.4C54.4 13.8 54.5 13.9 54.9 13.9C55.1 13.9 55.5 13.7 55.5 14.1C55.5 14.4 55.1 14.2 54.9 14.2C54.8 14.3 54.7 14.3 54.7 14.3Z" fill="#9D9D9C"/>
<path d="M51.6 13.1C51.9 12.9 52 12.7 52.2 12.5C52.3 12.4 52.5 12.3 52.6 12.4C52.7 12.5 52.6 12.6 52.5 12.7C52.1 13.2 52.1 13.2 52.5 13.7C52.6 13.9 52.7 14 52.9 14.2C52.6 14.3 52.5 14.2 52.3 14C52.3 13.9 52.2 13.9 52.2 13.8C52 13.7 52 13.3 51.8 13.4C51.6 13.5 51.7 13.8 51.7 13.9C51.7 14 51.7 14.2 51.5 14.1C51.3 14.1 51.3 14 51.3 13.8C51.3 13 51.3 12.3 51.3 11.5C51.3 11.4 51.3 11.2 51.5 11.2C51.7 11.2 51.7 11.3 51.7 11.5C51.6 12.2 51.6 12.6 51.6 13.1Z" fill="#A4A3A2"/>
<path d="M39.5 13.4C39.5 13.6 39.5 13.8 39.5 14.1C39.5 14.3 39.4 14.4 39.3 14.3C39.1 14 38.9 14.3 38.8 14.3C38.4 14.4 38.1 14.3 37.9 13.9C37.8 13.5 37.9 13 37.8 12.6C37.8 12.5 37.9 12.4 38 12.4C38.1 12.4 38.2 12.5 38.2 12.6C38.2 12.9 38.2 13.2 38.2 13.5C38.2 13.8 38.2 14 38.6 14C38.9 14 39.1 13.8 39.1 13.4C39.1 13.1 39.1 12.9 39.1 12.6C39.1 12.5 39.1 12.3 39.3 12.3C39.5 12.3 39.5 12.5 39.5 12.6C39.5 12.9 39.5 13.1 39.5 13.4Z" fill="#9D9D9C"/>
<path d="M47.1 13.3C47.1 12.7 47.4 12.3 48 12.3C48.6 12.3 48.9 12.7 48.9 13.3C48.9 13.9 48.5 14.3 48 14.3C47.5 14.3 47.1 13.9 47.1 13.3ZM48 12.6C47.7 12.6 47.4 12.9 47.4 13.3C47.4 13.7 47.6 14 48 14C48.3 14 48.6 13.7 48.6 13.3C48.6 12.9 48.4 12.6 48 12.6Z" fill="#9D9D9C"/>
<path d="M60.7 13.3C60.7 12.7 61.1 12.3 61.6 12.3C62.1 12.3 62.5 12.7 62.5 13.3C62.5 13.9 62.1 14.3 61.6 14.3C61.1 14.3 60.7 13.9 60.7 13.3ZM61.1 13.3C61.1 13.7 61.3 14 61.7 14C62 14 62.3 13.7 62.3 13.3C62.3 12.9 62.1 12.5 61.7 12.5C61.3 12.6 61.1 12.9 61.1 13.3Z" fill="#9D9D9C"/>
<path d="M20.7 13C20.7 12.8 20.7 12.7 20.7 12.5C20.7 12.1 20.7 11.7 20.1 11.9C20 11.9 19.9 11.9 19.9 11.8C19.9 11.6 20 11.6 20.1 11.6C20.6 11.6 21.1 11.6 21.6 11.6C21.7 11.6 21.8 11.6 21.8 11.8C21.8 12 21.7 11.9 21.6 12C21 12 21 12 21 12.6C21 13.1 21 13.6 21 14.1C21 14.2 21 14.4 20.8 14.4C20.6 14.4 20.6 14.3 20.6 14.2C20.7 13.7 20.7 13.4 20.7 13Z" fill="#A4A3A2"/>
<path d="M65.3 14C65.4 14.1 65.7 13.8 65.7 14C65.7 14.3 65.4 14.2 65.3 14.2C64.9 14.2 64.6 14.1 64.4 13.8C64.2 13.4 64.2 13 64.4 12.6C64.6 12.3 64.9 12.2 65.2 12.2C65.6 12.2 65.9 12.6 65.9 13C65.9 13.2 65.8 13.2 65.6 13.2C65.3 13.2 65.1 13.2 64.8 13.2C64.7 13.2 64.6 13.1 64.5 13.3C64.5 13.4 64.5 13.5 64.6 13.6C64.8 14 65.1 14 65.3 14ZM65.1 13.2C65.2 13 65.6 13.3 65.6 13C65.6 12.8 65.4 12.6 65.2 12.6C64.9 12.6 64.7 12.8 64.7 13C64.6 13.3 64.9 13.1 65.1 13.2Z" fill="#9D9D9C"/>
<path d="M36.9 14C37 14.1 37.3 13.8 37.3 14.1C37.3 14.3 37 14.3 36.8 14.3C36.2 14.4 35.8 14 35.8 13.3C35.8 12.7 36.2 12.3 36.8 12.3C37.2 12.3 37.5 12.7 37.5 13.1C37.5 13.3 37.4 13.3 37.2 13.3C37 13.3 36.7 13.3 36.5 13.3C36.4 13.3 36.2 13.2 36.2 13.4C36.2 13.5 36.3 13.7 36.4 13.8C36.4 14 36.6 14 36.9 14ZM36.6 13.1C36.8 13 37.1 13.2 37.1 12.9C37.1 12.7 36.9 12.5 36.7 12.5C36.4 12.5 36.2 12.7 36.2 12.9C36.1 13.3 36.4 13.1 36.6 13.1Z" fill="#9D9D9C"/>
<path d="M33.6 14C33.7 14.1 34 13.8 34 14.1C34 14.4 33.7 14.3 33.5 14.3C32.9 14.4 32.5 14 32.5 13.4C32.5 12.7 32.9 12.3 33.4 12.4C33.8 12.4 34.2 12.8 34.2 13.2C34.2 13.4 34.1 13.4 33.9 13.4C33.7 13.4 33.4 13.4 33.2 13.4C33.1 13.4 32.9 13.3 32.9 13.5C32.9 13.6 33 13.8 33.1 13.9C33.2 14 33.4 14 33.6 14ZM33.4 13.2C33.5 13.1 33.9 13.3 33.9 13C33.9 12.8 33.7 12.6 33.4 12.6C33.1 12.6 32.9 12.8 32.9 13C32.9 13.3 33.2 13.1 33.4 13.2Z" fill="#9D9D9C"/>
<path d="M24.2 13.3C24.2 12.7 24.6 12.3 25.1 12.3C25.5 12.3 25.9 12.7 25.9 13.1C25.9 13.3 25.8 13.3 25.6 13.3C25.3 13.3 25.1 13.3 24.8 13.3C24.7 13.3 24.6 13.2 24.5 13.4C24.5 13.5 24.5 13.6 24.6 13.7C24.8 14 25.1 13.9 25.4 13.9C25.5 13.9 25.6 13.8 25.7 13.9C25.7 14.1 25.6 14.1 25.5 14.1C24.8 14.4 24.2 14 24.2 13.3ZM25 13.1C25.2 13 25.5 13.2 25.5 12.9C25.5 12.7 25.3 12.5 25.1 12.5C24.8 12.5 24.6 12.7 24.6 12.9C24.6 13.3 24.9 13.1 25 13.1Z" fill="#9D9D9C"/>
<path d="M57.4 14.2C56.8 14.3 56.8 13.7 56.5 13.6C56.2 13.8 56.2 14.3 55.7 14.2C55.8 14 55.9 13.8 56.1 13.7C56.4 13.4 56.4 13.1 56.1 12.8C56 12.7 55.9 12.5 55.8 12.3C56.2 12.1 56.3 12.4 56.4 12.6C56.6 12.9 56.7 13 56.9 12.6C57 12.4 57.1 12.1 57.4 12.3C57.6 12.4 57.3 12.7 57.2 12.8C56.9 13.1 57 13.4 57.2 13.6C57.1 13.8 57.2 14 57.4 14.2Z" fill="#9D9D9C"/>
<path d="M29.7 14.2999C29.4 14.2999 29.2 14.0999 29.2 13.7999C29.2 13.4999 29.2 13.3 29.2 13C29.2 12.9 29.3 12.7 29 12.6C28.9 12.5 28.9 12.4 29 12.4C29.4 12.4 29.1 11.7 29.5 11.9C29.7 12 29.8 12.4 30.1 12.5C30.2 12.5 30 12.7 29.9 12.7C29.7 12.7 29.7 12.8 29.7 13C29.7 13.3 29.7 13.4999 29.7 13.7999C29.7 13.8999 29.7 14.1 29.9 14.1C30 14.1 30.2 14.0999 30.1 14.2999C29.9 14.2999 29.8 14.2999 29.7 14.2999Z" fill="#9D9D9C"/>
<path d="M59.9 12.8C59.9 12.4 59.9 12.1 59.9 11.7C59.9 11.6 59.9 11.4 60.1 11.4C60.3 11.4 60.3 11.5 60.3 11.7C60.3 12.4 60.3 13.2 60.3 13.9C60.3 14 60.3 14.2 60.1 14.2C59.9 14.2 59.9 14 59.9 13.9C59.9 13.6 59.9 13.2 59.9 12.8Z" fill="#A4A3A2"/>
<path d="M50.4 14C50.5 14 50.7 13.8 50.7 14.1C50.7 14.3 50.5 14.3 50.4 14.3C50 14.4 49.6 14.2 49.4 13.9C49.2 13.6 49.2 13 49.4 12.7C49.6 12.4 50.1 12.2 50.5 12.3C50.6 12.3 50.7 12.4 50.7 12.5C50.7 12.6 50.5 12.6 50.5 12.6C50.2 12.5 49.9 12.6 49.8 12.9C49.6 13.2 49.6 13.4 49.8 13.7C49.9 14 50.2 14 50.4 14Z" fill="#9D9D9C"/>
<path d="M46.7 12.9C46.7 13.3 46.7 13.7 46.7 14C46.7 14.2 46.7 14.2 46.5 14.2C46.3 14.2 46.3 14.1 46.3 14C46.3 13.2 46.3 12.4 46.3 11.6C46.3 11.5 46.4 11.4 46.5 11.4C46.6 11.4 46.7 11.5 46.7 11.6C46.7 12.1 46.7 12.5 46.7 12.9Z" fill="#A4A3A2"/>
<path d="M34.9 12.6C35 12.5 35.1 12.3 35.3 12.3C35.4 12.3 35.5 12.3 35.5 12.4C35.5 12.5 35.5 12.6 35.4 12.6C35 12.7 34.9 13 34.9 13.3C34.9 13.5 34.9 13.8 34.9 14C34.9 14.1 34.8 14.2 34.7 14.2C34.6 14.2 34.5 14.2 34.5 14C34.5 13.5 34.5 12.9 34.5 12.4C34.5 12.3 34.6 12.3 34.7 12.2C34.9 12.3 34.9 12.5 34.9 12.6Z" fill="#A4A3A2"/>
<path d="M66.3 13.3C66.3 13.1 66.3 12.8 66.3 12.6C66.3 12.4 66.5 12.3 66.6 12.4C66.8 12.8 66.8 12.4 67 12.4C67.1 12.4 67.3 12.3 67.4 12.4C67.5 12.6 67.4 12.6 67.2 12.6C66.9 12.7 66.8 12.9 66.8 13.1C66.8 13.3 66.8 13.6 66.8 13.8C66.8 13.9 66.9 14.2001 66.6 14.2001C66.3 14.2001 66.4 13.9 66.4 13.8C66.3 13.6 66.3 13.5 66.3 13.3Z" fill="#A4A3A2"/>
<path d="M63 13.3C63 13.1 63 12.8 63 12.6C63 12.5 63 12.4 63.1 12.4C63.2 12.4 63.3 12.4 63.3 12.5C63.3 12.7 63.4 12.7 63.5 12.5C63.6 12.4 63.7 12.3 63.8 12.3C63.9 12.3 64 12.3 64 12.4C64 12.5 64 12.6 63.9 12.6C63.4 12.7 63.4 13.1 63.4 13.4C63.4 13.6 63.4 13.7 63.4 13.9C63.4 14 63.4 14.2 63.2 14.2C62.9 14.2 63 14 63 13.9C63 13.7 63.1 13.5 63 13.3Z" fill="#A4A3A2"/>
<path d="M42.3 5.5C42.3 4.8 42.3 4.79999 43 4.79999C43.5 4.79999 43.8 4.99999 43.8 5.39999C43.8 5.79999 43.6 6.10001 43.1 6.20001C42.3 6.30001 42.3 6.3 42.3 5.5Z" fill="#FDFDFD"/>
<path d="M58.3 7.10004C58.3 6.90004 58.4 6.80002 58.4 6.80002C58.6 6.30002 58.7 5.90002 58.9 5.40002C59.1 6.00002 59.3 6.50003 59.4 7.00003C59.5 7.20003 59.4 7.20004 59.2 7.20004C59 7.10004 58.7 7.10004 58.3 7.10004Z" fill="#FDFDFD"/>
<path d="M44.6 13.4C44.6 13.2 44.5 12.9 44.9 12.9C45.3 12.9 45.5 13.1 45.5 13.4C45.5 13.7 45.2 13.9 44.8 13.9C44.6 14 44.6 14 44.6 13.4Z" fill="#FDFDFD"/>
<path d="M44.6 12.4C44.6 12.1 44.6 11.9 44.9 11.9C45.2 11.9 45.4 12 45.4 12.3C45.4 12.7 45.1 12.7 44.8 12.8C44.4 12.8 44.6 12.5 44.6 12.4Z" fill="#FDFDFD"/>
<path d="M59.2 13.3C59.2 13.7 58.9 14 58.6 14C58.3 14 58.1 13.8 58.1 13.3C58.1 12.9 58.3 12.6 58.7 12.6C59 12.6 59.2 12.9 59.2 13.3Z" fill="#FDFDFD"/>
<path d="M48 12.6C48.3 12.6 48.6 12.9 48.6 13.3C48.6 13.7 48.4 14 48 14C47.6 14 47.4 13.7 47.4 13.3C47.5 12.9 47.7 12.6 48 12.6Z" fill="#FDFDFD"/>
<path d="M61.1 13.3C61.1 12.9 61.3 12.6 61.7 12.6C62.1 12.6 62.3 12.9 62.3 13.4C62.3 13.8 62.1 14.1 61.7 14.1C61.3 14 61.1 13.7 61.1 13.3Z" fill="#FDFDFD"/>
<path d="M65.1 13.2C64.9 13.1 64.6 13.3 64.6 13C64.6 12.8 64.8 12.6 65.1 12.6C65.4 12.6 65.6 12.8 65.5 13C65.5 13.3 65.2 13 65.1 13.2Z" fill="#FDFDFD"/>
<path d="M36.6 13.1C36.5 13 36.2 13.2 36.2 12.9C36.2 12.7 36.4 12.5 36.7 12.5C37 12.5 37.2 12.7 37.1 12.9C37 13.3 36.7 13.1 36.6 13.1Z" fill="#FDFDFD"/>
<path d="M33.4 13.2C33.2 13.1 32.9 13.3 32.9 13C32.9 12.8 33.1 12.6 33.4 12.6C33.7 12.6 33.9 12.7 33.9 13C33.8 13.3 33.5 13 33.4 13.2Z" fill="#FDFDFD"/>
<path d="M25 13.1C24.9 13 24.6 13.2 24.6 12.9C24.6 12.7 24.8 12.5 25.1 12.5C25.4 12.5 25.6 12.7 25.5 12.9C25.5 13.3 25.2 13.1 25 13.1Z" fill="#FDFDFD"/>
</svg>
