<svg xmlns="http://www.w3.org/2000/svg" width="232" height="49" viewBox="0 0 232 49"><g><g><path fill="#17679a" d="M175.357 41.576c-2.706.01-5.412.008-8.118.04-.481.004-.598-.193-.557-.606.036-.364-.167-.78.516-.853 1.549-.164 1.86-.47 1.903-2.059.072-2.727.048-5.457.054-8.187.007-2.697.002-5.396.002-8.15-.427.153-.41.541-.512.823a3678.766 3678.766 0 0 0-6.541 18.183c-.236.664-.558.897-1.268.892-.693-.005-1.012-.189-1.26-.875-2.19-6.09-4.428-12.162-6.655-18.239-.094-.257-.206-.508-.318-.782-.343.178-.183.457-.184.658-.011 5.056-.01 10.112-.003 15.167 0 .34.035.681.084 1.017.136.952.636 1.546 1.657 1.531.628-.009.753.283.762.858.012.712-.42.613-.852.613-1.991-.003-3.982-.012-5.973.007-.504.004-.816-.036-.78-.682.03-.51.08-.735.7-.763 1.919-.085 2.332-.557 2.332-2.438.002-5.118 0-10.236-.001-15.353-.001-1.797-.394-2.264-2.19-2.396-.708-.052-.883-.327-.835-.98.03-.435.21-.506.578-.504 2.115.01 4.23.02 6.346-.008.537-.007.672.296.818.698 2 5.5 4.008 10.997 6.014 16.495.106.29.217.578.339.904.376-.19.375-.558.48-.85 1.998-5.5 4-11 5.963-16.515.205-.575.464-.743 1.053-.73 2.146.045 4.292.034 6.438.045l-.01 1.368c-2.7.167-2.983.471-2.983 3.198-.001 4.74-.002 9.48 0 14.221 0 2.291.383 2.701 2.636 2.863.122.01.24.051.36.078l.005 1.311z"/></g><g><path fill="#17679a" d="M117.392 18.857c3.023.8 4.417 2.41 4.692 5.465.23 2.55-1.163 4.809-3.77 5.929-.792.34-.94.59-.43 1.343 1.497 2.205 2.902 4.472 4.367 6.699.624.947 1.349 1.776 2.613 1.89.646.058.342.612.394.962.058.387-.192.46-.52.452-.868-.025-1.742.004-2.608-.065-1.382-.11-2.478-.727-3.215-1.94-1.465-2.408-2.968-4.795-4.405-7.22-.372-.627-.76-.998-1.524-.872-.302.05-.623.037-.93.002-.584-.067-.736.175-.727.738.032 1.983-.002 3.968.017 5.95.01 1.284.569 1.827 1.866 1.952.386.037.893-.135 1.122.244.153.25.112.675.038.993-.086.37-.466.22-.718.22-2.674.01-5.348-.002-8.022.017-.513.004-.788-.052-.791-.685-.003-.65.243-.757.823-.77 1.695-.04 2.294-.67 2.296-2.334.003-5.083-.02-10.166.005-15.25.008-1.678-.51-2.713-2.403-2.635-.711.03-.68-.402-.703-.9-.028-.59.334-.544.722-.543 1.648.005 3.295.002 5.472.002 1.76.117 4.073-.244 6.339.356zm-6.048 10.36c-.01.484.145.667.637.648.838-.033 1.682.024 2.519-.032 2.179-.146 3.44-1.176 3.824-3.146a9.48 9.48 0 0 0 .026-3.518c-.286-1.565-1.232-2.528-2.8-2.864-1.23-.264-2.476-.162-3.72-.164-.533-.001-.48.358-.478.703v4.094c0 1.427.017 2.854-.008 4.28z"/></g><g><path fill="#17679a" d="M84.09 24.795c1.384-4.36 4.781-6.724 9.525-6.676 5.642.058 9.371 3.424 10.087 9.02.388 3.026.351 6-.813 8.864-1.47 3.615-4.205 5.584-8.094 5.908-3.266.27-6.268-.355-8.581-2.89-1.745-1.912-2.442-4.27-2.718-6.777-.061-.554-.071-1.113-.104-1.67-.069-1.962.103-3.903.698-5.78zm15.443-.41c-.619-2.04-1.753-3.685-3.949-4.175-4.291-.96-7.028.895-7.963 4.752-.828 3.419-.746 6.88.045 10.3.691 2.99 2.784 4.793 5.461 4.85 3.574.077 5.503-1.306 6.475-4.617.52-1.772.613-3.591.639-4.73-.027-2.611-.145-4.525-.708-6.38z"/></g><g><path fill="#cf834a" d="M2.183 13.083c.99-.743 2.033-1.122 3.009-1.608 6.994-3.493 14.003-6.954 20.99-10.46.673-.337 1.195-.271 1.819.04 7.295 3.64 14.597 7.265 21.898 10.894.635.317 1.268.639 1.902.96l-.05.174zm41.7-1.874c-.427-.235-.683-.387-.95-.52-5.02-2.5-10.048-4.987-15.058-7.51-.6-.301-1.062-.278-1.646.018-3.513 1.776-7.045 3.514-10.57 5.268-1.735.864-3.467 1.732-5.201 2.599l.05.145z"/></g><g><path fill="#17679a" d="M142.839 29.028c0 2.016.005 4.031-.001 6.047-.011 3.58-1.815 5.861-5.308 6.603-1.965.418-3.951.434-5.92-.049-3.126-.769-4.92-2.88-4.977-6.109-.08-4.34-.036-8.683-.047-13.024-.005-1.943-.417-2.39-2.372-2.495-.517-.028-.701-.215-.72-.726-.02-.513.076-.629.653-.666 1.603-.103 3.186-.176 4.787.06 1.103.162 2.202-.275 3.32-.162.38.038.83-.127.809.553-.015.523-.058.837-.716.906-2.096.22-2.336.52-2.342 2.622-.012 4.124-.024 8.25-.023 12.373 0 3.002 1.73 4.801 4.742 4.964 1.419.077 2.797-.035 4.037-.827 1.493-.952 1.999-2.41 2.01-4.066.029-4.34.026-8.683.009-13.024-.005-1.298-.635-1.9-1.933-2.024-.36-.034-.837.097-1.031-.256-.146-.264-.108-.676-.04-.998.083-.386.464-.22.712-.22 2.24-.014 4.479 0 6.719-.018.478-.004.75.055.724.641-.022.5-.074.774-.686.83-1.98.178-2.376.643-2.387 2.646-.011 2.14-.003 4.28-.003 6.42z"/></g><g><path fill="#cf834a" d="M175.352 40.265c.463-.046.927-.086 1.388-.14.912-.108 1.481-.594 1.617-1.517.06-.396.091-.8.092-1.202.006-4.71.02-9.423-.002-14.134-.01-2.64-.077-3.295-3.108-3.367l.01-1.368c3.636-.004 7.284-.185 10.906.04 3.57.222 6.311 2.422 6.332 6.615.025 4.811-3.232 7.098-7.35 7.438-.896.073-1.803.043-2.704.012-.516-.017-.715.14-.706.678.03 1.642-.004 3.285.022 4.927.02 1.257.562 1.79 1.818 1.88.434.03.867.08 1.301.092.572.015.596.367.608.815.014.548-.287.586-.708.583-3.17-.02-6.34-.029-9.512-.04 0-.438-.002-.875-.004-1.312zm6.504-11.806c0 2.835 0 2.835 2.903 2.52 2.245-.244 3.613-1.342 4.004-3.264.28-1.377.323-2.76.053-4.154-.403-2.08-1.716-3.273-3.829-3.386-.775-.04-1.555-.01-2.33-.05-.597-.032-.824.187-.81.8.033 1.55.011 3.1.01 4.65v2.884z"/></g><g><path fill="#cf834a" d="M208.913 41.605c-1.275 0-2.55-.023-3.825.01-.569.016-.668-.24-.66-.725.006-.471.084-.72.654-.752 1.93-.11 2.335-.742 1.708-2.557-.333-.965-.698-1.92-1.017-2.89-.164-.498-.402-.75-.987-.742-2.332.03-4.665.02-6.997-.01-.55-.005-.843.155-1.012.703-.33 1.063-.753 2.096-1.102 3.153-.475 1.44.021 2.193 1.512 2.354.216.024.431.082.647.08.581 0 .591.36.608.806.02.559-.29.582-.706.58-2.239-.008-4.478-.001-6.718-.005-.33 0-.736.077-.685-.478.033-.37-.153-.921.49-.89 1.578.078 2.02-1.047 2.46-2.203 1.851-4.891 3.706-9.78 5.558-14.67.527-1.39 1.075-2.771 1.562-4.174.183-.53.448-.731 1.01-.707 2.301.097 1.715-.435 2.557 1.816a2817.534 2817.534 0 0 1 6.731 18.21c.366 1 .903 1.69 2.057 1.67.602-.01.67.344.683.845.018.65-.389.575-.796.574-1.244-.004-2.488-.002-3.732-.002zm-7.983-18.4c-.824 2.764-1.919 5.43-2.942 8.123-.305.804-.095.924.67.907a131.95 131.95 0 0 1 5.412.006c.65.012.794-.112.556-.78-1.104-3.088-2.298-6.147-3.29-9.564-.192.617-.303.96-.406 1.308z"/></g><g><path fill="#cf834a" d="M221.747 30.386c1.136-2.058 2.182-3.947 3.223-5.838.313-.57.647-1.131.916-1.721.777-1.708.382-3.02-1.566-2.866-.608.048-1.032-.111-.962-.872.039-.431.186-.593.624-.591 2.27.012 4.54.01 6.81-.006.45-.003.628.17.579.605-.041.364.176.857-.496.88-.847.03-1.348.596-1.745 1.239-2.086 3.37-4 6.842-5.945 10.295a2.258 2.258 0 0 0-.281 1.158c.01 1.736 0 3.472.01 5.209.009 1.627.495 2.118 2.145 2.288.552.056 1.347-.165 1.245.885-.036.375-.122.562-.536.56-3.048-.007-6.096-.01-9.144.008-.557.004-.59-.298-.57-.71.019-.367-.07-.784.527-.756.31.014.622-.002.932-.016 1.32-.057 1.903-.657 1.916-1.971.019-1.83.03-3.658.056-5.488.005-.38-.045-.73-.242-1.068a2607.577 2607.577 0 0 1-6.037-10.351c-.432-.746-.977-1.28-1.892-1.293-.641-.011-.506-.478-.531-.866-.03-.435.147-.596.594-.594 2.613.014 5.225.017 7.838-.003.584-.005.543.343.55.73.009.407-.007.767-.566.716a.58.58 0 0 0-.093.002c-2.148.162-2.434.716-1.377 2.645 1.026 1.875 2.056 3.747 3.058 5.634.332.625.58 1.294.96 2.156z"/></g><g><path fill="#17679a" d="M72.418 18.512c2.458 0 4.916.035 7.372-.021.773-.018.935.245.925.944-.018 1.363.042 2.728.092 4.092.014.37.059.757-.474.618-.452-.117-1.19.486-1.327-.486a37.596 37.596 0 0 0-.17-1.102c-.253-1.476-1.081-2.29-2.564-2.344-1.677-.063-3.36-.011-5.04-.033-.44-.006-.598.143-.596.587.013 2.698.02 5.396-.007 8.094-.007.625.337.607.77.606 2.084-.007 4.169.024 6.253-.016.65-.012.837.167.838.824.002.672-.223.827-.854.816-2.022-.037-4.045.022-6.066-.036-.8-.022-.988.244-.965.999.055 1.735.01 3.473.02 5.209.014 2.41.47 2.909 2.876 2.886.822-.008.916.332.872.987-.024.359-.142.485-.495.484-3.05-.006-6.098-.012-9.146.004-.521.003-.54-.286-.507-.654.03-.336-.153-.8.474-.793.31.002.624-.01.93-.051.995-.133 1.604-.741 1.607-1.727.015-5.551.017-11.103-.006-16.654-.004-1.117-.63-1.622-1.871-1.767-.387-.045-.923.184-1.12-.387-.246-.713.034-1.077.806-1.078 2.458-.002 4.915-.001 7.373-.001z"/></g><g><path fill="#cf834a" d="M25.242 29.703V19.19c0-1.454-.338-1.895-1.756-2.295a7.666 7.666 0 0 0-.82-.176c-.906-.15-1.28-.796-.98-1.646.118-.336.371-.279.603-.28 3.173-.004 6.346.014 9.518-.013.807-.007.58.56.627.958.05.416.148.918-.543.938a3.573 3.573 0 0 0-.555.063c-2.11.385-2.413.741-2.413 2.851 0 6.977-.016 13.954.02 20.931.004.833-.228 1.125-1.045 1.024-.853-.107-1.962.373-2.506-.202-.493-.52-.146-1.6-.149-2.433-.012-3.069-.005-6.139-.005-9.209z"/></g><g><path fill="#cf834a" d="M19.989 28.167c-.001 4.124-.017 8.248.013 12.371.006.75-.188 1.093-.986 1.01-.86-.089-1.96.35-2.528-.168-.584-.532-.187-1.642-.19-2.495-.016-6.542-.005-13.085-.006-19.627-.001-1.574-.43-2.095-1.964-2.417-.273-.057-.55-.098-.826-.143-.652-.108-1.1-1.176-.728-1.739.149-.225.387-.164.594-.165 1.96-.004 3.92.031 5.878-.018.77-.019.75.39.75.927-.01 4.154-.006 8.31-.007 12.464z"/></g><g><path fill="#cf834a" d="M11.041 28.192c0 4.124-.018 8.25.017 12.373.006.78-.236 1.057-1.006.986a8.798 8.798 0 0 0-1.77.002c-.828.093-.975-.282-.961-1.012.043-2.232.021-4.466.022-6.698.001-4.869.001-9.737-.001-14.606-.001-1.629-.351-2.057-1.954-2.399-.213-.046-.429-.074-.644-.107-.872-.135-1.268-.869-.935-1.686.134-.33.398-.25.625-.25 1.929-.008 3.858.023 5.785-.015.667-.013.842.215.836.853-.03 2.977-.014 5.954-.014 8.931v3.628z"/></g><g><path fill="#cf834a" d="M34.186 28.138c0-4.156.014-8.312-.014-12.467-.005-.682.168-.915.883-.895 1.834.05 3.67.017 5.505.015.408 0 .901-.06.776.574-.093.473.461 1.281-.615 1.32-.276.01-.55.095-.825.147-1.676.321-2.1.81-2.1 2.488.001 7.01.01 14.018.013 21.026 0 1.196-.003 1.195-1.228 1.192-.529 0-1.062-.042-1.586.012-.687.071-.828-.233-.825-.852.021-4.186.011-8.373.011-12.56z"/></g><g><path fill="#cf834a" d="M43.135 28.17c0-4.153.016-8.305-.015-12.456-.006-.723.188-.96.934-.939 1.831.053 3.666.02 5.5.015.397-.002.83 0 .694.553-.115.468.477 1.195-.582 1.36-2.873.447-2.93.551-2.93 3.41.003 6.753-.01 13.508.033 20.262.005.951-.274 1.21-1.216 1.185-2.43-.062-2.429-.017-2.427-2.423.002-3.656 0-7.312 0-10.968z"/></g><g><path fill="#cf834a" d="M27.02 45.079H4.81c-.988 0-1.43-.699-1.056-1.634.087-.217.236-.27.428-.277.342-.014.684-.021 1.026-.021 14.62-.002 29.238-.002 43.858-.001 1.14 0 1.511.507 1.2 1.594-.079.273-.244.327-.478.327-.218-.001-.436.001-.653.001H27.02z"/></g><g><path fill="#cf834a" d="M27.025 48.526H1.277c-.946 0-1.346-.593-1.016-1.475.142-.378.451-.272.705-.274 1.523-.012 3.047-.006 4.571-.006 15.735 0 31.47.003 47.205-.01.702 0 1.186.018 1.117.962-.048.674-.292.812-.899.808-3.607-.02-7.215-.01-10.822-.01H27.025z"/></g></g></svg>