<svg xmlns="http://www.w3.org/2000/svg" viewBox="0 0 534.93701 354.01709"><defs><style>.a{font-size:101.97109px;fill:#80f741;font-family:AcierBATText-Gris, Acier BAT;letter-spacing:0.26em;}.b{letter-spacing:0.24001em;}.c{letter-spacing:0.26em;}.d{fill:none;stroke:#5ff70f;stroke-linecap:round;stroke-miterlimit:10;stroke-width:2px;}</style></defs><text class="a" transform="translate(-0.00015 192.2879)">G<tspan class="b" x="101.97021" y="0">C</tspan><tspan class="c" x="193.64307" y="0">ARDS</tspan></text><path d="M202.64111,120.79346V80.2749q0-17.0625-9.458-25.14306a35.04088,35.04088,0,0,0-44.751,0Q138.9817,63.209,138.97461,80.2749V96.88379H91.91748V80.2749q0-19.83032,6.91992-35.0625a77.26974,77.26974,0,0,1,17.99317-25.374A82.85883,82.85883,0,0,1,199.18066,5.0752a78.04084,78.04084,0,0,1,25.14356,14.76318,74.076,74.076,0,0,1,18.4541,25.374q6.91992,15.22485,6.92041,35.0625v40.51856Z"/><path d="M176.34375,261.92188l-37.36914,0v11.82032q0,17.07422,9.45752,25.14355a35.04252,35.04252,0,0,0,44.751,0q9.46142-8.06616,9.458-25.14355V204.21191h47.05762v69.53028q0,20.76123-6.92041,35.52441a70.35558,70.35558,0,0,1-18.4541,24.45117,73.90659,73.90659,0,0,1-25.14356,15.22461,81.85379,81.85379,0,0,1-56.7456,0,79.0794,79.0794,0,0,1-25.60449-15.22461A73.23578,73.23578,0,0,1,98.8374,309.2666q-6.91992-14.75976-6.91992-35.52441v-53.3418h84.42627Z"/><path d="M393.63721,273.74219q0,9.68847-2.76856,16.14746a28.07246,28.07246,0,0,1-6.91992,10.14941,29.52679,29.52679,0,0,1-9.91894,5.30567,34.05682,34.05682,0,0,1-9.91895,1.61474q-16.15429,0-22.376-9.688-6.227-9.68847-6.22754-23.99023V204.21191H288.44971v72.29883q0,22.60914,7.15039,37.13867a71.37983,71.37983,0,0,0,18.22363,23.75879,64.29485,64.29485,0,0,0,24.91309,12.918,105.42623,105.42623,0,0,0,27.21972,3.69092,69.57249,69.57249,0,0,0,29.29492-6.228,76.74453,76.74453,0,0,0,23.75977-16.83935,79.88459,79.88459,0,0,0,15.917-24.22119,73.17268,73.17268,0,0,0,5.7666-28.834V257.59521H393.63721Z"/><path d="M434.92822,46.82715a77.25029,77.25029,0,0,0-15.917-25.14356Q398.25.00391,365.03369,0a81.4092,81.4092,0,0,0-31.1416,5.76709,72.9736,72.9736,0,0,0-24.2207,15.9165,70.56441,70.56441,0,0,0-15.68555,23.99024,80.02078,80.02078,0,0,0-5.53613,29.98779v45.13184h47.05761V85.34961q0-16.60841,5.76661-27.4502,5.76268-10.834,23.29785-10.84179,13.37549,0,21.22265,10.1499a38.11312,38.11312,0,0,1,7.84278,23.99023v15.686h47.05761V78.42969A84.99038,84.99038,0,0,0,434.92822,46.82715Z"/><path class="d" d="M228.34747,217.95752s18.8687,116.58124-57.95373,118.603c-69.38571,1.82607-58.62763-97.03907-58.62763-97.03907h46.49774"/><path class="d" d="M111.76611,82.0498s-2.02161-57.95361,60.6493-57.95361,55.25824,82.21338,55.25824,82.21338"/><path class="d" d="M421.07019,279.73438S423.0918,337.688,360.4209,337.688c-48.28449,0-54.96834-48.80068-55.4926-71.20556-.1562-6.67555-.43225-49.87284-.43225-49.87284"/><path class="d" d="M420.90022,78.33678s2.0216-57.95362-60.6493-57.95362c-48.28448,0-54.96834,48.80069-55.49259,71.20556-.1562,6.67555-.26228,16.74247-.26228,16.74247"/></svg>