<svg width="30" height="31" viewBox="0 0 30 31" fill="none" xmlns="http://www.w3.org/2000/svg">
<path d="M15.1 30.0799C23.0087 30.0799 29.42 23.6687 29.42 15.7599C29.42 7.85122 23.0087 1.43994 15.1 1.43994C7.19131 1.43994 0.780029 7.85122 0.780029 15.7599C0.780029 23.6687 7.19131 30.0799 15.1 30.0799Z" stroke="#300475" stroke-miterlimit="10"/>
<path d="M18.4101 29.07V25.7099C18.4605 25.0135 18.3038 24.3177 17.96 23.7099C17.85 23.5399 17.71 23.3799 17.59 23.2099C18.09 23.1199 18.59 23.0499 19.09 22.9199C20.4073 22.6666 21.5815 21.928 22.38 20.8501C22.962 20.0177 23.3076 19.0431 23.38 18.03C23.4552 17.3053 23.4552 16.5748 23.38 15.8501C23.2713 14.9809 22.8897 14.1685 22.2901 13.53C22.2433 13.4863 22.2106 13.4295 22.1963 13.3671C22.1821 13.3048 22.1868 13.2395 22.21 13.1799C22.547 12.1571 22.4937 11.0458 22.0601 10.06C22.039 10.0235 22.01 9.99191 21.9755 9.96773C21.9409 9.94354 21.9015 9.92721 21.86 9.91988C21.4222 9.87215 20.9801 9.95568 20.59 10.1599C19.94 10.4599 19.32 10.7999 18.69 11.1599C18.6201 11.202 18.5423 11.2292 18.4614 11.2397C18.3806 11.2502 18.2983 11.2438 18.22 11.2209C16.2749 10.721 14.2351 10.721 12.2901 11.2209C12.2023 11.2465 12.1097 11.2519 12.0196 11.2363C11.9294 11.2207 11.8441 11.1847 11.77 11.1311C10.9915 10.6058 10.1291 10.2167 9.21999 9.98091C8.55999 9.81091 8.44999 9.88096 8.21999 10.531C7.92994 11.4144 7.92994 12.3675 8.21999 13.2509C8.23712 13.2886 8.24599 13.3297 8.24599 13.371C8.24599 13.4124 8.23712 13.4532 8.21999 13.4909C7.72587 14.0788 7.36458 14.7666 7.16091 15.507C6.95725 16.2475 6.91609 17.0231 7.04006 17.781C7.10955 18.6848 7.35047 19.5673 7.75002 20.3811C8.03157 20.9287 8.41992 21.4143 8.89223 21.8093C9.36455 22.2043 9.91127 22.5006 10.5 22.6809C11.25 22.9409 12.04 23.0809 12.76 23.2609C12.6 23.5509 12.41 23.8809 12.23 24.2609C12.1678 24.3894 12.1305 24.5285 12.12 24.6709C12.119 24.7747 12.0813 24.8749 12.0136 24.9536C11.9459 25.0323 11.8525 25.0845 11.75 25.101C11.1432 25.383 10.4526 25.4264 9.81533 25.2226C9.17802 25.0188 8.64069 24.5826 8.31008 24.0009C8.10092 23.5486 7.75442 23.1738 7.31997 22.9296C6.88552 22.6855 6.38518 22.5845 5.89004 22.6411C5.70004 22.6411 5.63004 22.8009 5.77004 22.9609C5.87307 23.112 6.00167 23.2441 6.15005 23.351C6.77774 23.7555 7.25819 24.3517 7.52004 25.051C7.66435 25.4708 7.89996 25.8532 8.20998 26.1709C8.73362 26.6279 9.40495 26.8803 10.1 26.8811H11.97V29.081C11.9769 29.1902 11.9599 29.2994 11.9202 29.4013C11.8805 29.5032 11.819 29.5952 11.74 29.6709C13.9908 30.244 16.3492 30.244 18.6 29.6709C18.5279 29.5898 18.4738 29.4947 18.4411 29.3913C18.4083 29.2879 18.3977 29.1787 18.4101 29.071V29.07Z" fill="#300475"/>
</svg>
