<svg width="194" height="178" viewBox="0 0 194 178" fill="none" xmlns="http://www.w3.org/2000/svg">
<g clip-path="url(#clip0)">
<path d="M11.6873 121.846C12.1392 121.846 12.5867 121.935 13.0042 122.108C13.4217 122.281 13.8011 122.534 14.1206 122.854C14.4402 123.173 14.6937 123.553 14.8666 123.97C15.0396 124.388 15.1286 124.835 15.1286 125.287C15.1286 126.2 14.766 127.075 14.1207 127.72C13.4753 128.366 12.6 128.728 11.6873 128.728C10.7747 128.728 9.89937 128.366 9.25401 127.72C8.60865 127.075 8.24609 126.2 8.24609 125.287C8.24609 124.374 8.60865 123.499 9.25401 122.854C9.89937 122.208 10.7747 121.846 11.6873 121.846L11.6873 121.846Z" fill="white"/>
<path d="M5.16438 106.443C5.16438 105.016 4.00829 103.86 2.58219 103.86C1.15609 103.86 0 105.016 0 106.443C0 107.869 1.15609 109.025 2.58219 109.025C4.00829 109.025 5.16438 107.869 5.16438 106.443Z" fill="white"/>
<path d="M15.7184 95.044C16.0765 95.044 16.4199 95.1862 16.6731 95.4394C16.9263 95.6926 17.0686 96.0361 17.0686 96.3942C17.0686 96.7523 16.9263 97.0957 16.6731 97.3489C16.4199 97.6021 16.0765 97.7444 15.7184 97.7444C15.3603 97.7444 15.0169 97.6021 14.7636 97.3489C14.5104 97.0957 14.3682 96.7523 14.3682 96.3941C14.3682 96.0361 14.5104 95.6926 14.7636 95.4394C15.0168 95.1862 15.3603 95.0439 15.7184 95.0439V95.044Z" fill="white"/>
<path d="M189.38 96.1943H189.38C187.307 96.1943 185.627 97.8745 185.627 99.9472V99.9472C185.627 102.02 187.307 103.7 189.38 103.7H189.38C191.452 103.7 193.133 102.02 193.133 99.9472V99.9472C193.133 97.8745 191.452 96.1943 189.38 96.1943Z" fill="white"/>
<path d="M176.124 112.596C176.446 112.596 176.764 112.659 177.061 112.782C177.358 112.905 177.628 113.086 177.856 113.313C178.083 113.54 178.264 113.81 178.387 114.108C178.51 114.405 178.573 114.723 178.573 115.045C178.573 115.694 178.315 116.317 177.856 116.777C177.397 117.236 176.774 117.494 176.124 117.494C175.474 117.494 174.851 117.236 174.392 116.777C173.933 116.317 173.675 115.694 173.675 115.045C173.675 114.723 173.738 114.405 173.861 114.108C173.984 113.81 174.165 113.54 174.392 113.313C174.62 113.086 174.89 112.905 175.187 112.782C175.484 112.659 175.802 112.596 176.124 112.596Z" fill="white"/>
<path d="M181.076 87.1229C181.076 86.2574 180.374 85.5557 179.509 85.5557C178.643 85.5557 177.941 86.2574 177.941 87.1229C177.941 87.9885 178.643 88.6902 179.509 88.6902C180.374 88.6902 181.076 87.9885 181.076 87.1229Z" fill="white"/>
<g opacity="0.6">
<path opacity="0.4" d="M96.7351 177.562C136.878 177.562 169.419 145.02 169.419 104.878C169.419 64.7352 136.878 32.1934 96.7351 32.1934C56.5927 32.1934 24.0508 64.7352 24.0508 104.878C24.0508 145.02 56.5927 177.562 96.7351 177.562Z" fill="white"/>
</g>
<g opacity="0.2">
<path opacity="0.2" d="M130.478 114.073V106.194L130.515 100.997C130.513 100.941 130.525 100.886 130.55 100.836C130.575 100.787 130.613 100.744 130.658 100.712C130.761 100.643 130.857 100.564 130.946 100.477L135.19 96.2822C135.919 95.7552 136.527 95.0781 136.972 94.2965C137.746 92.931 138.267 91.4369 138.51 89.8861L140.966 76.3758L140.974 76.324C141.12 75.4096 140.978 74.4725 140.568 73.6423C140.157 72.8122 139.499 72.13 138.685 71.69C139.573 68.3017 140.022 64.8133 140.02 61.3106C140.031 53.4246 137.732 45.7081 133.407 39.1136C123.711 33.562 112.894 30.2519 101.752 29.4263C90.6093 28.6007 79.4232 30.2804 69.0146 34.3423C62.3965 41.7578 58.7504 51.3564 58.7762 61.2957C58.7734 64.8034 59.2224 68.2969 60.112 71.6899C59.2972 72.13 58.6393 72.8122 58.229 73.6423C57.8188 74.4725 57.6766 75.4096 57.8221 76.324L57.8308 76.3758L60.2868 89.8863C60.5293 91.437 61.0502 92.9311 61.8242 94.2966C62.2696 95.0782 62.8773 95.7552 63.6063 96.2822L67.8509 100.477C67.9392 100.564 68.0353 100.643 68.1382 100.712C68.1825 100.742 68.2187 100.782 68.2438 100.83C68.2689 100.877 68.2819 100.929 68.2819 100.983L68.3186 106.208V114.087C67.4073 114.311 66.5971 114.833 66.0173 115.57C65.4374 116.308 65.1215 117.219 65.1198 118.157V161.245C73.1182 161.132 81.6788 161.062 90.6 161.041V118.157C90.5984 117.237 90.2944 116.343 89.7349 115.612C89.1754 114.881 88.3914 114.355 87.5034 114.114L87.5512 106.095C87.9118 104.175 88.0165 102.217 87.8626 100.27C91.6063 101.37 95.4887 101.928 99.3908 101.925H99.3988C103.303 101.928 107.188 101.371 110.934 100.27C110.78 102.217 110.885 104.175 111.245 106.095L111.293 114.128C110.418 114.379 109.648 114.908 109.1 115.635C108.551 116.361 108.254 117.246 108.252 118.157V161.064C117.254 161.11 125.818 161.207 133.733 161.346V118.157C133.731 117.209 133.409 116.289 132.818 115.547C132.227 114.806 131.402 114.286 130.478 114.073Z" fill="#371A45"/>
</g>
<g opacity="0.3">
<g style="mix-blend-mode:multiply" opacity="0.35">
<path d="M183.905 164.296C183.905 162.494 144.656 161.034 96.2399 161.034C47.824 161.034 8.5752 162.494 8.5752 164.296C8.5752 165.337 21.6907 166.264 42.1108 166.861C46.5171 168.029 63.6012 168.899 84.0048 168.899C101.091 168.899 115.849 168.289 122.784 167.405C158.223 166.986 183.905 165.753 183.905 164.296Z" fill="#371A45"/>
</g>
</g>
<path d="M175.79 163.412H16.6906C16.5584 163.412 16.4274 163.387 16.3051 163.336C16.1828 163.286 16.0717 163.212 15.978 163.119C15.8844 163.025 15.8101 162.915 15.7594 162.792C15.7087 162.67 15.6826 162.539 15.6826 162.407C15.6826 162.275 15.7087 162.144 15.7594 162.022C15.8101 161.9 15.8844 161.789 15.978 161.696C16.0717 161.602 16.1828 161.528 16.3051 161.478C16.4274 161.428 16.5584 161.402 16.6906 161.402H175.79C175.922 161.402 176.053 161.428 176.176 161.478C176.298 161.528 176.409 161.602 176.503 161.696C176.596 161.789 176.671 161.9 176.721 162.022C176.772 162.144 176.798 162.275 176.798 162.407C176.798 162.539 176.772 162.67 176.721 162.792C176.671 162.915 176.596 163.025 176.503 163.119C176.409 163.212 176.298 163.286 176.176 163.336C176.053 163.387 175.922 163.412 175.79 163.412Z" fill="#371A45"/>
<path d="M96.2403 98.0499C118.12 98.0499 135.858 80.3127 135.858 58.4327C135.858 36.5527 118.12 18.8154 96.2403 18.8154C74.3603 18.8154 56.623 36.5527 56.623 58.4327C56.623 80.3127 74.3603 98.0499 96.2403 98.0499Z" fill="#FDD835"/>
<path d="M96.2398 99.0546H96.2324C85.4588 99.0536 75.1268 94.7728 67.5095 87.154C59.8921 79.5351 55.6132 69.2024 55.6143 58.4287C55.6153 47.6551 59.8961 37.3231 67.5149 29.7057C75.1337 22.0884 85.4665 17.8095 96.2401 17.8105H96.2478C107.021 17.8116 117.353 22.0924 124.971 29.7113C132.588 37.3302 136.867 47.6629 136.866 58.4366C136.865 69.2102 132.584 79.5422 124.965 87.1595C117.346 94.7769 107.013 99.0557 96.2398 99.0546H96.2398ZM96.2401 19.8201C86.0028 19.8243 76.1862 23.8938 68.9485 31.1338C61.7108 38.3738 57.6444 48.1918 57.6435 58.4291C57.6426 68.6664 61.7071 78.4851 68.9435 85.7264C76.1799 92.9678 85.9958 97.039 96.2331 97.045H96.2399C106.477 97.0409 116.294 92.9715 123.532 85.7315C130.769 78.4915 134.836 68.6736 134.837 58.4362C134.838 48.1989 130.773 38.3802 123.537 31.1389C116.3 23.8975 106.485 19.8262 96.2472 19.8201H96.2401Z" fill="#371A45"/>
<g opacity="0.6">
<path opacity="0.6" d="M97.6807 29.1045H97.6751C89.5162 29.1037 81.6912 32.3441 75.9215 38.1128C70.1517 43.8815 66.9099 51.7059 66.9092 59.8648C66.9084 68.0236 70.1488 75.8486 75.9175 81.6184C81.6862 87.3881 89.5106 90.6299 97.6694 90.6306H97.6751C105.834 90.6314 113.659 87.391 119.429 81.6223C125.198 75.8537 128.44 68.0292 128.441 59.8704C128.442 51.7115 125.201 43.8865 119.433 38.1168C113.664 32.3471 105.84 29.1052 97.6807 29.1045Z" fill="white"/>
</g>
<g opacity="0.6">
<path opacity="0.6" d="M59.3505 60.0555C59.3635 49.8195 63.4359 40.0066 70.6745 32.7693C77.9131 25.532 87.7268 21.4613 97.9628 21.4501H97.97C107.434 21.4445 116.568 24.9291 123.623 31.2371C120.042 27.6182 115.778 24.7457 111.079 22.786C106.38 20.8263 101.339 19.8183 96.2476 19.8203H96.2403C88.6041 19.8204 81.1393 22.0846 74.7899 26.3268C68.4404 30.569 63.4914 36.5986 60.5685 43.6532C57.6456 50.7079 56.8801 58.4708 58.3688 65.9605C59.8575 73.4502 63.5336 80.3303 68.9322 85.7309C69.4675 86.2664 70.0161 86.7834 70.5778 87.282C67.0049 83.7072 64.1737 79.4616 62.247 74.7892C60.3202 70.1167 59.3358 65.1096 59.3505 60.0555Z" fill="white"/>
</g>
<path d="M96.2397 88.1903C112.675 88.1903 125.998 74.8671 125.998 58.4321C125.998 41.9971 112.675 28.6738 96.2397 28.6738C79.8047 28.6738 66.4814 41.9971 66.4814 58.4321C66.4814 74.8671 79.8047 88.1903 96.2397 88.1903Z" fill="#FFC107"/>
<path d="M96.2398 89.196H96.2337C88.0791 89.1888 80.261 85.9441 74.4977 80.1751C68.7343 74.4061 65.4973 66.5849 65.498 58.4303C65.4988 50.2757 68.7372 42.455 74.5015 36.687C80.2659 30.919 88.0846 27.6757 96.2392 27.6699H96.2453C100.285 27.6707 104.285 28.4671 108.017 30.0138C111.749 31.5605 115.14 33.8271 117.996 36.6842C120.852 39.5414 123.118 42.9331 124.663 46.6657C126.208 50.3983 127.003 54.3987 127.002 58.4386C127.001 66.5964 123.759 74.4196 117.99 80.1876C112.221 85.9556 104.398 89.1959 96.2398 89.196ZM96.2392 29.6795C88.6133 29.6788 81.2994 32.7076 75.9067 38.0995C70.5139 43.4914 67.4839 50.8047 67.4833 58.4306C67.4826 66.0565 70.5114 73.3703 75.9033 78.7631C81.2952 84.1558 88.6085 87.1858 96.2344 87.1865H96.2398C103.865 87.1864 111.177 84.1577 116.569 78.7665C121.962 73.3753 124.991 66.0632 124.993 58.4383C124.994 50.8124 121.966 43.4983 116.575 38.105C111.183 32.7116 103.871 29.6809 96.2446 29.6795L96.2392 29.6795Z" fill="#371A45"/>
<path d="M104.928 60.274C104.121 59.16 103.022 58.2903 101.753 57.7609C100.962 57.428 100.149 57.1528 99.3186 56.9377L99.321 49.1073C99.7041 49.2687 100.063 49.4834 100.386 49.7452C101.084 50.3307 101.589 51.1135 101.836 51.991C101.936 52.3476 102.156 52.6589 102.458 52.8732C102.76 53.0875 103.127 53.1919 103.497 53.169C103.732 53.1521 103.961 53.0831 104.167 52.9671C104.372 52.8511 104.55 52.6909 104.686 52.4981C104.822 52.3053 104.914 52.0846 104.955 51.852C104.996 51.6194 104.984 51.3807 104.921 51.1531C104.72 50.4455 104.411 49.7728 104.007 49.1582C103.222 47.9869 102.1 47.0813 100.79 46.5611C100.313 46.3623 99.8226 46.1994 99.3219 46.0738L99.3232 41.6492C99.3233 41.3864 99.219 41.1344 99.0333 40.9486C98.8475 40.7627 98.5956 40.6583 98.3328 40.6582C98.0701 40.6581 97.818 40.7624 97.6322 40.9482C97.4464 41.1339 97.3419 41.3859 97.3418 41.6486L97.3406 45.7387C96.8944 45.6987 96.4339 45.6783 95.9591 45.6775C95.6206 45.6774 95.29 45.692 94.9641 45.7152L94.9654 41.6837C94.9654 41.421 94.8611 41.1689 94.6754 40.9831C94.4897 40.7972 94.2377 40.6928 93.9749 40.6927C93.7122 40.6926 93.4602 40.7969 93.2743 40.9827C93.0885 41.1684 92.984 41.4204 92.984 41.6831L92.9826 46.0167C92.4559 46.1434 91.9398 46.3104 91.4387 46.5163C90.1793 46.9989 89.0993 47.8582 88.3462 48.9771C87.6551 50.0084 87.2862 51.2219 87.2863 52.4634C87.2726 53.5477 87.5728 54.6128 88.1508 55.5303C88.8078 56.5151 89.7153 57.307 90.7799 57.8248C91.4859 58.1735 92.2218 58.458 92.9787 58.675L92.9759 67.522L92.9742 67.5231C91.9559 67.1365 91.0727 66.4609 90.433 65.5794C90.0856 65.0504 89.8268 64.4683 89.6668 63.856C89.5704 63.493 89.3495 63.1755 89.0428 62.9588C88.7361 62.7421 88.363 62.6401 87.9887 62.6706C87.7602 62.6908 87.5388 62.7598 87.3393 62.8731C87.1399 62.9864 86.9672 63.1412 86.8328 63.327C86.6984 63.5129 86.6055 63.7254 86.5605 63.9503C86.5154 64.1752 86.5192 64.4071 86.5716 64.6304C86.7885 65.5604 87.1683 66.4447 87.6935 67.2422C88.5555 68.5522 89.7901 69.5739 91.2382 70.1756C91.7997 70.4139 92.3808 70.6032 92.975 70.7414L92.9736 75.2156C92.9735 75.4784 93.0779 75.7304 93.2636 75.9163C93.4493 76.1021 93.7013 76.2066 93.964 76.2066C94.2268 76.2067 94.4788 76.1024 94.6647 75.9167C94.8505 75.7309 94.955 75.479 94.9551 75.2162L94.9563 71.0617C95.5543 71.1192 96.1802 71.1515 96.8418 71.1517C97.0075 71.1518 97.1701 71.1462 97.3327 71.1405L97.3315 75.1811C97.3314 75.4439 97.4357 75.6959 97.6215 75.8818C97.8072 76.0676 98.0592 76.1721 98.3219 76.1721C98.5847 76.1722 98.8367 76.0679 99.0225 75.8822C99.2084 75.6964 99.3129 75.4445 99.3129 75.1817L99.3142 70.9168C100.098 70.7626 100.862 70.5177 101.589 70.187C102.907 69.6177 104.031 68.6783 104.825 67.4827C105.557 66.3855 105.949 65.0968 105.952 63.7778C105.975 62.5329 105.617 61.3106 104.928 60.274ZM96.0926 48.5508C96.5092 48.55 96.9255 48.572 97.3397 48.6169L97.3373 56.4295C97.0067 56.3504 96.662 56.27 96.3004 56.1881C95.8204 56.0794 95.374 55.9712 94.9611 55.8634L94.9633 48.5956C95.3182 48.5661 95.6939 48.5507 96.0926 48.5508H96.0926ZM91.3859 54.4306C91.0754 54.1593 90.8286 53.8229 90.6631 53.4452C90.4977 53.0676 90.4176 52.658 90.4287 52.2459C90.433 51.7347 90.5578 51.2316 90.7929 50.7777C91.0281 50.3238 91.3671 49.9317 91.7822 49.6334C92.1432 49.353 92.5487 49.135 92.9817 48.9885L92.9797 55.2597C92.4034 55.0802 91.8637 54.7995 91.3859 54.4306H91.3859ZM96.6915 68.2279C96.1106 68.2286 95.5306 68.1819 94.9573 68.0882L94.96 59.2222C95.1471 59.2692 95.3374 59.3163 95.5348 59.3638C96.2065 59.5253 96.8069 59.6741 97.3363 59.8101L97.3337 68.2088C97.1236 68.2202 96.9106 68.2279 96.6915 68.2279H96.6915ZM102.111 66.1544C101.566 66.8573 100.827 67.3856 99.9852 67.6744C99.7696 67.758 99.5456 67.8308 99.3152 67.8954L99.3175 60.36C99.5623 60.4367 99.7643 60.5057 99.9201 60.5664C100.777 60.8419 101.543 61.3444 102.138 62.0206C102.586 62.5992 102.823 63.3138 102.809 64.0456C102.81 64.8054 102.565 65.5449 102.111 66.1544Z" fill="#371A45"/>
<g opacity="0.1">
<path opacity="0.1" d="M70.7075 63.4983C70.7069 57.6628 72.4225 51.956 75.6407 47.0883C78.859 42.2205 83.4378 38.4066 88.8072 36.1215C94.1766 33.8363 100.099 33.1807 105.839 34.2363C111.578 35.2918 116.88 38.012 121.085 42.0581C118.782 38.5615 115.767 35.5903 112.238 33.3386C108.708 31.0869 104.743 29.6054 100.602 28.9911C96.4604 28.3767 92.236 28.6432 88.2047 29.7732C84.1734 30.9032 80.4259 32.8713 77.2073 35.5487C73.9887 38.2262 71.3713 41.5528 69.5263 45.311C67.6813 49.0692 66.6503 53.1745 66.5005 57.3585C66.3507 61.5425 67.0856 65.7111 68.6572 69.5916C70.2287 73.4721 72.6015 76.9773 75.6204 79.8781C72.4076 75.0201 70.6986 69.3226 70.7075 63.4983Z" fill="#371A45"/>
</g>
<path d="M110.425 159.468C110.16 159.468 109.905 159.363 109.717 159.176C109.529 158.989 109.422 158.735 109.421 158.469L109.091 103.128C107.606 95.2352 110.886 90.3481 111.027 90.1432C111.034 90.1334 115.759 83.7545 115.759 83.7545C116.035 83.3831 116.395 83.0814 116.808 82.8732C117.221 82.6651 117.678 82.5562 118.141 82.5554C118.699 82.5558 119.245 82.7136 119.717 83.0108C120.189 83.308 120.567 83.7324 120.809 84.2352C121.05 84.7379 121.145 85.2987 121.082 85.8529C121.019 86.4071 120.8 86.9321 120.452 87.3677L117.718 90.7848L124.956 84.4035C126.288 82.8777 127.29 81.093 127.899 79.1615C127.903 79.1455 129.989 71.9357 129.989 71.9357C130.172 71.1766 130.606 70.5013 131.22 70.019C131.834 69.5367 132.593 69.2754 133.374 69.2774C133.59 69.2775 133.806 69.2976 134.019 69.3374C134.911 69.5008 135.704 70.0068 136.228 70.7473C136.753 71.4878 136.966 72.404 136.823 73.2999L134.358 86.8611C134.135 88.2924 133.655 89.6714 132.94 90.931C132.553 91.6086 132.021 92.1924 131.383 92.6407L127.081 96.8916C127.037 96.9352 126.989 96.9746 126.937 97.0095C126.757 97.1313 126.609 97.2955 126.507 97.4878C126.405 97.6801 126.351 97.8946 126.351 98.1123L126.315 103.33V158.463C126.315 158.595 126.289 158.726 126.238 158.848C126.188 158.97 126.114 159.08 126.021 159.174C125.927 159.267 125.817 159.341 125.695 159.392C125.573 159.442 125.442 159.468 125.31 159.468L110.425 159.468Z" fill="#FAD7A0"/>
<path d="M133.374 70.282C133.733 70.2821 134.087 70.3596 134.412 70.5093C134.738 70.659 135.027 70.8773 135.261 71.1493C135.494 71.4214 135.666 71.7406 135.764 72.0852C135.862 72.4298 135.885 72.7916 135.83 73.1458L133.37 86.6812C133.165 88.0014 132.723 89.2735 132.065 90.4361C131.739 91.0079 131.286 91.4965 130.74 91.8638L126.375 96.1768C126.058 96.3907 125.799 96.679 125.62 97.0165C125.441 97.3539 125.347 97.7302 125.347 98.1123L125.31 103.323V158.463H110.426L110.096 103.031C108.629 95.4051 111.855 90.7123 111.855 90.7123L116.566 84.3524C116.721 84.1434 116.916 83.9674 117.14 83.8346C117.363 83.7017 117.611 83.6148 117.869 83.5789C118.126 83.543 118.389 83.5587 118.64 83.6253C118.891 83.6918 119.127 83.8078 119.333 83.9665C119.539 84.1252 119.712 84.3233 119.84 84.5494C119.969 84.7754 120.051 85.0249 120.082 85.2831C120.113 85.5413 120.093 85.8031 120.021 86.0533C119.95 86.3034 119.83 86.5368 119.667 86.7399L116.878 90.2265C116.719 90.4247 116.642 90.6759 116.662 90.929C116.683 91.182 116.798 91.4178 116.986 91.5884C117.174 91.7591 117.42 91.8516 117.674 91.8473C117.928 91.8429 118.17 91.742 118.352 91.565L125.64 85.1398C127.119 83.4785 128.222 81.5186 128.877 79.393L130.96 72.1934C131.089 71.6497 131.397 71.1654 131.835 70.8185C132.273 70.4717 132.815 70.2827 133.374 70.282V70.282ZM133.374 68.2725C132.372 68.2699 131.398 68.6039 130.608 69.221C129.818 69.8382 129.258 70.7027 129.018 71.676L126.946 78.8344C126.937 78.866 126.929 78.8979 126.921 78.9297C126.357 80.6683 125.456 82.2788 124.27 83.669L122.105 85.5778C122.118 84.7382 121.864 83.9162 121.38 83.2301C120.896 82.544 120.206 82.0292 119.411 81.7599C118.616 81.4907 117.755 81.4808 116.954 81.7316C116.153 81.9825 115.452 82.4813 114.952 83.156L110.24 89.516C110.226 89.5351 110.213 89.5543 110.199 89.5738C110.049 89.792 106.568 94.9771 108.087 103.224L108.416 158.475C108.419 159.006 108.632 159.514 109.009 159.888C109.385 160.262 109.895 160.473 110.426 160.473H125.31C125.574 160.473 125.835 160.421 126.079 160.32C126.323 160.219 126.545 160.071 126.731 159.884C126.918 159.697 127.066 159.476 127.167 159.232C127.268 158.988 127.32 158.727 127.32 158.463V103.323L127.356 98.1264C127.355 98.0707 127.367 98.0156 127.392 97.9659C127.417 97.9162 127.454 97.8735 127.5 97.8419C127.603 97.7723 127.699 97.6934 127.788 97.6062L132.032 93.4116C132.761 92.8846 133.369 92.2077 133.814 91.4264C134.588 90.0609 135.109 88.5668 135.351 87.0161L137.808 73.5053L137.816 73.4535C138 72.2996 137.725 71.1196 137.05 70.1658C136.375 69.212 135.354 68.5602 134.204 68.3498C133.931 68.2985 133.653 68.2726 133.374 68.2725V68.2725Z" fill="#371A45"/>
<path opacity="0.5" d="M117.673 91.8453C117.735 92.0052 117.838 92.1462 117.971 92.2543C118.161 92.4061 118.4 92.4834 118.643 92.4717C118.886 92.46 119.116 92.36 119.29 92.1905L126.578 85.7652C128.056 84.104 129.16 82.144 129.814 80.0184L131.898 72.8188C131.978 72.4752 132.13 72.1527 132.345 71.8729C132.56 71.5931 132.832 71.3626 133.143 71.1967C133.454 71.0308 133.798 70.9334 134.15 70.9111C134.502 70.8888 134.854 70.9421 135.184 71.0674C134.878 70.7398 134.488 70.5016 134.057 70.3781C133.625 70.2545 133.169 70.2503 132.735 70.3659C132.301 70.4815 131.907 70.7126 131.595 71.0344C131.282 71.3563 131.063 71.7569 130.96 72.1936L128.877 79.3933C128.223 81.5189 127.119 83.4788 125.64 85.14L118.352 91.5654C118.17 91.7421 117.927 91.8423 117.673 91.8453Z" fill="white"/>
<path opacity="0.5" d="M111.033 103.656C109.566 96.0305 112.792 91.3378 112.792 91.3378L117.504 84.9778C117.744 84.6535 118.079 84.4115 118.463 84.2852C118.846 84.1588 119.259 84.1542 119.646 84.272C119.542 84.1451 119.422 84.0319 119.29 83.9349C118.872 83.6313 118.352 83.5049 117.842 83.5832C117.332 83.6614 116.873 83.938 116.566 84.3527L111.855 90.7127C111.855 90.7127 108.629 95.4054 110.095 103.031L110.425 158.463H111.359L111.033 103.656Z" fill="white"/>
<path d="M107.103 162.42C106.971 162.42 106.841 162.394 106.719 162.343C106.597 162.293 106.486 162.219 106.393 162.125C106.3 162.032 106.226 161.921 106.175 161.799C106.125 161.677 106.099 161.547 106.099 161.415V115.287C106.1 114.441 106.436 113.631 107.034 113.033C107.631 112.435 108.442 112.099 109.287 112.098H126.38C127.226 112.099 128.036 112.435 128.634 113.033C129.232 113.631 129.568 114.441 129.569 115.287V161.415C129.569 161.547 129.543 161.677 129.493 161.799C129.442 161.921 129.368 162.032 129.275 162.125C129.182 162.219 129.071 162.293 128.949 162.343C128.827 162.394 128.696 162.42 128.564 162.42H107.103Z" fill="#FF5722"/>
<path d="M126.381 113.102C126.96 113.102 127.516 113.332 127.925 113.742C128.335 114.152 128.565 114.707 128.565 115.286V161.415H107.104V115.286C107.104 115 107.161 114.716 107.27 114.451C107.38 114.186 107.541 113.945 107.744 113.742C107.947 113.539 108.187 113.378 108.452 113.269C108.717 113.159 109.001 113.102 109.288 113.102H126.381V113.102ZM126.381 111.093H109.288C108.176 111.094 107.11 111.536 106.324 112.322C105.538 113.109 105.096 114.175 105.095 115.286V161.415C105.095 161.679 105.147 161.94 105.248 162.184C105.349 162.428 105.497 162.649 105.683 162.836C105.87 163.022 106.091 163.17 106.335 163.271C106.579 163.372 106.84 163.424 107.104 163.424H128.565C128.829 163.424 129.09 163.372 129.334 163.271C129.578 163.17 129.8 163.022 129.986 162.836C130.173 162.649 130.321 162.428 130.422 162.184C130.523 161.94 130.575 161.679 130.575 161.415V115.286C130.574 114.175 130.131 113.109 129.345 112.322C128.559 111.536 127.493 111.094 126.381 111.093V111.093Z" fill="#371A45"/>
<path opacity="0.5" d="M108.979 116.224C108.979 115.645 109.209 115.09 109.619 114.68C110.028 114.27 110.584 114.04 111.163 114.04H128.173C127.972 113.751 127.704 113.514 127.392 113.351C127.08 113.188 126.733 113.102 126.381 113.103H109.288C108.708 113.103 108.153 113.333 107.743 113.742C107.334 114.152 107.104 114.707 107.104 115.287V161.415H108.979V116.224Z" fill="white"/>
<path opacity="0.2" d="M112.032 90.4424C112.032 90.4424 110.782 110.758 126.409 110.446L125.94 112.478H109.062C109.062 112.478 110 103.413 109.688 103.101C109.375 102.788 107.76 93.2723 112.032 90.4424Z" fill="#371A45"/>
<path opacity="0.2" d="M107.062 158.596V161.102H128.524V114.974C128.524 114.453 126.87 112.853 126.565 112.478C125.95 119.294 123.422 156.087 107.062 158.596Z" fill="#371A45"/>
<path opacity="0.1" d="M116.431 118.729H114.82C113.711 118.729 112.812 119.627 112.812 120.736V130.786C112.812 131.895 113.711 132.794 114.82 132.794H116.431C117.54 132.794 118.438 131.895 118.438 130.786V120.736C118.438 119.627 117.54 118.729 116.431 118.729Z" fill="white"/>
<path d="M67.1701 159.468C67.0381 159.468 66.9075 159.442 66.7856 159.391C66.6637 159.341 66.5529 159.267 66.4596 159.173C66.3663 159.08 66.2923 158.969 66.2418 158.847C66.1913 158.725 66.1653 158.595 66.1653 158.463V103.323L66.1288 98.119C66.1298 97.9001 66.0768 97.6843 65.9746 97.4907C65.8724 97.2971 65.7241 97.1317 65.5428 97.0091C65.4915 96.9742 65.4434 96.9348 65.3992 96.8912L61.0975 92.6402C60.459 92.192 59.9274 91.6083 59.5406 90.9309C58.8219 89.663 58.3398 88.2749 58.1177 86.8345L55.6615 73.3252C55.5168 72.4357 55.722 71.5247 56.234 70.7832C56.7461 70.0417 57.5254 69.5271 58.4084 69.3474C59.2915 69.1677 60.2099 69.3368 60.971 69.8192C61.7322 70.3016 62.2771 71.06 62.4915 71.9353C62.4915 71.9353 64.5776 79.145 64.5815 79.161C65.1904 81.0926 66.1923 82.8773 67.5241 84.403L74.7924 90.8109L74.8286 90.8444L72.0283 87.3672C71.6799 86.9316 71.4615 86.4065 71.3984 85.8524C71.3352 85.2982 71.4298 84.7374 71.6712 84.2346C71.9127 83.7318 72.2912 83.3074 72.7633 83.0102C73.2353 82.7131 73.7816 82.5552 74.3394 82.5549C74.8023 82.5557 75.2587 82.6645 75.6722 82.8727C76.0857 83.0808 76.4449 83.3825 76.7213 83.7539C76.7213 83.7539 81.4463 90.1329 81.4531 90.1427C81.5941 90.3476 84.8746 95.2347 83.3889 103.128L83.0596 158.469C83.058 158.734 82.9514 158.988 82.7631 159.175C82.5749 159.363 82.3202 159.468 82.0548 159.468H67.1701Z" fill="#FAD7A0"/>
<path d="M59.1061 70.2821C59.6648 70.2827 60.2069 70.4717 60.645 70.8186C61.083 71.1654 61.3913 71.6498 61.52 72.1934L63.6036 79.3931C64.2578 81.5186 65.3615 83.4785 66.84 85.1398L74.1279 91.565C74.3099 91.7419 74.5524 91.8428 74.8062 91.8471C75.0599 91.8514 75.3058 91.7589 75.4937 91.5883C75.6816 91.4177 75.7975 91.1819 75.8177 90.9289C75.8379 90.676 75.7609 90.4248 75.6024 90.2266L72.8129 86.7399C72.6504 86.5368 72.5301 86.3034 72.4588 86.0533C72.3876 85.8031 72.3669 85.5413 72.398 85.2831C72.4291 85.0249 72.5114 84.7754 72.64 84.5494C72.7686 84.3233 72.941 84.1252 73.1471 83.9665C73.3532 83.8078 73.5888 83.6918 73.8403 83.6253C74.0917 83.5587 74.3538 83.543 74.6114 83.5789C74.869 83.6148 75.1169 83.7017 75.3405 83.8346C75.5641 83.9674 75.759 84.1434 75.9138 84.3525L80.625 90.7123C80.625 90.7123 83.8512 95.4051 82.3847 103.031L82.0547 158.463H67.17V103.323L67.1335 98.1123C67.1335 97.7302 67.0397 97.3539 66.8605 97.0165C66.6812 96.679 66.4219 96.3907 66.1053 96.1768L61.7407 91.8638C61.1945 91.4965 60.7408 91.0079 60.4149 90.4361C59.7568 89.2735 59.3149 88.0014 59.1105 86.6812L56.6498 73.1458C56.5953 72.7916 56.6179 72.4298 56.7163 72.0852C56.8147 71.7406 56.9864 71.4214 57.2197 71.1493C57.453 70.8773 57.7424 70.659 58.068 70.5093C58.3936 70.3596 58.7477 70.2821 59.106 70.282L59.1061 70.2821ZM59.1064 68.2725C58.4581 68.2725 57.8174 68.4127 57.2284 68.6835C56.6394 68.9544 56.1159 69.3495 55.6939 69.8416C55.2719 70.3338 54.9614 70.9114 54.7836 71.5349C54.6059 72.1583 54.565 72.8129 54.664 73.4536L54.6727 73.5053L57.1289 87.0162C57.3714 88.5668 57.8922 90.0607 58.6662 91.4259C59.1115 92.2075 59.719 92.8846 60.4479 93.4117L64.6926 97.6062C64.7811 97.6934 64.8774 97.7723 64.9804 97.8419C65.0246 97.8718 65.0608 97.9121 65.0858 97.9592C65.1108 98.0064 65.1239 98.0589 65.1239 98.1123L65.1604 103.337V158.463C65.1604 158.727 65.2124 158.988 65.3134 159.232C65.4144 159.476 65.5624 159.697 65.749 159.884C65.9356 160.071 66.1571 160.219 66.401 160.32C66.6448 160.421 66.9061 160.473 67.17 160.473H82.0546C82.5855 160.473 83.0948 160.262 83.4713 159.888C83.8479 159.514 84.061 159.006 84.0643 158.475L84.3933 103.224C85.9123 94.9772 82.4312 89.7921 82.2809 89.5739C82.2677 89.5544 82.254 89.5351 82.2399 89.5161L77.5287 83.1562C77.1586 82.659 76.6776 82.2549 76.1239 81.9762C75.5703 81.6975 74.9592 81.5517 74.3394 81.5505C73.5012 81.5491 72.6845 81.8149 72.0078 82.3094C71.4932 82.6831 71.0763 83.1752 70.7922 83.7441C70.5081 84.313 70.3652 84.942 70.3757 85.5778L68.2104 83.669C67.0238 82.2788 66.1229 80.6684 65.559 78.9298C65.5514 78.8979 65.543 78.866 65.534 78.8345L63.4623 71.6758C63.2222 70.7027 62.6624 69.8383 61.8726 69.2212C61.0828 68.6042 60.1087 68.2701 59.1064 68.2726L59.1064 68.2725Z" fill="#371A45"/>
<path opacity="0.5" d="M75.602 90.227C75.7117 90.3634 75.7835 90.5264 75.8101 90.6994C75.8367 90.8725 75.8171 91.0495 75.7534 91.2126C75.6897 91.3757 75.5841 91.5191 75.4472 91.6283C75.3104 91.7375 75.1471 91.8087 74.974 91.8346L75.3777 92.1906C75.5597 92.3675 75.8023 92.4684 76.0561 92.4728C76.3099 92.4771 76.5558 92.3846 76.7437 92.2139C76.9317 92.0433 77.0475 91.8075 77.0677 91.5545C77.0878 91.3015 77.0108 91.0503 76.8522 90.8521L74.0628 87.3653C73.8976 87.1587 73.7759 86.9208 73.7052 86.6658C73.6344 86.4109 73.6162 86.1442 73.6514 85.882C73.6867 85.6198 73.7747 85.3674 73.9103 85.1402C74.0458 84.913 74.226 84.7156 74.44 84.5599C74.8285 84.2773 75.3078 84.1482 75.7858 84.1975C75.4611 83.8422 75.0168 83.619 74.5379 83.5705C74.059 83.522 73.5791 83.6517 73.1898 83.9348C72.9758 84.0905 72.7956 84.2878 72.6601 84.5151C72.5245 84.7423 72.4365 84.9947 72.4012 85.2569C72.366 85.5191 72.3843 85.7857 72.455 86.0407C72.5257 86.2957 72.6474 86.5336 72.8127 86.7402L75.602 90.227Z" fill="white"/>
<path opacity="0.5" d="M68.4199 158.463V103.948L68.3832 98.737C68.3832 98.3549 68.2895 97.9786 68.1103 97.6411C67.931 97.3037 67.6717 97.0153 67.3551 96.8013L62.9907 92.4885C62.4445 92.1213 61.9907 91.6326 61.6649 91.0607C61.0069 89.8982 60.5649 88.6261 60.3603 87.306L57.8998 73.7705C57.8386 73.3795 57.8719 72.9796 57.9969 72.6041C58.122 72.2286 58.335 71.8885 58.6184 71.6122C58.9017 71.3359 59.2471 71.1314 59.6256 71.0159C60.0041 70.9004 60.4048 70.8771 60.7941 70.9481C60.4165 70.5964 59.9387 70.3711 59.4271 70.3036C58.9155 70.236 58.3956 70.3297 57.9396 70.5714C57.4837 70.8131 57.1145 71.1909 56.8832 71.6522C56.652 72.1136 56.5703 72.6355 56.6495 73.1454L59.1101 86.6809C59.3146 88.001 59.7566 89.2731 60.4146 90.4356C60.7404 91.0075 61.1943 91.4962 61.7405 91.8633L66.1049 96.1762C66.4215 96.3902 66.6808 96.6785 66.8601 97.016C67.0393 97.3535 67.133 97.7298 67.133 98.1119L67.1697 103.323V158.463H68.4199Z" fill="white"/>
<path d="M63.9716 162.42C63.8396 162.42 63.709 162.394 63.5871 162.343C63.4652 162.293 63.3544 162.219 63.2611 162.125C63.1678 162.032 63.0938 161.921 63.0433 161.799C62.9928 161.677 62.9668 161.547 62.9668 161.415V115.287C62.9677 114.441 63.3039 113.631 63.9017 113.033C64.4995 112.435 65.31 112.099 66.1555 112.098H83.2483C84.0938 112.099 84.9044 112.435 85.5022 113.033C86.1001 113.631 86.4364 114.441 86.4373 115.287V161.415C86.4373 161.547 86.4114 161.677 86.3609 161.799C86.3104 161.921 86.2364 162.032 86.143 162.125C86.0497 162.219 85.939 162.293 85.8171 162.343C85.6952 162.394 85.5645 162.42 85.4326 162.42H63.9716Z" fill="#FF5722"/>
<path d="M83.2483 113.102C83.8275 113.102 84.3831 113.332 84.7927 113.742C85.2023 114.152 85.4324 114.707 85.4324 115.286V161.415H63.9715V115.286C63.9715 114.707 64.2016 114.152 64.6112 113.742C65.0207 113.333 65.5762 113.102 66.1554 113.102H83.2483V113.102ZM83.2483 111.093H66.1554C65.0435 111.094 63.9776 111.536 63.1915 112.322C62.4053 113.109 61.9631 114.175 61.9619 115.286V161.415C61.9619 161.679 62.0139 161.94 62.1149 162.184C62.2159 162.428 62.3639 162.649 62.5505 162.836C62.7371 163.022 62.9586 163.17 63.2024 163.271C63.4463 163.372 63.7076 163.424 63.9715 163.424H85.4324C85.6963 163.424 85.9577 163.372 86.2015 163.271C86.4453 163.17 86.6668 163.022 86.8534 162.836C87.04 162.649 87.1881 162.428 87.2891 162.184C87.39 161.94 87.442 161.679 87.442 161.415V115.286C87.4407 114.175 86.9985 113.109 86.2122 112.322C85.426 111.536 84.3601 111.094 83.2483 111.093V111.093Z" fill="#371A45"/>
<path opacity="0.5" d="M68.0301 114.04H85.0399C84.8391 113.751 84.5712 113.514 84.2591 113.351C83.947 113.188 83.6 113.102 83.2477 113.103H66.1548C65.868 113.103 65.584 113.159 65.319 113.269C65.054 113.379 64.8132 113.539 64.6104 113.742C64.4076 113.945 64.2467 114.186 64.137 114.451C64.0272 114.716 63.9707 115 63.9707 115.287V161.415H65.846V135.329C66.7662 133.434 67.2444 131.356 67.2444 129.249C67.2444 127.143 66.7662 125.065 65.846 123.17V116.224C65.846 115.937 65.9025 115.653 66.0123 115.388C66.1221 115.123 66.2829 114.883 66.4857 114.68C66.6886 114.477 66.9293 114.316 67.1943 114.206C67.4593 114.097 67.7433 114.04 68.0301 114.04Z" fill="white"/>
<path opacity="0.2" d="M80.6608 90.2861C80.6608 90.2861 81.911 110.602 66.2832 110.29L66.752 112.321H83.63C83.63 112.321 82.6924 103.257 83.0049 102.945C83.3175 102.632 84.9322 93.116 80.6608 90.2861Z" fill="#371A45"/>
<path opacity="0.2" d="M63.9707 158.908V161.415H85.4318V115.287C85.4318 114.765 83.7783 113.166 83.4734 112.79C82.8578 119.607 80.33 156.4 63.9707 158.908Z" fill="#371A45"/>
<path d="M40.0962 89.1059C39.9433 89.1058 39.7945 89.0568 39.6713 88.9662C39.5482 88.8756 39.4572 88.748 39.4115 88.6021L37.6355 82.9196C37.5804 82.7384 37.5992 82.5428 37.6877 82.3754C37.7763 82.2079 37.9274 82.0823 38.1081 82.0258C38.2889 81.9693 38.4847 81.9866 38.6528 82.0738C38.8208 82.1611 38.9476 82.3112 39.0055 82.4915L40.7815 88.174C40.815 88.2815 40.8228 88.3954 40.8042 88.5064C40.7856 88.6174 40.7411 88.7225 40.6744 88.8132C40.6077 88.9039 40.5206 88.9777 40.4202 89.0285C40.3198 89.0794 40.2088 89.1059 40.0962 89.1059H40.0962Z" fill="#371A45"/>
<path d="M42.721 97.5063C42.5681 97.5062 42.4191 97.4573 42.296 97.3666C42.1728 97.276 42.0818 97.1483 42.0363 97.0023L40.5695 92.3081C40.5405 92.2179 40.5297 92.1229 40.5377 92.0285C40.5456 91.9341 40.5722 91.8423 40.6158 91.7582C40.6595 91.6741 40.7193 91.5995 40.7919 91.5387C40.8645 91.4779 40.9484 91.432 41.0388 91.4038C41.1292 91.3755 41.2243 91.3654 41.3186 91.3741C41.4129 91.3828 41.5046 91.4101 41.5883 91.4543C41.6721 91.4986 41.7462 91.559 41.8065 91.6321C41.8667 91.7052 41.9119 91.7894 41.9395 91.88L43.4063 96.5743C43.4397 96.6818 43.4474 96.7956 43.4288 96.9066C43.4102 97.0176 43.3657 97.1227 43.299 97.2134C43.2323 97.3041 43.1453 97.3778 43.0449 97.4287C42.9445 97.4796 42.8335 97.5062 42.721 97.5063L42.721 97.5063Z" fill="#371A45"/>
<path d="M21.674 106.525C21.5211 106.525 21.3722 106.476 21.249 106.385C21.1258 106.295 21.0348 106.167 20.9893 106.021L17.0519 93.4204C17.023 93.3302 17.0122 93.2352 17.0201 93.1408C17.0281 93.0464 17.0546 92.9546 17.0982 92.8705C17.1419 92.7864 17.2017 92.7118 17.2743 92.651C17.3469 92.5902 17.4308 92.5443 17.5212 92.5161C17.6116 92.4878 17.7067 92.4777 17.801 92.4864C17.8954 92.4951 17.987 92.5224 18.0707 92.5666C18.1545 92.6109 18.2286 92.6713 18.2889 92.7444C18.3492 92.8175 18.3944 92.9017 18.4219 92.9923L22.3594 105.593C22.3928 105.7 22.4005 105.814 22.3818 105.925C22.3632 106.036 22.3188 106.141 22.2521 106.232C22.1854 106.323 22.0983 106.396 21.9979 106.447C21.8975 106.498 21.7866 106.525 21.674 106.525H21.674Z" fill="#371A45"/>
<path d="M22.9401 78.4674C22.7872 78.4673 22.6383 78.4183 22.5152 78.3277C22.392 78.2371 22.301 78.1095 22.2554 77.9636L21.406 75.2458C21.3509 75.0646 21.3697 74.8689 21.4582 74.7015C21.5468 74.5341 21.6979 74.4085 21.8786 74.352C22.0594 74.2955 22.2552 74.3128 22.4233 74.4C22.5914 74.4872 22.7182 74.6374 22.776 74.8177L23.6254 77.5355C23.6589 77.643 23.6667 77.7568 23.6481 77.8679C23.6294 77.9789 23.585 78.084 23.5183 78.1747C23.4516 78.2654 23.3645 78.3391 23.2641 78.39C23.1636 78.4408 23.0527 78.4674 22.9401 78.4674H22.9401Z" fill="#371A45"/>
<path d="M28.8853 97.4918C28.7324 97.4917 28.5834 97.4428 28.4603 97.3521C28.3371 97.2614 28.2461 97.1338 28.2006 96.9878L23.491 81.9167C23.4359 81.7355 23.4547 81.5398 23.5432 81.3724C23.6317 81.205 23.7828 81.0794 23.9636 81.0229C24.1444 80.9664 24.3401 80.9837 24.5082 81.0709C24.6763 81.1581 24.8031 81.3083 24.861 81.4886L29.5706 96.5597C29.604 96.6672 29.6117 96.7811 29.5931 96.8921C29.5745 97.0031 29.53 97.1082 29.4633 97.1988C29.3966 97.2895 29.3096 97.3633 29.2092 97.4142C29.1088 97.4651 28.9978 97.4916 28.8852 97.4918H28.8853Z" fill="#371A45"/>
<path d="M34.8923 95.8855C34.7394 95.8854 34.5904 95.8365 34.4673 95.7458C34.3441 95.6551 34.2531 95.5275 34.2076 95.3815L32.2775 89.2046C32.2486 89.1144 32.2377 89.0194 32.2457 88.925C32.2537 88.8306 32.2802 88.7387 32.3238 88.6547C32.3675 88.5706 32.4273 88.496 32.4999 88.4352C32.5725 88.3743 32.6564 88.3285 32.7468 88.3002C32.8372 88.272 32.9323 88.2619 33.0266 88.2706C33.1209 88.2793 33.2126 88.3065 33.2963 88.3508C33.3801 88.3951 33.4542 88.4555 33.5145 88.5286C33.5747 88.6016 33.6199 88.6859 33.6475 88.7765L35.5776 94.9534C35.611 95.0609 35.6187 95.1747 35.6001 95.2858C35.5815 95.3968 35.537 95.5019 35.4703 95.5925C35.4037 95.6832 35.3166 95.757 35.2162 95.8079C35.1158 95.8587 35.0048 95.8853 34.8923 95.8855L34.8923 95.8855Z" fill="#371A45"/>
<path d="M25.0717 100.04C24.9188 100.04 24.7698 99.9906 24.6467 99.8999C24.5235 99.8093 24.4325 99.6816 24.387 99.5356L23.4607 96.571C23.4056 96.3898 23.4244 96.1941 23.5129 96.0267C23.6015 95.8593 23.7526 95.7337 23.9333 95.6772C24.1141 95.6207 24.3099 95.638 24.4779 95.7252C24.646 95.8124 24.7728 95.9626 24.8307 96.1429L25.757 99.1076C25.7904 99.2151 25.7981 99.3289 25.7795 99.4399C25.7608 99.5509 25.7164 99.656 25.6497 99.7467C25.583 99.8374 25.496 99.9111 25.3956 99.962C25.2952 100.013 25.1842 100.039 25.0717 100.04L25.0717 100.04Z" fill="#371A45"/>
<path d="M48.0566 105.081C48.7091 107.711 48.5602 110.476 47.6288 113.021C46.6974 115.565 45.0262 117.773 42.83 119.361C40.6338 120.948 38.0131 121.842 35.3047 121.928C32.5963 122.014 29.9241 121.288 27.6316 119.844C27.0085 119.453 26.4188 119.011 25.8684 118.523C23.878 116.77 22.4484 114.469 21.7584 111.908C21.7314 111.808 21.7048 111.71 21.6798 111.609C21.043 109.038 21.1715 106.337 22.0496 103.838C22.9277 101.339 24.5171 99.1513 26.6222 97.5439C28.7274 95.9364 31.2565 94.9794 33.8984 94.7905C36.5404 94.6015 39.1799 95.189 41.4924 96.4805C42.1344 96.8409 42.7468 97.2516 43.324 97.7087C45.6739 99.5747 47.3384 102.168 48.0566 105.081Z" fill="#E8EEFC"/>
<path d="M38.1515 121.612C36.0727 122.133 33.8999 122.153 31.8121 121.669C30.3155 121.325 28.8875 120.731 27.588 119.912C24.6871 118.086 22.5782 115.237 21.6792 111.929C21.6509 111.824 21.6248 111.727 21.6003 111.628C20.9595 109.042 21.0888 106.325 21.9721 103.811C22.8555 101.297 24.4544 99.0957 26.5722 97.4786C28.6901 95.8615 31.2344 94.8987 33.8922 94.7086C36.55 94.5186 39.2055 95.1096 41.5318 96.4089C42.1776 96.7715 42.7937 97.1846 43.3744 97.6443C45.7386 99.5215 47.4132 102.13 48.1357 105.061C49.0023 108.58 48.4378 112.298 46.566 115.401C44.6942 118.504 41.6681 120.738 38.1515 121.612ZM31.623 95.2334C28.1482 96.0978 25.1582 98.3053 23.309 101.372C21.4597 104.438 20.9023 108.112 21.7589 111.589C21.7831 111.687 21.809 111.783 21.8351 111.88C22.5208 114.428 23.9425 116.717 25.9222 118.461C26.4692 118.946 27.0554 119.385 27.6747 119.774C28.9587 120.583 30.3697 121.169 31.8484 121.51C33.9113 121.988 36.0582 121.968 38.1122 121.454C40.1872 120.939 42.1105 119.939 43.724 118.537C45.3375 117.134 46.5952 115.369 47.3936 113.386C48.192 111.402 48.5084 109.258 48.3168 107.129C48.1252 105 47.4311 102.946 46.2915 101.137C45.4838 99.8523 44.463 98.7144 43.2729 97.7724C42.6991 97.318 42.0902 96.9098 41.452 96.5514C38.4617 94.8805 34.9479 94.4093 31.623 95.2334L31.623 95.2334Z" fill="#371A45"/>
<g opacity="0.55">
<path opacity="0.55" d="M48.0562 105.081C48.1379 105.411 48.2064 105.742 48.2634 106.071C47.1947 102.813 44.9337 100.08 41.9339 98.4189C38.9342 96.7582 35.4175 96.2931 32.0891 97.1168C28.7608 97.9406 25.867 99.9922 23.988 102.86C22.1091 105.728 21.3839 109.201 21.9581 112.581C21.8549 112.263 21.7612 111.939 21.6795 111.609C21.2495 109.876 21.165 108.076 21.431 106.311C21.6969 104.546 22.3081 102.851 23.2295 101.322C24.151 99.793 25.3646 98.4608 26.8012 97.4013C28.2377 96.3418 29.8689 95.5757 31.6016 95.1469C33.3343 94.7181 35.1346 94.6349 36.8995 94.9021C38.6643 95.1693 40.3592 95.7817 41.8874 96.7042C43.4155 97.6268 44.7468 98.8414 45.8053 100.279C46.8638 101.716 47.6287 103.348 48.0563 105.081H48.0562Z" fill="white"/>
</g>
<path d="M48.0558 105.08C48.5025 106.89 48.572 108.773 48.2598 110.611C47.9477 112.449 47.2606 114.203 46.2414 115.764C45.2222 117.325 43.8926 118.659 42.3355 119.684C40.7783 120.709 39.0268 121.403 37.1901 121.722C35.3533 122.041 33.4705 121.978 31.6589 121.538C29.8473 121.098 28.1457 120.29 26.6598 119.164C25.174 118.038 23.9358 116.619 23.0222 114.994C22.1086 113.369 21.5393 111.573 21.3496 109.718C22.575 112.752 24.8542 115.242 27.7684 116.731C30.6826 118.219 34.036 118.606 37.2124 117.819C40.3888 117.033 43.1748 115.127 45.0585 112.452C46.9422 109.776 47.797 106.51 47.4658 103.255C47.7051 103.849 47.9023 104.459 48.0558 105.08Z" fill="#B2C6E5"/>
<path d="M37.1433 117.54C35.3245 117.99 33.413 117.891 31.6505 117.255C29.8881 116.619 28.3539 115.474 27.242 113.966C26.1301 112.458 25.4903 110.654 25.4037 108.782C25.317 106.91 25.7874 105.055 26.7552 103.451C27.723 101.846 29.1449 100.565 30.841 99.7683C32.5371 98.972 34.4312 98.6965 36.2839 98.9766C38.1366 99.2568 39.8646 100.08 41.2494 101.342C42.6342 102.605 43.6136 104.249 44.0638 106.068C44.6645 108.507 44.2732 111.084 42.9758 113.235C41.6784 115.386 39.5809 116.934 37.1433 117.54Z" fill="#D9E3FA"/>
<g opacity="0.55">
<path opacity="0.55" d="M44.0634 106.068C44.1248 106.316 44.1751 106.565 44.216 106.811C43.4613 104.552 41.8835 102.661 39.7967 101.513C37.7099 100.365 35.2673 100.045 32.9554 100.617C30.6435 101.19 28.6319 102.612 27.3214 104.6C26.0108 106.589 25.4974 108.998 25.8834 111.348C25.8047 111.111 25.7333 110.868 25.672 110.62C25.3731 109.412 25.315 108.158 25.501 106.928C25.687 105.698 26.1135 104.516 26.7561 103.451C27.3987 102.386 28.2448 101.458 29.2461 100.719C30.2474 99.9812 31.3843 99.4474 32.5919 99.1485C33.7995 98.8497 35.0541 98.7916 36.2842 98.9776C37.5142 99.1636 38.6956 99.5901 39.7608 100.233C40.826 100.875 41.7543 101.721 42.4925 102.723C43.2307 103.724 43.7645 104.861 44.0634 106.068V106.068Z" fill="white"/>
</g>
<path d="M33.0216 107.749C32.9218 107.874 32.8521 108.02 32.8179 108.176C32.7838 108.332 32.7861 108.494 32.8247 108.649C32.8634 108.804 32.9372 108.948 33.0406 109.07C33.1439 109.192 33.274 109.289 33.4207 109.352C35.7426 110.985 38.0646 112.618 40.3867 114.251C41.4587 113.261 42.241 111.999 42.6496 110.598C43.0583 109.198 43.0779 107.713 42.7062 106.302C42.3346 104.892 41.5859 103.609 40.5404 102.592C39.4948 101.574 38.192 100.861 36.7717 100.528C35.5222 102.935 34.2722 105.342 33.0216 107.749Z" fill="#29A5DC"/>
<path d="M41.0993 105.078L41.136 105.61C41.1398 105.664 41.1244 105.717 41.0925 105.761C41.0607 105.805 41.0145 105.836 40.9619 105.849C40.1529 106.049 37.0132 106.824 36.7928 106.881C36.5261 106.966 36.2995 107.145 36.156 107.385C36.0125 107.625 35.962 107.91 36.0139 108.185C36.0531 108.358 36.1582 108.51 36.307 108.607C36.4559 108.704 36.6367 108.739 36.8112 108.706C36.9303 108.684 38.0016 108.418 38.1182 108.385C38.1437 108.378 38.1805 108.342 38.1797 108.321C38.174 108.162 38.16 108.004 38.148 107.836L37.373 108.028L37.3218 107.303L38.7955 106.938L38.932 108.909C38.9239 108.917 37.9667 109.16 37.9616 109.161C37.533 109.298 37.0925 109.393 36.6459 109.447C36.3683 109.448 36.0974 109.362 35.8702 109.203C35.6431 109.043 35.4708 108.817 35.377 108.556C35.2633 108.206 35.2573 107.829 35.3599 107.475C35.4625 107.122 35.6689 106.807 35.9524 106.571C36.1742 106.362 36.449 106.218 36.747 106.154C37.0487 106.085 41.0524 105.09 41.0993 105.078Z" fill="#FCFCFC"/>
<path d="M39.4912 106.759C39.5153 107.12 39.5393 107.481 39.5634 107.842C39.5834 108.14 39.6048 108.438 39.6264 108.748C39.8536 108.691 39.965 108.666 40.183 108.606C40.2282 108.597 40.2681 108.571 40.2944 108.533C40.3208 108.495 40.3315 108.449 40.3243 108.403C40.2777 107.767 40.2381 107.222 40.1922 106.586L39.4912 106.759Z" fill="#FCFCFC"/>
<path d="M32.0955 111.516C32.0009 111.429 31.886 111.368 31.7614 111.336C31.6368 111.305 31.5064 111.306 31.382 111.338C31.2576 111.37 31.1433 111.433 31.0495 111.521C30.9556 111.608 30.8852 111.718 30.8446 111.84C30.4025 112.653 29.9727 113.472 29.54 114.289C30.6791 115.324 32.0913 116.01 33.6087 116.265C35.1261 116.521 36.685 116.335 38.1001 115.731C36.0997 114.325 34.1024 112.914 32.0955 111.516Z" fill="#FF00FF"/>
<path d="M29.448 106.626C30.1448 107.111 30.5574 107.005 30.9517 106.239C31.9562 104.286 32.9589 102.333 33.9599 100.379C33.641 100.418 33.3247 100.477 33.0127 100.554C31.7915 100.855 30.6583 101.44 29.7047 102.26C28.7511 103.08 28.0039 104.113 27.5234 105.276C28.1644 105.727 28.8059 106.177 29.448 106.626Z" fill="#29A5DC"/>
<path d="M28.5041 109.086C28.4748 109.062 27.5333 108.476 26.9148 108.094C26.8721 109.518 27.2066 110.928 27.8845 112.181C28.2479 111.428 28.7073 110.504 28.798 110.308C28.9169 110.106 28.9528 109.865 28.898 109.637C28.8431 109.409 28.7019 109.212 28.5041 109.086Z" fill="#FF00FF"/>
<g opacity="0.27">
<path opacity="0.27" d="M41.4918 96.4806L25.8679 118.523C23.8774 116.77 22.4478 114.469 21.7578 111.908L33.8926 94.7908C36.5365 94.5977 39.1788 95.1853 41.4918 96.4806Z" fill="#FCE5E5"/>
</g>
<g opacity="0.27">
<path opacity="0.27" d="M45.5094 99.8923L31.156 121.309C29.8951 121.06 28.6965 120.561 27.6309 119.843L43.3232 97.708C44.5081 98.648 44.6887 98.5856 45.5094 99.8923Z" fill="#FCE5E5"/>
</g>
<path d="M37.3007 118.175C35.3563 118.656 33.3129 118.55 31.4289 117.87C29.5449 117.19 27.9049 115.966 26.7162 114.354C25.5276 112.742 24.8437 110.813 24.7511 108.813C24.6584 106.812 25.1612 104.828 26.1958 103.113C27.2304 101.398 28.7504 100.028 30.5635 99.1769C32.3766 98.3257 34.4015 98.0312 36.382 98.3307C38.3625 98.6302 40.2097 99.5102 41.69 100.86C43.1704 102.209 44.2173 103.967 44.6985 105.911C45.3406 108.518 44.9223 111.274 43.5354 113.573C42.1486 115.872 39.9063 117.527 37.3007 118.175ZM32.7487 99.7823C31.0553 100.201 29.5242 101.113 28.3491 102.402C27.1739 103.692 26.4074 105.301 26.1466 107.025C25.8858 108.75 26.1423 110.514 26.8837 112.093C27.6251 113.672 28.8181 114.996 30.3118 115.897C31.8056 116.798 33.533 117.236 35.2756 117.155C37.0182 117.074 38.6977 116.479 40.1019 115.444C41.506 114.408 42.5716 112.98 43.1639 111.339C43.7563 109.698 43.8487 107.919 43.4296 106.225C42.8653 103.956 41.4238 102.003 39.4214 100.795C37.4191 99.5874 35.0193 99.2231 32.7487 99.7823Z" fill="#371A45"/>
<path d="M38.3152 122.274C36.1327 122.82 33.8514 122.841 31.6595 122.333C30.0886 121.971 28.5898 121.348 27.2258 120.489C24.1802 118.572 21.9661 115.581 21.0223 112.108C20.9924 111.997 20.9652 111.896 20.9396 111.792C20.2669 109.077 20.4026 106.224 21.33 103.585C22.2574 100.946 23.936 98.6353 26.1593 96.9376C28.3827 95.2399 31.0538 94.2292 33.844 94.0297C36.6343 93.8302 39.422 94.4507 41.8642 95.8148C42.5418 96.1952 43.1881 96.6287 43.7973 97.1111C46.2796 99.0819 48.038 101.821 48.7968 104.898C49.7066 108.592 49.1139 112.496 47.1489 115.753C45.1839 119.01 42.007 121.355 38.3152 122.274ZM31.7868 95.8946C28.4872 96.7155 25.6479 98.8117 23.8919 101.723C22.1359 104.635 21.6065 108.124 22.4199 111.426C22.4431 111.519 22.4676 111.611 22.4929 111.704C23.0235 113.66 24.0104 115.463 25.3727 116.964C26.7349 118.466 28.4336 119.623 30.3295 120.34C32.2254 121.058 34.2644 121.316 36.2794 121.094C38.2944 120.871 40.2278 120.174 41.9212 119.059C43.6146 117.945 45.0197 116.445 46.0212 114.682C47.0227 112.92 47.5921 110.945 47.6828 108.92C47.7734 106.894 47.3826 104.877 46.5425 103.032C45.7024 101.187 44.4369 99.5672 42.8499 98.3059C42.3043 97.8741 41.7256 97.486 41.1189 97.1453C38.2797 95.5591 34.9435 95.112 31.7868 95.8946V95.8946Z" fill="#371A45"/>
<path d="M153.11 102.225C152.993 102.225 152.877 102.196 152.773 102.14C152.67 102.085 152.581 102.005 152.516 101.907C152.45 101.809 152.409 101.697 152.397 101.58C152.385 101.463 152.402 101.345 152.446 101.236L153.817 97.8723C153.89 97.6975 154.029 97.5586 154.204 97.4858C154.379 97.413 154.575 97.4123 154.75 97.4837C154.926 97.5551 155.066 97.693 155.14 97.8672C155.214 98.0414 155.216 98.2378 155.146 98.4137L153.775 101.778C153.721 101.91 153.63 102.023 153.511 102.103C153.393 102.182 153.253 102.225 153.11 102.225Z" fill="#371A45"/>
<path d="M149.684 110.634C149.566 110.634 149.45 110.605 149.347 110.549C149.243 110.494 149.154 110.414 149.089 110.316C149.023 110.219 148.983 110.107 148.971 109.99C148.959 109.873 148.975 109.754 149.02 109.646L151.076 104.6C151.111 104.512 151.163 104.432 151.229 104.365C151.296 104.297 151.375 104.243 151.462 104.206C151.549 104.169 151.642 104.15 151.737 104.149C151.831 104.149 151.925 104.167 152.013 104.202C152.1 104.238 152.18 104.291 152.247 104.357C152.314 104.424 152.367 104.503 152.404 104.59C152.44 104.678 152.459 104.771 152.459 104.866C152.46 104.96 152.441 105.054 152.405 105.141L150.349 110.187C150.295 110.319 150.203 110.432 150.084 110.512C149.966 110.592 149.826 110.634 149.684 110.634Z" fill="#371A45"/>
<path d="M169.946 121.415C169.829 121.414 169.713 121.385 169.609 121.33C169.506 121.274 169.417 121.194 169.352 121.097C169.286 120.999 169.245 120.887 169.233 120.77C169.221 120.653 169.238 120.535 169.282 120.426L173.591 109.853C173.626 109.765 173.678 109.685 173.744 109.618C173.811 109.55 173.889 109.496 173.977 109.459C174.064 109.422 174.157 109.402 174.252 109.401C174.347 109.401 174.441 109.419 174.528 109.454C174.616 109.49 174.696 109.543 174.763 109.61C174.83 109.676 174.884 109.756 174.92 109.843C174.956 109.931 174.975 110.024 174.975 110.119C174.975 110.214 174.956 110.307 174.92 110.395L170.611 120.967C170.557 121.099 170.465 121.213 170.347 121.292C170.229 121.372 170.089 121.415 169.946 121.415Z" fill="#371A45"/>
<path d="M169.674 96.6471C169.556 96.6468 169.441 96.6177 169.337 96.5622C169.233 96.5068 169.145 96.4268 169.079 96.3292C169.014 96.2316 168.973 96.1194 168.961 96.0024C168.949 95.8854 168.966 95.7673 169.01 95.6583L170.087 93.015C170.122 92.9272 170.174 92.8472 170.241 92.7797C170.307 92.7121 170.386 92.6584 170.473 92.6214C170.56 92.5845 170.653 92.5651 170.748 92.5645C170.843 92.5638 170.936 92.5818 171.024 92.6176C171.111 92.6533 171.191 92.7059 171.258 92.7725C171.325 92.8391 171.379 92.9184 171.415 93.0056C171.452 93.0929 171.471 93.1866 171.471 93.2811C171.471 93.3757 171.452 93.4694 171.416 93.5568L170.339 96.1998C170.285 96.332 170.193 96.4451 170.075 96.5248C169.956 96.6045 169.817 96.6471 169.674 96.6471Z" fill="#371A45"/>
<path d="M163.504 111.784C163.386 111.784 163.271 111.755 163.167 111.699C163.063 111.644 162.975 111.564 162.909 111.466C162.844 111.369 162.803 111.256 162.791 111.139C162.779 111.023 162.796 110.904 162.84 110.795L167.443 99.5025C167.478 99.4147 167.53 99.3347 167.596 99.2671C167.663 99.1996 167.741 99.1458 167.828 99.1088C167.916 99.0718 168.009 99.0525 168.104 99.0518C168.198 99.0511 168.292 99.0691 168.38 99.1048C168.467 99.1405 168.547 99.1931 168.614 99.2597C168.681 99.3263 168.735 99.4055 168.771 99.4928C168.807 99.5801 168.826 99.6737 168.826 99.7683C168.827 99.8629 168.808 99.9566 168.772 100.044L164.169 111.337C164.115 111.469 164.023 111.582 163.905 111.662C163.786 111.742 163.647 111.784 163.504 111.784Z" fill="#371A45"/>
<path d="M157.64 109.674C157.522 109.674 157.407 109.645 157.303 109.589C157.199 109.534 157.11 109.454 157.045 109.356C156.979 109.258 156.939 109.146 156.927 109.029C156.915 108.912 156.931 108.794 156.976 108.685L158.739 104.36C158.774 104.272 158.826 104.193 158.892 104.125C158.959 104.058 159.038 104.004 159.125 103.967C159.212 103.93 159.305 103.911 159.4 103.91C159.494 103.91 159.588 103.928 159.676 103.963C159.763 103.999 159.843 104.052 159.91 104.118C159.977 104.185 160.03 104.264 160.067 104.351C160.103 104.439 160.122 104.532 160.122 104.627C160.122 104.721 160.104 104.815 160.068 104.902L158.305 109.227C158.251 109.359 158.159 109.472 158.04 109.552C157.922 109.631 157.783 109.674 157.64 109.674Z" fill="#371A45"/>
<path d="M167.099 114.651C166.981 114.651 166.865 114.621 166.762 114.566C166.658 114.511 166.57 114.431 166.504 114.333C166.438 114.235 166.398 114.123 166.386 114.006C166.374 113.889 166.39 113.771 166.435 113.662L167.61 110.779C167.645 110.691 167.697 110.611 167.763 110.543C167.83 110.476 167.908 110.422 167.995 110.385C168.083 110.348 168.176 110.329 168.271 110.328C168.365 110.327 168.459 110.345 168.547 110.381C168.634 110.417 168.714 110.47 168.781 110.536C168.848 110.603 168.902 110.682 168.938 110.769C168.974 110.856 168.993 110.95 168.993 111.045C168.994 111.139 168.975 111.233 168.939 111.32L167.764 114.204C167.71 114.336 167.618 114.449 167.499 114.529C167.381 114.608 167.241 114.651 167.099 114.651Z" fill="#371A45"/>
<path d="M169.35 125.158C168.847 127.82 167.559 130.272 165.652 132.196C163.744 134.121 161.305 135.431 158.647 135.958C155.989 136.485 153.234 136.206 150.736 135.155C148.238 134.104 146.112 132.33 144.631 130.061C144.227 129.446 143.875 128.798 143.579 128.125C142.5 125.702 142.16 123.015 142.6 120.4C142.618 120.297 142.634 120.197 142.654 120.095C143.147 117.492 144.39 115.091 146.23 113.185C148.07 111.28 150.426 109.954 153.01 109.371C155.594 108.787 158.291 108.972 160.772 109.902C163.252 110.831 165.406 112.466 166.97 114.604C167.403 115.199 167.788 115.828 168.122 116.484C169.48 119.16 169.912 122.21 169.35 125.158V125.158Z" fill="#E8EEFC"/>
<path d="M153.456 136.056C151.349 135.662 149.366 134.774 147.67 133.464C146.453 132.527 145.403 131.392 144.563 130.106C142.687 127.237 141.958 123.768 142.52 120.387C142.538 120.279 142.555 120.181 142.574 120.08C143.07 117.462 144.32 115.046 146.171 113.129C148.022 111.213 150.393 109.879 152.992 109.292C155.591 108.705 158.305 108.89 160.8 109.826C163.295 110.761 165.463 112.405 167.035 114.556C167.471 115.155 167.859 115.787 168.195 116.447C169.562 119.139 169.996 122.208 169.431 125.174C168.752 128.733 166.688 131.878 163.693 133.918C160.698 135.958 157.017 136.727 153.456 136.056ZM158.519 109.357C155 108.694 151.362 109.454 148.403 111.47C145.444 113.486 143.405 116.593 142.734 120.111C142.715 120.21 142.699 120.308 142.682 120.407C142.243 123.009 142.581 125.682 143.654 128.092C143.949 128.762 144.298 129.405 144.699 130.017C145.529 131.287 146.567 132.409 147.769 133.335C149.445 134.629 151.404 135.506 153.486 135.895C155.587 136.292 157.752 136.185 159.803 135.583C161.854 134.981 163.733 133.901 165.286 132.431C166.838 130.961 168.02 129.144 168.734 127.129C169.447 125.113 169.672 122.958 169.391 120.838C169.192 119.334 168.739 117.874 168.05 116.521C167.717 115.869 167.334 115.244 166.904 114.652C164.882 111.887 161.885 109.994 158.519 109.357L158.519 109.357Z" fill="#371A45"/>
<g opacity="0.55">
<path opacity="0.55" d="M169.351 125.158C169.288 125.492 169.212 125.821 169.126 126.144C169.513 122.737 168.598 119.31 166.563 116.55C164.529 113.79 161.527 111.901 158.158 111.262C154.789 110.623 151.303 111.282 148.4 113.105C145.496 114.929 143.389 117.783 142.502 121.095C142.541 120.763 142.591 120.429 142.654 120.095C142.985 118.34 143.658 116.668 144.636 115.174C145.613 113.68 146.876 112.394 148.351 111.388C149.826 110.382 151.485 109.677 153.232 109.312C154.98 108.948 156.783 108.932 158.537 109.264C160.291 109.597 161.962 110.272 163.455 111.251C164.948 112.23 166.233 113.494 167.238 114.97C168.242 116.446 168.946 118.105 169.308 119.853C169.671 121.602 169.685 123.404 169.351 125.158V125.158Z" fill="white"/>
</g>
<path d="M169.351 125.158C169.002 126.99 168.281 128.73 167.231 130.27C166.181 131.811 164.825 133.119 163.248 134.113C161.671 135.107 159.906 135.765 158.063 136.048C156.22 136.33 154.339 136.23 152.537 135.755C150.734 135.279 149.049 134.437 147.586 133.282C146.122 132.127 144.913 130.683 144.031 129.04C143.15 127.397 142.617 125.591 142.464 123.733C142.311 121.875 142.542 120.005 143.143 118.24C142.992 121.509 144.025 124.722 146.054 127.29C148.082 129.858 150.969 131.607 154.184 132.217C157.399 132.827 160.726 132.256 163.553 130.609C166.381 128.962 168.519 126.35 169.576 123.253C169.546 123.893 169.471 124.529 169.351 125.158Z" fill="#B2C6E5"/>
<path d="M154.237 131.934C152.396 131.585 150.7 130.698 149.363 129.385C148.026 128.072 147.109 126.392 146.727 124.557C146.345 122.723 146.516 120.816 147.217 119.079C147.919 117.342 149.12 115.851 150.669 114.796C152.217 113.741 154.044 113.169 155.918 113.153C157.791 113.136 159.628 113.675 161.195 114.702C162.762 115.729 163.99 117.198 164.722 118.923C165.455 120.647 165.659 122.55 165.31 124.391C164.839 126.859 163.409 129.038 161.333 130.452C159.257 131.866 156.705 132.399 154.237 131.934Z" fill="#D9E3FA"/>
<g opacity="0.55">
<path opacity="0.55" d="M165.31 124.392C165.262 124.643 165.205 124.89 165.139 125.131C165.395 122.763 164.749 120.386 163.331 118.472C161.913 116.559 159.826 115.25 157.486 114.806C155.146 114.362 152.725 114.816 150.704 116.078C148.684 117.339 147.213 119.315 146.584 121.612C146.611 121.364 146.648 121.113 146.695 120.862C146.927 119.639 147.397 118.475 148.079 117.434C148.761 116.393 149.641 115.497 150.669 114.797C151.697 114.096 152.854 113.605 154.072 113.351C155.29 113.098 156.546 113.086 157.768 113.318C158.99 113.55 160.155 114.02 161.196 114.702C162.236 115.384 163.132 116.265 163.833 117.293C164.533 118.321 165.024 119.478 165.277 120.696C165.531 121.914 165.542 123.17 165.31 124.392L165.31 124.392Z" fill="white"/>
</g>
<path d="M154.572 121.315C154.429 121.387 154.305 121.491 154.209 121.619C154.113 121.746 154.048 121.894 154.018 122.052C153.988 122.209 153.995 122.37 154.039 122.524C154.082 122.678 154.16 122.82 154.267 122.939C155.696 125.391 157.126 127.843 158.556 130.295C159.943 129.843 161.181 129.022 162.136 127.919C163.091 126.817 163.728 125.475 163.978 124.038C164.229 122.601 164.083 121.123 163.557 119.762C163.03 118.402 162.143 117.21 160.991 116.315C158.852 117.983 156.712 119.649 154.572 121.315Z" fill="#29A5DC"/>
<path d="M163.028 122.256L162.84 122.755C162.821 122.805 162.785 122.848 162.737 122.874C162.69 122.901 162.635 122.91 162.582 122.9C161.763 122.744 158.586 122.14 158.362 122.1C158.084 122.065 157.804 122.134 157.573 122.292C157.343 122.451 157.178 122.688 157.111 122.96C157.074 123.134 157.106 123.315 157.201 123.466C157.296 123.616 157.446 123.724 157.618 123.766C157.736 123.795 158.82 124 158.94 124.019C158.955 124.021 158.971 124.019 158.985 124.013C159 124.007 159.012 123.998 159.023 123.986C159.083 123.84 159.137 123.691 159.196 123.533L158.411 123.384L158.667 122.704L160.159 122.987L159.461 124.834C159.451 124.838 158.479 124.66 158.474 124.659C158.028 124.605 157.587 124.508 157.159 124.371C156.906 124.255 156.696 124.065 156.556 123.825C156.416 123.586 156.353 123.308 156.377 123.032C156.42 122.666 156.571 122.321 156.812 122.042C157.053 121.763 157.372 121.563 157.727 121.468C158.016 121.37 158.326 121.354 158.624 121.42C158.927 121.482 162.981 122.247 163.028 122.256Z" fill="#FCFCFC"/>
<path d="M160.865 123.113C160.737 123.451 160.608 123.789 160.48 124.127C160.374 124.406 160.269 124.686 160.159 124.977C160.389 125.02 160.501 125.044 160.724 125.081C160.769 125.091 160.816 125.084 160.856 125.06C160.896 125.037 160.925 124.999 160.937 124.955C161.16 124.357 161.351 123.845 161.575 123.248L160.865 123.113Z" fill="#FCFCFC"/>
<path d="M152.161 124.353C152.111 124.235 152.032 124.131 151.932 124.051C151.832 123.97 151.713 123.916 151.586 123.894C151.46 123.871 151.33 123.881 151.208 123.921C151.086 123.962 150.976 124.032 150.889 124.126C150.148 124.68 149.416 125.246 148.682 125.808C149.286 127.224 150.283 128.436 151.556 129.301C152.829 130.166 154.323 130.647 155.861 130.688C154.629 128.575 153.402 126.46 152.161 124.353Z" fill="#FF00FF"/>
<path d="M151.793 118.806C152.224 119.537 152.643 119.612 153.321 119.08C155.048 117.724 156.774 116.367 158.498 115.008C158.192 114.911 157.88 114.832 157.564 114.772C156.329 114.537 155.055 114.596 153.846 114.944C152.638 115.292 151.528 115.919 150.606 116.776C151.001 117.453 151.396 118.13 151.793 118.806Z" fill="#29A5DC"/>
<path d="M149.909 120.647C149.892 120.613 149.281 119.688 148.878 119.083C148.246 120.36 147.962 121.781 148.056 123.202C148.7 122.67 149.503 122.021 149.667 121.88C149.859 121.746 149.992 121.543 150.037 121.313C150.082 121.083 150.036 120.844 149.909 120.647Z" fill="#FF00FF"/>
<g opacity="0.27">
<path opacity="0.27" d="M166.97 114.604L143.579 128.126C142.5 125.703 142.16 123.016 142.6 120.4L160.767 109.9C163.25 110.827 165.407 112.463 166.97 114.604Z" fill="#FCE5E5"/>
</g>
<g opacity="0.27">
<path opacity="0.27" d="M169.199 119.381L147.224 132.864C146.181 132.112 145.3 131.159 144.631 130.062L168.123 116.484C168.718 117.345 169.088 118.341 169.199 119.381Z" fill="#FCE5E5"/>
</g>
<path d="M154.115 132.576C152.147 132.202 150.334 131.254 148.905 129.85C147.477 128.447 146.496 126.651 146.088 124.69C145.679 122.729 145.862 120.691 146.612 118.834C147.362 116.976 148.646 115.383 150.301 114.255C151.956 113.128 153.909 112.516 155.912 112.498C157.915 112.481 159.878 113.057 161.554 114.155C163.229 115.253 164.541 116.823 165.324 118.667C166.107 120.51 166.326 122.545 165.952 124.513C165.449 127.15 163.92 129.48 161.701 130.992C159.482 132.503 156.754 133.073 154.115 132.576ZM157.646 113.96C155.932 113.635 154.16 113.825 152.554 114.507C150.949 115.189 149.581 116.332 148.625 117.791C147.669 119.25 147.167 120.96 147.182 122.704C147.198 124.449 147.731 126.149 148.713 127.591C149.695 129.033 151.082 130.151 152.7 130.804C154.317 131.457 156.092 131.616 157.8 131.261C159.508 130.905 161.072 130.051 162.295 128.806C163.517 127.562 164.343 125.983 164.668 124.269C165.101 121.971 164.605 119.595 163.289 117.662C161.972 115.73 159.943 114.398 157.646 113.96Z" fill="#371A45"/>
<path d="M153.329 136.724C151.117 136.311 149.035 135.378 147.254 134.003C145.977 133.019 144.875 131.828 143.993 130.479C142.024 127.466 141.259 123.824 141.848 120.274C141.868 120.161 141.885 120.058 141.905 119.953C142.426 117.204 143.738 114.668 145.681 112.656C147.625 110.643 150.114 109.243 152.842 108.627C155.571 108.011 158.42 108.206 161.04 109.187C163.659 110.169 165.934 111.896 167.585 114.154C168.043 114.782 168.449 115.445 168.802 116.138C170.237 118.964 170.693 122.186 170.1 125.3C169.387 129.037 167.221 132.338 164.077 134.48C160.932 136.621 157.067 137.428 153.329 136.724ZM158.392 110.025C155.051 109.395 151.596 110.117 148.786 112.031C145.976 113.946 144.04 116.897 143.403 120.237C143.385 120.332 143.37 120.425 143.354 120.52C143.02 122.519 143.166 124.57 143.778 126.502C144.39 128.435 145.452 130.195 146.876 131.638C148.3 133.08 150.046 134.165 151.97 134.803C153.894 135.441 155.943 135.613 157.946 135.306C159.95 134.999 161.853 134.221 163.498 133.037C165.143 131.852 166.484 130.294 167.411 128.491C168.337 126.688 168.823 124.691 168.829 122.664C168.835 120.637 168.359 118.637 167.443 116.829C167.127 116.209 166.763 115.615 166.353 115.052C164.434 112.427 161.588 110.63 158.392 110.025L158.392 110.025Z" fill="#371A45"/>
</g>
<defs>
<clipPath id="clip0">
<rect width="193.133" height="177.562" fill="white"/>
</clipPath>
</defs>
</svg>
