<?xml version="1.0" encoding="UTF-8" standalone="no"?>
<!DOCTYPE svg PUBLIC "-//W3C//DTD SVG 1.1//EN" "http://www.w3.org/Graphics/SVG/1.1/DTD/svg11.dtd">
<svg width="100%" height="100%" viewBox="0 0 200 201" version="1.1" xmlns="http://www.w3.org/2000/svg" xmlns:xlink="http://www.w3.org/1999/xlink" xml:space="preserve" xmlns:serif="http://www.serif.com/" style="fill-rule:evenodd;clip-rule:evenodd;stroke-linejoin:round;stroke-miterlimit:2;">
    <g transform="matrix(0.35387,0,0,0.35387,-4.84877,-0.654252)">
        <path d="M202.044,319.304C216.248,319.304 229.36,314.577 239.923,306.397L153.238,219.871C145.043,230.232 140.308,243.32 140.308,257.681C140.126,291.673 167.807,319.304 202.044,319.304Z" style="fill:rgb(4,121,91);fill-rule:nonzero;"/>
    </g>
    <g transform="matrix(0.35387,0,0,0.35387,-4.84877,-0.654252)">
        <path d="M459.913,257.499C459.913,243.32 455.178,230.232 446.983,219.689L360.298,306.215C370.679,314.395 383.791,319.121 398.178,319.121C432.232,319.303 459.913,291.673 459.913,257.499Z" style="fill:rgb(4,121,91);fill-rule:nonzero;"/>
    </g>
    <g transform="matrix(0.35387,0,0,0.35387,-4.84877,-0.654252)">
        <path d="M503.62,163.521L465.194,201.876C477.942,217.145 485.591,236.414 485.591,257.863C485.591,306.034 446.437,345.117 398.177,345.117C376.87,345.117 357.384,337.482 342.087,324.758L300.019,366.748L257.951,324.758C242.654,337.482 223.35,345.117 201.861,345.117C153.601,345.117 114.447,306.034 114.447,257.863C114.447,236.595 122.096,217.145 134.844,201.876L115.176,182.244L96.418,163.521C74.565,199.513 61.999,241.504 61.999,286.584C61.999,417.828 168.534,523.985 299.837,523.985C431.139,523.985 537.674,417.646 537.674,286.584C538.039,241.322 525.473,199.331 503.62,163.521Z" style="fill:rgb(4,121,91);fill-rule:nonzero;"/>
    </g>
    <g transform="matrix(0.35387,0,0,0.35387,-4.84877,-0.654252)">
        <path d="M472.114,122.62C428.954,77.357 367.764,49 300.019,49C232.273,49 171.266,77.357 127.924,122.62C122.096,128.8 116.451,135.345 111.169,142.07L299.837,330.392L488.504,141.889C483.769,135.345 478.124,128.619 472.114,122.62ZM300.019,79.902C355.745,79.902 407.465,101.352 446.255,140.434L300.019,286.401L153.783,140.434C192.755,101.352 244.293,79.902 300.019,79.902Z" style="fill:rgb(4,121,91);fill-rule:nonzero;"/>
    </g>
</svg>
