<svg width="162" height="28" viewBox="0 0 162 32" fill="none" xmlns="http://www.w3.org/2000/svg">
<path d="M60.396 14.56C60.396 16.79 60.326 19.02 60.396 21.25C60.396 22.38 59.8159 22.25 59.1359 22.25C58.4559 22.25 57.6259 22.6401 57.6959 21.3301C57.7959 19.6601 57.6959 17.9801 57.6959 16.3301C57.6959 15.6701 57.5959 15.3301 56.8059 15.3301C55.65 15.39 54.4918 15.39 53.336 15.3301C52.636 15.3301 52.4659 15.5801 52.4859 16.2301C52.4859 17.9401 52.4259 19.6601 52.4859 21.3701C52.5459 22.6001 51.7259 22.2301 51.1359 22.2301C50.5459 22.2301 49.7759 22.5801 49.7959 21.3601C49.8559 16.8201 49.8559 12.2801 49.7959 7.7401C49.7959 6.4701 50.5459 6.7401 51.2059 6.7401C51.8659 6.7401 52.5759 6.5901 52.4959 7.7401C52.3959 9.1901 52.4959 10.6501 52.4959 12.1101C52.4959 12.7301 52.5859 13.11 53.3259 13.02C54.5259 12.96 55.7259 12.97 56.9259 13.02C57.5659 13.02 57.7059 12.78 57.6959 12.19C57.6959 10.69 57.7559 9.19005 57.6959 7.69005C57.6359 6.51005 58.3859 6.75 59.0359 6.77C59.6859 6.79 60.4259 6.44001 60.3859 7.65001C60.3459 9.88001 60.396 12.2 60.396 14.56Z" fill="#4B4D4A"/>
<path d="M154.441 22.1799C154.441 23.1799 154.371 24.1799 154.441 25.1799C154.511 26.1799 153.931 26.2699 153.181 26.1799C152.431 26.0899 151.711 26.5598 151.721 25.2498C151.781 20.7098 151.721 16.1698 151.721 11.6298C151.707 11.5092 151.718 11.3871 151.753 11.2707C151.787 11.1544 151.845 11.0463 151.923 10.9528C152 10.8594 152.096 10.7826 152.204 10.7271C152.312 10.6716 152.43 10.6385 152.551 10.6298C153.862 10.3277 155.207 10.2033 156.551 10.2599C157.673 10.278 158.759 10.6632 159.642 11.3567C160.525 12.0501 161.157 13.0136 161.441 14.0999C161.863 15.4556 161.908 16.9006 161.571 18.2799C160.741 21.6699 158.631 22.8399 154.441 22.1799ZM155.701 12.5999C154.591 12.2999 154.351 12.9499 154.421 14.0799C154.501 15.3999 154.421 16.7299 154.421 18.0799C154.421 19.5699 154.871 20.0799 156.361 20.0799C156.835 20.1088 157.306 19.9871 157.707 19.732C158.107 19.477 158.417 19.1016 158.591 18.6599C159.104 17.5162 159.207 16.2304 158.881 15.0199C158.836 14.6484 158.718 14.2896 158.534 13.9642C158.349 13.6388 158.102 13.3533 157.806 13.1244C157.51 12.8954 157.171 12.7277 156.81 12.6308C156.449 12.5339 156.072 12.5098 155.701 12.5599V12.5999Z" fill="#4B4D4A"/>
<path d="M131.084 18C130.424 19.64 129.804 21 129.334 22.4C129.024 23.31 128.334 23.0401 127.774 23.1101C127.214 23.1801 126.974 22.72 126.844 22.17C126.124 18.8246 125.583 15.4431 125.224 12.04C125.154 11.48 125.294 11.31 125.864 11.27C127.654 11.15 127.644 11.13 127.864 12.9C128.084 14.67 128.274 16.43 128.514 18.51C129.142 17.3358 129.593 16.0756 129.854 14.77C130.054 13.95 130.524 13.8601 131.244 13.8301C131.964 13.8001 132.244 14.1301 132.434 14.8301C132.682 16.0505 133.096 17.2314 133.664 18.3401C134.048 16.4234 134.295 14.4818 134.404 12.53C134.447 12.2744 134.55 12.0326 134.704 11.8245C134.859 11.6163 135.06 11.4478 135.293 11.3326C135.525 11.2175 135.781 11.1589 136.04 11.162C136.3 11.165 136.554 11.2295 136.784 11.3501C137.114 11.5501 136.974 11.88 136.944 12.15C136.569 15.465 136.028 18.7591 135.324 22.02C135.214 22.51 135.264 23.17 134.394 23.13C133.524 23.09 133.004 23.1301 132.704 22.2101C132.264 20.8601 131.694 19.56 131.084 18Z" fill="#4B4D4A"/>
<path d="M97.245 19.39C97.685 22.03 97.515 22.23 94.955 22.39C91.565 22.6 89.375 21.63 88.375 19.28C87.8765 18.2297 87.6474 17.0717 87.7085 15.9107C87.7696 14.7497 88.119 13.6222 88.725 12.63C89.3682 11.6323 90.3154 10.8681 91.4265 10.4503C92.5377 10.0325 93.7537 9.98328 94.8949 10.31C96.8949 10.83 98.125 12.53 98.355 15.18C98.535 17.18 98.535 17.18 96.605 17.18H91.335C90.445 17.18 90.435 17.55 90.705 18.18C90.966 18.752 91.3898 19.2343 91.9234 19.5669C92.4569 19.8994 93.0765 20.0675 93.705 20.05C94.9198 20.1019 96.1305 19.8762 97.245 19.39ZM92.995 14.9H94.6549C95.8049 14.99 95.745 14.44 95.355 13.68C95.1668 13.2915 94.8655 12.969 94.4908 12.7549C94.116 12.5407 93.6853 12.445 93.255 12.4801C92.7609 12.4859 92.2776 12.6256 91.8567 12.8845C91.4358 13.1434 91.0931 13.5117 90.865 13.95C90.465 14.65 90.615 14.95 91.455 14.9C91.945 14.86 92.475 14.89 92.995 14.9Z" fill="#4B4D4A"/>
<path d="M148.447 17.7499V21.22C148.447 21.64 148.447 21.9599 147.887 22.0499C145.751 22.5399 143.532 22.5399 141.397 22.0499C140.616 21.8668 139.927 21.4122 139.45 20.7675C138.974 20.1227 138.742 19.3297 138.797 18.5299C138.783 17.7525 139.03 16.9928 139.497 16.3715C139.965 15.7501 140.626 15.3026 141.377 15.1C142.469 14.7087 143.642 14.6019 144.787 14.7899C145.787 14.9899 145.897 14.47 145.677 13.73C145.59 13.4182 145.415 13.1385 145.171 12.9253C144.928 12.7121 144.627 12.5746 144.307 12.5299C143.246 12.3705 142.164 12.4284 141.127 12.7C140.627 12.81 140.127 12.96 140.127 12.23C140.127 11.5 139.437 10.78 140.467 10.49C142.27 9.89982 144.214 9.89982 146.017 10.49C146.658 10.6963 147.221 11.0947 147.629 11.6312C148.037 12.1678 148.27 12.8166 148.297 13.49C148.387 14.89 148.297 16.31 148.297 17.72L148.447 17.7499ZM144.177 20.11C144.637 19.91 145.447 20.4399 145.787 19.6699C146.477 18.1099 145.717 16.9899 144.067 17.0099C142.417 17.0299 141.507 17.5699 141.477 18.5399C141.447 19.5099 142.237 20.11 144.177 20.11Z" fill="#4B4D4A"/>
<path d="M106.208 18.73C107.148 16.09 107.678 13.62 108.328 11.19C108.418 10.83 108.398 10.3699 108.958 10.3899C109.68 10.3898 110.401 10.4299 111.118 10.5099C111.268 10.5099 111.118 10.88 111.118 11.09C110.163 15.1707 108.823 19.1518 107.118 22.98C105.868 25.7 103.658 26.7 101.068 26.05C99.9878 25.77 100.428 25.13 100.528 24.58C100.628 24.03 100.628 23.31 101.598 23.77C102.165 24.0039 102.801 24.0039 103.368 23.77C103.654 23.7075 103.92 23.5771 104.145 23.3898C104.369 23.2026 104.545 22.964 104.658 22.6941C104.771 22.4243 104.817 22.1313 104.793 21.8399C104.768 21.5485 104.674 21.2672 104.518 21.02C102.998 17.9575 101.746 14.7689 100.778 11.49C100.538 10.65 100.678 10.4399 101.598 10.3799C101.858 10.3122 102.131 10.304 102.394 10.356C102.658 10.408 102.907 10.5189 103.123 10.6804C103.338 10.8418 103.514 11.0496 103.638 11.2885C103.762 11.5274 103.83 11.7911 103.838 12.06C104.364 14.3684 105.16 16.6071 106.208 18.73Z" fill="#4B4D4A"/>
<path d="M73.1589 16.35C73.1589 21 69.1589 23.85 65.3489 21.86C63.2089 20.73 62.0889 18.03 62.5489 15.09C63.0289 11.97 65.1389 10.02 67.9289 10.09C69.3138 10.1504 70.6241 10.7342 71.5949 11.7236C72.5658 12.713 73.1247 14.0342 73.1589 15.4199C73.1789 15.7499 73.1589 16.05 73.1589 16.35ZM65.1589 16.35C65.1528 16.9459 65.2371 17.5393 65.4089 18.11C65.5272 18.66 65.8304 19.1528 66.2681 19.5063C66.7057 19.8599 67.2513 20.0526 67.8139 20.0526C68.3765 20.0526 68.9221 19.8599 69.3597 19.5063C69.7974 19.1528 70.1006 18.66 70.2189 18.11C70.6964 16.7595 70.6209 15.2751 70.0089 13.98C69.8258 13.5439 69.5122 13.1751 69.1111 12.9244C68.71 12.6737 68.2412 12.5534 67.7689 12.5799C67.2949 12.5723 66.83 12.7101 66.4367 12.9747C66.0433 13.2393 65.7405 13.618 65.5689 14.0599C65.2559 14.7635 65.1121 15.5307 65.1489 16.2999L65.1589 16.35Z" fill="#4B4D4A"/>
<path d="M75.8119 16.3601V11.6001C75.7918 11.4785 75.7981 11.3539 75.8303 11.2349C75.8626 11.116 75.92 11.0054 75.9987 10.9106C76.0774 10.8158 76.1755 10.739 76.2865 10.6854C76.3975 10.6318 76.5187 10.6027 76.6419 10.6001C78.2329 10.2478 79.869 10.1431 81.492 10.29C82.3795 10.3583 83.2156 10.7327 83.8577 11.3492C84.4997 11.9657 84.9077 12.786 85.0119 13.67C85.2318 16.3307 85.2853 19.0026 85.1719 21.67C85.1719 22.67 84.3619 22.1501 83.9119 22.2401C82.8219 22.4701 82.432 22.08 82.492 20.9C82.597 18.9314 82.597 16.9587 82.492 14.9901C82.5106 14.5652 82.4169 14.1429 82.2204 13.7657C82.0238 13.3885 81.7313 13.0698 81.3723 12.8416C81.0134 12.6135 80.6007 12.484 80.1758 12.4662C79.7509 12.4483 79.3287 12.5428 78.9519 12.7401C78.3719 12.9601 78.5519 13.43 78.5519 13.82C78.5519 16.3 78.4819 18.82 78.5519 21.27C78.5519 22.41 77.9519 22.27 77.2719 22.27C76.5919 22.27 75.7419 22.6701 75.8119 21.3501C75.8819 19.6201 75.8119 17.9901 75.8119 16.3601Z" fill="#4B4D4A"/>
<path d="M117.951 22.4501C116.879 22.4742 115.81 22.3153 114.791 21.9801C114.558 21.8702 114.353 21.7096 114.19 21.5102C114.027 21.3109 113.91 21.0776 113.849 20.8275C113.788 20.5774 113.783 20.3168 113.835 20.0647C113.887 19.8125 113.995 19.5753 114.151 19.3701C114.431 19.0901 114.691 19.31 114.961 19.43C116.257 20.0039 117.684 20.2148 119.091 20.04C119.681 19.96 120.361 19.92 120.491 19.18C120.621 18.44 119.951 18.18 119.431 17.91C118.501 17.5 117.511 17.2101 116.561 16.8101C114.651 16.0201 113.741 14.81 113.921 13.3C114.121 11.59 115.391 10.5201 117.491 10.2201C118.979 10.03 120.49 10.1284 121.941 10.51C123.341 10.86 122.311 11.8 122.331 12.51C122.351 13.22 121.871 13.05 121.391 12.9C120.164 12.5077 118.859 12.4218 117.591 12.65C117.101 12.73 116.661 12.9201 116.591 13.4701C116.521 14.0201 116.911 14.2501 117.311 14.4701C118.371 14.9101 119.471 15.28 120.511 15.76C121.811 16.37 123.041 17.08 123.171 18.76C123.331 20.76 122.101 22.1001 119.751 22.4501C119.151 22.4806 118.551 22.4806 117.951 22.4501Z" fill="#4B4D4A"/>
<path d="M27.9269 23.86H12.6568L11.9569 23.7999C11.451 23.2689 11.0926 22.615 10.9172 21.9028C10.7418 21.1907 10.7555 20.4452 10.9569 19.74H29.0169C29.0569 21.27 29.3069 22.78 27.9269 23.86Z" fill="#F1D514"/>
<path d="M27.3769 11.49C27.9176 11.6233 28.3892 11.9532 28.6998 12.4154C29.0104 12.8776 29.1377 13.439 29.0569 13.99C29.0569 14.38 29.0569 14.7699 29.0569 15.1599L28.9669 15.5399L10.9269 15.5599C10.9074 15.5401 10.884 15.5245 10.8582 15.5142C10.8324 15.5038 10.8047 15.4989 10.7769 15.4999C10.7769 14.8799 10.8369 14.2499 10.8869 13.6299C10.8928 13.1344 11.0614 12.6546 11.3668 12.2643C11.6721 11.874 12.0974 11.5949 12.5769 11.47C12.6565 11.5216 12.7444 11.5588 12.8369 11.58H27.2569C27.2569 11.56 27.3169 11.56 27.3769 11.49Z" fill="#F6D816"/>
<path d="M28.9899 15.5599L29.08 15.1799C29.7624 15.8277 30.5593 16.3431 31.4299 16.7C33.5199 17.97 35.6599 19.1599 37.7799 20.3799C38.3699 20.7099 38.9299 21.07 38.9199 21.83C38.8943 22.1894 38.7721 22.5352 38.5662 22.8309C38.3602 23.1267 38.0782 23.3612 37.7499 23.5099C36.6081 24.2145 35.338 24.686 34.0129 24.8971C32.6879 25.1082 31.3342 25.0549 30.0299 24.74C29.25 24.6981 28.5069 24.3951 27.9199 23.8799C29.3099 22.7999 29.0599 21.2899 28.9199 19.8199C29.0383 18.4031 29.0617 16.9799 28.9899 15.5599Z" fill="#7EDCD1"/>
<path d="M10.7239 15.4999C10.7517 15.4989 10.7794 15.5038 10.8052 15.5142C10.8311 15.5245 10.8544 15.5401 10.8739 15.5599V19.7799C10.6725 20.4851 10.6588 21.2307 10.8342 21.9429C11.0096 22.655 11.368 23.309 11.8739 23.84C10.3006 24.796 8.45116 25.1941 6.6239 24.97C4.98327 24.9381 3.38775 24.4271 2.03387 23.4999C0.553871 22.4399 0.533888 21.2299 2.11389 20.2799C4.27389 18.9999 6.4739 17.7699 8.6839 16.5599C9.30788 16.1079 9.9953 15.7506 10.7239 15.4999Z" fill="#7EDCD1"/>
<path d="M12.6469 23.8999H27.1969C25.1935 25.235 23.1168 26.4569 20.9769 27.5599C20.5929 27.7506 20.1648 27.8345 19.7372 27.8029C19.3097 27.7712 18.8985 27.6251 18.5469 27.3799C16.5769 26.2299 14.6169 25.0599 12.6469 23.8999Z" fill="#2B3433"/>
<path d="M13.3668 11.0199L18.6868 7.88989C19.0607 7.64796 19.4965 7.51929 19.9418 7.51929C20.3871 7.51929 20.823 7.64796 21.1968 7.88989L26.5168 11.0399C25.628 11.2596 24.7104 11.3406 23.7968 11.2799H15.4568C14.7511 11.2991 14.0464 11.2115 13.3668 11.0199Z" fill="#2B3433"/>
<path d="M15.4159 0.730125C16.3658 0.837072 17.2542 1.25314 17.9444 1.91445C18.6347 2.57576 19.0884 3.44558 19.2359 4.39004C19.2359 4.86004 19.1359 5.39004 18.7059 5.39004C18.2759 5.39004 18.0259 5.02008 17.9359 4.56008C17.856 3.87576 17.543 3.23981 17.0495 2.75906C16.556 2.2783 15.912 1.98202 15.2259 1.92007C14.8659 1.86007 14.3359 1.83003 14.4459 1.26003C14.5559 0.690032 14.9259 0.700125 15.4159 0.730125Z" fill="#2B3433"/>
<path d="M20.7479 4.46993C20.8956 3.48697 21.371 2.58264 22.0971 1.90377C22.8231 1.2249 23.7572 0.811323 24.7479 0.729942C24.9084 0.705869 25.0722 0.739935 25.2098 0.826134C25.3473 0.912333 25.4495 1.04495 25.4979 1.19991C25.5779 1.52991 25.2379 1.68995 25.0079 1.85995C24.9503 1.88903 24.89 1.91242 24.8279 1.92989C24.1199 2.00691 23.4601 2.32535 22.9592 2.83163C22.4584 3.3379 22.1472 4.00118 22.0779 4.70992C22.0079 5.08992 21.7579 5.53988 21.3179 5.41988C21.1213 5.3615 20.9537 5.23161 20.8482 5.05575C20.7426 4.87989 20.7069 4.67088 20.7479 4.46993Z" fill="#2B3433"/>
<path d="M13.3669 11.02C14.048 11.2015 14.7526 11.279 15.4569 11.25H23.7969C24.7105 11.3107 25.628 11.2298 26.5169 11.01C26.8394 11.0897 27.1357 11.2517 27.3769 11.4801C27.3169 11.4801 27.2569 11.5601 27.2069 11.5601H12.7869C12.6944 11.5389 12.6064 11.5017 12.5269 11.4501C12.7069 11.1401 13.1469 11.29 13.3669 11.02Z" fill="#4B4D4A"/>
<path d="M10.9269 19.78V15.5601H29.0369C29.1319 16.9785 29.1319 18.4017 29.0369 19.8201L10.9269 19.78Z" fill="#2B3433"/>
</svg>
