<svg xmlns="http://www.w3.org/2000/svg" width="158" height="30" viewBox="0 0 158 30"><g><g><path fill="#6300ff" d="M9.425 29.46c-6.094 0-8.927-3.133-8.927-9.443V6.97C.498 2.72 2.343.401 7.322.401h24.552c4.98 0 6.74 2.318 6.74 6.568v4.077c0 4.25-1.76 6.568-6.74 6.568H7.28v1.716c0 2.577 1.117 3.908 3.606 3.908h26.998v6.223zM31.917 8.558c0-1.674-.687-2.533-2.489-2.533H9.77c-1.803 0-2.49.859-2.49 2.533v4.164h22.15c1.801 0 2.488-.945 2.488-2.576z"/></g><g><path fill="#6300ff" d="M49.607 29.46c-6.052 0-8.885-3.132-8.885-9.442V.402h6.74V19.33c0 2.575 1.158 3.906 3.562 3.906h21.718v6.224z"/></g><g><path fill="#6300ff" d="M73.777.402h6.739v29.059h-6.739z"/></g><g><path fill="#6300ff" d="M96.57 29.46V6.584H81.461V.402h37v6.18h-15.195v22.879z"/></g><g><path fill="#6300ff" d="M127.995 29.46c-6.095 0-8.928-3.133-8.928-9.443V6.97c0-4.25 1.846-6.568 6.825-6.568h24.551c4.98 0 6.74 2.318 6.74 6.568v4.077c0 4.25-1.76 6.568-6.74 6.568h-24.595v1.716c0 2.577 1.118 3.908 3.607 3.908h26.997v6.223zm22.492-20.902c0-1.674-.687-2.533-2.49-2.533h-19.659c-1.802 0-2.49.859-2.49 2.533v4.164h22.15c1.802 0 2.489-.945 2.489-2.576z"/></g></g></svg>