<svg xmlns="http://www.w3.org/2000/svg" width="280" height="30" viewBox="0 0 280 30"><g><g><path fill="#6300ff" d="M15.766 29.46L.657.403h8.027L20.66 24.01h4.635L37.1.402h7.77L29.93 29.46z"/></g><g><path fill="#6300ff" d="M53.974 29.46c-6.094 0-8.927-3.133-8.927-9.443V6.97c0-4.25 1.845-6.568 6.824-6.568h24.551c4.98 0 6.74 2.318 6.74 6.568v4.077c0 4.25-1.76 6.568-6.74 6.568H51.828v1.716c0 2.577 1.116 3.908 3.605 3.908h26.999v6.223zM76.466 8.558c0-1.674-.687-2.533-2.49-2.533H54.319c-1.803 0-2.49.859-2.49 2.533v4.164h22.148c1.803 0 2.49-.945 2.49-2.576z"/></g><g><path fill="#6300ff" d="M99.134 29.46V6.584H84.025V.402h37v6.18H105.83v22.879z"/></g><g><path fill="#6300ff" d="M130.558 29.46c-6.094 0-8.927-3.133-8.927-9.443V6.97c0-4.25 1.845-6.568 6.824-6.568h24.552c4.98 0 6.74 2.318 6.74 6.568v4.077c0 4.25-1.76 6.568-6.74 6.568h-24.595v1.716c0 2.577 1.117 3.908 3.606 3.908h26.998v6.223zM153.05 8.558c0-1.674-.687-2.533-2.489-2.533h-19.659c-1.803 0-2.49.859-2.49 2.533v4.164h22.15c1.801 0 2.488-.945 2.488-2.576z"/></g><g><path fill="#6300ff" d="M194.391 29.46c-.472-.343-.73-.858-.73-1.888v-5.409c0-1.888-1.2-2.618-3.047-2.618h-21.848v9.915h-6.739V.401h31.162c4.936 0 6.74 2.318 6.74 6.568v3.734c0 4.807-2.362 5.537-4.122 5.794 1.803.172 4.55 1.117 4.55 5.581v5.494c0 1.03.301 1.545.773 1.888zm-1.159-20.902c0-1.674-.687-2.533-2.49-2.533h-21.976v8.156h21.676c1.674 0 2.79-.644 2.79-2.533z"/></g><g><path fill="#6300ff" d="M208.604 29.46c-4.936 0-6.74-2.317-6.74-6.566v-3.95c0-4.25 1.804-6.567 6.74-6.567h24.638v-1.845c0-2.661-1.16-3.95-3.605-3.95h-27.042V.403h28.5c6.053 0 8.843 3.134 8.843 9.443V29.46zm24.638-12.232H211.05c-1.803 0-2.49.9-2.49 2.532v1.46c0 1.716.687 2.618 2.49 2.618h22.19z"/></g><g><path fill="#6300ff" d="M272.822 29.46V10.533c0-2.618-1.159-3.95-3.563-3.95h-20.302v22.879h-6.739V.4h28.458c6.052 0 8.885 3.178 8.885 9.444V29.46z"/></g></g></svg>