<svg xmlns="http://www.w3.org/2000/svg" width="117" height="30" viewBox="0 0 117 30"><g><g><path fill="#6300ff" d="M7.361 22.25v7.21H.622V.403h30.433c4.98 0 6.74 2.318 6.74 6.568v8.155c0 5.022-1.76 7.125-6.74 7.125zM31.055 8.557c0-1.674-.687-2.533-2.447-2.533H7.361v10.732h21.247c1.76 0 2.447-.859 2.447-2.748z"/></g><g><path fill="#6300ff" d="M71.365 29.46c-.472-.343-.73-.858-.73-1.888v-5.409c0-1.888-1.2-2.618-3.047-2.618H45.74v9.915h-6.739V.401h31.162c4.936 0 6.74 2.318 6.74 6.568v3.734c0 4.807-2.362 5.537-4.122 5.794 1.803.172 4.55 1.117 4.55 5.581v5.494c0 1.03.301 1.545.773 1.888zM70.206 8.558c0-1.674-.687-2.533-2.49-2.533H45.74v8.156h21.676c1.674 0 2.79-.644 2.79-2.533z"/></g><g><path fill="#6300ff" d="M87.595 29.46c-6.094 0-8.927-3.132-8.927-9.442V9.845c0-6.31 2.833-9.443 8.927-9.443h20.303c6.095 0 8.885 3.134 8.885 9.443v10.173c0 6.31-2.79 9.443-8.885 9.443zm22.45-18.928c0-2.661-1.117-3.95-3.606-3.95H89.055c-2.49 0-3.606 1.289-3.606 3.95v8.799c0 2.576 1.116 3.907 3.606 3.907h17.384c2.49 0 3.605-1.331 3.605-3.907z"/></g></g></svg>