<svg xmlns="http://www.w3.org/2000/svg" width="207" height="30" viewBox="0 0 207 30"><g><g><path fill="#6300ff" d="M32.557 29.46c-.472-.343-.73-.858-.73-1.888v-5.409c0-1.888-1.2-2.618-3.047-2.618H6.932v9.915H.193V.401h31.162c4.936 0 6.74 2.318 6.74 6.568v3.734c0 4.807-2.362 5.537-4.122 5.794 1.803.172 4.55 1.117 4.55 5.581v5.494c0 1.03.301 1.545.773 1.888zM31.398 8.558c0-1.674-.687-2.533-2.49-2.533H6.932v8.156h21.676c1.674 0 2.79-.644 2.79-2.533z"/></g><g><path fill="#6300ff" d="M48.787 29.46c-6.094 0-8.927-3.132-8.927-9.442V9.845c0-6.31 2.833-9.443 8.927-9.443H69.09c6.095 0 8.885 3.134 8.885 9.443v10.173c0 6.31-2.79 9.443-8.885 9.443zm22.449-18.928c0-2.661-1.116-3.95-3.605-3.95H50.247c-2.49 0-3.606 1.289-3.606 3.95v8.799c0 2.576 1.116 3.907 3.606 3.907h17.384c2.489 0 3.605-1.331 3.605-3.907z"/></g><g><path fill="#6300ff" d="M88.668 29.46c-6.094 0-8.927-3.132-8.927-9.442V9.845c0-6.31 2.833-9.443 8.927-9.443h20.303c6.095 0 8.885 3.134 8.885 9.443v10.173c0 6.31-2.79 9.443-8.885 9.443zm22.45-18.928c0-2.661-1.117-3.95-3.606-3.95H90.128c-2.49 0-3.606 1.289-3.606 3.95v8.799c0 2.576 1.116 3.907 3.606 3.907h17.384c2.49 0 3.605-1.331 3.605-3.907z"/></g><g><path fill="#6300ff" d="M150.526 29.46L138.078 17.1h-11.417V29.46h-6.696V.4h6.696v11.633h11.546L150.14.402h8.112l-13.907 13.864 14.723 15.195z"/></g><g><path fill="#6300ff" d="M159.545.402h6.739v29.059h-6.739z"/></g><g><path fill="#6300ff" d="M177.23 29.46c-6.094 0-8.927-3.133-8.927-9.443V6.97c0-4.25 1.845-6.568 6.824-6.568h24.552c4.979 0 6.739 2.318 6.739 6.568v4.077c0 4.25-1.76 6.568-6.74 6.568h-24.594v1.716c0 2.577 1.117 3.908 3.606 3.908h26.998v6.223zm22.492-20.902c0-1.674-.687-2.533-2.49-2.533h-19.658c-1.803 0-2.49.859-2.49 2.533v4.164h22.149c1.802 0 2.489-.945 2.489-2.576z"/></g></g></svg>