<svg xmlns="http://www.w3.org/2000/svg" viewBox="0 0 1918.46815 64.43511"><defs><style>.a{fill:#6300ff;}.b{fill:#f9f9f9;}.c{fill:#e8eefc;}.d{fill:#371a45;}.e{opacity:0.55;}.f{fill:#fff;}.g{fill:#b2c6e5;}.h{fill:#d9e3fa;}.i{fill:#29a5dc;}.j{fill:#fcfcfc;}.k{fill:#f0f;}.l{opacity:0.27;}.m{fill:#fce5e5;}</style></defs><rect class="a" width="1918.46815" height="64.43511"/><path class="b" d="M578.02167,49.68635a8.75615,8.75615,0,0,1-4.83935-1.24621,7.84791,7.84791,0,0,1-2.92872-3.44782,14.28018,14.28018,0,0,1-1.16308-5.10944l4.15381-1.12164a18.67378,18.67378,0,0,0,.561,3.44788A6.16924,6.16924,0,0,0,575.23847,44.93a3.63628,3.63628,0,0,0,2.7832,1.05927,3.564,3.564,0,0,0,2.76221-1.0177,4.177,4.177,0,0,0,.93506-2.92859,6.00227,6.00227,0,0,0-1.03858-3.67633,19.38511,19.38511,0,0,0-2.61719-2.804l-5.64941-4.9848A9.49378,9.49378,0,0,1,569.96259,27.4a10.205,10.205,0,0,1-.78906-4.25787,7.5758,7.5758,0,0,1,2.11865-5.73254A7.98687,7.98687,0,0,1,577.0661,15.374a10.83451,10.83451,0,0,1,3.51026.51929,6.16737,6.16737,0,0,1,2.53418,1.59931,7.86073,7.86073,0,0,1,1.61963,2.72088,15.39836,15.39836,0,0,1,.81006,3.84247l-3.9878,1.08008a16.52777,16.52777,0,0,0-.49853-3.05322,4.54654,4.54654,0,0,0-1.30811-2.24317,3.84582,3.84582,0,0,0-2.67969-.85162,3.773,3.773,0,0,0-2.7207.93469,3.65093,3.65093,0,0,0-.97607,2.76245,5.45587,5.45587,0,0,0,.519,2.53394,7.41629,7.41629,0,0,0,1.68262,2.03546l5.69092,4.98486a17.806,17.806,0,0,1,3.36474,3.9671,10.03117,10.03117,0,0,1,1.45361,5.46253,8.48993,8.48993,0,0,1-1.03808,4.29944,7.00665,7.00665,0,0,1-2.8457,2.76245A8.80242,8.80242,0,0,1,578.02167,49.68635Z"/><path class="b" d="M593.4328,49.31251V19.15425h-5.69091V15.66487H603.652v3.48938h-5.5249V49.31251Z"/><path class="b" d="M604.98066,49.31251l7.145-33.64764h4.52784L623.84,49.31251h-4.44482l-1.53663-8.47424h-6.85449L609.384,49.31251Zm6.64648-11.839h5.60791l-2.82471-15.16223Z"/><path class="b" d="M627.24628,49.31251V15.66487h4.69385V31.53328l7.72656-15.86841h4.36182L637.382,30.49476l7.72656,18.81775h-4.56933l-6.439-15.78534L631.94013,37.432V49.31251Z"/><path class="b" d="M647.80829,49.31251V15.66487h13.04346v3.48938h-8.34961V30.28706h6.771v3.32318h-6.771V45.94776h8.43262v3.36475Z"/><path class="b" d="M735.47626,49.31251V15.66487h4.61084V49.31251Z"/><path class="b" d="M745.529,49.31251V15.66487h3.19825l9.55468,22.34869V15.66487h3.90479V49.31251H759.1955l-9.67871-22.9718v22.9718Z"/><path class="b" d="M777.62323,53.31251V9.94484h9.5835V53.31251Z"/><path class="b" d="M793.68476,53.31251V9.94484h10.97558a22.13107,22.13107,0,0,1,8.83448,1.41882,8.33612,8.33612,0,0,1,4.44384,4.44385,20.2815,20.2815,0,0,1,1.28467,7.84369V39.392a20.86494,20.86494,0,0,1-1.28467,7.95074,8.42414,8.42414,0,0,1-4.417,4.52411,21.387,21.387,0,0,1-8.75391,1.44562Zm9.58349-6.639h1.49951a5.88762,5.88762,0,0,0,3.1587-.64251,2.825,2.825,0,0,0,1.20459-1.92743,17.86176,17.86176,0,0,0,.24121-3.21247V21.99141a13.29354,13.29354,0,0,0-.29444-3.10535,2.57264,2.57264,0,0,0-1.2583-1.71326,6.73159,6.73159,0,0,0-3.10547-.5354h-1.4458Z"/><path class="b" d="M837.48066,53.955a14.8719,14.8719,0,0,1-7.71-1.71326,9.57591,9.57591,0,0,1-4.06884-4.92572,21.3692,21.3692,0,0,1-1.23145-7.65625V23.54408a21.104,21.104,0,0,1,1.23145-7.65625,9.46549,9.46549,0,0,1,4.06884-4.8454,15.06192,15.06192,0,0,1,7.71-1.68652,15.34042,15.34042,0,0,1,7.79,1.68652,9.43723,9.43723,0,0,1,4.09571,4.8454,21.12506,21.12506,0,0,1,1.23144,7.65625V39.65974A21.39078,21.39078,0,0,1,849.3664,47.316a9.546,9.546,0,0,1-4.09571,4.92572A15.1461,15.1461,0,0,1,837.48066,53.955Zm0-6.79962a2.86559,2.86559,0,0,0,2.19531-.74952,3.74852,3.74852,0,0,0,.91015-1.92749A13.49492,13.49492,0,0,0,840.8,42.069V21.1883a13.373,13.373,0,0,0-.21387-2.43609,3.73377,3.73377,0,0,0-.91015-1.90064,2.86863,2.86863,0,0,0-2.19531-.74957,2.71281,2.71281,0,0,0-2.0879.74957,3.71841,3.71841,0,0,0-.91015,1.90064,13.28561,13.28561,0,0,0-.21436,2.43609V42.069a15.23424,15.23424,0,0,0,.1875,2.4093,3.68049,3.68049,0,0,0,.85645,1.92749A2.77293,2.77293,0,0,0,837.48066,47.15535Z"/><path class="b" d="M855.52362,53.31251,868.80146,9.94484h4.71191L860.18183,53.31251Z"/><path class="b" d="M879.08173,53.31251V9.94484h9.5835V53.31251Z"/><path class="b" d="M895.14325,53.31251V9.94484h6.7461L910.777,30.82557V9.94484h7.92383V53.31251h-6.478l-8.88769-22.48694V53.31251Z"/><path class="b" d="M937.60028,53.955a14.87186,14.87186,0,0,1-7.71-1.71326,9.57591,9.57591,0,0,1-4.06884-4.92572A21.3692,21.3692,0,0,1,924.59,39.65974V23.54408a21.104,21.104,0,0,1,1.23145-7.65625,9.46549,9.46549,0,0,1,4.06884-4.8454,15.06188,15.06188,0,0,1,7.71-1.68652,15.34043,15.34043,0,0,1,7.79,1.68652,9.43723,9.43723,0,0,1,4.09571,4.8454,21.12506,21.12506,0,0,1,1.23144,7.65625V39.65974A21.39078,21.39078,0,0,1,949.486,47.316a9.546,9.546,0,0,1-4.09571,4.92572A15.14611,15.14611,0,0,1,937.60028,53.955Zm0-6.79962a2.8656,2.8656,0,0,0,2.19532-.74952,3.74852,3.74852,0,0,0,.91015-1.92749,13.49492,13.49492,0,0,0,.21387-2.4093V21.1883a13.373,13.373,0,0,0-.21387-2.43609,3.73377,3.73377,0,0,0-.91015-1.90064,2.86864,2.86864,0,0,0-2.19532-.74957,2.7128,2.7128,0,0,0-2.08789.74957,3.71841,3.71841,0,0,0-.91015,1.90064,13.28561,13.28561,0,0,0-.21436,2.43609V42.069a15.23424,15.23424,0,0,0,.1875,2.4093,3.68049,3.68049,0,0,0,.85645,1.92749A2.77292,2.77292,0,0,0,937.60028,47.15535Z"/><path class="b" d="M965.4704,49.31251V15.66487H973.82a9.24836,9.24836,0,0,1,4.83936,1.10077,6.37835,6.37835,0,0,1,2.63769,3.17785,13.5494,13.5494,0,0,1,.83106,5.02637,10.57236,10.57236,0,0,1-.93506,4.611,6.77353,6.77353,0,0,1-2.76221,3.01166,8.998,8.998,0,0,1-4.56934,1.05927h-3.69726v15.6607Zm4.69385-19.02545h2.16016a8.99728,8.99728,0,0,0,3.19873-.457,2.90474,2.90474,0,0,0,1.66162-1.59931,8.29223,8.29223,0,0,0,.49853-3.21936,14.7958,14.7958,0,0,0-.35351-3.69708,2.585,2.585,0,0,0-1.47461-1.78625,9.10973,9.10973,0,0,0-3.48926-.49848h-2.20166Z"/><path class="b" d="M994.008,49.68635a9.82714,9.82714,0,0,1-5.4419-1.32928,7.27552,7.27552,0,0,1-2.90771-3.80091,17.41294,17.41294,0,0,1-.87207-5.79492V26.00837a16.314,16.314,0,0,1,.89307-5.71179,7.11516,7.11516,0,0,1,2.90771-3.65552,10.10033,10.10033,0,0,1,5.4209-1.267,9.86728,9.86728,0,0,1,5.40039,1.28779,7.27142,7.27142,0,0,1,2.88721,3.65557,16.17015,16.17015,0,0,1,.89306,5.691V38.80281a16.74154,16.74154,0,0,1-.89306,5.73254,7.57614,7.57614,0,0,1-2.88721,3.801A9.50442,9.50442,0,0,1,994.008,49.68635Zm0-3.69708a4.431,4.431,0,0,0,2.82471-.76849,3.80471,3.80471,0,0,0,1.28808-2.1601,14.17567,14.17567,0,0,0,.332-3.26093V25.053a13.63779,13.63779,0,0,0-.332-3.21942,3.58926,3.58926,0,0,0-1.28808-2.077,4.62228,4.62228,0,0,0-2.82471-.72693,4.71626,4.71626,0,0,0-2.84522.72693,3.53894,3.53894,0,0,0-1.30859,2.077,13.58427,13.58427,0,0,0-.33252,3.21942V39.79975a14.11954,14.11954,0,0,0,.33252,3.26093,3.74781,3.74781,0,0,0,1.30859,2.1601A4.5198,4.5198,0,0,0,994.008,45.98927Z"/><path class="b" d="M1016.39814,49.68635a9.82712,9.82712,0,0,1-5.4419-1.32928,7.27552,7.27552,0,0,1-2.90771-3.80091,17.41268,17.41268,0,0,1-.87207-5.79492V26.00837a16.31425,16.31425,0,0,1,.89306-5.71179,7.11523,7.11523,0,0,1,2.90772-3.65552,10.10033,10.10033,0,0,1,5.4209-1.267,9.8673,9.8673,0,0,1,5.40039,1.28779,7.2714,7.2714,0,0,1,2.8872,3.65557,16.16991,16.16991,0,0,1,.89307,5.691V38.80281a16.74129,16.74129,0,0,1-.89307,5.73254,7.57612,7.57612,0,0,1-2.8872,3.801A9.50444,9.50444,0,0,1,1016.39814,49.68635Zm0-3.69708a4.4309,4.4309,0,0,0,2.8247-.76849,3.80466,3.80466,0,0,0,1.28809-2.1601,14.17567,14.17567,0,0,0,.332-3.26093V25.053a13.63779,13.63779,0,0,0-.332-3.21942,3.58923,3.58923,0,0,0-1.28809-2.077,4.62223,4.62223,0,0,0-2.8247-.72693,4.71622,4.71622,0,0,0-2.84522.72693,3.53889,3.53889,0,0,0-1.30859,2.077,13.58427,13.58427,0,0,0-.33252,3.21942V39.79975a14.11954,14.11954,0,0,0,.33252,3.26093,3.74776,3.74776,0,0,0,1.30859,2.1601A4.51976,4.51976,0,0,0,1016.39814,45.98927Z"/><path class="b" d="M1030.18915,49.31251V15.66487h4.69385V45.94776h8.59912v3.36475Z"/><path class="b" d="M1054.614,49.68635a8.75618,8.75618,0,0,1-4.83936-1.24621,7.84783,7.84783,0,0,1-2.92871-3.44782,14.28039,14.28039,0,0,1-1.16309-5.10944l4.15381-1.12164a18.67378,18.67378,0,0,0,.561,3.44788,6.16912,6.16912,0,0,0,1.4331,2.72088,3.6363,3.6363,0,0,0,2.78321,1.05927,3.564,3.564,0,0,0,2.7622-1.0177,4.177,4.177,0,0,0,.93506-2.92859,6.00234,6.00234,0,0,0-1.03857-3.67633,19.38511,19.38511,0,0,0-2.61719-2.804l-5.64941-4.9848A9.49381,9.49381,0,0,1,1046.55487,27.4a10.2052,10.2052,0,0,1-.78906-4.25787,7.57584,7.57584,0,0,1,2.11865-5.73254,7.98689,7.98689,0,0,1,5.77393-2.03553,10.83444,10.83444,0,0,1,3.51025.51929,6.1673,6.1673,0,0,1,2.53418,1.59931,7.86057,7.86057,0,0,1,1.61963,2.72088,15.39747,15.39747,0,0,1,.81006,3.84247l-3.98779,1.08008a16.52775,16.52775,0,0,0-.49854-3.05322,4.54653,4.54653,0,0,0-1.3081-2.24317,3.84583,3.84583,0,0,0-2.67969-.85162,3.773,3.773,0,0,0-2.7207.93469,3.65093,3.65093,0,0,0-.97608,2.76245,5.45586,5.45586,0,0,0,.519,2.53394,7.41624,7.41624,0,0,0,1.68261,2.03546l5.69092,4.98486a17.8058,17.8058,0,0,1,3.36475,3.9671,10.03117,10.03117,0,0,1,1.45361,5.46253,8.48983,8.48983,0,0,1-1.03809,4.29944,7.00665,7.00665,0,0,1-2.8457,2.76245A8.80238,8.80238,0,0,1,1054.614,49.68635Z"/><path class="b" d="M1075.84052,49.31251V15.66487h13.002v3.36474h-8.3081V30.24549h6.439v3.32325h-6.439V49.31251Z"/><path class="b" d="M1100.68085,49.68635a9.82709,9.82709,0,0,1-5.44189-1.32928,7.27548,7.27548,0,0,1-2.90772-3.80091,17.41294,17.41294,0,0,1-.87207-5.79492V26.00837a16.31424,16.31424,0,0,1,.89307-5.71179,7.11516,7.11516,0,0,1,2.90771-3.65552,10.10036,10.10036,0,0,1,5.4209-1.267,9.86728,9.86728,0,0,1,5.40039,1.28779,7.27142,7.27142,0,0,1,2.88721,3.65557,16.17015,16.17015,0,0,1,.89306,5.691V38.80281a16.74154,16.74154,0,0,1-.89306,5.73254,7.57614,7.57614,0,0,1-2.88721,3.801A9.50442,9.50442,0,0,1,1100.68085,49.68635Zm0-3.69708a4.431,4.431,0,0,0,2.82471-.76849,3.8046,3.8046,0,0,0,1.28808-2.1601,14.17567,14.17567,0,0,0,.332-3.26093V25.053a13.63779,13.63779,0,0,0-.332-3.21942,3.58916,3.58916,0,0,0-1.28808-2.077,4.62228,4.62228,0,0,0-2.82471-.72693,4.71621,4.71621,0,0,0-2.84521.72693,3.5389,3.5389,0,0,0-1.3086,2.077,13.58427,13.58427,0,0,0-.33252,3.21942V39.79975a14.11954,14.11954,0,0,0,.33252,3.26093,3.74777,3.74777,0,0,0,1.3086,2.1601A4.51975,4.51975,0,0,0,1100.68085,45.98927Z"/><path class="b" d="M1114.47187,49.31251V15.66487h6.771a14.92839,14.92839,0,0,1,5.56641.89312,6.21911,6.21911,0,0,1,3.26074,2.86628,10.92616,10.92616,0,0,1,1.05957,5.17175,14.14789,14.14789,0,0,1-.41553,3.5517,6.86647,6.86647,0,0,1-1.32959,2.70013,5.1755,5.1755,0,0,1-2.40918,1.5993l4.77735,16.86536h-4.52783l-4.40332-15.78534h-3.65577V49.31251Zm4.69384-19.15008h1.78614a8.8464,8.8464,0,0,0,3.24023-.49848,3.33661,3.33661,0,0,0,1.82764-1.70318,7.8963,7.8963,0,0,0,.58154-3.36475,6.693,6.693,0,0,0-1.07959-4.25787q-1.08105-1.30857-4.27881-1.30854h-2.07715Z"/><path class="b" d="M1143.71552,49.31251l7.145-33.64764h4.52783l7.18652,33.64764h-4.44482l-1.53662-8.47424H1149.739l-1.62012,8.47424Zm6.64648-11.839h5.60791l-2.8247-15.16223Z"/><path class="b" d="M1165.98114,49.31251V15.66487h4.69385V45.94776h8.59912v3.36475Z"/><path class="b" d="M1182.47187,49.31251V15.66487h4.69384V45.94776h8.59912v3.36475Z"/><path class="b" d="M1207.3122,49.68635a9.82714,9.82714,0,0,1-5.4419-1.32928,7.27552,7.27552,0,0,1-2.90771-3.80091,17.41294,17.41294,0,0,1-.87207-5.79492V26.00837a16.31425,16.31425,0,0,1,.89306-5.71179,7.11523,7.11523,0,0,1,2.90772-3.65552,10.10033,10.10033,0,0,1,5.4209-1.267,9.86728,9.86728,0,0,1,5.40039,1.28779,7.27147,7.27147,0,0,1,2.88721,3.65557,16.17015,16.17015,0,0,1,.89306,5.691V38.80281a16.74154,16.74154,0,0,1-.89306,5.73254,7.57619,7.57619,0,0,1-2.88721,3.801A9.50442,9.50442,0,0,1,1207.3122,49.68635Zm0-3.69708a4.431,4.431,0,0,0,2.82471-.76849,3.80471,3.80471,0,0,0,1.28808-2.1601,14.17567,14.17567,0,0,0,.332-3.26093V25.053a13.63779,13.63779,0,0,0-.332-3.21942,3.58926,3.58926,0,0,0-1.28808-2.077,4.62228,4.62228,0,0,0-2.82471-.72693,4.71624,4.71624,0,0,0-2.84522.72693,3.53894,3.53894,0,0,0-1.30859,2.077,13.58427,13.58427,0,0,0-.33252,3.21942V39.79975a14.11954,14.11954,0,0,0,.33252,3.26093,3.74781,3.74781,0,0,0,1.30859,2.1601A4.51978,4.51978,0,0,0,1207.3122,45.98927Z"/><path class="b" d="M1229.53583,49.68635a9.01424,9.01424,0,0,1-5.5459-1.49542,7.7095,7.7095,0,0,1-2.7417-4.02942,19.41049,19.41049,0,0,1-.76806-5.64948V26.63148a20.54073,20.54073,0,0,1,.76806-5.94025,7.18608,7.18608,0,0,1,2.7417-3.92559,9.517,9.517,0,0,1,5.5459-1.39161,9.33738,9.33738,0,0,1,5.00537,1.16315,6.4992,6.4992,0,0,1,2.65869,3.32324,14.81984,14.81984,0,0,1,.81006,5.19257v2.65857h-4.44482v-2.3678a25.832,25.832,0,0,0-.187-3.30249,3.594,3.594,0,0,0-1.01758-2.22241,3.983,3.983,0,0,0-2.78321-.78925,4.17113,4.17113,0,0,0-2.90771.85157,4.14207,4.14207,0,0,0-1.18408,2.40936,21.506,21.506,0,0,0-.27,3.63476V39.25978a15.34633,15.34633,0,0,0,.41553,4.0086,3.50876,3.50876,0,0,0,1.3706,2.09778,4.66371,4.66371,0,0,0,2.57568.62311,3.71557,3.71557,0,0,0,2.7417-.85156,4.058,4.058,0,0,0,1.03858-2.347,25.73805,25.73805,0,0,0,.20752-3.48938V36.80885h4.44482v2.49243a17.868,17.868,0,0,1-.74756,5.421,6.93307,6.93307,0,0,1-2.57568,3.65558A8.74277,8.74277,0,0,1,1229.53583,49.68635Z"/><path class="b" d="M1240.66864,49.31251l7.145-33.64764h4.52783l7.18653,33.64764h-4.44483l-1.53662-8.47424h-6.85449l-1.62012,8.47424Zm6.64649-11.839h5.60791l-2.82471-15.16223Z"/><path class="b" d="M1265.30146,49.31251V19.15425h-5.69092V15.66487h15.91015v3.48938h-5.5249V49.31251Z"/><path class="b" d="M1279.00995,49.31251V15.66487h4.61084V49.31251Z"/><path class="b" d="M1297.66083,49.68635a9.82709,9.82709,0,0,1-5.44189-1.32928,7.27548,7.27548,0,0,1-2.90772-3.80091,17.41294,17.41294,0,0,1-.87207-5.79492V26.00837a16.31424,16.31424,0,0,1,.89307-5.71179,7.11516,7.11516,0,0,1,2.90771-3.65552,10.10036,10.10036,0,0,1,5.4209-1.267,9.86728,9.86728,0,0,1,5.40039,1.28779,7.27142,7.27142,0,0,1,2.88721,3.65557,16.16992,16.16992,0,0,1,.89306,5.691V38.80281a16.7413,16.7413,0,0,1-.89306,5.73254,7.57614,7.57614,0,0,1-2.88721,3.801A9.50442,9.50442,0,0,1,1297.66083,49.68635Zm0-3.69708a4.431,4.431,0,0,0,2.82471-.76849,3.8046,3.8046,0,0,0,1.28808-2.1601,14.17507,14.17507,0,0,0,.332-3.26093V25.053a13.63722,13.63722,0,0,0-.332-3.21942,3.58916,3.58916,0,0,0-1.28808-2.077,4.62228,4.62228,0,0,0-2.82471-.72693,4.71621,4.71621,0,0,0-2.84521.72693,3.5389,3.5389,0,0,0-1.3086,2.077,13.58427,13.58427,0,0,0-.33252,3.21942V39.79975a14.11954,14.11954,0,0,0,.33252,3.26093,3.74777,3.74777,0,0,0,1.3086,2.1601A4.51975,4.51975,0,0,0,1297.66083,45.98927Z"/><path class="b" d="M1311.45185,49.31251V15.66487h3.19824l9.55469,22.34869V15.66487h3.90478V49.31251h-2.99121l-9.67871-22.9718v22.9718Z"/><path class="b" d="M1341.319,49.68635a8.75617,8.75617,0,0,1-4.83935-1.24621,7.84783,7.84783,0,0,1-2.92871-3.44782,14.28018,14.28018,0,0,1-1.16309-5.10944l4.15381-1.12164a18.67378,18.67378,0,0,0,.561,3.44788,6.16912,6.16912,0,0,0,1.4331,2.72088,3.63629,3.63629,0,0,0,2.7832,1.05927,3.564,3.564,0,0,0,2.76221-1.0177,4.177,4.177,0,0,0,.93506-2.92859,6.00234,6.00234,0,0,0-1.03857-3.67633,19.38623,19.38623,0,0,0-2.61719-2.804l-5.64942-4.9848A9.49378,9.49378,0,0,1,1333.25995,27.4a10.205,10.205,0,0,1-.78906-4.25787,7.5758,7.5758,0,0,1,2.11865-5.73254,7.98689,7.98689,0,0,1,5.77393-2.03553,10.83444,10.83444,0,0,1,3.51025.51929,6.16737,6.16737,0,0,1,2.53418,1.59931,7.86073,7.86073,0,0,1,1.61963,2.72088,15.39747,15.39747,0,0,1,.81006,3.84247l-3.98779,1.08008a16.52775,16.52775,0,0,0-.49854-3.05322,4.54653,4.54653,0,0,0-1.3081-2.24317,3.84585,3.84585,0,0,0-2.67969-.85162,3.773,3.773,0,0,0-2.72071.93469,3.651,3.651,0,0,0-.97607,2.76245,5.45587,5.45587,0,0,0,.519,2.53394,7.41629,7.41629,0,0,0,1.68262,2.03546l5.69092,4.98486a17.8055,17.8055,0,0,1,3.36474,3.9671,10.03117,10.03117,0,0,1,1.45362,5.46253,8.48983,8.48983,0,0,1-1.03809,4.29944,7.00665,7.00665,0,0,1-2.8457,2.76245A8.80239,8.80239,0,0,1,1341.319,49.68635Z"/><path class="c" d="M725.914,25.81519a26.48719,26.48719,0,0,1-39.82933,28.78742,26.03529,26.03529,0,0,1-3.43813-2.57592,26.30465,26.30465,0,0,1-8.01485-12.898c-.05278-.19567-.10455-.38727-.15322-.584A26.4936,26.4936,0,0,1,713.11362,9.044a27.17536,27.17536,0,0,1,3.57164,2.395,26.43732,26.43732,0,0,1,9.22873,14.3762Z"/><path class="d" d="M706.59918,58.05251a26.37666,26.37666,0,0,1-12.362.1108A26.69775,26.69775,0,0,1,686,54.73758,26.65631,26.65631,0,0,1,674.4777,39.17042c-.05506-.20521-.106-.3939-.15388-.58721A26.65276,26.65276,0,0,1,713.191,8.905a27.39137,27.39137,0,0,1,3.59312,2.409,26.59707,26.59707,0,0,1,9.28475,14.46305A26.68325,26.68325,0,0,1,706.59918,58.05251ZM693.86857,6.61272a26.36622,26.36622,0,0,0-19.23545,31.894c.04734.19129.09772.37757.14869.568a26.16349,26.16349,0,0,0,7.96993,12.83224,25.90274,25.90274,0,0,0,3.41737,2.56062,26.37391,26.37391,0,0,0,8.139,3.38505,26.059,26.059,0,0,0,12.21452-.10934,26.34748,26.34748,0,0,0,15.94985-39.61768,26.04259,26.04259,0,0,0-5.88637-6.56165,27.06684,27.06684,0,0,0-3.55072-2.381,26.31449,26.31449,0,0,0-19.16683-2.57014Z"/><g class="e"><path class="f" d="M725.914,25.81519c.15923.64336.29285,1.2887.404,1.9309a26.49514,26.49514,0,0,0-51.29622,12.69508c-.20125-.61989-.384-1.25306-.54326-1.89642A26.49366,26.49366,0,1,1,725.914,25.81519Z"/></g><path class="g" d="M725.914,25.81519a26.49366,26.49366,0,1,1-52.078,9.04422A26.49574,26.49574,0,0,0,724.76342,22.2556,26.55237,26.55237,0,0,1,725.914,25.81519Z"/><path class="h" d="M704.63413,50.11193a18.4743,18.4743,0,1,1,13.495-22.37169A18.49513,18.49513,0,0,1,704.63413,50.11193Z"/><g class="e"><path class="f" d="M718.12818,27.74207c.11967.48353.21784.968.29758,1.44842a18.47267,18.47267,0,0,0-35.74917,8.84741c-.15352-.46213-.29265-.93649-.41232-1.42a18.473,18.473,0,1,1,35.86391-8.8758Z"/></g><path class="i" d="M696.59551,31.01864c-.74258,1.43314-.54271,2.19735.77838,3.12649q6.79152,4.7766,13.58394,9.5519a15.6622,15.6622,0,0,0-7.04941-26.75879Q700.25359,23.97928,696.59551,31.01864Z"/><path class="j" d="M712.34853,25.81062l.07156,1.037a.448.448,0,0,1-.33946.46609c-1.5777.38965-7.70008,1.90176-8.13,2.01333a2.23141,2.23141,0,0,0-1.51878,2.54168,1.33375,1.33375,0,0,0,1.55474,1.01567c.23225-.04272,2.32132-.56134,2.54872-.62529.04974-.014.12141-.08339.1199-.125-.01123-.30887-.03838-.61717-.0619-.94474l-1.51133.374-.09972-1.41375,2.8737-.7112.26623,3.8415c-.0158.01585-1.88232.49015-1.89237.49245a13.965,13.965,0,0,1-2.56565.55794,2.62372,2.62372,0,0,1-2.47432-1.73759,3.58918,3.58918,0,0,1,1.12194-3.87036,3.2534,3.2534,0,0,1,1.54955-.81357C704.44973,27.77348,712.25706,25.83326,712.34853,25.81062Z"/><path class="j" d="M709.21168,29.08921q.07041,1.0551.14084,2.11019c.039.58134.08064,1.1625.12271,1.767.44319-.10969.66046-.15986,1.08547-.27534a.34894.34894,0,0,0,.27555-.39621c-.091-1.24077-.16806-2.30307-.25753-3.54394Z"/><path class="k" d="M694.78964,38.36431a1.50094,1.50094,0,0,0-2.43931.63145c-.862,1.58441-1.7003,3.18174-2.54391,4.77618a15.672,15.672,0,0,0,16.69236,2.81148C702.598,43.84053,698.70313,41.089,694.78964,38.36431Z"/><path class="i" d="M689.62786,28.82923c1.35878.946,2.16334.738,2.93211-.75613q2.93821-5.71059,5.86622-11.42644a15.81263,15.81263,0,0,0-1.8471.34156,15.634,15.634,0,0,0-10.70425,9.20732Q687.74957,27.515,689.62786,28.82923Z"/><path class="k" d="M687.787,33.626c-.05721-.04653-1.89322-1.18963-3.0993-1.93434a15.75664,15.75664,0,0,0,1.891,7.96954c.7087-1.467,1.60443-3.27015,1.78135-3.65238A1.76358,1.76358,0,0,0,687.787,33.626Z"/><g class="l"><path class="m" d="M713.11362,9.044,682.64653,52.02669a26.30465,26.30465,0,0,1-8.01485-12.898L698.29506,5.74892A26.39284,26.39284,0,0,1,713.11362,9.044Z"/></g><g class="l"><path class="m" d="M720.94842,15.69846l-27.98953,41.7631a18.81316,18.81316,0,0,1-6.87423-2.85895L716.68526,11.439C718.99585,13.272,719.348,13.1504,720.94842,15.69846Z"/></g><path class="d" d="M704.94017,51.349a19.74882,19.74882,0,1,1,14.42605-23.91487A19.77134,19.77134,0,0,1,704.94017,51.349ZM696.06372,15.4825a17.19978,17.19978,0,1,0,20.82811,12.564A17.21951,17.21951,0,0,0,696.06372,15.4825Z"/><path class="d" d="M706.91813,59.34126a27.68779,27.68779,0,0,1-12.97887.11557,28.01259,28.01259,0,0,1-8.64576-3.59514,27.98352,27.98352,0,0,1-12.09707-16.34383c-.05825-.21638-.11132-.41353-.16135-.6157A27.98045,27.98045,0,0,1,713.83886,7.74584a28.72589,28.72589,0,0,1,3.76954,2.52775,27.92512,27.92512,0,0,1,9.74923,15.18451A28.01237,28.01237,0,0,1,706.91813,59.34126ZM694.18752,7.90146a25.03737,25.03737,0,0,0-18.26566,30.28626c.04516.18244.093.36035.14221.54179a25.00906,25.00906,0,1,0,39.69678-26.12582,25.75827,25.75827,0,0,0-3.37541-2.26328,24.98509,24.98509,0,0,0-18.19792-2.43895Z"/></svg>