<svg xmlns="http://www.w3.org/2000/svg" width="1919" height="73" viewBox="0 0 1919 73"><defs><radialGradient id="9i71f" cx="886.86" cy="17.96" r="24.73" gradientUnits="userSpaceOnUse"><stop offset="0" stop-color="#f5deff"/><stop offset=".71"/><stop offset="1"/></radialGradient><radialGradient id="9i71h" cx="909.48" cy="19.61" r="14.69" gradientUnits="userSpaceOnUse"><stop offset="0" stop-color="#f5deff"/><stop offset=".71"/><stop offset="1"/></radialGradient><radialGradient id="9i71j" cx="913.51" cy="46.76" r="17.55" gradientUnits="userSpaceOnUse"><stop offset="0" stop-color="#e0e0e0"/><stop offset=".71"/><stop offset="1"/></radialGradient><radialGradient id="9i71l" cx="910.49" cy="49.94" r="7.42" gradientUnits="userSpaceOnUse"><stop offset="0" stop-color="#f2d4ff"/><stop offset=".07" stop-color="#f2d4ff"/><stop offset=".71"/><stop offset="1"/></radialGradient><radialGradient id="9i71n" cx="915.99" cy="44.25" r="3.87" gradientUnits="userSpaceOnUse"><stop offset="0" stop-color="#f2d4ff"/><stop offset=".07" stop-color="#f2d4ff"/><stop offset=".71"/><stop offset="1"/></radialGradient><radialGradient id="9i71p" cx="886.53" cy="17.73" r="6.89" gradientUnits="userSpaceOnUse"><stop offset="0" stop-color="#f5deff"/><stop offset=".21" stop-color="#f5deff"/><stop offset=".61"/><stop offset="1"/></radialGradient><clipPath id="9i71a"><path d="M897.379 6.723c-14.38.07-25.982 11.785-25.912 26.165.07 14.379 11.784 25.98 26.165 25.911 14.38-.07 25.981-11.784 25.911-26.165-.07-14.338-11.714-25.912-26.036-25.911h-.128z"/></clipPath><clipPath id="9i71b"><path d="M897.379 6.723c-14.38.07-25.982 11.785-25.912 26.165.07 14.379 11.784 25.98 26.165 25.911 14.38-.07 25.981-11.784 25.911-26.165-.07-14.338-11.714-25.912-26.036-25.911h-.128z"/></clipPath><clipPath id="9i71c"><path d="M897.379 6.723c-14.38.07-25.982 11.785-25.912 26.165.07 14.379 11.784 25.98 26.165 25.911 14.38-.07 25.981-11.784 25.911-26.165-.07-14.338-11.714-25.912-26.036-25.911h-.128z"/></clipPath><clipPath id="9i71d"><path d="M897.379 6.723c-14.38.07-25.982 11.785-25.912 26.165.07 14.379 11.784 25.98 26.165 25.911 14.38-.07 25.981-11.784 25.911-26.165-.07-14.338-11.714-25.912-26.036-25.911h-.128z"/></clipPath><clipPath id="9i71e"><path d="M897.379 6.727c-14.38.07-25.982 11.784-25.912 26.164.07 14.38 11.784 25.981 26.165 25.911 14.38-.07 25.981-11.785 25.911-26.164-.07-14.337-11.714-25.912-26.034-25.912l-.13.001z"/></clipPath><clipPath id="9i71g"><path d="M897.379 6.727c-14.38.07-25.982 11.784-25.912 26.164.07 14.38 11.784 25.981 26.165 25.911 14.38-.07 25.981-11.785 25.911-26.164-.07-14.337-11.714-25.912-26.034-25.912l-.13.001z"/></clipPath><clipPath id="9i71i"><path d="M897.379 6.727c-14.38.07-25.982 11.784-25.912 26.164.07 14.38 11.784 25.981 26.165 25.911 14.38-.07 25.981-11.785 25.911-26.164-.07-14.337-11.714-25.912-26.034-25.912l-.13.001z"/></clipPath><clipPath id="9i71k"><path d="M897.379 6.727c-14.38.07-25.982 11.784-25.912 26.164.07 14.38 11.784 25.981 26.165 25.911 14.38-.07 25.981-11.785 25.911-26.164-.07-14.337-11.714-25.912-26.034-25.912l-.13.001z"/></clipPath><clipPath id="9i71m"><path d="M897.379 6.727c-14.38.07-25.982 11.784-25.912 26.164.07 14.38 11.784 25.981 26.165 25.911 14.38-.07 25.981-11.785 25.911-26.164-.07-14.337-11.714-25.912-26.034-25.912l-.13.001z"/></clipPath><clipPath id="9i71o"><path d="M897.379 6.727c-14.38.07-25.982 11.784-25.912 26.164.07 14.38 11.784 25.981 26.165 25.911 14.38-.07 25.981-11.785 25.911-26.164-.07-14.337-11.714-25.912-26.034-25.912l-.13.001z"/></clipPath></defs><g><g><path fill="#f0f" d="M1918.598.884H.13v64.435h1918.468z"/></g><g><g><text dominant-baseline="text-before-edge" transform="translate(716 12)"><tspan fill="#fff" font-family="'Acumin Pro ExtraCondensed Smbd','AcuminProExtraCond-Semibold'" font-size="50.03" font-weight="700" letter-spacing="5">JOIN THE </tspan><tspan fill="#fff" font-family="'Acumin Pro ExtraCondensed UlBlk','AcuminProExtraCond-UltraBlackItalic'" font-size="50.03" font-style="italic" letter-spacing="5">XION LOTTERY</tspan></text></g></g><g><path fill="#fff" d="M921.828 33.166c0 13.145-10.655 23.8-23.8 23.8-13.144 0-23.8-10.656-23.8-23.8 0-13.143 10.656-23.8 23.8-23.8 13.145 0 23.8 10.656 23.8 23.8z"/></g><g/><g/><g/><g/><g/><g/><g clip-path="url(#9i71a)"><path d="M905.588 43.548c.563 2.266-.693 4.118-2.965 4.683-2.185.543-4.07-.506-4.754-2.7l2.14-.531c.362 1.08 1.175 1.55 2.136 1.31 1.027-.254 1.595-1.046 1.312-2.188l-.544-2.185c-.391.574-1.068 1.023-1.897 1.23-2.011.499-3.966-.553-4.493-2.676l-.564-2.265c-.57-2.288.727-4.171 2.977-4.73 2.249-.56 4.275.498 4.844 2.784zm-3.944-6.716c-.3-1.204-1.205-1.672-2.231-1.417-1.027.255-1.608 1.093-1.308 2.297l.533 2.144c.289 1.164 1.22 1.648 2.27 1.387 1.004-.25 1.558-1.103 1.264-2.287z"/></g><g/><g clip-path="url(#9i71b)"><path d="M927.032 17.495c1.394 1.873.951 4.065-.928 5.463-1.806 1.345-3.95 1.105-5.428-.654l1.77-1.317c.751.857 1.683.977 2.476.385.85-.63 1.07-1.582.365-2.526l-1.344-1.805c-.139.68-.589 1.356-1.275 1.866-1.663 1.238-3.872 1.021-5.179-.734l-1.394-1.873c-1.407-1.89-.939-4.127.921-5.512 1.86-1.384 4.136-1.19 5.544.7zm-6.23-4.674c-.74-.995-1.757-1.078-2.605-.446-.849.632-1.06 1.63-.32 2.624l1.32 1.772c.715.962 1.763 1.048 2.63.403.83-.618 1.01-1.619.282-2.597z"/></g><g/><g clip-path="url(#9i71c)"><path d="M873.245 38.668c.395 2.301-.994 4.055-3.3 4.451-2.22.382-4.023-.803-4.544-3.04l2.175-.374c.28 1.104 1.056 1.633 2.033 1.466 1.043-.179 1.668-.928 1.47-2.089l-.382-2.218c-.432.544-1.14.942-1.982 1.087-2.043.35-3.915-.843-4.286-3l-.394-2.3c-.399-2.323 1.032-4.106 3.317-4.498 2.284-.392 4.227.811 4.626 3.134zm-3.437-6.988c-.21-1.223-1.078-1.757-2.12-1.578-1.045.18-1.685.972-1.475 2.195l.374 2.177c.202 1.182 1.097 1.733 2.162 1.55 1.02-.174 1.635-.985 1.428-2.187z"/></g><g/><g clip-path="url(#9i71d)"><path d="M888.064 2.005c2.258-1.053 4.407-.218 5.397 1.905.951 2.04.193 4.133-1.969 5.29l-.932-2c1.061-.594 1.406-1.5.987-2.398-.447-.958-1.37-1.348-2.51-.817L886.86 5c.665.26 1.253.83 1.615 1.606.875 1.877.125 4.038-1.992 5.027l-2.258 1.053c-2.279 1.063-4.468.195-5.448-1.907-.979-2.101-.237-4.335 2.043-5.397zm-6.292 5.367c-1.2.56-1.529 1.556-1.082 2.515.448.96 1.422 1.35 2.623.79l2.137-.996c1.16-.54 1.5-1.569 1.042-2.548-.437-.938-1.423-1.298-2.603-.748z"/></g><g opacity=".5"><g opacity=".5"><g opacity=".5"><path fill="#fff" d="M923.543 32.638c.07 14.38-11.53 26.095-25.91 26.165-14.382.069-26.096-11.531-26.166-25.912-.07-14.38 11.532-26.094 25.911-26.164 14.38-.07 26.095 11.53 26.165 25.91z"/></g></g><g opacity=".48"><g opacity=".48"><path fill="#f5f5f5" d="M923.463 32.6c.07 14.336-11.496 26.015-25.83 26.084-14.338.07-26.016-11.495-26.086-25.831-.07-14.336 11.496-26.014 25.832-26.084 14.335-.07 26.014 11.495 26.084 25.83z"/></g></g><g opacity=".46"><g opacity=".46"><path fill="#ebebeb" d="M923.383 32.563c.07 14.291-11.46 25.934-25.75 26.003-14.294.07-25.936-11.46-26.005-25.751-.07-14.292 11.46-25.934 25.752-26.004 14.291-.07 25.933 11.46 26.003 25.752z"/></g></g><g opacity=".44"><g opacity=".44"><path fill="#e2e2e2" d="M923.303 32.525c.07 14.247-11.424 25.854-25.672 25.923-14.248.07-25.854-11.424-25.923-25.672-.07-14.247 11.425-25.853 25.672-25.923 14.247-.069 25.853 11.425 25.923 25.672z"/></g></g><g opacity=".42"><g opacity=".42"><path fill="#d8d8d8" d="M923.224 32.488c.068 14.203-11.39 25.774-25.593 25.843-14.204.069-25.774-11.39-25.843-25.593-.07-14.203 11.39-25.773 25.593-25.843 14.203-.068 25.773 11.39 25.843 25.593z"/></g></g><g opacity=".4"><g opacity=".4"><path fill="#cecece" d="M923.144 32.45c.068 14.16-11.354 25.694-25.513 25.762-14.16.07-25.694-11.354-25.762-25.512-.07-14.159 11.353-25.694 25.512-25.763 14.159-.069 25.694 11.354 25.763 25.513z"/></g></g><g opacity=".38"><g opacity=".38"><path fill="#c4c4c4" d="M923.063 32.413c.068 14.115-11.318 25.614-25.433 25.682-14.116.068-25.614-11.318-25.682-25.433-.07-14.115 11.318-25.613 25.433-25.682 14.115-.068 25.613 11.318 25.682 25.433z"/></g></g><g opacity=".37"><g opacity=".37"><path fill="#bababa" d="M922.983 32.376c.068 14.07-11.283 25.533-25.354 25.602-14.07.068-25.533-11.283-25.6-25.354-.07-14.071 11.282-25.533 25.352-25.602 14.071-.068 25.533 11.283 25.602 25.354z"/></g></g><g opacity=".35"><g opacity=".35"><path fill="#b1b1b1" d="M922.903 32.338c.068 14.026-11.248 25.453-25.274 25.521-14.027.068-25.454-11.247-25.52-25.274-.07-14.026 11.246-25.452 25.273-25.52 14.026-.069 25.452 11.247 25.521 25.273z"/></g></g><g opacity=".33"><g opacity=".33"><path fill="#a7a7a7" d="M922.823 32.3c.068 13.983-11.212 25.374-25.194 25.442-13.983.068-25.373-11.212-25.44-25.195-.07-13.982 11.211-25.372 25.193-25.44 13.983-.068 25.373 11.212 25.441 25.194z"/></g></g><g opacity=".31"><g opacity=".31"><path fill="#9d9d9d" d="M922.743 32.263c.067 13.938-11.177 25.293-25.115 25.36-13.938.068-25.293-11.176-25.36-25.115-.068-13.937 11.177-25.292 25.115-25.36 13.938-.067 25.292 11.177 25.36 25.115z"/></g></g><g opacity=".29"><g opacity=".29"><path fill="#939393" d="M922.663 32.226c.067 13.894-11.141 25.212-25.035 25.28-13.894.067-25.213-11.14-25.28-25.035-.068-13.894 11.141-25.212 25.035-25.28 13.894-.068 25.212 11.141 25.28 25.035z"/></g></g><g opacity=".27"><g opacity=".27"><path fill="#898989" d="M922.583 32.188c.067 13.85-11.105 25.132-24.955 25.2-13.851.067-25.133-11.106-25.2-24.956-.068-13.849 11.106-25.132 24.955-25.199 13.85-.068 25.133 11.105 25.2 24.955z"/></g></g><g opacity=".25"><g opacity=".25"><path fill="gray" d="M922.503 32.151c.066 13.805-11.07 25.052-24.876 25.12-13.806.066-25.052-11.07-25.119-24.877-.068-13.805 11.07-25.05 24.875-25.118 13.806-.068 25.052 11.07 25.12 24.875z"/></g></g><g opacity=".23"><g opacity=".23"><path fill="#767676" d="M922.423 32.114c.066 13.76-11.035 24.972-24.796 25.039-13.762.066-24.973-11.035-25.039-24.797-.067-13.761 11.035-24.971 24.796-25.038 13.762-.067 24.972 11.035 25.04 24.796z"/></g></g><g opacity=".21"><g opacity=".21"><path fill="#6c6c6c" d="M922.343 32.076c.066 13.717-11 24.892-24.717 24.958-13.717.067-24.892-10.999-24.958-24.717-.067-13.716 11-24.89 24.717-24.957 13.717-.067 24.891 11 24.958 24.716z"/></g></g><g opacity=".19"><g opacity=".19"><path fill="#626262" d="M922.263 32.04c.066 13.672-10.964 24.81-24.637 24.877-13.674.066-24.812-10.964-24.878-24.637-.067-13.673 10.964-24.81 24.637-24.878 13.673-.066 24.811 10.964 24.878 24.637z"/></g></g><g opacity=".17"><g opacity=".17"><path fill="#585858" d="M922.183 32.002c.066 13.627-10.929 24.73-24.557 24.797-13.63.066-24.732-10.929-24.798-24.558-.066-13.628 10.929-24.73 24.557-24.797 13.63-.066 24.731 10.928 24.798 24.557z"/></g></g><g opacity=".15"><g opacity=".15"><path fill="#4e4e4e" d="M922.103 31.964c.065 13.584-10.894 24.651-24.478 24.717-13.585.066-24.651-10.893-24.717-24.478-.066-13.584 10.893-24.65 24.478-24.716 13.585-.067 24.651 10.892 24.717 24.477z"/></g></g><g opacity=".13"><g opacity=".13"><path fill="#454545" d="M922.023 31.927c.065 13.54-10.858 24.57-24.398 24.637-13.54.065-24.571-10.858-24.637-24.4-.066-13.54 10.858-24.57 24.398-24.635 13.54-.066 24.57 10.857 24.637 24.398z"/></g></g><g opacity=".12"><g opacity=".12"><path fill="#3b3b3b" d="M921.943 31.89c.065 13.495-10.822 24.49-24.318 24.555-13.496.065-24.491-10.822-24.557-24.318-.065-13.496 10.822-24.49 24.319-24.556 13.496-.066 24.49 10.822 24.556 24.318z"/></g></g><g opacity=".1"><g opacity=".1"><path fill="#313131" d="M921.863 31.852c.065 13.451-10.787 24.41-24.238 24.476-13.453.065-24.411-10.787-24.476-24.239-.066-13.452 10.786-24.41 24.238-24.476 13.453-.065 24.41 10.787 24.476 24.24z"/></g></g><g opacity=".08"><g opacity=".08"><path fill="#272727" d="M921.783 31.814c.065 13.407-10.751 24.33-24.16 24.396-13.407.064-24.33-10.752-24.394-24.16-.066-13.406 10.75-24.33 24.158-24.394 13.409-.065 24.33 10.75 24.396 24.159z"/></g></g><g opacity=".06"><g opacity=".06"><path fill="#1d1d1d" d="M921.703 31.777c.064 13.363-10.716 24.25-24.08 24.315-13.363.065-24.25-10.716-24.315-24.08-.065-13.363 10.716-24.25 24.08-24.314 13.363-.065 24.25 10.715 24.315 24.08z"/></g></g><g opacity=".04"><g opacity=".04"><path fill="#141414" d="M921.623 31.74c.064 13.319-10.681 24.17-24 24.235-13.319.064-24.17-10.681-24.234-24.001-.066-13.318 10.679-24.17 23.999-24.234 13.32-.065 24.17 10.68 24.235 24z"/></g></g><g opacity=".02"><g opacity=".02"><path fill="#0a0a0a" d="M921.543 31.702c.064 13.275-10.646 24.09-23.92 24.154-13.276.064-24.09-10.645-24.154-23.92-.065-13.275 10.644-24.09 23.92-24.154 13.275-.065 24.089 10.645 24.154 23.92z"/></g></g></g><g/><g clip-path="url(#9i71e)"><g><path fill="url(#9i71f)" d="M864.53 28.589c-4.388-9.22 2.053-21.452 14.385-27.32 12.333-5.868 25.887-3.15 30.274 6.07 4.387 9.219-2.053 21.451-14.386 27.319-12.332 5.868-25.887 3.151-30.273-6.069z"/></g></g><g/><g clip-path="url(#9i71g)" opacity=".5"><g opacity=".5"><path fill="url(#9i71h)" d="M896.279 13.152c2.669-5.45 10.741-6.974 18.029-3.405 7.29 3.568 11.036 10.88 8.367 16.329-2.668 5.449-10.74 6.975-18.029 3.405-7.289-3.568-11.035-10.88-8.367-16.329z"/></g></g><g/><g clip-path="url(#9i71i)" opacity=".1"><g opacity=".1"><path fill="url(#9i71j)" d="M900.973 59.039c-2.676-2.732.766-10.444 7.689-17.225 6.921-6.782 14.702-10.066 17.377-7.335 2.676 2.731-.766 10.442-7.688 17.225-6.922 6.781-14.703 10.065-17.378 7.335z"/></g></g><g/><g clip-path="url(#9i71k)" opacity=".6"><g opacity=".6"><path fill="url(#9i71l)" d="M904.751 54.639c-1.536-1.877-.209-5.502 2.963-8.098 3.172-2.595 6.988-3.179 8.524-1.302 1.535 1.877.209 5.502-2.964 8.098-3.171 2.595-6.987 3.179-8.523 1.302z"/></g></g><g/><g clip-path="url(#9i71m)" opacity=".6"><g opacity=".6"><path fill="url(#9i71n)" d="M913.414 47.142c-.943-.841-.556-2.814.865-4.409 1.42-1.593 3.337-2.205 4.28-1.364.942.839.555 2.814-.865 4.407-1.42 1.595-3.337 2.206-4.28 1.366z"/></g></g><g/><g clip-path="url(#9i71o)"><g><path fill="url(#9i71p)" d="M880.817 21.58c-1.092-1.621.58-4.658 3.734-6.784 3.155-2.127 6.597-2.536 7.69-.915 1.092 1.621-.579 4.659-3.733 6.786-3.155 2.125-6.598 2.534-7.691.913z"/></g></g></g></svg>