<svg xmlns="http://www.w3.org/2000/svg" width="234" height="259" viewBox="0 0 234 259"><g><g><path fill="#fff" d="M226.901 55.747s-5.766-4.104-13.097-3.035c-7.864 1.147-13.882 4.434-23.96 3.687-12.426-.923-20.936-14.503-20.936-14.503s9.056-24.359 9.056-34.083c1.537.166 3.003.617 4.418 1.252 6.306 2.83 11.65 9.344 18.16 10.903.942.226 1.907.348 2.903.341a14.28 14.28 0 0 0 3.006-.348c7.063-1.546 12.851-7.666 23.852-5.887.773.125 1.575.288 2.405.495 0 0-5.951 40.92-5.807 41.178z"/></g><g><path fill="#e8eefc" d="M213.969 33.451c1.964 7.934-2.877 15.958-10.811 17.921a14.732 14.732 0 0 1-6.864.062 14.883 14.883 0 0 1-4.574-1.902 14.607 14.607 0 0 1-1.92-1.439 14.685 14.685 0 0 1-4.563-7.53c-1.964-7.937 2.876-15.962 10.81-17.925a14.747 14.747 0 0 1 2.494-.396 14.745 14.745 0 0 1 8.278 1.84c.699.393 1.366.84 1.995 1.338a14.666 14.666 0 0 1 3.308 3.688 14.725 14.725 0 0 1 1.847 4.343z"/></g><g><path fill="#371a45" d="M196.274 51.52a14.89 14.89 0 0 1-6.534-3.36 14.788 14.788 0 0 1-4.59-7.576c-1.972-7.971 2.906-16.06 10.875-18.032.826-.204 1.67-.338 2.51-.398 2.9-.213 5.78.427 8.327 1.85.702.396 1.377.848 2.007 1.347a14.74 14.74 0 0 1 3.328 3.71 14.81 14.81 0 0 1 1.858 4.369c1.972 7.969-2.906 16.057-10.876 18.029a14.722 14.722 0 0 1-6.905.062zm-10.95-10.98c.025.108.054.212.082.318a14.611 14.611 0 0 0 4.452 7.168 14.758 14.758 0 0 0 6.455 3.322c2.262.52 4.557.5 6.824-.061 7.873-1.95 12.694-9.94 10.745-17.814a14.604 14.604 0 0 0-1.836-4.317 14.531 14.531 0 0 0-3.288-3.665 14.951 14.951 0 0 0-1.983-1.33 14.62 14.62 0 0 0-8.228-1.83c-.829.06-1.663.192-2.479.394-7.874 1.949-12.694 9.94-10.745 17.816z"/></g><g opacity=".55"><g opacity=".55"><path fill="#fff" d="M213.969 33.451c.089.36.164.72.226 1.08-2.385-7.3-10.044-11.63-17.62-9.755-7.573 1.875-12.33 9.276-11.035 16.845-.112-.346-.214-.7-.303-1.059-1.964-7.936 2.876-15.96 10.81-17.924 7.934-1.963 15.958 2.877 17.922 10.813z"/></g></g><g><path fill="#b2c6e5" d="M213.969 33.451c1.964 7.934-2.877 15.958-10.811 17.921-7.933 1.964-15.958-2.877-17.921-10.81a14.85 14.85 0 0 1-.36-2.059c2.71 6.734 10.033 10.618 17.28 8.824 7.247-1.793 11.914-8.645 11.169-15.864.258.638.473 1.301.643 1.988z"/></g><g><path fill="#d9e3fa" d="M202.082 47.023c-5.524 1.367-11.13-2.015-12.497-7.539-1.367-5.523 2.015-11.129 7.539-12.496 5.523-1.367 11.129 2.014 12.496 7.538 1.367 5.524-2.014 11.13-7.538 12.497z"/></g><g opacity=".55"><g opacity=".55"><path fill="#fff" d="M209.62 34.527c.067.27.122.541.166.81-1.684-5.05-7.013-8.048-12.266-6.747-5.253 1.3-8.568 6.437-7.703 11.688a10.533 10.533 0 0 1-.231-.793c-1.367-5.523 2.014-11.13 7.538-12.498 5.523-1.367 11.129 2.017 12.496 7.54z"/></g></g><g><path fill="#29a5dc" d="M197.591 36.358c-.415.8-.303 1.227.435 1.746 2.53 1.779 5.06 3.556 7.588 5.336a8.747 8.747 0 0 0 2.56-8.531 8.747 8.747 0 0 0-6.498-6.417c-1.36 2.623-2.726 5.243-4.085 7.866z"/></g><g><path fill="#fcfcfc" d="M206.391 33.449l.04.579a.25.25 0 0 1-.19.26c-.881.218-4.301 1.063-4.541 1.125-.578.15-.989.84-.848 1.42a.744.744 0 0 0 .868.567 57.93 57.93 0 0 0 1.424-.35c.028-.007.068-.046.067-.07-.007-.172-.022-.343-.035-.527l-.844.209-.056-.79 1.605-.397.149 2.146a56.91 56.91 0 0 1-1.057.275c-.477.109-.939.294-1.433.312-.546.023-1.201-.378-1.382-.971-.261-.853.001-1.564.627-2.162a1.82 1.82 0 0 1 .865-.454c.329-.076 4.69-1.16 4.741-1.172z"/></g><g><path fill="#fcfcfc" d="M204.639 35.28l.079 1.179c.02.325.045.649.068.987.248-.062.369-.09.607-.154.019-.005.167-.038.153-.221l-.143-1.98z"/></g><g><path fill="#f0f" d="M196.583 40.461c-.557-.387-1.032-.255-1.363.353-.481.885-.95 1.777-1.421 2.668a8.74 8.74 0 0 0 9.325 1.57c-2.18-1.532-4.355-3.069-6.541-4.591z"/></g><g><path fill="#29a5dc" d="M193.7 35.135c.758.528 1.207.412 1.637-.422 1.094-2.127 2.185-4.255 3.277-6.383a8.729 8.729 0 0 0-7.011 5.334c.698.49 1.395.983 2.096 1.47z"/></g><g><path fill="#f0f" d="M192.67 37.814c-.031-.026-1.056-.664-1.73-1.08a8.823 8.823 0 0 0 1.056 4.452c.396-.82.896-1.827.995-2.041.253-.545.147-.951-.32-1.331z"/></g><g opacity=".27"><g opacity=".27"><path fill="#fce5e5" d="M206.819 24.083l-17.02 24.01a14.69 14.69 0 0 1-4.477-7.204l13.218-18.646a14.735 14.735 0 0 1 8.278 1.84z"/></g></g><g opacity=".27"><g opacity=".27"><path fill="#fce5e5" d="M211.195 27.8L195.56 51.129c-1.628-.374-2.44-.717-3.84-1.597l17.094-24.111c1.29 1.024 1.487.956 2.38 2.379z"/></g></g><g><path fill="#371a45" d="M188.893 39.656c-1.46-5.905 2.154-11.898 8.06-13.359 5.904-1.46 11.897 2.153 13.358 8.058 1.461 5.905-2.154 11.898-8.059 13.36-5.904 1.461-11.897-2.155-13.359-8.059zm1.383-.342c1.272 5.142 6.492 8.291 11.634 7.018 5.143-1.273 8.291-6.492 7.02-11.634-1.274-5.143-6.493-8.29-11.636-7.019-5.142 1.273-8.29 6.492-7.018 11.635z"/></g><g><path fill="#371a45" d="M196.107 52.243a15.66 15.66 0 0 1-6.859-3.528 15.536 15.536 0 0 1-4.728-7.61c-.032-.12-.062-.23-.09-.344-2.07-8.367 3.051-16.859 11.417-18.929a15.58 15.58 0 0 1 2.634-.419 15.544 15.544 0 0 1 8.742 1.944c.738.414 1.446.89 2.106 1.412a15.487 15.487 0 0 1 3.496 3.897 15.54 15.54 0 0 1 1.95 4.585c2.07 8.366-3.052 16.857-11.418 18.927a15.453 15.453 0 0 1-7.25.065zm-10.064-11.88a13.874 13.874 0 0 0 4.305 7.107c.573.506 1.182.963 1.813 1.357a13.958 13.958 0 0 0 4.32 1.797c2.146.494 4.325.474 6.477-.058 7.477-1.85 12.055-9.439 10.204-16.915a13.853 13.853 0 0 0-1.743-4.099 13.788 13.788 0 0 0-3.122-3.48 14.47 14.47 0 0 0-1.886-1.266 13.882 13.882 0 0 0-7.81-1.736 14.13 14.13 0 0 0-2.355.374c-7.477 1.851-12.054 9.44-10.203 16.918z"/></g><g><path fill="#371a45" d="M189.75 57.672c-12.923-.959-21.564-14.521-21.926-15.098a1.279 1.279 0 0 1-.115-1.124c.09-.241 8.976-24.252 8.976-33.637a1.277 1.277 0 0 1 1.415-1.271c4.834.522 8.9 3.569 12.83 6.515 4.1 3.073 7.973 5.977 12.43 5.977l.074-.001c3.277-.023 6.235-1.393 9.367-2.843 5.208-2.412 11.112-5.145 20.22-2.861.635.159 1.047.775.953 1.423-2.275 15.644-5.673 39.298-5.797 40.957a1.278 1.278 0 0 1-2.018 1.078c-.052-.037-5.462-3.79-12.169-2.81-2.603.38-4.968.992-7.47 1.641-4.128 1.068-8.374 2.168-13.752 2.168-.968 0-1.97-.036-3.018-.114zm.19-2.548c6.442.477 11.27-.772 15.938-1.98 2.46-.637 5.003-1.296 7.743-1.696 5.337-.779 9.854.975 12.231 2.201.313-2.563 1.062-7.788 2.635-18.769 1.173-8.193 2.358-16.366 2.79-19.331-7.594-1.581-12.577.725-17.402 2.96-3.39 1.569-6.592 3.052-10.422 3.079l-.093.001c-5.309 0-9.707-3.297-13.963-6.487-3.4-2.548-6.63-4.971-10.215-5.79-.698 9.701-7.486 28.677-8.852 32.414 1.671 2.417 9.316 12.634 19.61 13.398z"/></g><g><path fill="#fff" d="M109.426 78.028l-.664 5.805-.339 2.956-5.839 50.984s3.5.201 8.213.093c.922-.022 1.89-.054 2.888-.102 7.436-.356 16.496-1.579 20.071-5.243 5.343-5.48 7.362-33.246 3.268-44.46-1.876-5.142-12.393-7.789-19.888-9.043a95.38 95.38 0 0 0-2.384-.37c-3.144-.452-5.326-.62-5.326-.62z"/></g><g opacity=".35"><g opacity=".35"><path fill="#371a45" d="M108.763 83.833l-.34 2.956-4.635 40.482-1.203 10.502.212.011.137.006.128.005.102.006c.013 0 .029.003.042.002l.207.008c.016.002.032.002.05.002.06.002.123.004.19.008l.288.01c.07.001.146.005.223.007l.239.007c.102.004.21.005.32.01.224.005.46.012.71.016.22.006.453.01.695.012.279.004.57.01.875.011 1.12.008 2.404.004 3.795-.028l.824-.02a146.764 146.764 0 0 0 2.064-.082c7.438-.355 16.496-1.579 20.068-5.243 4.402-4.512 6.55-24.135 4.883-37.188-.093 11.285-2.127 23.265-5.445 26.665-1.641 1.681-4.628 2.823-8.114 3.602-1.486.331-2.74-1.11-2.245-2.549l.012-.035c.895-2.64 1.52-5.685 1.708-9.295.4-7.735-.12-18.919-8.056-28.35-.185-.223-3.6-.832-7.734-1.538z"/></g></g><g><path fill="#371a45" d="M102.51 139.05l-1.35-.078 7.138-62.31 1.227.093c2.605.201 25.539 2.206 28.7 10.866 1.955 5.352 2.713 14.898 1.98 24.914-.283 3.856-1.516 16.76-5.534 20.88-4.895 5.02-18.764 5.768-26.61 5.768-3.1 0-5.258-.117-5.55-.134zm1.499-2.489c7.553.286 24.14-.12 28.833-4.93 4.967-5.095 6.864-32.507 2.983-43.134-2.08-5.695-17.923-8.373-25.27-9.086z"/></g><g><path fill="#fff" d="M134.455 111.915l-10.09.069a1.976 1.976 0 0 0-1.905 1.49c-.807 3.2-2.287 10.684.693 13.392 2.474 2.248 6.736 2.295 9.367.359 2.943-2.165 3.72-9.552 3.925-13.221a1.978 1.978 0 0 0-1.99-2.09z"/></g><g opacity=".35"><g opacity=".35"><path fill="#371a45" d="M122.46 113.476c-.808 3.197-2.287 10.682.694 13.389 2.473 2.249 6.734 2.296 9.367.359 1.81-1.333 2.8-4.64 3.342-7.841-.563 1.579-1.362 2.839-2.303 3.636-5.395 4.572-8.777-1.482-8.777-1.482s-.752 1.362-1.28 1.407c-2.207.184-1.289-6.624-.732-10.135a1.911 1.911 0 0 0-.31.667z"/></g></g><g><path fill="#371a45" d="M122.475 127.611c-3.27-2.972-2.025-10.288-.992-14.383a2.984 2.984 0 0 1 2.875-2.253l10.09-.069h.02c.815 0 1.603.337 2.165.928.566.594.864 1.405.819 2.225-.287 5.133-1.272 11.723-4.335 13.977-1.451 1.067-3.268 1.594-5.075 1.594-2.054 0-4.094-.68-5.567-2.019zm1.897-14.62a.97.97 0 0 0-.935.73c-1.547 6.133-1.4 10.768.394 12.398 2.059 1.871 5.764 2.005 8.092.293 1.84-1.355 3.155-6.014 3.516-12.466a.97.97 0 0 0-.977-1.024z"/></g><g><path fill="#371a45" d="M127.526 129.486c-.213-.142-.318-.237-.458-.357a7.004 7.004 0 0 1-.999-1.108 8.507 8.507 0 0 1-.958-1.658c-.515-1.154-.788-2.376-.88-3.585-.087-1.212-.006-2.407.129-3.563.069-.583.158-1.165.277-1.743.13-.585.252-1.137.514-1.74a.3.3 0 0 1 .562.21l-.012.039c-.151.475-.234 1.064-.293 1.61-.058.56-.086 1.124-.095 1.69-.015 1.139.028 2.256.218 3.33.191 1.075.544 2.104 1.066 3.006.25.458.566.869.899 1.244a5.398 5.398 0 0 0 .812.736c.084.06.21.139.238.15a1.018 1.018 0 1 1-.719 1.908 1.025 1.025 0 0 1-.2-.102z"/></g><g><path fill="#371a45" d="M121.874 85.593a90.515 90.515 0 0 1 3.743-.198 82.179 82.179 0 0 1 3.75-.05 54.03 54.03 0 0 1 3.782.152c1.27.106 2.545.245 3.859.55a1.279 1.279 0 1 1-.681 2.464l-.01-.003c-1.073-.348-2.25-.583-3.434-.78a51.427 51.427 0 0 0-3.613-.45 80.929 80.929 0 0 0-3.666-.257 92.457 92.457 0 0 0-3.677-.112h-.008a.66.66 0 0 1-.044-1.316z"/></g><g><path fill="#fff" d="M168.745 90.616s-9.768 34.201-49.259 17.415a82.281 82.281 0 0 1-5.175-2.412l-.387-12.946-.105-3.58-.367-12.26s1.568 1.175 4.226 2.702a58.96 58.96 0 0 0 5.043 2.603c6.287 2.872 15.014 5.51 23.757 3.786a26.853 26.853 0 0 0 10.004-4.19z"/></g><g opacity=".25"><g opacity=".25"><path fill="#371a45" d="M168.745 90.616s-9.768 34.201-49.259 17.415a82.281 82.281 0 0 1-5.175-2.412l-.387-12.946c6.363 4.734 17.438 18.488 33.397 10.484 8.145-4.083.172-7.268-.843-17.233a26.853 26.853 0 0 0 10.004-4.19z"/></g></g><g><path fill="#371a45" d="M139.516 113.955c-7.68 0-16.305-2.4-25.784-7.192a1.28 1.28 0 0 1 1.153-2.28c14.382 7.27 26.578 8.817 36.25 4.6 10.581-4.614 15.008-14.97 16.101-17.982l-10.789-7.818c-8.04 5.112-18.066 5.84-29.063 2.091-8.462-2.885-14.448-7.33-14.699-7.519a1.278 1.278 0 0 1 1.532-2.045c.232.173 23.414 17.212 41.545 4.865a1.275 1.275 0 0 1 1.47.021l12.263 8.886c.435.315.627.87.48 1.386-.17.591-4.29 14.54-17.79 20.445-3.878 1.695-8.108 2.542-12.669 2.542z"/></g><g><path fill="#371a45" d="M142.516 113.816a1.23 1.23 0 0 1-.274-.03c-2.8-.611-4.894-2.157-6.223-4.593-4.3-7.878 1.104-22.615 1.336-23.238a1.277 1.277 0 0 1 2.395.891c-.053.142-5.232 14.269-1.487 21.125.972 1.781 2.452 2.866 4.524 3.319a1.277 1.277 0 0 1-.27 2.526z"/></g><g><path fill="#ffd243" d="M176.313 246.464c-23.971 7.34-54.16 11.713-86.957 11.713-32.794 0-62.982-4.372-86.953-11.71l-.003-.11-.02-1.013v-.074a80.676 80.676 0 0 1 .08-4.94 86.275 86.275 0 0 1 3.062-19.246l.24-.844c.162-.563.33-1.126.505-1.69.35-1.122.725-2.242 1.12-3.36a94.881 94.881 0 0 1 1.606-4.159 107.307 107.307 0 0 1 1.07-2.472 88.092 88.092 0 0 1 3.267-6.5 88.87 88.87 0 0 1 2.165-3.676c.236-.378.473-.757.712-1.133.075-.113.149-.223.22-.336.19-.295.382-.586.576-.878a91.496 91.496 0 0 1 4.12-5.68c.289-.366.577-.725.868-1.081 0-.003.004-.003.004-.003a90.482 90.482 0 0 1 .99-1.195c.204-.242.408-.482.615-.718.11-.126.217-.252.327-.375a86.58 86.58 0 0 1 1.68-1.865c.31-.337.624-.667.938-.997.282-.294.567-.586.85-.877l.154-.155a67.374 67.374 0 0 1 .922-.916 85.349 85.349 0 0 1 8.38-7.221c.29-.22.582-.441.877-.654a80.537 80.537 0 0 1 3.557-2.482c.172-.117.343-.23.518-.344.094-.061.188-.123.285-.184l.097-.062a79.343 79.343 0 0 1 3.295-2.026c.249-.146.498-.288.747-.434a85.145 85.145 0 0 1 2.256-1.24l.76-.397a88.094 88.094 0 0 1 4.15-2.017 89.515 89.515 0 0 1 6.399-2.599 86.476 86.476 0 0 1 9.92-2.93 80.907 80.907 0 0 1 4.51-.921 82.602 82.602 0 0 1 4.408-.664c.094-.013.188-.026.282-.035a77.748 77.748 0 0 1 2.158-.237 89.237 89.237 0 0 1 3.454-.262c.11-.006.217-.016.324-.02.375-.02.754-.038 1.132-.051.376-.016.755-.03 1.133-.04.385-.01.77-.015 1.153-.022a96.334 96.334 0 0 1 3.356.02l.96.029c.639.022 1.277.052 1.914.09.958.059 1.919.13 2.878.217.637.059 1.272.123 1.909.198h.003a86.178 86.178 0 0 1 22.686 5.8 86.501 86.501 0 0 1 11.636 5.758c.402.236.8.476 1.19.722a80.926 80.926 0 0 1 2.872 1.84c.128.086.26.167.389.254.136.09.268.18.404.278.372.253.74.509 1.11.767l.175.126a80.553 80.553 0 0 1 2.224 1.629c.382.288.76.579 1.133.873.375.295.747.593 1.116.89a78.2 78.2 0 0 1 2.182 1.829 79.352 79.352 0 0 1 2.11 1.89 66.757 66.757 0 0 1 2.036 1.949 82.436 82.436 0 0 1 4.774 5.117 77.26 77.26 0 0 1 2.644 3.23c.282.366.564.732.842 1.1.278.37.553.742.825 1.114a75.77 75.77 0 0 1 2.36 3.409c.246.372.489.747.728 1.123l.049.077c.236.376.472.75.702 1.127.24.39.476.786.712 1.18.233.396.463.79.69 1.189.456.796.899 1.599 1.323 2.408.43.809.845 1.625 1.246 2.447.2.41.399.822.593 1.236a80.428 80.428 0 0 1 1.66 3.758 85.146 85.146 0 0 1 2.363 6.406c.006.026.016.048.023.074.136.415.265.829.39 1.243.137.437.267.874.396 1.31a107.49 107.49 0 0 1 .722 2.639c.103.408.207.815.304 1.226l.058.237a85.635 85.635 0 0 1 .832 3.874c.084.45.169.896.246 1.346.08.45.156.9.227 1.35.07.453.139.903.204 1.356.058.415.116.826.168 1.24.006.065.016.129.026.19.048.405.097.807.142 1.21.004.037.007.076.013.11.049.445.094.888.136 1.335.046.453.084.91.12 1.366.074.912.133 1.825.175 2.74.097 2.063.119 4.135.07 6.206z"/></g><g><path fill="#ffd243" d="M176.332 245.412c-.003.303-.01.604-.016.91 0 .048 0 .093-.003.141a213.921 213.921 0 0 1-9.682 2.715c-1.763.454-3.555.891-5.376 1.313a274.884 274.884 0 0 1-19.038 3.686c-.01.004-.019.004-.032.006-.681.106-1.358.214-2.045.317-1.772.265-3.561.517-5.366.76-.795.106-1.591.208-2.389.307-13.57 1.7-28.024 2.61-43.028 2.61-22.248 0-43.292-2.01-62.014-5.597a191.59 191.59 0 0 1-2.868-.565c-6.938-1.406-13.535-3.029-19.738-4.85-.783-.23-1.562-.462-2.332-.699h-.003l-.003-.109c-.003-.23-.01-.46-.013-.69-.003-.105-.003-.213-.006-.322v-.077c-.003-.179-.003-.364-.003-.546-.007-.939.003-1.878.028-2.814a82.295 82.295 0 0 1 .074-1.933c0-.025 0-.054.006-.08a31.845 31.845 0 0 1 .058-1.03c.019-.349.044-.7.067-1.049.054-.728.121-1.453.191-2.178a84.665 84.665 0 0 1 1.658-10.302 80.407 80.407 0 0 1 1.064-4.252c.077-.28.16-.562.239-.843a83.929 83.929 0 0 1 2.24-6.718c.316-.83.648-1.664.99-2.49.23-.55.466-1.1.706-1.65a88.772 88.772 0 0 1 3.632-7.318 88.007 88.007 0 0 1 2.166-3.683c.236-.377.472-.757.712-1.13.073-.115.147-.224.22-.339a77.123 77.123 0 0 1 2.077-3.057c.102-.147.204-.29.306-.43.208-.289.416-.573.626-.86.275-.374.553-.745.834-1.112.284-.37.569-.735.853-1.099.287-.364.575-.725.866-1.08 0-.003.003-.003.003-.003l.76-.92c.08-.092.157-.185.233-.274.201-.243.406-.483.613-.719l.326-.377c.249-.284.502-.569.754-.85.31-.339.617-.68.927-1.012.313-.339.626-.668.939-.997.281-.294.565-.588.853-.878l.15-.154a61.852 61.852 0 0 1 .923-.917c.648-.636 1.3-1.255 1.964-1.868.333-.307.671-.61 1.006-.914a86.031 86.031 0 0 1 4.144-3.466c.418-.329.843-.655 1.264-.974.282-.21.559-.422.841-.626l.038-.029a73.058 73.058 0 0 1 2.571-1.821c.205-.143.412-.28.623-.42.122-.08.24-.16.364-.24.265-.176.534-.352.802-.528.032-.019.064-.042.096-.06.361-.233.722-.463 1.089-.69a80.35 80.35 0 0 1 2.207-1.336l.748-.434c.747-.425 1.498-.84 2.255-1.24.252-.134.508-.264.76-.399a85.688 85.688 0 0 1 6.261-2.939 90.112 90.112 0 0 1 4.287-1.676 88.475 88.475 0 0 1 9.921-2.93A84.835 84.835 0 0 1 78.631 158c.093-.013.185-.026.281-.035a81.845 81.845 0 0 1 4.459-.428c.384-.026.767-.048 1.154-.074.108-.003.217-.012.325-.016.38-.022.754-.038 1.131-.054s.757-.025 1.134-.035c.383-.01.767-.019 1.15-.026a98.91 98.91 0 0 1 3.357.02l.962.028c.635.023 1.274.054 1.913.09.958.06 1.92.13 2.875.217.639.06 1.278.127 1.91.198h.003a86.206 86.206 0 0 1 22.686 5.804 86.62 86.62 0 0 1 8.44 3.951c.396.214.792.432 1.188.652a70.09 70.09 0 0 1 2.009 1.156c.403.234.799.476 1.192.722.415.256.827.511 1.239.77a90.537 90.537 0 0 1 3.533 2.364l.176.128c.36.252.715.511 1.073.77.386.284.77.568 1.15.858.383.288.76.58 1.134.873a108.713 108.713 0 0 1 2.217 1.798c.361.304.725.61 1.079.92.361.313.713.623 1.067.94a83.4 83.4 0 0 1 3.08 2.901 86.76 86.76 0 0 1 7.42 8.345c.281.367.562.732.84 1.102.278.368.556.742.827 1.112a89.189 89.189 0 0 1 3.134 4.61c.236.376.473.75.703 1.127.239.39.476.786.712 1.182a88.026 88.026 0 0 1 2.016 3.593c.424.812.843 1.626 1.245 2.447.198.412.397.824.591 1.24a87.8 87.8 0 0 1 2.176 5.024 89.817 89.817 0 0 1 1.849 5.137c.007.025.016.047.023.073.134.415.265.831.389 1.246.138.434.265.872.396 1.31a95.555 95.555 0 0 1 .722 2.639c.102.405.208.814.304 1.226l.057.236c.096.396.189.795.275 1.195.201.888.386 1.782.559 2.68.083.447.166.894.246 1.345.08.45.153.901.227 1.351a78.188 78.188 0 0 1 .396 2.785c.051.406.099.805.144 1.211.003.035.006.073.012.112.035.32.067.638.096.961.016.125.026.246.038.371.048.456.087.91.122 1.367.035.441.064.885.093 1.33.054.762.089 1.525.118 2.292.016.361.025.72.035 1.08.006.274.013.552.016.827.009.786.013 1.578.003 2.364z"/></g><g><path fill="#ff9d33" d="M148.513 180.542c-23.742 25.435-43.24-13.798-64.998-8.388-7.9 1.965-13.796 7.78-32.882 6.916-7.844-.356-11.368-2.566-12.943-4.744l.038-.029c.358-.265.722-.527 1.083-.786.492-.35.987-.696 1.488-1.034.205-.144.413-.282.623-.422.122-.08.24-.16.365-.24l.8-.527c.033-.019.065-.04.097-.06.36-.233.722-.463 1.089-.69a80.437 80.437 0 0 1 2.208-1.336c.249-.146.498-.29.747-.434.748-.425 1.498-.84 2.255-1.24.253-.133.508-.264.76-.399a85.205 85.205 0 0 1 6.26-2.939 90.532 90.532 0 0 1 4.288-1.676 88.37 88.37 0 0 1 9.922-2.93 84.835 84.835 0 0 1 9.199-1.619 86.564 86.564 0 0 1 4.46-.428c.383-.026.766-.048 1.153-.074.108-.003.217-.012.326-.016.38-.022.753-.038 1.13-.054.377-.016.757-.025 1.134-.035.384-.01.767-.019 1.15-.025a93.964 93.964 0 0 1 3.357.02l.962.027c.636.023 1.274.055 1.913.09.959.06 1.92.131 2.875.217.639.061 1.278.127 1.91.198h.004a86.247 86.247 0 0 1 22.685 5.804 86.51 86.51 0 0 1 8.44 3.951c.396.214.792.432 1.188.652a70.09 70.09 0 0 1 2.009 1.156c.403.234.799.476 1.192.722.415.256.827.511 1.239.77a92.228 92.228 0 0 1 3.533 2.364c.06.045.118.086.176.128.36.252.715.511 1.073.77.387.284.77.568 1.15.86.383.286.76.577 1.134.871a111.515 111.515 0 0 1 2.217 1.798c.36.304.725.61 1.08.92a93.435 93.435 0 0 1 2.111 1.891z"/></g><g><path fill="#fcac38" d="M2.8 235.637a87.537 87.537 0 0 0 1.937 11.53c-.784-.23-1.561-.464-2.331-.7-.01-.266-.016-.53-.02-.8a82.537 82.537 0 0 1 .094-5.693c0-.026 0-.052.004-.078.016-.342.035-.689.058-1.032.019-.35.045-.699.068-1.049.055-.728.12-1.453.19-2.178z"/></g><g><path fill="#fcac38" d="M176.332 245.412c-.003.304-.01.605-.016.91 0 .048 0 .093-.003.142-.767.233-1.538.466-2.318.696a85.457 85.457 0 0 0 1.913-11.377c.003-.007.003-.01.003-.017.013.13.026.256.036.386a84.993 84.993 0 0 1 .213 2.696c.052.764.088 1.527.117 2.294a64.79 64.79 0 0 1 .052 1.907c.01.786.013 1.576.003 2.363z"/></g><g><path fill="#ff9d33" d="M166.632 249.18c-1.764.452-3.557.89-5.376 1.31a273.014 273.014 0 0 1-18.41 3.59l-.628.097c-.01.003-.02.003-.033.006.023-.113.049-.227.075-.34 2.376-10.597 9.477-19.2 15.86-19.216 3.204-.01 5.764 2.217 7.22 5.774.988 2.408 1.467 5.428 1.292 8.778z"/></g><g><path fill="#371a45" d="M137.314 246.668l-.003.006a24.238 24.238 0 0 0-2.522 8.412c-.006.059-.013.117-.016.175-.793.104-1.589.207-2.388.304.042-.275.09-.55.142-.825.602-3.149 1.92-6.205 3.994-8.606a.482.482 0 0 1 .793.534z"/></g><g><path fill="#ff9d33" d="M49.63 184.955c-4.77.196-8.53 3.654-8.397 7.725.132 4.07 4.105 7.21 8.874 7.015 4.77-.195 8.529-3.654 8.397-7.724-.132-4.07-4.105-7.211-8.874-7.016z"/></g><g><path fill="#ffd243" d="M49.534 190.062c-3.283 1.437-4.936 4.724-3.693 7.342 1.244 2.617 4.913 3.575 8.196 2.138 3.283-1.437 4.937-4.724 3.693-7.34-1.243-2.619-4.913-3.577-8.196-2.14z"/></g><g><path fill="#371a45" d="M50.132 200.383a10.062 10.062 0 0 1-5.588-.968 9.403 9.403 0 0 1-2.387-1.73 8.072 8.072 0 0 1-1.664-2.512c-.802-1.895-.69-4.137.16-6.004.427-.937 1.048-1.764 1.76-2.477a9.715 9.715 0 0 1 2.422-1.77c.89-.45 1.836-.777 2.804-.99a12.105 12.105 0 0 1 2.947-.214c.985.074 1.96.261 2.898.573a9.838 9.838 0 0 1 2.62 1.373c1.615 1.144 2.823 2.916 3.196 4.87.399 1.95-.131 4.005-1.268 5.512a.286.286 0 0 1-.401.058.29.29 0 0 1-.082-.365c.829-1.547 1.075-3.34.587-4.936-.45-1.595-1.541-2.956-2.934-3.844-2.776-1.819-6.592-1.888-9.484-.348-1.436.772-2.687 1.922-3.366 3.36-.693 1.417-.816 3.092-.283 4.595.529 1.505 1.684 2.805 3.119 3.682 1.439.89 3.156 1.353 4.915 1.427h.003a.355.355 0 0 1 .026.708z"/></g><g><path fill="#371a45" d="M61 187.121a9.586 9.586 0 0 1 2.116 5.145c.191 1.905-.244 3.864-1.119 5.574-.86 1.73-2.21 3.17-3.75 4.288a14.636 14.636 0 0 1-5.172 2.322 15.6 15.6 0 0 1-5.639.247c-1.872-.266-3.699-.893-5.313-1.88-1.615-.976-3.036-2.305-4.017-3.92-.968-1.616-1.496-3.494-1.427-5.335a.285.285 0 0 1 .57-.024l.001.005a9.917 9.917 0 0 0 1.85 4.691c.991 1.36 2.337 2.421 3.803 3.212 2.954 1.575 6.502 1.925 9.738 1.15 1.616-.39 3.17-1.052 4.522-2 .691-.456 1.306-1.009 1.885-1.593.271-.307.542-.618.79-.944.218-.345.497-.656.675-1.025l.3-.536c.093-.182.162-.375.245-.562.181-.37.278-.767.4-1.158.073-.194.102-.397.14-.598l.115-.607c.022-.409.072-.82.071-1.235.001-1.66-.497-3.32-1.365-4.81a.355.355 0 0 1 .581-.407z"/></g><g><path fill="#371a45" d="M40.81 236.113c-.632 2.547-1.626 5.004-3.008 7.22-1.385 2.215-3.094 4.228-5.094 5.899-.24.219-.505.41-.76.608l-.78.589-.813.534c-.272.178-.544.356-.832.508l-.852.47c-.28.16-.585.284-.873.427-.149.074-.3.145-.454.213a221 221 0 0 1-2.87-.566l.097-.04c.278-.112.56-.216.825-.355l.81-.392c.271-.122.524-.287.786-.43.255-.152.524-.282.773-.45l.748-.492c.252-.155.49-.34.725-.521l.715-.531.68-.58c.227-.194.46-.378.667-.591a24.719 24.719 0 0 0 4.402-5.551c1.178-2.052 2.077-4.263 2.602-6.558.534-2.288.728-4.661.49-6.988a18.973 18.973 0 0 0-1.872-6.706 16.412 16.412 0 0 0-1.868-2.952 15.312 15.312 0 0 0-2.456-2.505c-1.816-1.5-3.985-2.603-6.325-3.231l-.003-.003a.479.479 0 0 1 .181-.94c.638.076 1.272.189 1.903.335.628.159 1.247.35 1.858.579a17.394 17.394 0 0 1 3.467 1.816 17.452 17.452 0 0 1 2.964 2.605 18.236 18.236 0 0 1 2.295 3.227c1.301 2.309 2.065 4.894 2.38 7.513a22.954 22.954 0 0 1-.509 7.839z"/></g><g><path fill="#ff9d33" d="M8.692 230.507c-1.627 8.12 2.499 15.852 9.217 17.27 6.717 1.417 13.482-4.016 15.109-12.136 1.628-8.12-2.5-15.852-9.216-17.269-6.718-1.418-13.483 4.015-15.11 12.135z"/></g><g><path fill="#ffd243" d="M20.412 245.874c4.422.052 8.917-2.957 11.227-8.014 3.073-6.735 1.104-14.554-4.397-17.468a9.228 9.228 0 0 0-2.403-.88c-3.246 1.323-6.156 4.1-7.919 7.96-3.121 6.84-1.524 14.698 3.492 18.402z"/></g><g><path fill="#371a45" d="M8.86 227.625a15.453 15.453 0 0 1 5.53-6.677 14.382 14.382 0 0 1 4.066-1.877 12.614 12.614 0 0 1 4.54-.404c1.529.126 3.07.58 4.419 1.352a11.844 11.844 0 0 1 3.577 2.973c1.925 2.47 2.845 5.588 2.799 8.633-.11 6.112-3.868 11.911-9.39 14.403-2.732 1.238-5.934 1.598-8.828.717a11.086 11.086 0 0 1-3.913-2.12 10.845 10.845 0 0 1-2.7-3.436.38.38 0 0 1 .656-.385l.002.003a10.728 10.728 0 0 0 2.79 2.844 10.091 10.091 0 0 0 3.573 1.555c1.265.286 2.575.307 3.848.108a12.226 12.226 0 0 0 3.668-1.185c4.613-2.36 7.716-7.43 7.753-12.538.014-2.538-.71-5.085-2.23-7.054a9.522 9.522 0 0 0-2.773-2.426 7.991 7.991 0 0 0-1.686-.78 11.073 11.073 0 0 0-.897-.259c-.306-.078-.618-.109-.927-.169-2.491-.353-5.138.254-7.411 1.557-2.297 1.287-4.216 3.263-5.621 5.591l-.003.006a.473.473 0 0 1-.841-.432z"/></g><g><path fill="#371a45" d="M120.302 229.764c.509 2.91.36 5.948-.369 8.86a22.132 22.132 0 0 1-1.572 4.23 21.873 21.873 0 0 1-2.445 3.823c-1.888 2.382-4.309 4.334-6.997 5.76a23.558 23.558 0 0 1-8.705 2.555c-3.027.265-6.095-.004-9.001-.833a26.33 26.33 0 0 1-8.104-3.895c-2.437-1.756-4.535-3.947-6.221-6.396-1.651-2.474-2.864-5.23-3.506-8.093a.38.38 0 0 1 .731-.214l.002.007c.971 2.67 2.329 5.167 4.06 7.362a26.562 26.562 0 0 0 6.125 5.6c2.331 1.486 4.872 2.622 7.534 3.298 2.661.669 5.427.915 8.14.634 5.425-.503 10.636-3.085 14.21-7.224a20.225 20.225 0 0 0 2.364-3.346 20.242 20.242 0 0 0 1.678-3.766c.885-2.624 1.249-5.44 1.136-8.261a.474.474 0 0 1 .94-.101z"/></g><g><path fill="#ff9d33" d="M95.218 216.578c-8.587 1.02-14.988 8.249-14.297 16.145.691 7.896 8.212 13.47 16.798 12.449 8.587-1.02 14.988-8.248 14.297-16.144-.69-7.896-8.21-13.47-16.798-12.45z"/></g><g><path fill="#ffd243" d="M82.812 235.064c1.412 5.19 6.08 9.342 12.184 10.184 8.127 1.117 15.728-4.061 16.978-11.566.178-1.06.218-2.11.131-3.134-2.473-3.31-6.37-5.692-11.028-6.335-8.256-1.134-16.02 3.623-18.265 10.85z"/></g><g><path fill="#371a45" d="M98.24 214.951c3.352.42 6.578 1.974 9.096 4.326a17.133 17.133 0 0 1 3.19 4.077 16.181 16.181 0 0 1 1.765 4.92c.34 1.72.365 3.532.037 5.27-.292 1.743-.862 3.47-1.78 5.005-1.824 3.071-4.759 5.478-8.146 6.592-1.689.56-3.462.83-5.23.83l-1.323-.052-1.31-.176c-.872-.128-1.723-.362-2.558-.632a17.142 17.142 0 0 1-8.374-6.05c-1.038-1.396-1.877-2.943-2.429-4.59a15.435 15.435 0 0 1-.817-5.106c.032-1.724.336-3.44.955-5.036a13.551 13.551 0 0 1 2.657-4.309.382.382 0 0 1 .54-.026.385.385 0 0 1 .048.51 13.654 13.654 0 0 0-2.608 8.832c.082 1.543.417 3.065.99 4.49a15.493 15.493 0 0 0 2.326 3.945c1.932 2.368 4.545 4.174 7.448 5.043.725.217 1.464.388 2.21.493l1.122.141 1.128.031a14.16 14.16 0 0 0 4.404-.742c2.83-.955 5.282-2.92 6.81-5.463.788-1.259 1.298-2.683 1.578-4.15.172-.73.232-1.483.25-2.232.004-.375-.003-.75-.025-1.126-.016-.378-.083-.75-.125-1.126a14.289 14.289 0 0 0-1.36-4.33 15.226 15.226 0 0 0-2.626-3.772c-2.11-2.268-4.925-3.892-8.012-4.657h-.004a.474.474 0 0 1 .173-.93z"/></g><g><path fill="#fcac38" d="M102.94 195.866c10.871 1.19 20.087-4.3 20.586-12.26.498-7.96-7.91-15.376-18.78-16.566-10.872-1.19-20.088 4.299-20.587 12.259-.498 7.96 7.91 15.378 18.781 16.567z"/></g><g><path fill="#ff9d33" d="M102.94 195.866c10.871 1.19 20.087-4.3 20.586-12.26.498-7.96-7.91-15.376-18.78-16.566-10.872-1.19-20.088 4.299-20.587 12.259-.498 7.96 7.91 15.378 18.781 16.567z"/></g><g><path fill="#ffd243" d="M102.617 195.746c8.282.906 15.304-3.276 15.684-9.341.38-6.065-6.026-11.717-14.31-12.623-8.281-.906-15.304 3.276-15.684 9.34-.38 6.066 6.026 11.718 14.31 12.624z"/></g><g><path fill="#371a45" d="M89.887 170.166c-1.444 1.062-2.68 2.377-3.524 3.892a9.876 9.876 0 0 0-1.262 4.917c.007 1.697.456 3.385 1.232 4.918a15.95 15.95 0 0 0 3.05 4.18c2.474 2.47 5.595 4.299 8.937 5.433 3.336 1.167 6.91 1.67 10.406 1.403 3.484-.253 6.943-1.351 9.612-3.438 1.33-1.04 2.41-2.36 3.093-3.864a9.639 9.639 0 0 0 .83-4.85c-.14-1.674-.717-3.326-1.559-4.846-.84-1.525-1.965-2.913-3.25-4.144-2.576-2.475-5.797-4.295-9.237-5.512l-.002-.001a.381.381 0 0 1 .218-.73c3.644.896 7.153 2.574 10.088 5.06 1.463 1.245 2.766 2.708 3.802 4.375 1.044 1.659 1.78 3.56 2.031 5.572.255 2.007-.013 4.117-.83 5.998-.805 1.888-2.108 3.54-3.664 4.814-1.554 1.285-3.339 2.232-5.196 2.886-.93.328-1.878.59-2.836.794-.959.195-1.927.332-2.898.419-3.89.322-7.798-.29-11.44-1.574a27.056 27.056 0 0 1-5.22-2.536c-1.64-1.038-3.178-2.258-4.507-3.697-1.338-1.425-2.475-3.065-3.288-4.875-.805-1.81-1.242-3.82-1.15-5.825.104-2.004.74-3.97 1.828-5.615a12.274 12.274 0 0 1 1.898-2.23 14.285 14.285 0 0 1 2.318-1.714.473.473 0 0 1 .527.785z"/></g><g><path fill="#371a45" d="M128.462 188.413a13.49 13.49 0 0 0-.425-8.273c-.958-2.628-2.622-4.967-4.57-7.012a29.36 29.36 0 0 0-6.706-5.164 34.433 34.433 0 0 0-7.857-3.258c-2.733-.802-5.569-1.225-8.408-1.34a30.366 30.366 0 0 0-8.447.836c-2.742.69-5.396 1.8-7.681 3.464-2.288 1.647-4.15 3.896-5.243 6.56l-.001.003a.382.382 0 0 1-.722-.243c.783-2.945 2.624-5.596 4.972-7.581 2.364-1.984 5.178-3.378 8.114-4.246 2.938-.885 6.012-1.252 9.065-1.22 3.056.046 6.1.497 9.04 1.312 2.936.825 5.78 2.008 8.418 3.563 2.62 1.576 5.064 3.503 7.083 5.818 2.032 2.289 3.718 4.97 4.6 7.966.429 1.493.659 3.055.603 4.609a13.35 13.35 0 0 1-.938 4.504.473.473 0 0 1-.897-.298z"/></g><g><path fill="#ffd243" d="M161.256 250.49a273.64 273.64 0 0 1-18.41 3.59l-.628.097c.052-.249.107-.499.165-.75 1.936-8.345 7.095-15.304 11.898-16.33a5.811 5.811 0 0 1 1.065-.13c4.606-.113 7.036 5.752 5.91 13.523z"/></g><g><path fill="#371a45" d="M165.703 240.385a.468.468 0 0 1-.363.016.46.46 0 0 1-.252-.197l-.003-.006c-.851-1.402-1.994-2.603-3.37-3.325-1.372-.73-2.951-.96-4.47-.725-1.022.146-2.016.483-2.964.948a13 13 0 0 0-1.369.781 18.077 18.077 0 0 0-3.632 3.162c-2.159 2.428-3.845 5.295-5.02 8.354a30.446 30.446 0 0 0-1.414 4.686l-.628.098c-.01.003-.02.003-.033.006-.679.107-1.359.214-2.045.317.382-2.07.99-4.097 1.764-6.043a30.338 30.338 0 0 1 2.427-4.748 25.347 25.347 0 0 1 3.279-4.227 21.027 21.027 0 0 1 1.987-1.826c.703-.563 1.437-1.097 2.23-1.55 1.577-.906 3.341-1.582 5.218-1.747 1.867-.162 3.822.258 5.395 1.272a9.095 9.095 0 0 1 2.062 1.832c.58.705 1.046 1.482 1.428 2.281a.479.479 0 0 1-.227.641z"/></g><g opacity=".6"><g opacity=".6"><path fill="#fff" d="M135.828 188.47c.432 10.514 17.616 19.132 24.288 46.457 2.83 11.59 12.285-1.644 2.984-23.381-8.62-20.147-27.576-30.486-27.272-23.076z"/></g></g><g><path fill="#371a45" d="M2.402 247.745c-.69 0-1.258-.55-1.277-1.244a87.805 87.805 0 0 1 1.383-17.98 88.193 88.193 0 0 1 9.705-27.075c7.268-13.077 17.774-24.14 30.384-31.993a86.589 86.589 0 0 1 6.059-3.458c11.024-5.717 23.403-9.108 35.796-9.806l.154-.007c.069-.004.137-.008.207-.01a63.664 63.664 0 0 1 2.276-.091 87.277 87.277 0 0 1 35.365 6.425 88.245 88.245 0 0 1 11.811 5.845c.399.232.81.482 1.214.736a88.02 88.02 0 0 1 31.687 33.579 88.704 88.704 0 0 1 10.424 43.829 1.285 1.285 0 0 1-1.308 1.247 1.279 1.279 0 0 1-1.247-1.31c.731-30.49-14.942-59.295-40.903-75.173a39.869 39.869 0 0 0-1.166-.707 85.541 85.541 0 0 0-11.473-5.678 84.736 84.736 0 0 0-34.341-6.238c-.691.014-1.418.044-2.231.089l-.163.008-.193.01c-12.005.675-24.026 3.968-34.733 9.52a83.652 83.652 0 0 0-5.882 3.358c-12.245 7.625-22.446 18.367-29.504 31.066a85.67 85.67 0 0 0-9.424 26.292 85.239 85.239 0 0 0-1.342 17.455 1.279 1.279 0 0 1-1.244 1.31h-.034z"/></g><g><path fill="#371a45" d="M2.402 247.745c-.69 0-1.258-.55-1.277-1.244a87.805 87.805 0 0 1 1.383-17.98 88.193 88.193 0 0 1 9.705-27.075c7.268-13.077 17.774-24.14 30.384-31.993a86.589 86.589 0 0 1 6.059-3.458c11.024-5.717 23.403-9.108 35.796-9.806l.154-.007c.069-.004.137-.008.207-.01a63.664 63.664 0 0 1 2.276-.091 87.277 87.277 0 0 1 35.365 6.425 88.245 88.245 0 0 1 11.811 5.845c.399.232.81.482 1.214.736a88.02 88.02 0 0 1 31.687 33.579 88.704 88.704 0 0 1 10.424 43.829 1.285 1.285 0 0 1-1.308 1.247 1.279 1.279 0 0 1-1.247-1.31c.731-30.49-14.942-59.295-40.903-75.173a39.869 39.869 0 0 0-1.166-.707 85.541 85.541 0 0 0-11.473-5.678 84.736 84.736 0 0 0-34.341-6.238c-.691.014-1.418.044-2.231.089l-.163.008-.193.01c-12.005.675-24.026 3.968-34.733 9.52a83.652 83.652 0 0 0-5.882 3.358c-12.245 7.625-22.446 18.367-29.504 31.066a85.67 85.67 0 0 0-9.424 26.292 85.239 85.239 0 0 0-1.342 17.455 1.279 1.279 0 0 1-1.244 1.31h-.034z"/></g><g><path fill="#ddd" d="M180.51 7.114L161.3 83.263l-5.552 22.009-14.438 57.226-3.719 14.745-4.635-1.17 4.808-19.06 13.34-52.87 5.347-21.2 19.424-76.998a2.392 2.392 0 0 1 2.901-1.731 2.389 2.389 0 0 1 1.734 2.9z"/></g><g opacity=".26"><g opacity=".26"><path fill="#371a45" d="M141.31 162.498l-3.718 14.745-4.635-1.17 4.807-19.06c.68 2.016 1.78 4.04 3.546 5.485z"/></g></g><g opacity=".25"><g opacity=".25"><path fill="#371a45" d="M161.3 83.263l-5.552 22.009c-1.856.095-3.39-.367-4.644-1.128l5.347-21.2z"/></g></g><g><path fill="#371a45" d="M138.518 178.795l-7.112-1.794 43.23-171.368a3.67 3.67 0 0 1 4.453-2.658c.95.239 1.75.834 2.252 1.675.503.841.647 1.828.407 2.777zm-4.01-3.647l2.156.544 42.607-168.89a1.106 1.106 0 0 0-.124-.841 1.102 1.102 0 0 0-.682-.509 1.115 1.115 0 0 0-1.351.806z"/></g><g><path fill="#fff" d="M161.45 73.296c0 .17-.01.345-.035.53-.502 4.349-6.724 12.909-6.724 12.909s-4.606 1.638-6.66.332c-.818-.52-1.367-3.896-1.48-7.145-.09-2.655.116-5.227.713-6.083 1.719-2.461 14.183-3.187 14.186-.542z"/></g><g opacity=".25"><g opacity=".25"><path fill="#371a45" d="M161.415 73.827c-.501 4.348-6.724 12.908-6.724 12.908s-4.606 1.639-6.66.333c-.818-.521-1.367-3.897-1.48-7.146.895 1.076 1.937 1.824 2.84 1.14 1.936-1.463.189-5.92 4.6-7.855 1.4-.616 4.706-.035 7.424.62z"/></g></g><g><path fill="#371a45" d="M147.344 88.145c-.72-.458-1.184-1.434-1.549-3.265-.589-2.948-.974-9.773.42-11.77 1.916-2.745 10.948-3.282 14.205-2.26 2.005.63 2.305 1.803 2.306 2.446.005 4.425-6.286 13.203-7.004 14.19l-.232.32-.372.131c-.576.205-2.728.918-4.829.918-1.066 0-2.118-.184-2.945-.71zm6.548-2.49c1.911-2.684 6.094-9.143 6.273-12.16-.54-.342-2.604-.78-5.943-.512-3.47.28-5.579 1.113-5.91 1.59-.882 1.282-.497 10.014.486 11.464 1.02.545 3.481.128 5.094-.383z"/></g><g><path fill="#fff" d="M168.778 91.376c-2.482 6.363-7.456 7.752-9.081 7.752-2.355 0-3.271-.97-7.74-2.03-4.466-1.065-.256-18.145 1.022-20.62 1.286-2.489 5.42-4.364 7.783-4.769.317-.055.601-.083.844-.083 2.054 0 8.315 5.752 8.484 7.87.412 5.175-.2 9.027-1.313 11.88z"/></g><g opacity=".25"><g opacity=".25"><path fill="#371a45" d="M168.778 91.376c-2.482 6.363-7.456 7.752-9.081 7.752-2.355 0-3.271-.97-7.74-2.03-4.466-1.065-.256-18.145 1.022-20.62 1.286-2.489 5.42-4.364 7.783-4.769-1.07 2.242-3.12 7.276-4.155 14.69-1.252 8.976 6.781 8.075 12.17 4.977z"/></g></g><g><path fill="#371a45" d="M155.792 99.576c-.993-.35-2.23-.785-4.13-1.236-.686-.163-1.635-.644-2.262-2.011-2.237-4.873 1.404-18.422 2.445-20.437 1.749-3.385 7.394-5.545 9.762-5.545 2.787 0 9.535 6.257 9.757 9.047.763 9.56-1.95 14.679-4.36 17.288-2.715 2.942-5.871 3.727-7.308 3.727-1.536 0-2.581-.368-3.904-.833zm-1.677-22.511c-1.017 1.969-4.087 14.508-2.393 18.198.239.522.459.573.53.59 2.03.483 3.338.943 4.388 1.312 1.262.444 1.956.688 3.056.688.765 0 3.23-.522 5.43-2.904 2.96-3.205 4.236-8.513 3.69-15.35-.171-1.48-5.7-6.61-7.214-6.697-1.754 0-6.331 1.927-7.487 4.163zm14.702 2.533"/></g><g><path fill="#fff" d="M23.437 66.84s-4.76 8.383-12.122 8.383c-3.674.003-7.36-3.635-8.778-7.21-.486-1.226-.706-2.446-.566-3.51.24-1.834 2.243-3.744 4.702-5.44 4.325-2.98 10.059-5.284 10.059-5.284z"/></g><g opacity=".25"><g opacity=".25"><path fill="#371a45" d="M23.437 66.84s-4.76 8.383-12.122 8.383c-3.674.003-7.36-3.635-8.778-7.21.856.173 1.974.016 3.047-1.271 4.085-4.903 1.089-7.68 1.089-7.68 4.325-2.98 10.059-5.283 10.059-5.283z"/></g></g><g><path fill="#371a45" d="M11.313 76.501c-2.528 0-5.236-1.434-7.43-3.934-2.286-2.605-3.505-5.76-3.18-8.232.725-5.52 13.082-10.75 15.55-11.74a1.277 1.277 0 1 1 .954 2.37c-5.182 2.083-13.558 6.56-13.97 9.703-.225 1.71.807 4.208 2.567 6.214 1.683 1.918 3.743 3.063 5.509 3.063 6.52-.001 10.969-7.66 11.014-7.736a1.278 1.278 0 0 1 2.22 1.263c-.208.369-5.217 9.028-13.232 9.03z"/></g><g><path fill="#371a45" d="M16.364 72.823a.64.64 0 0 1-.614-.818c.23-.784.137-1.508-.282-2.211-1.655-2.78-7.562-4.08-7.621-4.093a.638.638 0 0 1 .23-1.256c5.716.868 8.637-3.901 8.758-4.105a.64.64 0 0 1 1.099.652c-.027.045-2.167 3.573-6.297 4.573 1.856.757 3.944 1.924 4.928 3.573.603 1.012.742 2.097.412 3.225a.638.638 0 0 1-.613.46z"/></g><g><path fill="#fff" d="M85.547 94.612a25.938 25.938 0 0 1-5.973 4.456 25.43 25.43 0 0 1-12.193 3.124c-1.747 0-3.443-.077-5.082-.224-23.555-2.073-36.227-18.035-38.945-19.45-2.904-1.514-18.01-1.619-16.86-8.672.09-.544.397-1.087.853-1.623 2.626-3.086 10.193-6.018 9.813-7.727-.61-2.75-8.42-10.005-9.941-13.266-3.133-6.73 1.677-11.608 4.383-8.34 4.565 5.51 9.803 8.321 18.06 14.8 2.729 2.14 9.175 6.608 12.388 8.601 4.35 2.7 8.532 4.817 12.867 6.335 6.682 2.341 13.723 3.257 22.286 2.676.285-.019.572-.04.863-.064 16.054-1.26 15.869 10.97 7.48 19.374z"/></g><g opacity=".25"><g opacity=".25"><path fill="#371a45" d="M79.573 99.068a25.43 25.43 0 0 1-12.193 3.124c-1.747 0-3.443-.077-5.082-.224-23.555-2.073-36.226-18.035-38.945-19.45C20.45 81.004 5.344 80.9 6.494 73.846c.09-.544.396-1.087.853-1.623.191 1.1 1.054 2.274 3.507 3C16.49 76.89 24.66 76.8 27.106 78.128c3.233 1.754 15.257 16.04 30.366 16.04 9.921 0 13.416-7.965 13.416-7.965z"/></g></g><g><path fill="#371a45" d="M62.184 103.242c-19.527-1.72-31.823-12.853-37.073-17.607-1.018-.92-1.979-1.791-2.347-1.983-.611-.318-2.371-.641-4.073-.954-5.774-1.06-14.501-2.663-13.458-9.057.418-2.57 3.782-4.626 7.036-6.615 1.251-.765 3.093-1.892 3.575-2.475-.488-1.285-2.86-4.022-4.788-6.247-2.169-2.502-4.217-4.865-4.995-6.533-2.246-4.825-.88-9.058 1.546-10.591 1.689-1.068 3.644-.717 4.979.896 3.024 3.65 6.306 6.04 10.848 9.35 2.061 1.5 4.397 3.203 7.017 5.259 2.639 2.07 9.062 6.53 12.272 8.52 4.476 2.778 8.603 4.81 12.616 6.215 6.665 2.336 13.585 3.165 21.778 2.608.26-.017.522-.037.787-.058l.063-.005c9.4-.738 12.614 3.075 13.693 5.413 2.061 4.466-.032 10.95-5.209 16.137-5.044 5.056-11.995 7.956-19.07 7.956-1.756 0-3.504-.077-5.197-.23zM8.972 43.339c-1.289.815-2.325 3.635-.595 7.352.627 1.343 2.652 3.68 4.61 5.94 3.125 3.603 5.049 5.913 5.42 7.588.402 1.803-1.669 3.07-4.805 4.987-2.237 1.367-5.617 3.434-5.847 4.845-.59 3.62 5.307 5.015 11.398 6.134 2.146.393 3.84.705 4.791 1.2.659.343 1.496 1.101 2.882 2.356 5.06 4.582 16.91 15.311 35.585 16.954a55.92 55.92 0 0 0 4.97.22c6.401 0 12.692-2.627 17.261-7.206 4.425-4.433 6.313-9.762 4.698-13.26-1.382-2.997-5.351-4.394-11.174-3.937l-.066.005c-.273.021-.543.042-.811.06-8.55.58-15.793-.292-22.795-2.746-4.191-1.467-8.482-3.578-13.118-6.455-3.331-2.065-9.758-6.528-12.503-8.682-2.584-2.027-4.9-3.714-6.943-5.203-4.517-3.29-8.084-5.889-11.312-9.786-.32-.387-.649-.579-.995-.579-.21 0-.427.071-.651.213z"/></g><g><path fill="#371a45" d="M43.464 98.144a1.276 1.276 0 0 1-.84-2.242c8.12-7.054 6.59-24.766 6.574-24.944a1.277 1.277 0 0 1 2.544-.235c.073.78 1.67 19.193-7.441 27.108a1.27 1.27 0 0 1-.837.313z"/></g><g><path fill="#fff" d="M108.204 134.502c-13.097 2.15-50.93 4.846-52.511-1.632-.473-1.949 1.798-16.096 6.606-30.902 1.587-4.878 3.446-9.829 5.574-14.435 1.418-3.073 2.954-5.992 4.609-8.64.58-.93 2.287-2.195 4.72-3.59 12.922-7.418 46.41-18.473 41.588-1.889a40.184 40.184 0 0 0-1.25 6.034 52.173 52.173 0 0 0-.433 7.067c.015 7.052 1.207 14.08 2.184 20.504 2.12 13.99 3.214 25.135-11.087 27.483z"/></g><g><path fill="#371a45" d="M118.21 94.594a193.08 193.08 0 0 1 3.131 17.693c.194 1.501.343 3.02.441 4.55.103 1.53.122 3.083.025 4.652-.101 1.566-.325 3.157-.8 4.725-.471 1.563-1.22 3.103-2.285 4.424-1.056 1.328-2.413 2.398-3.865 3.176-1.454.781-2.991 1.32-4.534 1.697-.386.1-.774.161-1.161.242-.387.077-.778.158-1.148.212-.751.12-1.501.232-2.25.336a172.54 172.54 0 0 1-4.491.56c-2.995.335-5.99.61-8.99.837-3 .231-6.005.406-9.014.51-3.01.108-6.024.161-9.045.124-3.021-.04-6.049-.155-9.093-.474-1.522-.165-3.048-.375-4.586-.717a19.862 19.862 0 0 1-2.321-.654c-.778-.284-1.57-.619-2.36-1.2a4.359 4.359 0 0 1-1.106-1.204c-.075-.137-.151-.27-.213-.417a7.577 7.577 0 0 1-.154-.462 5.842 5.842 0 0 1-.076-.47l-.019-.362c-.021-.903.061-1.645.138-2.426.164-1.537.396-3.035.653-4.528.516-2.984 1.14-5.935 1.829-8.87.694-2.933 1.444-5.852 2.303-8.74 1.713-5.776 3.783-11.464 6.462-16.87a.64.64 0 0 1 1.18.49l-.001.001a292.078 292.078 0 0 0-5.234 17.062c-1.562 5.732-2.95 11.53-3.929 17.368a69.732 69.732 0 0 0-.603 4.36c-.069.707-.133 1.46-.112 2.053l.01.2c.008.026.01.055.011.082a.16.16 0 0 1 .025.07c.012.025.035.052.045.08.075.117.216.273.418.426.417.306 1.012.58 1.639.798.632.221 1.31.397 2.001.548 1.386.3 2.831.493 4.284.64 2.911.29 5.873.386 8.835.407 2.964.018 5.936-.052 8.907-.177 5.941-.268 11.891-.669 17.802-1.316 1.478-.16 2.952-.339 4.419-.537a117.9 117.9 0 0 0 2.192-.319c.37-.054.711-.125 1.058-.193.345-.073.698-.126 1.037-.212 2.709-.666 5.279-1.823 6.912-3.867 1.667-2.013 2.36-4.77 2.553-7.595.203-2.838-.041-5.776-.377-8.708-.335-2.936-.824-5.883-1.207-8.856-.371-2.976-.651-5.986-.607-9.018a.642.642 0 0 1 1.271-.13z"/></g><g><path fill="#fff" d="M84.44 61.757a20.402 20.402 0 0 0-.488-.45l.527.31z"/></g><g><path fill="#fff" d="M51.175 60.84c23.351 52.827 97.858 23.023 80.975-29.977C109.53-23.782 32.544 7.098 51.175 60.84z"/></g><g><path fill="#fff" d="M51.175 60.84c23.351 52.827 97.858 23.023 80.975-29.977C109.53-23.782 32.544 7.098 51.175 60.84z"/></g><g opacity=".25"><g opacity=".25"><path fill="#371a45" d="M122.422 81.966a42.85 42.85 0 0 1-5.315 4.549 42.731 42.731 0 0 1-3.3 2.179c-8.42 5.03-18.49 7.272-28.26 5.918a39.252 39.252 0 0 1-17.674-7.078c-4.942-3.568-9.385-8.487-12.956-14.908 6.682 2.34 13.722 3.258 22.286 2.677 12.92-7.418 46.41-18.473 41.587-1.888a40.159 40.159 0 0 0-1.25 6.034 57.306 57.306 0 0 0 4.882 2.517z"/></g></g><g><path fill="#fff" d="M51.175 60.84c23.351 52.827 97.858 23.023 80.975-29.977C109.53-23.782 32.544 7.098 51.175 60.84z"/></g><g><path fill="#371a45" d="M75.622 86.705c-11.037-4.235-19.778-13.052-25.28-25.498l-.027-.07c-4.427-12.77-3.835-25.169 1.714-35.856 4.95-9.534 13.489-16.994 24.042-21.003 10.53-4 21.79-4.054 31.7-.149 11.178 4.403 19.899 13.527 25.222 26.385l.026.073c4.017 12.612 3.2 24.811-2.363 35.275-4.975 9.36-13.423 16.677-23.787 20.605-5.278 2-10.755 3.002-16.156 3.002-5.18 0-10.29-.92-15.091-2.764zm30.6-1.942c18.103-6.86 33.665-26.553 25.073-53.587C119.99 3.914 95.083-.996 76.718 5.981 58.172 13.027 42.54 33.093 52.024 60.505c11.733 26.5 35.67 31.28 54.199 24.258z"/></g><g opacity=".25"><g opacity=".25"><path fill="#371a45" d="M51.175 60.838c19.376 45.98 84.418 30.714 83.445-17.232-4.693 14.918-10.041 14.889-19.035 21.684-27.803 22.504-64.306-.951-65.463-32.389-2.81 9.307-2.322 19.14 1.054 27.937z"/></g></g><g><path fill="#293856" d="M75.49 87.049c-11.13-4.271-19.942-13.155-25.484-25.693l-.038-.098c-4.46-12.868-3.86-25.367 1.735-36.145 4.992-9.615 13.6-17.136 24.237-21.177C86.557-.098 97.91-.15 107.906 3.788c11.271 4.44 20.063 13.634 25.425 26.587l.037.1c4.048 12.71 3.222 25.006-2.388 35.56-5.018 9.438-13.535 16.816-23.982 20.775-5.32 2.017-10.84 3.026-16.286 3.026-5.223 0-10.377-.928-15.222-2.787zm30.603-2.628c17.942-6.8 33.366-26.32 24.856-53.118C119.735 4.279 95.05-.591 76.85 6.325 58.465 13.308 42.971 33.198 52.364 60.37 64.003 86.64 87.73 91.38 106.093 84.42z"/></g><g><path fill="#371a45" d="M75.49 87.049c-11.13-4.271-19.942-13.155-25.484-25.693l-.038-.098c-4.46-12.868-3.86-25.367 1.735-36.145 4.992-9.615 13.6-17.136 24.237-21.177C86.557-.098 97.91-.15 107.906 3.788c11.271 4.44 20.063 13.634 25.425 26.587l.037.1c4.048 12.71 3.222 25.006-2.388 35.56-5.018 9.438-13.535 16.816-23.982 20.775-5.32 2.017-10.84 3.026-16.286 3.026-5.223 0-10.377-.928-15.222-2.787zm30.603-2.628c17.942-6.8 33.366-26.32 24.856-53.118C119.735 4.279 95.05-.591 76.85 6.325 58.465 13.308 42.971 33.198 52.364 60.37 64.003 86.64 87.73 91.38 106.093 84.42z"/></g><g><path fill="#371a45" d="M56.43 70.576c38.44 33.075 83.932-10.544 56.543-45.49-33.056-37.277-84.767 2.31-56.543 45.49z"/></g><g><path fill="#21102b" d="M50.24 38.954c-8.28 45.08 55.566 60.41 69.898 20.437-25.027 20.576-61.722 3.562-69.899-20.437z"/></g><g><path fill="#371a45" d="M70.932 84.663c-9.158-4.242-16.398-12.311-20.938-23.337l-.004-.01c-7.377-18.309-.786-44.818 20.783-55.098l.203-.077c11.27-3.178 23.897-1.265 34.65 5.247 10.713 6.489 18.226 16.729 20.61 28.095 2.025 11.066-.017 21.536-5.899 30.309-5.332 7.952-13.412 13.842-22.753 16.587a39.776 39.776 0 0 1-11.213 1.631c-5.37 0-10.636-1.123-15.439-3.347zm25.932-.736c16.462-4.837 30.976-21.488 26.864-43.951-2.233-10.644-9.316-20.279-19.427-26.403-10.115-6.126-21.964-7.947-32.526-5.002C51.582 18.266 45.43 43.15 52.358 60.356c9.938 24.13 30.186 27.779 44.506 23.571z"/></g><g><path fill="#371a45" d="M55.596 71.544l-.137-.118-.099-.152c-6.799-10.4-9.52-21.372-7.873-31.727 1.476-9.272 6.393-17.512 13.844-23.202 7.282-5.56 16.26-8.117 25.28-7.195 10.025 1.024 19.472 6.242 27.317 15.09l.05.058c6.412 8.181 9.344 17.377 8.48 26.593-.784 8.344-4.687 16.256-10.99 22.277a37.643 37.643 0 0 1-26.074 10.445c-10.323 0-20.608-4.16-29.798-12.069zm54.106-.223c10.776-10.295 15.658-28.327 2.288-45.416C95.53 7.37 75.468 8.765 62.882 18.376c-12.515 9.557-19.547 29.687-5.482 51.35 19.67 16.823 40.43 12.936 52.302 1.595z"/></g><g><path fill="#fff" d="M138.093 62.711c-6.277 19.375-26.224 14.714-22.095-4.387 5.834-20.548 27.156-15.568 22.095 4.387z"/></g><g opacity=".35"><g opacity=".35"><path fill="#371a45" d="M122.92 74.964c-5.99-1.353-9.136-9.474-6.652-17.63 2.32 9.38 13.945-3.484 15.289-7.507 14.86 6.545 2.31 27.859-8.637 25.137z"/></g></g><g><path fill="#371a45" d="M122.38 76.075c-5.422-1.46-9.884-7.598-7.63-18.021l.02-.078c3.181-11.21 11.02-15.416 17.121-13.777 5.508 1.48 10.186 8.003 7.441 18.826l-.023.08c-3.059 9.439-9.103 13.312-14.312 13.312a10.05 10.05 0 0 1-2.618-.342zm.664-2.468c4.501 1.214 10.742-1.792 13.821-11.25 2.298-9.122-1.308-14.527-5.637-15.69-4.884-1.314-11.253 2.377-13.99 11.967-1.879 8.757 1.56 13.83 5.806 14.973zm15.05-10.896h.003"/></g><g><path fill="#fff" d="M138.687 63.95c-5.104 15.695-20.105 12.456-16.769-2.993 4.703-16.86 21.002-13.322 16.769 2.993z"/></g><g><path fill="#371a45" d="M126.392 75.27c-4.173-1.126-7.56-6.07-5.723-14.583l.018-.073c2.628-9.422 8.885-13.037 13.707-11.74 4.288 1.154 7.847 6.465 5.53 15.397l-.022.074c-2.574 7.917-7.454 11.178-11.574 11.178-.67 0-1.32-.086-1.936-.253zm.665-2.467c3.275.884 7.923-1.623 10.403-9.21 1.862-7.226-.625-11.415-3.73-12.25-3.6-.972-8.385 2.128-10.57 9.92-1.469 6.85.897 10.73 3.897 11.54zm11.63-8.853h.004"/></g><g opacity=".5"><g opacity=".5"><path fill="#fff" d="M113.58 49.012c-3.66 7.754-12.537 3.731-10.503-3.505 3.08-8.98 13.619-4.409 10.503 3.505z"/></g></g><g opacity=".5"><g opacity=".5"><path fill="#fff" d="M106.499 60.963c-1.571 2.884-5.487 1.2-4.071-2.092 1.57-2.884 5.487-1.2 4.07 2.092z"/></g></g><g opacity=".5"><g opacity=".5"><path fill="#fff" d="M55.347 42.317c-.286-30.93 31.56-29.857 40.004-21.954-20.231-1.819-31.063 9.123-40.004 21.954z"/></g></g><g opacity=".25"><g opacity=".25"><path fill="#371a45" d="M120.522 64.478c.073-2.32.783-4.629 1.929-6.66 1.128 11.352 12.856 8.302 16.649.894-.162 16.497-17.744 21.402-18.578 5.766z"/></g></g><g><path fill="#fff" d="M135.825 183.653c-6.296.987-17.361-1.58-21.357-10.713 0 0-4.641-16.237-15.381-26.849-7.928-7.832-25.152-9.63-28.86-4.274-3.581 5.17 3.74 19.182-.709 26.647-1.77 2.964-12.608 8.133-27.328 5.967-6.149-.907-7.062-5.466-6.433-8.497.051-.249.112-.489.182-.712 1.802-5.807 9.896-7.127 9.896-7.127S35.313 142.827 39.3 130.19c3.338-10.57 11.79-14.559 18.584-14.617 3.102-.025 5.858.767 7.628 2.127l33.365-6.03 20.488-3.706c.335 3.351.782 6.484 1.338 9.494.537 2.92 1.176 5.72 1.92 8.493 3.063 11.397 7.887 22.274 14.556 38.536 5.884 3.696 9.091 7.15 9.922 10.104 1.246 4.434-2.853 7.743-11.276 9.062z"/></g><g opacity=".26"><g opacity=".26"><path fill="#371a45" d="M135.825 183.653c-6.296.987-17.361-1.58-21.357-10.713 0 0-4.641-16.237-15.381-26.849-7.928-7.832-25.152-9.63-28.86-4.274-3.581 5.17 3.74 19.182-.709 26.647-1.77 2.964-12.608 8.133-27.328 5.967-6.149-.907-7.062-5.466-6.433-8.497 1.821 1.16 5.325 2.173 12.052 1.955 14.624-.469 19.358-4.654 17.103-15.808-2.102-10.388-1.511-17.627 2.542-21.01l-.76-.092c-.006-.003-.01-.003-.016-.003l-.371-.045a4.944 4.944 0 0 1-.546-.096c-.073-.015-.147-.038-.217-.057-.086-.026-.172-.045-.255-.07h.009c-2.498-.789-4.178-3.278-3.856-5.97l.138-1.148c0-.737.019-1.472.061-2.21a4.933 4.933 0 0 1-2.732-1.686 4.947 4.947 0 0 1-1.124-3.345c.01-.182.029-.364.054-.54.007-.038.016-.073.023-.108.006-.042.016-.087.022-.128 3.102-.025 5.858.767 7.628 2.127l33.365-6.03c.13.188.249.383.354.584.022.042.038.083.058.121.057.112.108.224.156.342.022.055.042.11.064.163.038.106.073.211.109.316.019.064.035.125.051.186a5.3 5.3 0 0 1 .076.32c.013.063.026.124.036.191.019.108.035.22.044.332.007.064.016.124.019.185.01.125.013.252.013.377 0 .051.003.102.003.15a5.157 5.157 0 0 1-.038.54l-.281 2.361c2.805.514 14.103 2.32 21.162-.38.537 2.92 1.176 5.72 1.92 8.493-.326.304-.569.438-.569.438s-9.292 3.977-23.554.134l-.317 2.623c-.048.405-.14.792-.271 1.162-.003.007-.007.013-.007.02a6.5 6.5 0 0 1-.21.513l-.029.058c-.077.153-.157.3-.243.447l-.009.02c-.026.038-.052.073-.074.111a6.441 6.441 0 0 1-.412.563c-.054.063-.109.124-.163.185-.054.057-.108.115-.166.172-.051.051-.105.106-.16.157a4.757 4.757 0 0 1-.306.265l-.042.038c-.038.03-.077.051-.112.08a5.304 5.304 0 0 1-.418.284c-.083.052-.169.1-.256.147-.054.03-.105.061-.163.087a4.582 4.582 0 0 1-.396.182c-.057.025-.118.044-.175.067l-.144.048c3.434 1.44 6.369 3.156 8.158 5.031 9.89 10.37 12.202 24.497 18.307 34.387 3.197 5.177 19.127 6.838 26.209 1.421 1.246 4.434-2.853 7.743-11.276 9.062z"/></g></g><g><path fill="#371a45" d="M133.101 185.132c-6.874 0-16.115-3.252-19.805-11.681l-.058-.16c-.045-.16-4.681-16.047-15.048-26.29-5.31-5.245-14.766-7.46-20.964-6.886-2.942.274-5.055 1.137-5.95 2.43-1.385 1.998-.699 6.169.028 10.584.897 5.449 1.913 11.625-.69 15.99-2.122 3.56-13.496 8.8-28.609 6.575-3.756-.553-5.61-2.361-6.503-3.78-1.852-2.943-1.068-6.157-.784-7.072 1.464-4.71 6.364-6.772 9.077-7.57-2.6-4.292-9.132-16.634-5.712-27.467 3.107-9.843 10.065-13.356 13.936-14.574 5.253-1.654 10.989-1.068 14.273 1.457a1.277 1.277 0 0 1-1.558 2.026c-2.611-2.007-7.524-2.437-11.948-1.045-3.397 1.068-9.508 4.166-12.266 12.905-3.752 11.886 6.266 26.648 6.368 26.796l1.142 1.66-1.989.326c-.071.012-7.338 1.274-8.883 6.244-.417 1.343-.503 3.348.507 4.952.883 1.404 2.469 2.284 4.713 2.614 14.547 2.142 24.654-3.028 26.041-5.354 2.125-3.565 1.229-9.006.364-14.268-.814-4.94-1.582-9.606.392-12.455 1.352-1.951 4.054-3.168 7.814-3.518 6.773-.631 17.136 1.824 22.997 7.613 10.564 10.437 15.263 25.878 15.684 27.318 3.69 8.3 14.078 10.813 19.956 9.89 6.041-.948 9.812-2.982 10.347-5.582.611-2.975-2.841-7.072-9.474-11.24l-.347-.218-.155-.38c-1.084-2.643-2.12-5.144-3.107-7.528-8.1-19.573-12.989-31.386-14.797-49.352a1.277 1.277 0 1 1 2.542-.256c1.771 17.592 6.606 29.275 14.617 48.63.94 2.273 1.925 4.653 2.954 7.16 9.549 6.093 10.864 10.806 10.27 13.699-.547 2.658-3.151 6.133-12.454 7.592-.901.14-1.885.215-2.921.215z"/></g><g><path fill="#fff" d="M56.508 112.197a4.947 4.947 0 1 0 9.885.415 4.947 4.947 0 0 0-9.885-.415z"/></g><g opacity=".26"><g opacity=".26"><path fill="#371a45" d="M56.51 112.197a4.947 4.947 0 1 0 9.498-1.718 4.945 4.945 0 1 1-8.935-.375 4.899 4.899 0 0 0-.564 2.093z"/></g></g><g><path fill="#371a45" d="M61.2 118.354a5.914 5.914 0 0 1-4.133-1.919 5.913 5.913 0 0 1-1.566-4.28 5.962 5.962 0 0 1 6.2-5.7 5.961 5.961 0 0 1 5.698 6.2 5.914 5.914 0 0 1-1.919 4.133 5.91 5.91 0 0 1-4.28 1.566zm-3.684-6.115a3.916 3.916 0 0 0 1.035 2.832 3.918 3.918 0 0 0 2.734 1.27 3.92 3.92 0 0 0 2.832-1.037 3.913 3.913 0 0 0 1.268-2.734 3.943 3.943 0 0 0-3.936-4.104 3.943 3.943 0 0 0-3.933 3.773zm-1.008-.042h.004"/></g><g opacity=".35"><g opacity=".35"><path fill="#371a45" d="M60.932 116.897A75.93 75.93 0 0 0 62.74 101.7a76.785 76.785 0 0 1-1.369 8.244c-.743 3.348-1.142 6.871-1.064 10.361.166-1.148.378-2.287.625-3.407z"/></g></g><g><path fill="#fff" d="M65.032 126.778l25.682 3.081c3.039.365 5.827-1.824 6.193-4.867l1.639-13.667c.32-2.664-1.32-5.13-3.775-5.948a5.366 5.366 0 0 0-1.092-.245L68 102.052c-3.044-.366-5.831 1.823-6.193 4.866l-1.301 10.824-.342 2.843c-.366 3.043 1.827 5.827 4.867 6.193z"/></g><g opacity=".26"><g opacity=".26"><path fill="#371a45" d="M65.031 126.778l25.682 3.081c3.04.365 5.827-1.824 6.193-4.867l1.64-13.667c.32-2.664-1.32-5.13-3.776-5.948-1.575.793-2.575 1.302-2.575 1.302-2.567 10.82-6.347 15.915-19.996 14.504-5.892-.61-9.496-1.953-11.693-3.44l-.342 2.842c-.366 3.043 1.827 5.827 4.867 6.193z"/></g></g><g><path fill="#371a45" d="M90.207 130.815l-24.91-2.99a6.972 6.972 0 0 1-6.087-7.743l1.548-12.9a6.916 6.916 0 0 1 2.616-4.641 6.915 6.915 0 0 1 5.13-1.445l24.91 2.989a6.913 6.913 0 0 1 4.641 2.617 6.914 6.914 0 0 1 1.444 5.128l-1.547 12.9c-.424 3.533-3.438 6.136-6.91 6.136-.276 0-.555-.017-.835-.051zm.24-2.001a4.953 4.953 0 0 0 5.503-4.324l1.548-12.9a4.91 4.91 0 0 0-1.028-3.643 4.91 4.91 0 0 0-3.296-1.86l-24.91-2.99a4.908 4.908 0 0 0-3.644 1.029 4.908 4.908 0 0 0-1.86 3.296l-1.548 12.9a4.954 4.954 0 0 0 4.324 5.503z"/></g><g><path fill="#fff" d="M64.013 126.554c.324.109.663.184 1.019.225l25.682 3.08a5.58 5.58 0 0 0 6.189-4.867l.73-6.071.242-2.003.67-5.592c.366-3.043-1.827-5.828-4.866-6.193l-5.55-.665c2.5.789 4.178 3.277 3.856 5.969l-.883 7.383-.756 6.288c-.365 3.039-3.153 5.232-6.193 4.866z"/></g><g opacity=".35"><g opacity=".35"><path fill="#371a45" d="M64.013 126.554c.324.109.663.184 1.019.225l25.682 3.08c3.039.366 5.827-1.823 6.189-4.867l.972-8.074c-.817 1.349-2.188 2.96-4.067 2.922-1.031-.02-1.946-.872-2.706-2.02l-.756 6.288c-.365 3.039-3.153 5.232-6.193 4.866z"/></g></g><g><path fill="#371a45" d="M90.593 130.86l-25.682-3.081a6.085 6.085 0 0 1-1.214-.266l.434-1.958 20.142 2.418a4.522 4.522 0 0 0 3.356-.947 4.522 4.522 0 0 0 1.714-3.038l1.64-13.67a4.567 4.567 0 0 0-3.157-4.891l.424-1.961 5.547.664c3.603.434 6.181 3.717 5.747 7.316l-1.639 13.667a6.53 6.53 0 0 1-2.47 4.385 6.532 6.532 0 0 1-4.842 1.363zm.24-2a4.53 4.53 0 0 0 3.356-.947 4.526 4.526 0 0 0 1.714-3.04l1.64-13.667a4.567 4.567 0 0 0-3.986-5.074l-1.779-.214a6.562 6.562 0 0 1 1.206 4.64l-1.639 13.669a6.532 6.532 0 0 1-2.47 4.384l-.016.012z"/></g><g><path fill="#22a7f0" d="M81.025 116.168c-.058.505.187 4.67.187 4.67s1.294.147 2.882.33c1.985.225 3.828-1.646 4.117-4.18.288-2.534-1.086-4.772-3.07-4.998l-2.88-.329s-1.142 3.683-1.236 4.507z"/></g><g><path fill="#127ddd" d="M81.025 116.168c-.058.505.187 4.67.187 4.67s1.294.147 2.882.33c1.985.225 3.828-1.646 4.117-4.18.288-2.534-1.086-4.772-3.07-4.998l-2.88-.329s-1.142 3.683-1.236 4.507z"/></g><g><path fill="#371a45" d="M84.003 121.968l-2.001-.229a1.852 1.852 0 0 1-1.644-1.741c-.188-3.445-.148-3.79-.133-3.922.055-.484.394-1.765 1.008-3.806a1.854 1.854 0 0 1 1.989-1.31l2.012.23c2.422.275 4.117 2.918 3.778 5.89-.32 2.802-2.336 4.912-4.596 4.912a3.6 3.6 0 0 1-.413-.025zm-2.035-2.059a.245.245 0 0 0 .217.228l2 .228c1.545.175 2.986-1.38 3.225-3.468.238-2.089-.82-3.93-2.36-4.106l-2.011-.23a.246.246 0 0 0-.262.172c-.815 2.714-.933 3.382-.95 3.524-.016.19.01 1.257.14 3.652zm-.942-3.74h.004"/></g><g><path fill="#22a7f0" d="M78.144 115.84c-.289 2.533 1.085 4.771 3.07 4.998 1.983.226 3.826-1.645 4.115-4.179.29-2.534-1.085-4.772-3.069-4.998-1.984-.227-3.827 1.644-4.116 4.178z"/></g><g opacity=".7"><g opacity=".7"><path fill="#fff" d="M78.114 116.791c.579-2.044 2.2-3.442 3.93-3.244 1.737.2 3.003 1.932 3.1 4.06.087-.302.149-.619.187-.947.286-2.535-1.088-4.772-3.072-4.998-1.984-.226-3.825 1.642-4.115 4.176a5.676 5.676 0 0 0-.03.953z"/></g></g><g><path fill="#127ddd" d="M81.212 120.837c1.984.228 3.829-1.643 4.119-4.177a5.78 5.78 0 0 0-.052-1.678c-.713 1.662-2.162 2.733-3.691 2.557-1.528-.175-2.695-1.54-3.016-3.318a5.644 5.644 0 0 0-.428 1.617c-.29 2.536 1.084 4.773 3.068 4.999z"/></g><g><path fill="#371a45" d="M81.121 121.639c-2.422-.276-4.117-2.92-3.778-5.891.34-2.971 2.586-5.164 5.01-4.888 2.421.277 4.116 2.92 3.777 5.89-.32 2.804-2.336 4.913-4.596 4.913a3.6 3.6 0 0 1-.413-.024zm.183-1.602c1.543.174 2.985-1.38 3.224-3.468.238-2.09-.82-3.931-2.359-4.107-1.542-.174-2.985 1.38-3.224 3.469-.238 2.088.82 3.93 2.36 4.106z"/></g><g><path fill="#371a45" d="M73.028 128.444a.807.807 0 0 1-.804-.884l.666-6.932a3.998 3.998 0 0 0-1.466-3.497 5.588 5.588 0 0 1-2.045-5.015l1.136-9.752a.807.807 0 0 1 1.602.187l-1.136 9.75a3.986 3.986 0 0 0 1.458 3.578 5.607 5.607 0 0 1 2.057 4.903l-.666 6.933a.808.808 0 0 1-.802.729z"/></g><g><path fill="#fff" d="M120.936 112.617s2.256 2.061 2.16 4.996c-.108 3.394-2.32 4.622-2.32 4.622s-9.593 4.114-24.25-.052c0 0-4-5.83 1.09-8.62 0 0 15.548 3.225 23.32-.946z"/></g><g opacity=".26"><g opacity=".26"><path fill="#371a45" d="M123.096 117.615c-.11 3.39-2.32 4.618-2.32 4.618s-9.591 4.116-24.25-.052c0 0-1.315-1.922-1.475-4.08.063.11.105.167.105.167 10.713 3.048 18.72 1.668 22.252.705 2.454-.669 4.204-2.736 4.314-5.17 0-.034.003-.067.004-.1.002-.058.005-.114-.002-.169.639.877 1.43 2.322 1.372 4.081z"/></g></g><g><path fill="#371a45" d="M96.251 123.152l-.35-.099-.204-.3c-.094-.135-2.257-3.336-1.518-6.435.368-1.543 1.36-2.768 2.952-3.64l.325-.178.363.075c.152.032 15.283 3.102 22.64-.846l.63-.338.526.482c.107.096 2.598 2.412 2.49 5.772-.128 3.921-2.73 5.41-2.84 5.471l-.092.045c-.268.115-4.569 1.907-11.717 1.907-3.694 0-8.15-.479-13.204-1.916zm24.07-1.82c.249-.162 1.687-1.208 1.769-3.752.053-1.679-.824-3.034-1.384-3.724-7.535 3.476-20.466 1.237-22.911.77-.9.565-1.442 1.272-1.654 2.152-.428 1.782.6 3.796 1.035 4.54 13.365 3.69 22.347.332 23.145.014z"/></g><g><path fill="#371a45" d="M104.183 153.358a1.278 1.278 0 1 1 0-2.556c8.292-.001 22.21-1.471 24.259-5.41a1.277 1.277 0 1 1 2.267 1.179c-3.43 6.597-24.172 6.787-26.526 6.787z"/></g><g><path fill="#371a45" d="M69.72 144.058c-.407 0-.807-.194-1.055-.555-7.001-10.206-14.085-14.031-18.796-15.443-5.066-1.518-8.553-.648-8.587-.64-.68.177-1.38-.23-1.56-.91-.18-.68.223-1.376.902-1.558.635-.17 15.716-3.934 30.148 17.106a1.276 1.276 0 0 1-1.052 2z"/></g><g><path fill="#fff" d="M45.835 158.095s5.097 3.162 14.29.68"/></g><g><path fill="#371a45" d="M46.509 157.009c.042.03.178.112.283.169.109.064.234.12.352.182.244.115.493.233.754.33.515.21 1.058.377 1.608.524 1.102.29 2.25.459 3.412.545.582.027 1.167.06 1.754.038.588.007 1.175-.05 1.765-.091.59-.04 1.174-.145 1.765-.215.585-.1 1.169-.221 1.756-.332l.043-.007a.638.638 0 0 1 .29 1.24c-.6.169-1.197.349-1.801.508-.612.128-1.22.292-1.84.389-.621.1-1.242.213-1.873.262-.628.079-1.263.099-1.9.124a20.91 20.91 0 0 1-3.841-.275 15.887 15.887 0 0 1-1.916-.444 11.74 11.74 0 0 1-.953-.322c-.16-.063-.317-.121-.48-.196a5.845 5.845 0 0 1-.525-.257l-.043-.025a1.281 1.281 0 1 1 1.39-2.147z"/></g><g><path fill="#371a45" d="M124.809 168.924a22.755 22.755 0 0 0 3.412-.292 17.904 17.904 0 0 0 3.277-.822c1.036-.381 2.02-.87 2.808-1.516.803-.635 1.376-1.428 1.695-2.3a1.278 1.278 0 1 1 2.356.988 7.649 7.649 0 0 1-1.174 1.778c-.464.532-1.006.967-1.563 1.343-1.122.754-2.343 1.212-3.556 1.538a19.763 19.763 0 0 1-3.664.579 24.29 24.29 0 0 1-3.668-.021.639.639 0 0 1 .047-1.275z"/></g><g opacity=".2"><g opacity=".2"><path fill="#371a45" d="M226.153 56.11s-5.577-4.055-12.592-2.896c-7.526 1.24-13.256 4.61-22.926 3.976-11.923-.785-20.244-14.324-20.244-14.324s8.39-24.568 8.272-34.334c1.475.149 2.886.585 4.25 1.207-.858 9.139-9.136 32.512-2.889 38.036 11.032 9.757 19.068-13.293 20.43-27.295.905.217 1.831.328 2.787.31a13.098 13.098 0 0 0 2.877-.384c-3.46 10.976-7.719 29.598 3.75 28.26 12.998-1.515 11.235-22.68 19.045-34.446.743.116 1.513.27 2.312.47 0 0-5.213 41.163-5.072 41.42z"/></g></g></g></svg>