<svg xmlns="http://www.w3.org/2000/svg" width="152" height="37" viewBox="0 0 152 37"><defs><linearGradient id="emcpa" x1="55.7" x2="129.07" y1="-15.58" y2="45.99" gradientUnits="userSpaceOnUse"><stop offset="0" stop-color="#328b31"/><stop offset="1" stop-color="#96cf24"/></linearGradient><linearGradient id="emcpb" x1="6" x2="29.93" y1="32.49" y2="5.27" gradientUnits="userSpaceOnUse"><stop offset="0" stop-color="#328b31"/><stop offset="1" stop-color="#96cf24"/></linearGradient><linearGradient id="emcpc" x1="9.62" x2="33.55" y1="35.67" y2="8.45" gradientUnits="userSpaceOnUse"><stop offset="0" stop-color="#328b31"/><stop offset="1" stop-color="#96cf24"/></linearGradient><linearGradient id="emcpd" x1="2.31" x2="26.23" y1="29.24" y2="2.02" gradientUnits="userSpaceOnUse"><stop offset="0" stop-color="#328b31"/><stop offset="1" stop-color="#96cf24"/></linearGradient></defs><g><g><path fill="#fff" d="M18.095 35.36c9.207 0 16.661-7.453 16.661-16.514 0-9.208-7.454-16.515-16.661-16.515C8.888 2.185 1.434 9.638 1.434 18.7c0 9.208 7.454 16.661 16.661 16.661z"/></g><g><path fill="url(#emcpa)" d="M52 24.107v.877l-8.622 10.523H52v1.169H41.77v-1.023l8.624-10.523h-8.331v-1.023zm27.915 0v12.569H78.6l-7.747-10.669v10.669h-1.315V24.107h1.315l7.893 10.668V24.107zM57.701 34.921c.73.44 1.753.732 2.63.732s1.754-.292 2.631-.732c.73-.437 1.461-1.023 1.899-1.898a5.473 5.473 0 0 0 .731-2.632c0-.877-.292-1.754-.731-2.629-.438-.732-1.023-1.463-1.899-1.901-.731-.437-1.754-.731-2.631-.731-1.9 0-3.653.877-4.53 2.632a5.44 5.44 0 0 0-.731 2.629c0 .877.291 1.754.731 2.632.438.729 1.023 1.461 1.9 1.898zm-.877-10.083a6.784 6.784 0 0 1 3.361-.877c1.169 0 2.338.292 3.361.877.877.586 1.754 1.315 2.338 2.338.585 1.023.877 2.046.877 3.215s-.292 2.192-.877 3.215c-.584 1.023-1.461 1.755-2.338 2.34-3.069 1.899-7.162.876-9.06-2.34-.585-1.023-.877-2.046-.877-3.215s.292-2.192.877-3.215a6 6 0 0 1 2.338-2.338zm35.514-.877v1.169h-7.162v4.53h6.43v1.171h-6.43v4.676h7.453v1.169h-8.768V23.961zm-17.101-4.676v.146l-.061-.146zM46.593 1.016v14.323h7.745v4.092H41.77V1.016zm15.638 11.399h5.115l-2.485-6.43zm5.261-11.399l7.684 18.269h-5.054l-1.315-3.215h-7.891l-1.317 3.215h-4.967l7.891-18.269zm25.137 0v10.816c0 1.607-.291 3.067-1.023 4.238-.731 1.169-1.754 2.192-2.923 2.775-1.315.732-2.776 1.024-4.384 1.024-1.609 0-3.069-.438-4.384-1.024-1.169-.583-2.192-1.606-2.923-2.775-.732-1.317-1.023-2.631-1.023-4.238V1.016h4.823v10.816c0 1.169.292 2.044 1.023 2.776.73.731 1.607 1.023 2.63 1.023s1.9-.292 2.484-1.023c.585-.732.877-1.607.877-2.776V1.016zm20.314 0v18.415h-4.238l-8.331-10.962v10.962h-4.53V1.162h4.239l8.33 10.962.146-11.108zm38.729 0v18.269h-4.822V12.27h-7.453v7.161h-4.824V1.016h4.824v7.453h7.453V1.016zm-31.568 1.023a9.864 9.864 0 0 1 4.942-1.325c1.4 0 2.805.296 4.12.887 1.315.584 2.484 1.315 3.361 2.338L129.75 7.3c-.584-.729-1.315-1.315-2.047-2.046-.729-.438-1.606-.729-2.483-.729s-1.755.291-2.484.729c-.731.44-1.317 1.169-1.754 1.9-.438.878-.586 1.9-.586 2.778-.146 1.023.148 1.9.586 2.775.437.732 1.023 1.463 1.754 1.901.729.439 1.607.731 2.484.731.731 0 1.608-.292 2.338-.586a8.5 8.5 0 0 0 2.192-1.606l2.777 3.069c-1.023 1.023-2.192 1.899-3.507 2.484-2.777 1.314-6.138 1.314-8.916-.292-1.46-.731-2.629-1.9-3.506-3.361-.878-1.463-1.315-3.069-1.315-4.824 0-3.36 1.752-6.576 4.821-8.184z"/></g><g><path fill="#333" d="M130.042 28.2c0 1.46-.438 2.483-1.315 3.214-.877.731-2.046 1.17-3.653 1.17h-3.069v3.945h-1.754V23.96h4.823c1.607.147 2.776.44 3.653 1.17.877.73 1.315 1.754 1.315 3.07zm-1.607.291c0-.877-.292-1.607-.877-2.046-.585-.438-1.46-.73-2.484-.73h-3.069v5.553h3.07c1.022-.147 1.898-.293 2.483-.73.585-.439.877-1.17.877-2.047z"/></g><g><path fill="#333" d="M137.935 36.676V35.36c-.731.877-1.754 1.462-3.361 1.462-.585 0-1.17-.146-1.754-.438-.44-.293-.877-.585-1.17-1.024a2.81 2.81 0 0 1-.438-1.461c0-.73.293-1.607.877-2.046.585-.438 1.462-.731 2.63-.731h3.07v-.438c0-.731-.146-1.17-.585-1.608-.438-.292-1.023-.584-1.754-.584-1.022 0-1.9.292-2.922 1.023l-.731-1.17c.584-.438 1.169-.73 1.9-1.022.73-.147 1.315-.293 2.046-.293 1.169 0 2.046.293 2.777.877a3.53 3.53 0 0 1 1.023 2.485v6.284zm0-3.361v-.877h-2.777c-.73 0-1.315.146-1.754.292-.292.292-.584.585-.584 1.023 0 .439.146.877.584 1.169.439.292.877.438 1.462.438.877 0 1.46-.146 2.046-.584.585-.292.877-.877 1.023-1.461z"/></g><g><path fill="#333" d="M151.526 23.377v13.299h-1.607v-1.9a3.526 3.526 0 0 1-1.462 1.46c-.584.294-1.315.586-2.046.586-.877 0-1.607-.146-2.338-.585-.731-.438-1.315-1.023-1.608-1.753-.438-.731-.584-1.608-.584-2.485 0-.877.146-1.753.584-2.484.293-.731.877-1.316 1.608-1.754.73-.438 1.608-.585 2.338-.585s1.462.147 2.192.439a3.52 3.52 0 0 1 1.462 1.46v-5.698zm-2.192 10.376c.292-.584.439-1.17.439-1.754 0-.584-.146-1.17-.44-1.753a4.455 4.455 0 0 0-1.168-1.17c-.438-.292-1.023-.438-1.608-.438-.584 0-1.17.146-1.607.438a4.44 4.44 0 0 0-1.17 1.17c-.584 1.023-.584 2.338 0 3.507.293.439.73.877 1.17 1.169a3.164 3.164 0 0 0 3.215 0c.438-.292.877-.73 1.169-1.17z"/></g><g><path fill="url(#emcpb)" d="M18.095 3.793c8.185 0 14.907 6.722 14.907 14.907 0 8.33-6.722 15.052-14.907 15.052A15.032 15.032 0 0 1 3.041 18.7c0-8.185 6.724-14.907 15.054-14.907zM1.58 25.715c3.947 9.206 14.469 13.446 23.531 9.646 9.06-3.947 13.444-14.469 9.499-23.529C31.753 4.909 25.094.795 18.052.795c-2.323 0-4.688.447-6.972 1.39-9.06 3.8-13.446 14.323-9.5 23.53z"/></g><g><path fill="url(#emcpc)" d="M18.095 16.362l5.553 5.553-5.553 5.553 3.215 3.363 8.768-8.77-8.768-8.914z"/></g><g><path fill="url(#emcpd)" d="M5.964 15.485l8.77 8.768 3.215-3.215-5.555-5.553 5.555-5.553-3.215-3.215z"/></g></g></svg>