<svg xmlns="http://www.w3.org/2000/svg" width="563" height="72" viewBox="0 0 563 72"><g><g><path fill="#8331df" d="M21.787 71.055C7.045 71.055.144 63.423.144 48.053V.273h16.415V46.38c0 6.274 2.823 9.515 8.678 9.515H78.14v15.16z"/></g><g><path fill="#8331df" d="M101.555 71.055c-14.846 0-21.747-7.632-21.747-23.002V16.27C79.808 5.92 84.304.273 96.432.273h59.805c12.128 0 16.415 5.645 16.415 15.996v9.932c0 10.352-4.287 15.998-16.415 15.998h-59.91v4.181c0 6.274 2.719 9.515 8.783 9.515h65.764v15.16zm54.786-50.917c0-4.078-1.673-6.169-6.064-6.169h-47.885c-4.392 0-6.065 2.091-6.065 6.17V30.28h53.95c4.39 0 6.064-2.3 6.064-6.274z"/></g><g><path fill="#8331df" d="M193.972 71.055c-12.128 0-16.624-5.646-16.624-18.715V23.275c0-15.37 6.901-23.002 21.748-23.002h68.691v15.055H202.65c-6.064 0-8.782 3.137-8.782 9.62v25.197c0 4.914 1.672 7.214 6.064 7.214h53.217V32.475h16.311v38.58z"/></g><g><path fill="#8331df" d="M296.218 71.055c-14.846 0-21.747-7.632-21.747-23.002V16.27c0-10.35 4.496-15.996 16.624-15.996H350.9c12.128 0 16.415 5.645 16.415 15.996v9.932c0 10.352-4.287 15.998-16.415 15.998h-59.91v4.181c0 6.274 2.719 9.515 8.783 9.515h65.764v15.16zm54.786-50.917c0-4.078-1.673-6.169-6.064-6.169h-47.885c-4.392 0-6.065 2.091-6.065 6.17V30.28h53.95c4.391 0 6.064-2.3 6.064-6.274z"/></g><g><path fill="#8331df" d="M447.394 71.055V24.948c0-6.378-2.823-9.62-8.678-9.62h-49.454v55.727h-16.414V.273h69.318c14.742 0 21.643 7.737 21.643 23.002v47.78z"/></g><g><path fill="#8331df" d="M469.344 71.055V.273h69.214c15.683 0 23.629 9.514 23.629 24.883V46.59c0 15.056-7.842 24.465-23.63 24.465zm76.428-42.553c0-7.842-2.405-13.174-10.456-13.174h-49.558v40.567h47.05c8.573 0 12.964-3.137 12.964-10.664z"/></g></g></svg>