<svg width="374" height="109" viewBox="0 0 374 109" fill="none" xmlns="http://www.w3.org/2000/svg">
<path d="M86.7001 13.1C87.1001 13.3 87.5001 13.4 87.9001 13.6C89.0001 14.1 89.6001 14.9 89.5001 16.2C89.4001 20 89.5001 23.8 89.5001 27.5C89.5001 31.2 87.8001 33.2 84.2001 33.7C82.2001 34 80.3001 33.9 78.4001 33.1C77.3001 32.6 76.7001 31.7 77.1001 30.7C77.4001 29.9 77.6001 29.8 78.4001 30.2C80.1001 31 81.8001 31.4 83.7001 31C85.6001 30.6 86.3002 29.7 86.3002 27.8C86.3002 27.4 86.5001 26.8 86.2001 26.5C85.9001 26.2 85.4001 26.7 85.0001 26.8C82.2001 27.4 79.6001 27.2 77.5001 25C77.0001 24.5 76.8001 23.8 76.4001 23.2V23.1C76.4001 22.9 76.4002 22.8 76.3002 22.7C76.3002 22.6 76.3002 22.5 76.3002 22.5C76.3002 22.3 76.3001 22.2 76.2001 22.1V22C76.0001 20.3 76.0001 18.7 76.5001 17C76.6001 16.8 76.7002 16.6 76.8002 16.4C77.2002 15.8 77.5001 15.3 77.9001 14.7L78.0001 14.6C78.1001 14.5 78.1001 14.5 78.2001 14.4C78.9001 14 79.5001 13.6 80.2001 13.2C80.3001 13.2 80.4001 13.1 80.4001 13.1C80.6001 13.1 80.7002 13.1 80.8002 13H80.9001C82.3001 12.7 83.7001 12.7 85.0001 12.8C85.1001 12.8 85.2002 12.8 85.3002 12.9C85.6002 13 86.0002 13.2 86.3002 13.2C86.5002 13.1 86.6001 13.1 86.7001 13.1ZM86.3002 19.8C86.3002 18.7 86.3002 17.7 86.3002 16.6C86.3002 16.3 86.3001 16 86.0001 15.9C83.9001 14.8 80.5001 15.1 79.6001 17.9C79.3001 18.9 79.2001 20 79.4001 21.1C79.9001 24.3 83.1002 25.7 85.8002 23.9C86.1002 23.7 86.3002 23.4 86.3002 23C86.3002 22 86.3002 20.9 86.3002 19.8Z" fill="#08A590"/>
<path d="M72.0999 21.2003C72.6999 23.0003 73.1999 24.8003 73.7999 26.5003C73.9999 27.2003 73.7999 27.6003 73.1999 27.7003C71.5999 28.2003 70.7999 27.9003 70.2999 26.4003C69.9999 25.4003 69.5999 24.4003 69.2999 23.4003C69.1999 23.0003 68.9999 22.8003 68.5999 22.8003C66.3999 22.8003 64.1999 22.8003 62.0999 22.8003C61.5999 22.8003 61.4999 23.0003 61.3999 23.4003C61.0999 24.6003 60.6999 25.7003 60.2999 26.9003C59.9999 27.8003 59.1999 28.1003 57.9999 27.8003C57.0999 27.6003 56.6999 27.0003 56.9999 26.0003C57.2999 24.9003 57.6999 23.8003 57.9999 22.7003C57.9999 22.6003 57.9999 22.5003 58.0999 22.4003C58.3999 21.9003 58.4999 21.4003 58.5999 20.9003C59.0999 20.0003 59.2999 19.1003 59.5999 18.1003C59.9999 17.2003 60.2999 16.3003 60.5999 15.4003C61.2999 13.6003 62.0999 11.8003 62.6999 9.90028C62.9999 8.90028 63.6999 8.50028 64.5999 8.40028C65.5999 8.30028 66.5999 8.30028 67.4999 8.70028C67.6999 8.90028 67.7999 9.00028 67.9999 9.20028C68.3999 10.4003 68.7999 11.6003 69.2999 12.7003C69.2999 12.8003 69.3999 12.9003 69.3999 13.0003C70.2999 15.9003 71.1999 18.5003 72.0999 21.2003ZM65.4999 11.5003C65.3999 11.5003 65.3999 11.5003 65.2999 11.4003C64.2999 14.2003 63.3999 17.0003 62.3999 19.8003C62.2999 20.2003 62.4999 20.2003 62.7999 20.2003C64.4999 20.2003 66.1999 20.2003 67.7999 20.2003C68.1999 20.2003 68.2999 20.0003 68.1999 19.6003C67.2999 17.0003 66.3999 14.3003 65.4999 11.5003Z" fill="#08A590"/>
<path d="M135 20.9997C132.6 21.2997 130.3 21.6997 127.9 21.9997C127.4 22.0997 127.6 22.2997 127.7 22.4997C128.2 24.1997 129.5 25.0997 131.2 25.3997C132.8 25.5997 134.4 25.4997 135.9 24.6997C136.2 24.4997 136.5 24.0997 136.9 24.4997C137.3 24.8997 137.6 25.3997 137.4 25.9997C137.3 26.5997 136.8 26.9997 136.3 27.2997C133.7 28.6997 128.8 28.5997 126.3 26.0997C124.4 24.1997 124 21.8997 124.2 19.2997C124.2 19.0997 124.2 18.8997 124.2 18.6997C124.3 18.0997 124.5 17.5997 124.6 16.9997C124.6 16.9997 124.7 16.8997 124.6 16.8997C124.8 16.6997 124.9 16.4997 124.9 16.1997C124.9 16.0997 125 16.0997 125 15.9997C125 15.9997 125.1 15.8997 125 15.8997C125.2 15.5997 125.5 15.1997 125.7 14.8997C128.4 12.0997 132.5 12.2997 134.7 13.4997C136.1 14.2997 137 15.4997 137.6 16.9997C137.7 17.5997 137.8 18.1997 137.9 18.7997C138 20.0997 137.6 20.4997 136.4 20.6997C136 20.7997 135.7 20.7997 135.3 20.8997C135.3 20.9997 135.1 20.9997 135 20.9997ZM131.4 15.1997C129.1 15.1997 127.4 16.7997 127.4 18.9997C127.4 19.2997 127.2 19.5997 127.8 19.4997C130 19.1997 132.3 18.8997 134.5 18.5997C134.9 18.4997 135 18.2997 134.9 17.8997C134.5 16.2997 133.2 15.1997 131.4 15.1997Z" fill="#08A590"/>
<path d="M104.4 14.4004C105.2 15.5004 105.5 16.6004 105.5 18.0004C105.5 20.3004 105.5 22.7004 105.5 25.0004C105.5 25.9004 105.1 26.6004 104.4 27.0004C101.5 28.5004 98.4003 28.7004 95.4003 27.5004C93.2003 26.6004 92.3003 24.1004 93.1003 21.8004C93.2003 21.6004 93.3003 21.4004 93.3003 21.2004C93.6003 20.9004 93.9003 20.6004 94.1003 20.3004C95.3003 19.5004 96.6003 19.2004 98.0003 19.0004C99.1003 18.9004 100.2 18.9004 101.2 18.6004C101.3 18.7004 101.5 18.7004 101.6 18.6004C101.9 18.6004 102.1 18.6004 102.1 18.2004C102.1 17.5004 102.1 16.7004 101.5 16.2004C101.3 15.9004 101 15.7004 100.7 15.6004C99.2003 15.1004 97.7003 15.1004 96.3003 15.7004C96.2003 15.7004 96.1003 15.7004 96.0003 15.8004C95.6003 15.8004 95.3003 16.0004 95.0003 16.2004C94.3003 16.6004 93.9003 16.2004 93.7003 15.6004C93.4003 14.9004 93.7003 14.2004 94.3003 13.8004C95.1003 13.3004 96.1003 13.1004 97.0003 12.9004C97.1003 12.9004 97.2003 12.9004 97.3003 12.9004C97.6003 12.9004 98.0003 12.9004 98.3003 12.9004C100.4 12.8004 102.4 13.1004 104.1 14.5004C104.3 14.3004 104.4 14.4004 104.4 14.4004ZM102.3 23.0004C102.3 22.5004 102.3 22.0004 102.3 21.4004C102.3 21.1004 102.2 20.9004 101.9 21.0004C100.5 21.2004 99.0003 21.2004 97.6003 21.6004C96.5003 21.9004 96.0003 22.6004 96.0003 23.5004C96.0003 24.5004 96.7003 25.2004 97.8003 25.5004C98.8003 25.7004 99.8003 25.7004 100.8 25.5004C102.1 25.2004 102.2 25.1004 102.2 23.8004C102.3 23.5004 102.3 23.2004 102.3 23.0004Z" fill="#08A590"/>
<path d="M117.9 16.7002C118.3 16.0002 118.4 15.1002 118.6 14.3002C119 12.8002 119.1 12.7002 120.7 12.7002C120.8 12.7002 120.9 12.8002 121 12.8002C122 13.3002 122.2 13.6002 121.9 14.7002C120.9 18.7002 119.3 22.5002 117.7 26.2002C117 27.7002 115.9 28.2002 114.3 27.8002C113.7 27.6002 113.3 27.2002 113 26.7002C111.6 23.9002 110.6 20.9002 109.5 18.0002C109.4 17.8002 109.3 17.6002 109.2 17.4002C109.2 17.3002 109.1 17.2002 109.1 17.1002C109.1 17.0002 109 16.9002 109 16.9002C108.7 16.0002 108.5 15.2002 108.2 14.3002C108.1 14.0002 108 13.8002 108.3 13.5002C109.2 12.8002 110.9 12.5002 111.4 13.9002C111.6 14.4002 111.8 15.0002 112 15.5002C112 15.6002 112.1 15.7002 112.1 15.8002C112.1 15.9002 112.1 16.1002 112.2 16.2002C112.2 16.4002 112.2 16.6002 112.4 16.7002C112.4 16.8002 112.5 16.9002 112.5 17.0002C113.3 19.7002 114.2 22.4002 115.3 24.9002C116 23.0002 116.8 21.1002 117.3 19.1002C117.6 18.2002 117.8 17.5002 117.9 16.7002Z" fill="#08A590"/>
<path d="M83.1997 42.2C83.0997 43 82.4997 43 81.8997 43C81.0997 43.1 80.2997 42.7999 79.8997 42.0999C79.3997 41.2999 79.5997 40.5 79.7997 39.7C79.8997 39.6 79.8997 39.5 79.9997 39.4C80.5997 38.9 81.3997 38.6 82.1997 38.8C82.2997 38.8 82.2997 38.9 82.3997 38.9C82.4997 38.9 82.4997 38.9 82.5997 39C82.7997 39.2 82.9997 39.4 83.1997 39.7C83.1997 39.8 83.1997 39.8 83.1997 39.8C83.1997 39.9 83.2997 39.9 83.2997 40C83.4997 40.7 83.1997 41 82.4997 41C81.9997 41 81.3997 41.2 80.8997 41.2C80.2997 41.3 80.3997 41.6 80.5997 41.9C81.0997 42.5 81.6997 42.5 82.2997 42.3C82.4997 42.3 82.7997 42.1 82.9997 42C83.0997 42.1 83.1997 42.2 83.1997 42.2ZM81.6997 39.4C81.0997 39.4 80.7997 39.6 80.4997 40C80.3997 40.2 80.1997 40.5 80.2997 40.7C80.3997 41 80.6997 40.8 80.9997 40.8C81.3997 40.8 81.6997 40.6999 82.0997 40.5999C82.2997 40.5999 82.5997 40.6 82.5997 40.4C82.5997 40.2 82.4997 39.9 82.2997 39.8C82.0997 39.4 81.7997 39.4 81.6997 39.4Z" fill="#08A590"/>
<path d="M126.8 39.6998C127.1 40.6998 127.1 41.6998 126.4 42.5998C125.3 43.2998 124.5 43.2998 123.4 42.3998C122.9 41.5998 122.9 40.6998 123.2 39.7998C123.3 39.5998 123.5 39.3998 123.6 39.2998C124.5 38.7998 125.3 38.6998 126.2 39.1998C126.3 39.2998 126.4 39.2998 126.4 39.3998C126.5 39.4998 126.5 39.4998 126.6 39.5998C126.7 39.4998 126.8 39.5998 126.8 39.6998ZM125 39.2998C124.2 39.2998 123.7 39.8998 123.7 40.7998C123.7 41.7998 124.1 42.2998 124.9 42.2998C125.7 42.2998 126.2 41.6998 126.2 40.7998C126.3 39.8998 125.8 39.2998 125 39.2998Z" fill="#08A590"/>
<path d="M115.5 42.3C114.8 40.8 115 39.9 116.1 38.9C117.2 38.6 118.2 38.6 118.8 39.7C119.3 41.3 119 42.2 117.6 43C117 43.1 116.4 42.9 115.8 42.6C115.7 42.5 115.6 42.4 115.5 42.3ZM115.8 40.9C115.8 41.9 116.3 42.4 117.1 42.4C117.9 42.4 118.4 41.8 118.3 40.8C118.3 39.9 117.8 39.4 117 39.4C116.3 39.3 115.8 39.9 115.8 40.9Z" fill="#08A590"/>
<path d="M87.1998 42.9C87.1998 42.7 87.1998 42.6 87.0998 42.4C87.0998 42.2 87.0998 42.1 87.0998 41.9C87.0998 41.7 87.0998 41.5 87.0998 41.2C87.0998 41 87.0998 40.9 87.0998 40.7C87.0998 40.6 87.1998 40.5 86.9998 40.4C87.0998 39.6 86.5998 39.4 85.8998 39.4C85.2998 39.4 84.7998 39.5 84.8998 40.3C84.9998 40.9 84.8998 41.6 84.8998 42.3C84.8998 42.6 84.8998 42.9 84.4998 43C84.3998 43 84.3998 43 84.2998 43C83.8998 41.9 84.0998 40.7 84.1998 39.6C84.1998 39.1 84.8998 39 85.2998 38.9C86.7998 38.5 87.5998 39.2 87.5998 40.7C87.5998 41.4 87.5998 42.2 87.5998 42.9C87.4998 42.9 87.4998 42.9 87.3998 43C87.2998 43 87.1998 43 87.0998 43C87.2998 42.9 87.2998 42.9 87.1998 42.9Z" fill="#08A590"/>
<path d="M120.9 38.0998C120.8 38.7998 121 39.0998 121.7 38.9998C122.1 38.8998 122.5 38.9998 122.4 39.5998C120.9 39.7998 120.9 39.7998 120.9 41.2998C120.9 41.3998 120.9 41.3998 120.9 41.4998C120.9 42.4998 121.1 42.5998 122.1 42.3998C122.5 42.3998 122.4 42.6998 122.4 42.9998C122 43.1998 121.5 43.1998 121.1 43.1998C120.8 42.9998 120.5 42.8998 120.3 42.5998C120.3 42.4998 120.3 42.3998 120.2 42.2998V42.1998C120.2 40.8998 120.2 39.5998 120.2 38.3998C120.2 38.2998 120.2 38.0998 120.2 37.9998C120.3 37.7998 120.5 37.7998 120.7 37.7998C120.8 37.7998 120.8 37.8998 120.9 38.0998Z" fill="#08A590"/>
<path d="M130.5 39.4996C129.9 39.2996 129.3 39.2996 128.9 39.7996C128.5 40.3996 128.4 40.9996 128.8 41.6996C128.8 41.7996 128.9 41.8996 129 41.8996C129.3 42.3996 129.8 42.3996 130.4 42.2996C130.6 42.2996 130.7 42.1996 130.9 42.1996C131.1 42.1996 131.3 42.1996 131.3 42.3996C131.3 42.7996 131 42.7996 130.7 42.9996C129.8 43.1996 129.1 42.9997 128.4 42.3996C128.3 42.1996 128.1 41.8996 128 41.6996V41.5996C128 41.2996 128 40.8996 127.9 40.5996C127.9 40.4996 128 40.3996 128 40.2996C128.2 39.9996 128.3 39.6996 128.5 39.3996C128.8 39.1996 129.1 39.0996 129.3 38.8996C129.8 38.7996 130.3 38.6996 130.8 38.8996C131.1 38.9996 131.3 39.1996 131.2 39.5996C130.9 39.6996 130.7 39.4996 130.5 39.4996Z" fill="#08A590"/>
<path d="M59.2996 37.5C61.2996 38.1 62.0996 39.6 61.3996 41.5C61.0996 42.4 60.3996 42.8 59.4996 43C59.3996 43 59.2996 43 59.2996 43.1C56.7996 42.9 57.2996 43.1 57.1996 40.8C57.1996 39.8 57.1996 38.9 57.0996 37.9C57.1996 37.8 57.1996 37.7 57.2996 37.7C57.8996 37.5 58.5996 37.5 59.2996 37.5ZM57.8996 40.2C57.8996 40.7 57.8996 41.3 57.8996 41.8C57.8996 42 57.8996 42.2 58.1996 42.3C59.2996 42.6 60.5996 41.9 60.7996 40.8C61.0996 39.4 60.3996 38.2 59.0996 38C57.9996 37.8 57.8996 37.9 57.8996 39C57.8996 39.5 57.8996 39.9 57.8996 40.2Z" fill="#08A590"/>
<path d="M104.3 43.5004C104.3 43.5004 104.3 43.6004 104.3 43.5004C104.3 43.7004 104.2 43.7004 104.2 43.8004C104.1 43.9004 104 44.1004 103.8 44.2004C103.7 44.3004 103.6 44.3004 103.5 44.4004H103.4C103.2 44.4004 103 44.4004 102.9 44.6004C102.9 44.6004 102.8 44.6004 102.8 44.5004C102.1 44.4004 101.3 44.5004 100.8 43.9004C100.9 43.5004 101.2 43.6004 101.4 43.7004C101.9 43.9004 102.4 43.9004 102.9 43.8004C103.4 43.7004 103.5 43.2004 103.5 42.8004C103.4 42.3004 103 42.6004 102.8 42.6004C101.8 42.7004 101.1 42.3004 100.8 41.5004C100.4 40.5004 100.7 39.4004 101.4 38.9004C102.1 38.4004 103.4 38.4004 104 38.9004C104.3 39.1004 104.3 39.5004 104.3 39.8004C104.3 41.2004 104.3 42.4004 104.3 43.5004ZM103.6 40.7004C103.6 39.4004 103.5 39.3004 102.7 39.3004C101.9 39.3004 101.4 39.8004 101.4 40.7004C101.4 41.6004 101.9 42.2004 102.7 42.1004C103.3 42.1004 103.7 42.2004 103.6 40.7004Z" fill="#08A590"/>
<path d="M90.4004 42.9996C89.7004 42.7996 89.2004 42.2996 89.0004 41.4996C89.0004 41.3996 89.0004 41.2996 88.9004 41.1996C88.9004 40.5996 89.1004 39.9996 89.3004 39.4996C89.4004 39.3996 89.5004 39.2996 89.6004 39.0996C90.2004 38.7996 90.8004 38.4996 91.4004 38.6996C92.0004 38.8996 91.9004 38.5996 91.9004 38.1996C92.0004 37.7996 91.6004 37.0996 92.2004 37.0996C92.9004 37.0996 92.6004 37.7996 92.6004 38.1996C92.6004 39.1996 92.6004 40.2996 92.6004 41.2996C92.6004 42.4996 92.3004 42.6996 91.2004 42.7996C90.9004 42.9996 90.6004 42.9996 90.4004 42.9996ZM91.9004 40.8996C91.9004 40.6996 91.9004 40.4996 91.9004 40.2996C91.9004 39.4996 91.5004 39.0996 90.7004 39.2996C89.8004 39.4996 89.4004 40.5996 89.9004 41.5996C90.2004 42.2996 90.8004 42.3996 91.5004 42.2996C92.2004 42.1996 91.9004 41.6996 92.0004 41.2996C91.9004 41.1996 91.9004 41.0996 91.9004 40.8996Z" fill="#08A590"/>
<path d="M110.9 41.8002C110.6 42.4002 110.2 42.8002 109.6 43.0002C109.5 43.0002 109.5 43.0002 109.4 43.0002C109.3 43.0002 109.2 43.0002 109.2 43.0002C108.2 42.7002 107.8 43.1002 108 44.1002C108 44.3002 108 44.6002 107.7 44.6002C107.4 44.6002 107.3 44.4002 107.3 44.2002C107.3 42.7002 107.3 41.2002 107.3 39.7002C107.3 39.4002 107.6 39.2002 107.8 39.0002C108.9 38.5002 110 38.8002 110.8 39.8002C110.8 39.9002 110.9 40.0002 110.9 40.1002C110.9 40.4002 111 40.8002 111 41.1002C111 41.2002 111 41.3002 110.9 41.4002C111 41.5002 110.9 41.6002 110.9 41.8002C110.9 41.7002 110.9 41.8002 110.9 41.8002ZM108 40.9002C108 41.1002 108 41.2002 108 41.4002C108 42.3002 108.2 42.5002 109.1 42.4002C110.1 42.3002 110.6 41.2002 110.1 40.1002C109.8 39.4002 109.2 39.3002 108.5 39.4002C107.8 39.5002 107.9 40.0002 107.9 40.5002C108 40.6002 108 40.7002 108 40.9002Z" fill="#08A590"/>
<path d="M65.1002 38.5996C65.1002 38.9996 65.5002 38.8996 65.7002 39.1996C66.1002 39.6996 66.5002 40.1996 66.2002 40.8996C65.4002 40.9996 64.7002 41.0996 63.9002 41.1996C63.7002 41.1996 63.5002 41.1996 63.4002 41.3996C63.3002 41.5996 63.5002 41.7996 63.6002 41.9996C64.1002 42.4996 64.7002 42.4996 65.4002 42.2996C65.6002 42.1996 65.9002 41.8996 66.1002 42.1996C65.7002 43.0996 64.3002 43.2996 63.3002 42.5996C62.6002 42.0996 62.3002 41.0996 62.6002 40.1996C62.8002 39.2996 63.5002 38.7996 64.4002 38.6996C64.6002 38.6996 64.8002 38.7996 65.1002 38.5996C65.0002 38.5996 65.1002 38.5996 65.1002 38.5996ZM64.5002 39.2996C64.0002 39.2996 63.6002 39.4996 63.4002 39.9996C63.3002 40.1996 63.3002 40.3996 63.3002 40.4996C63.4002 40.6996 63.6002 40.5996 63.8002 40.5996C64.2002 40.4996 64.6002 40.4996 65.0002 40.3996C65.7002 40.2996 65.6002 39.9996 65.3002 39.5996C65.1002 39.3996 64.8002 39.2996 64.5002 39.2996Z" fill="#08A590"/>
<path d="M135.7 41.9004C135.3 42.8004 134.4 42.9004 133.5 43.1004C133 42.7004 132.2 42.4004 132 41.7004C132 41.6004 131.9 41.5004 131.9 41.5004C131.9 41.0004 131.8 40.4004 132 39.9004C132.2 39.5004 132.4 39.2004 132.8 38.9004C133.4 38.7004 134 38.6004 134.6 38.8004C134.8 38.9004 134.9 38.9004 135.1 39.0004C135.5 39.3004 135.7 39.8004 135.9 40.3004C136 40.9004 135.9 41.4004 135.7 41.9004ZM135.2 40.9004C135.2 39.9004 134.8 39.3004 133.9 39.4004C133.1 39.4004 132.7 40.0004 132.7 40.9004C132.7 41.8004 133.2 42.4004 134 42.4004C134.7 42.4004 135.2 41.9004 135.2 40.9004Z" fill="#08A590"/>
<path d="M70.2998 40.0002C70.5998 40.4002 70.3998 40.6002 69.8998 40.6002C69.2998 40.7002 68.4998 40.3002 68.1998 40.8002C67.8998 41.2002 68.0998 42.0002 68.0998 42.6002C68.0998 42.8002 67.9998 42.9002 67.8998 43.0002C67.4998 42.9002 67.2998 42.7002 67.2998 42.2002C67.2998 40.9002 67.2998 39.6002 67.2998 38.3002C67.2998 37.8002 67.4998 37.5002 67.9998 37.6002C68.8998 37.6002 69.6998 37.6002 70.5998 37.6002C70.5998 37.6002 70.5998 37.7002 70.6998 37.7002C70.7998 37.9002 70.6998 38.1002 70.5998 38.3002C69.8998 38.3002 69.2998 38.3002 68.5998 38.3002C68.3998 38.3002 68.1998 38.3002 68.0998 38.6002C67.7998 39.5002 68.1998 40.1002 69.0998 40.1002C69.4998 40.0002 69.8998 40.0002 70.2998 40.0002Z" fill="#08A590"/>
<path d="M99.4002 39.2002C99.7002 40.3002 99.6002 41.4002 99.6002 42.5002C99.6002 42.7002 99.6002 42.9002 99.3002 43.0002C99.0002 43.0002 98.9002 42.8002 98.9002 42.5002C98.9002 41.8002 98.9002 41.2002 98.9002 40.5002C98.9002 39.5002 98.1002 39.1002 97.2002 39.5002C96.9002 39.7002 96.9002 39.9002 96.9002 40.2002C96.9002 41.0002 96.9002 41.7002 96.9002 42.5002C96.9002 42.7002 96.9002 43.0002 96.6002 43.0002C96.3002 43.0002 96.2002 42.8002 96.2002 42.5002C96.2002 41.6002 96.2002 40.7002 96.2002 39.8002C96.2002 39.4002 96.4002 39.2002 96.8002 39.1002C97.6002 38.6002 98.5002 38.7002 99.4002 39.2002C99.3002 39.2002 99.4002 39.2002 99.4002 39.2002Z" fill="#08A590"/>
<path d="M78.9 42.8996C77.8 42.8996 76.8 42.9996 75.7 42.7996C75.6 41.1996 75.7 39.6996 75.6 38.0996C75.6 37.8996 75.5 37.5996 75.9 37.5996C76.3 37.5996 76.3 37.8996 76.3 38.1996C76.3 39.2996 76.3 40.4996 76.3 41.5996C76.3 42.1996 76.5 42.3996 77.1 42.3996C77.5 42.3996 78 42.3996 78.4 42.3996C79 42.1996 79 42.4996 78.9 42.8996Z" fill="#08A590"/>
<path d="M137 42.5998C137 41.0998 137 39.4998 137 37.9998C137 37.6998 136.8 37.2998 137.4 37.2998C137.9 37.2998 137.8 37.7998 137.8 38.0998C137.8 39.4998 137.8 40.9998 137.8 42.3998C137.8 42.6998 137.9 42.9998 137.5 43.0998C137.4 43.0998 137.4 43.0998 137.3 43.0998C137.2 43.0998 137.1 42.9998 137.1 42.9998C137.1 42.6998 137 42.5998 137 42.5998Z" fill="#08A590"/>
<path d="M112.8 42.2001C112.7 42.4001 112.9 42.9001 112.4 42.9001C111.9 42.9001 112.1 42.5001 112 42.2001C112 41.5001 112 40.7001 112 40.0001C112 39.5001 112.1 39.2001 112.6 39.0001C113.2 38.8001 113.8 38.6001 114.4 38.9001C114.5 39.0001 114.6 39.1001 114.6 39.2001C114.6 39.4001 114.4 39.4001 114.3 39.4001C112.8 39.7001 112.8 39.7 112.8 41.1C112.8 41.4 112.8 41.6001 112.8 41.9001C112.8 42.0001 112.8 42.1001 112.8 42.2001Z" fill="#08A590"/>
<path d="M71.7998 40.7998C71.7998 40.2998 71.7998 39.7998 71.7998 39.2998C71.7998 39.0998 71.7998 38.7998 72.0998 38.7998C72.3998 38.7998 72.4998 38.9998 72.4998 39.1998C72.4998 40.2998 72.4998 41.3998 72.4998 42.3998C72.4998 42.5998 72.3998 42.7998 72.1998 42.7998C71.8998 42.7998 71.7998 42.5998 71.7998 42.3998C71.7998 41.8998 71.7998 41.3998 71.7998 40.7998Z" fill="#08A590"/>
<path d="M94.7 40.8998C94.7 41.3998 94.7 41.8998 94.7 42.3998C94.7 42.5998 94.7 42.8998 94.4 42.8998C94.1 42.8998 94 42.7998 94 42.4998C94 41.3998 94 40.2998 94 39.1998C94 38.9998 94.1 38.7998 94.3 38.7998C94.5 38.7998 94.6 38.8998 94.6 39.1998C94.7 39.7998 94.7 40.3998 94.7 40.8998Z" fill="#08A590"/>
<path d="M93.9997 37.9998C93.7997 37.7998 93.7997 37.4998 93.8997 37.1998C94.1997 36.9998 94.3997 36.9998 94.5997 37.1998C94.6997 37.2998 94.7997 37.4998 94.6997 37.6998C94.5997 38.0998 94.3997 38.0998 93.9997 37.9998Z" fill="#43D3A4"/>
<path d="M72.5996 37.5998C72.5996 37.8998 72.3996 37.9998 72.0996 38.0998C71.7996 38.0998 71.5996 37.9998 71.5996 37.6998C71.5996 37.3998 71.7996 37.1998 72.0996 37.1998C72.3996 37.0998 72.5996 37.2998 72.5996 37.5998Z" fill="#43D3A4"/>
<path d="M34.2 27C34.4 27 34.5 26.8 34.6 26.8C36.9 24.2 39.5 21.9 42.4 19.9C45.4 17.8 48.6 16.1 52 14.7C52.6 14.5 52.4 14.9 52.4 15.1C52.2 17.1 52.1 19 51.8 21C51.2 25.2 50.2 29.4 48.5 33.3C46.1 38.6 42.7 43.2 37.7 46.4C35 48.1 32.1 49.2 28.9 49.6C23.2 50.3 18.1 48.8 13.5 45.5C9.3 42.5 6.4 38.4 4.3 33.8C2.3 29.5 1.2 24.9 0.6 20.1C0.3 18.4 0.2 16.7 0 15C0 14.6 0.2 14.6 0.5 14.7C2.4 15.4 4.3 16.3 6.1 17.4C10.5 19.9 14.4 23.1 17.8 26.8C17.9 26.9 17.9 27 18 27C18 17.2 21 8.3 26.1 0C28.7 4.1 30.7 8.4 32.1 13C33.6 17.5 34.2 22.2 34.2 27ZM38.1 36.5C38.1 34.8 36.8 33.6 35.1 33.6C33.5 33.6 32.3 35 32.3 36.5C32.3 38.1 33.7 39.3 35.2 39.3C36.9 39.4 38.1 38.1 38.1 36.5ZM17.1 33.7C15.5 33.7 14.2 35 14.2 36.5C14.2 38.1 15.5 39.4 17.1 39.4C18.7 39.4 20 38.1 20 36.6C19.9 35 18.7 33.7 17.1 33.7ZM26.3 42.7C26.8 42.7 27.4 42.6 27.9 42.4C28.8 42 29.5 41.4 29.7 40.4C29.8 39.6 29.5 39.2 28.7 39.3C27 39.6 25.3 39.6 23.6 39.3C23.5 39.3 23.4 39.3 23.3 39.3C22.9 39.3 22.6 39.6 22.6 40C22.6 40.8 22.9 41.4 23.5 41.9C24.3 42.4 25.1 42.7 26.3 42.7Z" fill="#68E6A8"/>
<path d="M17.0002 24.4998C16.2002 23.6998 15.5002 22.9998 14.7002 22.2998C13.0002 20.7998 11.2002 19.3998 9.3002 18.1998C9.1002 17.9998 9.0002 17.8998 8.9002 17.4998C8.5002 12.8998 8.7002 8.29985 9.5002 3.79985C9.6002 3.49985 9.6002 3.49985 9.9002 3.59985C13.3002 5.89985 16.3002 8.79985 19.0002 11.8998C19.1002 12.0998 19.2002 12.1998 19.1002 12.3998C17.9002 15.9998 17.3002 19.6998 17.0002 23.3998C17.1002 23.7998 17.1002 24.0998 17.0002 24.4998Z" fill="#08A590"/>
<path d="M35.1998 24.4997C35.0998 22.9997 34.9998 21.5997 34.7998 20.0997C34.6998 19.0997 34.4998 18.1997 34.2998 17.1997C33.9998 15.5997 33.5998 13.9997 33.0998 12.3997C32.9998 12.0997 33.0998 11.9997 33.2998 11.7997C35.8998 8.89971 38.6998 6.19971 41.8998 3.89971C42.6998 3.29971 42.6998 3.29971 42.8998 4.29971C43.5998 8.59971 43.7998 12.8997 43.4998 17.1997C43.4998 17.6997 43.2998 17.8997 42.8998 18.1997C41.1998 19.2997 39.5998 20.4997 38.0998 21.7997C37.0998 22.6997 36.1998 23.4997 35.1998 24.4997Z" fill="#08A590"/>
<path d="M38.1004 36.5002C38.1004 38.0002 36.9004 39.4002 35.3004 39.4002C33.7004 39.4002 32.4004 38.2001 32.4004 36.6001C32.4004 35.0001 33.6004 33.7002 35.2004 33.7002C36.8004 33.6002 38.0004 34.8002 38.1004 36.5002Z" fill="#00A995"/>
<path d="M17.0996 33.6997C18.6996 33.6997 19.8996 34.9997 19.8996 36.5997C19.8996 38.1997 18.5996 39.3997 16.9996 39.3997C15.3996 39.3997 14.0996 38.0997 14.0996 36.4997C14.1996 34.8997 15.4996 33.5997 17.0996 33.6997Z" fill="#00A995"/>
<path d="M26.3002 42.6996C25.2002 42.6996 24.3002 42.3996 23.6002 41.8996C23.0002 41.3996 22.7002 40.7996 22.7002 39.9996C22.7002 39.5996 22.9002 39.2996 23.4002 39.2996C23.5002 39.2996 23.6002 39.2996 23.7002 39.2996C25.4002 39.5996 27.1002 39.5996 28.8002 39.2996C29.6002 39.1996 29.9002 39.4996 29.8002 40.3996C29.6002 41.4996 28.9002 42.0996 28.0002 42.3996C27.3002 42.5996 26.7002 42.6996 26.3002 42.6996Z" fill="#00A995"/>
<path d="M199.9 42.7998C199.9 38.1998 199.8 33.6998 199.9 29.1998C200 26.5998 199.1 24.9998 196.8 23.7998C192.8 21.5998 188.9 19.0998 184.9 16.7998C183.7 16.0998 183.3 15.2998 183.3 13.9998C183.4 11.8998 183.3 9.7998 183.3 7.6998C183.4 5.2998 184.4 4.6998 186.4 5.8998C191.6 8.7998 196.7 11.7998 201.8 14.7998C203.3 15.5998 203.8 16.7998 203.8 18.3998C203.8 24.7998 203.8 31.1998 203.8 37.5998C203.9 41.1998 203.9 41.1998 199.9 42.7998Z" fill="#03D295"/>
<path d="M192.2 47.3C192.2 44.9 192.1 42.6 192.2 40.3C192.3 38.2 191.6 36.8 189.7 35.8C185.6 33.5 181.5 30.9 177.4 28.6C176.4 28 176 27.4 176.1 26.2C176.2 23.8 176.1 21.4 176.1 18.9C176.1 16.7 177.1 16 179 17.1C184.2 20.1 189.4 23.1 194.6 26.1C196.1 27 196.7 28.3 196.7 30C196.7 33.7 196.4 37.4 196.8 41C197.1 44.3 195.9 46.4 192.2 47.3Z" fill="#03D295"/>
<path d="M257.5 30.5995C257.5 28.5995 257.5 26.4995 257.5 24.4995C257.5 23.8995 257 22.8995 258 22.6995C259.2 22.4995 260.9 21.9995 261.4 22.9995C262 23.9995 262 23.6995 262.7 23.2995C265.3 21.5995 267.9 21.6995 270.3 23.5995C271 24.1995 271.3 24.1995 272 23.5995C274.1 21.8995 276.7 21.4995 279 22.6995C281.5 23.9995 282.5 26.2995 282.4 29.1995C282.3 31.7995 282.3 34.4995 282.4 37.1995C282.5 39.4995 280.9 38.5995 279.9 38.6995C278.7 38.8995 277.9 38.7995 278 37.0995C278.2 34.4995 278.1 31.7995 278 29.0995C278 27.3995 277.5 25.9995 275.4 25.8995C273.4 25.7995 272.3 27.0995 272.2 28.8995C272.1 31.5995 272 34.3995 272.1 37.0995C272.2 39.3995 270.6 38.4995 269.6 38.5995C268.5 38.6995 267.5 38.7995 267.6 36.9995C267.8 34.3995 267.6 31.6995 267.6 28.9995C267.6 27.1995 267.1 25.8995 265.1 25.7995C263.2 25.6995 262 26.8995 261.9 28.9995C261.8 31.6995 261.7 34.2995 261.9 36.9995C262 38.9995 260.7 38.5995 259.6 38.5995C258.6 38.5995 257.2 39.0995 257.3 37.0995C257.6 34.9995 257.5 32.7995 257.5 30.5995Z" fill="#273439"/>
<path d="M189 44.2994C189 45.4994 189.1 46.7994 189 47.9994C188.9 49.7994 187.6 50.5994 186.1 49.6994C180.7 46.4994 175.4 43.1994 170.1 39.9994C169.1 39.2994 168.6 38.2994 168.6 36.9994C168.6 34.7994 168.6 32.5994 168.6 30.3994C168.6 28.1994 169.5 27.5994 171.5 28.6994C175.8 31.0994 179.9 33.7994 184.3 35.9994C187.9 37.7994 190.2 39.9994 189 44.2994Z" fill="#03D295"/>
<path d="M237.1 30.6999C236.3 35.8999 231.7 40.0999 224.3 38.9999C218.8 38.0999 215.1 33.5999 215.3 27.1999C215.5 21.7999 219.4 17.0999 223.6 16.5999C231.9 15.6999 236 19.4999 237 24.8999C235.9 24.8999 234.8 24.8999 233.8 24.8999C232.8 24.9999 232.3 24.6999 231.8 23.6999C230.5 21.0999 228.1 20.0999 224.9 20.6999C222.4 21.0999 220.6 22.9999 220.2 25.8999C219.8 28.7999 219.9 31.6999 222.5 33.5999C225.3 35.5999 228.5 35.6999 231 33.0999C233.5 30.4999 233.5 30.4999 237.1 30.6999Z" fill="#273439"/>
<path d="M369.099 24C369.099 22.1 369.099 20.3 369.099 18.6C369.099 16.9 371.099 15.3 372.699 15.8C373.499 16 373.499 16.8 373.499 17.5C373.499 24 373.499 30.6 373.499 37.1C373.499 37.7 373.899 38.7 372.699 38.7C371.599 38.6 370.099 39.4 369.599 38.2C369.199 37.1 368.999 37.6 368.399 37.9C364.799 40 361.099 39.5 358.699 36.7C355.999 33.5 356.099 27.6 358.799 24.6C361.499 21.7 365.199 21.5 369.099 24ZM369.199 30.7C369.199 27.9 367.399 26 365.099 26C362.899 26.1 361.099 28.1 361.099 30.6C361.099 32.9 363.099 35.7 364.699 35.6C367.499 35.5 369.199 33.5 369.199 30.7Z" fill="#273439"/>
<path d="M289.799 37.3999C289.799 39.2999 289.799 40.7999 289.799 42.3999C289.799 44.1999 287.799 45.8999 285.999 45.5999C285.299 45.4999 285.499 44.9999 285.499 44.4999C285.499 37.6999 285.499 30.8999 285.499 24.1999C285.499 23.1999 288.199 22.3999 289.199 23.2999C289.799 23.8999 289.899 23.8999 290.499 23.4999C293.399 21.7999 296.899 21.6999 298.699 23.3999C302.199 26.6999 303.099 30.5999 301.399 34.6999C300.099 37.7999 297.399 39.2999 293.899 39.0999C292.399 38.9999 291.199 38.2999 289.799 37.3999ZM289.699 30.6999C289.999 34.0999 290.799 35.1999 293.499 35.2999C295.999 35.3999 297.699 33.4999 297.799 30.6999C297.799 27.9999 295.999 25.8999 293.599 25.9999C291.299 26.0999 289.699 27.9999 289.699 30.6999Z" fill="#273439"/>
<path d="M311.5 39.1002C306.6 39.0002 303.2 35.5002 303.1 30.6002C303.1 25.7002 306.8 21.9002 311.7 22.2002C317.4 22.5002 320.1 26.0002 320.2 30.8002C320.3 35.7002 316.5 39.2002 311.5 39.1002ZM307.6 30.7002C307.6 33.2002 309.3 35.7002 311.1 35.8002C313.5 35.9002 315.9 33.5002 315.9 30.8002C315.9 28.1002 314.2 26.1002 311.8 26.1002C309.3 26.0002 307.6 27.9002 307.6 30.7002Z" fill="#273439"/>
<path d="M246.9 39.1002C242.2 39.1002 238.5 35.7002 238.4 31.3002C238.3 25.9002 241.7 22.1002 246.8 22.2002C252.2 22.3002 255.4 25.6002 255.5 30.6002C255.6 35.6002 251.9 39.1002 246.9 39.1002ZM251.1 30.7002C251.1 28.0002 249.3 26.0002 247 26.0002C244.6 26.0002 242.9 27.9002 242.9 30.7002C242.9 33.2002 244.6 35.7002 246.4 35.8002C248.8 35.8002 251.1 33.4002 251.1 30.7002Z" fill="#273439"/>
<path d="M340 30.7001C340 28.7001 339.9 26.8001 340 24.8001C340 24.1001 339.4 22.8001 340.5 22.7001C341.6 22.5001 343.1 21.9001 343.9 23.2001C344.4 24.1001 344.7 23.6001 345.1 23.3001C348.8 20.7001 355 22.4001 354.9 28.8001C354.9 31.6001 354.8 34.4001 354.9 37.2001C355 39.1001 353.7 38.7001 352.7 38.6001C351.7 38.5001 350.2 39.3001 350.3 37.2001C350.4 34.6001 350.3 31.9001 350.3 29.2001C350.3 27.4001 349.8 25.9001 347.6 25.9001C345.6 25.8001 344.3 27.1001 344.2 29.3001C344.1 32.0001 344.1 34.6001 344.2 37.3001C344.3 39.4001 342.8 38.7001 341.9 38.7001C340.9 38.8001 339.7 39.1001 339.8 37.2001C340.1 35.1001 340 32.9001 340 30.7001Z" fill="#273439"/>
<path d="M322.2 28.2994C322.2 27.0994 322.3 25.8994 322.2 24.7994C321.9 22.7994 322.8 22.5994 324.5 22.5994C326.3 22.4994 326.7 23.0994 326.6 24.7994C326.4 27.0994 326.6 29.4994 326.6 31.7994C326.6 33.6994 327.3 35.2994 329.1 35.5994C331.2 35.8994 332.5 34.1994 332.5 31.5994C332.5 29.2994 332.6 26.8994 332.5 24.5994C332.4 22.6994 333.6 23.0994 334.6 23.1994C335.6 23.2994 337.1 22.4994 337 24.5994C336.9 26.7994 336.9 28.9994 337 31.1994C337.3 38.8994 332.6 39.5994 327.6 39.0994C324.3 38.6994 322.5 36.5994 322.2 33.0994C322.1 31.3994 322.2 29.8994 322.2 28.2994Z" fill="#273439"/>
<path d="M128 103.9C128 103.8 128 103.7 128.1 103.7C128.8 102.4 129.4 101 129.8 99.4998C130.1 99.0998 130.3 98.5998 130.4 98.1998H130.5C131.4 97.9998 131.1 97.1998 131.2 96.6998C131.9 96.5998 131.5 96.0998 131.6 95.6998C131.8 95.5998 131.8 95.4998 131.8 95.2998C132.4 95.0998 132.5 94.6998 132.2 94.1998C132 93.7998 131.6 93.7998 131.2 93.7998C130.5 93.7998 129.8 93.7998 129.1 93.7998C129 93.6998 129 93.6998 128.9 93.5998C128.9 93.2998 128.9 93.0998 128.7 92.8998C128.2 91.7998 128.7 90.5998 130 90.4998C131.2 90.3998 132.3 89.9998 133.5 90.2998C133.8 90.3998 133.9 90.2998 133.9 89.9998C134.1 89.9998 134.2 89.8998 134.3 89.6998C135.2 88.3998 135.4 86.6998 136.2 85.2998C136.5 84.7998 136.7 84.1998 136.6 83.5998C137.6 83.3998 137.2 82.3998 137.6 81.8998C138 81.7998 138.5 82.0998 138.7 81.5998C138.8 81.2998 138.6 80.9998 138.2 80.9998C138.2 80.5998 138.3 80.1998 138.6 79.7998C139.6 80.0998 139.2 80.9998 139.3 81.6998C139.3 81.8998 138.7 82.1998 139.3 82.4998C139.7 82.7998 139.7 82.0998 140 82.0998C140.4 82.7998 139.5 83.3998 139.7 84.0998C139.3 85.7998 138.5 87.3998 137.9 89.0998C137.8 89.4998 137.5 89.8998 138.2 89.9998C138.3 89.9998 138.3 89.9998 138.4 89.9998C138.4 90.3998 138.7 90.5998 139 90.4998C139.9 90.2998 140.5 90.4998 141 91.2998C141.7 92.2998 141.4 93.0998 140.2 93.3998C139.3 93.5998 138.4 93.4998 137.5 93.5998C137.2 93.5998 136.7 93.3998 136.7 93.9998C136.6 94.0998 136.5 94.0998 136.5 94.1998C135.9 94.0998 135.9 94.5998 135.8 94.8998C135.2 96.2998 134.8 97.7998 134.1 99.0998C133.8 99.7998 133.6 100.4 133.6 101.1C133.6 101.2 133.5 101.4 133.5 101.5C132.5 102.2 132.4 103.3 132.3 104.4C131.9 104.6 130.6 107 130.6 107.7C129.5 107.8 128.5 107.7 127.9 106.6C127.9 106.5 127.6 106.5 127.5 106.5C127.5 106.2 127.5 106 127.5 105.7C127.6 105.2 127.8 104.6 128 103.9Z" fill="#3CB1C1"/>
<path d="M243.5 78.8002C243.4 78.8002 243.3 78.8002 243.3 78.8002C242.9 78.8002 242.9 79.1002 242.9 79.4002C242.1 79.4002 242.1 79.5002 242.1 79.9002C242 80.0002 241.9 80.1002 241.7 80.0002C241.6 80.0002 241.6 79.9002 241.5 79.9002C237.9 79.6002 234.3 80.0002 230.7 79.9002C230.7 79.6002 230.4 79.3002 230.6 78.9002C230.8 78.5002 230.6 78.2002 230.2 77.9002C229.9 77.7002 229.6 77.4002 229.7 77.0002C229.8 76.6002 230.3 76.8002 230.5 76.8002C232.4 76.8002 234.2 76.4002 236.1 76.5002C238.3 76.5002 240.7 75.8002 242.7 77.2002C242.8 77.2002 242.9 77.2002 243 77.2002C243 77.4002 243 77.5002 243.2 77.6002H243.3H243.4C243.5 78.0002 243.5 78.4002 243.5 78.8002Z" fill="#A75BA0"/>
<path d="M243.5 105.7C243.5 106 243.5 106.3 243.5 106.7L243.4 106.8H243.3C243 106.7 242.8 107 242.6 107.2C241.9 107.9 241.1 108.2 240.1 108C238.4 107.6 236.8 106.9 235 107.4C234.8 107.4 234.5 107.3 234.5 107.1C234.5 106.8 234.7 106.8 234.9 106.7C235.3 106.6 235.6 106.5 236 106.4C236.1 106.4 236.3 106.4 236.4 106.2C236.4 106 236.2 105.9 236.1 105.8C235.8 105.5 235.1 105.6 235 105C235.5 105 236 105 236.4 105C238.7 104.9 241 104.6 243.1 105.5C243.1 105.5 243.2 105.7 243.5 105.7Z" fill="#A75BA0"/>
<path d="M130.5 107.801C129.8 108.501 129 108.301 128.2 107.901C127.9 107.801 127.7 107.601 127.4 107.401C127.4 107.101 127.4 106.901 127.4 106.601C127.6 106.601 127.8 106.601 127.8 106.701C128.4 107.801 129.4 107.901 130.5 107.801Z" fill="#49A5BE"/>
<path d="M164.601 107.5C164.301 108.1 163.601 108.1 163.201 108.6C163.001 108.6 162.801 108.6 162.601 108.6C162.401 108.4 162.201 108.2 161.901 108.1C161.801 107.9 161.701 107.8 161.601 107.6C162.501 107.9 163.501 107.8 164.601 107.5Z" fill="#6393B5"/>
<path d="M243.501 105.7C243.201 105.7 243.101 105.6 243.201 105.3C243.301 105.4 243.401 105.5 243.501 105.5C243.501 105.6 243.501 105.6 243.501 105.7Z" fill="#9768A5"/>
<path d="M206.301 104.3C206.201 105 205.801 105.7 205.501 106.4C204.901 107.8 203.801 108.4 202.301 108.4C200.701 108.4 199.601 107.7 199.001 106.2C197.701 103 196.301 99.8 195.001 96.6C192.701 91 190.401 85.4 188.101 79.7C187.901 79.2 187.601 78.7 187.601 78.1C187.601 77.2 188.201 76.3 189.001 76.1C189.901 75.9 190.901 76.2 191.301 77C191.701 77.6 191.901 78.3 192.201 78.9C195.401 87 198.701 95.1 201.901 103.2C202.001 103.4 202.001 103.7 202.301 103.8C202.801 102.6 203.401 101.3 203.901 100.1C204.601 101.2 204.101 102.5 204.701 103.7C204.901 104.1 204.401 104.9 205.001 105.2C205.701 105.4 205.801 104.5 206.301 104.3Z" fill="#7D7FAD"/>
<path d="M222.8 108.1C222.4 107.9 222 107.8 221.6 107.6C221.5 107.2 221.3 106.7 221.2 106.3C221.2 105.4 221.2 104.5 221.2 103.6C221.2 95.1 221.2 86.6 221.2 78.1C221.2 78 221.2 77.8 221.3 77.7C221.4 77.6 221.4 77.4 221.5 77.3C221.6 77.2 221.6 77.1 221.7 77.1C221.8 77 221.9 76.9 222 76.8C222.2 76.7 222.4 76.6 222.5 76.5C222.6 76.5 222.6 76.5 222.7 76.5C222.7 76.9 222.5 77.1 222.2 77.3C221.8 77.7 221.7 78.3 222 78.6C222.8 79.8 222.5 80.9 222.2 82.1C222 83 221.8 84.1 222.2 84.6C223.1 85.5 222.7 86.5 222.9 87.5C223.1 88.4 223 89.3 223.2 90.4C223.6 89.6 223.3 89 223.6 88.4C223.9 88.6 223.8 88.8 223.8 89C223.9 90.6 224 90.7 225.4 90.2C230 90.2 234.6 90.2 239.2 90.2C239.6 90.2 239.9 90.2 240.3 90.3C239.8 90.6 239.4 90.6 238.8 90.6C236.5 90.6 234.2 90.6 232 90.6C230.2 90.6 228.3 90.6 226.5 90.7C226.1 90.7 225.9 91 225.8 91.3C225.7 91.5 225.8 91.7 226 91.8C226.3 91.9 226.7 91.8 226.6 92.3C226.5 92.8 226 92.6 225.7 92.8C225.5 92.9 225.2 92.8 225.1 93.1C225.2 93.4 225.5 93.4 225.7 93.5C227.1 94.1 228.7 93.9 230.1 94C231.1 94.1 232.1 94.2 233 93.8C233.5 94 234.1 94 234.6 94C236.4 94 238.3 93.9 240.1 94.1C239.8 94.3 239.4 94.2 239.1 94.2C234.8 94.2 230.5 94.2 226.1 94.2C225.3 94.2 225.2 94.5 225.2 95.1C225.2 97.8 225.2 100.6 225.2 103.3C225.2 104.1 225.5 104.2 226.2 104.2C231.1 104.2 236 104.2 240.9 104.2C241.8 104.2 242.7 104.3 243.1 105.3C240.9 104.4 238.6 104.7 236.4 104.8C235.9 104.8 235.4 104.8 235 104.8C234.7 104.7 234.5 104.6 234.2 104.6C231.7 104.8 229.3 104.8 226.8 104.8C226.7 104.8 226.7 104.9 226.6 105C226.7 105.2 226.9 105.2 227 105.2C227.4 105.4 228 105.3 228.1 105.8C228.3 106.3 227.6 106.4 227.3 106.6C226.9 106.9 227 107.1 227.4 107.3C228.1 107.6 228.9 107.5 229.7 107.5C230.1 107.5 230.5 107.5 230.5 108.1C228 108.1 225.5 108.2 222.9 108.2C222.9 108 222.8 108 222.8 108.1Z" fill="#9768A5"/>
<path d="M206.3 104.3C205.8 104.5 205.7 105.4 205.1 105.2C204.5 105 205 104.2 204.8 103.7C204.2 102.6 204.7 101.2 204 100.1C205.1 97.2002 206.3 94.2002 207.4 91.3002C209.2 86.9002 210.9 82.4002 212.7 78.0002C212.8 77.8002 212.8 77.6002 212.9 77.4002C212.9 77.3002 213 77.3002 213 77.2002C213 77.2002 213.1 77.1002 213.1 77.0002C213.2 76.9002 213.2 76.8002 213.3 76.8002C213.5 76.6002 213.7 76.4002 213.9 76.2002C215.2 75.8002 216 75.9002 216.6 76.7002C217.2 77.5002 217.1 78.8002 216.2 80.1002C216.2 79.3002 216.4 78.5002 216.4 77.7002C216.4 77.0002 216.1 76.6002 215.5 76.5002C214.9 76.4002 214.4 76.3002 213.8 76.8002C213.1 77.5002 212.9 78.5002 212.6 79.4002C212.2 80.3002 211.6 81.3002 212.1 82.5002C212.5 83.5002 213.3 84.4002 212.4 85.6002C212.3 85.7002 212.5 86.0002 212.5 86.1002C212.6 86.4002 212.8 86.5002 213 86.2002C213.4 85.6002 213.8 85.0002 214.1 84.4002C214.5 83.6002 214.7 82.8002 215.4 82.2002C214.8 84.2002 213.9 86.1002 213.1 88.0002C211 93.2002 208.8 98.3002 206.7 103.5C206.6 103.8 206.4 104.1 206.3 104.3Z" fill="#8B75A8"/>
<path d="M225.3 90.1998C223.9 90.6998 223.8 90.5998 223.7 88.9998C223.7 88.7998 223.8 88.4998 223.5 88.3998C223.2 88.8998 223.5 89.5998 223.1 90.3998C222.9 89.2998 223 88.3998 222.8 87.4998C222.6 86.5998 223 85.5998 222.1 84.5998C221.6 84.0998 221.9 82.8998 222.1 82.0998C222.4 80.8998 222.7 79.7998 221.9 78.5998C221.7 78.2998 221.7 77.6998 222.1 77.2998C222.3 77.0998 222.6 76.8998 222.6 76.4998C222.6 76.3998 222.6 76.3998 222.6 76.2998C222.8 76.2998 223 76.2998 223.2 76.2998H223.3H223.4C224.2 76.2998 225 76.2998 225.7 76.2998C225.8 76.2998 226 76.2998 226.1 76.2998C226.8 76.2998 227.5 76.2998 228.2 76.2998C232.5 76.2998 236.8 76.2998 241.1 76.2998C242 76.2998 242.7 76.4998 243.1 77.2998C243 77.2998 242.9 77.2998 242.8 77.2998C240.7 75.8998 238.4 76.5998 236.2 76.5998C234.4 76.5998 232.5 76.8998 230.6 76.8998C230.3 76.8998 229.9 76.6998 229.8 77.0998C229.7 77.4998 229.9 77.7998 230.3 77.9998C230.7 78.1998 230.9 78.4998 230.7 78.9998C230.5 79.3998 230.8 79.6998 230.8 79.9998C230.1 79.9998 229.3 79.9998 228.6 79.9998C227.7 80.0998 226.7 79.7998 225.8 80.1998C225.4 80.1998 225.4 80.5998 225.4 80.7998C225.3 83.8998 225.3 87.0998 225.3 90.1998Z" fill="#9F61A1"/>
<path d="M173.9 76.3998C176.3 75.4998 178.1 76.0998 178.9 77.9998C179.2 78.7998 179.6 79.5998 179.9 80.2998C179.9 80.3998 179.9 80.3998 179.9 80.4998C180.1 80.8998 180.2 81.2998 180.4 81.6998C180.4 81.7998 180.4 81.7998 180.5 81.8998C180.5 81.9998 180.6 82.0998 180.6 82.1998C180.6 82.4998 180.7 82.6998 180.9 82.8998C180.9 82.9998 181 82.9998 181 83.0998C181.1 83.6998 181.3 84.0998 181.6 84.5998C181.6 84.9998 181.9 85.3998 182 85.7998C182 85.8998 182.1 85.8998 182.1 85.9998C182.1 86.0998 182.1 86.0998 182.1 86.1998C182.3 86.7998 182.6 87.3998 182.8 87.8998C182.8 87.9998 182.8 87.9998 182.9 88.0998C183.4 89.1998 183.8 90.3998 184.3 91.4998C185.9 95.2998 187.5 99.1998 189.1 103C189.2 103.2 189.2 103.4 189.3 103.6C189.5 104.2 189.8 104.7 190 105.3C190.5 106.5 190.1 107.8 189 108.2C187.8 108.7 186.6 108.1 186.1 106.7C186.6 106.6 186.9 106.9 187.3 107.2C187.6 107.6 188 107.4 188.3 107.1C188.5 106.9 188.4 106.6 188.2 106.6C187.4 106.4 187.5 105.9 187.5 105.3C187.5 104.6 187.4 104.1 186.9 103.5C186.4 102.8 185.8 101.9 185.9 100.9C185.9 100.7 185.6 100.1 186.4 100.4C186.9 100.6 186.9 100.1 186.6 99.7998C185.9 98.9998 186.4 97.5998 185.2 97.0998C185.2 97.0998 185.1 96.9998 185.2 96.8998C185.3 95.9998 184.8 95.3998 184.6 94.5998C184.3 93.0998 183.4 91.7998 183 90.2998C182.8 89.4998 182.2 88.6998 181.9 87.7998C181.3 86.1998 180.9 84.4998 180.1 82.8998C179.7 82.0998 179.1 81.2998 179 80.2998C178.8 79.0998 178 78.0998 177.3 77.1998C177 76.7998 176.4 76.4998 175.8 76.4998C175.3 76.4998 174.6 76.4998 173.9 76.3998Z" fill="#7488AF"/>
<path d="M215.401 82.3002C214.701 82.9002 214.401 83.7002 214.101 84.5002C213.801 85.1002 213.401 85.7002 213.001 86.3002C212.801 86.5002 212.601 86.5002 212.501 86.2002C212.501 86.0002 212.301 85.7002 212.401 85.7002C213.301 84.6002 212.501 83.6002 212.101 82.6002C211.601 81.4002 212.301 80.4002 212.601 79.5002C212.901 78.6002 213.101 77.7002 213.801 76.9002C214.401 76.3002 214.901 76.4002 215.501 76.6002C216.101 76.7002 216.301 77.2002 216.401 77.8002C216.401 78.6002 216.201 79.4002 216.201 80.2002C215.401 80.4002 215.601 81.1002 215.601 81.6002C215.601 81.7002 215.601 81.8002 215.601 81.9002C215.501 82.0002 215.501 82.1002 215.401 82.1002C215.401 82.2002 215.401 82.2002 215.401 82.3002Z" fill="#9768A5"/>
<path d="M215.6 81.6002C215.6 81.1002 215.4 80.4002 216.2 80.2002C216.2 80.3002 216.2 80.4002 216.2 80.6002C216 80.9002 215.8 81.2002 215.6 81.6002Z" fill="#8B75A8"/>
<path d="M215.4 82.1004C215.5 82.0004 215.5 81.9004 215.6 81.9004C215.5 82.0004 215.5 82.1004 215.4 82.1004Z" fill="#8B75A8"/>
<path d="M213.301 76.9004C213.201 77.0004 213.201 77.1004 213.101 77.1004C213.201 77.0004 213.201 76.9004 213.301 76.9004Z" fill="#F6FCFB"/>
<path d="M213 77.2998C213 77.3998 212.9 77.3998 212.9 77.4998C213 77.3998 213 77.2998 213 77.2998Z" fill="#F6FCFB"/>
<path d="M240.2 94.0002C238.4 93.8002 236.5 93.9002 234.7 93.9002C234.2 93.9002 233.6 93.9002 233.1 93.7002C233.5 93.1002 233.6 92.7002 232.7 92.6002C232.4 92.6002 231.8 92.4002 231.9 92.2002C232.1 91.4002 231.3 91.7002 231 91.3002C231.4 91.0002 231.9 91.1002 231.9 90.5002C234.2 90.5002 236.5 90.5002 238.7 90.5002C239.2 90.5002 239.7 90.4002 240.2 90.2002C241.4 90.5002 241.8 91.1002 241.8 92.1002C241.8 93.2002 241.3 93.7002 240.2 94.0002Z" fill="#A75BA0"/>
<path d="M225.7 80.0998C226.6 79.6998 227.6 79.9998 228.5 79.8998C229.2 79.8998 230 79.8998 230.7 79.8998C234.3 79.9998 237.9 79.5998 241.5 79.8998C241.5 79.9998 241.5 79.9998 241.5 80.0998C236.3 80.0998 231 80.0998 225.7 80.0998Z" fill="#9768A5"/>
<path d="M242.101 80C242.101 79.5 242.101 79.5 242.901 79.5C242.801 79.7 242.501 79.9 242.101 80Z" fill="#9F61A1"/>
<path d="M242.901 79.3998C242.901 79.0998 242.801 78.7998 243.301 78.7998C243.301 79.0998 243.201 79.2998 242.901 79.3998Z" fill="#9F61A1"/>
<path d="M241.5 80.1004C241.5 80.0004 241.5 80.0004 241.5 79.9004C241.6 79.9004 241.6 80.0004 241.7 80.0004C241.7 80.1004 241.6 80.1004 241.5 80.1004Z" fill="#9F61A1"/>
<path d="M169.601 84.8005C170.001 83.8005 170.501 82.8005 170.901 81.9005C171.901 80.9005 172.301 79.6005 172.401 78.2005C172.601 78.1005 172.601 78.0005 172.601 77.8005C173.301 77.6005 173.701 77.2005 173.801 76.5005C173.801 76.5005 173.901 76.4005 173.901 76.5005C174.601 76.5005 175.301 76.6005 176.001 76.5005C176.601 76.5005 177.201 76.7005 177.501 77.2005C178.201 78.1005 179.001 79.0005 179.201 80.3005C179.301 81.3005 179.901 82.1005 180.301 82.9005C181.101 84.5005 181.501 86.2005 182.101 87.8005C182.401 88.7005 183.001 89.5005 183.201 90.3005C183.601 91.8005 184.501 93.0005 184.801 94.6005C184.901 95.4005 185.501 96.1005 185.401 96.9005C185.401 97.0005 185.401 97.1005 185.401 97.1005C186.701 97.6005 186.101 99.0005 186.801 99.8005C187.101 100.101 187.101 100.601 186.601 100.401C185.801 100.101 186.101 100.601 186.101 100.901C186.001 101.901 186.501 102.8 187.101 103.5C187.601 104.101 187.701 104.601 187.701 105.301C187.701 105.801 187.601 106.4 188.401 106.6C188.601 106.7 188.801 106.9 188.501 107.1C188.201 107.4 187.801 107.6 187.501 107.2C187.201 106.8 186.901 106.6 186.301 106.7C186.301 106.6 186.201 106.601 186.201 106.5C186.201 106.4 186.101 106.3 186.101 106.2C186.501 104.1 185.101 102.5 184.501 100.7C184.101 99.6005 183.701 98.3005 183.101 97.2005C182.201 95.6005 181.601 93.8005 181.001 92.0005C180.901 91.7005 180.701 91.2005 180.101 91.2005C180.101 91.1005 180.001 91.1005 180.001 91.0005C178.601 87.5005 177.101 84.0005 175.701 80.3005C174.301 83.7005 173.001 86.9005 171.701 90.0005C171.001 89.8005 171.301 89.3005 171.501 89.0005C172.101 88.0005 172.401 86.9005 172.901 85.8005C173.201 85.1005 173.001 84.9005 172.301 85.0005C172.301 84.0005 171.801 83.2005 171.201 83.5005C170.601 83.8005 170.101 84.3005 170.601 85.1005C170.701 85.3005 170.601 85.4005 170.401 85.4005C170.101 85.5005 169.901 85.8005 169.701 86.1005C169.301 87.0005 168.701 87.9005 168.501 88.9005C168.401 89.3005 168.301 89.7005 167.701 89.7005H167.601C167.601 89.7005 167.701 89.6005 167.601 89.6005C168.301 88.3005 168.801 86.9005 169.301 85.5005V85.4005C169.301 85.3005 169.401 85.2005 169.401 85.1005C169.501 84.9005 169.601 84.9005 169.601 84.8005ZM185.301 97.8005C184.901 97.3005 184.701 97.1005 184.501 96.8005C184.401 96.6005 184.201 96.3005 184.001 96.5005C183.801 96.6005 183.801 96.9005 183.701 97.1005C183.601 97.4005 183.801 97.5005 184.101 97.6005C184.401 97.6005 184.701 97.7005 185.301 97.8005ZM183.401 94.2005C183.601 94.2005 183.601 94.1005 183.601 94.0005C183.601 93.9005 183.401 93.8005 183.301 93.8005C183.101 93.8005 183.101 93.9005 183.101 94.0005C183.101 94.2005 183.301 94.2005 183.401 94.2005ZM183.101 92.9005C183.001 92.8005 183.001 92.7005 183.001 92.7005C182.901 92.7005 182.801 92.8005 182.801 92.9005C182.801 93.0005 182.901 93.1005 182.901 93.1005C182.901 93.0005 183.001 92.9005 183.101 92.9005ZM180.101 84.7005C180.101 84.8005 180.001 84.8005 180.001 84.9005C180.001 84.9005 180.101 85.0005 180.201 85.0005C180.201 84.9005 180.301 84.9005 180.301 84.8005C180.301 84.7005 180.201 84.7005 180.101 84.7005Z" fill="#6E89B2"/>
<path d="M172.201 85.0003C172.901 84.9003 173.101 85.2003 172.801 85.8003C172.301 86.8003 172.001 88.0003 171.401 89.0003C171.201 89.4003 170.901 89.8003 171.601 90.0003C171.701 90.0003 171.701 90.0003 171.801 90.0003C171.801 90.3003 172.001 90.4003 172.201 90.6003C172.701 90.8003 173.101 90.8003 173.601 90.6003C174.001 90.5003 174.401 90.7003 174.501 91.1003C174.701 91.6003 174.201 91.5003 174.001 91.5003C173.801 91.5003 173.701 91.6003 173.701 91.8003C173.701 92.1003 173.801 92.2003 174.101 92.3003C174.401 92.4003 174.901 92.7003 174.501 93.0003C173.401 93.8003 172.101 93.9003 170.901 93.6003C170.001 93.3003 169.901 93.6003 169.901 94.3003C169.001 94.4003 169.401 95.2003 169.301 95.7003C168.601 96.0003 168.701 96.7003 168.701 97.3003C168.701 97.4003 168.701 97.4003 168.701 97.5003C167.901 97.5003 167.801 97.9003 168.301 98.5003C168.201 98.7003 168.201 98.9003 168.101 99.1003C167.201 99.2003 167.701 99.9003 167.601 100.3C166.701 102.8 165.801 105.3 164.501 107.7L164.401 107.6C164.401 107.3 164.501 107 164.601 106.7C164.801 105.8 165.501 104.9 165.201 103.9C165.101 103.6 165.001 103.1 165.701 103.5C165.801 103.6 166.301 102.2 166.201 102.2C165.101 101.7 165.301 100.6 165.201 99.7003C165.201 99.3003 165.201 98.9003 165.001 98.5003C164.901 98.2003 164.501 98.3003 164.501 98.4003C164.701 99.3003 163.801 99.8003 163.601 100.5C163.201 101.9 162.401 103.2 162.001 104.6C161.901 104.9 161.701 105.2 161.301 105.2C161.801 103.8 162.301 102.5 162.801 101.1C162.801 101.1 162.901 101 162.801 100.9C163.401 99.8003 163.801 98.7003 164.201 97.6003C164.201 97.5003 164.301 97.5003 164.301 97.4003C164.301 97.3003 164.301 97.3003 164.301 97.2003C164.401 97.0003 164.501 96.8003 164.601 96.6003C164.901 95.9003 165.501 95.1003 165.301 94.6003C165.001 93.9003 164.001 94.4003 163.301 94.3003C162.301 94.2003 161.501 93.3003 161.501 92.2003C161.501 91.1003 162.301 90.3003 163.401 90.2003C164.401 90.1003 165.501 90.2003 166.501 90.2003C166.901 90.2003 167.201 90.3003 167.401 89.8003C168.001 89.9003 168.101 89.5003 168.201 89.0003C168.401 88.0003 169.001 87.1003 169.401 86.2003C169.501 85.9003 169.701 85.7003 170.101 85.5003C170.301 85.4003 170.401 85.4003 170.301 85.2003C169.801 84.4003 170.201 83.9003 170.901 83.6003C171.701 83.2003 172.201 84.0003 172.201 85.0003C171.801 85.0003 171.301 84.9003 171.301 85.5003C171.301 85.7003 171.301 85.9003 171.601 85.9003C172.101 85.9003 172.101 85.4003 172.201 85.0003C172.201 85.1003 172.201 85.0003 172.201 85.0003Z" fill="#6393B5"/>
<path d="M180.2 91.2002C180.8 91.2002 180.9 91.7002 181.1 92.0002C181.7 93.8002 182.3 95.5002 183.2 97.2002C183.8 98.3002 184.3 99.5002 184.6 100.7C185.2 102.5 186.6 104.1 186.2 106.2C185.1 103.5 184 100.9 182.9 98.2002C182 95.8002 181.1 93.5002 180.2 91.2002Z" fill="#7488AF"/>
<path d="M169.9 94.3C169.9 93.6 169.9 93.3 170.9 93.6C172.1 94 173.5 93.8 174.5 93C174.9 92.7 174.4 92.5 174.1 92.3C173.9 92.2 173.7 92.1 173.7 91.8C173.7 91.6 173.8 91.5 174 91.5C174.2 91.4 174.7 91.6 174.5 91.1C174.4 90.7 174 90.5 173.6 90.6C173.1 90.7 172.7 90.8 172.2 90.6C171.9 90.5 171.8 90.3 171.8 90C172.3 90 172.9 90 173.4 90C174.6 90 175.5 90.9 175.6 92C175.6 93.2 174.7 94 173.4 94.1C172.6 94.1 171.7 94.1 170.9 94.1C170.6 94.1 170.2 94 169.9 94.3Z" fill="#6E89B2"/>
<path d="M169.4 95.6998C169.5 95.1998 169 94.4998 170 94.2998C169.9 94.7998 169.7 95.2998 169.4 95.6998Z" fill="#6E89B2"/>
<path d="M168.4 98.2998C167.9 97.6998 167.9 97.3998 168.8 97.2998C168.7 97.6998 168.5 97.9998 168.4 98.2998Z" fill="#6E89B2"/>
<path d="M168.801 97.2006C168.801 96.6006 168.701 96.0006 169.401 95.6006C169.301 96.2006 169.101 96.7006 168.801 97.2006Z" fill="#6E89B2"/>
<path d="M167.601 100.1C167.701 99.7004 167.201 99.0004 168.101 98.9004C168.001 99.3004 167.901 99.8004 167.601 100.1Z" fill="#6E89B2"/>
<path d="M186.301 106.5C186.301 106.6 186.401 106.6 186.401 106.7C186.301 106.6 186.301 106.5 186.301 106.5Z" fill="#7488AF"/>
<path d="M180 91C180 91.1 180.1 91.1 180.1 91.2C180.1 91.1 180.1 91.1 180 91Z" fill="#7488AF"/>
<path d="M143.201 83.2004C143.201 83.1004 143.201 83.1004 143.201 83.0004C143.201 82.7004 143.101 82.4004 142.901 82.2004C142.901 82.1004 142.901 81.9004 142.901 81.8004C143.901 81.8004 143.601 82.7004 143.801 83.2004C145.101 86.3004 146.501 89.3004 147.501 92.4004C148.201 94.5004 149.401 96.3004 150.001 98.4004C150.301 99.4004 150.701 100.3 151.001 101.2C151.201 101.9 151.501 102.6 152.001 103.1C152.701 103.9 152.901 104.8 153.101 105.8C153.201 106.1 153.201 106.4 153.401 106.7C153.901 107.4 155.001 107.6 155.201 107C155.401 106.4 155.501 105.7 155.601 105C155.701 104.7 155.601 104.3 155.201 104.3C154.801 104.3 154.801 104.6 154.701 104.9C154.601 105.1 154.801 105.6 154.401 105.5C154.001 105.4 153.801 105 154.001 104.7C154.301 104 154.201 103.2 154.301 102.5C154.401 101.6 154.701 100.6 153.401 100C153.201 99.9004 152.301 99.6004 152.601 99.1004C153.101 98.0004 152.601 97.9004 151.701 97.9004C151.501 97.9004 151.401 97.9004 151.301 97.7004C151.301 97.6004 151.301 97.4004 151.501 97.4004C152.801 97.0004 152.201 96.4004 151.701 95.8004C151.401 95.3004 150.901 94.7004 151.201 94.3004C151.701 93.6004 151.101 93.4004 151.001 92.9004C150.801 92.3004 150.801 91.8004 150.001 91.7004C149.801 91.7004 149.501 91.5004 149.601 91.2004C150.101 89.8004 149.601 88.7004 148.501 87.8004C148.301 87.6004 148.201 87.4004 148.201 87.1004C148.201 86.7004 148.201 86.2004 148.101 85.8004C147.901 84.4004 147.001 83.2004 146.601 81.9004C146.301 81.1004 146.201 80.1004 145.401 79.5004C145.201 79.4004 145.201 79.0004 145.201 78.8004C145.201 77.8004 144.401 77.3004 143.801 76.7004C143.601 76.5004 143.301 76.5004 143.101 76.8004C142.701 77.4004 142.501 77.1004 142.201 76.8004C141.901 76.4004 141.401 76.2004 141.001 76.5004C140.001 77.3004 139.001 78.3004 138.801 79.7004C138.501 80.0004 138.401 80.4004 138.401 80.9004C138.101 81.2004 137.901 81.5004 137.801 81.9004C137.401 82.4004 137.801 83.4004 136.801 83.6004C137.501 81.5004 138.301 79.5004 139.301 77.5004C140.001 76.1004 141.301 75.9004 142.701 76.0004C144.001 76.1004 144.901 76.7004 145.401 77.8004C146.301 79.9004 147.201 82.0004 148.101 84.1004C149.501 87.5004 150.901 90.9004 152.301 94.2004C152.401 94.8004 152.701 95.4004 153.001 96.0004C153.001 96.1004 153.001 96.1004 153.001 96.1004C153.001 96.4004 153.101 96.7004 153.301 96.9004C153.301 97.0004 153.401 97.2004 153.401 97.3004C153.401 97.4004 153.501 97.4004 153.501 97.5004C154.501 100.2 155.601 102.8 156.801 105.4C156.801 105.5 156.801 105.7 156.901 105.8C156.901 106.8 156.701 107.6 155.701 108C154.901 108.3 154.101 108.2 153.401 107.6C153.001 107.2 152.801 106.8 152.601 106.3C149.901 99.6004 147.201 92.8004 144.501 86.1004C144.401 85.9004 144.301 85.8004 144.201 85.6004C144.101 85.0004 143.901 84.5004 143.601 84.1004C143.601 84.0004 143.601 84.0004 143.601 83.9004C143.601 83.8004 143.501 83.7004 143.501 83.7004C143.501 83.6004 143.501 83.6004 143.501 83.5004C143.401 83.5004 143.401 83.3004 143.201 83.2004Z" fill="#56A3B8"/>
<path d="M133.901 90C133.901 90.3 133.801 90.4 133.501 90.3C132.301 90 131.201 90.4 130.001 90.5C128.801 90.6 128.201 91.8 128.701 92.9C128.801 93.1 128.901 93.4 128.901 93.6C128.801 93.6 128.801 93.6 128.701 93.6C128.601 93.5 128.601 93.5 128.501 93.4C127.601 91.4 128.501 90.1 130.601 90.1C131.701 90 132.801 90 133.901 90Z" fill="#56A3B8"/>
<path d="M136.6 83.6006C136.7 84.2006 136.5 84.8006 136.2 85.3006C135.4 86.7006 135.2 88.3006 134.3 89.7006C134.2 89.9006 134.1 90.0006 133.9 90.0006C134.7 87.8006 135.5 85.7006 136.6 83.6006Z" fill="#56A3B8"/>
<path d="M131.2 96.6002C131.2 96.5002 131.2 96.3002 131.2 96.2002C131.2 96.2002 131.3 96.1002 131.2 96.1002C131.2 96.0002 131.3 95.9002 131.3 95.9002C131.3 95.8002 131.3 95.8002 131.3 95.7002C131.4 95.7002 131.4 95.7002 131.5 95.7002C131.5 96.0002 131.8 96.5002 131.2 96.6002Z" fill="#56A3B8"/>
<path d="M128.5 93.2998C128.6 93.3998 128.6 93.3998 128.7 93.4998C128.6 93.3998 128.6 93.3998 128.5 93.2998Z" fill="#F6FCFB"/>
<path d="M129.1 93.7C129 93.7 129 93.7 128.9 93.7C128.9 93.6 128.9 93.6 128.9 93.5C128.9 93.6 129 93.7 129.1 93.7Z" fill="#56A3B8"/>
<path d="M131.401 95.7998C131.401 95.8998 131.301 95.9998 131.301 95.9998C131.301 95.9998 131.301 95.8998 131.401 95.7998Z" fill="#F6FCFB"/>
<path d="M138.601 79.8004C138.801 78.4004 139.701 77.5004 140.801 76.6004C141.201 76.3004 141.701 76.4004 142.001 76.9004C142.301 77.3004 142.601 77.6004 142.901 76.9004C143.101 76.6004 143.401 76.6004 143.601 76.8004C144.201 77.4004 145.001 77.9004 145.001 78.9004C145.001 79.1004 145.101 79.5004 145.201 79.6004C146.001 80.2004 146.101 81.2004 146.401 82.0004C146.901 83.3004 147.701 84.5004 147.901 85.9004C148.001 86.4004 148.001 86.8004 148.001 87.2004C148.001 87.5004 148.001 87.7004 148.301 87.9004C149.401 88.8004 150.001 89.9004 149.401 91.3004C149.301 91.7004 149.501 91.8004 149.801 91.8004C150.601 91.9004 150.601 92.4004 150.801 93.0004C150.901 93.5004 151.501 93.7004 151.001 94.4004C150.701 94.8004 151.201 95.5004 151.501 95.9004C151.901 96.5004 152.601 97.2004 151.301 97.5004C151.201 97.5004 151.101 97.7004 151.101 97.8004C151.101 98.0004 151.301 98.0004 151.501 98.0004C152.401 97.9004 152.901 98.1004 152.401 99.2004C152.201 99.7004 153.001 100 153.201 100.1C154.501 100.7 154.201 101.7 154.101 102.6C154.001 103.3 154.201 104.1 153.801 104.8C153.701 105.1 153.801 105.6 154.201 105.6C154.701 105.7 154.501 105.2 154.501 105C154.601 104.7 154.601 104.4 155.001 104.4C155.401 104.4 155.501 104.8 155.401 105.1C155.301 105.8 155.201 106.4 155.001 107.1C154.801 107.7 153.701 107.5 153.201 106.8C153.001 106.5 153.001 106.2 152.901 105.9C152.701 104.9 152.501 104 151.801 103.2C151.401 102.7 151.001 102 150.801 101.3C150.501 100.3 150.001 99.4004 149.801 98.5004C149.201 96.4004 147.901 94.5004 147.301 92.5004C146.301 89.3004 144.801 86.3004 143.601 83.3004C143.401 82.8004 143.701 81.9004 142.701 81.9004V81.8004C142.601 81.3004 143.101 80.5004 142.101 80.4004C141.901 79.6004 141.401 80.2004 141.401 80.4004C141.101 81.6004 140.001 82.5004 140.401 83.9004C140.101 84.0004 139.901 84.0004 139.601 84.1004C139.401 83.4004 140.301 82.8004 139.901 82.1004C139.501 82.1004 139.601 82.8004 139.201 82.5004C138.701 82.2004 139.301 82.0004 139.201 81.7004C139.201 81.0004 139.501 80.1004 138.601 79.8004ZM153.001 100.7C152.901 101 152.801 101.2 152.701 101.5C152.701 101.8 152.801 102.1 153.001 102.4C153.101 102.5 153.301 102.5 153.401 102.4C153.701 102.1 153.501 101.8 153.401 101.5C153.401 101.2 153.401 100.9 153.001 100.7ZM150.501 94.0004C150.401 94.0004 150.401 93.9004 150.301 93.9004C150.301 93.9004 150.301 94.0004 150.201 94.1004C150.301 94.1004 150.301 94.2004 150.401 94.2004C150.501 94.2004 150.501 94.1004 150.501 94.0004Z" fill="#49A5BE"/>
<path d="M141.1 90.2004C141.8 90.9004 142.4 91.6004 142 92.7004C141.7 93.5004 141 93.9004 140.2 94.0004C140 94.0004 139.8 94.0004 139.5 94.0004C138.6 94.0004 137.6 94.0004 136.7 94.0004C136.8 93.5004 137.2 93.6004 137.5 93.6004C138.4 93.6004 139.3 93.6004 140.2 93.4004C141.5 93.1004 141.7 92.3004 141 91.3004C140.5 90.5004 139.9 90.3004 139 90.5004C138.6 90.6004 138.4 90.3004 138.4 90.0004C139.3 90.0004 140.2 89.9004 141.1 90.2004Z" fill="#56A3B8"/>
<path d="M139.7 83.9998C140 83.8998 140.2 83.8998 140.5 83.7998C140.5 83.9998 140.5 84.1998 140.4 84.2998C140 84.7998 139.8 85.3998 139.7 86.0998C139.7 86.0998 139.6 86.1998 139.7 86.2998C139.5 86.5998 139.3 86.8998 139.3 87.2998C138.8 88.0998 138.5 89.0998 138.2 89.9998C137.5 89.8998 137.8 89.3998 137.9 89.0998C138.5 87.3998 139.3 85.7998 139.7 83.9998Z" fill="#56A3B8"/>
<path d="M136.4 94.3001C136.3 94.7001 136.2 95.1001 136 95.4001C135.5 96.3001 135.1 97.3001 134.8 98.3001C134.4 99.3001 133.9 100.3 133.5 101.2C133.4 100.5 133.6 99.9001 134 99.2001C134.7 97.8001 135.1 96.4001 135.7 95.0001C135.8 94.7001 135.8 94.2001 136.4 94.3001Z" fill="#56A3B8"/>
<path d="M132.2 104.5C131.7 105.7 131.7 107 130.5 107.8C130.5 107.2 131.8 104.8 132.2 104.5Z" fill="#56A3B8"/>
<path d="M133.4 101.7C133.1 102.7 132.7 103.7 132.2 104.6C132.3 103.5 132.3 102.4 133.4 101.7Z" fill="#56A3B8"/>
<path d="M132.1 94.1002C131.1 93.9002 130 94.4002 129 93.7002C129.7 93.7002 130.4 93.7002 131.1 93.7002C131.5 93.7002 131.9 93.7002 132.1 94.1002Z" fill="#56A3B8"/>
<path d="M137.601 81.9004C137.601 81.5004 137.901 81.2004 138.201 80.9004C138.601 80.9004 138.801 81.2004 138.701 81.5004C138.501 82.1004 138.001 81.8004 137.601 81.9004Z" fill="#49A5BE"/>
<path d="M130.5 98.1006C130.6 97.6006 130.8 97.0006 131.2 96.6006C131.1 97.2006 131.5 97.9006 130.5 98.1006Z" fill="#56A3B8"/>
<path d="M131.801 95.2006C131.901 94.8006 132.001 94.5006 132.201 94.1006C132.501 94.6006 132.401 95.0006 131.801 95.2006Z" fill="#56A3B8"/>
<path d="M131.601 95.6002C131.601 95.4002 131.601 95.3002 131.801 95.2002C131.801 95.4002 131.801 95.5002 131.601 95.6002Z" fill="#56A3B8"/>
<path d="M243.101 77.2002C243.301 77.3002 243.301 77.4002 243.301 77.6002C243.101 77.6002 243.101 77.4002 243.101 77.2002Z" fill="#9F61A1"/>
<path d="M230.501 108C230.501 107.4 230.201 107.4 229.701 107.4C228.901 107.4 228.201 107.5 227.401 107.2C227.001 107 226.901 106.9 227.301 106.5C227.601 106.3 228.201 106.2 228.101 105.7C228.001 105.2 227.401 105.3 227.001 105.1C226.901 105 226.701 105.1 226.601 104.9C226.701 104.8 226.701 104.7 226.801 104.7C229.301 104.7 231.701 104.7 234.201 104.5C234.501 104.5 234.801 104.6 235.001 104.7C235.101 105.3 235.801 105.2 236.101 105.5C236.201 105.6 236.501 105.7 236.401 105.9C236.401 106.1 236.201 106.1 236.001 106.1C235.601 106.2 235.301 106.3 234.901 106.4C234.701 106.5 234.401 106.5 234.501 106.8C234.501 107.1 234.801 107.2 235.001 107.1C236.801 106.6 238.401 107.3 240.101 107.7C241.101 107.9 241.901 107.6 242.601 106.9C242.801 106.7 243.001 106.5 243.301 106.5C243.201 106.7 243.101 107 243.001 107.2C242.601 107.4 242.301 107.8 241.801 107.8C239.701 107.8 237.701 107.8 235.601 107.7C235.501 107.5 235.301 107.5 235.201 107.7C234.901 107.7 234.701 107.8 234.401 107.8C233.901 107.8 233.501 107.8 233.001 107.7C232.901 107.5 232.701 107.5 232.601 107.7C232.301 107.7 232.101 107.7 231.801 107.7C231.501 107.4 231.301 107.4 231.001 107.7C231.001 108 230.801 108 230.501 108Z" fill="#9F61A1"/>
<path d="M231.301 108C231.601 107.7 231.801 107.7 232.101 108C231.801 108 231.501 108 231.301 108Z" fill="#9768A5"/>
<path d="M232.801 108.001C232.901 107.801 233.101 107.801 233.201 108.001C233.101 108.001 233.001 108.001 232.801 108.001Z" fill="#9768A5"/>
<path d="M173.801 76.5C173.801 77.3 173.301 77.6 172.601 77.8C172.601 77.7 172.601 77.6 172.701 77.4C172.901 77.2 173.101 76.9 173.301 76.7C173.401 76.7 173.601 76.6 173.801 76.5Z" fill="#7488AF"/>
<path d="M172.4 78.2002C172.3 79.6002 171.9 80.9002 170.9 81.9002C171.1 81.3002 171.4 80.6002 171.6 80.0002C171.7 79.9002 171.7 79.7002 171.8 79.6002C172 79.4002 172.1 79.1002 172.1 78.8002V78.7002C172.2 78.5002 172.3 78.4002 172.4 78.2002Z" fill="#7488AF"/>
<path d="M161.4 104.9C161.8 104.9 162 104.6 162.1 104.3C162.5 102.9 163.3 101.6 163.7 100.2C163.9 99.5003 164.8 99.0003 164.6 98.1003C164.6 97.9003 164.9 97.9003 165.1 98.2003C165.3 98.6003 165.3 99.0003 165.3 99.4003C165.4 100.3 165.2 101.3 166.3 101.9C166.5 102 166 103.3 165.8 103.2C165.1 102.8 165.2 103.4 165.3 103.6C165.6 104.7 164.9 105.5 164.7 106.4C164.6 106.7 164.5 107 164.5 107.3C163.5 107.7 162.6 107.8 161.5 107.5C160.7 106.8 160.9 105.9 161.4 104.9Z" fill="#56A3B8"/>
<path d="M231.9 90.6006C231.9 91.2006 231.3 91.1006 231 91.4006C231.2 91.7006 232 91.5006 231.9 92.3006C231.8 92.5006 232.4 92.7006 232.7 92.7006C233.6 92.8006 233.5 93.2006 233.1 93.8006C232.1 94.2006 231.1 94.0006 230.2 94.0006C228.7 93.9006 227.2 94.1006 225.8 93.5006C225.6 93.4006 225.3 93.4006 225.2 93.1006C225.3 92.8006 225.6 92.9006 225.8 92.8006C226.1 92.6006 226.6 92.8006 226.7 92.3006C226.8 91.8006 226.3 91.9006 226.1 91.8006C225.9 91.7006 225.8 91.5006 225.9 91.3006C226.1 91.0006 226.3 90.7006 226.6 90.7006C228.2 90.6006 230 90.6006 231.9 90.6006Z" fill="#9F61A1"/>
<path d="M181 82.9004C181 83.0004 181.1 83.0004 181.1 83.1004C181.1 83.0004 181 82.9004 181 82.9004Z" fill="#F6FCFB"/>
<path d="M180.601 81.9004C180.601 82.0004 180.701 82.1004 180.701 82.2004C180.701 82.1004 180.601 82.0004 180.601 81.9004Z" fill="#F6FCFB"/>
<path d="M182.2 85.7998C182.2 85.8998 182.3 85.8998 182.3 85.9998C182.3 85.8998 182.2 85.7998 182.2 85.7998Z" fill="#F6FCFB"/>
<path d="M169.5 85C169.5 85.1 169.4 85.2 169.4 85.3C169.4 85.2 169.5 85.1 169.5 85Z" fill="#F6FCFB"/>
<path d="M164.5 97.2002C164.5 97.3002 164.4 97.3002 164.4 97.4002C164.4 97.3002 164.4 97.3002 164.5 97.2002Z" fill="#F6FCFB"/>
<path d="M153.5 97.6004C153.5 97.5004 153.4 97.5004 153.4 97.4004C153.4 97.4004 153.4 97.5004 153.5 97.6004Z" fill="#F6FCFB"/>
<path d="M185.3 97.8005C184.7 97.7005 184.4 97.6005 184.1 97.6005C183.9 97.5005 183.7 97.4005 183.7 97.1005C183.8 96.9005 183.8 96.6005 184 96.5005C184.2 96.3005 184.4 96.6005 184.5 96.8005C184.7 97.0005 184.9 97.3005 185.3 97.8005Z" fill="#7488AF"/>
<path d="M183.401 94.2007C183.301 94.2007 183.201 94.1007 183.101 94.0007C183.101 93.9007 183.101 93.7007 183.301 93.8007C183.401 93.8007 183.501 93.9007 183.601 94.0007C183.601 94.1007 183.501 94.2007 183.401 94.2007Z" fill="#7488AF"/>
<path d="M183.101 92.9006C183.001 93.0006 182.901 93.0006 182.901 93.0006C182.801 93.0006 182.801 92.9006 182.801 92.8006C182.801 92.7006 182.901 92.6006 183.001 92.6006C183.001 92.7006 183.001 92.8006 183.101 92.9006Z" fill="#7488AF"/>
<path d="M180.1 84.7002C180.2 84.7002 180.2 84.7002 180.3 84.8002C180.3 84.8002 180.3 84.9002 180.2 85.0002C180.1 85.0002 180.1 85.0002 180 84.9002C180.1 84.8002 180.1 84.7002 180.1 84.7002Z" fill="#7488AF"/>
<path d="M172.4 78.1998C172.4 77.9998 172.4 77.8998 172.6 77.7998C172.6 77.9998 172.6 78.0998 172.4 78.1998Z" fill="#7488AF"/>
<path d="M172.2 85.0004C172.2 85.0004 172.2 85.1004 172.2 85.0004C172.1 85.5004 172 85.9004 171.5 85.9004C171.3 85.9004 171.2 85.7004 171.2 85.5004C171.4 84.9004 171.8 85.0004 172.2 85.0004Z" fill="#6E89B2"/>
<path d="M143.2 83.2002C143.3 83.3002 143.4 83.4002 143.4 83.6002C143.3 83.5002 143.3 83.4002 143.2 83.2002Z" fill="#F6FCFB"/>
<path d="M143.4 83.7998C143.4 83.8998 143.5 83.9998 143.5 83.9998C143.5 83.8998 143.5 83.8998 143.4 83.7998Z" fill="#F6FCFB"/>
<path d="M142.201 80.4004C141.501 81.0004 141.501 81.9004 141.101 82.6004C140.901 83.0004 140.801 83.5004 140.501 83.9004C140.101 82.6004 141.201 81.6004 141.501 80.4004C141.501 80.2004 142.001 79.6004 142.201 80.4004Z" fill="#56A3B8"/>
<path d="M153.001 100.7C153.301 100.9 153.401 101.2 153.501 101.4C153.601 101.7 153.801 102 153.501 102.3C153.401 102.4 153.201 102.5 153.101 102.3C152.901 102.1 152.801 101.8 152.801 101.4C152.801 101.2 152.901 101 153.001 100.7Z" fill="#56A3B8"/>
<path d="M142.8 81.8004C142.5 81.4004 142.3 80.9004 142.2 80.4004C143.2 80.5004 142.7 81.3004 142.8 81.8004Z" fill="#56A3B8"/>
<path d="M150.5 94.0004C150.5 94.1004 150.5 94.1004 150.4 94.2004C150.4 94.2004 150.3 94.2004 150.2 94.1004C150.2 94.0004 150.2 94.0004 150.3 93.9004C150.4 94.0004 150.4 94.0004 150.5 94.0004Z" fill="#56A3B8"/>
<path d="M235.701 108.001C235.601 108.001 235.401 108.001 235.301 108.001C235.501 107.801 235.601 107.801 235.701 108.001Z" fill="#9768A5"/>
</svg>
