<svg width="133" height="50" viewBox="0 0 133 50" fill="none" xmlns="http://www.w3.org/2000/svg">
<path d="M19.7999 24.6798L27.7199 9.51977C27.7623 9.37549 27.7716 9.22351 27.7471 9.07514C27.7226 8.92677 27.665 8.78584 27.5785 8.66283C27.492 8.53981 27.3789 8.43789 27.2475 8.36465C27.1162 8.2914 26.9701 8.24872 26.8199 8.23978H23.7499C23.5399 8.21669 23.3291 8.27556 23.1614 8.40411C22.9937 8.53266 22.8822 8.72097 22.8499 8.92977L14.6799 24.7098L25.1099 44.9398C25.1533 45.1394 25.2696 45.3156 25.4361 45.434C25.6025 45.5524 25.8072 45.6044 26.0099 45.5798H29.0899C29.2189 45.5831 29.3472 45.559 29.4661 45.509C29.5851 45.459 29.6921 45.3843 29.7799 45.2898C29.9443 45.1089 30.0368 44.8742 30.0399 44.6298C30.0399 44.4798 19.7999 24.6798 19.7999 24.6798Z" fill="#43AAF3"/>
<path d="M5.15004 24.7301L0.550046 33.4401C0.507674 33.5844 0.49838 33.7364 0.52287 33.8848C0.547361 34.0331 0.605002 34.1741 0.691495 34.2971C0.777988 34.4201 0.891111 34.522 1.02244 34.5953C1.15377 34.6685 1.29993 34.7112 1.45004 34.7201H4.52005C4.73006 34.7432 4.94087 34.6843 5.10855 34.5558C5.27622 34.4272 5.38781 34.2389 5.42004 34.0301L10.27 24.7001L5.80005 16.1601C5.75466 15.9616 5.63788 15.7867 5.47194 15.6687C5.30599 15.5507 5.10244 15.4978 4.90004 15.5201H1.82005C1.69011 15.5167 1.56099 15.5418 1.44178 15.5936C1.32258 15.6455 1.21617 15.7228 1.13005 15.8201C0.965641 16.001 0.873141 16.2357 0.870038 16.4801C0.870038 16.6201 5.15004 24.7301 5.15004 24.7301Z" fill="#43AAF3"/>
<path d="M14.67 14.7999L11.67 8.87986C11.6246 8.68135 11.5078 8.50646 11.3419 8.38845C11.1759 8.27044 10.9724 8.21756 10.77 8.23986H7.68999C7.56005 8.23644 7.43093 8.26152 7.31172 8.31335C7.19252 8.36518 7.08611 8.4425 6.99998 8.53986C6.83558 8.72069 6.74309 8.95547 6.73999 9.19986C6.73999 9.28986 9.81998 15.2599 12.15 19.7799L14.67 14.7999Z" fill="#FF00FF"/>
<path d="M12.09 29.6499L6.73997 39.8999C6.68634 40.0441 6.67012 40.1995 6.69285 40.3517C6.71559 40.5038 6.77652 40.6477 6.86996 40.7699C6.95612 40.8941 7.07128 40.9955 7.20545 41.0652C7.33963 41.1349 7.48877 41.1708 7.63996 41.1699H10.72C10.9295 41.1905 11.1391 41.1307 11.3062 41.0026C11.4733 40.8745 11.5855 40.6876 11.62 40.4799L14.62 34.6099L12.09 29.6499Z" fill="#FF00FF"/>
<path d="M55.89 25.3801L60.64 37.8801H58.73C58.5002 37.8864 58.2735 37.8267 58.0767 37.7079C57.8799 37.5891 57.7214 37.4164 57.62 37.2101L54.52 28.7501L51.14 37.8801H48.37L53.12 25.3801L48.34 12.8501H50.07C51.29 12.8501 51.42 13.6101 51.42 13.6101L54.52 22.0101L57.87 12.8501H60.67L55.89 25.3801Z" fill="#0C1324"/>
<path d="M78.09 14.2301V37.8801H75.5V12.8801H76.79C76.9658 12.8771 77.1404 12.9103 77.3028 12.9777C77.4652 13.0452 77.612 13.1454 77.7339 13.272C77.8559 13.3987 77.9505 13.5491 78.0117 13.714C78.073 13.8788 78.0996 14.0545 78.09 14.2301Z" fill="#0C1324"/>
<path d="M93.12 18.3702C93.103 16.8852 93.6622 15.4515 94.68 14.3702C95.68 13.2402 97.78 12.9302 99.27 12.9302C100.76 12.9302 102.82 13.2402 103.86 14.3702C104.878 15.4515 105.437 16.8852 105.42 18.3702V32.4302C105.434 33.9145 104.875 35.3471 103.86 36.4302C102.86 37.5502 100.75 37.8602 99.27 37.8602C97.79 37.8602 95.74 37.5502 94.69 36.4302C93.6685 35.3504 93.1057 33.9165 93.12 32.4302V18.3702ZM95.64 32.4302C95.6274 33.2185 95.9255 33.98 96.47 34.5502C97.03 35.1402 98.47 35.1802 99.27 35.1802C100.07 35.1802 101.51 35.1802 102.06 34.5502C102.608 33.9816 102.91 33.2199 102.9 32.4302V18.3702C102.913 17.577 102.611 16.8112 102.06 16.2402C101.51 15.6602 100.06 15.6102 99.27 15.6102C98.48 15.6102 97.03 15.6102 96.47 16.2402C95.9231 16.8128 95.6247 17.5785 95.64 18.3702V32.4302Z" fill="#0C1324"/>
<path d="M130.21 31.2201V12.8501H132.8V37.8501H131C130.741 37.8709 130.481 37.8121 130.256 37.6817C130.031 37.5513 129.851 37.3554 129.74 37.1201L123.12 19.6201V37.8801H120.53V12.8801H122.4C122.674 12.8475 122.951 12.913 123.182 13.0649C123.412 13.2168 123.582 13.4453 123.66 13.7101L130.21 31.2201Z" fill="#0C1324"/>
<path d="M36.76 0.779785V49.6298" stroke="black" stroke-width="0.5" stroke-miterlimit="10"/>
</svg>
