<svg width="31" height="39" viewBox="0 0 31 39" fill="none" xmlns="http://www.w3.org/2000/svg">
<path d="M19.8899 17.12L27.8099 1.95997C27.8631 1.81512 27.8782 1.65902 27.8537 1.50666C27.8291 1.35431 27.7659 1.21082 27.6699 1.08997C27.5872 0.964594 27.4742 0.86217 27.3413 0.792231C27.2085 0.722292 27.06 0.687115 26.9099 0.689971H23.8299C23.6199 0.666885 23.4091 0.725754 23.2414 0.854304C23.0737 0.982854 22.9621 1.17116 22.9299 1.37997L14.7699 17.16L25.1899 37.39C25.2354 37.5877 25.3526 37.7616 25.5188 37.878C25.685 37.9943 25.8885 38.0449 26.0899 38.02H29.1699C29.2991 38.0253 29.428 38.0021 29.5473 37.952C29.6665 37.9019 29.7733 37.8261 29.8599 37.73C29.9448 37.6426 30.0114 37.5393 30.0561 37.426C30.1007 37.3127 30.1224 37.1917 30.1199 37.07C30.1199 36.93 19.8899 17.07 19.8899 17.07" fill="#43AAF3"/>
<path d="M5.22984 17.1799L0.62985 25.8899C0.589256 26.0336 0.581336 26.1845 0.606672 26.3316C0.632007 26.4787 0.689949 26.6183 0.776258 26.7401C0.862567 26.8619 0.975051 26.9628 1.10545 27.0354C1.23585 27.1081 1.38086 27.1506 1.52984 27.1599H4.60985C4.8194 27.1805 5.02897 27.1207 5.19607 26.9926C5.36318 26.8645 5.47535 26.6777 5.50985 26.4699L10.3499 17.1399L5.87985 8.55993C5.83645 8.36103 5.71975 8.18577 5.55298 8.06903C5.3862 7.95229 5.18158 7.90263 4.97984 7.92993H1.89985C1.7706 7.92457 1.64174 7.94779 1.52247 7.99792C1.40321 8.04804 1.29648 8.12384 1.20985 8.21993C1.04544 8.40076 0.952945 8.63555 0.949842 8.87993C0.949842 9.01993 5.22984 17.1399 5.22984 17.1399" fill="#43AAF3"/>
<path d="M14.7499 7.23994L11.6899 1.31994C11.6444 1.12218 11.5272 0.948313 11.361 0.831947C11.1947 0.71558 10.9913 0.664986 10.7899 0.689944H7.68987C7.55904 0.683798 7.42846 0.706603 7.30746 0.756732C7.18646 0.806861 7.07802 0.883075 6.98987 0.979942C6.82546 1.16078 6.73296 1.39556 6.72986 1.63995C6.72986 1.72995 9.80986 7.70994 12.1399 12.2199L14.7499 7.23994Z" fill="#FF00FF"/>
<path d="M12.1798 22.09L6.81984 32.34C6.76663 32.4848 6.75156 32.6409 6.77608 32.7933C6.8006 32.9456 6.86388 33.0891 6.95984 33.21C7.04339 33.3368 7.15801 33.4401 7.29279 33.5102C7.42757 33.5802 7.57802 33.6145 7.72983 33.61H10.7998C11.0094 33.6306 11.2189 33.5708 11.386 33.4426C11.5532 33.3145 11.6653 33.1277 11.6998 32.92L14.6998 27.06L12.1798 22.09Z" fill="#FF00FF"/>
</svg>
