<svg xmlns="http://www.w3.org/2000/svg" width="119" height="19" viewBox="0 0 119 19"><g><g><path fill="#3ad4ce" d="M13.738 19.009H8.781c-.166 0-.172.027-.172-.175v-1.922l.001-.098c0-.056.022-.087.082-.083.037.002.074 0 .111 0h3.036c.037 0 .074-.002.111 0 .054.002.076-.024.073-.076v-.111-3.606c0-.038.002-.075 0-.112-.002-.054.024-.076.076-.073h2.13c.045 0 .068.023.07.068l.001.125V16.608c.002.12.002.122.124.122h2.005c.134 0 .135 0 .135-.138l.001-4.22c0-.207-.024-.182.187-.182l1.908-.001c.027 0 .055.003.083 0 .07-.007.107.016.1.093-.004.027 0 .055 0 .083v6.475c0 .19.012.169-.176.169h-4.929z"/></g><g><path fill="#3ad4ce" d="M5.781.83h4.984c.12.002.122.002.122.124v2.032c0 .123-.002.124-.136.124l-3.09.001c-.197 0-.177-.023-.177.18v3.605c0 .033-.003.066 0 .098.008.076-.03.093-.099.093H5.311c-.102 0-.104-.004-.105-.114V3.325v-.097c-.002-.115-.002-.117-.114-.117-.228-.002-.455 0-.682 0H3.087c-.143 0-.144 0-.144.142V7.486c0 .18.018.165-.164.166H.816c-.163 0-.15.008-.15-.15V.985.902C.662.848.69.828.74.83h.112z"/></g><g><path fill="#3ad4ce" d="M18.842 5.937v4.943c0 .19.016.174-.171.174h-1.935c-.032 0-.065-.002-.097 0-.053.002-.076-.023-.074-.075v-.125l-.001-7.561c0-.207.023-.182-.188-.182l-4.148-.001h-.098c-.104-.003-.106-.003-.106-.111V.938c0-.105.003-.105.109-.108h6.556c.16 0 .153-.012.153.15v4.957z"/></g><g><path fill="#3ad4ce" d="M.665 13.894V8.993 8.91c.002-.12.002-.122.124-.122h2.018c.135 0 .136 0 .136.138V16.527c0 .037.003.075 0 .112-.008.076.03.098.098.092.033-.003.066 0 .098 0h4.176c.19 0 .17-.016.17.174v1.935c0 .032-.003.065 0 .097.001.055-.028.074-.078.072-.033-.002-.065 0-.098 0H.837c-.188 0-.17.017-.17-.173v-4.942z"/></g><g><path fill="#3cd5cf" d="M48.582 7.69c0-2.105-.002-4.21 0-6.314.002-.635.008-.637.654-.64.579-.004 1.157-.004 1.735 0 .66.002.66.005.665.696v.416c0 3.84.002 7.678-.002 11.517-.001.491.036.973.247 1.421.33.705.843 1.118 1.674 1.111 2.174-.019 4.348 0 6.52-.008.948-.003 1.66-.618 1.814-1.569.055-.34.057-.69.057-1.037.004-3.816.003-7.632.003-11.447 0-.139-.002-.278 0-.417.01-.679.01-.68.696-.684.647-.003 1.295.01 1.942-.004.309-.006.498.077.459.426-.003.023 0 .047 0 .07-.001 4.232.03 8.464-.014 12.696-.025 2.381-1.551 4.332-3.69 4.905-.516.138-1.048.174-1.58.176-1.964.008-3.93-.012-5.895.007-3.09.03-4.551-1.927-5.067-3.713a5.829 5.829 0 0 1-.22-1.643c.006-1.988.002-3.977.002-5.966z"/></g><g><path fill="#3cd5cf" d="M88.771 19.004c-1.188 0-2.316-.003-3.444.002-.308.001-.43-.229-.582-.43l-4.22-5.589c-.125-.164-.229-.345-.398-.456-.236.028-.3.222-.408.364-1.375 1.83-2.762 3.65-4.11 5.497-.337.463-.702.652-1.27.627-.94-.042-1.883-.012-2.84-.012-.06-.279.098-.4.201-.538 2.035-2.72 4.074-5.438 6.11-8.157.35-.468.348-.47.001-.932l-5.969-7.916c-.148-.197-.325-.378-.41-.73h1.416c.601 0 1.203.022 1.803-.008.37-.018.59.127.803.413 1.366 1.836 2.75 3.66 4.126 5.486.083.111.168.221.25.333.156.218.312.251.486.014.233-.316.475-.625.711-.94 1.207-1.607 2.427-3.206 3.61-4.832.267-.366.547-.487.981-.475 1.015.03 2.031.01 3.044.01.075.28-.128.406-.245.562-1.982 2.644-3.97 5.284-5.95 7.93-.495.658-.504.556.002 1.228 1.988 2.64 3.98 5.277 5.97 7.916.122.163.281.307.332.633z"/></g><g><path fill="#3cd5cf" d="M95.028 9.844V1.591c0-.162.008-.324 0-.486-.011-.261.102-.384.368-.37.138.007.277 0 .416 0h13.038c.81 0 .768-.056.768.734 0 .578.005 1.156-.001 1.734-.006.574-.01.582-.568.586-.878.006-1.757.001-2.635.001h-7.49c-.162 0-.324.009-.485.001-.276-.014-.358.129-.358.381.005 1.595.01 3.191-.004 4.786-.003.364.177.417.472.413.786-.008 1.572-.002 2.358-.002 2.08 0 4.16-.002 6.24.001.65.001.653.006.657.64.003.67-.008 1.341.003 2.011.005.299-.12.41-.411.406-.671-.01-1.341-.002-2.011-.002-2.22 0-4.44-.002-6.658.001-.638.001-.643.006-.644.651-.003 1.78.002 3.56-.003 5.34-.001.572-.011.58-.583.588-.647.009-1.294.009-1.942 0-.514-.007-.523-.016-.525-.561-.005-1.364-.002-2.728-.002-4.092V9.844z"/></g><g><path fill="#3cd5cf" d="M28.175 9.8V1.612c0-.139.013-.279-.002-.416-.04-.375.143-.476.488-.467.693.017 1.388-.003 2.081.007.472.007.481.017.485.527.008.948.003 1.896.003 2.844V15.207c.005.678.005.683.683.683 3.307.002 6.613.001 9.92.001.162 0 .324.011.485-.002.323-.025.46.104.454.438a60.85 60.85 0 0 0 0 2.22c.006.314-.092.486-.43.461-.116-.009-.232 0-.348 0-4.324 0-8.647-.003-12.97 0-1.01.001-.846-.045-.847-.884-.005-2.775-.002-5.55-.002-8.325z"/></g><g><path fill="#3cd5cf" d="M118.745 12.648c0 1.895.002 3.789-.001 5.684-.001.663-.007.669-.64.674-.67.006-1.34-.008-2.01.005-.33.007-.468-.133-.446-.453.004-.046 0-.092 0-.14 0-3.88-.002-7.762.002-11.644 0-.582.015-.59.574-.595a96.605 96.605 0 0 1 1.94 0c.569.005.578.01.579.577.005 1.964.002 3.928.002 5.892z"/></g><g><path fill="#3cd5cf" d="M118.743 2.248c0 .391-.005.784.002 1.176.005.265-.114.37-.376.368a115.35 115.35 0 0 0-2.353 0c-.27.004-.37-.114-.368-.372.005-.784.004-1.57.003-2.353-.001-.227.102-.334.335-.332.807.003 1.615.003 2.423.001.228 0 .336.104.334.334-.004.392-.001.785-.001 1.177z"/></g></g></svg>