<svg xmlns="http://www.w3.org/2000/svg" width="596" height="72" viewBox="0 0 596 72"><g><g><path fill="#272152" d="M99.849 71.126V25.018c0-6.378-2.823-9.62-8.678-9.62H66.705v55.728h-16.31V15.399h-33.04v55.727H.943V.343H94.62c14.742 0 21.643 7.738 21.643 23.002v47.78z"/></g><g><path fill="#272152" d="M137.793 71.126c-12.024 0-16.415-5.646-16.415-15.997V45.51c0-10.35 4.39-15.996 16.415-15.996h60.014v-4.496c0-6.482-2.823-9.619-8.783-9.619h-65.868V.343h69.423c14.742 0 21.538 7.632 21.538 23.002v47.781zm60.014-29.798h-54.054c-4.391 0-6.064 2.196-6.064 6.169v3.555c0 4.182 1.673 6.378 6.064 6.378h54.054z"/></g><g><path fill="#272152" d="M219.233 71.126V57.43h67.333c4.286 0 6.063-2.196 6.063-6.378v-3.346c0-3.87-1.672-6.273-5.959-6.273h-51.022c-12.024 0-16.415-5.75-16.415-16.101V16.34c0-10.351 4.391-15.997 16.415-15.997h71.62V14.04h-65.66c-4.392 0-6.064 2.09-6.064 6.169v2.822c0 3.973 1.672 6.274 6.064 6.274h50.917c12.128 0 16.52 5.75 16.52 16.1v9.724c0 10.35-4.392 15.997-16.52 15.997z"/></g><g><path fill="#272152" d="M347.095 71.126V15.399h-36.803V.343h90.125v15.056h-37.011v55.727z"/></g><g><path fill="#272152" d="M423.621 71.125c-14.846 0-21.747-7.632-21.747-23V16.338c0-10.35 4.496-15.996 16.624-15.996h59.805c12.128 0 16.415 5.646 16.415 15.996v9.933c0 10.351-4.287 15.997-16.415 15.997h-59.91v4.182c0 6.273 2.719 9.514 8.783 9.514h65.764v15.16zm54.786-50.917c0-4.078-1.673-6.168-6.064-6.168h-47.885c-4.392 0-6.065 2.09-6.065 6.168V30.35h53.95c4.391 0 6.064-2.3 6.064-6.273z"/></g><g><path fill="#272152" d="M579.084 71.125c-1.15-.836-1.778-2.09-1.778-4.6V53.352c0-4.6-2.927-6.378-7.423-6.378h-53.218v24.151h-16.414V.343h75.905c12.024 0 16.415 5.646 16.415 15.996v9.097c0 11.71-5.75 13.487-10.037 14.114 4.391.42 11.082 2.72 11.082 13.592v13.383c0 2.51.732 3.764 1.882 4.6zm-2.823-50.917c0-4.078-1.673-6.168-6.064-6.168h-53.532v19.865h52.8c4.077 0 6.796-1.569 6.796-6.169z"/></g></g></svg>