<svg width="30" height="31" viewBox="0 0 30 31" fill="none" xmlns="http://www.w3.org/2000/svg">
<path d="M14.96 30.0502C22.8687 30.0502 29.28 23.6389 29.28 15.7302C29.28 7.82144 22.8687 1.41016 14.96 1.41016C7.0513 1.41016 0.640015 7.82144 0.640015 15.7302C0.640015 23.6389 7.0513 30.0502 14.96 30.0502Z" stroke="#300475" stroke-miterlimit="10"/>
<path d="M12.52 17.0001V22.3202C12.5395 22.4461 12.5395 22.5741 12.52 22.7C12.5066 22.7564 12.4813 22.8092 12.446 22.8551C12.4107 22.901 12.3662 22.939 12.3151 22.9664C12.2641 22.9938 12.2079 23.0099 12.1501 23.014C12.0923 23.0181 12.0343 23.01 11.9799 22.9901C11.8751 22.9633 11.7744 22.9231 11.68 22.8702L7.59993 20.8001C7.40788 20.7172 7.24675 20.576 7.13911 20.3966C7.03148 20.2172 6.98279 20.0086 6.99995 19.8001V9.30014C6.99995 8.74014 7.24996 8.60019 7.75996 8.85019C9.28996 9.63019 10.8199 10.41 12.3499 11.17C12.4252 11.2006 12.488 11.2559 12.5279 11.3268C12.5679 11.3976 12.5827 11.4799 12.5699 11.5602L12.52 17.0001Z" fill="#300475"/>
<path d="M23.63 11.3501L18.1 20.48C18.0547 20.4201 18.0146 20.3566 17.98 20.29L14.86 14.1799C14.821 14.1243 14.8 14.058 14.8 13.99C14.8 13.922 14.821 13.8557 14.86 13.8L17.76 9.03002C17.7924 8.9552 17.8405 8.88814 17.901 8.83349C17.9615 8.77884 18.033 8.73777 18.1107 8.71313C18.1884 8.68848 18.2706 8.68087 18.3516 8.69067C18.4325 8.70047 18.5104 8.72753 18.58 8.77001L23.49 11.26L23.63 11.3501Z" fill="#300475"/>
<path d="M18.8 20.8401L23.58 12.96H23.64V22.29C23.64 22.88 23.29 23.1101 22.75 22.8501C21.45 22.2001 20.16 21.5401 18.87 20.8501L18.8 20.8401Z" fill="#300475"/>
<path d="M16.7901 19.8401L15.0501 18.97C14.5401 18.7 14.0501 18.4499 13.5101 18.1699C13.4616 18.1453 13.4193 18.1102 13.3864 18.0669C13.3535 18.0236 13.3307 17.9732 13.32 17.9199C13.32 16.3199 13.32 14.7201 13.32 13.1201C13.3147 13.0736 13.3147 13.0265 13.32 12.98L16.8001 19.8L16.7901 19.8401Z" fill="#300475"/>
</svg>
