<svg xmlns="http://www.w3.org/2000/svg" viewBox="0 0 525.32668 368.73339"><defs><style>.aa{isolation:isolate;}.bb{fill:#916254;}.cc{fill:#7a6962;}.dd{fill:#917970;}.ee{fill:#68544c;}.ff{fill:#44312a;}.gg{fill:#4b7773;}.hh{fill:#709b98;}.ii{fill:#95c1bf;}.jj{fill:#bad8d6;mix-blend-mode:overlay;opacity:0.6;}.kk{fill:#ffe266;}.ll{fill:#ffe48d;}.mm{fill:#ad8679;}.nn{fill:#ccaea3;}.oo{fill:#6b5047;}.pp,.uu{fill:#7c5959;mix-blend-mode:multiply;}.pp{opacity:0.5;}.qq{fill:#69c5cc;}.rr{fill:#5ebabc;}.ss{fill:#d1b9b2;}.tt{fill:#fffae3;}.uu{opacity:0.05;}.vv{fill:#8fedef;}.ww{fill:#ea6a50;}.xx{fill:#ffe2d9;}.yy{fill:#adb249;}</style></defs><g class="aa"><rect class="bb" x="374.02417" y="74.1694" width="4.48426" height="33.65398"/><rect class="bb" x="218.13087" y="74.1694" width="4.48953" height="33.65398"/><rect class="cc" x="395.32215" y="232.46977" width="61.12126" height="2.06097" transform="translate(-28.51157 405.03534) rotate(-49.41645)"/><polygon class="cc" points="424.034 189.809 394.955 189.126 395.108 139.87 423.483 140.574 424.034 189.809"/><polygon class="cc" points="73.89 303.71 53.324 301.489 55.379 282.605 73.476 284.021 73.89 303.71"/><polygon class="cc" points="76.287 261.474 55.721 259.25 57.786 240.366 75.879 241.782 76.287 261.474"/><polygon class="cc" points="74.917 282.421 54.354 280.2 56.417 261.316 74.506 262.732 74.917 282.421"/><polygon class="cc" points="74.917 324.657 54.354 322.432 52.256 304.288 74.506 304.962 74.917 324.657"/><polygon class="cc" points="75.602 345.258 52.801 344.598 52.946 324.887 75.194 325.569 75.602 345.258"/><polygon class="cc" points="84.411 217.521 58.413 216.842 58.57 197.136 83.921 197.832 84.411 217.521"/><polygon class="cc" points="83.721 238.47 57.726 237.789 57.882 218.08 83.236 218.778 83.721 238.47"/><polygon class="cc" points="88.528 196.569 59.443 195.731 59.638 140.672 88.008 141.533 88.528 196.569"/><polygon class="cc" points="88.331 138.753 59.246 138.068 59.402 114.808 87.772 115.515 88.331 138.753"/><polygon class="cc" points="423.007 139.21 393.925 138.525 394.081 115.266 422.448 115.967 423.007 139.21"/><polygon class="cc" points="418.555 100.173 64.848 100.173 55.022 367.029 428.381 367.029 418.555 100.173"/><rect class="dd" x="207.61514" y="301.83664" width="42.11503" height="21.05334"/><rect class="dd" x="80.78991" y="260.62783" width="42.1235" height="21.05923"/><polygon class="dd" points="209.141 238.304 168.387 238.676 168.316 261.425 211.776 261.061 209.141 238.304"/><polygon class="dd" points="248.237 345.056 210.913 345.204 210.891 358.954 250.692 358.812 248.237 345.056"/><polygon class="dd" points="331.334 343.691 290.575 343.823 290.558 357.571 334.016 357.451 331.334 343.691"/><polygon class="ee" points="162.947 139.621 162.947 188.96 163.799 188.96 163.799 140.155 195.902 140.155 195.984 139.298 164.596 139.298 164.596 139.621 162.947 139.621"/><polygon class="ee" points="120.755 139.298 79.163 139.298 79.163 139.621 77.503 139.621 77.503 188.957 78.363 188.957 78.363 140.155 120.492 140.155 120.492 188.957 121.344 188.957 121.344 139.621 120.755 139.621 120.755 139.298"/><rect class="ee" x="120.755" y="113.27423" width="1.06279" height="0.79716"/><polygon class="ee" points="163.738 114.126 163.738 138.761 121.612 138.761 121.612 114.926 120.755 114.926 120.755 139.298 120.755 139.621 121.344 139.621 162.947 139.621 164.596 139.621 164.596 139.298 164.596 113.274 122.667 113.274 122.667 114.126 163.738 114.126"/><polygon class="ee" points="79.163 113.274 79.163 114.926 120.755 114.926 121.612 114.926 122.667 114.926 122.667 114.126 122.667 113.274 122.667 100.173 121.818 100.173 121.818 113.274 121.818 114.071 120.755 114.071 79.686 114.071 79.686 100.173 78.829 100.173 78.829 113.274 79.163 113.274"/><polygon class="ee" points="79.163 139.621 79.163 139.298 79.163 114.926 79.163 113.274 78.829 113.274 64.295 113.274 64.259 114.126 78.297 114.126 78.297 138.761 63.391 138.761 63.352 139.621 77.503 139.621 79.163 139.621"/><polygon class="ee" points="379.549 139.621 377.895 139.621 377.895 188.96 378.755 188.96 378.755 140.155 420.073 140.155 420.037 139.298 379.549 139.298 379.549 139.621"/><polygon class="ee" points="335.711 139.298 294.642 139.298 294.642 139.621 292.993 139.621 292.993 188.96 293.842 188.96 293.842 140.155 335.98 140.155 335.98 188.96 336.308 188.96 336.308 154.804 336.829 154.804 336.829 139.621 335.711 139.621 335.711 139.298"/><polygon class="ee" points="251.399 155.736 251.399 139.621 250.807 139.621 250.807 139.298 209.209 139.298 209.209 139.621 208.001 139.621 208.412 143.91 208.412 140.155 250.544 140.155 250.544 188.96 250.875 188.96 250.875 155.747 251.399 155.736"/><polygon class="ee" points="379.549 113.274 379.549 114.926 419.183 114.926 419.144 114.071 380.075 114.071 380.075 100.173 379.221 100.173 379.221 113.274 379.549 113.274"/><rect class="ee" x="335.71125" y="113.27423" width="1.05993" height="0.79716"/><polygon class="ee" points="335.711 139.621 336.829 139.621 377.895 139.621 379.549 139.621 379.549 139.298 379.549 114.926 379.549 113.274 379.221 113.274 337.626 113.274 337.626 114.126 378.695 114.126 378.695 138.761 336.566 138.761 336.566 114.926 335.711 114.926 335.711 139.298 335.711 139.621"/><polygon class="ee" points="336.771 114.071 335.711 114.071 294.642 114.071 294.642 114.926 335.711 114.926 336.566 114.926 337.626 114.926 337.626 114.126 337.626 113.274 337.626 100.173 336.771 100.173 336.771 113.274 336.771 114.071"/><rect class="ee" x="293.7902" y="100.17262" width="0.85214" height="13.1016"/><rect class="ee" x="250.80671" y="113.27423" width="1.05746" height="0.79716"/><polygon class="ee" points="250.807 139.621 251.399 139.621 292.993 139.621 294.642 139.621 294.642 139.298 294.642 114.926 294.642 114.071 294.642 113.274 293.79 113.274 252.719 113.274 252.719 114.126 293.79 114.126 293.79 138.761 251.661 138.761 251.661 114.926 250.807 114.926 250.807 139.298 250.807 139.621"/><polygon class="ee" points="209.209 113.274 209.209 114.926 250.807 114.926 251.661 114.926 252.719 114.926 252.719 114.126 252.719 113.274 252.719 100.173 251.864 100.173 251.864 113.274 251.864 114.071 250.807 114.071 209.733 114.071 209.733 100.173 208.881 100.173 208.881 113.274 209.209 113.274"/><polygon class="ee" points="209.209 139.298 209.209 114.926 209.209 113.274 208.881 113.274 205.876 113.274 205.96 114.126 208.349 114.126 208.349 138.761 207.922 138.761 208.001 139.621 209.209 139.621 209.209 139.298"/><polygon class="ee" points="121.949 303.294 121.949 311.731 122.667 311.72 122.667 322.641 122.801 322.641 122.801 303.828 154.905 303.828 154.987 302.973 123.596 302.973 123.596 303.294 121.949 303.294"/><polygon class="ee" points="79.494 312.199 79.686 312.193 79.686 322.641 80.352 322.641 80.352 303.294 79.755 303.294 79.755 302.973 57.726 302.973 57.69 303.828 79.494 303.828 79.494 312.199"/><rect class="ee" x="79.75466" y="280.9502" width="1.06554" height="0.79688"/><polygon class="ee" points="122.741 281.807 122.741 302.439 80.615 302.439 80.615 282.605 79.755 282.605 79.755 302.973 79.755 303.294 80.352 303.294 121.949 303.294 123.596 303.294 123.596 302.973 123.596 280.95 81.678 280.95 81.678 281.807 122.741 281.807"/><polygon class="ee" points="80.615 282.605 81.678 282.605 81.678 281.807 81.678 280.95 81.678 260.31 80.291 260.31 80.291 260.261 59.531 260.261 59.496 261.107 80.82 261.107 80.82 280.95 80.82 281.747 79.755 281.747 58.622 281.747 58.581 282.605 79.755 282.605 80.615 282.605"/><polygon class="ee" points="123.275 259.464 81.149 259.464 81.149 238.824 122.207 238.824 122.207 237.964 81.143 237.964 81.143 239.353 80.291 239.353 80.291 260.261 80.291 260.31 81.678 260.31 124.127 260.31 124.127 239.353 123.275 239.353 123.275 259.464"/><rect class="ee" x="123.06684" y="237.9639" width="1.05999" height="0.53126"/><polygon class="ee" points="163.089 217.855 163.172 217.003 124.127 217.003 124.127 217.855 163.089 217.855"/><rect class="ee" x="122.20684" y="217.00341" width="1.06812" height="0.79716"/><polygon class="ee" points="158.937 238.495 124.127 238.495 123.067 238.495 123.067 237.964 123.067 218.655 122.207 218.655 122.207 237.964 122.207 238.824 122.207 239.353 123.275 239.353 124.127 239.353 161.046 239.353 161.093 238.824 158.961 238.824 158.937 238.495"/><path class="ee" d="M123.06684,218.65524h1.06V196.36913H122.7409v-.06031H81.67767v.06031h-1.3862v20.63428h.85186v1.65183h41.92351ZM81.14894,197.166h42.126v20.63456h-42.126Z"/><polygon class="ee" points="165.73 153.402 165.73 190.148 166.371 153.388 165.73 153.402"/><polygon class="ee" points="124.127 196.369 165.136 196.369 165.215 195.512 123.596 195.512 123.596 153.862 122.741 153.873 122.741 196.309 122.741 196.369 124.127 196.369"/><polygon class="ee" points="81.143 239.353 81.143 237.964 81.143 218.655 81.143 217.003 80.291 217.003 61.355 217.003 61.32 217.855 80.291 217.855 80.291 238.495 60.449 238.495 60.408 239.353 80.291 239.353 81.143 239.353"/><polygon class="ee" points="81.678 196.369 81.678 196.309 81.678 154.325 80.82 154.336 80.82 195.512 62.262 195.512 62.227 196.369 80.291 196.369 81.678 196.369"/><polygon class="ee" points="422.07 303.294 420.421 303.294 420.421 322.641 421.278 322.641 421.278 303.828 425.716 303.828 425.68 302.973 422.07 302.973 422.07 303.294"/><polygon class="ee" points="378.229 302.973 336.64 302.973 336.64 303.294 334.982 303.294 334.982 322.641 335.845 322.641 335.845 303.828 377.969 303.828 377.969 322.641 378.823 322.641 378.823 303.294 378.229 303.294 378.229 302.973"/><polygon class="ee" points="292.796 302.973 251.727 302.973 251.727 303.294 250.078 303.294 250.078 322.641 250.935 322.641 250.935 303.828 293.067 303.828 293.067 322.641 293.916 322.641 293.916 303.294 292.796 303.294 292.796 302.973"/><polygon class="ee" points="207.889 302.973 166.294 302.973 166.294 303.294 165.092 303.294 165.497 307.586 165.497 303.828 207.623 303.828 207.623 322.641 208.486 322.641 208.486 303.294 207.889 303.294 207.889 302.973"/><rect class="ee" x="378.22906" y="280.9502" width="1.06538" height="0.79688"/><polygon class="ee" points="422.07 302.973 422.07 280.95 380.149 280.95 380.149 281.807 421.218 281.807 421.218 302.439 379.089 302.439 379.089 282.605 378.229 282.605 378.229 302.973 378.229 303.294 378.823 303.294 420.421 303.294 422.07 303.294 422.07 302.973"/><path class="ee" d="M378.76312,260.261h-41.592v.04936h-.8628V280.9502h.33132v1.65435H380.149V260.31031h-1.38592Zm.53132.84625v20.63988H337.16555V261.1072Z"/><polygon class="ee" points="379.615 239.353 378.763 239.353 378.763 260.261 378.763 260.31 380.149 260.31 422.607 260.31 422.607 239.353 421.747 239.353 421.747 259.464 379.615 259.464 379.615 238.824 420.684 238.824 420.684 237.964 379.615 237.964 379.615 239.353"/><rect class="ee" x="421.54662" y="237.9639" width="1.06027" height="0.53126"/><rect class="ee" x="292.79613" y="280.9502" width="1.06279" height="0.79688"/><polygon class="ee" points="336.64 302.973 336.64 282.605 336.64 280.95 336.308 280.95 294.711 280.95 294.711 281.807 335.78 281.807 335.78 302.439 293.653 302.439 293.653 282.605 292.796 282.605 292.796 302.973 292.796 303.294 293.916 303.294 334.982 303.294 336.64 303.294 336.64 302.973"/><polygon class="ee" points="293.325 260.31 293.325 260.261 252.259 260.261 252.259 260.31 250.875 260.31 250.875 280.95 251.727 280.95 251.727 261.107 293.859 261.107 293.859 280.95 293.859 281.747 292.796 281.747 251.727 281.747 251.727 282.605 292.796 282.605 293.653 282.605 294.711 282.605 294.711 281.807 294.711 280.95 294.711 260.31 293.325 260.31"/><rect class="ee" x="336.63149" y="237.9639" width="0.53967" height="0.53126"/><polygon class="ee" points="293.325 260.31 294.711 260.31 336.308 260.31 337.171 260.31 337.171 260.261 337.171 239.353 336.314 239.353 336.314 259.464 294.188 259.464 294.188 239.353 293.325 239.353 293.325 260.261 293.325 260.31"/><rect class="ee" x="294.18766" y="237.9639" width="41.59196" height="0.86"/><rect class="ee" x="207.88885" y="280.9502" width="1.06027" height="0.79688"/><polygon class="ee" points="251.727 302.973 251.727 282.605 251.727 281.747 251.727 280.95 250.875 280.95 209.806 280.95 209.806 281.807 250.875 281.807 250.875 302.439 208.749 302.439 208.749 282.605 207.889 282.605 207.889 302.973 207.889 303.294 208.486 303.294 250.078 303.294 251.727 303.294 251.727 302.973"/><path class="ee" d="M166.29408,282.60455h43.51223V260.31031H208.426V260.261H166.82287v.04936h-.85472V280.9502h.32593Zm.52879-21.49735h42.12625v20.63988H166.82287Z"/><rect class="ee" x="251.19856" y="237.9639" width="1.06004" height="0.53126"/><polygon class="ee" points="209.806 260.31 250.875 260.31 252.259 260.31 252.259 260.261 252.259 239.353 251.404 239.353 251.404 259.464 209.278 259.464 209.278 238.824 250.341 238.824 250.341 237.964 208.426 237.964 208.426 260.261 208.426 260.31 209.806 260.31"/><polygon class="ee" points="166.294 302.973 166.294 282.605 166.294 280.95 165.968 280.95 162.966 280.95 163.048 281.807 165.437 281.807 165.437 302.439 165.009 302.439 165.092 303.294 166.294 303.294 166.294 302.973"/><polygon class="ee" points="166.823 260.261 166.823 237.964 158.89 237.964 158.937 238.495 158.961 238.824 161.093 238.824 165.974 238.824 165.974 259.464 160.925 259.464 161.005 260.31 165.968 260.31 166.823 260.31 166.823 260.261"/><rect class="ee" x="420.68382" y="217.00341" width="1.06279" height="0.79716"/><polygon class="ee" points="421.547 238.495 421.547 237.964 421.547 218.655 420.684 218.655 420.684 237.964 420.684 238.824 420.684 239.353 421.747 239.353 422.607 239.353 422.993 239.353 422.96 238.495 422.607 238.495 421.547 238.495"/><polygon class="ee" points="380.149 196.369 378.763 196.369 378.763 217.003 379.615 217.003 379.615 218.655 420.684 218.655 421.547 218.655 422.122 218.655 421.747 209.777 421.747 217.003 421.747 217.801 420.684 217.801 379.615 217.801 379.615 197.166 421.218 197.166 421.177 196.312 380.149 196.312 380.149 196.369"/><rect class="ee" x="335.77963" y="217.00341" width="1.05999" height="0.79716"/><polygon class="ee" points="337.7 217.855 378.763 217.855 378.763 238.495 337.171 238.495 336.631 238.495 336.631 237.964 336.631 218.652 335.78 218.652 335.78 237.964 335.78 238.824 335.78 239.353 336.314 239.353 337.171 239.353 378.763 239.353 379.615 239.353 379.615 237.964 379.615 218.655 379.615 217.003 378.763 217.003 337.7 217.003 337.7 217.855"/><path class="ee" d="M336.63149,218.65243h1.06812v-22.2833h-1.39125v-.0575H294.71079v.0575h-.85748v20.63428h.33435v1.649h42.44383ZM294.71079,197.166h42.12882v20.63456H294.71079Z"/><polygon class="ee" points="336.308 188.96 336.308 196.312 336.308 196.369 337.7 196.369 378.763 196.369 380.149 196.369 380.149 196.312 380.149 154.325 379.294 154.336 379.294 195.512 337.166 195.512 337.166 154.79 336.829 154.804 336.308 154.804 336.308 188.96"/><polygon class="ee" points="250.341 239.353 251.404 239.353 252.259 239.353 293.325 239.353 294.188 239.353 294.188 238.824 294.188 237.964 294.188 218.652 294.188 217.003 293.853 217.003 252.259 217.003 252.259 217.855 293.325 217.855 293.325 238.495 252.259 238.495 251.199 238.495 251.199 237.964 251.199 218.652 250.341 218.652 250.341 237.964 250.341 238.824 250.341 239.353"/><rect class="ee" x="250.34109" y="217.00341" width="1.06279" height="0.79716"/><path class="ee" d="M252.2586,218.65243v-22.2833h-1.38345v-.0575l-42.44915-.00281v22.34642l41.91509-.00281h1.91751Zm-42.98074-.85186V197.166h42.126v20.63456h-42.126Z"/><polygon class="ee" points="252.259 196.369 293.853 196.369 294.711 196.369 294.711 196.312 294.711 155.262 293.859 155.275 293.859 195.512 251.727 195.512 251.727 155.736 251.399 155.736 250.875 155.747 250.875 188.96 250.875 196.312 250.875 196.369 252.259 196.369"/><rect class="ee" x="164.27256" y="366.75282" width="0.85214" height="0.27657"/><polygon class="ee" points="163.204 366.224 163.204 365.358 122.136 365.358 122.136 366.753 121.289 366.753 121.289 367.029 122.141 367.029 122.141 366.224 163.204 366.224"/><rect class="ee" x="164.06443" y="365.35849" width="1.06027" height="0.53687"/><rect class="ee" x="79.15743" y="365.35849" width="0.53406" height="0.53687"/><polygon class="ee" points="78.297 365.358 55.094 365.358 55.058 366.224 78.297 366.224 78.297 365.358"/><rect class="ee" x="78.8343" y="366.75282" width="0.85719" height="0.27657"/><polygon class="ee" points="204.084 345.258 204.172 344.404 165.125 344.404 165.125 345.258 204.084 345.258"/><rect class="ee" x="163.20449" y="344.4036" width="1.06807" height="0.79436"/><polygon class="ee" points="163.204 365.358 163.204 366.224 163.204 366.753 164.273 366.753 165.125 366.753 202.046 366.753 202.087 366.224 198.74 366.224 198.71 365.895 165.125 365.895 164.064 365.895 164.064 365.358 164.064 346.055 163.204 346.055 163.204 365.358"/><path class="ee" d="M121.28907,323.76933V344.4036h.84653v1.65183h42.9891v-22.2861h-1.3862v-.06312H122.66685v.06312Zm42.98349.79436V345.198H122.14093V324.56369Z"/><polygon class="ee" points="206.722 317.546 207.369 310.788 206.722 310.802 206.722 317.546"/><polygon class="ee" points="165.125 323.769 206.128 323.769 206.213 322.909 164.599 322.909 164.599 311.259 163.738 311.27 163.738 323.706 163.738 323.769 165.125 323.769"/><rect class="ee" x="78.29744" y="344.4036" width="1.05999" height="0.79436"/><polygon class="ee" points="122.136 344.404 121.289 344.404 80.22 344.404 80.22 345.258 121.289 345.258 121.289 365.895 79.691 365.895 79.157 365.895 79.157 365.358 79.157 346.055 78.297 346.055 78.297 365.358 78.297 366.224 78.297 366.753 78.834 366.753 79.691 366.753 121.289 366.753 122.136 366.753 122.136 365.358 122.136 346.055 122.136 344.404"/><polygon class="ee" points="79.157 346.055 80.22 346.055 80.22 345.258 80.22 344.404 80.22 323.769 78.829 323.769 78.829 323.706 56.855 323.706 56.817 324.564 79.357 324.564 79.357 344.404 79.357 345.198 78.297 345.198 55.94 345.198 55.907 346.055 78.297 346.055 79.157 346.055"/><polygon class="ee" points="121.949 311.731 121.818 311.731 121.818 322.909 79.686 322.909 79.686 322.641 79.686 312.193 79.494 312.199 78.829 312.204 78.829 323.706 78.829 323.769 80.22 323.769 121.289 323.769 122.667 323.769 122.667 323.706 122.667 322.641 122.667 311.72 121.949 311.731"/><rect class="ee" x="418.53636" y="366.75282" width="0.8628" height="0.27657"/><polygon class="ee" points="422.514 366.224 422.626 365.358 419.399 365.358 419.399 366.224 422.514 366.224"/><rect class="ee" x="376.41006" y="365.35849" width="0.53434" height="0.53687"/><rect class="ee" x="333.95255" y="365.35849" width="41.59471" height="0.86561"/><rect class="ee" x="333.10343" y="366.75282" width="0.84912" height="0.27657"/><rect class="ee" x="376.08693" y="366.75282" width="0.85747" height="0.27657"/><rect class="ee" x="290.96619" y="365.35849" width="1.07373" height="0.53687"/><rect class="ee" x="291.17718" y="366.75282" width="0.86274" height="0.27657"/><polygon class="ee" points="290.125 366.224 290.125 365.358 248.191 365.358 248.191 367.029 249.056 367.029 249.056 366.224 290.125 366.224"/><polygon class="ee" points="198.658 365.358 198.71 365.895 198.74 366.224 202.087 366.224 205.739 366.224 205.739 367.029 206.602 367.029 206.602 365.358 198.658 365.358"/><polygon class="ee" points="419.925 323.769 418.536 323.769 418.536 344.404 419.399 344.404 419.399 324.564 426.587 324.564 426.557 323.706 419.925 323.706 419.925 323.769"/><polygon class="ee" points="425.034 346.058 425.146 345.198 419.399 345.198 419.399 346.058 425.034 346.058"/><rect class="ee" x="375.54726" y="344.4036" width="1.07373" height="0.79436"/><polygon class="ee" points="377.473 344.404 377.473 345.258 418.536 345.258 418.536 365.895 376.944 365.895 376.41 365.895 376.41 365.358 376.41 346.058 375.547 346.058 375.547 365.358 375.547 366.224 375.547 366.753 376.087 366.753 376.944 366.753 418.536 366.753 419.399 366.753 419.399 366.224 419.399 365.358 419.399 346.058 419.399 345.198 419.399 344.404 418.536 344.404 377.473 344.404"/><path class="ee" d="M333.63216,323.76933V344.4036h.32039v1.65464h43.5203V323.76933h-1.38592v-.06312H334.495v.06312Zm42.98883.79436V345.198H334.48935V324.56369Z"/><polygon class="ee" points="377.473 323.769 418.536 323.769 419.925 323.769 419.925 323.706 419.925 311.72 419.07 311.731 419.07 322.909 376.944 322.909 376.944 312.193 376.087 312.204 376.087 323.706 376.087 323.769 377.473 323.769"/><polygon class="ee" points="333.953 346.058 333.953 344.404 333.632 344.404 292.04 344.404 292.04 345.258 333.103 345.258 333.103 365.895 292.04 365.895 290.966 365.895 290.966 365.358 290.966 346.058 290.125 346.058 290.125 365.358 290.125 366.224 290.125 366.753 291.177 366.753 292.04 366.753 333.103 366.753 333.953 366.753 333.953 366.224 333.953 365.358 333.953 346.058"/><rect class="ee" x="290.12532" y="344.4036" width="1.05185" height="0.79436"/><path class="ee" d="M292.03992,346.05824V323.76933h-1.39967v-.06312H248.19082v22.352h43.8491Zm-42.9835-.86028V324.56369h42.12076V345.198H249.05642Z"/><polygon class="ee" points="292.04 323.769 333.632 323.769 334.495 323.769 334.495 323.706 334.495 312.665 333.632 312.675 333.632 322.909 291.506 322.909 291.506 313.136 290.64 313.144 290.64 323.706 290.64 323.769 292.04 323.769"/><polygon class="ff" points="196.508 219.422 142.469 219.422 123.574 357.461 212.228 357.461 196.508 219.422"/><polygon class="gg" points="194.785 233.157 144 233.157 129.334 346.814 206.47 346.814 194.785 233.157"/><polygon class="hh" points="192.393 235.446 146.128 235.446 132.766 344.524 203.038 344.524 192.393 235.446"/><polygon class="ii" points="190.668 271.615 147.372 281.227 135.059 340.862 199.83 340.862 190.668 271.615"/><polygon class="jj" points="136.193 291.302 196.625 251.468 201.203 299.086 157.249 346.696 129.334 346.814 136.193 291.302"/><polygon class="ff" points="427.833 334.795 254.143 334.795 237.774 215.76 422.793 215.76 427.833 334.795"/><polygon class="gg" points="427.833 325.867 268.425 325.867 253.395 229.034 423.204 229.034 427.833 325.867"/><polygon class="hh" points="427.833 325.479 272.608 325.479 257.981 231.784 423.327 231.784 427.833 325.479"/><polygon class="ii" points="427.833 323.12 291.021 323.12 278.122 245.058 423.858 245.058 427.833 323.12"/><polygon class="hh" points="289.567 324.15 305.361 294.279 322.872 293.249 333.859 325.18 289.567 324.15"/><polygon class="hh" points="357.896 324.03 373.687 300.576 391.202 299.771 402.191 324.837 357.896 324.03"/><rect class="hh" x="323.90244" y="252.38831" width="65.24233" height="13.73188"/><rect class="hh" x="371.63296" y="239.68137" width="1.71466" height="15.45187"/><rect class="hh" x="333.51688" y="238.99387" width="1.36971" height="17.51153"/><rect class="hh" x="308.10551" y="281.91706" width="10.64448" height="9.61731"/><rect class="hh" x="375.74725" y="290.15658" width="9.2723" height="6.86706"/><rect class="hh" x="380.21496" y="295.65146" width="1.37218" height="9.95698"/><rect class="hh" x="310.85547" y="288.78412" width="1.715" height="8.23952"/><rect class="hh" x="320.12496" y="296.33895" width="8.23952" height="14.0766"/><rect class="hh" x="325.27484" y="306.29313" width="6.86425" height="13.39472"/><rect class="hh" x="330.42443" y="312.1305" width="4.81278" height="9.61731"/><rect class="hh" x="292.31116" y="303.89098" width="10.64195" height="18.8868"/><rect class="hh" x="297.80604" y="299.42607" width="5.49208" height="15.45439"/><rect class="hh" x="359.6107" y="306.63562" width="8.24204" height="15.45467"/><rect class="hh" x="366.13527" y="300.80106" width="5.15268" height="11.32944"/><rect class="hh" x="389.82946" y="299.77108" width="5.83743" height="15.45187"/><rect class="hh" x="393.26159" y="308.0134" width="5.84017" height="10.98415"/><rect class="hh" x="397.7293" y="314.53826" width="5.14707" height="8.23952"/><rect class="hh" x="294.32735" y="235.56708" width="0.67094" height="16.08719"/><polygon class="hh" points="296.562 250.093 293.21 250.093 289.961 254.785 299.811 254.785 296.562 250.093"/><rect class="hh" x="303.29812" y="239.56356" width="1.83527" height="81.95424"/><rect class="hh" x="402.30537" y="240.0236" width="2.74839" height="85.28532" transform="translate(-20.23512 31.36217) rotate(-4.34044)"/><polygon class="jj" points="268.425 325.867 366.941 229.952 423.204 229.034 426.001 273.902 400.362 325.183 268.425 325.867"/><rect class="ff" x="338.62278" y="226.63165" width="2.83518" height="99.58106"/><polygon class="ff" points="423.396 222.512 420.385 222.512 426.107 334.795 429.115 334.795 423.396 222.512"/><polygon class="kk" points="397.926 90.648 192.577 90.648 185.181 0 406.311 6.87 397.926 90.648"/><polygon class="ll" points="287.854 3.189 191.985 83.42 192.577 90.648 286.4 90.648 372.764 5.824 287.854 3.189"/><rect class="dd" x="420.90702" y="331.87857" width="10.64062" height="14.07559" transform="translate(84.75178 763.09615) rotate(-89.65515)"/><polygon class="cc" points="290.75 331.212 260.583 331.316 260.586 341.977 290.755 341.873 290.75 331.212"/><polygon class="cc" points="333.457 329.686 292.684 329.727 292.695 340.38 333.459 340.333 333.457 329.686"/><polygon class="cc" points="416.912 332.499 378.349 332.527 378.349 341.914 416.917 341.895 416.912 332.499"/><rect class="mm" x="335.95492" y="331.59371" width="40.7675" height="10.65009" transform="translate(-0.3846 0.40723) rotate(-0.06544)"/><polygon class="cc" points="253.847 283.059 216.506 283.347 216.463 302.508 253.795 302.217 253.847 283.059"/><polygon class="cc" points="247.109 236.205 211.475 235.425 211.658 213.93 248.996 214.735 247.109 236.205"/><polygon class="cc" points="246.876 259.554 211.244 258.773 211.425 237.282 248.769 238.084 246.876 259.554"/><polygon class="cc" points="249.736 260.814 214.112 261.102 214.069 280.112 251.399 279.827 249.736 260.814"/><polygon class="dd" points="118.213 325.369 80.878 325.692 80.826 346.042 120.623 345.719 118.213 325.369"/><polygon class="mm" points="74.871 303.028 51.508 303.376 51.434 321.712 76.344 321.353 74.871 303.028"/><polygon class="cc" points="255.565 303.392 218.232 303.716 218.172 324.065 257.975 323.742 255.565 303.392"/><polygon class="cc" points="259.392 325.027 250.125 325.514 250.023 345.864 259.285 345.376 259.392 325.027"/><rect class="mm" x="420.64748" y="345.17942" width="10.64326" height="12.18697" transform="translate(72.21143 775.18073) rotate(-89.66497)"/><rect class="nn" x="45.2022" y="354.26213" width="394.96559" height="12.76726"/><rect class="oo" y="362.71399" width="525.32668" height="6.01941"/><polygon class="pp" points="424.168 189.663 58.813 189.376 57.614 237.789 60.531 237.964 60.361 240.366 58.129 240.366 56.586 251.528 424.168 251.471 424.168 189.663"/><polygon class="nn" points="435.158 97.521 42.934 98.206 48.514 125.675 426.225 122.24 435.158 97.521"/><rect class="bb" x="45.76656" y="112.62516" width="384.58394" height="10.30199"/><polygon class="qq" points="424.62 116.545 54.831 116.545 21.275 140.434 7.541 223.583 464.919 223.583 454.327 140.437 424.62 116.545"/><polygon class="rr" points="55.37 223.583 120.662 223.583 121.344 139.621 126.622 116.545 83.239 116.545 69.507 140.571 55.37 223.583"/><polygon class="rr" points="186.088 223.583 239.927 223.583 236.952 140.571 227.102 116.545 183.718 116.545 187.575 139.853 186.088 223.583"/><polygon class="rr" points="295.897 223.583 347.523 223.583 355.02 140.571 332.81 116.545 288.068 116.545 299.203 139.856 295.897 223.583"/><polygon class="rr" points="412.737 223.583 464.919 223.583 454.327 140.437 424.62 116.545 405.364 116.545 423.483 140.574 412.737 223.583"/><rect class="ff" x="129.21078" y="328.95735" width="76.91151" height="2.74744"/><rect class="ff" x="129.21078" y="333.76474" width="76.91151" height="2.74744"/><rect class="ff" x="129.21078" y="338.22964" width="76.91151" height="2.74744"/><rect class="ff" x="129.21078" y="342.00678" width="76.91151" height="2.74492"/><rect class="ff" x="119.76642" y="330.8466" width="13.39009" height="4.12147" transform="translate(-217.76394 424.16888) rotate(-84.04845)"/><rect class="ff" x="128.34912" y="259.42679" width="13.39259" height="4.11704" transform="translate(-138.98208 368.82011) rotate(-84.07564)"/><rect class="s" x="211.28002" y="273.44474" width="11.89632" height="18.31711"/><rect class="tt" x="157.19165" y="284.14652" width="16.48346" height="31.93535" transform="translate(-153.82639 424.65307) rotate(-82.44499)"/><polygon class="tt" points="181.99 294.243 170.641 273.963 150.947 290.168 150.423 289.527 170.877 272.702 171.115 273.13 182.705 293.841 181.99 294.243"/><polygon class="uu" points="21.275 140.434 7.541 223.583 464.919 223.583 454.327 140.437 21.275 140.434"/><rect class="vv" x="3.87615" y="218.04713" width="464.9273" height="6.18237"/><path class="ww" d="M222.69171,38.83386V30.76124a4.4982,4.4982,0,0,1,4.8811-4.66742l21.0755.49843v4.72241l-1.88459,4.90051L234.83733,35.933v1.75842l10.53761,7.22609c2.66245,1.82153,3.27337,3.53647,3.27337,6.61518v8.73263a4.48618,4.48618,0,0,1-4.82366,4.6677l-21.13294-.49591V54.81979l13.81092.32594V52.61735L225.96508,45.449C223.30257,43.57253,222.69171,41.91257,222.69171,38.83386Z"/><path class="ww" d="M250.31108,36.29735V26.62788l27.17007.6384v4.7799L275.539,36.88892l-5.82363-.13688V65.53832l-12.14007-.285V36.46705Z"/><path class="ww" d="M285.13163,65.89987a4.75185,4.75185,0,0,1-4.88116-4.89238V32.11182a4.49274,4.49274,0,0,1,4.88116-4.66209l19.34989.45187a4.74941,4.74941,0,0,1,4.88116,4.89491V61.68966a4.49846,4.49846,0,0,1-4.88116,4.6677Zm7.26452-28.61658V56.45788l4.82646.115V37.4011Z"/><path class="ww" d="M338.08865,28.69063a4.74068,4.74068,0,0,1,4.82647,4.8921V48.68678a4.608,4.608,0,0,1-3.21587,4.27025l3.824,9.53512V67.272l-11.86631-.27937L328.38384,54.9404l-2.44087-.0575V66.8586l-12.14007-.285V28.12067ZM325.943,38.07232v7.19861l4.82647.115v-7.1986Z"/><path class="ww" d="M346.84877,67.35424V28.896l25.951.60812v4.7827l-1.93653,4.84274-11.92381-.2819v4.284l11.92381.28217v9.6145l-11.92381-.27937v5.27021l13.86034.32874v9.6145Z"/><rect class="xx" x="40.11825" y="96.59267" width="396.94616" height="3.23494"/><path class="yy" d="M156.3371,301.86946a.82441.82441,0,0,1-.74219-.95873l.6931-5.0949a.8195.8195,0,0,1,.96687-.72872l3.37748.45468a.82642.82642,0,0,1,.74213.96434l-.69282,5.08929a.81626.81626,0,0,1-.96714.72592Zm1.95594-4.90613-.45754,3.38024.84092.11248.45749-3.37743Z"/><path class="yy" d="M163.74944,300.71887l-.28751,2.11184-2.11745-.2875.91217-6.77955,4.2349.57249a.8116.8116,0,0,1,.734.95592l-.39712,2.97212a.82972.82972,0,0,1-.97253.73966Zm.22467-1.69559.84373.11248.17531-1.26559-.84373-.11781Z"/><path class="yy" d="M167.09966,303.3213l.9175-6.77955,4.5306.61344-.1122.84092-.45474.81624-2.08183-.28217-.10686.75621,2.08182.28217-.22467,1.69559-2.08436-.28217-.12341.92843,2.4187.32341-.2272,1.69811Z"/><path class="yy" d="M176.11418,300.82854l.02749-2.33118.115-.84373,1.95588.2631-.91778,6.78235-2.24619-.304-.57249-3.26243-.16684-.02468-.03568,2.32277-.11248.84092-1.94747-.2603.915-6.77674,2.2462.30153.56413,3.27057Z"/></g></svg>