<svg xmlns="http://www.w3.org/2000/svg" width="1443" height="82" viewBox="0 0 1443 82"><g><g><path fill="#f0f" d="M21.233 68.931c1.195 0 2.574-.159 4.134-.48a32.111 32.111 0 0 0 4.79-1.4 33.719 33.719 0 0 0 4.834-2.275 25.453 25.453 0 0 0 4.354-3.107 17.725 17.725 0 0 0 3.303-3.893 11.801 11.801 0 0 0 1.684-4.637v-.35c0-.846-.387-1.699-1.16-2.559-.772-.86-1.786-1.742-3.04-2.647a52.73 52.73 0 0 0-4.287-2.756 558.5 558.5 0 0 1-4.943-2.91 93.843 93.843 0 0 1-4.943-3.149 35.04 35.04 0 0 1-4.288-3.412c-1.254-1.182-2.268-2.413-3.04-3.697-.773-1.283-1.16-2.639-1.16-4.069 0-1.662.474-3.208 1.423-4.637.947-1.428 2.194-2.74 3.74-3.937 1.545-1.195 3.28-2.245 5.206-3.149a50.796 50.796 0 0 1 5.84-2.32c1.969-.64 3.85-1.122 5.643-1.443 1.794-.32 3.332-.482 4.616-.482 1.603 0 3.076.162 4.418.482 1.34.321 2.494.831 3.456 1.531a7.22 7.22 0 0 1 2.253 2.691c.54 1.093.81 2.414.81 3.96v.852c0 .277-.03.576-.088.897a82.051 82.051 0 0 1-6.956.416c-2.391.042-4.666.152-6.825.328-2.158.174-4.105.488-5.84.94-1.735.452-3.055 1.218-3.96 2.297a193.27 193.27 0 0 0 5.973 3.215c2.114 1.094 4.2 2.224 6.256 3.39a84.24 84.24 0 0 1 5.905 3.675c1.882 1.283 3.537 2.64 4.966 4.07 1.428 1.428 2.566 2.945 3.412 4.548a10.82 10.82 0 0 1 1.269 5.12v.852c0 .277-.03.562-.088.853-.38 2.975-1.137 5.695-2.274 8.16-1.138 2.464-2.553 4.673-4.244 6.627a29.02 29.02 0 0 1-5.753 5.096 37.139 37.139 0 0 1-6.76 3.61 37.49 37.49 0 0 1-7.282 2.142 40 40 0 0 1-7.372.701c-3.733 0-7.117-.387-10.15-1.16-3.033-.772-5.628-1.706-7.787-2.799-2.158-1.094-3.82-2.246-4.986-3.456-1.167-1.21-1.75-2.253-1.75-3.128 0-.35.065-.737.196-1.16.132-.422.387-.816.766-1.18.379-.365.918-.67 1.619-.919.699-.248 1.603-.372 2.712-.372 1.05 0 2.07.262 3.062.787.99.525 2.07 1.101 3.237 1.728a29.247 29.247 0 0 0 3.938 1.728c1.458.525 3.178.787 5.162.787z"/></g><g><path fill="#f0f" d="M91.753 77.506c-.787 0-1.822-.212-3.105-.635-1.285-.423-2.699-1.012-4.244-1.77a76.227 76.227 0 0 1-4.9-2.648 77.015 77.015 0 0 1-5.097-3.26 67.623 67.623 0 0 1-4.79-3.652 44.439 44.439 0 0 1-4.025-3.784c-1.166-1.254-2.092-2.472-2.777-3.653-.686-1.18-1.028-2.282-1.028-3.303 0-3.09.59-6.277 1.771-9.559 1.181-3.28 2.815-6.474 4.9-9.58 2.085-3.106 4.565-6.038 7.437-8.794a54.54 54.54 0 0 1 9.406-7.24 49.563 49.563 0 0 1 10.806-4.922 38 38 0 0 1 11.571-1.814c1.69 0 3.185.277 4.483.831 1.298.554 2.392 1.32 3.281 2.296.89.977 1.56 2.136 2.013 3.478.451 1.342.678 2.8.678 4.375 0 .787-.139 1.53-.416 2.231a8.279 8.279 0 0 1-1.093 1.947 11.83 11.83 0 0 1-1.53 1.662c-.57.511-1.147.97-1.73 1.378-1.399.963-2.989 1.794-4.768 2.493l-7.525-9.23c-1.75.466-3.543 1.261-5.38 2.384a35.62 35.62 0 0 0-5.359 4.047 46.675 46.675 0 0 0-4.922 5.228 41.225 41.225 0 0 0-4.047 5.993 34.555 34.555 0 0 0-2.734 6.321c-.67 2.13-1.006 4.186-1.006 6.17 0 .728.27 1.596.81 2.602.54 1.006 1.24 2.05 2.1 3.128a30.04 30.04 0 0 0 2.974 3.193 34.271 34.271 0 0 0 3.456 2.844c1.182.846 2.333 1.524 3.456 2.034 1.122.511 2.136.766 3.041.766.524 0 1.334-.27 2.428-.81 1.094-.539 2.376-1.246 3.85-2.12a173.027 173.027 0 0 0 4.812-2.977 297.153 297.153 0 0 0 5.25-3.433c1.764-1.182 3.5-2.325 5.205-3.435a182.602 182.602 0 0 1 4.725-2.974 62.784 62.784 0 0 1 3.74-2.122c1.05-.54 1.794-.81 2.231-.81.642 0 .962.336.962 1.007 0 .233-.072.612-.218 1.138-.32 1.136-.934 2.362-1.838 3.673-.904 1.313-2.005 2.662-3.302 4.047a54.54 54.54 0 0 1-4.375 4.156 77.621 77.621 0 0 1-5.097 4.003 75.33 75.33 0 0 1-5.446 3.587 59.495 59.495 0 0 1-5.403 2.888c-1.75.816-3.413 1.458-4.987 1.925-1.575.466-2.99.7-4.244.7z"/></g><g><path fill="#f0f" d="M164.264 78.118c-1.327-.554-2.413-1.253-3.26-2.099a8.708 8.708 0 0 1-1.924-2.866 15.896 15.896 0 0 1-.962-3.39 27.765 27.765 0 0 1-.372-3.719 309.016 309.016 0 0 1-.11-3.849 64.094 64.094 0 0 0-4.724-1.007 135.72 135.72 0 0 0-5.053-.787c-1.706-.234-3.39-.438-5.053-.613a103.682 103.682 0 0 0-4.724-.393 288.53 288.53 0 0 1-2.954 4.024 607.432 607.432 0 0 0-3.564 4.834 185.398 185.398 0 0 0-3.566 5.053A101.431 101.431 0 0 0 125 77.944c-.262.028-.795-.162-1.597-.57a30.819 30.819 0 0 1-2.69-1.574 69.36 69.36 0 0 1-2.997-2.057 36.304 36.304 0 0 1-2.515-1.968c.992-1.516 2.26-3.325 3.806-5.424a209.36 209.36 0 0 1 5.359-6.935 412.996 412.996 0 0 1 6.65-8.05 395.368 395.368 0 0 1 7.655-8.77 512.831 512.831 0 0 1 8.4-9.122 368.15 368.15 0 0 1 17.914-17.739c3.033-2.8 6.022-5.41 8.968-7.83.788 0 1.677.086 2.669.261.99.175 1.91.394 2.756.657.846.262 1.538.54 2.078.831.539.292.78.54.722.744A414.602 414.602 0 0 0 178.7 22.78a232.104 232.104 0 0 0-3.084 13.168 184.956 184.956 0 0 0-2.21 13.233c-.568 4.39-.853 8.581-.853 12.577 0 1.371.05 2.771.154 4.2.1 1.43.189 2.807.262 4.134.073 1.327.102 2.566.088 3.718-.015 1.153-.147 2.151-.394 2.997-.248.846-.65 1.487-1.203 1.925-.555.437-1.312.612-2.275.525-1.954-.205-3.595-.584-4.922-1.138zm-6.365-23.273c.146-.612.372-1.582.678-2.909a775.41 775.41 0 0 1 1.05-4.485c.394-1.662.816-3.412 1.269-5.249a325.48 325.48 0 0 1 1.312-5.163c.422-1.603.816-3.01 1.18-4.22.365-1.21.679-2.02.942-2.429-.671.525-1.495 1.284-2.472 2.275-.977.992-2.05 2.121-3.215 3.391a1005.51 1005.51 0 0 0-3.741 4.09 1417.82 1417.82 0 0 0-4.003 4.418 294.877 294.877 0 0 1-4.024 4.375 126.287 126.287 0 0 1-3.85 3.937z"/></g><g><path fill="#f0f" d="M192.764 64.601c-.059.087.561.065 1.86-.066 1.297-.13 3.025-.35 5.183-.657 2.158-.305 4.638-.67 7.437-1.093 2.8-.422 5.687-.874 8.662-1.356 2.975-.48 5.9-.976 8.772-1.487 2.872-.51 5.475-.999 7.81-1.466a6.584 6.584 0 0 1 1.967-.13c.613.058 1.16.233 1.641.524.481.292.86.708 1.137 1.247.277.54.416 1.217.416 2.034 0 .584-.11.992-.328 1.224-.219.235-.635.438-1.247.613a199.142 199.142 0 0 0-7.284 2.254c-2.523.831-5.075 1.662-7.656 2.493a1540.94 1540.94 0 0 1-7.743 2.471 193.373 193.373 0 0 1-7.48 2.21 102.366 102.366 0 0 1-6.89 1.64c-2.189.438-4.187.7-5.994.787a1.98 1.98 0 0 1-.482-.065c-.175-.044-.459-.167-.853-.372a20.098 20.098 0 0 1-1.574-.94c-.657-.423-1.547-1.02-2.669-1.794a219.274 219.274 0 0 1-4.134-2.93c-1.634-1.182-3.616-2.619-5.95-4.31.35-1.69.934-3.71 1.75-6.06.817-2.346 1.787-4.87 2.91-7.568a323.592 323.592 0 0 1 3.652-8.42 526.28 526.28 0 0 1 3.981-8.64c1.341-2.844 2.64-5.579 3.894-8.204a665.842 665.842 0 0 0 3.368-7.152 239.812 239.812 0 0 0 2.45-5.446c.641-1.487 1.02-2.523 1.137-3.107.292-1.603.817-2.726 1.575-3.368a3.851 3.851 0 0 1 2.625-.94c.991.014 2.041.291 3.15.831 1.108.54 2.172 1.18 3.193 1.925a25.769 25.769 0 0 1 2.756 2.297c.816.787 1.43 1.443 1.838 1.967-.205 1.897-.628 3.975-1.269 6.235a83.498 83.498 0 0 1-2.362 7.043 146.836 146.836 0 0 1-3.106 7.46 208.158 208.158 0 0 1-3.544 7.502 246.386 246.386 0 0 1-3.697 7.152 339.3 339.3 0 0 1-3.543 6.431 392.92 392.92 0 0 1-3.084 5.36l-2.275 3.871z"/></g><g><path fill="#f0f" d="M254.14 9.523a23.885 23.885 0 0 0 2.734 1.706c.977.525 1.953 1.036 2.931 1.531a95.73 95.73 0 0 1 2.778 1.466c.875.481 1.647.984 2.32 1.509.174.175.05.948-.373 2.319s-1.043 3.15-1.86 5.337a280.135 280.135 0 0 1-2.952 7.525 978.855 978.855 0 0 1-3.653 8.836 672.715 672.715 0 0 1-3.96 9.253A864.579 864.579 0 0 1 244.8 65.3a280.056 280.056 0 0 1-2.515 5.338 12.372 12.372 0 0 1-1.27 2.056c-.524.7-1.115 1.334-1.77 1.903a9.935 9.935 0 0 1-2.145 1.422 5.46 5.46 0 0 1-2.428.568c-1.37 0-2.289-.277-2.756-.831-.466-.553-.7-1.384-.7-2.494 0-.932.161-2.274.482-4.024.321-1.75.758-3.77 1.312-6.059a196.01 196.01 0 0 1 1.99-7.503 322.159 322.159 0 0 1 2.516-8.378 462.217 462.217 0 0 1 2.843-8.727 235.803 235.803 0 0 1 3.041-8.509 249.42 249.42 0 0 1 3.062-7.699c1.006-2.406 1.976-4.527 2.91-6.365.933-1.837 1.808-3.325 2.624-4.462.816-1.138 1.531-1.809 2.144-2.013z"/></g><g><path fill="#f0f" d="M331.309 8.779a150.046 150.046 0 0 0-4.046 7.307 264.619 264.619 0 0 0-4.31 8.662 372.493 372.493 0 0 0-4.374 9.536 377.167 377.167 0 0 0-8.072 19.752 216.434 216.434 0 0 0-3.237 9.209 149.272 149.272 0 0 0-2.406 8.115c-.656 2.493-1.101 4.674-1.334 6.54-.06.32-.212.656-.46 1.006a3.973 3.973 0 0 1-1.006.963 6.162 6.162 0 0 1-1.443.722 5.337 5.337 0 0 1-1.772.284c-.76 0-1.568-.175-2.428-.526-.861-.35-1.714-.991-2.56-1.924-.846-1.458-1.691-3.426-2.537-5.906a130.966 130.966 0 0 1-2.472-8.18 280.854 280.854 0 0 1-2.34-9.34c-.76-3.252-1.481-6.388-2.165-9.407a361.771 361.771 0 0 0-1.991-8.334c-.642-2.537-1.225-4.592-1.75-6.167a188.96 188.96 0 0 1-1.487 4.549 506.983 506.983 0 0 1-2.078 5.993 832.078 832.078 0 0 1-2.472 6.89c-.875 2.406-1.758 4.828-2.647 7.263-.89 2.435-1.765 4.806-2.625 7.108-.86 2.305-1.67 4.44-2.427 6.409a507.446 507.446 0 0 1-2.035 5.206 149.108 149.108 0 0 1-1.422 3.479c-1.021-.263-1.924-.65-2.712-1.16a19.347 19.347 0 0 1-2.275-1.728 46.332 46.332 0 0 1-2.143-2.012c-.7-.7-1.458-1.371-2.275-2.012a243.008 243.008 0 0 1 5.074-15.137 338.798 338.798 0 0 1 6.08-15.224 405.962 405.962 0 0 1 6.76-14.961 545.344 545.344 0 0 1 7.065-14.306c.584-.933 1.24-1.4 1.969-1.4.7 0 1.34.438 1.925 1.313a73.472 73.472 0 0 1 5.25 9.996 109.46 109.46 0 0 1 3.915 10.565c1.122 3.587 2.1 7.21 2.93 10.87.832 3.66 1.598 7.3 2.298 10.916a133.6 133.6 0 0 1 3.215-8.684c1.21-2.96 2.494-5.92 3.85-8.881a185.761 185.761 0 0 1 4.265-8.706 281.28 281.28 0 0 1 4.462-8.202 45.337 45.337 0 0 1 2.69-4.2 22.788 22.788 0 0 1 3.413-3.783 17.156 17.156 0 0 1 4.244-2.757c1.56-.714 3.288-1.071 5.184-1.071.116 0 .306.065.568.196.263.132.525.285.788.46.262.175.517.336.766.48.247.147.444.219.59.219z"/></g><g><path fill="#f0f" d="M343.908 42.334a755.136 755.136 0 0 0 8.837-2.778c2.858-.92 5.68-1.743 8.465-2.472a91.501 91.501 0 0 1 8.29-1.771 51.166 51.166 0 0 1 8.356-.678c1.166 0 2.078.13 2.734.393.656.263 1.013.773 1.072 1.532.058.612.116 1.312.175 2.099l.175 2.406c.058.817.109 1.619.153 2.407.044.787.08 1.502.109 2.143-.817.116-1.56.212-2.231.284-.671.074-1.4.168-2.187.285.408.612.743 1.144 1.006 1.596.262.452.474.875.634 1.269.16.393.269.78.329 1.159.058.38.087.803.087 1.269 0 1.429-.503 2.902-1.51 4.419-1.006 1.516-2.362 3.026-4.068 4.528-1.706 1.502-3.675 2.98-5.906 4.439a88.61 88.61 0 0 1-7.021 4.135 106.222 106.222 0 0 1-7.46 3.587 104.476 104.476 0 0 1-7.174 2.82c-2.26.789-4.324 1.408-6.19 1.86-1.866.453-3.368.679-4.506.679-.962 0-1.983-.284-3.062-.853-1.08-.57-2.181-1.297-3.303-2.188a34.754 34.754 0 0 1-3.325-3.018 89.795 89.795 0 0 1-3.084-3.324 94.878 94.878 0 0 1-2.625-3.107l-1.925-2.384c-.758-.904-1.297-1.968-1.618-3.193-.321-1.226-.481-2.582-.481-4.07 0-1.982.19-4.25.568-6.801.379-2.553.963-5.09 1.75-7.612a40.493 40.493 0 0 1 2.953-7.087c1.18-2.202 2.573-3.96 4.178-5.272 1.69-1.371 3.71-2.778 6.059-4.222a92.928 92.928 0 0 1 7.656-4.2 111.956 111.956 0 0 1 8.66-3.805 105.615 105.615 0 0 1 9.145-3.107 83.388 83.388 0 0 1 9.099-2.1c2.989-.51 5.81-.765 8.465-.765.7 0 1.385.13 2.056.394.67.262 1.327.7 1.969 1.312.64.612 1.283 1.43 1.925 2.45.64 1.02 1.297 2.289 1.968 3.806a112.09 112.09 0 0 1-7.765 2.734 302.412 302.412 0 0 1-7.743 2.297 716.7 716.7 0 0 0-7.656 2.209 101.136 101.136 0 0 0-7.46 2.516 75.615 75.615 0 0 0-7.217 3.193 50.998 50.998 0 0 0-6.868 4.2c-.525.379-1.087.962-1.684 1.749a22.382 22.382 0 0 0-1.772 2.779 42.916 42.916 0 0 0-1.706 3.5 39.994 39.994 0 0 0-1.466 3.893 33.973 33.973 0 0 0-1.006 3.937c-.248 1.299-.372 2.515-.372 3.653 0 .904.24 1.853.722 2.844a19.277 19.277 0 0 0 1.794 2.953c.714.977 1.509 1.91 2.384 2.8a33.855 33.855 0 0 0 2.559 2.362c.83.686 1.589 1.232 2.275 1.64.685.409 1.203.613 1.553.613.67-.06 1.619-.285 2.843-.68a74.521 74.521 0 0 0 4.2-1.508 119.273 119.273 0 0 0 5.03-2.1 116.906 116.906 0 0 0 5.316-2.515 116.414 116.414 0 0 0 5.075-2.713c1.619-.918 3.04-1.822 4.266-2.712 1.224-.89 2.209-1.72 2.952-2.493.744-.772 1.116-1.466 1.116-2.078 0-.35-.044-.78-.131-1.291a8.635 8.635 0 0 0-.394-1.487 4.798 4.798 0 0 0-.656-1.247c-.263-.35-.554-.525-.875-.525-1.81 0-3.406.124-4.791.372a40.356 40.356 0 0 0-4.178.985c-1.4.408-2.931.874-4.593 1.399s-3.675 1.079-6.037 1.662a5.424 5.424 0 0 1-1.138.132c-.758 0-1.451-.277-2.077-.832-.628-.553-1.181-1.282-1.663-2.186a17.366 17.366 0 0 1-1.246-3.063 23.557 23.557 0 0 1-.788-3.456z"/></g><g><path fill="#f0f" d="M453.601 78.118c-1.327-.554-2.413-1.253-3.259-2.099a8.708 8.708 0 0 1-1.925-2.866 15.896 15.896 0 0 1-.962-3.39 27.765 27.765 0 0 1-.372-3.719 309.016 309.016 0 0 1-.109-3.849 64.094 64.094 0 0 0-4.725-1.007 135.72 135.72 0 0 0-5.053-.787c-1.706-.234-3.39-.438-5.053-.613a103.682 103.682 0 0 0-4.724-.393 288.53 288.53 0 0 1-2.954 4.024 607.432 607.432 0 0 0-3.564 4.834 185.398 185.398 0 0 0-3.566 5.053 101.431 101.431 0 0 0-2.997 4.638c-.262.028-.795-.162-1.597-.57a30.819 30.819 0 0 1-2.69-1.574 69.36 69.36 0 0 1-2.997-2.057 36.304 36.304 0 0 1-2.515-1.968c.992-1.516 2.26-3.325 3.806-5.424a209.36 209.36 0 0 1 5.36-6.935 412.996 412.996 0 0 1 6.65-8.05 395.368 395.368 0 0 1 7.654-8.77 512.831 512.831 0 0 1 8.4-9.122 368.15 368.15 0 0 1 17.914-17.739c3.033-2.8 6.022-5.41 8.968-7.83.788 0 1.677.086 2.67.261.99.175 1.91.394 2.755.657.846.262 1.538.54 2.078.831.54.292.78.54.722.744a414.602 414.602 0 0 0-3.478 12.381 232.104 232.104 0 0 0-3.084 13.168 184.956 184.956 0 0 0-2.21 13.233c-.568 4.39-.853 8.581-.853 12.577 0 1.371.051 2.771.154 4.2.101 1.43.19 2.807.262 4.134.073 1.327.102 2.566.088 3.718-.015 1.153-.147 2.151-.394 2.997-.248.846-.65 1.487-1.203 1.925-.555.437-1.312.612-2.275.525-1.954-.205-3.595-.584-4.922-1.138zm-6.365-23.273c.146-.612.372-1.582.678-2.909a775.41 775.41 0 0 1 1.05-4.485c.394-1.662.816-3.412 1.27-5.249a325.48 325.48 0 0 1 1.312-5.163c.422-1.603.816-3.01 1.18-4.22s.678-2.02.941-2.429c-.67.525-1.495 1.284-2.472 2.275-.977.992-2.049 2.121-3.215 3.391a1005.51 1005.51 0 0 0-3.74 4.09 1417.82 1417.82 0 0 0-4.003 4.418 294.877 294.877 0 0 1-4.024 4.375 126.287 126.287 0 0 1-3.85 3.937z"/></g><g><path fill="#f0f" d="M520.73 28.772a332.615 332.615 0 0 1-2.078 6.737 1366.22 1366.22 0 0 1-2.406 7.46c-.83 2.551-1.662 5.124-2.494 7.72a1586.54 1586.54 0 0 1-2.428 7.524 800.344 800.344 0 0 0-2.187 6.826 218.883 218.883 0 0 0-1.706 5.642c-.234.847-.438 1.481-.613 1.904-.174.422-.525.634-1.049.634-.934 0-1.925-.255-2.976-.765a13.696 13.696 0 0 1-2.887-1.882c-.875-.743-1.596-1.516-2.165-2.319-.569-.8-.853-1.508-.853-2.12 0-2.45.248-5.024.743-7.722a89.176 89.176 0 0 1 1.947-8.269c.802-2.814 1.713-5.68 2.735-8.596a700.304 700.304 0 0 1 3.127-8.75 520.268 520.268 0 0 0 3.084-8.683 140.43 140.43 0 0 0 2.625-8.422c.204-.729.387-1.385.547-1.968.16-.583.365-1.072.613-1.466.247-.393.59-.7 1.028-.919.437-.218 1.035-.356 1.793-.415 1.021.7 2.21 1.78 3.566 3.238a105.706 105.706 0 0 1 4.243 4.877 262.655 262.655 0 0 1 4.42 5.534 292.705 292.705 0 0 0 4.111 5.184c1.27 1.561 2.391 2.843 3.368 3.85.977 1.006 1.7 1.51 2.166 1.51.321-.176.925-.642 1.815-1.4.89-.758 1.976-1.707 3.26-2.844a669.584 669.584 0 0 1 4.331-3.806c1.603-1.4 3.28-2.836 5.03-4.31a205.75 205.75 0 0 1 5.36-4.352 116.01 116.01 0 0 1 5.315-3.938 56.685 56.685 0 0 1 4.878-3.062c1.531-.846 2.894-1.429 4.09-1.75.7.525 1.436 1.087 2.21 1.684a25.714 25.714 0 0 1 2.208 1.925c.7.686 1.313 1.43 1.838 2.232a8.536 8.536 0 0 1 1.137 2.56 208.943 208.943 0 0 0-2.975 6.474 339.299 339.299 0 0 0-3.478 8.18 1506.26 1506.26 0 0 0-3.762 9.252 989.145 989.145 0 0 0-3.827 9.647l-3.654 9.34a3466.697 3466.697 0 0 0-3.258 8.355c-.993 2.553-1.867 4.791-2.625 6.716-.759 1.925-1.356 3.383-1.794 4.374-1.02 0-2.122-.124-3.303-.37a14.963 14.963 0 0 1-3.303-1.095c-1.02-.48-1.867-1.093-2.538-1.838-.67-.743-1.005-1.625-1.005-2.646 0-1.05.218-2.472.656-4.266a97.6 97.6 0 0 1 1.706-6.037c.7-2.23 1.502-4.593 2.406-7.087a483.962 483.962 0 0 1 2.756-7.415 632.153 632.153 0 0 1 7.524-18.549l-19.554 14.35c-.584 0-1.335-.314-2.253-.94-.919-.627-1.933-1.437-3.04-2.429a65.13 65.13 0 0 1-3.457-3.347 158.048 158.048 0 0 1-3.478-3.719 333.684 333.684 0 0 1-3.128-3.499 160.085 160.085 0 0 1-2.362-2.734z"/></g><g><path fill="#f0f" d="M566.4 70.157c.525-2.013 1.11-4.222 1.75-6.628a672.321 672.321 0 0 1 4.354-15.552 729.951 729.951 0 0 1 4.855-15.902 294.398 294.398 0 0 1 2.34-7.065c.759-2.188 1.48-4.178 2.167-5.972.684-1.793 1.319-3.287 1.903-4.484.262-.525.962-1.035 2.1-1.531 1.137-.496 2.58-.97 4.33-1.422a82.01 82.01 0 0 1 5.885-1.268c2.172-.394 4.418-.751 6.736-1.072a286.83 286.83 0 0 1 13.365-1.532c1.983-.175 3.733-.312 5.25-.415 1.516-.101 2.639-.153 3.368-.153 1.663 0 2.997.343 4.003 1.028 1.007.686 1.51 1.845 1.51 3.478v.393a1633.143 1633.143 0 0 1-15.29 4.069 166.065 166.065 0 0 1-15.377 3.237c-.642.088-1.145.227-1.51.416a2.54 2.54 0 0 0-.874.722 3.493 3.493 0 0 0-.525 1.072c-.131.423-.27.94-.416 1.553a31.602 31.602 0 0 1-.831 2.997c-.292.86-.576 1.683-.853 2.47-.278.789-.562 1.605-.853 2.45a38.524 38.524 0 0 0-.875 2.975c.816-.057 1.873-.19 3.172-.393l4.046-.634c1.4-.22 2.763-.416 4.09-.591s2.443-.263 3.347-.263c1.225 0 2.23.162 3.019.482.787.32 1.414.759 1.88 1.312.467.554.788 1.21.963 1.969.175.759.263 1.56.263 2.405v.57a75.035 75.035 0 0 1-5.12 1.422 81.78 81.78 0 0 1-4.548.94c-1.488.263-2.99.503-4.506.722-1.517.218-3.18.503-4.988.853a90.851 90.851 0 0 1-2.733.503c-.628.103-1.11.256-1.444.459-.336.205-.606.519-.81.94-.204.424-.481 1.087-.831 1.992a174.663 174.663 0 0 0-1.99 5.074 506.364 506.364 0 0 0-1.904 5.162 165.329 165.329 0 0 0-1.684 4.878c-.51 1.56-.955 2.968-1.334 4.222a55.725 55.725 0 0 0 6.365-1.03c2.202-.48 4.455-1.02 6.759-1.617a493.439 493.439 0 0 0 6.956-1.86 160.842 160.842 0 0 1 6.956-1.75 93.136 93.136 0 0 1 6.78-1.29 42.753 42.753 0 0 1 6.388-.503c1.02 0 1.734.234 2.143.7.408.467.613 1.035.613 1.706 0 .496-.06.978-.175 1.443-.117.468-.248.949-.394 1.445-2.392.787-4.834 1.67-7.328 2.646-2.493.978-5.03 1.984-7.611 3.019a374.135 374.135 0 0 1-7.897 3.062 173.203 173.203 0 0 1-8.137 2.822c-.787.262-2.02.568-3.696.919-1.678.349-3.544.7-5.6 1.049-2.056.35-4.186.678-6.387.985-2.203.306-4.222.547-6.06.72z"/></g><g><path fill="#f0f" d="M638.976 74.312c-.496 1.663-1.203 2.866-2.122 3.61-.92.744-1.888 1.116-2.91 1.116-.758 0-1.516-.183-2.274-.547a6.535 6.535 0 0 1-2.012-1.51c-.584-.642-1.057-1.406-1.422-2.297-.365-.889-.547-1.858-.547-2.909v-.306c.088-2.39.43-5.03 1.028-7.919.598-2.886 1.349-5.89 2.253-9.01a270.887 270.887 0 0 1 2.975-9.582c1.079-3.266 2.144-6.48 3.194-9.646a436.05 436.05 0 0 0 2.93-9.165c.905-2.945 1.634-5.672 2.188-8.18-1.75.233-3.5.451-5.25.656-1.487.174-3.077.342-4.768.502a87.274 87.274 0 0 1-4.594.33c-1.603 0-2.96-.118-4.068-.35-1.108-.234-1.997-.555-2.668-.964-.671-.408-1.16-.875-1.466-1.399a3.334 3.334 0 0 1-.46-1.707c0-.525.22-.969.657-1.334.437-.365 1.137-.59 2.1-.678 4.812-.467 9.609-.947 14.393-1.443 4.782-.497 9.565-.956 14.348-1.379 4.784-.422 9.574-.772 14.37-1.05 4.799-.277 9.618-.444 14.46-.503l1.137 5.687-22.66 2.581a389.483 389.483 0 0 1-4.528 14.262c-1.65 4.87-3.318 9.741-5.01 14.612a1786.925 1786.925 0 0 0-4.965 14.501 260.058 260.058 0 0 0-4.31 14.021z"/></g><g><path fill="#f0f" d="M698.318 78.118c-1.327-.554-2.413-1.253-3.259-2.099a8.708 8.708 0 0 1-1.925-2.866 15.896 15.896 0 0 1-.962-3.39 27.765 27.765 0 0 1-.372-3.719 309.016 309.016 0 0 1-.109-3.849 64.094 64.094 0 0 0-4.725-1.007 135.72 135.72 0 0 0-5.053-.787c-1.706-.234-3.39-.438-5.053-.613a103.682 103.682 0 0 0-4.724-.393 288.53 288.53 0 0 1-2.954 4.024 607.432 607.432 0 0 0-3.564 4.834 185.398 185.398 0 0 0-3.566 5.053 101.431 101.431 0 0 0-2.997 4.638c-.262.028-.795-.162-1.597-.57a30.819 30.819 0 0 1-2.69-1.574 69.36 69.36 0 0 1-2.997-2.057 36.304 36.304 0 0 1-2.515-1.968c.992-1.516 2.26-3.325 3.806-5.424a209.36 209.36 0 0 1 5.36-6.935 412.996 412.996 0 0 1 6.65-8.05 395.368 395.368 0 0 1 7.654-8.77 512.831 512.831 0 0 1 8.4-9.122 368.15 368.15 0 0 1 17.914-17.739c3.033-2.8 6.022-5.41 8.968-7.83.788 0 1.677.086 2.67.261.99.175 1.91.394 2.755.657.846.262 1.538.54 2.078.831.54.292.78.54.722.744a414.602 414.602 0 0 0-3.478 12.381 232.104 232.104 0 0 0-3.084 13.168 184.956 184.956 0 0 0-2.21 13.233c-.568 4.39-.853 8.581-.853 12.577 0 1.371.051 2.771.154 4.2.101 1.43.19 2.807.262 4.134.073 1.327.102 2.566.088 3.718-.015 1.153-.147 2.151-.394 2.997-.248.846-.65 1.487-1.203 1.925-.555.437-1.312.612-2.275.525-1.954-.205-3.595-.584-4.922-1.138zm-6.365-23.273c.146-.612.372-1.582.678-2.909a775.41 775.41 0 0 1 1.05-4.485c.394-1.662.816-3.412 1.27-5.249a325.48 325.48 0 0 1 1.311-5.163c.422-1.603.816-3.01 1.181-4.22.364-1.21.678-2.02.941-2.429-.67.525-1.495 1.284-2.472 2.275-.977.992-2.049 2.121-3.215 3.391a1005.51 1005.51 0 0 0-3.74 4.09 1417.82 1417.82 0 0 0-4.004 4.418 294.877 294.877 0 0 1-4.024 4.375 126.287 126.287 0 0 1-3.85 3.937z"/></g><g><path fill="#f0f" d="M778.44 13.591a170.37 170.37 0 0 0-6.736 6.146 258.295 258.295 0 0 0-7.94 7.985 374.6 374.6 0 0 0-9.34 10.171c-3.354 3.777-7 8.012-10.937 12.708a103.67 103.67 0 0 0-2.603 3.347 168.487 168.487 0 0 0-3.39 4.681 208.848 208.848 0 0 0-3.631 5.358 111.437 111.437 0 0 0-3.303 5.338c-.978 1.692-1.78 3.215-2.406 4.572-.628 1.356-.941 2.398-.941 3.128 0 .583-.095 1.035-.284 1.356-.19.32-.416.568-.678.743a2.067 2.067 0 0 1-.875.328 6.794 6.794 0 0 1-.92.066c-.641 0-1.37-.175-2.186-.525a22.31 22.31 0 0 1-2.494-1.268 31.294 31.294 0 0 1-2.45-1.597 259.71 259.71 0 0 1-2.012-1.466c-.03-.99-.044-1.975-.044-2.953v-2.953c0-4.345.036-8.602.109-12.773a98402.87 98402.87 0 0 1 .438-24.914c.073-4.157.109-8.407.109-12.753 0-1.34.24-2.42.722-3.238.48-.815 1.174-1.224 2.078-1.224.729 0 1.516.357 2.362 1.071.846.716 1.707 1.583 2.582 2.604a51.715 51.715 0 0 1 2.537 3.214 62.83 62.83 0 0 0 2.23 2.911c.176.233.292.51.35.831.059.321.089.612.089.875a147.508 147.508 0 0 0-.875 6.627 118.067 118.067 0 0 0-.525 6.43 135.509 135.509 0 0 0-.197 6.52c-.015 2.202.007 4.498.065 6.89a76.798 76.798 0 0 1 4.025-5.207 134.295 134.295 0 0 1 4.725-5.337 144.41 144.41 0 0 1 4.9-5.008 73.588 73.588 0 0 1 4.637-4.179c1.925-1.604 3.66-3.04 5.206-4.309a210.441 210.441 0 0 1 4.375-3.5c1.37-1.064 2.704-2.07 4.002-3.018 1.298-.948 2.669-1.91 4.112-2.887a150.11 150.11 0 0 1 4.725-3.062 398.701 398.701 0 0 1 5.84-3.566c.058.06.314.175.766.35s.955.365 1.509.57c.554.203 1.057.393 1.509.567.453.175.707.292.766.35z"/></g><g><path fill="#f0f" d="M747.336 70.157c.525-2.013 1.109-4.222 1.75-6.628a672.321 672.321 0 0 1 4.353-15.552 729.951 729.951 0 0 1 4.855-15.902 294.398 294.398 0 0 1 2.34-7.065c.759-2.188 1.48-4.178 2.167-5.972.684-1.793 1.319-3.287 1.903-4.484.262-.525.962-1.035 2.1-1.531 1.137-.496 2.58-.97 4.33-1.422a82.01 82.01 0 0 1 5.885-1.268c2.172-.394 4.418-.751 6.736-1.072a286.83 286.83 0 0 1 13.365-1.532c1.983-.175 3.733-.312 5.25-.415 1.516-.101 2.639-.153 3.368-.153 1.663 0 2.997.343 4.003 1.028 1.007.686 1.51 1.845 1.51 3.478v.393a1633.143 1633.143 0 0 1-15.29 4.069 166.065 166.065 0 0 1-15.377 3.237c-.642.088-1.145.227-1.51.416a2.54 2.54 0 0 0-.874.722 3.493 3.493 0 0 0-.525 1.072c-.131.423-.27.94-.416 1.553a31.602 31.602 0 0 1-.831 2.997c-.292.86-.576 1.683-.853 2.47-.278.789-.562 1.605-.853 2.45a38.524 38.524 0 0 0-.875 2.975c.816-.057 1.873-.19 3.172-.393l4.046-.634c1.4-.22 2.763-.416 4.09-.591s2.443-.263 3.347-.263c1.225 0 2.23.162 3.019.482.787.32 1.414.759 1.88 1.312.467.554.788 1.21.963 1.969.175.759.263 1.56.263 2.405v.57a75.035 75.035 0 0 1-5.12 1.422 81.78 81.78 0 0 1-4.548.94c-1.488.263-2.99.503-4.506.722-1.517.218-3.18.503-4.988.853a90.851 90.851 0 0 1-2.733.503c-.628.103-1.11.256-1.444.459-.336.205-.606.519-.81.94-.204.424-.481 1.087-.831 1.992a174.663 174.663 0 0 0-1.99 5.074 506.364 506.364 0 0 0-1.904 5.162 165.329 165.329 0 0 0-1.684 4.878c-.51 1.56-.955 2.968-1.334 4.222a55.725 55.725 0 0 0 6.365-1.03c2.202-.48 4.455-1.02 6.759-1.617a493.439 493.439 0 0 0 6.956-1.86 160.842 160.842 0 0 1 6.956-1.75 93.136 93.136 0 0 1 6.78-1.29 42.753 42.753 0 0 1 6.388-.503c1.02 0 1.734.234 2.143.7.408.467.613 1.035.613 1.706 0 .496-.06.978-.175 1.443-.117.468-.248.949-.394 1.445-2.392.787-4.834 1.67-7.328 2.646-2.493.978-5.03 1.984-7.611 3.019a374.135 374.135 0 0 1-7.897 3.062 173.203 173.203 0 0 1-8.137 2.822c-.787.262-2.02.568-3.696.919-1.678.349-3.544.7-5.6 1.049-2.056.35-4.186.678-6.387.985-2.203.306-4.222.547-6.06.72z"/></g><g><path fill="#f0f" d="M878.357 68.931c1.196 0 2.574-.159 4.134-.48a32.111 32.111 0 0 0 4.79-1.4 33.668 33.668 0 0 0 4.834-2.275 25.453 25.453 0 0 0 4.353-3.107 17.725 17.725 0 0 0 3.303-3.893 11.786 11.786 0 0 0 1.685-4.637v-.35c0-.846-.388-1.699-1.16-2.559-.773-.86-1.787-1.742-3.04-2.647a52.877 52.877 0 0 0-4.287-2.756 544.33 544.33 0 0 1-4.944-2.91 94.258 94.258 0 0 1-4.943-3.149 35.116 35.116 0 0 1-4.288-3.412c-1.254-1.182-2.268-2.413-3.04-3.697-.773-1.283-1.16-2.639-1.16-4.069 0-1.662.474-3.208 1.423-4.637.947-1.428 2.194-2.74 3.74-3.937 1.545-1.195 3.28-2.245 5.206-3.149a50.796 50.796 0 0 1 5.84-2.32c1.969-.64 3.85-1.122 5.643-1.443 1.794-.32 3.332-.482 4.616-.482 1.604 0 3.076.162 4.418.482 1.34.321 2.494.831 3.456 1.531a7.232 7.232 0 0 1 2.254 2.691c.539 1.093.809 2.414.809 3.96v.852c0 .277-.03.576-.088.897a82.051 82.051 0 0 1-6.956.416c-2.391.042-4.666.152-6.824.328-2.16.174-4.106.488-5.84.94-1.736.452-3.056 1.218-3.96 2.297a192.03 192.03 0 0 0 5.972 3.215c2.114 1.094 4.2 2.224 6.256 3.39a84.24 84.24 0 0 1 5.905 3.675c1.882 1.283 3.537 2.64 4.966 4.07 1.428 1.428 2.566 2.945 3.412 4.548a10.82 10.82 0 0 1 1.269 5.12v.852c0 .277-.03.562-.087.853-.38 2.975-1.138 5.695-2.275 8.16-1.138 2.464-2.553 4.673-4.244 6.627a29.042 29.042 0 0 1-5.752 5.096 37.18 37.18 0 0 1-6.76 3.61 37.49 37.49 0 0 1-7.283 2.142 40 40 0 0 1-7.372.701c-3.733 0-7.116-.387-10.15-1.16-3.033-.772-5.628-1.706-7.786-2.799-2.16-1.094-3.821-2.246-4.987-3.456s-1.75-2.253-1.75-3.128c0-.35.065-.737.196-1.16.132-.422.388-.816.766-1.18.379-.365.919-.67 1.619-.919.7-.248 1.603-.372 2.712-.372 1.05 0 2.07.262 3.063.787.99.525 2.07 1.101 3.237 1.728a29.176 29.176 0 0 0 3.937 1.728c1.458.525 3.179.787 5.162.787z"/></g><g><path fill="#f0f" d="M914.622 70.157c.525-2.013 1.11-4.222 1.75-6.628a672.321 672.321 0 0 1 4.353-15.552 729.951 729.951 0 0 1 4.855-15.902 294.398 294.398 0 0 1 2.341-7.065c.758-2.188 1.48-4.178 2.166-5.972.684-1.793 1.32-3.287 1.903-4.484.262-.525.962-1.035 2.1-1.531 1.137-.496 2.581-.97 4.33-1.422a82.01 82.01 0 0 1 5.885-1.268c2.172-.394 4.418-.751 6.736-1.072a286.83 286.83 0 0 1 13.365-1.532c1.983-.175 3.733-.312 5.25-.415 1.516-.101 2.64-.153 3.368-.153 1.663 0 2.997.343 4.003 1.028 1.007.686 1.51 1.845 1.51 3.478v.393a1633.143 1633.143 0 0 1-15.29 4.069 166.065 166.065 0 0 1-15.377 3.237c-.642.088-1.145.227-1.509.416a2.54 2.54 0 0 0-.875.722 3.493 3.493 0 0 0-.525 1.072c-.13.423-.27.94-.416 1.553a31.602 31.602 0 0 1-.83 2.997c-.293.86-.577 1.683-.854 2.47-.278.789-.562 1.605-.853 2.45a38.524 38.524 0 0 0-.875 2.975c.816-.057 1.873-.19 3.172-.393l4.046-.634c1.4-.22 2.763-.416 4.09-.591s2.443-.263 3.347-.263c1.225 0 2.231.162 3.02.482.786.32 1.413.759 1.88 1.312.466.554.787 1.21.962 1.969.175.759.263 1.56.263 2.405v.57a75.035 75.035 0 0 1-5.119 1.422 81.78 81.78 0 0 1-4.549.94c-1.488.263-2.99.503-4.506.722-1.517.218-3.18.503-4.988.853a90.851 90.851 0 0 1-2.733.503c-.628.103-1.109.256-1.444.459-.336.205-.606.519-.81.94-.204.424-.48 1.087-.83 1.992a174.663 174.663 0 0 0-1.99 5.074 506.364 506.364 0 0 0-1.905 5.162 165.329 165.329 0 0 0-1.684 4.878c-.51 1.56-.955 2.968-1.334 4.222a55.725 55.725 0 0 0 6.365-1.03c2.202-.48 4.455-1.02 6.76-1.617a493.439 493.439 0 0 0 6.955-1.86 160.842 160.842 0 0 1 6.956-1.75 93.136 93.136 0 0 1 6.781-1.29 42.753 42.753 0 0 1 6.387-.503c1.02 0 1.734.234 2.143.7.408.467.613 1.035.613 1.706 0 .496-.059.978-.175 1.443-.117.468-.248.949-.394 1.445-2.392.787-4.834 1.67-7.328 2.646-2.493.978-5.03 1.984-7.61 3.019a374.135 374.135 0 0 1-7.898 3.062 173.203 173.203 0 0 1-8.137 2.822c-.787.262-2.02.568-3.696.919-1.678.349-3.544.7-5.6 1.049-2.056.35-4.186.678-6.387.985-2.203.306-4.222.547-6.059.72z"/></g><g><path fill="#f0f" d="M1016.441 22.931c-.627-1.094-1.276-2.223-1.947-3.389 4.492-2.217 9.245-3.894 14.262-5.032a68.272 68.272 0 0 1 15.137-1.706c2.128 0 4.156.24 6.08.722 1.925.481 3.588 1.247 4.988 2.297 1.4 1.05 2.485 2.421 3.26 4.112.771 1.691 1.1 3.762.983 6.212-.088 1.371-.474 2.705-1.159 4.003a17.135 17.135 0 0 1-2.559 3.61 23.728 23.728 0 0 1-3.369 3.018c-1.225.904-2.406 1.647-3.544 2.23 2.304.235 4.448.643 6.431 1.226 1.984.583 3.69 1.4 5.12 2.45 1.427 1.05 2.53 2.34 3.301 3.871.773 1.531 1.101 3.347.985 5.446-.146 2.48-.795 4.777-1.947 6.891-1.152 2.114-2.662 4.068-4.528 5.861-1.866 1.794-4.003 3.428-6.408 4.901a65.106 65.106 0 0 1-7.547 3.96 87.075 87.075 0 0 1-7.962 3.083c-2.683.89-5.235 1.64-7.655 2.253-2.422.612-4.63 1.1-6.628 1.466-1.998.364-3.624.604-4.878.721-1.78.175-3.544.343-5.294.503-1.749.16-3.39.255-4.92.284-1.532.03-2.903-.05-4.114-.24-1.209-.19-2.157-.547-2.843-1.072-.685-.525-1.057-1.254-1.115-2.187-.059-.934.292-2.13 1.05-3.588.058-.145.313-.765.765-1.859l1.772-4.287a1590.08 1590.08 0 0 0 2.515-6.125c.948-2.318 1.94-4.76 2.975-7.327 1.035-2.567 2.085-5.198 3.15-7.897 1.064-2.697 2.085-5.307 3.062-7.83a313.11 313.11 0 0 0 2.67-7.132c.8-2.23 1.464-4.177 1.99-5.839a1121.32 1121.32 0 0 1-2.079-3.61zm-2.209 50.507a87.436 87.436 0 0 0 7.765-1.4 85.269 85.269 0 0 0 8.115-2.253 64.422 64.422 0 0 0 7.7-3.106c2.45-1.18 4.622-2.494 6.518-3.937 1.895-1.445 3.427-3.019 4.594-4.725 1.166-1.707 1.808-3.52 1.924-5.447.058-1.137-.102-2.1-.48-2.887a4.698 4.698 0 0 0-1.598-1.88c-.685-.468-1.487-.766-2.406-.898a9.345 9.345 0 0 0-2.909.065 72.93 72.93 0 0 0-4.79 1.116 130.705 130.705 0 0 0-5.73 1.663 374.366 374.366 0 0 0-6.082 1.968c-2.056.686-4.003 1.35-5.84 1.991zm10.193-33.292a98.806 98.806 0 0 0 3.653-1.028 64.403 64.403 0 0 0 8.86-3.39 26.543 26.543 0 0 0 4.024-2.319c1.195-.846 2.18-1.764 2.952-2.756.773-.99 1.203-2.04 1.291-3.15.058-.788-.27-1.297-.985-1.53-.714-.234-1.655-.278-2.82-.133-1.168.147-2.466.41-3.894.788-1.43.38-2.808.788-4.135 1.225-1.327.438-2.53.847-3.609 1.225-1.079.38-1.837.628-2.274.744z"/></g><g><path fill="#f0f" d="M1093.282 65.52c2.333-.496 4.535-1.598 6.606-3.304 2.07-1.706 4.025-3.79 5.862-6.256 1.838-2.463 3.551-5.19 5.14-8.18 1.59-2.99 3.077-6.008 4.463-9.056a235.627 235.627 0 0 0 3.827-8.88 390.197 390.197 0 0 1 3.194-7.656c.963-2.232 1.845-4.032 2.647-5.403.802-1.37 1.51-2.07 2.121-2.1.321-.028.707.044 1.16.22.452.174.853.408 1.203.7a133.092 133.092 0 0 1-2.406 12.27 111.688 111.688 0 0 1-3.806 12.402 95.008 95.008 0 0 1-5.337 11.834 67.037 67.037 0 0 1-7 10.564 53.808 53.808 0 0 1-8.77 8.62 40.179 40.179 0 0 1-10.697 5.95c-3.734-1.75-6.97-3.655-9.712-5.71-2.742-2.057-5.024-4.222-6.847-6.496-1.823-2.276-3.179-4.645-4.068-7.11a21.935 21.935 0 0 1-1.334-7.503c0-2.333.247-4.687.743-7.064a51.586 51.586 0 0 1 2.034-7.11 72.872 72.872 0 0 1 2.975-6.999 122.989 122.989 0 0 1 3.544-6.737c1.24-2.187 2.5-4.302 3.784-6.344a591.536 591.536 0 0 1 3.674-5.774c1.051-1.662 2.02-2.888 2.91-3.675.89-.787 1.83-1.18 2.821-1.18.467 0 1.072.152 1.816.458.744.307 1.524.686 2.341 1.138.816.452 1.603.955 2.362 1.51.758.554 1.385 1.078 1.881 1.574-.35 1.458-.963 3.157-1.838 5.097a190.069 190.069 0 0 1-2.996 6.3c-1.123 2.26-2.297 4.636-3.522 7.13a106.382 106.382 0 0 0-3.368 7.59 63.65 63.65 0 0 0-2.516 7.678c-.656 2.552-.984 5.023-.984 7.415 0 1.196.182 2.472.547 3.827a18.42 18.42 0 0 0 1.597 3.982 17.636 17.636 0 0 0 2.56 3.587 13.575 13.575 0 0 0 3.39 2.69z"/></g><g><path fill="#f0f" d="M1141.972 68.931c1.196 0 2.574-.159 4.134-.48a32.111 32.111 0 0 0 4.79-1.4 33.668 33.668 0 0 0 4.834-2.275 25.453 25.453 0 0 0 4.353-3.107 17.725 17.725 0 0 0 3.303-3.893 11.786 11.786 0 0 0 1.685-4.637v-.35c0-.846-.388-1.699-1.16-2.559-.773-.86-1.787-1.742-3.04-2.647a52.877 52.877 0 0 0-4.287-2.756 544.33 544.33 0 0 1-4.944-2.91 94.258 94.258 0 0 1-4.943-3.149 35.116 35.116 0 0 1-4.288-3.412c-1.254-1.182-2.268-2.413-3.04-3.697-.773-1.283-1.159-2.639-1.159-4.069 0-1.662.473-3.208 1.422-4.637.947-1.428 2.194-2.74 3.74-3.937 1.545-1.195 3.281-2.245 5.206-3.149a50.796 50.796 0 0 1 5.84-2.32c1.97-.64 3.85-1.122 5.643-1.443 1.794-.32 3.332-.482 4.616-.482 1.604 0 3.076.162 4.418.482 1.341.321 2.494.831 3.456 1.531a7.232 7.232 0 0 1 2.254 2.691c.54 1.093.81 2.414.81 3.96v.852c0 .277-.03.576-.089.897a82.051 82.051 0 0 1-6.956.416c-2.39.042-4.666.152-6.824.328-2.159.174-4.106.488-5.84.94-1.736.452-3.056 1.218-3.959 2.297a192.03 192.03 0 0 0 5.971 3.215c2.114 1.094 4.2 2.224 6.256 3.39a84.24 84.24 0 0 1 5.905 3.675c1.882 1.283 3.537 2.64 4.966 4.07 1.428 1.428 2.566 2.945 3.412 4.548a10.82 10.82 0 0 1 1.27 5.12v.852c0 .277-.03.562-.088.853-.38 2.975-1.138 5.695-2.275 8.16-1.138 2.464-2.553 4.673-4.244 6.627a29.042 29.042 0 0 1-5.752 5.096 37.18 37.18 0 0 1-6.76 3.61 37.49 37.49 0 0 1-7.283 2.142 40 40 0 0 1-7.372.701c-3.733 0-7.116-.387-10.149-1.16-3.034-.772-5.629-1.706-7.787-2.799-2.159-1.094-3.82-2.246-4.987-3.456-1.166-1.21-1.75-2.253-1.75-3.128 0-.35.065-.737.196-1.16.132-.422.388-.816.766-1.18.38-.365.92-.67 1.62-.919.7-.248 1.602-.372 2.711-.372 1.05 0 2.07.262 3.063.787.99.525 2.07 1.101 3.237 1.728a29.176 29.176 0 0 0 3.937 1.728c1.458.525 3.18.787 5.162.787z"/></g><g><path fill="#f0f" d="M1203.305 9.523a23.885 23.885 0 0 0 2.734 1.706c.977.525 1.953 1.036 2.931 1.531a95.73 95.73 0 0 1 2.778 1.466c.875.481 1.647.984 2.32 1.509.174.175.05.948-.373 2.319s-1.043 3.15-1.86 5.337a280.135 280.135 0 0 1-2.952 7.525 978.855 978.855 0 0 1-3.653 8.836 672.715 672.715 0 0 1-3.96 9.253 864.579 864.579 0 0 1-7.305 16.295 280.056 280.056 0 0 1-2.515 5.338 12.372 12.372 0 0 1-1.27 2.056c-.524.7-1.115 1.334-1.77 1.903a9.935 9.935 0 0 1-2.145 1.422 5.46 5.46 0 0 1-2.428.568c-1.37 0-2.289-.277-2.756-.831-.466-.553-.7-1.384-.7-2.494 0-.932.161-2.274.482-4.024.321-1.75.758-3.77 1.312-6.059a196.01 196.01 0 0 1 1.99-7.503 322.159 322.159 0 0 1 2.516-8.378 462.217 462.217 0 0 1 2.843-8.727 235.803 235.803 0 0 1 3.041-8.509 249.42 249.42 0 0 1 3.062-7.699c1.006-2.406 1.976-4.527 2.91-6.365.933-1.837 1.808-3.325 2.624-4.462.816-1.138 1.531-1.809 2.144-2.013z"/></g><g><path fill="#f0f" d="M1280.474 8.779a150.046 150.046 0 0 0-4.046 7.307 264.619 264.619 0 0 0-4.309 8.662 372.493 372.493 0 0 0-4.375 9.536 377.167 377.167 0 0 0-8.072 19.752 216.434 216.434 0 0 0-3.237 9.209 149.272 149.272 0 0 0-2.406 8.115c-.656 2.493-1.1 4.674-1.334 6.54-.059.32-.212.656-.46 1.006a3.973 3.973 0 0 1-1.006.963 6.162 6.162 0 0 1-1.443.722 5.337 5.337 0 0 1-1.772.284c-.759 0-1.568-.175-2.428-.526-.86-.35-1.714-.991-2.56-1.924-.846-1.458-1.69-3.426-2.537-5.906a130.966 130.966 0 0 1-2.472-8.18 280.854 280.854 0 0 1-2.34-9.34c-.759-3.252-1.48-6.388-2.165-9.407a361.771 361.771 0 0 0-1.99-8.334c-.643-2.537-1.226-4.592-1.75-6.167a188.96 188.96 0 0 1-1.488 4.549 506.983 506.983 0 0 1-2.078 5.993 832.078 832.078 0 0 1-2.472 6.89c-.875 2.406-1.758 4.828-2.647 7.263-.89 2.435-1.765 4.806-2.625 7.108-.86 2.305-1.67 4.44-2.427 6.409a507.446 507.446 0 0 1-2.035 5.206 149.108 149.108 0 0 1-1.422 3.479c-1.02-.263-1.924-.65-2.712-1.16a19.347 19.347 0 0 1-2.275-1.728 46.332 46.332 0 0 1-2.143-2.012c-.7-.7-1.458-1.371-2.275-2.012a243.008 243.008 0 0 1 5.074-15.137 338.798 338.798 0 0 1 6.081-15.224 405.962 405.962 0 0 1 6.76-14.961 545.344 545.344 0 0 1 7.064-14.306c.584-.933 1.24-1.4 1.97-1.4.7 0 1.34.438 1.924 1.313a73.472 73.472 0 0 1 5.25 9.996 109.46 109.46 0 0 1 3.915 10.565c1.122 3.587 2.1 7.21 2.931 10.87.831 3.66 1.597 7.3 2.297 10.916a133.6 133.6 0 0 1 3.215-8.684c1.21-2.96 2.494-5.92 3.85-8.881a185.761 185.761 0 0 1 4.265-8.706 281.28 281.28 0 0 1 4.462-8.202 45.337 45.337 0 0 1 2.691-4.2 22.788 22.788 0 0 1 3.412-3.783 17.156 17.156 0 0 1 4.244-2.757c1.56-.714 3.288-1.071 5.184-1.071.116 0 .306.065.568.196.263.132.525.285.788.46.262.175.517.336.766.48.247.147.444.219.59.219z"/></g><g><path fill="#f0f" d="M1262.975 70.157c.525-2.013 1.109-4.222 1.75-6.628a672.321 672.321 0 0 1 4.353-15.552 729.951 729.951 0 0 1 4.855-15.902 294.398 294.398 0 0 1 2.34-7.065c.759-2.188 1.48-4.178 2.167-5.972.684-1.793 1.319-3.287 1.903-4.484.262-.525.962-1.035 2.1-1.531 1.137-.496 2.58-.97 4.33-1.422a82.01 82.01 0 0 1 5.885-1.268c2.172-.394 4.418-.751 6.736-1.072a286.83 286.83 0 0 1 13.365-1.532c1.983-.175 3.733-.312 5.25-.415 1.516-.101 2.639-.153 3.368-.153 1.663 0 2.997.343 4.003 1.028 1.007.686 1.51 1.845 1.51 3.478v.393a1633.143 1633.143 0 0 1-15.29 4.069 166.065 166.065 0 0 1-15.377 3.237c-.642.088-1.145.227-1.51.416a2.54 2.54 0 0 0-.874.722 3.493 3.493 0 0 0-.525 1.072c-.131.423-.27.94-.416 1.553a31.602 31.602 0 0 1-.831 2.997c-.292.86-.576 1.683-.853 2.47-.278.789-.562 1.605-.853 2.45a38.524 38.524 0 0 0-.875 2.975c.816-.057 1.873-.19 3.172-.393l4.046-.634c1.4-.22 2.763-.416 4.09-.591s2.443-.263 3.347-.263c1.225 0 2.23.162 3.019.482.787.32 1.414.759 1.88 1.312.467.554.788 1.21.963 1.969.175.759.263 1.56.263 2.405v.57a75.035 75.035 0 0 1-5.12 1.422 81.78 81.78 0 0 1-4.548.94c-1.488.263-2.99.503-4.506.722-1.517.218-3.18.503-4.988.853a90.851 90.851 0 0 1-2.733.503c-.628.103-1.11.256-1.444.459-.336.205-.606.519-.81.94-.204.424-.481 1.087-.831 1.992a174.663 174.663 0 0 0-1.99 5.074 506.364 506.364 0 0 0-1.904 5.162 165.329 165.329 0 0 0-1.684 4.878c-.51 1.56-.955 2.968-1.334 4.222a55.725 55.725 0 0 0 6.365-1.03c2.202-.48 4.455-1.02 6.759-1.617a493.439 493.439 0 0 0 6.956-1.86 160.842 160.842 0 0 1 6.956-1.75 93.136 93.136 0 0 1 6.78-1.29 42.753 42.753 0 0 1 6.388-.503c1.02 0 1.734.234 2.143.7.408.467.613 1.035.613 1.706 0 .496-.06.978-.175 1.443-.117.468-.248.949-.394 1.445-2.392.787-4.834 1.67-7.328 2.646-2.493.978-5.03 1.984-7.611 3.019a374.135 374.135 0 0 1-7.897 3.062 173.203 173.203 0 0 1-8.137 2.822c-.787.262-2.02.568-3.696.919-1.678.349-3.544.7-5.6 1.049-2.056.35-4.186.678-6.387.985-2.203.306-4.222.547-6.06.72z"/></g><g><path fill="#f0f" d="M1340.625 68.931c1.196 0 2.574-.159 4.134-.48a32.111 32.111 0 0 0 4.79-1.4 33.668 33.668 0 0 0 4.834-2.275 25.453 25.453 0 0 0 4.353-3.107 17.725 17.725 0 0 0 3.303-3.893 11.786 11.786 0 0 0 1.685-4.637v-.35c0-.846-.388-1.699-1.16-2.559-.773-.86-1.787-1.742-3.04-2.647a52.877 52.877 0 0 0-4.287-2.756 544.33 544.33 0 0 1-4.944-2.91 94.258 94.258 0 0 1-4.943-3.149 35.116 35.116 0 0 1-4.288-3.412c-1.254-1.182-2.268-2.413-3.04-3.697-.773-1.283-1.16-2.639-1.16-4.069 0-1.662.474-3.208 1.423-4.637.947-1.428 2.194-2.74 3.74-3.937 1.545-1.195 3.28-2.245 5.206-3.149a50.796 50.796 0 0 1 5.84-2.32c1.969-.64 3.85-1.122 5.643-1.443 1.794-.32 3.332-.482 4.616-.482 1.604 0 3.076.162 4.418.482 1.34.321 2.494.831 3.456 1.531a7.232 7.232 0 0 1 2.254 2.691c.539 1.093.809 2.414.809 3.96v.852c0 .277-.03.576-.088.897a82.051 82.051 0 0 1-6.956.416c-2.391.042-4.666.152-6.824.328-2.16.174-4.106.488-5.84.94-1.736.452-3.056 1.218-3.96 2.297a192.03 192.03 0 0 0 5.972 3.215c2.114 1.094 4.2 2.224 6.256 3.39a84.24 84.24 0 0 1 5.905 3.675c1.882 1.283 3.537 2.64 4.966 4.07 1.428 1.428 2.566 2.945 3.412 4.548a10.82 10.82 0 0 1 1.269 5.12v.852c0 .277-.03.562-.087.853-.38 2.975-1.138 5.695-2.275 8.16-1.138 2.464-2.553 4.673-4.244 6.627a29.042 29.042 0 0 1-5.752 5.096 37.18 37.18 0 0 1-6.76 3.61 37.49 37.49 0 0 1-7.283 2.142 40 40 0 0 1-7.372.701c-3.733 0-7.116-.387-10.15-1.16-3.033-.772-5.628-1.706-7.786-2.799-2.16-1.094-3.821-2.246-4.987-3.456s-1.75-2.253-1.75-3.128c0-.35.065-.737.196-1.16.132-.422.388-.816.766-1.18.379-.365.919-.67 1.619-.919.7-.248 1.603-.372 2.712-.372 1.05 0 2.07.262 3.063.787.99.525 2.07 1.101 3.237 1.728a29.176 29.176 0 0 0 3.937 1.728c1.458.525 3.179.787 5.162.787z"/></g><g><path fill="#f0f" d="M1399.42 68.931c1.196 0 2.574-.159 4.134-.48a32.111 32.111 0 0 0 4.79-1.4 33.668 33.668 0 0 0 4.834-2.275 25.453 25.453 0 0 0 4.353-3.107 17.725 17.725 0 0 0 3.303-3.893 11.786 11.786 0 0 0 1.685-4.637v-.35c0-.846-.388-1.699-1.16-2.559-.773-.86-1.787-1.742-3.04-2.647a52.877 52.877 0 0 0-4.287-2.756 544.33 544.33 0 0 1-4.944-2.91 94.258 94.258 0 0 1-4.943-3.149 35.116 35.116 0 0 1-4.288-3.412c-1.254-1.182-2.268-2.413-3.04-3.697-.773-1.283-1.159-2.639-1.159-4.069 0-1.662.473-3.208 1.422-4.637.947-1.428 2.194-2.74 3.74-3.937 1.545-1.195 3.281-2.245 5.206-3.149a50.796 50.796 0 0 1 5.84-2.32c1.969-.64 3.85-1.122 5.643-1.443 1.794-.32 3.332-.482 4.616-.482 1.604 0 3.076.162 4.418.482 1.341.321 2.494.831 3.456 1.531a7.232 7.232 0 0 1 2.254 2.691c.539 1.093.809 2.414.809 3.96v.852c0 .277-.03.576-.088.897a82.051 82.051 0 0 1-6.956.416c-2.391.042-4.666.152-6.824.328-2.159.174-4.106.488-5.84.94-1.736.452-3.056 1.218-3.959 2.297a192.03 192.03 0 0 0 5.971 3.215c2.114 1.094 4.2 2.224 6.256 3.39a84.24 84.24 0 0 1 5.905 3.675c1.882 1.283 3.537 2.64 4.966 4.07 1.428 1.428 2.566 2.945 3.412 4.548a10.82 10.82 0 0 1 1.269 5.12v.852c0 .277-.029.562-.087.853-.38 2.975-1.138 5.695-2.275 8.16-1.138 2.464-2.553 4.673-4.244 6.627a29.042 29.042 0 0 1-5.752 5.096 37.18 37.18 0 0 1-6.76 3.61 37.49 37.49 0 0 1-7.283 2.142 40 40 0 0 1-7.372.701c-3.733 0-7.116-.387-10.149-1.16-3.034-.772-5.629-1.706-7.787-2.799-2.159-1.094-3.821-2.246-4.987-3.456s-1.75-2.253-1.75-3.128c0-.35.065-.737.196-1.16.132-.422.388-.816.766-1.18.379-.365.919-.67 1.619-.919.7-.248 1.603-.372 2.712-.372 1.05 0 2.07.262 3.063.787.99.525 2.07 1.101 3.237 1.728a29.176 29.176 0 0 0 3.937 1.728c1.458.525 3.179.787 5.162.787z"/></g><g><path fill="#f0f" d="M26.236 64.308c1.195 0 2.573-.16 4.134-.48a32.23 32.23 0 0 0 4.79-1.402 33.719 33.719 0 0 0 4.834-2.274 25.508 25.508 0 0 0 4.353-3.107 17.725 17.725 0 0 0 3.303-3.893 11.817 11.817 0 0 0 1.685-4.637v-.35c0-.845-.388-1.699-1.16-2.559-.773-.86-1.787-1.742-3.041-2.648a52.534 52.534 0 0 0-4.287-2.755 558.5 558.5 0 0 1-4.943-2.91 93.843 93.843 0 0 1-4.943-3.149 35.04 35.04 0 0 1-4.288-3.412c-1.254-1.182-2.268-2.413-3.041-3.697-.772-1.283-1.159-2.639-1.159-4.069 0-1.662.474-3.208 1.422-4.637.947-1.428 2.195-2.74 3.74-3.937 1.546-1.195 3.282-2.245 5.206-3.149a50.81 50.81 0 0 1 5.841-2.32c1.969-.64 3.85-1.122 5.643-1.443 1.794-.32 3.332-.482 4.616-.482 1.603 0 3.076.162 4.418.482 1.341.321 2.494.831 3.456 1.531a7.22 7.22 0 0 1 2.253 2.691c.539 1.093.81 2.413.81 3.96v.852c0 .277-.03.576-.088.897a82.051 82.051 0 0 1-6.956.416c-2.392.043-4.666.152-6.825.328-2.158.174-4.105.488-5.839.94-1.736.452-3.056 1.218-3.96 2.297a194.34 194.34 0 0 0 5.971 3.215 183.679 183.679 0 0 1 6.256 3.39 84.032 84.032 0 0 1 5.906 3.675c1.881 1.283 3.537 2.64 4.966 4.07 1.428 1.428 2.566 2.945 3.412 4.548a10.82 10.82 0 0 1 1.269 5.12v.852c0 .277-.03.562-.088.853-.379 2.974-1.138 5.695-2.274 8.16-1.138 2.464-2.553 4.673-4.245 6.627a28.95 28.95 0 0 1-5.752 5.095 37.082 37.082 0 0 1-6.759 3.61 37.51 37.51 0 0 1-7.283 2.143 40.01 40.01 0 0 1-7.373.701c-3.733 0-7.116-.387-10.148-1.16-3.034-.772-5.63-1.706-7.788-2.799-2.158-1.094-3.82-2.246-4.986-3.456-1.167-1.21-1.75-2.253-1.75-3.128 0-.35.065-.737.196-1.16.132-.422.387-.816.766-1.18.379-.365.918-.67 1.619-.919.699-.248 1.603-.372 2.712-.372 1.049 0 2.07.262 3.062.787.991.525 2.07 1.101 3.237 1.728a29.066 29.066 0 0 0 3.938 1.728c1.458.525 3.178.788 5.162.788z"/></g><g><path fill="#f0f" d="M96.755 72.882c-.786 0-1.821-.212-3.104-.635-1.286-.423-2.7-1.012-4.245-1.77a76.227 76.227 0 0 1-4.9-2.648 77.015 77.015 0 0 1-5.097-3.26 67.623 67.623 0 0 1-4.79-3.652 44.439 44.439 0 0 1-4.025-3.784c-1.166-1.254-2.093-2.472-2.777-3.653-.686-1.18-1.029-2.282-1.029-3.303 0-3.09.591-6.277 1.772-9.559 1.181-3.28 2.814-6.474 4.9-9.58 2.086-3.106 4.566-6.038 7.438-8.794a54.54 54.54 0 0 1 9.405-7.24 49.513 49.513 0 0 1 10.807-4.92 37.972 37.972 0 0 1 11.57-1.817c1.69 0 3.185.278 4.483.832 1.299.554 2.393 1.32 3.282 2.296.89.977 1.56 2.137 2.013 3.478.45 1.342.678 2.8.678 4.374 0 .788-.14 1.531-.416 2.232a8.279 8.279 0 0 1-1.093 1.947 11.83 11.83 0 0 1-1.531 1.662c-.57.511-1.147.97-1.73 1.378-1.398.963-2.988 1.794-4.767 2.494l-7.526-9.23c-1.75.465-3.542 1.26-5.38 2.383a35.679 35.679 0 0 0-5.358 4.046 46.773 46.773 0 0 0-4.922 5.23 41.225 41.225 0 0 0-4.047 5.992 34.526 34.526 0 0 0-2.734 6.321c-.671 2.13-1.006 4.186-1.006 6.168 0 .73.27 1.598.81 2.604.539 1.006 1.239 2.05 2.099 3.128a30.04 30.04 0 0 0 2.975 3.193 34.271 34.271 0 0 0 3.456 2.844c1.182.846 2.333 1.524 3.456 2.034 1.122.511 2.136.766 3.04.766.525 0 1.335-.27 2.429-.81 1.094-.539 2.376-1.247 3.849-2.122a172.848 172.848 0 0 0 4.813-2.975 297.153 297.153 0 0 0 5.249-3.433 455.93 455.93 0 0 1 5.206-3.435 179.919 179.919 0 0 1 4.725-2.974 62.784 62.784 0 0 1 3.74-2.122c1.05-.54 1.794-.809 2.23-.809.643 0 .963.335.963 1.006 0 .233-.072.612-.218 1.138-.321 1.136-.934 2.362-1.838 3.674-.904 1.313-2.005 2.661-3.302 4.046a54.54 54.54 0 0 1-4.375 4.156 77.621 77.621 0 0 1-5.097 4.003 75.666 75.666 0 0 1-5.446 3.587 59.495 59.495 0 0 1-5.403 2.888c-1.75.816-3.413 1.458-4.987 1.925-1.575.466-2.99.7-4.244.7z"/></g><g><path fill="#f0f" d="M169.266 73.494c-1.327-.554-2.414-1.254-3.26-2.099a8.705 8.705 0 0 1-1.924-2.866 15.838 15.838 0 0 1-.962-3.39 27.765 27.765 0 0 1-.372-3.719 329.624 329.624 0 0 1-.11-3.849 63.955 63.955 0 0 0-4.724-1.007 138.177 138.177 0 0 0-5.053-.787 162.117 162.117 0 0 0-5.053-.613 103.682 103.682 0 0 0-4.724-.393 303.35 303.35 0 0 1-2.954 4.024 632.647 632.647 0 0 0-3.565 4.834A189.185 189.185 0 0 0 133 68.682a100.585 100.585 0 0 0-2.997 4.638c-.262.028-.795-.162-1.597-.57a30.822 30.822 0 0 1-2.691-1.574 68.728 68.728 0 0 1-2.996-2.057 36.304 36.304 0 0 1-2.515-1.968c.992-1.516 2.26-3.325 3.805-5.425 1.547-2.1 3.333-4.41 5.36-6.934a409.887 409.887 0 0 1 6.649-8.049 395.806 395.806 0 0 1 7.656-8.77 509.372 509.372 0 0 1 8.4-9.122 368.195 368.195 0 0 1 8.858-9.078 355.557 355.557 0 0 1 9.056-8.662c3.033-2.8 6.022-5.41 8.968-7.83.788 0 1.676.086 2.669.261.991.176 1.91.395 2.755.657.846.262 1.539.54 2.079.832.539.291.78.54.721.743a411.7 411.7 0 0 0-3.477 12.381 231.414 231.414 0 0 0-3.084 13.167 185.077 185.077 0 0 0-2.21 13.234c-.569 4.39-.853 8.582-.853 12.577 0 1.371.051 2.771.154 4.2.101 1.43.189 2.807.261 4.134.074 1.327.103 2.566.088 3.718-.014 1.152-.146 2.151-.393 2.997-.248.846-.65 1.487-1.203 1.925-.555.437-1.313.612-2.275.525-1.955-.205-3.596-.584-4.922-1.138zm-6.365-23.273c.146-.612.372-1.582.678-2.909a775.41 775.41 0 0 1 1.05-4.485c.394-1.662.816-3.412 1.268-5.25.452-1.836.89-3.557 1.313-5.162.422-1.603.816-3.01 1.181-4.22.364-1.21.678-2.02.941-2.429-.671.525-1.495 1.284-2.472 2.275-.978.992-2.049 2.121-3.216 3.39a1176.185 1176.185 0 0 0-7.743 8.51 311.525 311.525 0 0 1-4.024 4.374 126.287 126.287 0 0 1-3.85 3.937z"/></g><g><path fill="#f0f" d="M197.766 59.977c-.059.087.562.065 1.86-.066 1.297-.13 3.025-.35 5.184-.656a876.004 876.004 0 0 0 16.1-2.45c2.973-.48 5.897-.976 8.77-1.487 2.872-.51 5.475-.999 7.81-1.466a6.586 6.586 0 0 1 1.967-.13c.613.058 1.16.233 1.641.524.481.292.86.708 1.138 1.247.276.54.415 1.217.415 2.034 0 .584-.11.992-.328 1.224-.219.235-.634.438-1.247.614a200.208 200.208 0 0 0-7.284 2.252c-2.523.832-5.075 1.663-7.656 2.494a1540.94 1540.94 0 0 1-7.743 2.471 192.853 192.853 0 0 1-7.48 2.21 102.366 102.366 0 0 1-6.89 1.64c-2.189.438-4.187.7-5.994.788-.147 0-.307-.022-.482-.066-.175-.043-.459-.167-.852-.37a20.283 20.283 0 0 1-1.575-.943 107.39 107.39 0 0 1-2.669-1.793 219.274 219.274 0 0 1-4.134-2.93c-1.634-1.182-3.616-2.619-5.949-4.31.35-1.69.933-3.71 1.75-6.06a136.21 136.21 0 0 1 2.91-7.567 322.006 322.006 0 0 1 3.651-8.422 526.278 526.278 0 0 1 3.982-8.639c1.34-2.844 2.638-5.579 3.893-8.204a665.842 665.842 0 0 0 3.368-7.152 239.812 239.812 0 0 0 2.45-5.446c.641-1.488 1.021-2.523 1.137-3.107.292-1.603.817-2.726 1.575-3.368a3.857 3.857 0 0 1 2.625-.94c.992.014 2.041.291 3.15.831 1.108.54 2.173 1.18 3.193 1.925a25.998 25.998 0 0 1 2.757 2.296c.815.788 1.43 1.444 1.837 1.968-.204 1.897-.627 3.975-1.269 6.235a83.14 83.14 0 0 1-2.362 7.043 146.836 146.836 0 0 1-3.106 7.46 208.951 208.951 0 0 1-3.543 7.502 248.893 248.893 0 0 1-3.698 7.152 339.3 339.3 0 0 1-3.543 6.431 392.92 392.92 0 0 1-3.084 5.36c-.933 1.59-1.692 2.88-2.275 3.871z"/></g><g><path fill="#f0f" d="M259.142 4.899a24.06 24.06 0 0 0 2.734 1.706c.977.525 1.953 1.036 2.931 1.531a95.73 95.73 0 0 1 2.778 1.466c.875.482 1.648.984 2.32 1.509.174.176.05.948-.373 2.318-.423 1.372-1.043 3.151-1.86 5.338a280.135 280.135 0 0 1-2.952 7.525 950.623 950.623 0 0 1-3.653 8.836 667.263 667.263 0 0 1-3.959 9.252 876.873 876.873 0 0 1-7.306 16.296 280.056 280.056 0 0 1-2.515 5.338 12.43 12.43 0 0 1-1.269 2.056 12.16 12.16 0 0 1-1.772 1.903 9.953 9.953 0 0 1-2.143 1.422 5.464 5.464 0 0 1-2.429.568c-1.37 0-2.289-.277-2.756-.831-.465-.553-.7-1.384-.7-2.494 0-.932.161-2.274.482-4.024.321-1.75.758-3.769 1.312-6.059.555-2.29 1.218-4.791 1.99-7.503a322.159 322.159 0 0 1 2.516-8.378 455.2 455.2 0 0 1 2.844-8.727 237.766 237.766 0 0 1 3.04-8.509 249.42 249.42 0 0 1 3.062-7.699c1.006-2.406 1.976-4.528 2.91-6.365.933-1.837 1.808-3.326 2.624-4.462.817-1.138 1.532-1.809 2.144-2.013z"/></g><g><path fill="#f0f" d="M336.311 4.156a149.476 149.476 0 0 0-4.047 7.306 265.585 265.585 0 0 0-4.308 8.66 374.174 374.174 0 0 0-4.375 9.538 365.747 365.747 0 0 0-4.222 9.93 372.262 372.262 0 0 0-3.85 9.822 215.534 215.534 0 0 0-3.237 9.209 149.272 149.272 0 0 0-2.406 8.115c-.657 2.493-1.102 4.674-1.334 6.54-.06.32-.212.656-.46 1.006a3.973 3.973 0 0 1-1.006.963 6.162 6.162 0 0 1-1.443.722 5.338 5.338 0 0 1-1.773.284c-.759 0-1.567-.175-2.428-.525-.86-.35-1.714-.992-2.559-1.925-.846-1.458-1.692-3.426-2.537-5.906a130.966 130.966 0 0 1-2.472-8.18 278.4 278.4 0 0 1-2.34-9.34c-.759-3.252-1.48-6.388-2.166-9.406a359.561 359.561 0 0 0-1.99-8.334c-.642-2.538-1.225-4.593-1.75-6.168a187.51 187.51 0 0 1-1.487 4.549 496.324 496.324 0 0 1-2.079 5.994 808.298 808.298 0 0 1-2.47 6.89c-.876 2.406-1.759 4.827-2.648 7.262-.89 2.435-1.765 4.806-2.625 7.109-.86 2.304-1.67 4.44-2.427 6.408a531.676 531.676 0 0 1-2.035 5.206 151.34 151.34 0 0 1-1.422 3.478c-1.02-.262-1.924-.648-2.712-1.16a19.456 19.456 0 0 1-2.275-1.727 46.332 46.332 0 0 1-2.143-2.012 25.296 25.296 0 0 0-2.276-2.012 243.688 243.688 0 0 1 5.075-15.137 337.141 337.141 0 0 1 6.081-15.224 405.962 405.962 0 0 1 6.76-14.961 542.22 542.22 0 0 1 7.064-14.306c.584-.933 1.24-1.4 1.968-1.4.701 0 1.342.438 1.925 1.312a73.319 73.319 0 0 1 5.25 9.997 109.196 109.196 0 0 1 3.915 10.565 140.602 140.602 0 0 1 2.932 10.87 348.73 348.73 0 0 1 2.297 10.916 133.016 133.016 0 0 1 3.215-8.684c1.21-2.96 2.494-5.92 3.85-8.881a186.242 186.242 0 0 1 4.265-8.705 277.713 277.713 0 0 1 4.462-8.203c.788-1.4 1.684-2.8 2.69-4.2a22.851 22.851 0 0 1 3.413-3.784 17.152 17.152 0 0 1 4.244-2.756c1.56-.714 3.288-1.071 5.183-1.071.116 0 .307.065.57.196.262.132.524.285.787.46.262.175.517.335.765.48.247.147.445.22.591.22z"/></g><g><path fill="#f0f" d="M348.91 37.71a730.935 730.935 0 0 0 8.837-2.778c2.858-.918 5.68-1.743 8.465-2.472a91.574 91.574 0 0 1 8.29-1.771 51.166 51.166 0 0 1 8.356-.678c1.166 0 2.078.13 2.735.393.656.262 1.012.773 1.07 1.532.06.612.117 1.312.176 2.099l.175 2.406c.058.817.109 1.619.153 2.407.044.787.08 1.502.109 2.143-.816.116-1.56.212-2.23.284-.672.074-1.401.168-2.188.285.408.612.743 1.145 1.006 1.596.263.453.474.875.635 1.269.159.393.268.78.328 1.159.058.38.087.803.087 1.27 0 1.428-.503 2.902-1.51 4.418-1.006 1.516-2.361 3.026-4.067 4.527-1.707 1.503-3.675 2.982-5.906 4.44a88.81 88.81 0 0 1-7.022 4.135 106.008 106.008 0 0 1-7.46 3.587 104.822 104.822 0 0 1-7.174 2.822c-2.26.787-4.324 1.406-6.19 1.859-1.866.452-3.368.678-4.505.678-.963 0-1.984-.285-3.063-.853-1.08-.57-2.18-1.297-3.302-2.188a34.762 34.762 0 0 1-3.326-3.018 92.444 92.444 0 0 1-5.708-6.431l-1.925-2.384c-.758-.904-1.298-1.968-1.62-3.194-.32-1.225-.48-2.58-.48-4.068 0-1.983.19-4.25.568-6.803a50.38 50.38 0 0 1 1.75-7.611 40.42 40.42 0 0 1 2.954-7.087c1.18-2.202 2.573-3.96 4.177-5.272 1.69-1.371 3.71-2.778 6.059-4.222a93.092 93.092 0 0 1 7.656-4.2 111.956 111.956 0 0 1 8.66-3.805 105.392 105.392 0 0 1 9.145-3.107 83.156 83.156 0 0 1 9.099-2.1c2.99-.51 5.81-.765 8.465-.765.7 0 1.385.13 2.057.394.67.262 1.326.7 1.968 1.312.64.612 1.283 1.43 1.925 2.45.64 1.02 1.297 2.29 1.968 3.806a111.883 111.883 0 0 1-7.764 2.734 301.29 301.29 0 0 1-7.744 2.297 716.7 716.7 0 0 0-7.656 2.209 101.767 101.767 0 0 0-7.46 2.516 75.726 75.726 0 0 0-7.217 3.193 51.092 51.092 0 0 0-6.868 4.199c-.525.38-1.087.963-1.684 1.75a22.382 22.382 0 0 0-1.772 2.779 43.409 43.409 0 0 0-1.706 3.5 39.994 39.994 0 0 0-1.466 3.893 33.937 33.937 0 0 0-1.006 3.938c-.248 1.298-.372 2.514-.372 3.652 0 .904.24 1.853.722 2.844a19.309 19.309 0 0 0 1.794 2.953c.714.976 1.509 1.91 2.384 2.8a33.855 33.855 0 0 0 2.559 2.362c.83.686 1.589 1.232 2.275 1.64.685.409 1.203.613 1.554.613.669-.06 1.618-.284 2.842-.68a74.24 74.24 0 0 0 4.2-1.508 119.287 119.287 0 0 0 5.032-2.1c1.778-.787 3.55-1.625 5.314-2.515a115.838 115.838 0 0 0 5.075-2.713c1.619-.918 3.04-1.822 4.266-2.712 1.225-.89 2.209-1.72 2.952-2.494.744-.771 1.116-1.465 1.116-2.077 0-.35-.044-.78-.131-1.291a8.546 8.546 0 0 0-.394-1.487 4.798 4.798 0 0 0-.656-1.247c-.263-.35-.554-.525-.875-.525-1.81 0-3.406.124-4.79.37a40.754 40.754 0 0 0-4.178.986c-1.4.409-2.932.875-4.594 1.4-1.662.526-3.675 1.079-6.037 1.662a5.416 5.416 0 0 1-1.138.132c-.758 0-1.451-.277-2.077-.831-.628-.555-1.181-1.283-1.663-2.187a17.442 17.442 0 0 1-1.246-3.063 23.557 23.557 0 0 1-.788-3.456z"/></g><g><path fill="#f0f" d="M458.604 73.494c-1.327-.554-2.414-1.254-3.26-2.099a8.705 8.705 0 0 1-1.924-2.866 15.838 15.838 0 0 1-.962-3.39 27.765 27.765 0 0 1-.372-3.719 329.624 329.624 0 0 1-.11-3.849 63.955 63.955 0 0 0-4.724-1.007 138.177 138.177 0 0 0-5.053-.787 162.117 162.117 0 0 0-5.053-.613 103.682 103.682 0 0 0-4.724-.393 303.35 303.35 0 0 1-2.954 4.024 632.647 632.647 0 0 0-3.565 4.834 189.185 189.185 0 0 0-3.565 5.053 100.585 100.585 0 0 0-2.997 4.638c-.262.028-.795-.162-1.597-.57a30.822 30.822 0 0 1-2.691-1.574 68.728 68.728 0 0 1-2.996-2.057 36.304 36.304 0 0 1-2.515-1.968c.992-1.516 2.26-3.325 3.805-5.425 1.547-2.1 3.333-4.41 5.36-6.934a409.887 409.887 0 0 1 6.649-8.049 395.806 395.806 0 0 1 7.656-8.77 509.372 509.372 0 0 1 8.4-9.122 368.195 368.195 0 0 1 8.858-9.078 355.557 355.557 0 0 1 9.056-8.662c3.033-2.8 6.022-5.41 8.968-7.83.788 0 1.676.086 2.669.261.99.176 1.91.395 2.755.657.846.262 1.539.54 2.079.832.539.291.78.54.72.743a411.7 411.7 0 0 0-3.476 12.381 231.414 231.414 0 0 0-3.084 13.167 185.077 185.077 0 0 0-2.21 13.234c-.57 4.39-.853 8.582-.853 12.577 0 1.371.05 2.771.154 4.2.1 1.43.189 2.807.26 4.134.075 1.327.104 2.566.089 3.718-.014 1.152-.146 2.151-.393 2.997-.248.846-.65 1.487-1.203 1.925-.555.437-1.313.612-2.275.525-1.955-.205-3.596-.584-4.922-1.138zm-6.365-23.273c.146-.612.372-1.582.678-2.909a775.41 775.41 0 0 1 1.05-4.485c.394-1.662.816-3.412 1.268-5.25.452-1.836.89-3.557 1.313-5.162.422-1.603.816-3.01 1.18-4.22.365-1.21.679-2.02.942-2.429-.671.525-1.495 1.284-2.472 2.275-.978.992-2.05 2.121-3.216 3.39a1176.185 1176.185 0 0 0-7.743 8.51 311.525 311.525 0 0 1-4.024 4.374 126.287 126.287 0 0 1-3.85 3.937z"/></g><g><path fill="#f0f" d="M525.732 24.148a330.673 330.673 0 0 1-2.078 6.736 1285.65 1285.65 0 0 1-2.405 7.459c-.832 2.553-1.663 5.126-2.495 7.722-.83 2.597-1.64 5.104-2.427 7.524a813.611 813.611 0 0 0-2.188 6.826 218.883 218.883 0 0 0-1.706 5.642c-.233.847-.437 1.482-.612 1.904-.175.422-.526.634-1.05.634-.934 0-1.925-.256-2.976-.765a13.65 13.65 0 0 1-2.886-1.882c-.875-.743-1.597-1.516-2.166-2.319-.569-.801-.853-1.508-.853-2.122 0-2.449.248-5.023.743-7.72a89.188 89.188 0 0 1 1.948-8.269c.801-2.813 1.713-5.68 2.734-8.597a700.25 700.25 0 0 1 3.128-8.749 538.94 538.94 0 0 0 3.084-8.683 142.1 142.1 0 0 0 2.625-8.421l.547-1.969c.16-.584.364-1.072.612-1.466a2.52 2.52 0 0 1 1.028-.919c.438-.218 1.035-.356 1.793-.415 1.021.7 2.21 1.779 3.566 3.238a105.706 105.706 0 0 1 4.243 4.877 262.655 262.655 0 0 1 4.42 5.534 302.216 302.216 0 0 0 4.111 5.184c1.27 1.561 2.391 2.844 3.368 3.85.978 1.006 1.7 1.509 2.166 1.509.321-.175.925-.641 1.816-1.4.89-.757 1.975-1.706 3.26-2.843a669.584 669.584 0 0 1 4.33-3.806 370.81 370.81 0 0 1 5.031-4.31 201.644 201.644 0 0 1 5.358-4.352 116.56 116.56 0 0 1 5.316-3.938 56.685 56.685 0 0 1 4.878-3.062c1.531-.845 2.894-1.429 4.091-1.749a203.63 203.63 0 0 1 2.21 1.683 25.7 25.7 0 0 1 2.207 1.925c.701.686 1.313 1.43 1.838 2.232a8.542 8.542 0 0 1 1.137 2.558 213.571 213.571 0 0 0-2.975 6.475 339.782 339.782 0 0 0-3.477 8.182 1397.325 1397.325 0 0 0-3.763 9.251 989.145 989.145 0 0 0-3.827 9.647l-3.653 9.34a3112.4 3112.4 0 0 0-3.259 8.355c-.992 2.553-1.867 4.791-2.625 6.716-.759 1.925-1.356 3.383-1.794 4.374-1.02 0-2.122-.124-3.303-.371a14.885 14.885 0 0 1-3.302-1.094c-1.022-.481-1.868-1.093-2.539-1.838-.67-.743-1.005-1.625-1.005-2.646 0-1.05.218-2.472.656-4.266a97.798 97.798 0 0 1 1.706-6.037c.7-2.23 1.502-4.594 2.406-7.087a483.962 483.962 0 0 1 2.756-7.415 634.942 634.942 0 0 1 7.524-18.549l-19.554 14.35c-.584 0-1.334-.314-2.253-.941s-1.933-1.436-3.04-2.428a64.375 64.375 0 0 1-3.456-3.347 156.026 156.026 0 0 1-3.479-3.719 323.866 323.866 0 0 1-3.128-3.499 160.085 160.085 0 0 1-2.362-2.734z"/></g><g><path fill="#f0f" d="M571.403 65.533c.524-2.013 1.108-4.222 1.75-6.628a672.321 672.321 0 0 1 4.353-15.552 677.677 677.677 0 0 1 2.427-8.115 760.955 760.955 0 0 1 2.428-7.787 290.005 290.005 0 0 1 2.341-7.065c.758-2.188 1.48-4.178 2.166-5.972.684-1.793 1.318-3.287 1.902-4.484.263-.525.963-1.035 2.101-1.531 1.136-.496 2.581-.97 4.33-1.422a82.01 82.01 0 0 1 5.885-1.268c2.171-.394 4.418-.751 6.736-1.072a286.83 286.83 0 0 1 13.365-1.532c1.983-.175 3.733-.312 5.25-.415 1.516-.102 2.639-.153 3.368-.153 1.662 0 2.997.343 4.003 1.028 1.006.686 1.509 1.845 1.509 3.478v.393a1602.707 1602.707 0 0 1-15.289 4.069 166.065 166.065 0 0 1-15.377 3.237c-.643.088-1.145.227-1.51.416a2.54 2.54 0 0 0-.875.722 3.514 3.514 0 0 0-.524 1.072c-.132.423-.271.94-.416 1.553a31.904 31.904 0 0 1-.831 2.997c-.292.86-.576 1.683-.854 2.47-.277.789-.561 1.605-.852 2.45a38.524 38.524 0 0 0-.875 2.975c.816-.057 1.873-.188 3.172-.393l4.046-.634c1.4-.22 2.763-.416 4.09-.591s2.443-.263 3.347-.263c1.225 0 2.231.162 3.019.482.787.32 1.414.759 1.88 1.312a4.62 4.62 0 0 1 .963 1.969c.175.759.262 1.56.262 2.406v.569a74.86 74.86 0 0 1-5.118 1.422 81.812 81.812 0 0 1-4.55.94 144.05 144.05 0 0 1-4.506.722c-1.516.218-3.179.503-4.987.853a94.842 94.842 0 0 1-2.733.503c-.628.103-1.11.256-1.445.459-.335.204-.605.519-.809.94-.205.424-.481 1.087-.831 1.992a178.717 178.717 0 0 0-1.991 5.074c-.656 1.75-1.29 3.47-1.903 5.162a166.34 166.34 0 0 0-1.684 4.878c-.51 1.56-.956 2.968-1.335 4.222a55.741 55.741 0 0 0 6.366-1.03c2.202-.48 4.455-1.02 6.759-1.617a497.103 497.103 0 0 0 6.956-1.86 159.392 159.392 0 0 1 6.956-1.75 93.136 93.136 0 0 1 6.781-1.29 42.753 42.753 0 0 1 6.387-.503c1.02 0 1.734.234 2.143.7.408.467.612 1.035.612 1.706 0 .496-.058.978-.174 1.443-.118.467-.248.949-.394 1.445-2.392.787-4.834 1.67-7.328 2.646-2.493.978-5.03 1.984-7.611 3.019a374.135 374.135 0 0 1-7.897 3.062 172.845 172.845 0 0 1-8.138 2.822c-.787.262-2.019.569-3.696.919-1.678.349-3.544.7-5.599 1.049-2.056.35-4.186.678-6.387.985a142.47 142.47 0 0 1-6.06.72z"/></g><g><path fill="#f0f" d="M643.978 69.69c-.496 1.661-1.203 2.864-2.122 3.607-.919.745-1.889 1.117-2.909 1.117-.759 0-1.517-.183-2.275-.547a6.52 6.52 0 0 1-2.012-1.51 7.702 7.702 0 0 1-1.422-2.297c-.365-.889-.547-1.859-.547-2.909v-.306c.088-2.39.43-5.03 1.028-7.918a119.77 119.77 0 0 1 2.253-9.012 268.138 268.138 0 0 1 2.975-9.58c1.08-3.267 2.143-6.482 3.193-9.647a430.435 430.435 0 0 0 2.932-9.165c.903-2.945 1.633-5.672 2.187-8.18-1.75.233-3.5.451-5.25.656-1.487.174-3.077.342-4.768.502-1.692.161-3.223.27-4.594.33-1.604 0-2.959-.118-4.068-.35-1.108-.234-1.997-.555-2.668-.964-.67-.408-1.16-.875-1.466-1.399a3.323 3.323 0 0 1-.459-1.706c0-.526.22-.97.656-1.335.437-.365 1.137-.59 2.1-.678 4.811-.466 9.61-.947 14.392-1.444 4.783-.495 9.566-.954 14.35-1.378 4.782-.422 9.572-.773 14.37-1.05a319.51 319.51 0 0 1 14.46-.503l1.136 5.687-22.66 2.582a390.734 390.734 0 0 1-4.529 14.261 1910.844 1910.844 0 0 1-5.009 14.612 1736.737 1736.737 0 0 0-4.965 14.502 259.507 259.507 0 0 0-4.309 14.021z"/></g><g><path fill="#f0f" d="M703.32 73.494c-1.326-.554-2.413-1.254-3.26-2.099a8.705 8.705 0 0 1-1.923-2.866 15.838 15.838 0 0 1-.962-3.39 27.765 27.765 0 0 1-.372-3.719 329.624 329.624 0 0 1-.11-3.849 63.955 63.955 0 0 0-4.724-1.007 138.177 138.177 0 0 0-5.053-.787 162.117 162.117 0 0 0-5.053-.613 103.682 103.682 0 0 0-4.724-.393 303.35 303.35 0 0 1-2.954 4.024 632.647 632.647 0 0 0-3.565 4.834 189.185 189.185 0 0 0-3.565 5.053 100.585 100.585 0 0 0-2.997 4.638c-.262.028-.795-.162-1.597-.57a30.822 30.822 0 0 1-2.691-1.574 68.728 68.728 0 0 1-2.996-2.057 36.304 36.304 0 0 1-2.515-1.968c.992-1.516 2.26-3.325 3.805-5.425 1.547-2.1 3.333-4.41 5.36-6.934a409.887 409.887 0 0 1 6.649-8.049 395.806 395.806 0 0 1 7.656-8.77 509.372 509.372 0 0 1 8.4-9.122 368.195 368.195 0 0 1 8.858-9.078 355.557 355.557 0 0 1 9.056-8.662c3.033-2.8 6.022-5.41 8.968-7.83.788 0 1.676.086 2.669.261.99.176 1.91.395 2.755.657.846.262 1.539.54 2.079.832.539.291.78.54.72.743a411.7 411.7 0 0 0-3.476 12.381 231.414 231.414 0 0 0-3.084 13.167 185.077 185.077 0 0 0-2.21 13.234c-.57 4.39-.853 8.582-.853 12.577 0 1.371.05 2.771.154 4.2.1 1.43.189 2.807.26 4.134.075 1.327.104 2.566.089 3.718-.014 1.152-.146 2.151-.393 2.997-.248.846-.65 1.487-1.203 1.925-.555.437-1.313.612-2.275.525-1.955-.205-3.596-.584-4.922-1.138zm-6.364-23.273c.146-.612.372-1.582.678-2.909a775.41 775.41 0 0 1 1.05-4.485c.394-1.662.816-3.412 1.268-5.25.452-1.836.89-3.557 1.313-5.162.422-1.603.816-3.01 1.18-4.22.365-1.21.679-2.02.942-2.429-.671.525-1.495 1.284-2.472 2.275-.978.992-2.05 2.121-3.216 3.39a1176.185 1176.185 0 0 0-7.743 8.51 311.525 311.525 0 0 1-4.024 4.374 126.287 126.287 0 0 1-3.85 3.937z"/></g><g><path fill="#f0f" d="M783.443 8.967a170.37 170.37 0 0 0-6.737 6.146c-2.421 2.32-5.068 4.981-7.941 7.985a377.886 377.886 0 0 0-9.34 10.171 596.443 596.443 0 0 0-10.936 12.71c-.671.815-1.539 1.93-2.603 3.344a170.13 170.13 0 0 0-3.39 4.682 207.202 207.202 0 0 0-3.631 5.36 110.988 110.988 0 0 0-3.304 5.336c-.977 1.692-1.779 3.215-2.405 4.572-.628 1.356-.942 2.398-.942 3.128 0 .583-.094 1.035-.284 1.356-.189.32-.415.568-.677.743a2.067 2.067 0 0 1-.875.328 6.794 6.794 0 0 1-.919.066c-.642 0-1.371-.175-2.188-.525a22.557 22.557 0 0 1-2.493-1.268 30.827 30.827 0 0 1-2.45-1.597 289.312 289.312 0 0 1-2.012-1.466c-.029-.99-.044-1.975-.044-2.953v-2.953c0-4.345.036-8.602.109-12.773l.219-12.469.219-12.445c.072-4.157.109-8.407.109-12.753 0-1.34.241-2.42.722-3.238.481-.816 1.174-1.224 2.078-1.224.729 0 1.516.357 2.362 1.072.846.715 1.707 1.582 2.582 2.603a51.443 51.443 0 0 1 2.537 3.215 61.467 61.467 0 0 0 2.231 2.91c.175.233.291.51.35.831.058.321.088.612.088.875a147.508 147.508 0 0 0-.875 6.627c-.235 2.143-.41 4.287-.526 6.431a136.743 136.743 0 0 0-.196 6.518 219.04 219.04 0 0 0 .065 6.89 76.798 76.798 0 0 1 4.025-5.206 135.067 135.067 0 0 1 4.724-5.337 145.365 145.365 0 0 1 4.901-5.009c1.633-1.589 3.177-2.982 4.636-4.178a922.29 922.29 0 0 1 5.207-4.309 205.28 205.28 0 0 1 4.375-3.5c1.37-1.064 2.704-2.07 4.002-3.018 1.297-.948 2.668-1.91 4.112-2.888a150.798 150.798 0 0 1 4.725-3.06 398.701 398.701 0 0 1 5.84-3.567c.058.06.314.175.766.35s.955.365 1.509.568c.553.205 1.057.395 1.509.57.453.174.707.291.766.35z"/></g><g><path fill="#f0f" d="M752.337 65.533c.525-2.013 1.11-4.222 1.75-6.628a685.651 685.651 0 0 1 6.781-23.667 714.162 714.162 0 0 1 2.428-7.787 285.741 285.741 0 0 1 2.341-7.065 201.554 201.554 0 0 1 2.166-5.972c.684-1.793 1.319-3.287 1.903-4.484.263-.525.962-1.035 2.1-1.531 1.137-.496 2.58-.97 4.33-1.422a82.094 82.094 0 0 1 5.885-1.268c2.172-.394 4.419-.751 6.737-1.072a286.75 286.75 0 0 1 13.363-1.532 263.73 263.73 0 0 1 5.25-.415c1.517-.102 2.64-.153 3.368-.153 1.663 0 2.997.343 4.003 1.028 1.008.686 1.51 1.845 1.51 3.478v.393a1594.95 1594.95 0 0 1-15.29 4.069 165.928 165.928 0 0 1-15.376 3.237c-.642.088-1.144.227-1.51.416a2.54 2.54 0 0 0-.874.722 3.515 3.515 0 0 0-.525 1.072c-.131.423-.27.94-.415 1.553a31.582 31.582 0 0 1-.832 2.997c-.292.86-.576 1.683-.853 2.47a383.43 383.43 0 0 0-.853 2.45 38.974 38.974 0 0 0-.875 2.975c.816-.057 1.874-.188 3.172-.393l4.046-.634c1.4-.22 2.763-.416 4.09-.591s2.443-.263 3.347-.263c1.226 0 2.23.162 3.019.482.788.32 1.415.759 1.88 1.312.467.555.789 1.21.963 1.969.175.759.263 1.56.263 2.406v.569a75.178 75.178 0 0 1-5.118 1.422 82 82 0 0 1-4.55.94c-1.487.263-2.99.503-4.506.722-1.517.218-3.18.503-4.987.853a94.14 94.14 0 0 1-2.734.503c-.628.103-1.11.256-1.444.459-.336.204-.605.519-.81.94-.204.424-.481 1.087-.83 1.992a175.764 175.764 0 0 0-1.991 5.074 483.254 483.254 0 0 0-1.903 5.162 166.45 166.45 0 0 0-1.685 4.878c-.51 1.56-.955 2.968-1.334 4.222a55.777 55.777 0 0 0 6.366-1.03c2.2-.48 4.454-1.02 6.758-1.617a493.439 493.439 0 0 0 6.956-1.86 160.118 160.118 0 0 1 6.956-1.75 93.136 93.136 0 0 1 6.78-1.29 42.763 42.763 0 0 1 6.388-.503c1.02 0 1.735.234 2.143.7.408.467.613 1.035.613 1.706 0 .496-.06.978-.175 1.443-.117.467-.248.949-.394 1.445-2.392.787-4.834 1.67-7.327 2.646-2.494.978-5.031 1.984-7.612 3.019a374.135 374.135 0 0 1-7.897 3.062 172.806 172.806 0 0 1-8.137 2.822c-.787.262-2.02.569-3.696.919-1.678.349-3.544.7-5.6 1.049-2.056.35-4.185.678-6.387.985-2.202.305-4.222.547-6.06.72z"/></g><g><path fill="#f0f" d="M854.093 80.647c-2.305-.83-4.288-1.954-5.95-3.368a20.138 20.138 0 0 1-4.2-4.944 40.238 40.238 0 0 1-2.953-5.95 63.637 63.637 0 0 1-2.165-6.408 210.55 210.55 0 0 0-1.881-6.344 58.433 58.433 0 0 0-2.1-5.687c-.76-1.75-1.677-3.238-2.756-4.462-.934 0-1.75.015-2.45.044-.7.03-1.517.073-2.45.13a177.759 177.759 0 0 0-1.728 6.891 627.482 627.482 0 0 1-1.684 7.131 210.186 210.186 0 0 1-1.903 7.262 88.248 88.248 0 0 1-2.384 7.24c-1.196 0-2.406-.095-3.632-.284-1.224-.19-2.34-.539-3.346-1.05a6.962 6.962 0 0 1-2.472-2.057c-.641-.859-.962-1.946-.962-3.259 0-.757.109-1.786.328-3.084.219-1.297.51-2.778.875-4.44a131.2 131.2 0 0 1 1.334-5.469c.525-1.983 1.087-4.06 1.685-6.233a332.88 332.88 0 0 1 1.902-6.65c.67-2.26 1.342-4.513 2.013-6.759a1270.86 1270.86 0 0 1 8.136-25.724 141.968 141.968 0 0 1 8.532-2.58c1.195-.32 2.449-.642 3.76-.963a79.736 79.736 0 0 1 3.917-.853 53.715 53.715 0 0 1 3.806-.59 29.814 29.814 0 0 1 3.478-.219c3.12 0 5.898.328 8.334.984 2.434.657 4.484 1.656 6.146 2.996 1.662 1.342 2.924 3.027 3.784 5.053.86 2.028 1.29 4.412 1.29 7.153 0 2.8-.466 5.293-1.4 7.481-.933 2.187-2.143 4.127-3.63 5.818a24.202 24.202 0 0 1-5.031 4.353 41.444 41.444 0 0 1-5.577 3.062c-1.853.831-3.618 1.495-5.294 1.991-1.677.496-3.07.846-4.178 1.05 1.254 2.16 2.508 4.608 3.763 7.35a302.46 302.46 0 0 0 3.98 8.355c1.4 2.83 2.895 5.578 4.484 8.247 1.589 2.668 3.332 5.008 5.228 7.021.35.35.91.802 1.685 1.356.772.553 1.567 1.137 2.383 1.75a23.798 23.798 0 0 1 2.144 1.793c.612.583.919 1.08.919 1.488 0 .437-.22.824-.656 1.16a5.753 5.753 0 0 1-1.576.83c-.612.22-1.232.38-1.858.481-.628.103-1.131.154-1.51.154-3.15 0-5.877-.416-8.18-1.247zM833.882 21.72c-.584 1.822-1.16 3.616-1.73 5.381a124.28 124.28 0 0 0-1.464 4.855c-.41 1.473-.613 2.574-.613 3.303 2.013.175 4.135.096 6.365-.24a40.557 40.557 0 0 0 6.563-1.553 41.67 41.67 0 0 0 6.146-2.56c1.953-1.005 3.675-2.078 5.162-3.215 1.488-1.137 2.669-2.303 3.544-3.499.874-1.197 1.312-2.348 1.312-3.456 0-1.08-.364-1.984-1.093-2.713-.73-.729-1.685-1.32-2.866-1.772-1.181-.452-2.53-.78-4.046-.984a34.775 34.775 0 0 0-4.638-.307c-1.137 0-2.261.044-3.368.132a31.91 31.91 0 0 0-3.128.394c-.977.174-1.875.378-2.69.612-.818.233-1.488.481-2.013.744-.38 1.43-.86 3.056-1.443 4.878z"/></g><g><path fill="#f0f" d="M883.359 64.308c1.195 0 2.573-.16 4.134-.48a32.265 32.265 0 0 0 4.79-1.402 33.668 33.668 0 0 0 4.834-2.274 25.508 25.508 0 0 0 4.353-3.107 17.725 17.725 0 0 0 3.303-3.893 11.801 11.801 0 0 0 1.685-4.637v-.35c0-.845-.388-1.699-1.16-2.559-.773-.86-1.787-1.742-3.041-2.648a52.534 52.534 0 0 0-4.287-2.755 558.5 558.5 0 0 1-4.943-2.91 94.258 94.258 0 0 1-4.943-3.149 34.963 34.963 0 0 1-4.288-3.412c-1.254-1.182-2.268-2.413-3.041-3.697-.772-1.283-1.159-2.639-1.159-4.069 0-1.662.474-3.208 1.422-4.637.947-1.428 2.195-2.74 3.74-3.937 1.546-1.195 3.282-2.245 5.206-3.149a50.81 50.81 0 0 1 5.841-2.32c1.968-.64 3.85-1.122 5.643-1.443 1.794-.32 3.332-.482 4.615-.482 1.605 0 3.077.162 4.419.482 1.341.321 2.493.831 3.456 1.531a7.22 7.22 0 0 1 2.253 2.691c.539 1.093.81 2.413.81 3.96v.852c0 .277-.03.576-.088.897a82.051 82.051 0 0 1-6.956.416c-2.392.043-4.666.152-6.825.328-2.158.174-4.105.488-5.839.94-1.737.452-3.056 1.218-3.959 2.297a193.087 193.087 0 0 0 5.97 3.215 183.679 183.679 0 0 1 6.256 3.39 84.032 84.032 0 0 1 5.906 3.675c1.881 1.283 3.537 2.64 4.965 4.07 1.429 1.428 2.567 2.945 3.413 4.548a10.832 10.832 0 0 1 1.269 5.12v.852c0 .277-.029.562-.088.853-.379 2.974-1.138 5.695-2.274 8.16-1.138 2.464-2.553 4.673-4.245 6.627a28.971 28.971 0 0 1-5.751 5.095 37.156 37.156 0 0 1-6.76 3.61 37.51 37.51 0 0 1-7.283 2.143 40.01 40.01 0 0 1-7.373.701c-3.733 0-7.116-.387-10.149-1.16-3.033-.772-5.629-1.706-7.786-2.799-2.159-1.094-3.821-2.246-4.987-3.456s-1.75-2.253-1.75-3.128c0-.35.065-.737.196-1.16.132-.422.388-.816.766-1.18.379-.365.918-.67 1.619-.919.7-.248 1.603-.372 2.712-.372 1.049 0 2.07.262 3.062.787.991.525 2.07 1.101 3.237 1.728a29.066 29.066 0 0 0 3.938 1.728c1.458.525 3.179.788 5.162.788z"/></g><g><path fill="#f0f" d="M919.625 65.533c.524-2.013 1.108-4.222 1.75-6.628a672.321 672.321 0 0 1 4.353-15.552 677.677 677.677 0 0 1 2.427-8.115 760.955 760.955 0 0 1 2.428-7.787 290.005 290.005 0 0 1 2.34-7.065c.759-2.188 1.48-4.178 2.167-5.972.684-1.793 1.318-3.287 1.902-4.484.263-.525.963-1.035 2.1-1.531s2.582-.97 4.33-1.422a82.01 82.01 0 0 1 5.886-1.268c2.17-.394 4.418-.751 6.736-1.072a286.83 286.83 0 0 1 13.365-1.532c1.983-.175 3.733-.312 5.25-.415 1.516-.102 2.639-.153 3.368-.153 1.662 0 2.997.343 4.003 1.028 1.006.686 1.509 1.845 1.509 3.478v.393a1602.707 1602.707 0 0 1-15.29 4.069 166.065 166.065 0 0 1-15.376 3.237c-.643.088-1.145.227-1.51.416a2.54 2.54 0 0 0-.875.722 3.514 3.514 0 0 0-.524 1.072c-.132.423-.271.94-.416 1.553a31.904 31.904 0 0 1-.831 2.997c-.292.86-.576 1.683-.854 2.47-.277.789-.561 1.605-.852 2.45a38.524 38.524 0 0 0-.875 2.975c.816-.057 1.873-.188 3.172-.393l4.046-.634c1.4-.22 2.763-.416 4.09-.591s2.443-.263 3.347-.263c1.225 0 2.23.162 3.019.482.787.32 1.414.759 1.88 1.312a4.62 4.62 0 0 1 .963 1.969c.175.759.262 1.56.262 2.406v.569a74.86 74.86 0 0 1-5.118 1.422 81.812 81.812 0 0 1-4.55.94 144.05 144.05 0 0 1-4.506.722c-1.516.218-3.18.503-4.987.853a94.842 94.842 0 0 1-2.733.503c-.628.103-1.11.256-1.445.459-.335.204-.605.519-.81.94-.204.424-.48 1.087-.83 1.992a178.717 178.717 0 0 0-1.991 5.074c-.656 1.75-1.29 3.47-1.903 5.162a166.34 166.34 0 0 0-1.684 4.878c-.51 1.56-.956 2.968-1.335 4.222a55.741 55.741 0 0 0 6.366-1.03c2.202-.48 4.455-1.02 6.759-1.617a497.103 497.103 0 0 0 6.956-1.86 159.392 159.392 0 0 1 6.956-1.75 93.136 93.136 0 0 1 6.78-1.29 42.753 42.753 0 0 1 6.388-.503c1.02 0 1.734.234 2.143.7.408.467.612 1.035.612 1.706 0 .496-.058.978-.174 1.443-.118.467-.248.949-.394 1.445-2.392.787-4.834 1.67-7.328 2.646-2.493.978-5.03 1.984-7.611 3.019a374.135 374.135 0 0 1-7.897 3.062 172.845 172.845 0 0 1-8.138 2.822c-.787.262-2.02.569-3.696.919-1.678.349-3.544.7-5.6 1.049-2.055.35-4.185.678-6.386.985a142.47 142.47 0 0 1-6.06.72z"/></g><g><path fill="#f0f" d="M1021.444 18.307l-1.948-3.389c4.492-2.217 9.245-3.894 14.262-5.032a68.278 68.278 0 0 1 15.137-1.706c2.13 0 4.156.24 6.081.722 1.925.481 3.587 1.247 4.987 2.297s2.485 2.421 3.26 4.112c.771 1.691 1.1 3.762.983 6.212-.088 1.371-.474 2.705-1.159 4.003a17.099 17.099 0 0 1-2.559 3.61 23.728 23.728 0 0 1-3.369 3.018c-1.224.904-2.406 1.647-3.544 2.23 2.304.235 4.448.643 6.431 1.226 1.984.583 3.69 1.4 5.12 2.45 1.428 1.05 2.53 2.34 3.302 3.871.772 1.531 1.101 3.347.984 5.446-.146 2.48-.795 4.777-1.947 6.891-1.152 2.114-2.66 4.068-4.527 5.861-1.867 1.794-4.003 3.428-6.409 4.901a65.174 65.174 0 0 1-7.546 3.96 87.188 87.188 0 0 1-7.962 3.083c-2.684.89-5.236 1.64-7.656 2.253-2.42.612-4.63 1.1-6.628 1.466-1.998.364-3.624.604-4.878.721-1.78.175-3.543.343-5.293.503-1.75.16-3.39.255-4.922.284-1.53.03-2.902-.05-4.113-.24-1.209-.19-2.157-.547-2.842-1.072-.686-.525-1.058-1.254-1.116-2.188-.058-.933.292-2.129 1.05-3.587l.765-1.859 1.772-4.287a1726.617 1726.617 0 0 0 5.491-13.452c1.034-2.567 2.084-5.198 3.15-7.897 1.063-2.697 2.084-5.307 3.062-7.83.976-2.522 1.866-4.9 2.668-7.13a164.544 164.544 0 0 0 1.991-5.84 1121.32 1121.32 0 0 1-2.078-3.61zm-2.209 50.507a87.481 87.481 0 0 0 7.764-1.4 85.187 85.187 0 0 0 8.115-2.253 64.192 64.192 0 0 0 7.7-3.107c2.45-1.18 4.622-2.493 6.518-3.936 1.896-1.445 3.427-3.019 4.594-4.725 1.166-1.706 1.808-3.522 1.925-5.447.057-1.137-.103-2.1-.482-2.887a4.707 4.707 0 0 0-1.596-1.882c-.686-.466-1.488-.764-2.407-.896a9.345 9.345 0 0 0-2.909.065 72.93 72.93 0 0 0-4.79 1.116 129.73 129.73 0 0 0-5.73 1.663 352.843 352.843 0 0 0-6.08 1.968 451.99 451.99 0 0 0-5.842 1.991zm10.192-33.292a98.806 98.806 0 0 0 3.653-1.028 63.856 63.856 0 0 0 4.375-1.488 62.501 62.501 0 0 0 4.484-1.903 26.408 26.408 0 0 0 4.025-2.318c1.195-.846 2.18-1.764 2.952-2.756.773-.99 1.203-2.04 1.291-3.15.058-.788-.27-1.297-.984-1.53-.715-.234-1.655-.278-2.82-.133-1.168.147-2.466.41-3.895.788-1.43.38-2.808.788-4.135 1.225-1.327.438-2.53.847-3.608 1.225-1.08.38-1.838.628-2.275.744z"/></g><g><path fill="#f0f" d="M1098.285 60.895c2.333-.495 4.534-1.597 6.605-3.303 2.07-1.706 4.026-3.79 5.863-6.256 1.838-2.463 3.55-5.19 5.14-8.18a162.88 162.88 0 0 0 4.462-9.056 237.336 237.336 0 0 0 3.828-8.88 387.644 387.644 0 0 1 3.194-7.656c.963-2.232 1.845-4.03 2.646-5.403.802-1.37 1.51-2.07 2.122-2.1.32-.028.707.044 1.16.22.452.174.853.408 1.203.7a132.856 132.856 0 0 1-2.407 12.27 111.73 111.73 0 0 1-3.805 12.402 95.008 95.008 0 0 1-5.337 11.834 67.138 67.138 0 0 1-7 10.565 53.802 53.802 0 0 1-8.772 8.617 40.123 40.123 0 0 1-10.696 5.951c-3.733-1.75-6.971-3.654-9.712-5.709-2.741-2.056-5.023-4.222-6.846-6.496-1.823-2.276-3.18-4.645-4.07-7.11a21.935 21.935 0 0 1-1.333-7.503c0-2.333.248-4.687.744-7.064a51.447 51.447 0 0 1 2.034-7.11 72.997 72.997 0 0 1 2.975-7 122.631 122.631 0 0 1 3.544-6.736c1.239-2.187 2.5-4.302 3.783-6.344a590.912 590.912 0 0 1 3.675-5.774c1.05-1.662 2.02-2.888 2.909-3.675.89-.787 1.83-1.182 2.822-1.182.466 0 1.072.154 1.816.46a22.91 22.91 0 0 1 2.34 1.138c.816.452 1.604.955 2.363 1.51.758.554 1.385 1.078 1.88 1.574-.35 1.46-.962 3.157-1.837 5.097a191.025 191.025 0 0 1-2.996 6.3 1726.857 1726.857 0 0 0-3.522 7.13 106.845 106.845 0 0 0-3.37 7.59 63.818 63.818 0 0 0-2.514 7.678c-.657 2.552-.984 5.023-.984 7.415 0 1.196.182 2.472.546 3.827a18.495 18.495 0 0 0 1.598 3.982 17.67 17.67 0 0 0 2.558 3.587 13.598 13.598 0 0 0 3.39 2.69z"/></g><g><path fill="#f0f" d="M1146.974 64.308c1.196 0 2.574-.16 4.135-.48a32.3 32.3 0 0 0 4.79-1.402 33.719 33.719 0 0 0 4.834-2.274 25.54 25.54 0 0 0 4.352-3.107 17.725 17.725 0 0 0 3.303-3.893 11.786 11.786 0 0 0 1.685-4.637v-.35c0-.845-.387-1.699-1.16-2.559-.773-.86-1.787-1.742-3.04-2.648a52.708 52.708 0 0 0-4.287-2.755 558.385 558.385 0 0 1-4.944-2.91 94.258 94.258 0 0 1-4.943-3.149 35.116 35.116 0 0 1-4.288-3.412c-1.253-1.182-2.267-2.413-3.04-3.697-.773-1.283-1.159-2.639-1.159-4.069 0-1.662.474-3.208 1.422-4.637.947-1.428 2.194-2.74 3.74-3.937 1.545-1.195 3.282-2.245 5.206-3.149a50.796 50.796 0 0 1 5.84-2.32c1.97-.64 3.85-1.122 5.644-1.443 1.794-.32 3.331-.482 4.615-.482 1.604 0 3.076.162 4.418.482 1.342.321 2.494.831 3.456 1.531a7.223 7.223 0 0 1 2.254 2.691c.54 1.093.81 2.413.81 3.96v.852c0 .277-.03.576-.088.897a82.076 82.076 0 0 1-6.956.416c-2.392.043-4.667.152-6.825.328-2.159.174-4.105.488-5.84.94-1.736.452-3.056 1.218-3.959 2.297a193.178 193.178 0 0 0 5.971 3.215c2.115 1.094 4.2 2.224 6.256 3.39a84.24 84.24 0 0 1 5.905 3.675c1.882 1.283 3.537 2.64 4.966 4.07 1.43 1.428 2.567 2.945 3.412 4.548a10.82 10.82 0 0 1 1.27 5.12v.852c0 .277-.03.562-.088.853-.38 2.974-1.138 5.695-2.275 8.16-1.138 2.464-2.552 4.673-4.244 6.627a29.005 29.005 0 0 1-5.752 5.095 37.115 37.115 0 0 1-6.759 3.61 37.5 37.5 0 0 1-7.284 2.143 40 40 0 0 1-7.372.701c-3.733 0-7.116-.387-10.149-1.16-3.033-.772-5.629-1.706-7.787-2.799-2.158-1.094-3.82-2.246-4.987-3.456-1.166-1.21-1.75-2.253-1.75-3.128 0-.35.065-.737.197-1.16.131-.422.387-.816.766-1.18.378-.365.918-.67 1.618-.919.7-.248 1.603-.372 2.713-.372 1.05 0 2.07.262 3.062.787.99.525 2.07 1.101 3.237 1.728a29.106 29.106 0 0 0 3.937 1.728c1.458.525 3.18.788 5.162.788z"/></g><g><path fill="#f0f" d="M1208.307 4.899a24.06 24.06 0 0 0 2.734 1.706c.977.525 1.953 1.036 2.931 1.531a95.73 95.73 0 0 1 2.778 1.466c.875.482 1.648.984 2.32 1.509.174.176.05.948-.373 2.318-.423 1.372-1.043 3.151-1.86 5.338a280.135 280.135 0 0 1-2.952 7.525 950.623 950.623 0 0 1-3.653 8.836 667.263 667.263 0 0 1-3.959 9.252 876.873 876.873 0 0 1-7.306 16.296 280.056 280.056 0 0 1-2.515 5.338 12.43 12.43 0 0 1-1.269 2.056 12.16 12.16 0 0 1-1.772 1.903 9.953 9.953 0 0 1-2.143 1.422 5.464 5.464 0 0 1-2.429.568c-1.37 0-2.289-.277-2.756-.831-.465-.553-.7-1.384-.7-2.494 0-.932.161-2.274.482-4.024.321-1.75.758-3.769 1.312-6.059.555-2.29 1.218-4.791 1.99-7.503a322.159 322.159 0 0 1 2.516-8.378 455.2 455.2 0 0 1 2.844-8.727 237.766 237.766 0 0 1 3.04-8.509 249.42 249.42 0 0 1 3.062-7.699c1.006-2.406 1.976-4.528 2.91-6.365.933-1.837 1.808-3.326 2.624-4.462.817-1.138 1.532-1.809 2.144-2.013z"/></g><g><path fill="#f0f" d="M1285.476 4.156a150.361 150.361 0 0 0-4.046 7.306 265.54 265.54 0 0 0-4.309 8.66 374.174 374.174 0 0 0-4.375 9.538 375.773 375.773 0 0 0-8.072 19.752 216.924 216.924 0 0 0-3.237 9.209 149.272 149.272 0 0 0-2.406 8.115c-.656 2.493-1.1 4.674-1.334 6.54-.059.32-.212.656-.459 1.006a3.978 3.978 0 0 1-1.007.963 6.162 6.162 0 0 1-1.443.722 5.337 5.337 0 0 1-1.772.284c-.759 0-1.568-.175-2.428-.525-.86-.35-1.714-.992-2.559-1.925-.847-1.458-1.692-3.426-2.537-5.906a130.295 130.295 0 0 1-2.472-8.18 278.348 278.348 0 0 1-2.34-9.34c-.76-3.252-1.48-6.388-2.166-9.406a354.228 354.228 0 0 0-1.99-8.334c-.643-2.538-1.226-4.593-1.75-6.168a183.19 183.19 0 0 1-1.488 4.549 513.086 513.086 0 0 1-2.078 5.994 809.506 809.506 0 0 1-2.472 6.89 3903.84 3903.84 0 0 1-2.647 7.262 983.687 983.687 0 0 1-2.625 7.109c-.86 2.304-1.67 4.44-2.427 6.408a507.446 507.446 0 0 1-2.035 5.206 142.671 142.671 0 0 1-1.422 3.478c-1.02-.262-1.924-.648-2.71-1.16a19.466 19.466 0 0 1-2.277-1.727 46.332 46.332 0 0 1-2.143-2.012c-.7-.701-1.458-1.37-2.275-2.012a243.669 243.669 0 0 1 5.074-15.137 338.323 338.323 0 0 1 6.081-15.224 409.333 409.333 0 0 1 6.76-14.961 545.319 545.319 0 0 1 7.065-14.306c.583-.933 1.24-1.4 1.968-1.4.701 0 1.341.438 1.925 1.312a73.43 73.43 0 0 1 5.25 9.997 109.196 109.196 0 0 1 3.915 10.565c1.122 3.587 2.1 7.212 2.931 10.87a348.73 348.73 0 0 1 2.297 10.916 133.04 133.04 0 0 1 3.216-8.684c1.21-2.96 2.493-5.92 3.85-8.881a186.242 186.242 0 0 1 4.265-8.705 277.713 277.713 0 0 1 4.462-8.203 44.84 44.84 0 0 1 2.69-4.2 22.845 22.845 0 0 1 3.412-3.784 17.152 17.152 0 0 1 4.244-2.756c1.56-.714 3.288-1.071 5.184-1.071.116 0 .306.065.568.196.263.132.526.285.79.46.26.175.515.335.764.48.247.147.444.22.59.22z"/></g><g><path fill="#f0f" d="M1267.977 65.533c.524-2.013 1.108-4.222 1.75-6.628a672.321 672.321 0 0 1 4.353-15.552 677.677 677.677 0 0 1 2.427-8.115 760.955 760.955 0 0 1 2.428-7.787 290.005 290.005 0 0 1 2.341-7.065c.758-2.188 1.48-4.178 2.166-5.972.684-1.793 1.318-3.287 1.902-4.484.263-.525.963-1.035 2.101-1.531 1.136-.496 2.581-.97 4.33-1.422a82.01 82.01 0 0 1 5.885-1.268c2.171-.394 4.418-.751 6.736-1.072a286.83 286.83 0 0 1 13.365-1.532c1.983-.175 3.733-.312 5.25-.415 1.516-.102 2.64-.153 3.368-.153 1.662 0 2.997.343 4.003 1.028 1.006.686 1.51 1.845 1.51 3.478v.393a1602.707 1602.707 0 0 1-15.29 4.069 166.065 166.065 0 0 1-15.377 3.237c-.643.088-1.145.227-1.51.416a2.54 2.54 0 0 0-.875.722 3.514 3.514 0 0 0-.524 1.072c-.132.423-.27.94-.416 1.553a31.904 31.904 0 0 1-.83 2.997c-.293.86-.577 1.683-.855 2.47-.277.789-.56 1.605-.852 2.45a38.524 38.524 0 0 0-.875 2.975c.816-.057 1.873-.188 3.172-.393l4.046-.634c1.4-.22 2.763-.416 4.09-.591s2.443-.263 3.347-.263c1.225 0 2.231.162 3.02.482.786.32 1.413.759 1.88 1.312a4.62 4.62 0 0 1 .962 1.969c.175.759.262 1.56.262 2.406v.569a74.86 74.86 0 0 1-5.118 1.422 81.812 81.812 0 0 1-4.55.94 144.05 144.05 0 0 1-4.506.722c-1.516.218-3.179.503-4.987.853a94.842 94.842 0 0 1-2.733.503c-.628.103-1.11.256-1.445.459-.335.204-.605.519-.809.94-.205.424-.48 1.087-.83 1.992a178.717 178.717 0 0 0-1.992 5.074c-.656 1.75-1.29 3.47-1.903 5.162a166.34 166.34 0 0 0-1.684 4.878c-.51 1.56-.956 2.968-1.335 4.222a55.741 55.741 0 0 0 6.366-1.03c2.202-.48 4.455-1.02 6.76-1.617a497.103 497.103 0 0 0 6.955-1.86 159.392 159.392 0 0 1 6.956-1.75 93.136 93.136 0 0 1 6.781-1.29 42.753 42.753 0 0 1 6.387-.503c1.02 0 1.734.234 2.143.7.408.467.612 1.035.612 1.706 0 .496-.058.978-.174 1.443-.118.467-.248.949-.394 1.445-2.392.787-4.834 1.67-7.328 2.646-2.493.978-5.03 1.984-7.61 3.019a374.135 374.135 0 0 1-7.898 3.062 172.845 172.845 0 0 1-8.138 2.822c-.787.262-2.019.569-3.696.919-1.678.349-3.544.7-5.599 1.049-2.056.35-4.186.678-6.387.985a142.47 142.47 0 0 1-6.06.72z"/></g><g><path fill="#f0f" d="M1345.627 64.308c1.196 0 2.574-.16 4.135-.48a32.3 32.3 0 0 0 4.79-1.402 33.719 33.719 0 0 0 4.834-2.274 25.54 25.54 0 0 0 4.352-3.107 17.725 17.725 0 0 0 3.303-3.893 11.786 11.786 0 0 0 1.685-4.637v-.35c0-.845-.387-1.699-1.16-2.559-.773-.86-1.787-1.742-3.04-2.648a52.708 52.708 0 0 0-4.287-2.755 558.385 558.385 0 0 1-4.944-2.91 94.258 94.258 0 0 1-4.943-3.149 35.116 35.116 0 0 1-4.288-3.412c-1.253-1.182-2.267-2.413-3.04-3.697-.773-1.283-1.16-2.639-1.16-4.069 0-1.662.475-3.208 1.423-4.637.947-1.428 2.194-2.74 3.74-3.937 1.545-1.195 3.282-2.245 5.206-3.149a50.796 50.796 0 0 1 5.84-2.32c1.969-.64 3.85-1.122 5.644-1.443 1.794-.32 3.33-.482 4.615-.482 1.604 0 3.076.162 4.418.482 1.342.321 2.494.831 3.456 1.531a7.223 7.223 0 0 1 2.254 2.691c.539 1.093.809 2.413.809 3.96v.852c0 .277-.03.576-.087.897a82.076 82.076 0 0 1-6.956.416c-2.392.043-4.667.152-6.825.328-2.16.174-4.105.488-5.84.94-1.736.452-3.056 1.218-3.96 2.297a193.178 193.178 0 0 0 5.972 3.215c2.115 1.094 4.2 2.224 6.256 3.39a84.24 84.24 0 0 1 5.905 3.675c1.882 1.283 3.537 2.64 4.966 4.07 1.429 1.428 2.567 2.945 3.412 4.548a10.82 10.82 0 0 1 1.269 5.12v.852c0 .277-.03.562-.087.853-.38 2.974-1.138 5.695-2.275 8.16-1.138 2.464-2.552 4.673-4.244 6.627a29.005 29.005 0 0 1-5.752 5.095 37.115 37.115 0 0 1-6.76 3.61 37.5 37.5 0 0 1-7.283 2.143 40 40 0 0 1-7.372.701c-3.733 0-7.116-.387-10.15-1.16-3.032-.772-5.628-1.706-7.786-2.799-2.158-1.094-3.82-2.246-4.987-3.456-1.166-1.21-1.75-2.253-1.75-3.128 0-.35.065-.737.197-1.16.13-.422.387-.816.766-1.18.378-.365.918-.67 1.618-.919.7-.248 1.603-.372 2.713-.372 1.049 0 2.07.262 3.062.787.99.525 2.07 1.101 3.237 1.728a29.106 29.106 0 0 0 3.937 1.728c1.458.525 3.179.788 5.162.788z"/></g><g><path fill="#f0f" d="M1404.422 64.308c1.195 0 2.573-.16 4.134-.48a32.265 32.265 0 0 0 4.79-1.402 33.668 33.668 0 0 0 4.834-2.274 25.508 25.508 0 0 0 4.353-3.107 17.725 17.725 0 0 0 3.304-3.893 11.801 11.801 0 0 0 1.685-4.637v-.35c0-.845-.388-1.699-1.16-2.559-.774-.86-1.788-1.742-3.042-2.648a52.534 52.534 0 0 0-4.286-2.755 558.5 558.5 0 0 1-4.944-2.91 94.258 94.258 0 0 1-4.942-3.149 34.963 34.963 0 0 1-4.288-3.412c-1.254-1.182-2.268-2.413-3.041-3.697-.772-1.283-1.16-2.639-1.16-4.069 0-1.662.474-3.208 1.422-4.637.948-1.428 2.196-2.74 3.74-3.937 1.547-1.195 3.283-2.245 5.207-3.149a50.81 50.81 0 0 1 5.84-2.32c1.968-.64 3.85-1.122 5.643-1.443 1.794-.32 3.332-.482 4.615-.482 1.605 0 3.077.162 4.42.482 1.34.321 2.492.831 3.455 1.531a7.22 7.22 0 0 1 2.253 2.691c.54 1.093.81 2.413.81 3.96v.852c0 .277-.03.576-.088.897a82.051 82.051 0 0 1-6.956.416c-2.392.043-4.666.152-6.825.328-2.158.174-4.105.488-5.839.94-1.737.452-3.056 1.218-3.959 2.297a193.087 193.087 0 0 0 5.97 3.215 183.679 183.679 0 0 1 6.256 3.39 84.032 84.032 0 0 1 5.906 3.675c1.881 1.283 3.537 2.64 4.965 4.07 1.43 1.428 2.567 2.945 3.413 4.548a10.832 10.832 0 0 1 1.27 5.12v.852c0 .277-.03.562-.089.853-.379 2.974-1.138 5.695-2.274 8.16-1.138 2.464-2.553 4.673-4.245 6.627a28.971 28.971 0 0 1-5.75 5.095 37.156 37.156 0 0 1-6.76 3.61 37.51 37.51 0 0 1-7.283 2.143 40.01 40.01 0 0 1-7.373.701c-3.733 0-7.116-.387-10.15-1.16-3.032-.772-5.628-1.706-7.785-2.799-2.16-1.094-3.821-2.246-4.987-3.456s-1.75-2.253-1.75-3.128c0-.35.065-.737.196-1.16.132-.422.388-.816.766-1.18.379-.365.918-.67 1.619-.919.7-.248 1.603-.372 2.712-.372 1.049 0 2.07.262 3.062.787.99.525 2.07 1.101 3.236 1.728a29.066 29.066 0 0 0 3.939 1.728c1.458.525 3.179.788 5.162.788z"/></g></g></svg>