<svg xmlns="http://www.w3.org/2000/svg" xmlns:xlink="http://www.w3.org/1999/xlink" width="2762.4" height="686.7" viewBox="0 0 2762.4 686.7"><defs><style>.cls-1{fill:url(#linear-gradient);}.cls-2{fill:url(#linear-gradient-2);}.cls-3{fill:url(#linear-gradient-3);}.cls-4{fill:#101020;}</style><linearGradient id="linear-gradient" x1="1347.34" y1="266.32" x2="2024.53" y2="266.32" gradientUnits="userSpaceOnUse"><stop offset="0" stop-color="#0010ff"/><stop offset="0.27" stop-color="#71b9ff"/><stop offset="0.64" stop-color="#73bdff"/><stop offset="1" stop-color="#152aff"/></linearGradient><linearGradient id="linear-gradient-2" x1="1471.41" y1="461.45" x2="1898.12" y2="71.1" gradientUnits="userSpaceOnUse"><stop offset="0" stop-color="#1b37ff"/><stop offset="0.1" stop-color="#325bff"/><stop offset="0.9" stop-color="#365eff"/><stop offset="1" stop-color="#2949ff"/></linearGradient><linearGradient id="linear-gradient-3" x1="11205.64" y1="-9496.78" x2="11275.77" y2="-9496.78" gradientTransform="translate(11131.9 11429.2) rotate(-90)" gradientUnits="userSpaceOnUse"><stop offset="0" stop-color="#0010ff"/><stop offset="0.71" stop-color="#55a7ff"/><stop offset="1" stop-color="#54a5ff"/></linearGradient></defs><g id="Layer_2" data-name="Layer 2"><path class="cls-1" d="M1873.8,417.1c-42.2,0-96.4-20.3-126-68.7-1.6-2.5-10.4-20.4-1.3-28.5,2.9-2.6,13.9-8.5,19.5-9.1,3-.3,13.3-1.2,16,3.6,19.8,35,58,48.8,84.2,48.8a96.9,96.9,0,1,0-61.5-171.8h0l-7.3,6.6S1608,370.2,1603.1,374.4c-6.8,5.8-10.6,9.2-18.5,14.6-22.9,15.9-44.5,26.2-86.5,28-83,3.6-150.8-67.6-150.8-150.7s67.7-150.8,150.8-150.8c23.6,0,49,7,62.5,13.5a15,15,0,0,1,7.9,9.5c2.6,8.9-3.2,18.3-3.9,19.4-4,6.3-20.6,12.9-29.5,12.7-12.6-.4-15.1-1.3-29.4-1.3A97,97,0,1,0,1564.9,343s13.6-10.4,18.1-14.6c17.7-16.3,163-150.4,182.1-166.6,30.7-26.1,67.3-46.2,108.7-46.2,83.1,0,150.7,67.6,150.7,150.7S1956.9,417.1,1873.8,417.1Z"/><path class="cls-2" d="M1937.5,200.8a96.8,96.8,0,0,0-132.8-9.4h0l-7.3,6.6S1608,370.2,1603.1,374.4c-6.8,5.8-10.6,9.2-18.5,14.6-22.9,15.9-44.5,26.2-86.5,28s-79.5-15.2-106.9-43.2h-.1l42.2-43.1h0A96.8,96.8,0,0,0,1564.9,343s13.6-10.4,18.1-14.6c17.7-16.3,163-150.4,182.1-166.6,30.7-26.1,67.3-46.2,108.7-46.2a150.3,150.3,0,0,1,99,37.1l-35.3,48.1"/><circle class="cls-3" cx="1635.1" cy="188.5" r="35.1"/><path class="cls-4" d="M78.1,472.9q3.9,6.8,8.7,16.5c3.2,6.4,6.4,13.3,9.7,20.4s6.6,14.4,9.9,21.8l8.9,20.4,8.9-20.4c3.1-7.4,6.4-14.7,9.7-21.8s6.5-14,9.7-20.4,6.1-12,8.7-16.5h20.1c1.1,9,2.1,18.5,3.1,28.6s1.8,20.4,2.6,31,1.5,21.1,2.1,31.8,1.3,21.1,1.7,31.3H160c-.5-14.3-1.1-29-1.7-44.1s-1.7-29.8-3-43.9l-4.6,9.7L145,529.6l-6.1,13.7c-2,4.8-4,9.3-6,13.8l-5.4,12.3c-1.6,3.9-3.1,7.2-4.2,9.9H106.6c-1.1-2.7-2.6-6-4.2-9.9L97,556.9c-2-4.4-4-9-6-13.7l-6.1-13.7-5.7-12.3c-1.8-3.8-3.3-7-4.6-9.6-1.3,14.1-2.3,28.8-3,43.9s-1.2,29.8-1.7,44.1H48c.4-10.2,1-20.7,1.7-31.6s1.4-21.6,2.1-32.3,1.7-21,2.6-31,2-19.3,3.1-27.8Z"/><path class="cls-4" d="M214.9,549.7a58.5,58.5,0,0,1,3.6-21.4,45.4,45.4,0,0,1,9.6-15.3,40.3,40.3,0,0,1,13.8-9.2,42.2,42.2,0,0,1,16-3.1c12.7,0,22.7,3.9,29.8,11.8s10.7,19.7,10.7,35.4c0,1.2,0,2.5-.1,4s-.1,2.8-.2,4H237c.6,7.4,3.2,13.2,7.9,17.3s11.4,6.1,20.2,6.1a70,70,0,0,0,14.3-1.4,60.4,60.4,0,0,0,10.2-3.1l2.8,17.6a28.9,28.9,0,0,1-4.9,1.8,48.7,48.7,0,0,1-7.1,1.8c-2.6.5-5.5,1-8.5,1.3a73,73,0,0,1-9.4.6,57.5,57.5,0,0,1-21.3-3.7,39.4,39.4,0,0,1-14.8-10.1,40.9,40.9,0,0,1-8.7-15.2A61.4,61.4,0,0,1,214.9,549.7Zm62.1-9.5a29.6,29.6,0,0,0-1.2-8.5,22.9,22.9,0,0,0-3.7-6.9,18.8,18.8,0,0,0-5.8-4.6,19.1,19.1,0,0,0-8.2-1.6,19.6,19.6,0,0,0-8.7,1.8,20.5,20.5,0,0,0-6.3,4.9,23.6,23.6,0,0,0-4,6.9,35.9,35.9,0,0,0-1.9,8Z"/><path class="cls-4" d="M333.3,478.6l21.4-3.6v28h32.9v17.9H354.7v37.7c0,7.4,1.2,12.7,3.5,15.9s6.4,4.8,12.1,4.8a35.8,35.8,0,0,0,10.3-1.3,69.7,69.7,0,0,0,7.2-2.3l3.5,17a67.2,67.2,0,0,1-9.7,3.3,53.6,53.6,0,0,1-14.2,1.7q-9.9,0-16.5-2.7a23.6,23.6,0,0,1-10.5-7.7,29.1,29.1,0,0,1-5.5-12.2,73.5,73.5,0,0,1-1.6-16.4Z"/><path class="cls-4" d="M452.4,500.7a54.6,54.6,0,0,1,17.9,2.6,29.2,29.2,0,0,1,11.6,7.5,28.2,28.2,0,0,1,6.2,11.6,58,58,0,0,1,1.8,14.9v56.1c-3.3.7-8.3,1.6-14.9,2.6a153.8,153.8,0,0,1-22.6,1.5,65.7,65.7,0,0,1-15.2-1.6,34.3,34.3,0,0,1-11.8-5.1,25.2,25.2,0,0,1-7.6-9.2,32.7,32.7,0,0,1-2.7-14,28.1,28.1,0,0,1,3-13.5,25.8,25.8,0,0,1,8.5-8.9,35.7,35.7,0,0,1,12.3-5,68.8,68.8,0,0,1,14.6-1.5,65.7,65.7,0,0,1,7.4.5,69.7,69.7,0,0,1,8.3,1.5v-3.6a26.9,26.9,0,0,0-.9-7,14.3,14.3,0,0,0-3.1-6,13.5,13.5,0,0,0-5.8-3.9,24,24,0,0,0-9.1-1.5,82.7,82.7,0,0,0-13.7,1.1,53.7,53.7,0,0,0-10,2.5l-2.7-17.4a85.2,85.2,0,0,1,11.9-2.8A96.9,96.9,0,0,1,452.4,500.7Zm1.8,79.8c6.6,0,11.6-.3,15-1.1V555.7a45.9,45.9,0,0,0-5.1-1,44.7,44.7,0,0,0-14.6,0,23,23,0,0,0-6.6,1.9,13.1,13.1,0,0,0-4.7,4,11.8,11.8,0,0,0-1.7,6.5c0,5,1.6,8.5,4.7,10.5S448.7,580.5,454.2,580.5Z"/><path class="cls-4" d="M614.7,500.7a54.6,54.6,0,0,1,17.9,2.6,29.2,29.2,0,0,1,11.6,7.5,28.2,28.2,0,0,1,6.2,11.6,58,58,0,0,1,1.8,14.9v56.1c-3.3.7-8.3,1.6-14.9,2.6a153.8,153.8,0,0,1-22.6,1.5,65.7,65.7,0,0,1-15.2-1.6,34.3,34.3,0,0,1-11.8-5.1,25.2,25.2,0,0,1-7.6-9.2,32.7,32.7,0,0,1-2.7-14,27,27,0,0,1,3.1-13.5,24.7,24.7,0,0,1,8.4-8.9,35.7,35.7,0,0,1,12.3-5,68.8,68.8,0,0,1,14.6-1.5,65.7,65.7,0,0,1,7.4.5,69.7,69.7,0,0,1,8.3,1.5v-3.6a26.9,26.9,0,0,0-.9-7,14.3,14.3,0,0,0-3.1-6,13.5,13.5,0,0,0-5.8-3.9,24,24,0,0,0-9.1-1.5,80.5,80.5,0,0,0-13.6,1.1,52.9,52.9,0,0,0-10.1,2.5l-2.7-17.4a85.2,85.2,0,0,1,11.9-2.8A96.9,96.9,0,0,1,614.7,500.7Zm1.8,79.8c6.6,0,11.6-.3,15-1.1V555.7a45.9,45.9,0,0,0-5.1-1,42.7,42.7,0,0,0-7.4-.6,43.7,43.7,0,0,0-7.2.6,23,23,0,0,0-6.6,1.9,13.1,13.1,0,0,0-4.7,4,11.8,11.8,0,0,0-1.7,6.5q0,7.5,4.8,10.5C606.7,579.5,611,580.5,616.5,580.5Z"/><path class="cls-4" d="M775.1,549.4a63.2,63.2,0,0,1-2.8,19.4,43.1,43.1,0,0,1-7.9,15.2,35,35,0,0,1-12.8,10,45.6,45.6,0,0,1-29.5,1.9,49.8,49.8,0,0,1-9-3.5v35.9H691.7V506c4.4-1.2,9.7-2.3,16.1-3.4A130.2,130.2,0,0,1,728,501a54.8,54.8,0,0,1,19.6,3.4,41.6,41.6,0,0,1,14.8,9.6,42.4,42.4,0,0,1,9.4,15.3A57.3,57.3,0,0,1,775.1,549.4Zm-22,.3c0-9.5-2.1-17-6.4-22.3s-11.3-8-20.8-8l-6.3.3a35.5,35.5,0,0,0-6.5,1.2v52.9a32.8,32.8,0,0,0,7.5,3.6,30.4,30.4,0,0,0,10,1.7c7.8,0,13.5-2.7,17.1-8S753.1,558.7,753.1,549.7Z"/><path class="cls-4" d="M893.8,549.4a66.4,66.4,0,0,1-2.7,19.4,44.8,44.8,0,0,1-7.9,15.2,35,35,0,0,1-12.8,10,42.7,42.7,0,0,1-17.5,3.5,42,42,0,0,1-12-1.6,44.5,44.5,0,0,1-9-3.5v35.9H810.5V506c4.3-1.2,9.7-2.3,16.1-3.4a128.9,128.9,0,0,1,20.1-1.6,54.9,54.9,0,0,1,19.7,3.4,41.6,41.6,0,0,1,14.8,9.6,43.8,43.8,0,0,1,9.4,15.3A59.7,59.7,0,0,1,893.8,549.4Zm-21.9.3c0-9.5-2.2-17-6.5-22.3s-11.2-8-20.8-8l-6.3.3a36,36,0,0,0-6.4,1.2v52.9a32.8,32.8,0,0,0,7.5,3.6,30,30,0,0,0,10,1.7c7.8,0,13.5-2.7,17.1-8S871.9,558.7,871.9,549.7Z"/><path class="cls-4" d="M952.4,580.2c5.7,0,9.8-.7,12.4-2.1s3.9-3.7,3.9-7a9.1,9.1,0,0,0-4.2-7.6c-2.7-2-7.3-4.2-13.7-6.5-3.9-1.4-7.4-3-10.7-4.5a39.6,39.6,0,0,1-8.4-5.6,22.8,22.8,0,0,1-5.6-7.7,27.9,27.9,0,0,1-2-11.1c0-8.5,3.1-15.2,9.4-20.1s14.7-7.3,25.5-7.3a77.6,77.6,0,0,1,15.5,1.5,82.2,82.2,0,0,1,11.2,2.9l-3.9,17.4a52.4,52.4,0,0,0-9-3,54.2,54.2,0,0,0-12.8-1.3c-4.3,0-7.9.7-10.6,2.2a7.4,7.4,0,0,0-4.1,6.8,10.3,10.3,0,0,0,.8,4.1,9.5,9.5,0,0,0,2.8,3.3,28.6,28.6,0,0,0,5.1,3c2.1,1,4.7,2,7.8,3.1a103,103,0,0,1,12.9,5.6,33.5,33.5,0,0,1,8.8,6.2,20.4,20.4,0,0,1,5,7.8,30.7,30.7,0,0,1,1.6,10.6c0,8.9-3.3,15.6-9.8,20.1s-15.9,6.9-28.1,6.9c-8.1,0-14.7-.7-19.6-2.1a72.4,72.4,0,0,1-10.4-3.3l3.7-17.8a102.4,102.4,0,0,0,11.4,3.7A57.9,57.9,0,0,0,952.4,580.2Z"/><path class="cls-4" d="M1156.1,592.7a126.9,126.9,0,0,1-16,3.6,131.2,131.2,0,0,1-20.2,1.6,54.9,54.9,0,0,1-19.7-3.4,40.6,40.6,0,0,1-14.8-9.7,42.5,42.5,0,0,1-9.4-15.2,59.7,59.7,0,0,1-3.2-20.1,68.9,68.9,0,0,1,2.7-19.9,43.1,43.1,0,0,1,8.1-15.3,35.7,35.7,0,0,1,12.9-9.8A42,42,0,0,1,1114,501a42.8,42.8,0,0,1,11.9,1.6,57.2,57.2,0,0,1,8.8,3.6V461.7l21.4-3.5ZM1094.7,549c0,9.4,2.3,16.8,6.7,22.2s10.7,8.1,18.6,8.1a71,71,0,0,0,8.8-.5l5.9-.9V524.8a32.7,32.7,0,0,0-7.5-3.7,30,30,0,0,0-10-1.7c-7.8,0-13.5,2.7-17.1,8S1094.7,539.9,1094.7,549Z"/><path class="cls-4" d="M1191.5,549.7c0-8.1,1.2-15.3,3.7-21.4a45.4,45.4,0,0,1,9.6-15.3,38.5,38.5,0,0,1,13.8-9.2,42.1,42.1,0,0,1,15.9-3.1c12.8,0,22.7,3.9,29.9,11.8s10.7,19.7,10.7,35.4c0,1.2,0,2.5-.1,4s-.2,2.8-.3,4h-61c.6,7.4,3.2,13.2,7.8,17.3s11.5,6.1,20.3,6.1a70.8,70.8,0,0,0,14.3-1.4,56.2,56.2,0,0,0,10.1-3.1l2.9,17.6a28.9,28.9,0,0,1-4.9,1.8,52.3,52.3,0,0,1-7.1,1.8c-2.6.5-5.5,1-8.6,1.3a71.4,71.4,0,0,1-9.3.6,57.1,57.1,0,0,1-21.3-3.7,39.7,39.7,0,0,1-14.9-10.1,40.7,40.7,0,0,1-8.6-15.2A61.4,61.4,0,0,1,1191.5,549.7Zm62.2-9.5a26.5,26.5,0,0,0-1.3-8.5,20.6,20.6,0,0,0-3.6-6.9,18.8,18.8,0,0,0-5.8-4.6,21.9,21.9,0,0,0-16.9.2,20.5,20.5,0,0,0-6.3,4.9,21.5,21.5,0,0,0-4,6.9,36.1,36.1,0,0,0-2,8Z"/><path class="cls-4" d="M1334.9,595.6c-6-12.2-12-26.2-18.3-41.9s-11.8-32.7-16.9-50.7h22.8c1.3,5.2,2.8,10.8,4.5,16.7s3.6,11.9,5.6,17.9,3.9,11.7,6,17.3,4,10.7,5.8,15.2c1.8-4.5,3.7-9.6,5.7-15.2s4-11.4,5.9-17.3,3.8-11.9,5.6-17.9,3.3-11.5,4.6-16.7h22.2q-7.7,27-17,50.7c-6.2,15.7-12.3,29.7-18.2,41.9Z"/><path class="cls-4" d="M1410.1,549.7c0-8.1,1.2-15.3,3.7-21.4a45.4,45.4,0,0,1,9.6-15.3,38.5,38.5,0,0,1,13.8-9.2,42.1,42.1,0,0,1,15.9-3.1c12.8,0,22.7,3.9,29.9,11.8s10.7,19.7,10.7,35.4c0,1.2-.1,2.5-.1,4s-.2,2.8-.3,4h-61c.5,7.4,3.2,13.2,7.8,17.3s11.4,6.1,20.3,6.1a69,69,0,0,0,14.2-1.4,57.6,57.6,0,0,0,10.2-3.1l2.9,17.6a28.9,28.9,0,0,1-4.9,1.8,52.3,52.3,0,0,1-7.1,1.8c-2.6.5-5.5,1-8.6,1.3a71.9,71.9,0,0,1-9.4.6,57,57,0,0,1-21.2-3.7,39.7,39.7,0,0,1-14.9-10.1,39.4,39.4,0,0,1-8.6-15.2A61.4,61.4,0,0,1,1410.1,549.7Zm62.2-9.5a29.6,29.6,0,0,0-1.3-8.5,20.6,20.6,0,0,0-3.6-6.9,18.8,18.8,0,0,0-5.8-4.6,19.5,19.5,0,0,0-8.3-1.6,19.9,19.9,0,0,0-8.7,1.8,21.2,21.2,0,0,0-10.2,11.8,36.1,36.1,0,0,0-2,8Z"/><path class="cls-4" d="M1561.8,597.3a57,57,0,0,1-15.8-2.1,24.7,24.7,0,0,1-10-5.6,19.3,19.3,0,0,1-5.2-9,46,46,0,0,1-1.5-12.3V461.7l21.4-3.5v106a31,31,0,0,0,.6,6.6,10.5,10.5,0,0,0,2.2,4.5,10.1,10.1,0,0,0,4.3,2.8,29.4,29.4,0,0,0,7,1.5Z"/><path class="cls-4" d="M1679.2,549.2a60.4,60.4,0,0,1-3.2,20,44.4,44.4,0,0,1-9,15.4,41.8,41.8,0,0,1-14.1,9.9,44.8,44.8,0,0,1-18.2,3.5,43.8,43.8,0,0,1-18-3.5,42.4,42.4,0,0,1-14-9.9,46.2,46.2,0,0,1-9.1-15.4,57.9,57.9,0,0,1-3.3-20,56.9,56.9,0,0,1,3.3-19.9,43.4,43.4,0,0,1,9.2-15.3,39.2,39.2,0,0,1,14.1-9.9,45.2,45.2,0,0,1,17.8-3.4,46.2,46.2,0,0,1,18,3.4,39.2,39.2,0,0,1,14.1,9.9,44.8,44.8,0,0,1,9.1,15.3A56.9,56.9,0,0,1,1679.2,549.2Zm-22,0c0-9.2-2-16.5-5.9-21.9s-9.5-8-16.6-8-12.6,2.7-16.5,8-5.9,12.7-5.9,21.9,1.9,16.7,5.9,22.1,9.5,8.1,16.5,8.1,12.6-2.7,16.6-8.1S1657.2,558.5,1657.2,549.2Z"/><path class="cls-4" d="M1797.9,549.4a66.4,66.4,0,0,1-2.7,19.4,44.8,44.8,0,0,1-7.9,15.2,35,35,0,0,1-12.8,10,42.4,42.4,0,0,1-17.5,3.5,42,42,0,0,1-12-1.6,47,47,0,0,1-9-3.5v35.9h-21.4V506c4.3-1.2,9.7-2.3,16.1-3.4a129.2,129.2,0,0,1,20.2-1.6,54.8,54.8,0,0,1,19.6,3.4,41.6,41.6,0,0,1,14.8,9.6,42.4,42.4,0,0,1,9.4,15.3A59.7,59.7,0,0,1,1797.9,549.4Zm-21.9.3c0-9.5-2.2-17-6.5-22.3s-11.2-8-20.8-8l-6.3.3a36,36,0,0,0-6.4,1.2v52.9a32.8,32.8,0,0,0,7.5,3.6,30,30,0,0,0,10,1.7c7.8,0,13.5-2.7,17.1-8S1776,558.7,1776,549.7Z"/><path class="cls-4" d="M1828.2,549.7a58.5,58.5,0,0,1,3.6-21.4,45.6,45.6,0,0,1,9.7-15.3,38.5,38.5,0,0,1,13.8-9.2,42.1,42.1,0,0,1,15.9-3.1c12.8,0,22.7,3.9,29.8,11.8s10.7,19.7,10.7,35.4v4c-.1,1.5-.2,2.8-.3,4h-61.1c.6,7.4,3.2,13.2,7.9,17.3s11.4,6.1,20.3,6.1a69,69,0,0,0,14.2-1.4,60.4,60.4,0,0,0,10.2-3.1l2.8,17.6a30.9,30.9,0,0,1-4.8,1.8,56.4,56.4,0,0,1-7.1,1.8c-2.7.5-5.5,1-8.6,1.3a73,73,0,0,1-9.4.6,57,57,0,0,1-21.2-3.7,39.7,39.7,0,0,1-14.9-10.1,40.9,40.9,0,0,1-8.7-15.2A61.4,61.4,0,0,1,1828.2,549.7Zm62.1-9.5a29.6,29.6,0,0,0-1.2-8.5,20.6,20.6,0,0,0-3.6-6.9,19.2,19.2,0,0,0-5.9-4.6,18.8,18.8,0,0,0-8.2-1.6,19.9,19.9,0,0,0-8.7,1.8,20.5,20.5,0,0,0-6.3,4.9,21.3,21.3,0,0,0-3.9,6.9,36.1,36.1,0,0,0-2,8Z"/><path class="cls-4" d="M2025.9,592.7a129,129,0,0,1-36.3,5.2,54.8,54.8,0,0,1-19.6-3.4,40.6,40.6,0,0,1-14.8-9.7,41.2,41.2,0,0,1-9.4-15.2,57.3,57.3,0,0,1-3.3-20.1,68.8,68.8,0,0,1,2.8-19.9,44.6,44.6,0,0,1,8-15.3,37,37,0,0,1,13-9.8,45,45,0,0,1,29.3-1.9,54.7,54.7,0,0,1,8.9,3.6V461.7l21.4-3.5ZM1964.5,549c0,9.4,2.2,16.8,6.7,22.2s10.7,8.1,18.6,8.1a73.5,73.5,0,0,0,8.8-.5l5.9-.9V524.8a32.7,32.7,0,0,0-7.5-3.7,30.4,30.4,0,0,0-10-1.7c-7.8,0-13.5,2.7-17.1,8S1964.5,539.9,1964.5,549Z"/><path class="cls-4" d="M2204.3,549.4a57.1,57.1,0,0,1-3.3,20,43.5,43.5,0,0,1-9.3,15.4,40.6,40.6,0,0,1-14.8,9.7,54.9,54.9,0,0,1-19.7,3.4,131.2,131.2,0,0,1-20.2-1.6,126.9,126.9,0,0,1-16-3.6v-131l21.4-3.5v48a53.9,53.9,0,0,1,9.1-3.6,44.5,44.5,0,0,1,11.9-1.6,42.7,42.7,0,0,1,17.5,3.5,34.6,34.6,0,0,1,12.8,9.8,48.2,48.2,0,0,1,7.9,15.3A68.7,68.7,0,0,1,2204.3,549.4Zm-21.9-.4q0-13.7-5.4-21.6c-3.6-5.3-9.3-8-17.1-8a32,32,0,0,0-17.5,5.2v53.3l5.9.9a71,71,0,0,0,8.8.5c7.9,0,14.1-2.7,18.5-8.1S2182.4,558.4,2182.4,549Z"/><path class="cls-4" d="M2313.4,503q-14.4,52.7-33.3,95.6a89.7,89.7,0,0,1-7.2,13.6,40.5,40.5,0,0,1-8.4,9.4,32.2,32.2,0,0,1-10.2,5.4,48.5,48.5,0,0,1-23,.6,33.3,33.3,0,0,1-7.3-2.3l3.9-17.2a33.3,33.3,0,0,0,12.6,2.5c5.6,0,9.9-1.3,13.1-4s5.9-6.7,8.2-12.3c-6.7-13-13.2-27.1-19.4-42.5a457.3,457.3,0,0,1-16.7-48.8h22.9c1.2,4.9,2.6,10.3,4.3,16.1s3.6,11.6,5.6,17.6,4.2,11.9,6.4,17.8,4.5,11.4,6.8,16.4c3.7-10.5,7.3-21.6,10.5-33.5s6.3-23.3,9-34.4Z"/><path class="cls-4" d="M2439.7,527.2c5.3-8.8,10.5-17.8,15.6-26.9s9.7-18.2,13.8-27.4h24.8c-6.6,12.5-13.5,24.9-20.6,37.3s-14.8,24.7-22.9,37.2v48.2H2428V547.8q-12.1-19-23-37.6c-7.2-12.4-14.1-24.8-20.7-37.3h26.2c4.2,9.2,8.7,18.3,13.7,27.4S2434.3,518.4,2439.7,527.2Z"/><path class="cls-4" d="M2596,549.2a57.9,57.9,0,0,1-3.2,20,44.4,44.4,0,0,1-9,15.4,41.8,41.8,0,0,1-14.1,9.9,48.6,48.6,0,0,1-36.2,0,42,42,0,0,1-13.9-9.9,46.4,46.4,0,0,1-9.2-15.4,60.4,60.4,0,0,1-3.2-20,59.3,59.3,0,0,1,3.2-19.9,45,45,0,0,1,9.2-15.3,41,41,0,0,1,14.1-9.9,45.3,45.3,0,0,1,17.9-3.4,46.2,46.2,0,0,1,18,3.4,39.7,39.7,0,0,1,14,9.9,43.2,43.2,0,0,1,9.1,15.3A56.9,56.9,0,0,1,2596,549.2Zm-21.9,0q0-13.8-6-21.9c-3.9-5.3-9.4-8-16.5-8s-12.6,2.7-16.6,8-5.9,12.7-5.9,21.9,2,16.7,5.9,22.1,9.5,8.1,16.6,8.1,12.6-2.7,16.5-8.1S2574.1,558.5,2574.1,549.2Z"/><path class="cls-4" d="M2707.4,592.7c-4.2,1.1-9.5,2.2-16.2,3.3a131.8,131.8,0,0,1-21.7,1.7c-7.5,0-13.7-1.1-18.7-3.2a29.6,29.6,0,0,1-12-8.9,34,34,0,0,1-6.5-13.5,71.6,71.6,0,0,1-1.9-17.3V503h21.4v48.5c0,9.9,1.4,17,4.3,21.2s7.9,6.4,15.1,6.4a80.7,80.7,0,0,0,8.3-.4,47.2,47.2,0,0,0,6.4-.8V503h21.5Z"/><path class="cls-4" d="M139.3,29c8,13.9,17,30.8,26.8,50.8s19.8,41.1,30,63.1,20.3,44.4,30.3,67.1L254,273.1q12.6-29,27.3-63.1t30-67.1c10.2-22,20.2-43.1,30.1-63.1S360.1,42.9,368.1,29h62q4.9,41.6,9.5,88.2t8,95.6c2.4,32.5,4.6,65.3,6.7,98.2s3.8,65.1,5.3,96.4H391.9q-2.2-66-5.3-135.9T377.4,136l-14.2,30.1c-5.5,11.6-11.3,24.3-17.5,37.9s-12.4,27.8-18.8,42.3l-18.6,42.4c-6,13.6-11.5,26.4-16.6,38.2l-13.1,30.3H227.2l-13.1-30.6c-5.1-12-10.6-24.8-16.6-38.5l-18.6-42.3c-6.4-14.6-12.6-28.6-18.8-42s-12-26.2-17.5-38-10.2-21.7-14.2-29.8q-6.2,65.5-9.2,135.5t-5.3,135.9H46.2q2.3-46.9,5.3-97.2t6.7-99.6q3.6-49.5,8.1-95.8c2.9-31,6.1-59.6,9.4-85.8Z"/><path class="cls-4" d="M520.2,266q0-37.6,11.2-66.1t29.7-47.2a123.4,123.4,0,0,1,42.6-28.4,131.1,131.1,0,0,1,49.1-9.5c39.4,0,70,12.2,92.1,36.5s33,60.8,33,109.2q0,5.5-.3,12.3c-.2,4.6-.4,8.7-.8,12.3H588.4c1.8,22.9,9.9,40.7,24.3,53.2s35.2,18.9,62.5,18.9a206.9,206.9,0,0,0,44-4.4c13.3-2.9,23.7-6,31.4-9.3l8.7,54.1a104.7,104.7,0,0,1-15,5.7c-6.4,2-13.6,3.8-21.8,5.5s-17.1,3-26.5,4.1a251.2,251.2,0,0,1-29,1.6q-37.7,0-65.5-11.2t-45.8-31.1a125.7,125.7,0,0,1-26.8-47Q520.2,298.2,520.2,266Zm191.6-29.5a88.2,88.2,0,0,0-3.8-25.9,63.6,63.6,0,0,0-11.2-21.3,53.3,53.3,0,0,0-18-14.2c-7.1-3.5-15.6-5.2-25.4-5.2s-19.1,1.9-26.8,5.7a62.6,62.6,0,0,0-19.3,15A68.3,68.3,0,0,0,595,211.9a117.8,117.8,0,0,0-6,24.6Z"/><path class="cls-4" d="M844.5,46.5l66.1-10.9v86.3h101.5V177H910.6V293.3c0,22.9,3.6,39.3,10.9,49.1s19.6,14.8,37.1,14.8a123.7,123.7,0,0,0,32-3.8c9.2-2.6,16.6-5,22.1-7.1l10.9,52.4a258.7,258.7,0,0,1-30,10.1c-12.4,3.4-27,5.2-43.7,5.2-20.4,0-37.4-2.8-51.1-8.2s-24.5-13.4-32.5-23.8-13.6-22.9-16.9-37.6-4.9-31.6-4.9-50.6Z"/><path class="cls-4" d="M1171,114.8c21.9,0,40.2,2.7,55.2,8.1s26.8,13.1,35.7,23a85.5,85.5,0,0,1,19.1,35.7,172.4,172.4,0,0,1,5.8,46.2V400.9c-10.2,2.1-25.6,4.8-46.2,7.9s-43.7,4.6-69.6,4.6a207.2,207.2,0,0,1-46.9-4.9c-14.2-3.3-26.3-8.5-36.4-15.8a74.8,74.8,0,0,1-23.4-28.4c-5.7-11.7-8.5-26-8.5-43.2s3.2-30.2,9.6-41.5a78.4,78.4,0,0,1,25.9-27.5,112.6,112.6,0,0,1,37.9-15.3,213.5,213.5,0,0,1,45.1-4.7,205.1,205.1,0,0,1,22.9,1.4,210.4,210.4,0,0,1,25.7,4.7v-11a86.2,86.2,0,0,0-2.7-21.8,47.3,47.3,0,0,0-9.6-18.3,45.1,45.1,0,0,0-18-12.3c-7.5-2.9-16.9-4.4-28.1-4.4a248.9,248.9,0,0,0-42.1,3.3c-12.7,2.2-23.1,4.8-31.1,7.7l-8.2-53.5c8.4-3,20.6-5.9,36.6-8.8A287.8,287.8,0,0,1,1171,114.8Zm5.5,246.2c20.4,0,35.8-1.1,46.4-3.3V284.6a128.3,128.3,0,0,0-15.9-3.3,145.4,145.4,0,0,0-22.9-1.7,151.6,151.6,0,0,0-22.1,1.7,69.1,69.1,0,0,0-20.2,6,36.9,36.9,0,0,0-14.5,12.3c-3.6,5.3-5.4,11.9-5.4,19.9,0,15.7,4.9,26.5,14.7,32.5S1159.7,361,1176.5,361Z"/><path class="cls-4" d="M2229.7,257.3c0-29.9-3.7-51.4-11.2-64.7s-21.4-20-41.8-20a193.1,193.1,0,0,0-24,1.7L2133,177V407.4h-66V131.1c12.7-3.6,29.4-7.1,49.9-10.3a412.9,412.9,0,0,1,65.3-5c19.6,0,35.7,2.6,48.3,7.7s23,11.8,31.4,20.2a132.6,132.6,0,0,1,15.3-9.3,153.2,153.2,0,0,1,20.7-9,196.3,196.3,0,0,1,24.3-6.8,126.2,126.2,0,0,1,26-2.8q33.3,0,54.8,9.6t33.9,26.8c8.2,11.4,13.8,25.3,16.9,41.5a283.1,283.1,0,0,1,4.7,53.2V407.4h-66.1V257.3c0-29.9-3.6-51.4-10.9-64.7s-21.3-20-42.1-20a88.4,88.4,0,0,0-30,5.2c-9.5,3.5-16.6,6.8-21.3,10.1a147.6,147.6,0,0,1,6,29,305.1,305.1,0,0,1,1.7,32.7V407.4h-66.1Z"/><path class="cls-4" d="M2610.8,359.9c17.5,0,30.2-2.1,38.2-6.3s12-11.3,12-21.5-4.3-17.3-12.8-23.5-22.7-12.9-42.3-20.2a358.9,358.9,0,0,1-33.1-13.9,117.8,117.8,0,0,1-25.9-17.2,71,71,0,0,1-17.2-23.8c-4.2-9.3-6.3-20.6-6.3-34.1q0-39.3,29-62t78.6-22.6a240.6,240.6,0,0,1,48,4.6c15.3,3.1,26.8,6.1,34.4,9l-12,53.5a156.8,156.8,0,0,0-27.8-9c-11.3-2.7-24.4-4.1-39.3-4.1s-24.4,2.3-32.8,6.8-12.5,11.6-12.5,21.1a30.6,30.6,0,0,0,2.4,12.5,27.4,27.4,0,0,0,8.5,10.1,87.9,87.9,0,0,0,15.8,9.3q9.9,4.7,24,9.6a346.3,346.3,0,0,1,39.9,17.2,107,107,0,0,1,27,19.1,65.8,65.8,0,0,1,15.6,24.3c3.3,9.1,4.9,20,4.9,32.7q0,41-30.3,62c-20.2,14-49.1,21-86.5,21q-37.8,0-60.7-6.3c-15.2-4.1-26-7.5-32.2-10.1l11.5-55.1a310.6,310.6,0,0,0,35.2,11.5C2577.8,358.1,2593.3,359.9,2610.8,359.9Z"/></g></svg>