<svg xmlns="http://www.w3.org/2000/svg" viewBox="0 0 531.3448 401.59875"><defs><style>.a{isolation:isolate;}.b{fill:#638481;}.c{fill:#edd8ae;}.d{fill:#9b8c72;}.e{fill:#ffd69f;}.f{fill:#4f4743;}.g{fill:#639390;}.h{fill:#95c1bf;}.i{fill:#ffbc8a;}.j{fill:#d88b56;}.k{fill:#bad8d6;mix-blend-mode:overlay;opacity:0.6;}.l{fill:#fff5d9;}.m{fill:#d6af7c;}.n{fill:#37727c;}.o{fill:#a08157;mix-blend-mode:multiply;opacity:0.8;}.p{fill:#69c5cc;}.q{fill:#5ebabc;}.r{fill:#8fedef;}.s{fill:#a7d3d0;}.t{fill:#ffe266;}.u{fill:#fff;}.v{fill:#e1f9f7;}</style></defs><g class="a"><rect class="b" x="336.32862" y="12.51831" width="1.70704" height="81.36904"/><rect class="b" x="346.00186" width="1.70704" height="81.36904"/><polygon class="c" points="452.661 33.056 52.347 33.056 52.347 208.989 452.661 230.99 452.661 33.056"/><polygon class="d" points="445.833 38.746 65.519 38.746 65.519 214.679 445.833 236.68 445.833 38.746"/><rect class="e" x="52.60059" y="345.23311" width="435.34914" height="51.13458"/><rect class="f" x="52.44377" y="349.84508" width="39.87334" height="46.46912"/><rect class="f" x="179.90295" y="349.84508" width="131.10454" height="46.46912"/><rect class="g" x="52.44377" y="359.96625" width="37.59728" height="28.45071"/><rect class="h" x="52.44377" y="360.72532" width="36.45926" height="26.93258"/><rect class="g" x="181.8945" y="359.96625" width="127.12144" height="28.45071"/><rect class="h" x="183.12699" y="361.10428" width="124.65645" height="26.17466"/><rect class="f" x="270.32297" y="352.56907" width="0.85352" height="41.53804"/><rect class="f" x="225.08634" y="352.56907" width="0.85352" height="41.53804"/><rect class="f" x="319.50149" y="349.84508" width="162.21027" height="46.46912"/><rect class="g" x="321.96555" y="359.96625" width="157.28236" height="28.45071"/><rect class="h" x="323.10562" y="360.91537" width="155.00198" height="26.55248"/><rect class="f" x="431.37401" y="352.56907" width="1.05677" height="41.53804"/><rect class="f" x="375.40509" y="352.56907" width="1.05564" height="41.53804"/><rect class="f" x="104.79307" y="349.84508" width="63.11733" height="10.50013"/><rect class="i" x="27.51502" y="322.62572" width="4.85437" height="76.60479"/><rect class="j" x="27.51502" y="295.88205" width="4.85437" height="65.79352"/><rect class="i" x="508.45543" y="322.62572" width="4.85435" height="76.60479"/><rect class="j" x="508.45543" y="295.88205" width="4.85435" height="65.79352"/><rect class="f" x="104.79307" y="363.69148" width="63.11733" height="34.35321"/><rect class="g" x="107.17246" y="366.03536" width="58.35742" height="26.92371"/><rect class="h" x="108.31049" y="366.60551" width="56.08136" height="25.7834"/><polygon class="k" points="151.905 366.035 134.772 366.035 120.798 392.699 144.759 392.699 151.905 366.035"/><polygon class="k" points="84.683 359.966 75.434 359.966 60.703 387.863 73.638 387.863 84.683 359.966"/><polygon class="k" points="277.816 359.966 232.934 359.966 192.526 388.191 255.295 388.191 277.816 359.966"/><polygon class="k" points="436.571 359.966 391.689 359.966 351.281 388.191 414.05 388.191 436.571 359.966"/><rect class="f" x="135.94114" y="364.61396" width="1.8971" height="29.9677"/><rect class="f" x="106.3524" y="371.70889" width="60.31551" height="0.88789"/><rect class="l" y="394.49153" width="524.36664" height="7.10722"/><rect class="m" y="398.28026" width="524.36664" height="3.31849"/><rect class="n" x="493.66106" y="353.42259" width="10.24226" height="3.9831"/><rect class="n" x="497.64416" y="344.88738" width="0.85352" height="10.52676"/><rect class="o" x="52.44377" y="338.52603" width="435.50596" height="30.36897"/><polygon class="n" points="475.333 120.164 15.302 98.039 15.302 346.319 528.181 346.319 475.333 120.164"/><polygon class="p" points="477.754 101.596 12.138 78.314 12.138 342.582 531.345 342.582 477.754 101.596"/><polygon class="q" points="246.267 342.582 246.267 90.1 224.644 89.011 224.644 342.582 246.267 342.582"/><polygon class="q" points="195.308 342.582 195.308 87.534 173.685 86.446 173.685 342.582 195.308 342.582"/><polygon class="q" points="144.35 342.582 144.35 84.969 122.727 83.881 122.727 342.582 144.35 342.582"/><polygon class="q" points="93.391 342.582 93.391 82.404 71.768 81.316 71.768 342.582 93.391 342.582"/><polygon class="q" points="42.433 342.582 42.433 79.839 20.81 78.751 20.81 342.582 42.433 342.582"/><polygon class="q" points="501.058 342.582 501.058 206.925 479.436 109.346 479.436 342.582 501.058 342.582"/><polygon class="q" points="450.1 342.582 450.1 100.36 428.478 99.272 428.478 342.582 450.1 342.582"/><polygon class="q" points="399.141 342.582 399.141 97.795 377.519 96.706 377.519 342.582 399.141 342.582"/><polygon class="q" points="348.183 342.582 348.183 95.23 326.561 94.141 326.561 342.582 348.183 342.582"/><polygon class="q" points="297.224 342.582 297.224 92.665 275.602 91.576 275.602 342.582 297.224 342.582"/><polygon class="r" points="478.477 104.85 477.753 101.591 12.138 78.314 12.138 82.825 478.477 104.85"/><rect class="n" x="144.59157" y="130.86031" width="43.76382" height="18.55943"/><rect class="s" x="146.2788" y="132.8293" width="40.38938" height="14.62145"/><rect class="n" x="90.03868" y="130.86031" width="43.7638" height="18.55943"/><rect class="s" x="91.7259" y="132.8293" width="40.38936" height="14.62145"/><rect class="n" x="35.48578" y="130.86031" width="43.76381" height="18.55943"/><rect class="s" x="37.173" y="132.8293" width="40.38937" height="14.62145"/><polygon class="t" points="12.138 292.378 12.138 303.189 522.581 303.189 520.176 292.378 12.138 292.378"/><polygon class="t" points="523.909 309.068 523.484 307.172 12.138 307.172 12.138 309.068 523.909 309.068"/><path class="u" d="M26.47691,271.351v-4.97875a2.8366,2.8366,0,0,1,2.981-2.94626H42.3258v2.91322l-1.15122,3.04706H33.89337V270.47L40.328,274.772c1.6256,1.08345,1.99776,2.13274,1.99776,4.03v5.384a2.82647,2.82647,0,0,1-2.94484,2.94653H26.47691v-5.92582h8.43272v-1.55812L28.475,275.3813A4.08119,4.08119,0,0,1,26.47691,271.351Z"/><path class="u" d="M62.14708,263.426v23.70641H47.34748a2.83651,2.83651,0,0,1-2.981-2.94653V263.426h7.41759v17.78059h2.94654V263.426Z"/><path class="u" d="M72.285,279.74929v7.38314H64.86856V263.426H79.667a2.83559,2.83559,0,0,1,2.9807,2.94626v10.39744a2.86217,2.86217,0,0,1-2.9807,2.97957Zm0-5.92611h2.94654V269.3863H72.285Z"/><path class="u" d="M85.029,287.13243V263.426h15.84889v2.94626l-1.18567,3.014H92.41069v2.64186h7.28149v5.92723H92.41069v3.25122h8.46716v5.92582Z"/><path class="u" d="M117.75259,263.426a2.82676,2.82676,0,0,1,2.94625,2.94626v9.3137a2.91632,2.91632,0,0,1-1.96473,2.6749l2.3369,5.825v2.94653h-7.24676l-1.99918-7.38314h-1.48893v7.38314h-7.41647V263.426Zm-7.41645,5.96028v4.43688h2.94624V269.3863Z"/><path class="u" d="M130.25934,275.75347h-.57518v11.379H122.436V284.1859L124.8751,263.426h8.263l1.795,9.34788h.50742l1.79532-9.34788H145.533l2.40466,20.75988v2.94653H140.724v-11.379h-.60936l-1.82976,11.379h-6.19605Z"/><path class="u" d="M164.95306,263.426l3.3187,20.75988v2.94653H160.8553l-.43993-4.7746h-3.25092l-.47438,4.7746h-7.38315V284.1859l3.3187-20.75988Zm-5.07956,13.00457-.67825-7.04429h-.8121l-.67684,7.04429Z"/><path class="u" d="M185.149,263.426a2.827,2.827,0,0,1,2.94654,2.94626v9.3137a2.91634,2.91634,0,0,1-1.96473,2.6749l2.33689,5.825v2.94653H181.221l-1.99918-7.38314h-1.48894v7.38314h-7.41646V263.426Zm-7.41617,5.96028v4.43688h2.94625V269.3863Z"/><path class="u" d="M201.00894,263.426h7.044v2.94626l-2.74352,8.23,3.3187,9.58366v2.94653h-7.382l-1.99777-9.177H197.893v9.177h-7.38314V263.426H197.893v8.60214h1.35537Z"/><path class="u" d="M210.67,287.13243V263.426h15.85032v2.94626l-1.18569,3.014H218.0531v2.64186h7.28149v5.92723H218.0531v3.25122h8.46718v5.92582Z"/><path class="u" d="M227.54612,269.3863V263.426h16.59321v2.94626l-1.18426,3.014h-3.5573v17.74613h-7.41618V269.3863Z"/><path class="u" d="M251.12574,272.90915v-5.96027h4.776v5.96027h5.99332v4.7746h-5.99332v5.995h-4.776v-5.995H245.1652v-4.7746Z"/><rect class="v" x="113.55955" y="382.30006" width="9.10423" height="3.12958"/><rect class="v" x="148.83843" y="382.30006" width="9.10423" height="3.12958"/></g></svg>