<?xml version="1.0" encoding="utf-8"?>
<!-- Generator: Adobe Illustrator 25.3.1, SVG Export Plug-In . SVG Version: 6.00 Build 0)  -->
<svg version="1.1" id="图层_1" xmlns="http://www.w3.org/2000/svg" xmlns:xlink="http://www.w3.org/1999/xlink" x="0px" y="0px"
	 viewBox="0 0 1920 303" style="enable-background:new 0 0 1920 303;" xml:space="preserve">
<style type="text/css">
	.st0{fill:#E62945;}
	.st1{fill:#A11F37;}
	.st2{fill:#190606;}
</style>
<g>
	<polygon class="st0" points="246.88,148.11 167.94,302.97 0.11,302.97 163.17,0.36 	"/>
	<polygon class="st0" points="659.21,302.97 491.41,302.97 410.99,150.89 331.4,0.36 496.15,0.36 	"/>
	<polygon class="st1" points="410.99,150.89 331.4,302.97 246.88,148.11 331.4,0.36 	"/>
	<rect x="1618.94" y="71.48" class="st2" width="37.19" height="160.38"/>
	<polygon class="st2" points="1146.19,71.48 1104.48,71.48 1067.28,71.48 1025.58,71.48 1025.58,103.61 1067.28,103.61 
		1067.28,231.86 1104.48,231.86 1104.48,103.61 1146.19,103.61 	"/>
	<polygon class="st2" points="1797.72,71.48 1756.01,71.48 1718.82,71.48 1677.11,71.48 1677.11,103.61 1718.82,103.61 
		1718.82,231.86 1756.01,231.86 1756.01,103.61 1797.72,103.61 	"/>
	<polygon class="st2" points="945.24,199.72 945.24,165.8 1004.55,165.8 1004.55,133.66 945.24,133.66 945.24,103.61 
		1009.31,103.61 1009.31,71.48 945.24,71.48 908.05,71.48 908.05,103.61 908.05,133.66 908.05,165.8 908.05,199.72 908.05,231.86 
		945.24,231.86 1012.59,231.86 1012.59,199.72 	"/>
	<polygon class="st2" points="1852.77,199.72 1852.77,165.8 1912.08,165.8 1912.08,133.66 1852.77,133.66 1852.77,103.61 
		1916.84,103.61 1916.84,71.48 1852.77,71.48 1815.57,71.48 1815.57,103.61 1815.57,133.66 1815.57,165.8 1815.57,199.72 
		1815.57,231.86 1852.77,231.86 1920.11,231.86 1920.11,199.72 	"/>
	<polygon class="st2" points="1202.32,199.72 1202.32,165.8 1261.63,165.8 1261.63,133.66 1202.32,133.66 1202.32,103.61 
		1266.4,103.61 1266.4,71.48 1202.32,71.48 1165.13,71.48 1165.13,103.61 1165.13,133.66 1165.13,165.8 1165.13,199.72 
		1165.13,231.86 1202.32,231.86 1269.67,231.86 1269.67,199.72 	"/>
	<polygon class="st2" points="838.52,71.48 817.69,71.48 790.32,160.74 762.94,71.48 742.11,71.48 704.92,71.48 704.92,231.86 
		742.11,231.86 742.11,106.89 770.98,202.99 790.32,202.99 809.66,202.99 838.52,106.89 838.52,231.86 875.71,231.86 875.71,71.48 	
		"/>
	<path class="st2" d="M1377.78,235.63h-22.61c-34.07,0-61.69-27.62-61.69-61.69V129.4c0-34.07,27.62-61.69,61.69-61.69h22.61
		c34.07,0,61.69,27.62,61.69,61.69v44.53C1439.47,208,1411.85,235.63,1377.78,235.63z M1402.08,165.83V137.5
		c0-21.67-13.47-39.25-30.09-39.25h-11.03c-16.62,0-30.09,17.57-30.09,39.25v28.33c0,21.67,13.47,39.25,30.09,39.25h11.03
		C1388.6,205.08,1402.08,187.51,1402.08,165.83z"/>
	<path class="st2" d="M1602.38,231.98l-43.78-61.3c16.1-7.58,27.27-23.9,27.27-42.87v-8.93c0-26.18-21.23-47.41-47.41-47.41h-33.42
		h-37.19v160.38h37.19v-56.63h14.11l40.54,56.76H1602.38z M1505.03,98.26h19.15c15,0,27.17,10.27,27.17,22.93v4.32
		c0,12.67-12.16,22.93-27.17,22.93h-19.15V98.26z"/>
</g>
</svg>
