<svg id="OBJECTS" xmlns="http://www.w3.org/2000/svg" xmlns:xlink="http://www.w3.org/1999/xlink" viewBox="0 0 370.42 56"><defs><style>.cls-1{font-size:33.63px;font-family:Montserrat-Bold, Montserrat;font-weight:700;}.cls-1,.cls-3{fill:#fff;}.cls-2{letter-spacing:-0.05em;}.cls-3{font-size:7.79px;font-family:Montserrat-Light, Montserrat;font-weight:300;letter-spacing:0.1em;}.cls-4{letter-spacing:0.04em;}.cls-5{letter-spacing:0.05em;}.cls-6{letter-spacing:0.1em;}.cls-7{letter-spacing:0.09em;}.cls-8{letter-spacing:0.11em;}.cls-9{letter-spacing:0.08em;}.cls-10{letter-spacing:0.1em;}.cls-11{letter-spacing:0.06em;}.cls-12{fill:url(#linear-gradient);}.cls-13{fill:url(#linear-gradient-2);}.cls-14{fill:url(#linear-gradient-3);}</style><linearGradient id="linear-gradient" x1="56.4" y1="59.72" x2="44.24" y2="0.77" gradientUnits="userSpaceOnUse"><stop offset="0" stop-color="#1f56ff"/><stop offset="1" stop-color="#e412f1"/></linearGradient><linearGradient id="linear-gradient-2" x1="34.17" y1="49.16" x2="24.28" y2="1.24" gradientUnits="userSpaceOnUse"><stop offset="0" stop-color="#652de8"/><stop offset="0.05" stop-color="#5f38eb"/><stop offset="0.28" stop-color="#4866f6"/><stop offset="0.45" stop-color="#3982fc"/><stop offset="0.55" stop-color="#348cff"/><stop offset="1" stop-color="#00daee"/></linearGradient><linearGradient id="linear-gradient-3" x1="14.75" y1="59.72" x2="2.59" y2="0.77" xlink:href="#linear-gradient"/></defs><title>MTVP LOGO</title><text class="cls-1" transform="translate(74.44 36.79)">MULTIVERSE<tspan class="cls-2" x="223.14" y="0">P</tspan><tspan x="244.23" y="0">AD</tspan></text><text class="cls-3" transform="translate(76.21 52.45)">THE#1 ME<tspan class="cls-4" x="44.67" y="0">T</tspan><tspan class="cls-5" x="49.25" y="0">A</tspan><tspan class="cls-6" x="55.22" y="0">VERSE I</tspan><tspan class="cls-7" x="90.67" y="0">D</tspan><tspan class="cls-6" x="97.51" y="0">O|IGO|INO </tspan><tspan class="cls-8" x="146.83" y="0">L</tspan><tspan class="cls-9" x="151.67" y="0">A</tspan><tspan class="cls-10" x="157.84" y="0">UNCH</tspan><tspan class="cls-11" x="184.76" y="0">P</tspan><tspan class="cls-6" x="190.46" y="0">AD</tspan></text><polygon class="cls-12" points="41.65 6.59 41.65 49.41 56.71 56 56.71 0 41.65 6.59"/><polygon class="cls-13" points="20.59 6.94 20.59 39.29 35.65 45.88 35.65 0.35 20.59 6.94"/><polygon class="cls-14" points="0 6.59 0 49.41 15.06 56 15.06 0 0 6.59"/></svg>