<svg xmlns="http://www.w3.org/2000/svg" xmlns:xlink="http://www.w3.org/1999/xlink" viewBox="0 0 186.90807 224.24766"><defs><style>.a{isolation:isolate;}.b{mix-blend-mode:overlay;}.c{fill:url(#a);}.d{fill:url(#b);}.e{fill:url(#c);}.f,.h,.i,.j,.k,.l,.m,.n,.o,.p,.q,.r,.s,.t{mix-blend-mode:screen;}.f{fill:url(#d);}.g{fill:#ffffab;}.h{fill:url(#e);}.i{fill:url(#f);}.j{fill:url(#g);}.k{fill:url(#h);}.l{fill:url(#i);}.m{fill:url(#j);}.n{fill:url(#k);}.o{fill:url(#l);}.p{fill:url(#m);}.q{fill:url(#n);}.r{fill:url(#o);}.s{fill:url(#p);}.t{opacity:0.5;fill:url(#q);}.u{fill:#fff;}</style><linearGradient id="a" y1="112.87928" x2="186.51961" y2="112.87928" gradientUnits="userSpaceOnUse"><stop offset="0" stop-color="#004ac2"/><stop offset="1" stop-color="#0083c2"/></linearGradient><linearGradient id="b" x1="93.64826" y1="222.73681" x2="93.64826" gradientUnits="userSpaceOnUse"><stop offset="0" stop-color="#00eff1"/><stop offset="1" stop-color="#0098ff"/></linearGradient><radialGradient id="c" cx="93.94011" cy="111.8035" r="101.57628" gradientUnits="userSpaceOnUse"><stop offset="0" stop-color="#0025ae"/><stop offset="1" stop-color="#008cca"/></radialGradient><radialGradient id="d" cx="5263.51937" cy="-434.12264" r="1.90325" gradientTransform="translate(-4941.38652 1881.10714) rotate(-14.71815)" gradientUnits="userSpaceOnUse"><stop offset="0" stop-color="#00b359"/><stop offset="0.12707" stop-color="#009148"/><stop offset="0.342" stop-color="#005e2f"/><stop offset="0.54404" stop-color="#00351a"/><stop offset="0.72716" stop-color="#00180c"/><stop offset="0.88518" stop-color="#000603"/><stop offset="1"/></radialGradient><radialGradient id="e" cx="5271.52116" cy="-431.05476" r="1.90325" gradientTransform="matrix(0.96717, -0.25406, 0.25406, 0.96717, -4947.31944, 1872.00299)" xlink:href="#d"/><radialGradient id="f" cx="5248.21204" cy="-433.97436" r="1.90324" gradientTransform="matrix(-0.0596, -0.9982, 0.9982, -0.0596, 786.06358, 5352.1674)" xlink:href="#d"/><radialGradient id="g" cx="5272.89707" cy="-441.27001" r="5.32582" gradientTransform="matrix(-0.0596, -0.9982, 0.9982, -0.0596, 786.06358, 5352.1674)" xlink:href="#d"/><radialGradient id="h" cx="5227.87962" cy="-334.45746" r="5.3258" gradientTransform="matrix(-0.0596, -0.9982, 0.9982, -0.0596, 786.06358, 5352.1674)" xlink:href="#d"/><radialGradient id="i" cx="5231.56803" cy="-306.87153" r="2.54378" gradientTransform="matrix(-0.0596, -0.9982, 0.9982, -0.0596, 786.06358, 5352.1674)" xlink:href="#d"/><radialGradient id="j" cx="5234.19012" cy="-428.52726" r="2.54375" gradientTransform="matrix(-0.0596, -0.9982, 0.9982, -0.0596, 786.06358, 5352.1674)" xlink:href="#d"/><radialGradient id="k" cx="5240.59402" cy="-355.06547" r="1.27187" gradientTransform="matrix(-0.0596, -0.9982, 0.9982, -0.0596, 786.06358, 5352.1674)" xlink:href="#d"/><radialGradient id="l" cx="5230.10413" cy="-451.47262" r="1.27189" gradientTransform="matrix(-0.0596, -0.9982, 0.9982, -0.0596, 786.06358, 5352.1674)" xlink:href="#d"/><radialGradient id="m" cx="5249.76845" cy="-414.49719" r="1.2719" gradientTransform="matrix(-0.0596, -0.9982, 0.9982, -0.0596, 786.06358, 5352.1674)" xlink:href="#d"/><radialGradient id="n" cx="5231.21893" cy="-433.29906" r="0.94823" gradientTransform="matrix(-0.0596, -0.9982, 0.9982, -0.0596, 786.06358, 5352.1674)" xlink:href="#d"/><radialGradient id="o" cx="5223.71397" cy="-367.67379" r="1.98664" gradientTransform="matrix(-0.0596, -0.9982, 0.9982, -0.0596, 786.06358, 5352.1674)" xlink:href="#d"/><radialGradient id="p" cx="5224.78177" cy="-409.55556" r="1.98665" gradientTransform="matrix(-0.0596, -0.9982, 0.9982, -0.0596, 786.06358, 5352.1674)" xlink:href="#d"/><linearGradient id="q" x1="4.93167" y1="18.23092" x2="161.34267" y2="18.23092" gradientUnits="userSpaceOnUse"><stop offset="0" stop-color="#23786e"/><stop offset="0.18323" stop-color="#1e685f"/><stop offset="0.54168" stop-color="#123e39"/><stop offset="1"/></linearGradient></defs><g class="a"><g class="b"><path class="c" d="M2.26692,13.85315c-5.116,6.33176-.61377,196.89082,4.05623,204.77961,4.34456,7.339,165.744,7.6326,174.12638,0,8.3825-7.6327,7.79913-205.018,0-212.06353C172.65048-.47623,15.01153-1.91992,2.26692,13.85315Z"/><path class="d" d="M2.65538,12.34223c-5.116,6.33184-.61378,196.89082,4.05622,204.7796,4.34456,7.33913,165.744,7.6327,174.12638,0,8.38251-7.6326,7.79914-205.018,0-212.06343C173.03894-1.98715,15.4-3.43084,2.65538,12.34223Z"/><path class="e" d="M4.16547,13.98561C-.8657,20.21237,1.64846,204.63,8.15437,215.36685c4.3464,7.173,161.54233,9.77356,171.23671,0,10.8366-10.92524,7.66962-201.61556,0-208.54419C171.72137-.106,16.69854-1.52568,4.16547,13.98561Z"/><circle class="f" cx="39.01661" cy="123.99607" r="1.90323" transform="translate(-90.22121 137.95703) rotate(-78.69878)"/><path class="g" d="M39.13267,123.4612a.527.527,0,1,1-.49464.55747A.527.527,0,0,1,39.13267,123.4612Z"/><circle class="h" cx="41.60205" cy="115.82584" r="1.90323" transform="translate(-80.13061 133.9232) rotate(-78.69878)"/><path class="g" d="M41.71811,115.291a.527.527,0,1,1-.49464.55747A.527.527,0,0,1,41.71811,115.291Z"/><path class="i" d="M39.9634,137.36723a1.90318,1.90318,0,1,1-1.7863,2.01327A1.9032,1.9032,0,0,1,39.9634,137.36723Z"/><path class="g" d="M40.193,138.73219a.527.527,0,1,1-.49464.55747A.527.527,0,0,1,40.193,138.73219Z"/><path class="j" d="M31.00561,109.745a5.32568,5.32568,0,1,1-4.99866,5.63384A5.32571,5.32571,0,0,1,31.00561,109.745Z"/><path class="g" d="M31.64786,113.56455a1.47465,1.47465,0,1,1-1.38407,1.56A1.47467,1.47467,0,0,1,31.64786,113.56455Z"/><path class="k" d="M140.30888,148.31543a5.32568,5.32568,0,1,1-4.99857,5.63384A5.3257,5.3257,0,0,1,140.30888,148.31543Z"/><path class="g" d="M140.95113,152.13494a1.47465,1.47465,0,1,1-1.38407,1.56A1.47461,1.47461,0,0,1,140.95113,152.13494Z"/><path class="l" d="M167.79126,145.76654a2.54372,2.54372,0,1,1-2.3875,2.6909A2.54373,2.54373,0,0,1,167.79126,145.76654Z"/><path class="g" d="M168.098,147.59088a.70435.70435,0,1,1-.66108.74512A.70441.70441,0,0,1,168.098,147.59088Z"/><path class="m" d="M46.19824,150.39989a2.54368,2.54368,0,1,1-2.38749,2.69081A2.54359,2.54359,0,0,1,46.19824,150.39989Z"/><path class="g" d="M46.505,152.22414a.70435.70435,0,1,1-.66108.74512A.70438.70438,0,0,1,46.505,152.22414Z"/><path class="n" d="M119.222,140.89878a1.27184,1.27184,0,1,1-1.19374,1.3454A1.27175,1.27175,0,0,1,119.222,140.89878Z"/><path class="g" d="M119.37539,141.8109a.35216.35216,0,1,1-.33058.37256A.35224.35224,0,0,1,119.37539,141.8109Z"/><path class="o" d="M23.61357,157.1156a1.27189,1.27189,0,1,1-1.19374,1.34549A1.27183,1.27183,0,0,1,23.61357,157.1156Z"/><path class="g" d="M23.767,158.02781a.35216.35216,0,1,1-.33058.37257A.3523.3523,0,0,1,23.767,158.02781Z"/><path class="p" d="M59.35044,135.28294a1.27188,1.27188,0,1,1-1.19374,1.3455A1.2719,1.2719,0,0,1,59.35044,135.28294Z"/><path class="g" d="M59.50382,136.19516a.35215.35215,0,1,1-.33054.37247A.35206.35206,0,0,1,59.50382,136.19516Z"/><path class="q" d="M41.70727,155.24277a.94821.94821,0,1,1-.89,1.00305A.94821.94821,0,0,1,41.70727,155.24277Z"/><path class="g" d="M41.82163,155.92277a.26258.26258,0,1,1-.24645.27777A.26255.26255,0,0,1,41.82163,155.92277Z"/><path class="r" d="M107.59976,157.78642a1.98659,1.98659,0,1,1-1.86457,2.10155A1.98656,1.98656,0,0,1,107.59976,157.78642Z"/><path class="g" d="M107.83932,159.21118a.55009.55009,0,1,1-.51623.5819A.55.55,0,0,1,107.83932,159.21118Z"/><path class="s" d="M65.72975,159.21669a1.98659,1.98659,0,1,1-1.86461,2.10155A1.98662,1.98662,0,0,1,65.72975,159.21669Z"/><path class="g" d="M65.96931,160.64146a.55008.55008,0,1,1-.51632.5819A.55008.55008,0,0,1,65.96931,160.64146Z"/><path class="t" d="M6.62012,14.96791S-3.60941,29.19919,26.28968,32.971c29.899,3.77175,60.73749-17.50289,86.84361-21.854a458.14394,458.14394,0,0,1,48.20938-5.38252S38.99176-4.50279,6.62012,14.96791Z"/><path class="u" d="M5.92395,19.74336a5.76,5.76,0,0,1,1.8642-5.44057c2.66094-2.48955,17.13555-7.383,18.4263-6.15457C27.50511,9.37669,11.84143,20.53781,5.92395,19.74336Z"/><path class="u" d="M7.03319,22.60363c-1.2699-.77672-3.55,2.77173-.85572,4.17215S8.59151,23.55681,7.03319,22.60363Z"/><path class="u" d="M175.84612,218.226c-1.37433-.56775,5.5486-7.59264,6.20747-7.0777.659.515-.232,4.64116-1.27632,5.56935C179.73306,217.64587,176.77128,218.60814,175.84612,218.226Z"/></g></g></svg>