<svg xmlns="http://www.w3.org/2000/svg" width="233" height="52" viewBox="0 0 233 52"><defs><linearGradient id="22iaa" x1="-12.66" x2="76.97" y1="29.49" y2="37.08" gradientUnits="userSpaceOnUse"><stop offset="0" stop-color="#53ffff"/><stop offset=".04" stop-color="#53ffff"/><stop offset=".11" stop-color="#53ffff"/><stop offset=".2" stop-color="#3eb0ff"/><stop offset=".28" stop-color="#2e6fff"/><stop offset=".34" stop-color="#2346ff"/><stop offset=".37" stop-color="#1f37ff"/><stop offset=".57" stop-color="#1f37ff"/><stop offset=".76" stop-color="#41b9ff"/><stop offset=".87" stop-color="#53ffff"/><stop offset="1" stop-color="#53ffff"/></linearGradient><linearGradient id="22iab" x1="89.18" x2="34.43" y1="24.01" y2="40.01" gradientUnits="userSpaceOnUse"><stop offset="0" stop-color="#53ffff"/><stop offset=".07" stop-color="#53ffff"/><stop offset=".18" stop-color="#53ffff"/><stop offset=".24" stop-color="#1f37ff"/><stop offset=".34" stop-color="#1f37ff"/><stop offset=".4" stop-color="#2a5fff"/><stop offset=".51" stop-color="#3ba3ff"/><stop offset=".61" stop-color="#48d5ff"/><stop offset=".68" stop-color="#50f4ff"/><stop offset=".72" stop-color="#53ffff"/><stop offset="1" stop-color="#53ffff"/></linearGradient><linearGradient id="22iac" x1="24.27" x2="-59.93" y1="35.83" y2="9.95" gradientUnits="userSpaceOnUse"><stop offset="0" stop-color="#53ffff"/><stop offset=".16" stop-color="#53ffff"/><stop offset=".51" stop-color="#1f37ff"/><stop offset=".6" stop-color="#1f37ff"/><stop offset=".88" stop-color="#53ffff"/><stop offset="1" stop-color="#53ffff"/></linearGradient></defs><g><g><path fill="url(#22iaa)" d="M11.526.47C5.639 1.289.199 9.305.199 25.501c0 20.161 7.4 24.079 7.4 24.079s-4.73-2.983-4.73-12.565c0-9.43 6.377-8.958 6.377-8.958 5.055 0 10.026 3.439 18.186 11.448.482.473 4.309 4.214 5.278 5.057 6.785 5.906 10.987 7.37 15.327 6.757 5.891-.817 11.331-8.835 11.331-25.032 0-20.15-7.399-24.069-7.399-24.069s4.726 2.987 4.726 12.569c0 9.421-6.375 8.956-6.375 8.956-5.12 0-10.157-3.54-18.513-11.773-.377-.37-.757-.749-1.147-1.134-.23-.236-3.097-2.979-3.56-3.384C21.098 2.177 17.104.345 13.285.345c-.588 0-1.172.044-1.759.125z"/></g><g><path fill="url(#22iab)" d="M29.684 9.889l.976.947c.39.385.77.764 1.147 1.134C40.171 20.211 45.2 23.743 50.32 23.743c0 0 6.375.465 6.375-8.956 0-7.317-2.767-10.789-4.055-12.021a10.024 10.024 0 0 0-.668-.548S49.276.237 46.145.237 37.82 2.229 29.684 9.889z"/></g><g><path fill="url(#22iac)" d="M2.869 37.015c0 9.582 4.73 12.565 4.73 12.565a2.448 2.448 0 0 1-.298-.193l.144.11s2.696 1.981 5.827 1.981c3.129 0 8.341-1.997 16.503-9.693-1.097-1.058-2.11-2.053-2.343-2.28-8.16-8.009-13.131-11.448-18.186-11.448 0 0-.052-.004-.147-.004-.954 0-6.23.387-6.23 8.962z"/></g><g><path fill="#fff" d="M74.077 11.646h3.45v1.673c0 .33-.02.662-.059.99h.058a5.599 5.599 0 0 1 5.125-3.004c3.217 0 5.012 1.67 5.012 5.495v9.288h-3.56v-8.551c0-1.757-.455-2.947-2.295-2.947-1.93 0-3.343 1.219-3.88 2.947a6.03 6.03 0 0 0-.254 1.93v6.605h-3.597z"/></g><g><path fill="#fff" d="M104.438 18.158c0 .424-.083 1.393-.083 1.393h-9.974c.228 2.522 2.181 3.825 4.334 3.825 2.323 0 4.163-1.586 4.163-1.586l1.393 2.574a9.032 9.032 0 0 1-5.807 2.068c-4.79 0-7.763-3.46-7.763-7.564-.004-4.449 3.027-7.564 7.332-7.564 4.153 0 6.405 3.031 6.405 6.854zm-3.632-1.062c-.055-1.953-1.287-3.002-2.86-3.002-1.84 0-3.114 1.132-3.452 3.002z"/></g><g><path fill="#fff" d="M148.744 18.158c0 .424-.087 1.393-.087 1.393h-9.974c.229 2.522 2.182 3.825 4.334 3.825 2.323 0 4.163-1.586 4.163-1.586l1.393 2.574a9.03 9.03 0 0 1-5.807 2.068c-4.784-.003-7.763-3.458-7.763-7.56 0-4.453 3.037-7.568 7.342-7.568 4.163 0 6.399 3.031 6.399 6.854zm-3.626-1.062c-.058-1.953-1.287-3.002-2.863-3.002-1.841 0-3.115 1.132-3.456 3.002z"/></g><g><path fill="#fff" d="M159.36 11.305c3.767 0 5.55 2.152 5.55 2.152l-1.595 2.465a5.66 5.66 0 0 0-3.767-1.557c-2.661 0-4.39 2.01-4.39 4.475s1.758 4.53 4.505 4.53c2.438 0 4.246-1.844 4.246-1.844l1.393 2.552s-2.065 2.352-5.945 2.352c-4.788 0-7.84-3.372-7.84-7.564 0-4.105 3.06-7.561 7.843-7.561z"/></g><g><path fill="#fff" d="M168.845 5.983h3.597v6.965c.003.408-.016.815-.055 1.22h.055a5.554 5.554 0 0 1 4.987-2.86c3.197 0 5.009 1.673 5.009 5.495v9.288h-3.568v-8.555c0-1.756-.451-2.947-2.294-2.947a4.064 4.064 0 0 0-3.906 3.002 6.442 6.442 0 0 0-.228 1.87v6.62h-3.597z"/></g><g><path fill="#fff" d="M206.805 21.864h-6.277l-1.212 4.221h-5.061l6.837-20.118h5.176l6.836 20.118h-5.07zm-3.153-11.312s-.45 2.194-.816 3.461l-1.153 3.92h3.968l-1.126-3.913c-.367-1.268-.817-3.462-.817-3.462z"/></g><g><path fill="#fff" d="M113.096 21.15c-.117.263-.25.519-.399.766l-2.519 4.182h-3.993l4.755-7.306-4.642-7.143h4.076l2.252 3.935c.225.37.483.907.483.907h.055s.254-.537.482-.907l2.236-3.935h4.08l-4.646 7.143 4.758 7.306h-4.009l-2.519-4.198a6.872 6.872 0 0 1-.395-.75z"/></g><g><path fill="#fff" d="M216.167 5.967h7.007c2.053 0 3.041.142 3.912.48 2.278.865 3.713 2.924 3.713 5.849 0 2.139-1.013 4.475-3.01 5.489v.054c.277.389.53.794.759 1.213l3.911 7.033h-5.469l-3.59-6.782h-2.307v6.782h-4.926zm7.078 9.115c1.573 0 2.574-.866 2.574-2.474 0-1.522-.562-2.423-3.036-2.423h-1.66v4.897z"/></g><g><path fill="#fff" d="M131.007 23.041c-.991 0-2.857-.348-2.857-2.715v-5.61h3.282v-2.842h-3.275V8.737a1.099 1.099 0 0 1-.872.161 2.953 2.953 0 0 1-.782-.322l-.2-.109-.173-.1a6.55 6.55 0 0 0-.78-.373 1.33 1.33 0 0 0-.703-.11v3.99h-1.953v2.841h1.866v6.064c0 4.826 3.983 5.428 5.99 5.428.37.006.739-.022 1.104-.084v-3.137a3.12 3.12 0 0 1-.647.055z"/></g><g><path fill="#fff" d="M75.088 35.508a2.95 2.95 0 0 1 1.573-.43c.461-.007.917.103 1.325.321.358.184.67.447.914.77v-.967h1.73v6.783h-1.723v-.992a2.582 2.582 0 0 1-.915.788 2.75 2.75 0 0 1-1.338.322 2.899 2.899 0 0 1-1.56-.44 3.095 3.095 0 0 1-1.116-1.242 3.99 3.99 0 0 1-.425-1.866 3.926 3.926 0 0 1 .419-1.824c.25-.504.637-.928 1.116-1.223zm2.905 1.316a1.747 1.747 0 0 0-2.394.61l-.036.062c-.173.325-.26.69-.25 1.06-.009.371.077.74.25 1.07.153.29.38.534.66.705.264.16.567.245.876.244.313.001.621-.08.893-.238.282-.162.51-.4.664-.685a2.47 2.47 0 0 0 0-2.143 1.7 1.7 0 0 0-.664-.685z"/></g><g><path fill="#fff" d="M97.612 35.856c.535.578.812 1.35.766 2.136v3.98h-1.715v-3.748c.03-.443-.116-.88-.405-1.217a1.44 1.44 0 0 0-1.101-.421 1.46 1.46 0 0 0-1.106.42 1.674 1.674 0 0 0-.412 1.218v3.748h-1.715v-3.748a1.688 1.688 0 0 0-.402-1.217 1.456 1.456 0 0 0-1.104-.421 1.483 1.483 0 0 0-1.12.42 1.681 1.681 0 0 0-.408 1.218v3.748h-1.715V35.19h1.715v.82c.224-.291.515-.523.849-.675a2.7 2.7 0 0 1 1.146-.245c.492-.014.98.097 1.419.322.41.219.746.555.965.965.226-.4.56-.726.965-.943a2.931 2.931 0 0 1 3.378.409z"/></g><g><path fill="#fff" d="M102.283 39.096c.014.434.198.847.511 1.148.304.28.704.43 1.117.419a1.402 1.402 0 0 0 1.357-.821h1.85a3.085 3.085 0 0 1-1.129 1.609 3.273 3.273 0 0 1-2.043.643 3.542 3.542 0 0 1-1.756-.434 3.065 3.065 0 0 1-1.213-1.23 3.779 3.779 0 0 1-.435-1.836 3.873 3.873 0 0 1 .428-1.85c.272-.516.69-.941 1.2-1.223a3.834 3.834 0 0 1 3.507 0c.503.27.917.68 1.19 1.18.288.54.433 1.146.422 1.758 0 .213-.016.426-.048.637zm3.23-1.152a1.367 1.367 0 0 0-.476-1.06 1.697 1.697 0 0 0-1.139-.398 1.554 1.554 0 0 0-1.07.387 1.704 1.704 0 0 0-.535 1.07z"/></g><g><path fill="#fff" d="M111.517 36.593v3.28a.645.645 0 0 0 .167.497.8.8 0 0 0 .557.154h.795v1.445h-1.078c-1.446 0-2.168-.703-2.165-2.107v-3.27h-.808v-1.405h.808v-1.68h1.724v1.68h1.519v1.406z"/></g><g><path fill="#fff" d="M116.33 35.508a2.967 2.967 0 0 1 1.573-.43c.462-.008.918.103 1.326.321.358.184.67.447.914.77v-.967h1.727v6.783h-1.727v-.992a2.57 2.57 0 0 1-.914.788c-.412.22-.873.33-1.34.322a2.898 2.898 0 0 1-1.56-.44 3.088 3.088 0 0 1-1.115-1.242 3.99 3.99 0 0 1-.41-1.844 3.922 3.922 0 0 1 .41-1.846c.25-.504.637-.928 1.116-1.223zm2.905 1.316a1.747 1.747 0 0 0-2.394.61l-.035.062c-.174.325-.26.69-.251 1.06-.008.371.078.74.25 1.07.155.29.384.534.664.705.263.161.566.246.875.244.313.001.62-.08.89-.238.282-.162.51-.4.664-.685a2.47 2.47 0 0 0 0-2.143 1.7 1.7 0 0 0-.663-.685z"/></g><g><path fill="#fff" d="M127.352 40.392l1.715-5.202h1.824l-2.51 6.782h-2.065l-2.496-6.782h1.833z"/></g><g><path fill="#fff" d="M134.134 39.096c.016.435.201.847.514 1.148.303.28.702.43 1.114.419a1.403 1.403 0 0 0 1.36-.821h1.847a3.084 3.084 0 0 1-1.126 1.609 3.275 3.275 0 0 1-2.043.643 3.542 3.542 0 0 1-1.756-.434 3.065 3.065 0 0 1-1.213-1.23 3.779 3.779 0 0 1-.435-1.836 3.848 3.848 0 0 1 .428-1.85 2.988 2.988 0 0 1 1.2-1.223 3.834 3.834 0 0 1 3.507 0c.503.269.915.68 1.187 1.18.29.54.434 1.146.422 1.758 0 .213-.016.426-.049.637zm3.233-1.152a1.36 1.36 0 0 0-.479-1.06 1.687 1.687 0 0 0-1.139-.398 1.547 1.547 0 0 0-1.068.387c-.304.279-.494.66-.534 1.07z"/></g><g><path fill="#fff" d="M143.946 35.395a2.405 2.405 0 0 1 1.22-.32v1.8h-.454a1.738 1.738 0 0 0-1.22.38c-.273.251-.408.691-.408 1.322v3.378h-1.715V35.19h1.715v1.052c.211-.35.508-.64.862-.846z"/></g><g><path fill="#fff" d="M148.396 41.782a2.642 2.642 0 0 1-1.046-.814 2.084 2.084 0 0 1-.424-1.14h1.727a.95.95 0 0 0 .386.645c.243.176.538.265.837.254.269.015.536-.052.766-.193a.598.598 0 0 0 .276-.502.534.534 0 0 0-.337-.5 6.524 6.524 0 0 0-1.072-.36 8.895 8.895 0 0 1-1.242-.38 2.14 2.14 0 0 1-.833-.597 1.607 1.607 0 0 1-.347-1.091 1.739 1.739 0 0 1 .321-1.026c.235-.328.557-.583.93-.737a3.486 3.486 0 0 1 1.425-.27 2.9 2.9 0 0 1 1.931.608c.484.409.773 1.002.798 1.634h-1.641a.9.9 0 0 0-.322-.643 1.262 1.262 0 0 0-.801-.238c-.251-.014-.5.045-.717.17a.549.549 0 0 0-.251.48.556.556 0 0 0 .344.518c.341.158.698.279 1.065.36.412.1.817.227 1.213.38.32.134.603.342.827.608.243.308.37.69.36 1.084.004.375-.108.743-.322 1.052a2.132 2.132 0 0 1-.93.727 3.5 3.5 0 0 1-1.415.264 3.576 3.576 0 0 1-1.506-.293z"/></g><g><path fill="#fff" d="M156.236 39.096c.017.435.201.847.515 1.148.302.28.702.43 1.113.419a1.399 1.399 0 0 0 1.358-.821h1.85a3.108 3.108 0 0 1-1.126 1.609 3.281 3.281 0 0 1-2.043.643 3.554 3.554 0 0 1-1.76-.434 3.064 3.064 0 0 1-1.21-1.23 3.778 3.778 0 0 1-.434-1.836 3.836 3.836 0 0 1 .428-1.85 2.988 2.988 0 0 1 1.2-1.223 3.834 3.834 0 0 1 3.507 0c.502.27.914.68 1.187 1.18.29.54.434 1.146.421 1.758.003.213-.01.426-.042.637zm3.24-1.152a1.36 1.36 0 0 0-.479-1.06 1.687 1.687 0 0 0-1.139-.398 1.558 1.558 0 0 0-1.072.387c-.3.28-.49.66-.53 1.07z"/></g><g><path fill="#fff" d="M167.358 36.737a3.063 3.063 0 0 1 1.187-1.223 3.44 3.44 0 0 1 1.739-.437 3.355 3.355 0 0 1 2.088.643 3.088 3.088 0 0 1 1.108 1.77h-1.848a1.357 1.357 0 0 0-.496-.692 1.444 1.444 0 0 0-.862-.25 1.411 1.411 0 0 0-1.165.533 2.865 2.865 0 0 0 0 3.011c.282.353.714.55 1.165.531a1.288 1.288 0 0 0 1.358-.929h1.849a3.12 3.12 0 0 1-1.116 1.75c-.6.446-1.335.673-2.082.643a3.429 3.429 0 0 1-1.737-.434 3.064 3.064 0 0 1-1.187-1.226 4.182 4.182 0 0 1 0-3.684z"/></g><g><path fill="#fff" d="M175.74 40.418a3.669 3.669 0 0 1-.447-1.837 3.618 3.618 0 0 1 .456-1.837c.295-.52.73-.946 1.255-1.23a3.822 3.822 0 0 1 3.539 0c.526.284.96.71 1.255 1.23a3.61 3.61 0 0 1 .46 1.837 3.542 3.542 0 0 1-.473 1.837c-.308.52-.753.945-1.287 1.229a3.692 3.692 0 0 1-1.792.434 3.562 3.562 0 0 1-1.737-.434 3.13 3.13 0 0 1-1.23-1.23zm4.51-.737c.17-.341.255-.72.245-1.1a2.054 2.054 0 0 0-.508-1.49 1.685 1.685 0 0 0-1.242-.518 1.642 1.642 0 0 0-1.232.518 2.07 2.07 0 0 0-.496 1.49 2.11 2.11 0 0 0 .483 1.487c.312.34.757.53 1.219.52.31.003.617-.076.888-.228.276-.16.5-.395.643-.68z"/></g><g><path fill="#fff" d="M194.946 35.856c.535.578.812 1.35.766 2.136v3.98h-1.715v-3.748c.03-.443-.116-.88-.405-1.217a1.448 1.448 0 0 0-1.1-.421 1.47 1.47 0 0 0-1.11.42 1.676 1.676 0 0 0-.409 1.218v3.748h-1.715v-3.748a1.707 1.707 0 0 0-.402-1.217 1.452 1.452 0 0 0-1.09-.414 1.486 1.486 0 0 0-1.12.42 1.674 1.674 0 0 0-.409 1.217v3.748h-1.715V35.19h1.715v.82c.224-.291.515-.523.85-.675a2.682 2.682 0 0 1 1.145-.245c.492-.014.98.097 1.418.322.411.219.747.555.966.965.226-.4.561-.726.965-.943a2.937 2.937 0 0 1 3.381.409z"/></g><g><path fill="#fff" d="M202.285 35.07a2.967 2.967 0 0 1 1.573.432c.477.294.862.715 1.113 1.215.284.57.425 1.197.412 1.832a3.996 3.996 0 0 1-.412 1.844 3.071 3.071 0 0 1-1.113 1.24 2.912 2.912 0 0 1-1.573.442 2.752 2.752 0 0 1-2.252-1.078v4.183h-1.715v-9.99h1.715v.965c.243-.323.56-.584.923-.762a2.76 2.76 0 0 1 1.33-.322zm1.097 2.426a1.745 1.745 0 0 0-1.55-.91 1.696 1.696 0 0 0-.876.238 1.748 1.748 0 0 0-.659.692 2.38 2.38 0 0 0 0 2.13c.152.286.38.525.66.691a1.727 1.727 0 0 0 1.762-.007c.28-.17.507-.41.663-.698.173-.332.26-.703.251-1.077a2.164 2.164 0 0 0-.264-1.059z"/></g><g><path fill="#fff" d="M208.68 35.508a2.967 2.967 0 0 1 1.574-.43c.463-.007.92.103 1.329.321.357.184.669.447.91.77v-.967h1.728v6.783h-1.727v-.992a2.572 2.572 0 0 1-.911.788 2.773 2.773 0 0 1-1.342.322 2.898 2.898 0 0 1-1.56-.44 3.088 3.088 0 0 1-1.113-1.242 3.993 3.993 0 0 1-.412-1.844 3.922 3.922 0 0 1 .412-1.846 2.998 2.998 0 0 1 1.113-1.223zm3.569 2.001a1.713 1.713 0 0 0-.66-.685 1.79 1.79 0 0 0-1.775 0 1.73 1.73 0 0 0-.644.68c-.174.324-.26.69-.251 1.057a2.21 2.21 0 0 0 .25 1.072c.154.29.383.533.664.704.263.161.566.246.875.245a1.753 1.753 0 0 0 1.554-.924 2.468 2.468 0 0 0 0-2.142z"/></g><g><path fill="#fff" d="M222.592 35.856c.526.583.796 1.353.75 2.136v3.98h-1.715v-3.748a1.752 1.752 0 0 0-.405-1.242 1.431 1.431 0 0 0-1.1-.435 1.468 1.468 0 0 0-1.12.435c-.294.345-.44.79-.412 1.242v3.748h-1.715V35.19h1.715v.843c.233-.297.533-.534.875-.692.367-.17.767-.256 1.171-.251.73-.03 1.44.248 1.956.766z"/></g><g><path fill="#fff" d="M232.437 35.19l-4.199 9.989h-1.824l1.467-3.381-2.718-6.608h1.93l1.75 4.736 1.776-4.736z"/></g><g><path fill="#fff" d="M75.088 35.508a2.95 2.95 0 0 1 1.573-.43c.461-.007.917.103 1.325.321.358.184.67.447.914.77v-.967h1.73v6.783h-1.723v-.992a2.582 2.582 0 0 1-.915.788 2.75 2.75 0 0 1-1.338.322 2.899 2.899 0 0 1-1.56-.44 3.095 3.095 0 0 1-1.116-1.242 3.99 3.99 0 0 1-.425-1.866 3.926 3.926 0 0 1 .419-1.824c.25-.504.637-.928 1.116-1.223zm2.905 1.316a1.747 1.747 0 0 0-2.394.61l-.036.062c-.173.325-.26.69-.25 1.06-.009.371.077.74.25 1.07.153.29.38.534.66.705.264.16.567.245.876.244.313.001.621-.08.893-.238.282-.162.51-.4.664-.685a2.47 2.47 0 0 0 0-2.143 1.7 1.7 0 0 0-.664-.685z"/></g><g><path fill="#fff" d="M97.612 35.856c.535.578.812 1.35.766 2.136v3.98h-1.715v-3.748c.03-.443-.116-.88-.405-1.217a1.44 1.44 0 0 0-1.101-.421 1.46 1.46 0 0 0-1.106.42 1.674 1.674 0 0 0-.412 1.218v3.748h-1.715v-3.748a1.688 1.688 0 0 0-.402-1.217 1.456 1.456 0 0 0-1.104-.421 1.483 1.483 0 0 0-1.12.42 1.681 1.681 0 0 0-.408 1.218v3.748h-1.715V35.19h1.715v.82c.224-.291.515-.523.849-.675a2.7 2.7 0 0 1 1.146-.245c.492-.014.98.097 1.419.322.41.219.746.555.965.965.226-.4.56-.726.965-.943a2.931 2.931 0 0 1 3.378.409z"/></g><g><path fill="#fff" d="M102.283 39.096c.014.434.198.847.511 1.148.304.28.704.43 1.117.419a1.402 1.402 0 0 0 1.357-.821h1.85a3.085 3.085 0 0 1-1.129 1.609 3.273 3.273 0 0 1-2.043.643 3.542 3.542 0 0 1-1.756-.434 3.065 3.065 0 0 1-1.213-1.23 3.779 3.779 0 0 1-.435-1.836 3.873 3.873 0 0 1 .428-1.85c.272-.516.69-.941 1.2-1.223a3.834 3.834 0 0 1 3.507 0c.503.27.917.68 1.19 1.18.288.54.433 1.146.422 1.758 0 .213-.016.426-.048.637zm3.23-1.152a1.367 1.367 0 0 0-.476-1.06 1.697 1.697 0 0 0-1.139-.398 1.554 1.554 0 0 0-1.07.387 1.704 1.704 0 0 0-.535 1.07z"/></g><g><path fill="#fff" d="M111.517 36.593v3.28a.645.645 0 0 0 .167.497.8.8 0 0 0 .557.154h.795v1.445h-1.078c-1.446 0-2.168-.703-2.165-2.107v-3.27h-.808v-1.405h.808v-1.68h1.724v1.68h1.519v1.406z"/></g><g><path fill="#fff" d="M116.33 35.508a2.967 2.967 0 0 1 1.573-.43c.462-.008.918.103 1.326.321.358.184.67.447.914.77v-.967h1.727v6.783h-1.727v-.992a2.57 2.57 0 0 1-.914.788c-.412.22-.873.33-1.34.322a2.898 2.898 0 0 1-1.56-.44 3.088 3.088 0 0 1-1.115-1.242 3.99 3.99 0 0 1-.41-1.844 3.922 3.922 0 0 1 .41-1.846c.25-.504.637-.928 1.116-1.223zm2.905 1.316a1.747 1.747 0 0 0-2.394.61l-.035.062c-.174.325-.26.69-.251 1.06-.008.371.078.74.25 1.07.155.29.384.534.664.705.263.161.566.246.875.244.313.001.62-.08.89-.238.282-.162.51-.4.664-.685a2.47 2.47 0 0 0 0-2.143 1.7 1.7 0 0 0-.663-.685z"/></g><g><path fill="#fff" d="M127.352 40.392l1.715-5.202h1.824l-2.51 6.782h-2.065l-2.496-6.782h1.833z"/></g><g><path fill="#fff" d="M134.134 39.096c.016.435.201.847.514 1.148.303.28.702.43 1.114.419a1.403 1.403 0 0 0 1.36-.821h1.847a3.084 3.084 0 0 1-1.126 1.609 3.275 3.275 0 0 1-2.043.643 3.542 3.542 0 0 1-1.756-.434 3.065 3.065 0 0 1-1.213-1.23 3.779 3.779 0 0 1-.435-1.836 3.848 3.848 0 0 1 .428-1.85 2.988 2.988 0 0 1 1.2-1.223 3.834 3.834 0 0 1 3.507 0c.503.269.915.68 1.187 1.18.29.54.434 1.146.422 1.758 0 .213-.016.426-.049.637zm3.233-1.152a1.36 1.36 0 0 0-.479-1.06 1.687 1.687 0 0 0-1.139-.398 1.547 1.547 0 0 0-1.068.387c-.304.279-.494.66-.534 1.07z"/></g><g><path fill="#fff" d="M143.946 35.395a2.405 2.405 0 0 1 1.22-.32v1.8h-.454a1.738 1.738 0 0 0-1.22.38c-.273.251-.408.691-.408 1.322v3.378h-1.715V35.19h1.715v1.052c.211-.35.508-.64.862-.846z"/></g><g><path fill="#fff" d="M148.396 41.782a2.642 2.642 0 0 1-1.046-.814 2.084 2.084 0 0 1-.424-1.14h1.727a.95.95 0 0 0 .386.645c.243.176.538.265.837.254.269.015.536-.052.766-.193a.598.598 0 0 0 .276-.502.534.534 0 0 0-.337-.5 6.524 6.524 0 0 0-1.072-.36 8.895 8.895 0 0 1-1.242-.38 2.14 2.14 0 0 1-.833-.597 1.607 1.607 0 0 1-.347-1.091 1.739 1.739 0 0 1 .321-1.026c.235-.328.557-.583.93-.737a3.486 3.486 0 0 1 1.425-.27 2.9 2.9 0 0 1 1.931.608c.484.409.773 1.002.798 1.634h-1.641a.9.9 0 0 0-.322-.643 1.262 1.262 0 0 0-.801-.238c-.251-.014-.5.045-.717.17a.549.549 0 0 0-.251.48.556.556 0 0 0 .344.518c.341.158.698.279 1.065.36.412.1.817.227 1.213.38.32.134.603.342.827.608.243.308.37.69.36 1.084.004.375-.108.743-.322 1.052a2.132 2.132 0 0 1-.93.727 3.5 3.5 0 0 1-1.415.264 3.576 3.576 0 0 1-1.506-.293z"/></g><g><path fill="#fff" d="M156.236 39.096c.017.435.201.847.515 1.148.302.28.702.43 1.113.419a1.399 1.399 0 0 0 1.358-.821h1.85a3.108 3.108 0 0 1-1.126 1.609 3.281 3.281 0 0 1-2.043.643 3.554 3.554 0 0 1-1.76-.434 3.064 3.064 0 0 1-1.21-1.23 3.778 3.778 0 0 1-.434-1.836 3.836 3.836 0 0 1 .428-1.85 2.988 2.988 0 0 1 1.2-1.223 3.834 3.834 0 0 1 3.507 0c.502.27.914.68 1.187 1.18.29.54.434 1.146.421 1.758.003.213-.01.426-.042.637zm3.24-1.152a1.36 1.36 0 0 0-.479-1.06 1.687 1.687 0 0 0-1.139-.398 1.558 1.558 0 0 0-1.072.387c-.3.28-.49.66-.53 1.07z"/></g><g><path fill="#fff" d="M167.358 36.737a3.063 3.063 0 0 1 1.187-1.223 3.44 3.44 0 0 1 1.739-.437 3.355 3.355 0 0 1 2.088.643 3.088 3.088 0 0 1 1.108 1.77h-1.848a1.357 1.357 0 0 0-.496-.692 1.444 1.444 0 0 0-.862-.25 1.411 1.411 0 0 0-1.165.533 2.865 2.865 0 0 0 0 3.011c.282.353.714.55 1.165.531a1.288 1.288 0 0 0 1.358-.929h1.849a3.12 3.12 0 0 1-1.116 1.75c-.6.446-1.335.673-2.082.643a3.429 3.429 0 0 1-1.737-.434 3.064 3.064 0 0 1-1.187-1.226 4.182 4.182 0 0 1 0-3.684z"/></g><g><path fill="#fff" d="M175.74 40.418a3.669 3.669 0 0 1-.447-1.837 3.618 3.618 0 0 1 .456-1.837c.295-.52.73-.946 1.255-1.23a3.822 3.822 0 0 1 3.539 0c.526.284.96.71 1.255 1.23a3.61 3.61 0 0 1 .46 1.837 3.542 3.542 0 0 1-.473 1.837c-.308.52-.753.945-1.287 1.229a3.692 3.692 0 0 1-1.792.434 3.562 3.562 0 0 1-1.737-.434 3.13 3.13 0 0 1-1.23-1.23zm4.51-.737c.17-.341.255-.72.245-1.1a2.054 2.054 0 0 0-.508-1.49 1.685 1.685 0 0 0-1.242-.518 1.642 1.642 0 0 0-1.232.518 2.07 2.07 0 0 0-.496 1.49 2.11 2.11 0 0 0 .483 1.487c.312.34.757.53 1.219.52.31.003.617-.076.888-.228.276-.16.5-.395.643-.68z"/></g><g><path fill="#fff" d="M194.946 35.856c.535.578.812 1.35.766 2.136v3.98h-1.715v-3.748c.03-.443-.116-.88-.405-1.217a1.448 1.448 0 0 0-1.1-.421 1.47 1.47 0 0 0-1.11.42 1.676 1.676 0 0 0-.409 1.218v3.748h-1.715v-3.748a1.707 1.707 0 0 0-.402-1.217 1.452 1.452 0 0 0-1.09-.414 1.486 1.486 0 0 0-1.12.42 1.674 1.674 0 0 0-.409 1.217v3.748h-1.715V35.19h1.715v.82c.224-.291.515-.523.85-.675a2.682 2.682 0 0 1 1.145-.245c.492-.014.98.097 1.418.322.411.219.747.555.966.965.226-.4.561-.726.965-.943a2.937 2.937 0 0 1 3.381.409z"/></g><g><path fill="#fff" d="M202.285 35.07a2.967 2.967 0 0 1 1.573.432c.477.294.862.715 1.113 1.215.284.57.425 1.197.412 1.832a3.996 3.996 0 0 1-.412 1.844 3.071 3.071 0 0 1-1.113 1.24 2.912 2.912 0 0 1-1.573.442 2.752 2.752 0 0 1-2.252-1.078v4.183h-1.715v-9.99h1.715v.965c.243-.323.56-.584.923-.762a2.76 2.76 0 0 1 1.33-.322zm1.097 2.426a1.745 1.745 0 0 0-1.55-.91 1.696 1.696 0 0 0-.876.238 1.748 1.748 0 0 0-.659.692 2.38 2.38 0 0 0 0 2.13c.152.286.38.525.66.691a1.727 1.727 0 0 0 1.762-.007c.28-.17.507-.41.663-.698.173-.332.26-.703.251-1.077a2.164 2.164 0 0 0-.264-1.059z"/></g><g><path fill="#fff" d="M208.68 35.508a2.967 2.967 0 0 1 1.574-.43c.463-.007.92.103 1.329.321.357.184.669.447.91.77v-.967h1.728v6.783h-1.727v-.992a2.572 2.572 0 0 1-.911.788 2.773 2.773 0 0 1-1.342.322 2.898 2.898 0 0 1-1.56-.44 3.088 3.088 0 0 1-1.113-1.242 3.993 3.993 0 0 1-.412-1.844 3.922 3.922 0 0 1 .412-1.846 2.998 2.998 0 0 1 1.113-1.223zm3.569 2.001a1.713 1.713 0 0 0-.66-.685 1.79 1.79 0 0 0-1.775 0 1.73 1.73 0 0 0-.644.68c-.174.324-.26.69-.251 1.057a2.21 2.21 0 0 0 .25 1.072c.154.29.383.533.664.704.263.161.566.246.875.245a1.753 1.753 0 0 0 1.554-.924 2.468 2.468 0 0 0 0-2.142z"/></g><g><path fill="#fff" d="M222.592 35.856c.526.583.796 1.353.75 2.136v3.98h-1.715v-3.748a1.752 1.752 0 0 0-.405-1.242 1.431 1.431 0 0 0-1.1-.435 1.468 1.468 0 0 0-1.12.435c-.294.345-.44.79-.412 1.242v3.748h-1.715V35.19h1.715v.843c.233-.297.533-.534.875-.692.367-.17.767-.256 1.171-.251.73-.03 1.44.248 1.956.766z"/></g><g><path fill="#fff" d="M232.437 35.19l-4.199 9.989h-1.824l1.467-3.381-2.718-6.608h1.93l1.75 4.736 1.776-4.736z"/></g></g></svg>