<svg id="Logos" xmlns="http://www.w3.org/2000/svg" xmlns:xlink="http://www.w3.org/1999/xlink" viewBox="0 0 113 113"><defs><linearGradient id="Degradado_Olympia_new" x1="21.71358" y1="101.02459" x2="91.28642" y2="11.97541" gradientUnits="userSpaceOnUse"><stop offset="0" stop-color="#8d0b93"/><stop offset="0.35322" stop-color="#ba098a"/><stop offset="0.78597" stop-color="#ec0680"/><stop offset="1" stop-color="#ff057c"/></linearGradient></defs><circle cx="56.5" cy="56.5" r="56.5" fill="url(#Degradado_Olympia_new)"/><path id="logo_olympia" data-name="logo olympia" d="M81.75179,47.12747c9.9767.145,19.20586,9.24769,20.11624,19.16035.94969,10.34064-3.70353,18.27593-10.75177,25.11121a49.3518,49.3518,0,0,1-54.10542,9.83938c-.97958-.42621-1.88061-1.03129-3.79893-2.09892,2.32974-.57095,3.65941-1.02089,5.0256-1.2115,8.84558-1.23407,15.413-5.86479,20.44269-13.07535a8.41788,8.41788,0,0,1,4.282-3.01126C77.78612,77.60354,85.48568,64.708,82.06468,49.56914,81.905,48.86254,81.87606,48.12667,81.75179,47.12747Zm-54.177-29.92628C12.79044,28.42392,6.08578,43.28346,7.80225,61.70407c.84375,9.05481,3.41959,17.56338,10.194,24.21452a22.57508,22.57508,0,0,0,32.47121-.9166,18.02432,18.02432,0,0,0,1.57138-2.46045c-.92459-.41048-1.46964-.71094-2.051-.902-15.37607-5.05371-22.25456-17.54732-18.44405-33.267a6.43953,6.43953,0,0,0-.57868-4.13784c-4.42338-8.45851-4.91482-17.02753-1.20155-25.83375a30.288,30.288,0,0,0,.85222-3.0086C29.18468,16.23594,28.31754,16.63738,27.57481,17.20119ZM37.78128,38.1854c11.9863-10.88843,26.34327-10.731,38.19075.31078a6.86257,6.86257,0,0,0,3.904,1.577c9.63.73609,17.51706,4.59294,23.27328,12.43842a18.47792,18.47792,0,0,1,1.21156,2.21324l1.06423-.70762a26.12989,26.12989,0,0,0-.01286-2.807A49.369,49.369,0,0,0,65.38812,8.42732c-8.11055-1.4442-15.92626-1.27169-22.859,3.99325C34.05247,18.858,31.01075,31.22893,36.04321,39.48789,36.63494,39.04827,37.25275,38.66552,37.78128,38.1854Z" fill="#fff"/></svg>