<svg id="Logos" xmlns="http://www.w3.org/2000/svg" xmlns:xlink="http://www.w3.org/1999/xlink" viewBox="0 0 219 44.01762"><defs><linearGradient id="Degradado_Olympia_new" x1="9.62683" y1="39.86158" x2="34.74925" y2="3.98305" gradientUnits="userSpaceOnUse"><stop offset="0" stop-color="#8d0b93"/><stop offset="0.35322" stop-color="#ba098a"/><stop offset="0.78597" stop-color="#ec0680"/><stop offset="1" stop-color="#ff057c"/></linearGradient></defs><path d="M57.94605,30.111h9.42066v7.395H48.17435V6.34262h9.7717Z" fill="#fff"/><path d="M100.37844,6.34262,89.199,28.04239V37.506h-9.7717V28.04239L68.24788,6.34262H79.42731l4.9754,11.04868L89.37453,6.34262Z" fill="#fff"/><path d="M140.03478,6.34262V37.506h-9.72514V21.9691L125.50976,37.506h-8.36039L112.34949,21.9691V37.506h-9.7717V6.34262h11.97463l6.86669,18.707,6.6876-18.707Z" fill="#fff"/><path d="M168.55825,22.38641a9.733,9.733,0,0,1-4.02616,3.80766,13.62787,13.62787,0,0,1-6.44761,1.40773h-3.87572V37.506h-9.7717V6.34262h13.64742q5.72225,0,8.77949,2.905a10.24542,10.24542,0,0,1,3.059,7.79086A10.62206,10.62206,0,0,1,168.55825,22.38641Zm-8.53949-5.34793q0-2.86113-3.03753-2.86023h-2.77247V19.9005h2.77247Q160.02235,19.9005,160.01876,17.03848Z" fill="#fff"/><path d="M182.77164,6.34262V37.506h-9.7717V6.34262Z" fill="#fff"/><path d="M207.1579,32.7957H196.7701L195.22984,37.506H184.97457L196.37608,6.34262h11.26539L219,37.506H208.69816ZM204.783,25.44543l-2.819-8.67023-2.81545,8.67023Z" fill="#fff"/><path id="logo_olympia" data-name="logo olympia" d="M33.436,17.78607c4.49494.06534,8.65309,4.16649,9.06326,8.63259.42788,4.65892-1.66861,8.23412-4.84415,11.31372a22.23521,22.23521,0,0,1-24.37691,4.43308c-.44134-.192-.84729-.46465-1.71158-.94566,1.04965-.25724,1.64873-.46,2.26426-.54583a13.07116,13.07116,0,0,0,9.21034-5.891,3.79258,3.79258,0,0,1,1.92925-1.35671c6.67882-1.90933,10.14781-7.71937,8.6065-14.54008C33.505,18.56779,33.49194,18.23625,33.436,17.78607ZM9.0268,4.303C2.36579,9.35928-.655,16.05417.11839,24.35347c.38014,4.0796,1.54067,7.91309,4.59282,10.90973a10.17109,10.17109,0,0,0,14.62973-.413,8.12169,8.12169,0,0,0,.708-1.10854c-.41657-.185-.66214-.32032-.92406-.40641C12.19725,31.05836,9.09819,25.42943,10.815,18.347a2.90129,2.90129,0,0,0-.26072-1.86428,13.02163,13.02163,0,0,1-.54135-11.63926,13.64413,13.64413,0,0,0,.384-1.3555C9.75212,3.86806,9.36144,4.04892,9.0268,4.303Zm4.59847,9.45432c5.40037-4.90573,11.86882-4.83479,17.20664.14a3.09187,3.09187,0,0,0,1.75892.7105,13.6014,13.6014,0,0,1,10.48565,5.60406,8.32451,8.32451,0,0,1,.54586.99717l.47948-.31882a11.772,11.772,0,0,0-.00579-1.26468A22.24294,22.24294,0,0,0,26.06339.34993c-3.65417-.65068-7.1755-.573-10.299,1.79913-3.81911,2.90035-5.18954,8.474-2.92219,12.195C13.10879,14.146,13.38715,13.97358,13.62527,13.75727Z" fill="url(#Degradado_Olympia_new)"/></svg>