<svg xmlns="http://www.w3.org/2000/svg" viewBox="0 0 589.8728 226.68115"><path d="M71.58374,50.042V174.31934c0,33.80322-8.948,52.36181-35.792,52.36181C12.59351,226.68115,0,213.42529,0,174.98193V50.37354C0,9.94189,17.23315,0,36.12329,0S71.58374,9.2793,71.58374,50.042ZM5.634,52.03076V172.99365c0,31.15235,7.29077,48.7168,30.15772,48.7168,26.18115,0,30.158-22.53565,30.158-46.06543V51.69922c0-29.16358-7.29077-46.728-30.158-46.728C16.90186,4.97119,5.634,17.23291,5.634,52.03076Z" style="fill:#0c1c2b"/><path d="M88.81006,223.69873V2.98242h7.95386l50.04223,171.99951c3.64551,12.92481,7.95362,27.83838,10.93628,40.1001h.33154c-.99414-34.79736-.66284-61.64111-.66284-97.4331V2.98242h5.63379V223.69873h-7.95361L104.05493,46.728C100.74072,35.12891,96.43237,21.21,93.78125,9.61084H93.45c.6626,26.51221.99414,62.63574.99414,103.06689v111.021Z" style="fill:#0c1c2b"/><path d="M237.27661,106.7124H190.54834V218.72754H243.2417l-1.32544,4.97119H184.91431V2.98242h56.00757V7.95361H190.54834V101.7417h46.72827Z" style="fill:#0c1c2b"/><path d="M343.31982,170.01123v5.96484c0,22.20459-3.314,50.374-34.13476,50.374-27.83814,0-34.79761-20.87891-34.79761-54.019V49.71094c0-36.45459,13.91919-49.3794,35.12915-49.3794,30.48926,0,32.80908,28.50049,32.80908,49.71045v6.29688h-5.634V49.71094c0-24.85547-4.97095-44.40869-27.50659-44.40869-14.58179,0-29.16358,7.62255-29.16358,43.41406V172.33105c0,38.11133,10.605,49.04786,29.49512,49.04786,22.5354,0,28.16944-18.5586,28.16944-45.40284v-5.96484Z" style="fill:#0c1c2b"/><path d="M352.596,2.98242h5.63379V218.72754h52.6936l-1.32568,4.97119H352.596Z" style="fill:#0c1c2b"/><path d="M420.19873,2.98242V223.69873h-5.634V2.98242Z" style="fill:#0c1c2b"/><path d="M506.36206,170.01123v5.96484c0,22.20459-3.314,50.374-34.13477,50.374-27.83813,0-34.7976-20.87891-34.7976-54.019V49.71094c0-36.45459,13.91919-49.3794,35.12915-49.3794,30.48926,0,32.80908,28.50049,32.80908,49.71045v6.29688h-5.63379V49.71094c0-24.85547-4.97119-44.40869-27.50684-44.40869-14.58178,0-29.16357,7.62255-29.16357,43.41406V172.33105c0,38.11133,10.605,49.04786,29.49512,49.04786,22.5354,0,28.16943-18.5586,28.16943-45.40284v-5.96484Z" style="fill:#0c1c2b"/><path d="M515.96948,2.98242h5.63379v118.312h.33154c7.95362-16.23877,39.106-80.86279,57.333-118.312h6.29688L540.82495,94.11914,589.8728,223.69873H583.908L537.511,100.74707,521.60327,132.231v91.46777h-5.63379Z" style="fill:#0c1c2b"/></svg>