<svg xmlns="http://www.w3.org/2000/svg" width="99" height="20" viewBox="0 0 99 20"><defs><radialGradient id="5gxxa" cx="1.41" cy="19.76" r="20.92" gradientUnits="userSpaceOnUse"><stop offset="0" stop-color="#f55b18"/><stop offset=".61" stop-color="#6bbaf3"/><stop offset="1" stop-color="#282ec4"/></radialGradient></defs><g><g><path d="M27.74 5.145l.078 1.4h.154c.234-.623.583-1.01 1.09-1.245.504-.232 1.087-.349 1.748-.349.855 0 1.555.155 2.021.466.467.311.817.856 1.011 1.633.195.778.312 1.866.312 3.304 0 1.438-.118 2.527-.312 3.305-.193.777-.543 1.321-1.01 1.671-.467.311-1.128.505-1.983.505-.7 0-1.322-.117-1.788-.31-.467-.195-.817-.584-1.05-1.089h-.116v5.325h-2.022V5.145zm4.276 7.736c.078-.506.156-1.322.156-2.449 0-1.128-.04-1.944-.156-2.449-.078-.506-.272-.817-.583-.972-.272-.155-.74-.233-1.4-.233-.505 0-.932.078-1.243.233-.311.155-.506.428-.622.817a2.588 2.588 0 0 0-.195 1.01c-.04.39-.04.894-.04 1.555 0 1.166.079 1.982.196 2.45.155.427.35.738.66.932.312.194.7.272 1.245.272.66.04 1.127-.039 1.399-.194s.466-.467.583-.972z"/></g><g><path d="M35.28 12.764c0-.816.079-1.438.273-1.904.195-.466.467-.778.894-1.01.428-.195 1.01-.312 1.789-.312.699 0 1.71.039 3.032.078v-.544c0-.778-.078-1.322-.195-1.632-.116-.312-.35-.506-.7-.622-.35-.08-.932-.156-1.75-.156-.387 0-.854.038-1.437.077-.583.039-1.011.079-1.361.156V5.263c1.05-.194 2.177-.273 3.42-.273 1.129 0 1.984.117 2.567.389.583.273.933.66 1.127 1.244.195.583.272 1.4.272 2.488v6.57h-1.827l-.077-1.362h-.117c-.272.623-.661 1.01-1.205 1.206a5.525 5.525 0 0 1-1.866.31c-.933.04-1.672-.193-2.138-.66-.467-.467-.7-1.282-.7-2.41zm5.677.662c.233-.429.35-1.09.35-1.944v-.505H38.78c-.428 0-.74.038-.933.115a.735.735 0 0 0-.428.467c-.078.234-.116.584-.116 1.05 0 .467.038.778.116 1.01.078.235.272.39.506.468.272.077.66.116 1.205.116a4.68 4.68 0 0 0 1.127-.155c.31-.117.544-.312.7-.622z"/></g><g><path d="M51.297 15.718l-2.371-3.848h-.117l-2.332 3.848h-2.138l3.343-5.364-3.227-5.209h2.255L48.964 8.8h.117l2.255-3.654h2.138l-3.227 5.17 3.382 5.365h-2.332z"/></g><g><path d="M64.202 15.718l-1.788-7.19h-.155l-1.788 7.19h-2.45l-2.72-10.573h2.06l1.904 8.125h.156l1.982-8.125h1.944l2.022 8.125h.155l1.866-8.125h2.021l-2.76 10.573z"/></g><g><path d="M70.15 13.891c-.156-.699-.234-1.865-.234-3.459s.079-2.76.235-3.46c.154-.7.543-1.205 1.087-1.516.583-.31 1.516-.427 2.838-.427s2.255.155 2.837.427c.584.311.934.816 1.09 1.516.155.7.232 1.866.232 3.46 0 1.594-.077 2.76-.233 3.46-.155.7-.544 1.204-1.089 1.516-.582.31-1.515.466-2.837.466-1.322 0-2.293-.156-2.838-.466-.583-.312-.933-.817-1.088-1.517zm6.025-.894c.079-.466.118-1.322.118-2.565 0-1.244-.04-2.1-.118-2.566-.077-.466-.232-.778-.543-.933-.273-.155-.818-.233-1.556-.233-.738 0-1.243.078-1.515.233-.274.155-.468.467-.545.933-.078.466-.117 1.322-.117 2.566 0 1.243.04 2.06.117 2.565.077.467.233.778.544.933.272.155.816.233 1.516.233.739 0 1.245-.078 1.556-.233.271-.155.465-.466.543-.933z"/></g><g><path d="M79.946 5.145h1.827l.078 1.905h.155c.233-.777.583-1.322 1.09-1.633.504-.31 1.165-.427 1.981-.427v2.021c-.816 0-1.438.155-1.905.428-.466.271-.777.7-.933 1.282-.194.583-.272 1.361-.272 2.333v4.664h-2.02z"/></g><g><path d="M86.127.325h2.021v15.394h-2.021z"/></g><g><path d="M90.091 13.775c-.193-.777-.31-1.866-.31-3.304 0-1.438.116-2.527.31-3.304.196-.778.545-1.322 1.012-1.672.466-.31 1.126-.505 1.981-.505.7 0 1.322.116 1.79.31.465.195.815.583 1.048 1.09h.118V.324h2.02v15.393h-1.826l-.078-1.399h-.117c-.232.622-.582 1.011-1.088 1.244-.505.233-1.088.312-1.788.312-.894 0-1.555-.157-2.06-.467-.467-.312-.816-.856-1.011-1.633zm5.677-.738c.115-.312.193-.66.232-1.05.04-.389.04-.933.04-1.633 0-1.127-.079-1.904-.234-2.37-.116-.429-.35-.739-.621-.896-.312-.194-.74-.27-1.284-.27-.66 0-1.126.076-1.4.232-.272.156-.466.466-.544.972-.077.466-.155 1.282-.155 2.45 0 1.126.04 1.982.155 2.447.079.506.273.817.584.972.271.156.738.234 1.4.234.543-.04.932-.156 1.204-.31.273-.156.506-.429.623-.778z"/></g><g><path d="M54.134 13.698h2.021v2.021h-2.021z"/></g><g><path d="M13.299 7.753v4.58L9.328 14.62v-4.017c0-.328.186-.655.467-.795z"/></g><g><path fill="url(#5gxxa)" d="M5.824 12.613c-.281-.187-.467-.468-.467-.794V8.266c0-.324.186-.65.467-.791L8.86 5.698a.85.85 0 0 1 .935 0l3.036 1.777c.281.187.468.467.468.791v3.507c0 .372-.141.653-.468.84l-2.99 1.728a.835.835 0 0 1-.935 0zM9.11.328c-.244.03-.487.107-.717.232L1.618 4.485a1.882 1.882 0 0 0-.934 1.634v13.129c0 .372.373.561.699.421l2.853-1.542c.559-.328 1.261-.282 1.821 0l2.382 1.355c.562.327 1.31.327 1.869 0l6.775-3.925c.562-.327.935-.934.935-1.635V6.119c0-.654-.373-1.262-.935-1.634L10.262.56a1.781 1.781 0 0 0-.684-.232z"/></g></g></svg>