<svg width="142" height="76" viewBox="0 0 142 76" fill="none" xmlns="http://www.w3.org/2000/svg">
<path d="M29.9998 25.0996H26.0998C26.0998 30.8996 21.3998 35.6996 15.5998 35.7996C15.4998 35.7996 15.4998 35.7996 15.3998 35.7996C15.2998 35.7996 15.2998 35.7996 15.1998 35.7996C9.39983 35.6996 4.69983 30.9996 4.69983 25.0996H0.799805C0.799805 30.4996 3.69979 35.1996 8.09979 37.6996C3.69979 40.1996 0.799805 44.8996 0.799805 50.2996C0.799805 55.6996 3.69979 60.3996 8.09979 62.8996C3.69979 65.3996 0.799805 70.0996 0.799805 75.4996H4.69983C4.69983 69.6996 9.39983 64.8996 15.1998 64.7996C15.2998 64.7996 15.2998 64.7996 15.3998 64.7996C15.4998 64.7996 15.4998 64.7996 15.5998 64.7996C21.3998 64.8996 26.0998 69.5996 26.0998 75.4996H29.9998C29.9998 70.0996 27.0998 65.3996 22.6998 62.8996C27.0998 60.3996 29.9998 55.6996 29.9998 50.2996C29.9998 44.8996 27.0998 40.1996 22.6998 37.6996C27.0998 35.2996 29.9998 30.4996 29.9998 25.0996ZM26.0998 50.3996C26.0998 56.1996 21.3998 60.9996 15.5998 61.0996C15.4998 61.0996 15.4998 61.0996 15.3998 61.0996C15.2998 61.0996 15.2998 61.0996 15.1998 61.0996C9.39983 60.9996 4.69983 56.2996 4.69983 50.3996C4.69983 44.5996 9.39983 39.7996 15.1998 39.6996C15.2998 39.6996 15.2998 39.6996 15.3998 39.6996C15.4998 39.6996 15.4998 39.6996 15.5998 39.6996C21.3998 39.7996 26.0998 44.5996 26.0998 50.3996Z" fill="#59C5F0"/>
<path d="M49.0996 50.5C55.4996 50.5 57.9996 53.6 57.9996 57.8C57.9996 62 55.5996 65.1 49.0996 65.1H43.1996V75.3H40.5996V50.5H49.0996ZM43.2996 52.8V62.7H49.1996C53.8996 62.7 55.4996 60.7 55.4996 57.7C55.4996 54.7 53.8996 52.7 49.1996 52.7H43.2996V52.8Z" fill="#3E3E3E"/>
<path d="M75.7998 66.7004H63.2998V66.9004C63.2998 71.5004 65.5998 73.4004 69.1998 73.4004C71.4998 73.4004 73.4998 72.6004 74.6998 71.7004L75.5998 73.8004C73.7998 75.0004 71.5998 75.7004 69.0998 75.7004C64.0998 75.7004 60.7998 72.9004 60.7998 66.4004V65.2004C60.7998 58.6004 63.7998 55.9004 68.2998 55.9004C72.7998 55.9004 75.7998 58.6004 75.7998 65.2004V66.7004ZM63.1998 64.8004H73.2998V64.6004C73.2998 59.9004 71.1998 58.2004 68.2998 58.2004C65.3998 58.2004 63.2998 60.0004 63.2998 64.6004L63.1998 64.8004Z" fill="#3E3E3E"/>
<path d="M79.5 48.5H81.9V69.7C81.9 72.4 82.9 73.3 84.3 73.3C85.3 73.3 85.9 73 86.5 72.6L87.4 74.7C86.5 75.3 85.5 75.6 84.1 75.6C81.5 75.6 79.5 74 79.5 69.6V48.5Z" fill="#3E3E3E"/>
<path d="M103.7 66.7004H91.2002V66.9004C91.2002 71.5004 93.5002 73.4004 97.1002 73.4004C99.4002 73.4004 101.4 72.6004 102.6 71.7004L103.5 73.8004C101.7 75.0004 99.5002 75.7004 97.0002 75.7004C92.0002 75.7004 88.7002 72.9004 88.7002 66.4004V65.2004C88.7002 58.6004 91.7002 55.9004 96.2002 55.9004C100.7 55.9004 103.7 58.6004 103.7 65.2004V66.7004ZM91.2002 64.8004H101.3V64.6004C101.3 59.9004 99.2002 58.2004 96.3002 58.2004C93.4002 58.2004 91.3002 60.0004 91.3002 64.6004L91.2002 64.8004Z" fill="#3E3E3E"/>
<path d="M107.3 57.2988C108.4 56.5988 110.6 55.7988 113.2 55.7988C114.7 55.7988 116 56.0988 117 56.5988L116 58.6988C115.3 58.2988 114.4 58.0988 113.2 58.0988C111.6 58.0988 110.4 58.5988 109.7 58.8988V75.2988H107.3V57.2988Z" fill="#3E3E3E"/>
<path d="M120.7 48.4004C121.6 48.4004 122.3 49.1004 122.3 50.0004C122.3 50.9004 121.6 51.6004 120.7 51.6004C119.8 51.6004 119.1 50.9004 119.1 50.0004C119 49.1004 119.8 48.4004 120.7 48.4004ZM119.5 56.2004H121.9V75.3004H119.5V56.2004Z" fill="#3E3E3E"/>
<path d="M126.7 57.2988C128 56.5988 130.2 55.7988 133.4 55.7988C138.2 55.7988 141.7 58.4988 141.7 65.1988V75.2988H139.3V65.0988C139.3 59.8988 136.9 58.0988 133.3 58.0988C131.3 58.0988 130.2 58.4988 129.1 58.8988V75.2988H126.7V57.2988Z" fill="#3E3E3E"/>
<path d="M40.7002 25.0996H43.0002L47.8002 33.1996L52.6002 25.0996H54.9002V41.1996H52.8002V28.8996L47.8002 37.3996L42.8002 28.8996V41.2996H40.7002V25.0996Z" fill="#3E3E3E"/>
<path d="M58 25.0996H60V28.7996H65V30.6996H60V36.9996C60 38.5996 60.6 39.2996 61.6 39.4996C62 39.4996 62.4 39.4996 62.8 39.4996C63.8 39.3996 64.6 39.0996 65.2 38.4996C65.4 39.0996 65.6 39.6996 65.9 40.2996C64.9 41.0996 63.6 41.4996 62.2 41.4996C59.8 41.4996 58 40.2996 58 36.9996V25.0996Z" fill="#3E3E3E"/>
</svg>
