<svg xmlns="http://www.w3.org/2000/svg" width="401" height="255" viewBox="0 0 401 255"><g><g opacity=".35"><g opacity=".35"><path fill="#371a45" d="M258.077 79.182c-25.193-12.417-52.702-16.395-77.454-11.206-24.992 5.239-44.203 19.178-54.093 39.25-20.302 41.202 5.676 95.662 57.91 121.399 2.395 1.18 4.81 2.284 7.243 3.31 23.156 9.778 47.812 12.59 70.21 7.896 24.993-5.24 44.203-19.18 54.093-39.251 20.302-41.201-5.676-95.66-57.91-121.398z"/></g></g><g><path fill="#f92323" d="M315.154 175.082a64.293 64.293 0 0 1-5.577 16.916c-9.698 19.679-28.522 32.574-51.223 37.593-8.2 1.812-16.908 2.599-25.871 2.303-16.593-.547-34.071-4.795-50.868-13.071-12.468-6.144-23.407-13.941-32.53-22.801-7.11-6.902-13.12-14.452-17.89-22.365-14.125-23.444-17.383-50.085-6.268-72.642 19.679-39.941 76.97-51.954 127.957-26.825 44.053 21.706 68.989 64.026 62.27 100.892z"/></g><g opacity=".35"><g opacity=".35"><path fill="#371a45" d="M282.822 94.547c22.247 26.31 29.747 59.442 16.345 86.64-8.362 16.97-23.514 28.895-42.087 35.073-20.1 6.686-41.938 5.365-61.52-2.715a133.094 133.094 0 0 1-8.04-3.636c-30.389-14.974-51.677-39.759-59.755-65.796-3.983-12.84-3.495-26.748 2.102-38.97.243-.529.493-1.056.751-1.58 9.2-18.67 27.188-31.66 50.65-36.579 20.702-4.34 43.466-1.948 65.042 6.7-.476-.208-.95-.426-1.427-.627-22.225-9.384-45.838-12.094-67.247-7.606-23.46 4.918-41.449 17.91-50.648 36.578-.052.105-.099.211-.149.316a63.986 63.986 0 0 1 3.99-10.248c.413-.838.85-1.66 1.295-2.473a64.067 64.067 0 0 0-7.198 11.39c-14.574 29.576-4.433 66.172 22.515 93.377l.068.068c.705.71 1.42 1.413 2.146 2.11l.044.042a120.656 120.656 0 0 0 4.603 4.186l.09.077c.421.364.835.736 1.267 1.086.432.35.848.697 1.27 1.041.717.585 1.441 1.164 2.175 1.736.07.054.136.11.205.162a127.063 127.063 0 0 0 4.937 3.644l.472.328c.67.464 1.342.924 2.02 1.375.226.151.451.302.68.452.736.485 1.48.964 2.23 1.436.111.07.22.142.332.212.865.54 1.74 1.072 2.623 1.596.198.117.4.231.597.347a136.184 136.184 0 0 0 2.911 1.655 118.8 118.8 0 0 0 1.933 1.046c.274.146.547.293.823.437.91.474 1.823.942 2.748 1.398.79.388 1.58.768 2.372 1.14.258.12.518.235.777.354.532.245 1.064.492 1.598.73.324.144.65.28.974.422.47.204.94.412 1.411.61.346.146.693.285 1.04.427.45.185.9.373 1.351.553.361.144.723.281 1.084.421.437.17.873.342 1.31.506.373.14.747.274 1.121.41.426.156.852.315 1.28.465.38.135.76.263 1.14.393.42.144.84.291 1.261.43.385.128.771.25 1.155.373.417.134.833.27 1.25.4.391.12.781.234 1.171.351.411.123.822.248 1.233.367.397.114.794.223 1.191.333.404.112.808.226 1.213.334.401.108.803.21 1.205.313.4.102.8.206 1.198.304.406.1.81.194 1.216.29.395.093.791.187 1.186.276.41.092.818.18 1.227.267.39.083.78.168 1.17.248.414.084.828.164 1.242.244.384.074.768.15 1.151.22.418.076.835.148 1.251.22.38.066.76.132 1.14.194.421.07.842.133 1.264.197.371.057.742.113 1.113.166.428.061.856.118 1.284.174.364.048.727.096 1.09.14.433.053.864.102 1.295.15a97.274 97.274 0 0 0 2.381.24c.348.03.696.062 1.044.09.442.036.883.068 1.324.098a99.446 99.446 0 0 0 2.358.14 111.227 111.227 0 0 0 7.01.124 93.624 93.624 0 0 0 2.31-.057 111.384 111.384 0 0 0 4.571-.259c.265-.02.528-.043.792-.066.491-.042.981-.087 1.47-.136a102.766 102.766 0 0 0 2.241-.249c.236-.029.471-.06.706-.09a90.832 90.832 0 0 0 1.517-.208c.22-.032.44-.066.658-.099a85.837 85.837 0 0 0 1.546-.246c.203-.034.404-.07.606-.105.526-.092 1.051-.187 1.573-.286l.557-.11a93.013 93.013 0 0 0 1.605-.33c.164-.035.327-.073.491-.109a98.22 98.22 0 0 0 1.645-.377c.142-.034.283-.07.425-.105a90.4 90.4 0 0 0 1.687-.427c.118-.03.233-.064.35-.095a96.732 96.732 0 0 0 1.74-.485c.087-.025.172-.052.26-.077a85.547 85.547 0 0 0 1.8-.548l.167-.053c.626-.2 1.25-.405 1.868-.617l.054-.019c18.185-6.258 33.006-18.076 41.24-34.787 15.315-31.08 3.34-69.912-26.753-97.452z"/></g></g><g><path fill="#371a45" d="M180.91 220.258c-24.98-12.31-44.718-31.52-55.58-54.091-10.924-22.703-11.576-46.092-1.836-65.86 9.74-19.766 28.683-33.5 53.343-38.668 24.516-5.14 51.775-1.192 76.755 11.117 24.98 12.309 44.717 31.518 55.578 54.09 10.925 22.704 11.578 46.093 1.837 65.86-9.74 19.767-28.684 33.499-53.343 38.669-7.013 1.47-14.252 2.197-21.595 2.197-18.33 0-37.325-4.526-55.16-13.314zm-3.417-155.493c-23.678 4.963-41.838 18.087-51.134 36.954-19.26 39.087 5.845 90.978 55.963 115.674 24.342 11.994 50.866 15.85 74.687 10.856 23.678-4.964 41.838-18.088 51.135-36.955 9.296-18.867 8.639-41.263-1.851-63.063-10.553-21.931-29.771-40.615-54.113-52.61-17.393-8.571-35.904-12.986-53.743-12.986-7.127 0-14.145.704-20.944 2.13z"/></g><g opacity=".6"><g opacity=".6"><path fill="#fefefe" d="M125.71 105.055c9.2-18.669 27.187-31.66 50.648-36.578 21.41-4.488 45.022-1.779 67.247 7.605 2.345.991 4.676 2.056 6.986 3.194 47.784 23.545 72.692 71.925 57.713 110.032 17.573-38.535-7.378-88.885-56.435-113.058a132.364 132.364 0 0 0-6.987-3.194c-22.224-9.383-45.837-12.093-67.246-7.605-23.46 4.918-41.449 17.91-50.649 36.578a62.523 62.523 0 0 0-2.069 4.701c.256-.56.518-1.12.792-1.675z"/></g></g><g opacity=".6"><g opacity=".6"><path fill="#fefefe" d="M298.794 170.613s-24.936 65.881-114.862 42.445c0 0 77.58 17.947 114.862-42.445z"/></g></g><g opacity=".35"><g opacity=".35"><path fill="#371a45" d="M303.86 163.752c-7.942-30.343-25.912-30.28-32.463-29.157-5.685-11.526-15.675-22.114-28.89-29.54l-.003-.001-16.38-17.693c-7.028-7.586-18.873-8.045-26.463-1.018l-12.692 11.75c-11.129 3.722-20.21 10.884-25.224 21.064a38.84 38.84 0 0 0-2.264 5.693l-.005.018a18.785 18.785 0 0 0-1.688 13.743v.009a45.13 45.13 0 0 0 .641 5.75c-6.832 13.46-20.155 21.325-27.234 29.287 4.77 7.913 10.78 15.463 17.89 22.366 8.693-3.87 17.775-12.846 23.774-23.3a68.1 68.1 0 0 0 3.41 3.553c5.486 5.326 12.061 10.013 19.56 13.706a78.995 78.995 0 0 0 10.4 4.24c-1.985 7.278-2.907 23.915 24.652 34.61 0 0 .563 1.278 1.602 3.063 8.962.295 17.67-.491 25.871-2.304-.4-7.478-5.857-15.982-10.245-21.815-3.202-4.255-4.77-8-5.206-11.542-.376-3.034.087-5.917 1.07-8.835a15.207 15.207 0 0 1 4.3-6.484l7.433-6.627c2.86-2.547 6.576-4.013 10.41-3.89 2.426.085 4.758.76 7.25 2.153 2.326 1.306 4.798 3.242 7.613 5.913 7.677 7.286 20.692 17.463 29.942 10.624l4.232-14.006c-3.058-6.503-11.294-11.33-11.294-11.33z"/></g></g><g opacity=".35"><g opacity=".35"><path fill="#371a45" d="M349.955 36.79c-1.609-1.889-4.077 13.325-5.538 12.96-.13-2.056-1.057-3.212-1.899-3.844-2.292-1.716-5.942-1.04-8.139-.393-2.204-7.626-7.148-10.067-11.047-10.742-4.682-.81-9.382.733-12.818 3.917-.64-.058-2.323-.164-4.533.05a6.17 6.17 0 0 0-4.623 2.826 6.263 6.263 0 0 0-.65 5.46c1.03 2.98 2.492 5.194 4.347 6.582.02.015.044.02.065.034.18 2.53-7.789 1.523-6.775 4.296 2.305 6.302 21.53 15.623 29.724 16.71 6.89.914 10.908.031 14.344-2.07 4.085-2.499 7.584-8.91 7.985-13.457.253-2.866 1.13-20.485-.443-22.33z"/></g></g><g><path fill="#fff" d="M262.668 150.41l-40.45 37.451c-8.414 7.791-21.551 7.286-29.342-1.128L156.92 147.9c-7.791-8.414-7.286-21.55 1.129-29.342l40.45-37.453c8.414-7.79 21.55-7.285 29.342 1.13l35.956 38.832c7.79 8.415 7.286 21.552-1.13 29.343z"/></g><g><path fill="#371a45" d="M191.703 187.818l-35.956-38.834a22.21 22.21 0 0 1-5.936-16.05 22.21 22.21 0 0 1 7.152-15.549l40.45-37.453c4.382-4.058 10.08-6.173 16.051-5.936a22.212 22.212 0 0 1 15.548 7.153l35.955 38.833c8.377 9.046 7.832 23.222-1.215 31.6l-40.45 37.451a22.276 22.276 0 0 1-15.182 5.943c-6.016 0-12.015-2.406-16.416-7.158zm7.88-105.542l-40.45 37.453a19.04 19.04 0 0 0-6.13 13.327 19.036 19.036 0 0 0 5.088 13.758l35.956 38.834c7.18 7.754 19.33 8.222 27.085 1.042l40.451-37.453c7.753-7.18 8.221-19.33 1.042-27.086l-35.957-38.833a19.046 19.046 0 0 0-14.082-6.145c-4.84 0-9.432 1.796-13.003 5.103zm63.085 68.133h.005"/></g><g><path fill="#f9f9f9" d="M102.641 105.146a59.615 59.615 0 0 0-3.539 7.172 62.88 62.88 0 0 0-2.6 7.442 59.838 59.838 0 0 0-1.622 7.636 54.033 54.033 0 0 0-.52 7.744 49.162 49.162 0 0 0 .596 7.735c.108.64.164 1.29.314 1.921l.386 1.912c.122.64.317 1.263.468 1.897.16.633.3 1.273.51 1.892 1.47 5.025 3.575 9.9 6.007 14.72-3.572-4.052-6.429-8.776-8.463-13.88-.994-2.559-1.804-5.21-2.306-7.93-.3-1.352-.43-2.733-.615-4.105-.097-1.382-.208-2.764-.196-4.15.001-2.77.233-5.543.738-8.262a46.172 46.172 0 0 1 2.25-7.946 44.338 44.338 0 0 1 3.62-7.362c1.445-2.31 3.035-4.54 4.972-6.436z"/></g><g><path fill="#fff" d="M159.434 121.828c-2.223 33.988-43.562 40.629-34.927 59.78 11.74 26.039 50.146-8.2 51.964-36.803z"/></g><g opacity=".35"><g opacity=".35"><path fill="#371a45" d="M176.47 144.804c-1.79 28.158-39.03 61.775-51.392 37.984 4.842 4.032 3.968-17.65 10.5-21.17 14.318-7.715 21.633 32.738 36.867-21.992l-13.028-17.575c.008-.076.012-.148.016-.224z"/></g></g><g><path fill="#371a45" d="M137.355 192.46c-6.293 0-11.3-3.533-14.305-10.196-4.606-10.216 3.316-17.089 12.489-25.048 9.928-8.615 21.181-18.378 22.301-35.492a1.592 1.592 0 0 1 1.698-1.49 1.598 1.598 0 0 1 1.489 1.698c-1.206 18.445-13.509 29.119-23.395 37.696-9.771 8.478-15.131 13.648-11.67 21.323 2.94 6.52 7.705 9.229 14.163 8.054 7.054-1.284 15.425-7.205 22.391-15.839 7.279-9.021 11.784-19.395 12.36-28.462a1.592 1.592 0 0 1 1.695-1.492 1.597 1.597 0 0 1 1.493 1.695c-.617 9.71-5.378 20.742-13.063 30.265-7.433 9.212-16.519 15.558-24.304 16.975-1.149.21-2.265.313-3.342.313z"/></g><g><path fill="#ffdf00" d="M138.125 177.454l-1.297.976a1.215 1.215 0 0 1-1.701-.24l-21.995-29.223a1.214 1.214 0 0 1 .24-1.701l1.297-.976a1.215 1.215 0 0 1 1.7.24l21.996 29.223a1.214 1.214 0 0 1-.24 1.7z"/></g><g><path fill="#371a45" d="M116.37 146.53l21.994 29.223a1.214 1.214 0 0 1-.24 1.701l-1.297.976a1.21 1.21 0 0 1-1.7-.24l-21.996-29.223a1.214 1.214 0 0 1 .241-1.701l1.297-.976a1.212 1.212 0 0 1 1.7.24zm-3.283-2.34l-1.296.976a3.847 3.847 0 0 0-.76 5.381l21.995 29.224a3.863 3.863 0 0 0 3.072 1.531c.84 0 1.637-.266 2.31-.771l1.297-.977a3.816 3.816 0 0 0 1.494-2.533 3.814 3.814 0 0 0-.735-2.849l-21.995-29.223a3.863 3.863 0 0 0-3.07-1.532c-.84 0-1.64.268-2.312.773z"/></g><g opacity=".5"><g opacity=".5"><path fill="#fff" d="M138.155 176.675l-21.995-29.223a1.215 1.215 0 0 0-1.7-.24l-1.298.976c-.1.076-.18.167-.25.264-.079-.437.08-.9.46-1.186l1.297-.976a1.214 1.214 0 0 1 1.7.24l21.995 29.223a1.21 1.21 0 0 1 .011 1.437 1.21 1.21 0 0 0-.22-.515z"/></g></g><g><path fill="#b3e5fc" d="M122.006 167.267l-.068-.053.527-.602.459-.655.068.054 9.252-10.559c.237.371 17.647 17.252 23.922 23.332a3.436 3.436 0 0 1 .31 4.59l-9.65 12.296a3.436 3.436 0 0 1-4.533.788c-7.397-4.652-27.93-17.554-28.347-17.696z"/></g><g><path fill="#d329d3" d="M121.784 179.838c3.346 2.045 15.353 9.59 20.086 12.567a2.54 2.54 0 0 0 3.352-.582l7.137-9.092a2.541 2.541 0 0 0-.231-3.394c-4.016-3.891-14.197-13.762-16.978-16.527a.9.9 0 0 0-1.344.084l-12.26 15.618a.902.902 0 0 0 .238 1.326z"/></g><g opacity=".6"><g opacity=".6"><path fill="#fefefe" d="M154.16 186.28a3.436 3.436 0 0 0-.311-4.59c-6.275-6.08-23.685-22.962-23.921-23.332l-8.38 9.563.458-.654-.068-.053.527-.601.459-.655.068.053 9.252-10.559c.237.371 17.646 17.252 23.922 23.332a3.437 3.437 0 0 1 .31 4.591l-9.65 12.295c-.064.081-.14.146-.208.22z"/></g></g><g><path fill="#371a45" d="M141.593 197.571c-16.814-10.575-27.33-17.145-28.199-17.617a1.315 1.315 0 0 1-.523-1.947l7.793-11.115c.05-.2.147-.387.286-.544l.48-.548.418-.597c.121-.172.279-.31.462-.407l8.945-10.21a1.328 1.328 0 0 1 1.088-.445c.366.028.702.208.928.491.662.727 9.759 9.595 23.81 23.208a4.74 4.74 0 0 1 .43 6.346l-9.652 12.295a4.736 4.736 0 0 1-6.266 1.09zm-25.759-19.212c2.394 1.456 8.913 5.512 27.158 16.986a2.12 2.12 0 0 0 2.8-.486l9.651-12.296a2.117 2.117 0 0 0-.192-2.835c-15.48-14.999-20.968-20.368-22.95-22.347l-8.321 9.496a1.292 1.292 0 0 1-.252.223l-.186.267a1.201 1.201 0 0 1-.089.111l-.215.246a1.3 1.3 0 0 1-.156.297z"/></g><g><path fill="#fff" d="M114.327 178.961l18.2-23.187a2.4 2.4 0 0 0-.405-3.369l-.741-.582a2.4 2.4 0 0 0-3.37.406l-18.2 23.187a2.4 2.4 0 0 0 .406 3.37l.74.581a2.4 2.4 0 0 0 3.37-.406z"/></g><g><path fill="#371a45" d="M110.146 180.401l-.74-.581a3.72 3.72 0 0 1-.63-5.215l18.202-23.187a3.692 3.692 0 0 1 2.477-1.395 3.692 3.692 0 0 1 2.737.767l.741.581a3.718 3.718 0 0 1 .628 5.215l-18.2 23.187a3.69 3.69 0 0 1-2.93 1.421 3.686 3.686 0 0 1-2.285-.793zm18.9-27.36l-18.202 23.187a1.082 1.082 0 0 0 .184 1.524l.741.582c.228.178.513.258.8.223.288-.034.544-.179.723-.407l18.201-23.187a1.083 1.083 0 0 0-.183-1.525l-.74-.581a1.084 1.084 0 0 0-1.524.184z"/></g><g opacity=".35"><g opacity=".35"><path fill="#371a45" d="M112.403 172.463s3.67 1.55 19.91-18.575l.208 1.717-18.612 23.711-1.76.61-2.834-2.114s-.884-1.137-.453-1.687c.432-.55 3.54-3.662 3.54-3.662z"/></g></g><g opacity=".35"><g opacity=".35"><path fill="#371a45" d="M133.709 157.205l-8.089 11.38c-2.566 3.61-1.264 8.676 2.74 10.57 8.419 3.987 21.822 8.578 28.322 1.413l-.014 2.293-11.02 14.039-2.814-.218-28.507-17.72 18.253-22.865z"/></g></g><g opacity=".35"><g opacity=".35"><path fill="#371a45" d="M112.912 148.452s8.566 9.428 10.737 6.663l1.055.828s-4.11 5.6-4.149 5.286c-.038-.315-8.068-12.236-8.068-12.236z"/></g></g><g><path fill="#fff" d="M117.877 181.548s8.801-10.918 17.957-4.48c8.462 5.95 7.181 17.54 3.549 19.302-5.543 2.689-22.227 1.482-21.506-14.822z"/></g><g opacity=".35"><g opacity=".35"><path fill="#371a45" d="M137.485 178.916c.73 4.426-.562 8.485-2.593 9.469-3.546 1.72-11.646 1.838-16.837-2.563 1.826 12.695 16.249 13.51 21.328 11.047 3.374-1.636 4.714-11.754-1.898-17.953z"/></g></g><g><path fill="#371a45" d="M122.97 196.126c-3.252-2.139-7.052-6.417-6.688-14.649.015-.34.138-.667.352-.932 3.369-4.18 11.908-10.557 20.119-4.782 5.708 4.014 7.347 10.335 6.977 14.912-.282 3.494-1.646 6.16-3.65 7.132-1.683.817-4.006 1.277-6.533 1.277-3.52 0-7.435-.892-10.576-2.957zm1.756-2.668c4.647 3.056 11.205 2.813 13.96 1.476.774-.375 1.662-2.047 1.86-4.516.3-3.698-1.023-8.803-5.63-12.043-7.018-4.936-13.87 1.989-15.461 3.783-.101 5.133 1.67 8.933 5.27 11.3z"/></g><g><path fill="#f9f9f9" d="M116.204 203.279c.23.974.528 1.92.872 2.85.173.464.337.927.534 1.38.182.458.382.908.594 1.353a41.547 41.547 0 0 0 2.828 5.134c2.12 3.267 4.652 6.222 7.474 8.846a57.578 57.578 0 0 0 9.244 6.914c3.311 1.984 6.802 3.67 10.388 5.147 7.21 2.878 14.79 4.93 22.536 6.337 7.742 1.457 15.622 2.33 23.582 3.183-7.964.803-16.023.754-24.04-.11-8.012-.861-15.985-2.716-23.567-5.753-3.768-1.568-7.444-3.404-10.89-5.641-3.435-2.25-6.638-4.882-9.444-7.89-2.808-3.008-5.144-6.441-6.967-10.091-.862-1.853-1.62-3.747-2.166-5.702-.54-1.95-.945-3.948-.978-5.957z"/></g><g><path fill="#f9f9f9" d="M111.666 226.573c.486 1.23 1.1 2.392 1.765 3.515.674 1.118 1.381 2.209 2.183 3.231.382.522.799 1.019 1.203 1.522.432.482.834.986 1.291 1.444.444.468.882.939 1.35 1.383.231.224.455.454.691.673l.719.643c3.861 3.4 8.292 6.092 13.021 8.124 4.723 2.059 9.735 3.455 14.828 4.525 5.109 1.04 10.322 1.642 15.589 2.168-5.27.496-10.613.428-15.903-.277-2.643-.363-5.282-.835-7.87-1.544-1.305-.315-2.577-.749-3.857-1.158-.642-.2-1.261-.47-1.892-.702-.629-.24-1.26-.475-1.871-.76a44.267 44.267 0 0 1-7.115-3.848c-2.249-1.498-4.367-3.206-6.247-5.148-1.892-1.927-3.571-4.063-4.935-6.379a28.338 28.338 0 0 1-1.791-3.596c-.502-1.237-.933-2.507-1.159-3.816z"/></g><g><path fill="#f9f9f9" d="M338.407 159.8c.82 1.628 1.457 3.345 2.034 5.082.582 1.737 1.035 3.514 1.442 5.307a58.06 58.06 0 0 1 1.318 10.982c.179 7.413-1.18 14.96-4.157 21.87-.394.852-.768 1.715-1.185 2.557l-1.338 2.481c-.215.418-.481.806-.732 1.203l-.76 1.185c-.256.394-.501.794-.767 1.181l-.843 1.125-.848 1.121c-.281.375-.56.75-.877 1.095l-1.854 2.104c-.301.358-.64.68-.973 1.006l-1 .978c-.67.646-1.326 1.306-2.055 1.885a58.85 58.85 0 0 1-19.014 10.9c6.117-3.935 11.854-8.243 16.774-13.277.644-.599 1.209-1.273 1.79-1.93l.875-.978c.293-.325.59-.644.85-.998l1.616-2.058c.28-.334.524-.696.768-1.056l.739-1.076c1.948-2.875 3.688-5.894 5.023-9.096 2.743-6.367 4.286-13.252 4.716-20.285.225-3.516.178-7.067-.073-10.626-.041-.893-.146-1.779-.221-2.673l-.33-2.67a51.692 51.692 0 0 0-.41-2.67 47.516 47.516 0 0 0-.508-2.67z"/></g><g><path fill="#f9f9f9" d="M322.98 81.803c-1.73.439-3.517.61-5.307.698a32.005 32.005 0 0 1-5.388-.255c-3.582-.453-7.157-1.58-10.302-3.546-1.56-.99-3.036-2.152-4.266-3.548-1.23-1.388-2.296-2.924-3.08-4.59-1.58-3.325-2.22-6.981-2.088-10.528.768 3.47 1.854 6.803 3.581 9.728a22.656 22.656 0 0 0 3.084 3.978l.9.874.965.802c.662.51 1.331 1.016 2.055 1.444 2.845 1.788 6.087 2.96 9.446 3.724 1.683.37 3.397.671 5.133.856 1.737.208 3.49.324 5.267.363z"/></g><g><path fill="#f9f9f9" d="M356.36 63.5c-.054.242.021.484.062.731l.135.744c.09.498.142 1.005.193 1.52a12.874 12.874 0 0 1-.148 3.126c-.356 2.09-1.386 4.17-2.977 5.691a11.873 11.873 0 0 1-2.63 1.906c-.487.222-.959.48-1.463.642-.25.088-.496.187-.747.264l-.759.204a15.48 15.48 0 0 1-6.117.28c1.94-.624 3.818-1.182 5.552-1.957.874-.369 1.69-.816 2.473-1.286a13.556 13.556 0 0 0 2.118-1.66c1.283-1.233 2.224-2.777 2.844-4.529.316-.875.553-1.797.757-2.75.108-.478.187-.964.284-1.457l.147-.746c.07-.24.097-.525.276-.724z"/></g><g><path fill="#f9f9f9" d="M361.151 74.59c-.102.195-.09.419-.109.638l-.044.66c-.029.445-.087.888-.149 1.336-.153.886-.382 1.777-.745 2.628-.695 1.712-1.95 3.273-3.565 4.282-.804.506-1.675.889-2.569 1.159-.9.238-1.812.417-2.726.442a14.546 14.546 0 0 1-5.318-.7c1.78-.103 3.511-.201 5.172-.522.832-.154 1.633-.38 2.411-.643a11.76 11.76 0 0 0 2.182-1.065c1.366-.852 2.47-2.065 3.315-3.498a17.49 17.49 0 0 0 1.1-2.288c.167-.4.312-.81.467-1.222l.238-.623c.094-.198.16-.437.34-.583z"/></g><g><path fill="#fff" d="M316.843 180.069c-10.232 15.115-27.711 1.673-37.473-7.594-6.507-6.176-11.37-8.84-16.616-9.014-4.288-.14-8.44 1.497-11.64 4.347l-8.307 7.406c-2.2 1.965-3.872 4.456-4.81 7.25-2.376 7.063-2.025 13.946 4.627 22.78 8.093 10.757 19.45 29.653 3.27 38.097-3.254 1.697-6.284 1.649-8.995.619-8.201-3.106-13.535-15.175-13.535-15.175-40.371-15.667-26.07-42.735-26.07-42.735-20.95-24.118-40.4-66.28-40.4-66.28l47.33-42.211s6.377 3.65 15.41 9.534c0 .005 0 .005.005 0 11.758 7.658 28.016 19.092 40.587 31.185a125.279 125.279 0 0 1 5.694 5.809s28.067-9.953 39.029 31.94c0 0 11.663 6.835 13.61 15.486.616 2.723.264 5.63-1.716 8.556z"/></g><g opacity=".35"><g opacity=".35"><path fill="#371a45" d="M316.843 180.069c-10.232 15.115-27.711 1.673-37.473-7.594-6.507-6.176-11.37-8.84-16.616-9.014-4.288-.14-8.44 1.497-11.64 4.347l-8.307 7.406c-2.2 1.965-3.872 4.456-4.81 7.25-2.376 7.063-2.025 13.946 4.627 22.78 8.093 10.757 19.45 29.653 3.27 38.097-3.254 1.697-6.284 1.649-8.995.619 5.849-1.641 16.903-6.636 13.159-20.521-5.02-18.61-16.597-7.93-22.621-27.548-6.025-19.62 19.026-43.89 35.47-42.684 21.375 1.567 19.062 15.787 25.574 22.586 7.522 7.857 26.889 10.592 30.079-4.28.615 2.723.263 5.63-1.717 8.556z"/></g></g><g><path fill="#371a45" d="M204.49 77.097c5.886 2.774 11.507 6.01 17.021 9.425 5.5 3.436 10.871 7.08 16.126 10.893 5.23 3.851 10.355 7.85 15.298 12.086 4.926 4.258 9.695 8.713 14.161 13.508l-1.71-.426a19.935 19.935 0 0 1 1.911-.512c.62-.135 1.24-.24 1.862-.332a29.863 29.863 0 0 1 3.753-.277c2.507-.003 5.026.277 7.455.941 4.863 1.308 9.335 3.984 12.83 7.515 1.758 1.752 3.357 3.658 4.714 5.706.725.998 1.321 2.067 1.956 3.115.33.52.582 1.074.873 1.61l.843 1.625c2.112 4.394 3.678 8.992 4.913 13.65l-.737-.975a46.076 46.076 0 0 1 5.903 4.319c1.845 1.586 3.575 3.338 5.084 5.328 1.482 2 2.78 4.268 3.362 6.875.062.328.151.648.187.982l.11 1.003c.014.675.04 1.354-.058 2.03a6.537 6.537 0 0 1-.152 1.004c-.077.33-.137.666-.23.99-.216.638-.418 1.284-.726 1.875-.262.62-.626 1.165-.965 1.73-.354.541-.74 1.026-1.11 1.541-.409.487-.823.972-1.258 1.441l-.696.671-.349.334-.38.308-.764.607c-.262.195-.547.363-.82.544-.536.378-1.145.648-1.729.953-1.214.516-2.483.946-3.789 1.113a15.749 15.749 0 0 1-3.888.095c-.644-.037-1.266-.163-1.896-.26-.616-.135-1.239-.26-1.839-.437-2.413-.684-4.68-1.68-6.809-2.858-4.268-2.353-8.075-5.302-11.659-8.44-.89-.79-1.775-1.588-2.637-2.405a96.804 96.804 0 0 0-2.55-2.335c-1.718-1.504-3.514-2.888-5.402-4.036-1.895-1.123-3.888-1.997-5.969-2.346a14.378 14.378 0 0 0-6.27.286 15.735 15.735 0 0 0-5.637 2.896c-.209.165-.407.344-.612.515l-.654.581-1.312 1.171-2.626 2.341-2.625 2.341-1.292 1.158c-.393.36-.768.738-1.12 1.137a15.154 15.154 0 0 0-3.143 5.496c-.679 2.118-1.152 4.274-1.17 6.43l-.008.807.048.805c.011.538.124 1.068.18 1.603.105.53.198 1.06.334 1.584.156.521.27 1.05.47 1.56.708 2.064 1.74 4.045 2.96 5.93.3.472.608.943.946 1.396.336.463.645.908 1.011 1.393.714.95 1.405 1.92 2.09 2.895 2.707 3.92 5.204 8.036 7.054 12.545.927 2.248 1.658 4.615 2.063 7.09.108.616.161 1.25.224 1.877.026.637.08 1.27.043 1.914a15.776 15.776 0 0 1-.538 3.852c-.314 1.278-.887 2.49-1.537 3.636-.37.546-.707 1.12-1.144 1.61-.212.251-.41.515-.634.752l-.69.691-.35.341-.372.31-.746.614c-.515.378-1.044.735-1.575 1.085-.553.31-1.079.638-1.658.928-.599.272-1.183.571-1.828.761-.622.238-1.287.366-1.946.506-.332.058-.673.08-1.009.117a6.621 6.621 0 0 1-1.016.037c-.68.018-1.353-.084-2.022-.175l-.984-.223c-.328-.074-.636-.198-.954-.297-2.524-.877-4.629-2.424-6.447-4.124-1.805-1.726-3.349-3.645-4.714-5.658a45.98 45.98 0 0 1-1.926-3.09 41.92 41.92 0 0 1-1.69-3.268l.881.843c-4.488-1.76-8.88-3.85-12.995-6.48l-1.51-1.037c-.502-.352-1.019-.677-1.494-1.068-.967-.757-1.95-1.49-2.85-2.337-.453-.42-.94-.797-1.362-1.253l-1.3-1.325c-.43-.446-.814-.937-1.222-1.405-.2-.238-.406-.47-.6-.712l-.556-.754c-3.015-3.965-5.008-8.813-5.515-13.832-.25-2.507-.147-5.037.25-7.51.217-1.236.494-2.459.857-3.66.183-.6.382-1.198.608-1.789a20.016 20.016 0 0 1 .786-1.808l.206 1.793a171.082 171.082 0 0 1-7.414-9.224c-2.38-3.138-4.63-6.364-6.796-9.642a162.559 162.559 0 0 1-6.064-10.092c-1.883-3.442-3.639-6.954-5.135-10.598a.537.537 0 0 1 .928-.523c2.342 3.154 4.518 6.387 6.68 9.622l6.443 9.706a294.243 294.243 0 0 0 6.595 9.567c2.28 3.126 4.647 6.183 7.174 9.09.437.501.504 1.198.224 1.76l-.018.032a16.18 16.18 0 0 0-.624 1.455 24.331 24.331 0 0 0-.537 1.576 28.328 28.328 0 0 0-.762 3.26 25.951 25.951 0 0 0-.224 6.66c.453 4.424 2.184 8.675 4.903 12.253l.498.68c.176.22.364.43.546.645.372.424.716.87 1.11 1.277l1.19 1.212c.382.418.84.767 1.254 1.154.827.78 1.747 1.463 2.646 2.17.44.363.93.668 1.398.998l1.418.975c3.88 2.48 8.086 4.488 12.42 6.187.403.157.707.46.875.824l.008.02c.443.965.99 2.001 1.544 2.975.561.983 1.16 1.946 1.794 2.878 1.265 1.867 2.682 3.618 4.27 5.134 1.592 1.495 3.371 2.765 5.297 3.426a8.486 8.486 0 0 0 2.931.518c.247.006.494.013.74-.027.244-.03.491-.04.736-.082.486-.112.977-.194 1.452-.383.485-.135.945-.38 1.415-.588.47-.234.94-.529 1.411-.788.445-.298.89-.597 1.32-.91l.61-.505.306-.25.278-.276.554-.55c.178-.19.33-.399.497-.595.351-.384.6-.832.894-1.252.495-.892.948-1.815 1.19-2.82.26-.998.422-2.033.428-3.097.034-.527-.017-1.066-.035-1.6-.056-.537-.098-1.076-.194-1.614-.352-2.154-1.004-4.3-1.866-6.385-1.712-4.18-4.099-8.139-6.719-11.927a112.848 112.848 0 0 0-2.027-2.809c-.34-.45-.703-.967-1.056-1.454a25.074 25.074 0 0 1-1.025-1.513c-1.326-2.05-2.483-4.255-3.299-6.629-.226-.584-.366-1.203-.543-1.806-.158-.61-.27-1.236-.39-1.856-.072-.63-.196-1.255-.214-1.89l-.055-.95.006-.952c.027-2.542.577-5.02 1.33-7.36a18.348 18.348 0 0 1 3.791-6.625c.424-.48.875-.936 1.347-1.368l1.327-1.189 2.625-2.34 2.625-2.342 1.312-1.17.661-.588c.244-.205.482-.419.732-.617a18.946 18.946 0 0 1 6.794-3.485c2.482-.68 5.13-.8 7.667-.35 2.558.432 4.93 1.488 7.057 2.752 2.121 1.29 4.05 2.786 5.858 4.37.9.785 1.793 1.62 2.64 2.413.84.796 1.696 1.568 2.56 2.335 3.463 3.035 7.125 5.858 11.082 8.035 1.972 1.094 4.03 1.987 6.13 2.583.524.156 1.054.26 1.581.376.53.08 1.058.191 1.586.217 1.057.115 2.105.071 3.125-.072 1.027-.126 1.996-.47 2.938-.86.45-.244.924-.44 1.346-.745.214-.145.438-.27.646-.427l.611-.488.305-.244.284-.276.571-.549c.361-.39.708-.799 1.054-1.207.312-.439.66-.872.945-1.31.26-.445.556-.873.746-1.34.241-.45.38-.929.545-1.399.07-.239.108-.483.166-.723.067-.24.09-.486.111-.73a8.44 8.44 0 0 0-.18-2.972c-.438-1.988-1.497-3.902-2.799-5.655-1.327-1.748-2.904-3.357-4.615-4.826a43.01 43.01 0 0 0-2.654-2.11 39.154 39.154 0 0 0-2.78-1.873l-.015-.009a1.618 1.618 0 0 1-.723-.965c-1.193-4.5-2.7-8.91-4.697-13.063l-.794-1.529c-.274-.504-.51-1.03-.82-1.512-.593-.978-1.15-1.982-1.82-2.902-1.26-1.903-2.728-3.643-4.32-5.232-3.17-3.203-7.122-5.543-11.412-6.704-2.145-.589-4.378-.834-6.605-.833-1.114.016-2.229.09-3.33.245-.55.081-1.097.174-1.634.291-.269.06-.536.12-.797.19-.252.064-.539.15-.725.211l-.026.008a1.617 1.617 0 0 1-1.686-.435c-4.338-4.666-9.06-8.998-13.939-13.15-2.483-2.03-4.949-4.078-7.508-6.019-2.509-2-5.11-3.889-7.682-5.81-5.183-3.802-10.456-7.484-15.755-11.14-5.297-3.657-10.618-7.298-15.895-11.026l-.007-.005a.534.534 0 0 1 .536-.919z"/></g><g><path fill="#fff" d="M206.467 161.46c-2.854 5.323-9.82 10.5-14.817 13.73-2.998 1.936-7.001 1.013-8.858-2.035a6.34 6.34 0 0 1 1.586-8.359c4.413-3.335 10.86-8.543 14.152-12.794z"/></g><g opacity=".35"><g opacity=".35"><path fill="#371a45" d="M206.467 161.458c-2.854 5.327-9.82 10.501-14.816 13.732-2.998 1.936-7.003 1.012-8.857-2.035a6.308 6.308 0 0 1-.787-1.964 6.329 6.329 0 0 0 5.878-.526c4.991-3.22 11.944-8.39 14.807-13.705z"/></g></g><g><path fill="#371a45" d="M186.443 177.6a7.892 7.892 0 0 1-5.015-3.614 7.913 7.913 0 0 1 1.987-10.464c6.493-4.907 11.412-9.345 13.852-12.498.51-.658 2.053-1.958 5.373.195 3.33 2.16 7.297 7.15 5.234 10.996-2.981 5.56-9.997 10.853-15.358 14.316a7.87 7.87 0 0 1-6.073 1.068zm-1.103-11.53a4.73 4.73 0 0 0-1.185 6.254 4.723 4.723 0 0 0 3 2.162 4.701 4.701 0 0 0 3.628-.638c7.132-4.607 12.202-9.274 14.276-13.143.567-1.056-.317-2.672-.723-3.318-1.515-2.404-3.872-3.937-4.756-4.137-3.394 4.263-9.591 9.306-14.24 12.82zm21.127-4.61h.005"/></g><g><path fill="#fff" d="M239.388 134.07c5.754-1.838 12.111-7.744 16.196-12.072 2.45-2.595 2.27-6.7-.389-9.08a6.342 6.342 0 0 0-8.509.039c-4.082 3.733-10.375 9.127-15.155 11.589z"/></g><g opacity=".35"><g opacity=".35"><path fill="#371a45" d="M255.584 122c-4.086 4.325-10.44 10.235-16.199 12.072l-3.77-4.572c5.747-1.848 12.094-7.745 16.17-12.066a6.315 6.315 0 0 0 1.59-5.657 6.313 6.313 0 0 1 1.822 1.14c2.655 2.383 2.836 6.488.387 9.084z"/></g></g><g><path fill="#371a45" d="M230.015 128.444c-1.514-3.656.045-4.938.785-5.319 3.542-1.825 8.802-5.855 14.81-11.347a7.913 7.913 0 0 1 10.65-.05 7.89 7.89 0 0 1 2.641 5.588 7.871 7.871 0 0 1-2.156 5.778c-4.38 4.641-10.863 10.578-16.87 12.497a4.746 4.746 0 0 1-1.448.226c-3.648 0-7.07-4.13-8.412-7.373zm5.756 2.79c.561.517 1.987 1.677 3.131 1.315 4.181-1.336 9.693-5.473 15.52-11.647a4.697 4.697 0 0 0 1.287-3.452 4.72 4.72 0 0 0-1.579-3.343 4.73 4.73 0 0 0-6.366.028c-4.3 3.933-10.387 9.108-15.196 11.67.036.905 1.114 3.502 3.203 5.428z"/></g><g><path fill="#fff" d="M230.545 120.058l12.655 15.21c2.348 2.823 1.96 7.056-.862 9.404l-28.014 23.306c-2.82 2.345-7.05 1.957-9.4-.865L192.27 151.9c-2.348-2.822-1.956-7.05.862-9.395l28.014-23.307a6.685 6.685 0 0 1 5.777-1.366 6.632 6.632 0 0 1 3.622 2.225z"/></g><g><path fill="#371a45" d="M203.7 168.136l-12.658-15.213a8.214 8.214 0 0 1-1.87-6.044 8.213 8.213 0 0 1 2.938-5.603l28.015-23.307a8.201 8.201 0 0 1 6.044-1.87 8.21 8.21 0 0 1 5.602 2.938l12.657 15.214a8.212 8.212 0 0 1 1.87 6.043 8.213 8.213 0 0 1-2.938 5.603l-28.015 23.307a8.232 8.232 0 0 1-5.282 1.909 8.257 8.257 0 0 1-6.364-2.977zm18.468-47.711l-28.015 23.307a5.035 5.035 0 0 0-1.8 3.439 5.038 5.038 0 0 0 1.144 3.709l12.657 15.213a5.082 5.082 0 0 0 7.15.656l28.013-23.307a5.037 5.037 0 0 0 1.8-3.44 5.036 5.036 0 0 0-1.144-3.708l-12.657-15.214a5.041 5.041 0 0 0-3.439-1.8 5.021 5.021 0 0 0-3.709 1.145z"/></g><g><path fill="#22a7f0" d="M232.083 131.65a5.754 5.754 0 1 1-8.847 7.36 5.755 5.755 0 0 1 8.848-7.36z"/></g><g opacity=".35"><g opacity=".35"><path fill="#371a45" d="M244.393 137.413c.842 2.536.116 5.454-2.055 7.26l-28.015 23.303c-2.818 2.346-7.048 1.96-9.397-.863l-4.733-5.69c9.236-.51 24.018-7.776 27.09-20.353a5.731 5.731 0 0 1-4.048-2.063 5.66 5.66 0 0 1-1.03-1.85 5.747 5.747 0 0 0 5.796-.126 9.47 9.47 0 0 0-1.287-5.649c-3.441-5.824-1.212-14.387 2.939-20.037a8.336 8.336 0 0 0 .44-9.174c-1.57-2.656-3.728-5.782-6.36-8.289l-22.834-9.867s8.286 0 18.65 1.37c0 .004 0 .004.005 0 12.224 7.962 29.127 19.85 42.198 32.423-.888 9.427-7.127 17.982-17.36 19.605z"/></g></g><g><path fill="#371a45" d="M227.025 142.254a6.909 6.909 0 0 1-4.71-2.477 6.91 6.91 0 0 1-1.58-5.082 6.906 6.906 0 0 1 2.479-4.71 6.903 6.903 0 0 1 5.08-1.579 6.905 6.905 0 0 1 4.71 2.477 6.911 6.911 0 0 1 1.58 5.081 6.913 6.913 0 0 1-2.477 4.71 6.905 6.905 0 0 1-5.082 1.58zm-2.28-10.427a4.532 4.532 0 0 0-1.623 3.087 4.531 4.531 0 0 0 1.035 3.33 4.53 4.53 0 0 0 3.087 1.623 4.52 4.52 0 0 0 3.33-1.035 4.525 4.525 0 0 0 1.624-3.087 4.525 4.525 0 0 0-1.035-3.33 4.526 4.526 0 0 0-3.511-1.643c-1.062 0-2.08.367-2.906 1.054z"/></g><g><path fill="#371a45" d="M225.72 159.694c-.344 0-.685-.147-.92-.432l-8.643-10.388-8.516.415a1.192 1.192 0 0 1-.978-.43l-8.659-10.408a1.198 1.198 0 1 1 1.841-1.532l8.277 9.948 8.515-.414c.38-.02.738.14.98.43l9.023 10.847a1.198 1.198 0 0 1-.92 1.964z"/></g><g><path fill="#fff" d="M243.51 136.567c-20.058-1.138-14.732-21.862-6.164-28.7l-.232-.16-11.618-7.994-.155-.12-18.852-14.616s38.81 0 52.284 14.19c12.996 13.681 5.134 38.554-15.263 37.4z"/></g><g opacity=".35"><g opacity=".35"><path fill="#371a45" d="M242.735 101.25c-1.493 3.441-3.777 5.386-5.62 6.456l-11.619-7.993-.156-.12c2.78.52 6.647 1.282 9.075 1.937 4.332 1.17 8.153-.22 8.32-.28z"/></g></g><g opacity=".35"><g opacity=".35"><path fill="#371a45" d="M243.51 136.567c-7.877-.447-11.837-3.913-13.223-8.372 2.172 2.328 5.658 3.924 10.832 4.216 17.45.986 25.727-17.076 19.615-30.88 10.128 13.984 2.047 36.126-17.224 35.036z"/></g></g><g><path fill="#371a45" d="M206.486 84.447c1.55-.386 3.093-.549 4.641-.655a42.645 42.645 0 0 1 4.634-.022c3.085.116 6.16.442 9.214.91 6.104.949 12.206 2.09 18.157 3.993 2.973.954 5.908 2.092 8.724 3.559 2.807 1.468 5.517 3.263 7.834 5.6.305.276.553.6.83.9.263.312.551.603.794.932.49.652 1.003 1.29 1.425 1.99.91 1.36 1.628 2.838 2.238 4.35.613 1.515 1.02 3.102 1.34 4.7a27.55 27.55 0 0 1 .396 4.865c-.057 3.254-.707 6.507-2.004 9.515-1.285 3.005-3.21 5.777-5.705 7.956-1.246 1.084-2.608 2.055-4.094 2.794a9.906 9.906 0 0 1-1.119.537l-1.146.48c-.789.244-1.564.549-2.374.707-1.599.424-3.244.557-4.875.638-1.637-.011-3.246-.071-4.86-.365-.809-.105-1.612-.333-2.416-.528-.795-.264-1.596-.506-2.364-.883-1.544-.702-3.02-1.683-4.226-2.97a12.191 12.191 0 0 1-2.667-4.49c-.555-1.647-.774-3.359-.76-5.032.04-3.354.93-6.563 2.311-9.503 1.41-2.929 3.304-5.652 5.931-7.815l.092 2.577c-1.986-1.344-4.052-2.57-5.969-4.013-.957-.723-1.908-1.456-2.795-2.28a19.7 19.7 0 0 1-1.292-1.294c-.419-.449-.82-.922-1.187-1.447a.568.568 0 0 1 .604-.877c.621.154 1.207.36 1.775.59.576.22 1.128.476 1.67.744 1.088.533 2.113 1.158 3.131 1.794 2.032 1.274 3.917 2.764 5.881 4.138l.006.004a1.608 1.608 0 0 1 .086 2.572c-2.124 1.705-3.818 4.113-5.047 6.675-1.215 2.577-1.975 5.398-2.004 8.16-.037 2.756.77 5.434 2.563 7.31.885.945 1.994 1.692 3.225 2.252.603.303 1.271.497 1.922.72.682.157 1.35.357 2.058.445 1.393.26 2.85.308 4.264.322 1.414-.077 2.833-.184 4.191-.549.694-.13 1.344-.397 2.015-.598l.966-.406c.328-.125.637-.286.944-.453 1.253-.62 2.397-1.44 3.452-2.357 2.11-1.84 3.764-4.209 4.878-6.814 1.124-2.605 1.694-5.452 1.746-8.3.018-1.427-.116-2.85-.346-4.256-.283-1.394-.634-2.779-1.169-4.098-.534-1.315-1.155-2.6-1.947-3.78-.364-.612-.815-1.164-1.239-1.734-.209-.287-.464-.538-.693-.81-.24-.26-.455-.549-.72-.783-1.99-2.007-4.424-3.642-7.023-4.998-2.604-1.359-5.384-2.44-8.226-3.353-5.696-1.808-11.635-3.006-17.63-3.702l-9.01-.995c-3.009-.323-6.016-.724-9.03-1.505l-.006-.002a.548.548 0 0 1 .005-1.063z"/></g><g><path fill="#371a45" d="M236.475 106.526c.095-.121.275-.286.422-.433l.476-.45c.318-.301.64-.6.965-.897.638-.605 1.294-1.203 1.897-1.863a15.94 15.94 0 0 0 1.67-2.137c.544-.763.928-1.613 1.378-2.523l.009-.02a.236.236 0 0 1 .444.07c.152 1.022.165 2.112-.056 3.16a11.424 11.424 0 0 1-1.053 3.054c-.491.964-1.078 1.89-1.81 2.686a9.818 9.818 0 0 1-1.177 1.11c-.208.174-.432.33-.66.484a6.844 6.844 0 0 1-.762.435 1.588 1.588 0 0 1-1.957-2.403z"/></g><g><path fill="#fff" d="M216.431 51.191a1.211 1.211 0 0 1-1.71-.11l-23.044-26.218a1.213 1.213 0 0 1 .11-1.71c5.274-4.636 13.307-4.118 17.942 1.155l7.858 8.941c4.636 5.274 4.118 13.307-1.156 17.942z"/></g><g><path fill="#371a45" d="M215.536 51.777a1.492 1.492 0 0 1-1.03-.506l-23.044-26.218a1.493 1.493 0 0 1-.37-1.087c.026-.399.206-.764.507-1.029a12.914 12.914 0 0 1 9.418-3.208 12.912 12.912 0 0 1 8.928 4.39l7.858 8.941a12.913 12.913 0 0 1 3.209 9.418 12.917 12.917 0 0 1-4.391 8.93 1.484 1.484 0 0 1-1.085.37zm-23.56-28.409a.923.923 0 0 0-.083 1.306l23.044 26.218a.917.917 0 0 0 .635.312.92.92 0 0 0 .67-.228 12.341 12.341 0 0 0 4.197-8.534 12.343 12.343 0 0 0-3.067-9.003l-7.857-8.94a12.35 12.35 0 0 0-8.535-4.198 12.333 12.333 0 0 0-9.003 3.067z"/></g><g opacity=".35"><g opacity=".35"><path fill="#371a45" d="M213.903 29.057l3.686 4.192c4.633 5.273 4.117 13.307-1.156 17.945-.503.442-1.27.39-1.713-.112l-6.128-6.968c.42.193.932.133 1.303-.188l.62-.548c4.169-3.662 5.367-9.45 3.388-14.32z"/></g></g><g><path fill="#371a45" d="M215.45 53.085a2.798 2.798 0 0 1-1.929-.95l-23.044-26.218a2.792 2.792 0 0 1-.693-2.034 2.789 2.789 0 0 1 .95-1.93A14.203 14.203 0 0 1 201.1 18.42a14.215 14.215 0 0 1 9.828 4.834l7.86 8.94a14.216 14.216 0 0 1 3.531 10.368 14.216 14.216 0 0 1-4.833 9.828 2.788 2.788 0 0 1-2.036.694zm.212-3.352a11.044 11.044 0 0 0 3.47-7.376 11.047 11.047 0 0 0-2.744-8.053l-7.858-8.941a11.044 11.044 0 0 0-7.635-3.754 11.044 11.044 0 0 0-7.76 2.494z"/></g><g><path fill="#fff" d="M105.247 99.215a1.212 1.212 0 0 1 1.71.11L130 125.545a1.212 1.212 0 0 1-.11 1.71c-5.274 4.634-13.307 4.116-17.942-1.157l-7.858-8.94c-4.636-5.275-4.118-13.308 1.156-17.943z"/></g><g><path fill="#371a45" d="M111.733 126.288l-7.858-8.94c-4.732-5.385-4.201-13.615 1.183-18.347.3-.264.686-.393 1.085-.371.4.026.766.206 1.03.507l23.044 26.218c.264.3.396.686.37 1.086a1.49 1.49 0 0 1-.507 1.029 12.945 12.945 0 0 1-8.574 3.23 12.974 12.974 0 0 1-9.773-4.412zm-6.297-26.856c-5.146 4.523-5.653 12.39-1.13 17.536l7.858 8.94c4.524 5.148 12.392 5.655 17.538 1.13a.922.922 0 0 0 .084-1.304l-23.044-26.218a.919.919 0 0 0-.636-.313l-.06-.002a.92.92 0 0 0-.61.23zm-.19-.216h.006"/></g><g opacity=".35"><g opacity=".35"><path fill="#371a45" d="M123.61 118.269l6.392 7.274c.442.502.39 1.27-.112 1.713a12.693 12.693 0 0 1-9.7 3.097 12.67 12.67 0 0 1-8.24-4.254l-3.31-3.767c4.402 1.989 9.76 1.36 13.628-2.037l.957-.841c.348-.308.476-.762.385-1.185z"/></g></g><g><path fill="#371a45" d="M110.749 127.153l-7.857-8.941c-5.21-5.926-4.626-14.986 1.3-20.195a2.803 2.803 0 0 1 2.035-.694 2.793 2.793 0 0 1 1.93.949L131.2 124.49c.495.563.74 1.286.693 2.035a2.791 2.791 0 0 1-.948 1.929 14.257 14.257 0 0 1-9.44 3.555 14.277 14.277 0 0 1-10.757-4.856zm-4.732-26.478c-4.336 4.082-4.688 10.92-.727 15.429l7.858 8.94c3.962 4.506 10.79 5.037 15.395 1.26zm-.77-1.46h.005"/></g><g><path fill="#fff" d="M208.195 39.198c19.883 26.15 14.801 63.469-11.35 83.352-26.15 19.883-63.469 14.8-83.352-11.35-19.882-26.151-14.8-63.47 11.35-83.352 26.151-19.883 63.47-14.801 83.352 11.35z"/></g><g><path fill="#371a45" d="M113.265 111.373c-19.946-26.235-14.83-63.807 11.405-83.754 26.236-19.947 63.808-14.83 83.754 11.405 9.663 12.709 13.798 28.42 11.643 44.24-2.154 15.818-10.34 29.852-23.048 39.514-10.788 8.202-23.496 12.167-36.104 12.167-18.054 0-35.905-8.124-47.65-23.572zm11.752-83.297c-25.983 19.755-31.05 56.966-11.295 82.95 19.755 25.984 56.966 31.05 82.949 11.295 12.587-9.57 20.694-23.468 22.828-39.135 2.133-15.667-1.962-31.228-11.532-43.815-11.63-15.297-29.314-23.345-47.192-23.345-12.49 0-25.072 3.926-35.758 12.05z"/></g><g opacity=".35"><g opacity=".35"><path fill="#371a45" d="M202.758 32.988a59.126 59.126 0 0 1 5.438 6.21c19.88 26.153 14.798 63.47-11.35 83.353-26.153 19.88-63.47 14.798-83.355-11.35a57.905 57.905 0 0 1-1.654-2.286c20.717 20.623 53.987 23.332 77.916 5.141 25.397-19.312 30.918-55.064 13.005-81.068z"/></g></g><g><path fill="#371a45" d="M112.222 112.166c-20.384-26.81-15.155-65.206 11.655-85.59s65.206-15.155 85.59 11.655c9.873 12.987 14.1 29.043 11.898 45.208-2.2 16.167-10.566 30.507-23.554 40.382-11.024 8.381-24.01 12.433-36.895 12.433-18.45 0-36.692-8.302-48.694-24.088zM125.81 29.12c-25.409 19.318-30.364 55.705-11.046 81.114 19.32 25.408 55.706 30.364 81.115 11.045 12.308-9.358 20.235-22.949 22.321-38.269 2.087-15.32-1.918-30.537-11.276-42.845-11.374-14.959-28.665-22.829-46.148-22.829-12.212 0-24.517 3.84-34.966 11.784z"/></g><g><path fill="#293856" d="M208.969 40.53c7.184 9.157 10.88 19.992 11.314 31.016.326 8.264-8.103 29.786-27.316 45.137-17.814 14.235-41.642 17.474-49.59 15.19-10.603-3.047-20.246-9.218-27.43-18.376-19.011-24.236-6.07-50.617 19.619-70.767 25.688-20.15 54.392-26.437 73.403-2.2z"/></g><g><path fill="#371a45" d="M142.935 133.407c-11.317-3.252-21.083-9.796-28.244-18.925-9.337-11.903-11.763-24.825-7.211-38.408 3.969-11.842 13.34-23.807 27.1-34.6 13.76-10.794 27.613-17.046 40.059-18.08 14.277-1.186 26.249 4.247 35.586 16.15 7.16 9.13 11.19 20.173 11.654 31.94.32 8.16-7.537 30.164-27.915 46.447-14.848 11.864-33.396 16.206-44.443 16.206-2.697 0-4.946-.259-6.586-.73zm-6.383-89.42c-13.268 10.407-22.273 21.854-26.043 33.102-4.19 12.5-1.938 24.418 6.695 35.422 6.743 8.597 15.947 14.762 26.614 17.827 7.57 2.176 30.784-1.025 48.152-14.902 19.248-15.38 27.008-36.466 26.718-43.828-.436-11.09-4.232-21.496-10.975-30.093-8.774-11.186-19.07-15.132-29.225-15.132-16.91 0-33.436 10.935-41.936 17.603z"/></g><g opacity=".7"><g opacity=".7"><path fill="#fff" d="M184.525 52.657c2.715 5.14 7.936 7.713 11.66 5.746 3.726-1.968 4.545-7.73 1.83-12.871-2.715-5.14-7.936-7.713-11.661-5.745-3.725 1.967-4.544 7.729-1.83 12.87z"/></g></g><g opacity=".7"><g opacity=".7"><path fill="#fff" d="M192.889 72.68c.908 2.508 3.39 3.91 5.543 3.131 2.153-.779 3.163-3.445 2.254-5.955-.908-2.509-3.39-3.91-5.543-3.13-2.153.778-3.162 3.444-2.254 5.953z"/></g></g><g opacity=".35"><g opacity=".35"><path fill="#111a28" d="M182.187 25.015c9.942.966 19.143 5.78 26.78 15.513 7.186 9.16 10.88 19.996 11.318 31.017.324 8.265-8.107 29.787-27.318 45.141-6.782 5.422-14.436 9.246-21.759 11.777 23.213-19.376 33.415-45.678 33.01-55.927-.55-13.99-5.243-27.743-14.361-39.363-2.434-3.108-5.001-5.816-7.67-8.158z"/></g></g><g><path fill="#371a45" d="M103.168 91.677a1.598 1.598 0 0 1-1.524-1.544c-1.248-18.526 9.267-37.96 28.855-53.325 19.449-15.256 40.64-21.066 58.158-15.95a1.596 1.596 0 1 1-.82 3.088c-16.531-4.865-36.711.741-55.367 15.374-18.76 14.716-28.832 33.174-27.636 50.642.002.037.004.073.004.11l-.002.082a1.598 1.598 0 0 1-1.594 1.525c-.025 0-.05 0-.074-.002zm85.12-69.264h.005"/></g><g opacity=".7"><g opacity=".7"><path fill="#fff" d="M137.702 119.72s-26.26-18.02-20.85-37.655c5.413-19.635 23.98-34.138 24.48-32.61 0 0-16.626 21.068-11.93 43.592 3.623 17.368 8.3 26.674 8.3 26.674z"/></g></g><g><path fill="#371a45" d="M294.732 171.483a35.059 35.059 0 0 0 3.468-3.374 24.57 24.57 0 0 0 2.79-3.73 17.183 17.183 0 0 0 1.756-4.026c.406-1.37.553-2.752.613-4.19l.003-.067a1.601 1.601 0 0 1 3.18-.206c.315 1.829.11 3.763-.494 5.512-.589 1.763-1.593 3.317-2.727 4.669a20.121 20.121 0 0 1-3.869 3.47c-1.416.962-2.899 1.78-4.504 2.344a.23.23 0 0 1-.226-.393z"/></g><g><path fill="#371a45" d="M239.352 218.778c-.588 1.596-1.43 3.066-2.414 4.467a20.078 20.078 0 0 1-3.53 3.814c-1.369 1.113-2.939 2.092-4.71 2.654-1.76.577-3.697.752-5.519.407a1.601 1.601 0 0 1 .254-3.176l.068-.001c1.438-.038 2.822-.163 4.2-.548a17.24 17.24 0 0 0 4.053-1.693 24.65 24.65 0 0 0 3.772-2.731 35.288 35.288 0 0 0 3.428-3.415l.008-.01a.231.231 0 0 1 .39.232z"/></g><g><path fill="#371a45" d="M262.933 106.466c-.305 0-.61-.116-.843-.348-8.627-8.563-20.17-.842-20.656-.509a1.197 1.197 0 1 1-1.355-1.976c.137-.093 13.659-9.18 23.698.785a1.198 1.198 0 0 1-.844 2.048z"/></g><g><path fill="#371a45" d="M165.317 173.358c-.438 0-.86-.241-1.07-.66-4.662-9.253-20.638-19.962-20.799-20.07a1.198 1.198 0 0 1 1.327-1.993c.678.45 16.665 11.166 21.611 20.986a1.2 1.2 0 0 1-1.069 1.737z"/></g><g><path fill="#371a45" d="M272.059 167.78a1.197 1.197 0 0 1-1.174-.969c-.134-.684-3.187-16.9 3.846-28.733 7.365-12.389 19.197-6.67 19.315-6.61a1.197 1.197 0 1 1-1.07 2.142c-.401-.198-9.975-4.759-16.186 5.692-6.56 11.037-3.585 26.893-3.554 27.051a1.199 1.199 0 0 1-1.177 1.427z"/></g><g><path fill="#1ebc61" d="M350.457 9.311c.498.155.6.815.175 1.118l-.002.001-7.92 5.631-13.773-4.779-1.701-5.655-1.105-3.672a.633.633 0 0 1 .828-.775c1.24.477 2.666 1.618 3.76 1.66 1.47.054 2.848-1.785 4.31-1.507 1.474.281 2.538 2.587 3.961 3.079 1.425.493 3.686-.662 5.02.028 1.32.685 1.268 2.983 2.457 3.849.887.644 2.72.627 3.99 1.022z"/></g><g><path fill="#0cae97" d="M346.782 8.474a1.962 1.962 0 0 1-.315-.185c-.797-.58-1.036-1.802-1.504-2.751.036.015.072.032.106.05.963.499 1.196 1.853 1.713 2.886z"/></g><g><path fill="#371a45" d="M346.96 8.649l-.213-.102a1.988 1.988 0 0 1-.328-.192c-.582-.425-.876-1.177-1.16-1.905a11.14 11.14 0 0 0-.37-.877l-.097-.198.203.087c.039.017.077.034.112.053.723.374 1.05 1.21 1.365 2.019.119.305.242.62.383.903zm-1.548-2.26c.275.707.56 1.438 1.103 1.834.028.02.057.04.086.058-.1-.224-.191-.46-.281-.687-.301-.772-.586-1.503-1.181-1.873.097.218.186.447.273.669z"/></g><g><path fill="#371a45" d="M342.51 16.64l-13.774-4.78a.61.61 0 0 1-.386-.4l-2.502-8.318a1.736 1.736 0 0 1 .57-1.85 1.611 1.611 0 0 1 1.81-.185l.498.274c.73.406 1.486.826 2.015.846.517.02 1.098-.323 1.712-.685.794-.469 1.694-1 2.69-.81.976.187 1.721.986 2.441 1.76.53.57 1.08 1.16 1.607 1.343.527.182 1.323.057 2.093-.063 1.044-.164 2.123-.333 3.007.125.9.466 1.28 1.44 1.614 2.3.26.664.503 1.292.922 1.596.43.312 1.282.45 2.107.581.194.031.388.062.58.095a1.613 1.613 0 0 1 1.306 1.261 1.736 1.736 0 0 1-.688 1.804l-7.067 5.026a.61.61 0 0 1-.555.08zm-13.077-5.833l13.18 4.572 6.811-4.843a.512.512 0 0 0 .203-.536c-.024-.104-.098-.286-.325-.325-.185-.032-.373-.062-.56-.093-.968-.154-1.969-.314-2.635-.799-.709-.515-1.03-1.342-1.343-2.142-.28-.722-.546-1.403-1.036-1.658-.526-.272-1.405-.135-2.255-.002-.918.144-1.867.293-2.682.01-.816-.282-1.47-.985-2.103-1.666-.586-.629-1.192-1.279-1.774-1.39-.542-.104-1.172.267-1.839.661-.739.437-1.504.888-2.38.855-.823-.032-1.708-.524-2.564-1-.162-.09-.323-.18-.484-.266-.204-.11-.373-.013-.456.055a.51.51 0 0 0-.17.55zm20.345.228h.001"/></g><g opacity=".6"><g opacity=".6"><path fill="#fff" d="M327.34 3.26a.55.55 0 0 1 .185-.592c.073-.06.268-.186.5-.06.162.086.323.176.485.266.852.473 1.733.963 2.546.994.864.034 1.624-.414 2.358-.848.674-.398 1.31-.774 1.868-.667.596.113 1.205.77 1.795 1.403.63.678 1.28 1.378 2.087 1.656.806.279 1.75.13 2.663-.011.856-.134 1.74-.273 2.279.006.08.04.153.095.223.156-.16-.273-.344-.492-.582-.615-.54-.28-1.424-.14-2.28-.007-.913.143-1.856.29-2.663.012-.806-.279-1.457-.979-2.086-1.656-.59-.634-1.2-1.29-1.795-1.403-.56-.107-1.195.27-1.868.667-.735.433-1.494.881-2.358.85-.813-.032-1.694-.522-2.546-.996-.162-.09-.324-.18-.484-.267a.443.443 0 0 0-.501.06.55.55 0 0 0-.184.593l2.418 8.038.247.085z"/></g></g><g opacity=".6"><g opacity=".6"><path fill="#fff" d="M346.49 9.21c.659.477 1.655.637 2.618.791a43.807 43.807 0 0 1 .57.096.592.592 0 0 0-.011-.106c-.021-.091-.096-.311-.357-.355a32.915 32.915 0 0 0-.562-.093c-.963-.154-1.958-.313-2.616-.792a2.443 2.443 0 0 1-.323-.283c.182.283.4.538.682.742z"/></g></g><g opacity=".3"><g opacity=".3"><path fill="#371a45" d="M350.63 10.43l-7.92 5.632-13.774-4.78-1.7-5.655.081-.936c5.763 8.557 20.621 9.73 23.312 5.739z"/></g><g opacity=".3"><path fill="#371a45" d="M342.724 16.152l-.04-.013-13.814-4.793-1.716-5.726.081-.936.021-.23.129.192c3.677 5.458 11.002 7.9 16.63 7.902 1.765 0 3.303-.248 4.48-.7l2.453-1.745-.251.373c-.42.624-1.15 1.136-2.117 1.512zm-13.721-4.933l13.695 4.752 5.33-3.792c-1.114.345-2.48.532-4.014.532-5.607-.001-12.887-2.41-16.636-7.786l-.06.693zm20.296.258a4.25 4.25 0 0 0 .826-.588z"/></g></g><g><path fill="#1ebc61" d="M345.345 63.76c-2.671 7.155-10.786 10.8-18.275 8.209l-20.458-7.08c-6.924-2.394-10.972-9.311-9.711-16.09v-.001c.103-.554.242-1.106.417-1.656 6.813-21.351 18.624-31.43 32.652-32.54L339.786 18c3.965 3.657 6.858 8.152 8.476 13.484 2.606 8.577 1.917 19.33-2.917 32.276z"/></g><g opacity=".65"><g opacity=".65"><path fill="#fce5e5" d="M344.216 23.078a31.12 31.12 0 0 0-3.341-3.605l-9.816-3.396a30.285 30.285 0 0 0-8.4 1.864c.193 2.52-5.53 5.758-7.66 4.272-6.88 5.23-12.595 13.876-16.592 26.403-.175.55-.315 1.102-.416 1.655l-.001.002c-.662 3.559.14 7.159 2.055 10.119-2.684-3.19-3.921-7.418-3.144-11.592v-.002c.103-.553.242-1.106.417-1.656 6.813-21.351 18.624-31.43 32.652-32.54L339.786 18a30.496 30.496 0 0 1 4.43 5.078z"/></g></g><g opacity=".3"><g opacity=".3"><path fill="#371a45" d="M344.631 61.605c-2.67 7.154-10.786 10.8-18.276 8.209l-20.457-7.08c-4.156-1.437-7.276-4.503-8.833-8.191a13.65 13.65 0 0 1-.164-5.743v-.002c9.907 18.02 51.845 20.289 51.373-16.621 1.683 8.07.671 17.876-3.643 29.428z"/></g></g><g opacity=".19"><g opacity=".19"><path fill="#fce5e5" d="M314.844 29.286c2.998-2.507 7.528-2.186 8.84-.715 1.313 1.471-1.089 3.534-4.087 6.041-2.997 2.506-5.455 4.507-6.768 3.036-1.313-1.47-.983-5.855 2.015-8.362z"/></g></g><g><path fill="#f9f6c3" d="M330.048 48.559c-.642 1.987-2.407 3.36-5.152 3.298l-.78 2.412-3.188-1.035.658-2.035c-1.753-.615-3.308-1.61-4.03-2.361l1.701-2.698c.837.81 2.205 1.798 3.78 2.31 1.7.552 2.812.164 3.144-.864.317-.98-.278-1.792-2.022-3.108-2.42-1.792-3.72-3.817-2.98-6.108.7-2.167 2.782-3.43 5.581-3.182l.782-2.42 3.19 1.036-.728 2.25c1.25.528 2.146 1.152 2.801 1.729l-1.752 2.609a8.412 8.412 0 0 0-3.176-1.858c-1.6-.52-2.603-.073-2.868.747-.324 1.004.455 1.747 2.313 3.203 2.555 1.965 3.443 3.856 2.726 6.075z"/></g><g><path fill="#371a45" d="M306.411 65.469c-3.77-1.305-6.849-3.937-8.668-7.413-1.824-3.482-2.182-7.424-1.009-11.1 6.498-20.361 17.974-31.759 33.187-32.963a.638.638 0 0 1 .25.032l9.813 3.396c.08.028.153.071.215.129 11.217 10.348 13.194 26.401 5.718 46.424-1.349 3.615-4.022 6.208-7.607 7.819-3.579 1.607-7.67 2.059-11.44.754zm9.857 2.115l11 3.806c7.117 2.463 14.968-1.056 17.502-7.844 7.268-19.463 5.432-35.023-5.307-45.01l-9.572-3.312c-14.615 1.214-25.675 12.312-31.99 32.104-2.203 6.902 1.794 14.521 8.91 16.984z"/></g><g><path fill="#f7c714" d="M344.96 18.256c-.233.674-.79 1.165-1.5 1.416-.457.16-.977.222-1.513.168a4.055 4.055 0 0 1-.91-.201l-12.827-4.44a3.962 3.962 0 0 1-.793-.374c-1.196-.736-1.824-2.02-1.437-3.136.233-.674.79-1.165 1.501-1.416a3.506 3.506 0 0 1 1.615-.155c.268.032.538.095.807.188l12.828 4.439c.294.1.568.234.816.39 1.181.74 1.798 2.01 1.413 3.12z"/></g><g><path fill="#371a45" d="M328.183 15.277a4.104 4.104 0 0 1-.809-.383c-1.257-.774-1.862-2.104-1.471-3.232.233-.675.785-1.196 1.552-1.466a3.592 3.592 0 0 1 1.652-.16c.272.033.549.098.823.193l12.827 4.438c.296.102.577.237.834.399 1.239.775 1.834 2.098 1.447 3.217-.234.674-.785 1.195-1.552 1.466a3.589 3.589 0 0 1-1.546.172 4.116 4.116 0 0 1-.929-.205zm1.694-4.894a3.854 3.854 0 0 0-.791-.185 3.432 3.432 0 0 0-1.577.152c-.719.253-1.235.738-1.452 1.365-.365 1.056.212 2.306 1.403 3.04.243.15.504.274.777.368l12.827 4.438c.289.1.589.167.892.198a3.438 3.438 0 0 0 1.476-.164c.719-.254 1.235-.74 1.451-1.366.363-1.046-.205-2.29-1.379-3.024a3.856 3.856 0 0 0-.8-.384z"/></g><g opacity=".55"><g opacity=".55"><path fill="#fce5e5" d="M344.96 18.256l-.019.054c-.197-.694-.71-1.348-1.432-1.8a3.973 3.973 0 0 0-.817-.391l-10.96-3.792-1.105 3.192-1.969-.681 1.104-3.19a3.697 3.697 0 0 0-.707-.157 3.494 3.494 0 0 0-1.612.157c-.696.243-1.24.716-1.483 1.363a2.155 2.155 0 0 1 .02-1.322c.233-.674.79-1.165 1.501-1.416a3.506 3.506 0 0 1 1.615-.155c.268.032.538.095.807.188l12.828 4.439c.294.1.568.234.816.39 1.181.74 1.798 2.01 1.413 3.12z"/></g></g><g><path fill="#f89e1d" d="M344.96 18.256c-.233.674-.79 1.165-1.5 1.416-.457.16-.977.222-1.513.168a4.055 4.055 0 0 1-.91-.201l-12.827-4.44a3.962 3.962 0 0 1-.793-.374c-1.172-.721-1.798-1.967-1.458-3.068.27.469.681.892 1.201 1.213.243.15.508.276.794.375l8.207 2.84 1.037-3L342.44 15l-1.02 2.948a3.504 3.504 0 0 0 1.784-.13c.711-.251 1.268-.742 1.501-1.415.008-.023.015-.043.02-.067.351.609.454 1.29.236 1.92z"/></g><g><path fill="#371a45" d="M328.023 15.74a4.637 4.637 0 0 1-.906-.43c-1.453-.896-2.143-2.462-1.676-3.809.283-.818.94-1.446 1.85-1.767a4.101 4.101 0 0 1 1.879-.184c.302.036.613.11.92.215l12.828 4.44c.33.113.645.264.934.447 1.432.897 2.11 2.456 1.649 3.79-.284.82-.941 1.446-1.852 1.768a4.1 4.1 0 0 1-1.76.198 4.686 4.686 0 0 1-1.038-.23zm1.694-4.895a3.286 3.286 0 0 0-.69-.16 2.95 2.95 0 0 0-1.355.126c-.576.204-.985.582-1.152 1.065-.29.837.202 1.85 1.197 2.463.212.13.44.238.68.32l12.827 4.44c.253.088.516.146.782.173.44.045.878-.003 1.264-.14.575-.203.984-.58 1.15-1.063.288-.83-.196-1.836-1.176-2.45a3.395 3.395 0 0 0-.7-.335z"/></g><g opacity=".35"><g opacity=".35"><path fill="#371a45" d="M32.544 147.694c-.943-1.106-2.225-1.596-3.081-1.81-.076-1.205-.62-1.882-1.113-2.252-1.343-1.006-3.482-.61-4.77-.23-1.291-4.47-4.19-5.9-6.474-6.296-2.744-.476-5.5.43-7.512 2.296a14.623 14.623 0 0 0-2.656.028 3.617 3.617 0 0 0-2.71 1.657 3.671 3.671 0 0 0-.381 3.2c.604 1.746 1.46 3.043 2.548 3.857.01.01.025.012.038.02.105 1.483.45 3.04 1.046 4.664 1.35 3.693 4.345 6.622 8.008 7.835 1.52.503 3.009.71 4.43.71 4.073 0 7.58-1.692 9.594-2.923 2.394-1.465 3.964-3.93 4.199-6.595.148-1.68-.245-3.08-1.166-4.16z"/></g></g><g><path fill="#ffdf00" d="M7.612 150.187c-.94-2.569-1.687-6.218-.079-9.707 1.53-3.319 5.037-5.36 8.64-4.736 2.427.421 4.994 2.023 5.958 6.601 0 0 6.087-2.536 5.58 2.03 0 0 4.688.334 4.27 5.086-.215 2.433-1.659 4.583-3.743 5.858-2.863 1.752-7.846 3.9-13.219 2.121-3.437-1.138-6.163-3.853-7.407-7.253z"/></g><g><path fill="#fa0" d="M31.499 146.68c-.4 2.148-1.759 4.02-3.645 5.174-2.864 1.752-7.847 3.9-13.22 2.121-3.437-1.138-6.162-3.852-7.407-7.253a18.408 18.408 0 0 1-.627-2.078c-.045 2.058.446 3.997 1.012 5.543 1.244 3.4 3.97 6.115 7.408 7.253 5.372 1.778 10.355-.369 13.219-2.12 2.084-1.276 3.528-3.426 3.742-5.859.103-1.179-.107-2.085-.482-2.782z"/></g><g><path fill="#ff5722" d="M8.892 137.873s-1.086-.137-2.65.014c-1.864.18-3.049 2.069-2.437 3.839.442 1.279 1.152 2.647 2.281 3.492z"/></g><g><path fill="#371a45" d="M6.085 146.154a.931.931 0 0 1-.56-.187c-1.113-.833-1.99-2.157-2.605-3.935a3.837 3.837 0 0 1 .398-3.344 3.784 3.784 0 0 1 2.833-1.733c1.65-.159 2.809-.017 2.858-.01a.936.936 0 0 1-.233 1.856c-.032-.003-1.032-.119-2.444.018a1.915 1.915 0 0 0-1.438.88 1.975 1.975 0 0 0-.205 1.721c.491 1.418 1.149 2.444 1.958 3.048a.937.937 0 0 1-.562 1.686z"/></g><g><path fill="#371a45" d="M14.725 158.328c-3.655-1.21-6.642-4.133-7.991-7.82-1.426-3.894-1.443-7.4-.051-10.419 1.744-3.783 5.713-5.95 9.649-5.267 2.282.395 5.175 1.826 6.46 6.302 1.28-.38 3.429-.788 4.772.22.492.368 1.033 1.044 1.104 2.251.852.21 2.14.697 3.086 1.806.917 1.076 1.307 2.47 1.159 4.142-.234 2.656-1.8 5.114-4.186 6.574-2.011 1.23-5.513 2.918-9.58 2.918-1.418 0-2.905-.205-4.422-.707zm-6.342-17.456c-1.177 2.555-1.141 5.58.108 8.993 1.155 3.155 3.705 5.654 6.823 6.686 4.889 1.618 9.462-.21 12.437-2.03 1.882-1.152 3.115-3.075 3.297-5.142.103-1.155-.14-2.084-.72-2.764-.984-1.155-2.667-1.306-2.683-1.307a.936.936 0 0 1-.864-1.037c.08-.72-.034-1.2-.34-1.43-.747-.56-2.8-.112-3.95.368a.933.933 0 0 1-1.276-.67c-.721-3.424-2.471-5.4-5.203-5.873a6.662 6.662 0 0 0-1.131-.097c-2.71 0-5.278 1.656-6.498 4.303z"/></g><g opacity=".6"><g opacity=".6"><path fill="#fefefe" d="M20.95 151.803s3.583-5.801-3.405-5.21c0 0 4.56 1.745 3.405 5.21z"/></g></g><g opacity=".6"><g opacity=".6"><path fill="#fefefe" d="M27.74 145.757a.968.968 0 0 0 .668.347c.014.001 1.134.101 2.078.764a3.058 3.058 0 0 0-.168-.225c-.978-1.158-2.663-1.307-2.68-1.308-.033-.003-.065-.012-.098-.019.03.16.096.313.2.441z"/></g></g><g opacity=".6"><g opacity=".6"><path fill="#fefefe" d="M9.286 150.626c-1.247-3.406-1.283-6.426-.109-8.973 1.215-2.637 3.774-4.288 6.474-4.288.373 0 .75.032 1.126.097 1.041.18 1.937.581 2.69 1.196-.883-1.059-2.036-1.72-3.46-1.966a6.613 6.613 0 0 0-1.126-.097c-2.699 0-5.259 1.651-6.474 4.288-1.174 2.547-1.138 5.566.11 8.973a11.161 11.161 0 0 0 2.968 4.407 11.127 11.127 0 0 1-2.199-3.637z"/></g></g><g opacity=".6"><g opacity=".6"><path fill="#fefefe" d="M21.959 143.314a.963.963 0 0 0 1.312.69c.96-.4 2.546-.777 3.47-.564-.052-.262-.156-.458-.316-.578-.739-.553-2.779-.105-3.924.372a.946.946 0 0 1-.548.052l.006.028z"/></g></g><g><path fill="#371a45" d="M17.311 146.658c.253-.167.532-.291.821-.395.288-.106.591-.178.904-.222.622-.085 1.306-.042 1.956.238.651.272 1.218.804 1.561 1.418.35.614.521 1.279.596 1.92l.001.01c.004.025.005.052.004.075a3.512 3.512 0 0 1-.058.56 5.163 5.163 0 0 1-.117.51 4.474 4.474 0 0 1-.42.962 3.83 3.83 0 0 1-1.513 1.44 4.379 4.379 0 0 1-1.921.432c-.316-.007-.628-.052-.932-.095a10.69 10.69 0 0 1-.881-.258c.302-.072.594-.124.879-.172.282-.086.56-.141.825-.228.525-.182 1-.41 1.389-.71.376-.313.668-.68.867-1.107.055-.103.09-.22.138-.326.036-.113.072-.227.1-.344.03-.116.057-.232.073-.35.02-.11.028-.252.032-.314l.005.085a4.727 4.727 0 0 0-.353-1.413 2.45 2.45 0 0 0-.838-1.032c-.378-.272-.87-.448-1.404-.551a8.314 8.314 0 0 0-1.713-.133z"/></g><g><path fill="#371a45" d="M13.253 142.346a1.269 1.269 0 1 1-2.537-.001 1.269 1.269 0 0 1 2.537 0z"/></g><g><path fill="#f9f9f9" d="M18.726 164.846c-1.014.257-2.061.357-3.11.408a18.671 18.671 0 0 1-3.158-.148c-2.1-.267-4.194-.927-6.037-2.08-.915-.578-1.78-1.26-2.501-2.078-.72-.814-1.345-1.714-1.804-2.69-.927-1.95-1.302-4.091-1.223-6.17.449 2.034 1.086 3.987 2.098 5.7a13.193 13.193 0 0 0 1.807 2.332l.528.512.565.47c.388.3.78.596 1.204.847 1.668 1.048 3.568 1.734 5.536 2.183.987.217 1.99.393 3.009.5a31.76 31.76 0 0 0 3.086.214z"/></g><g><path fill="#f9f9f9" d="M38.288 154.119c-.03.142.012.284.036.429l.08.435c.052.293.083.59.113.89a7.55 7.55 0 0 1-.087 1.834c-.209 1.224-.812 2.443-1.745 3.335a6.907 6.907 0 0 1-1.542 1.117c-.284.13-.56.282-.856.376-.147.052-.29.11-.438.155l-.445.119a9.05 9.05 0 0 1-3.585.164c1.137-.365 2.238-.692 3.254-1.146.512-.216.99-.478 1.45-.754.448-.29.868-.61 1.241-.973.751-.722 1.302-1.627 1.666-2.654.185-.513.324-1.053.444-1.612.063-.28.11-.564.166-.853l.086-.437c.041-.141.058-.308.162-.425z"/></g><g><path fill="#f9f9f9" d="M41.096 160.619c-.06.114-.053.245-.064.373l-.025.388c-.017.26-.051.52-.088.782a6.855 6.855 0 0 1-.437 1.54 5.37 5.37 0 0 1-2.09 2.51 6.185 6.185 0 0 1-1.504.679c-.527.139-1.062.245-1.598.259a8.523 8.523 0 0 1-3.116-.41c1.042-.061 2.057-.118 3.03-.306a10.35 10.35 0 0 0 1.413-.377 6.887 6.887 0 0 0 1.279-.624c.8-.5 1.448-1.211 1.943-2.051.243-.421.459-.87.645-1.34.098-.234.182-.474.274-.716l.139-.365c.055-.116.094-.256.199-.342z"/></g><g><path fill="#e8eefc" d="M380.685 110.363a9.002 9.002 0 0 1-9.002 9.002 8.97 8.97 0 0 1-6.486-2.758 8.948 8.948 0 0 1-.924-1.13 8.942 8.942 0 0 1-1.592-5.114 9.003 9.003 0 1 1 18.005 0z"/></g><g><path fill="#371a45" d="M367.597 118.447a9.077 9.077 0 0 1-3.367-2.94 8.999 8.999 0 0 1-1.601-4.938l-.002-.206c0-4.995 4.062-9.058 9.056-9.058.518 0 1.036.044 1.54.131a9.006 9.006 0 0 1 4.647 2.31c.356.336.689.702.988 1.088a9.017 9.017 0 0 1 1.882 5.529c0 4.994-4.063 9.056-9.057 9.056a8.964 8.964 0 0 1-4.086-.972zm-4.862-8.084a8.878 8.878 0 0 0 1.584 5.082 8.95 8.95 0 0 0 3.326 2.905 8.855 8.855 0 0 0 4.038.961c4.935 0 8.949-4.014 8.949-8.948 0-.967-.153-1.915-.454-2.818a8.839 8.839 0 0 0-1.406-2.644 9.132 9.132 0 0 0-.977-1.076 8.892 8.892 0 0 0-4.591-2.282 8.966 8.966 0 0 0-1.521-.13c-4.934 0-8.948 4.015-8.948 8.95z"/></g><g opacity=".55"><g opacity=".55"><path fill="#fff" d="M380.685 110.363c0 .225-.009.449-.024.67a9.005 9.005 0 0 0-17.957 0 9.003 9.003 0 1 1 17.981-.67z"/></g></g><g><path fill="#b2c6e5" d="M380.685 110.363a9.002 9.002 0 0 1-9.002 9.002 9.002 9.002 0 0 1-8.913-10.27 9.004 9.004 0 0 0 17.827 0c.059.414.089.838.089 1.268z"/></g><g><path fill="#d9e3fa" d="M371.683 116.64a6.285 6.285 0 0 1-6.278-6.278 6.285 6.285 0 0 1 6.278-6.277 6.284 6.284 0 0 1 6.277 6.277 6.285 6.285 0 0 1-6.277 6.278z"/></g><g opacity=".55"><g opacity=".55"><path fill="#fff" d="M377.96 110.363a6.4 6.4 0 0 1-.02.502c-.257-3.227-2.965-5.776-6.257-5.776s-6 2.549-6.257 5.776a6.285 6.285 0 0 1 6.257-6.78 6.285 6.285 0 0 1 6.277 6.278z"/></g></g><g><path fill="#29a5dc" d="M370.59 109.686c-.362.412-.358.68 0 1.095 1.235 1.42 2.47 2.839 3.703 4.259a5.32 5.32 0 0 0 2.757-4.663 5.318 5.318 0 0 0-2.898-4.738c-1.187 1.349-2.376 2.697-3.562 4.047z"/></g><g><path fill="#fcfcfc" d="M376.211 109.254l-.06.348a.152.152 0 0 1-.15.126h-2.847c-.363.005-.707.352-.709.715a.454.454 0 0 0 .43.462c.08.005.812.004.892.002.017-.001.047-.018.05-.032.021-.103.038-.207.057-.317h-.53c.03-.161.055-.316.083-.474h1.006l-.226 1.289c-.007.004-.66.008-.664.008-.298-.006-.598.036-.892-.026-.326-.066-.654-.398-.674-.775-.03-.542.23-.923.686-1.185.176-.101.371-.145.577-.142.205.004 2.94 0 2.971 0z"/></g><g><path fill="#fcfcfc" d="M374.909 110.08l-.125.707c-.035.194-.07.39-.104.592.155 0 .23.002.38-.002.013 0 .104.002.123-.108l.205-1.19z"/></g><g><path fill="#f0f" d="M369.394 111.961c-.272-.31-.572-.302-.856.01-.414.451-.82.91-1.229 1.367a5.316 5.316 0 0 0 5.276 2.29c-1.061-1.223-2.122-2.449-3.19-3.667z"/></g><g><path fill="#29a5dc" d="M368.47 108.395c.372.423.654.42 1.03-.01l2.867-3.29a5.312 5.312 0 0 0-4.919 2.125c.34.392.68.784 1.023 1.175z"/></g><g><path fill="#f0f" d="M367.472 109.827c-.015-.02-.527-.547-.864-.891a5.312 5.312 0 0 0-.027 2.783c.353-.426.796-.948.886-1.06.228-.284.225-.54.005-.832z"/></g><g opacity=".27"><g opacity=".27"><path fill="#fce5e5" d="M377.832 103.786l-13.558 11.69a8.937 8.937 0 0 1-1.591-4.908l10.53-9.079a8.97 8.97 0 0 1 4.619 2.297z"/></g></g><g opacity=".27"><g opacity=".27"><path fill="#fce5e5" d="M379.873 106.62l-12.642 11.49c-.906-.458-1.335-.778-2.034-1.503l13.617-11.74c.613.794.74.783 1.06 1.754z"/></g></g><g><path fill="#371a45" d="M364.973 110.362c0-3.7 3.01-6.71 6.71-6.71s6.71 3.01 6.71 6.71a6.719 6.719 0 0 1-6.71 6.71c-3.7 0-6.71-3.01-6.71-6.71zm.866 0a5.851 5.851 0 0 0 5.844 5.845 5.852 5.852 0 0 0 5.845-5.845 5.851 5.851 0 0 0-5.845-5.844 5.851 5.851 0 0 0-5.844 5.844z"/></g><g><path fill="#371a45" d="M367.393 118.85a9.517 9.517 0 0 1-5.217-8.487c0-5.244 4.265-9.509 9.507-9.509a9.453 9.453 0 0 1 6.495 2.563c.375.352.724.736 1.037 1.141a9.4 9.4 0 0 1 1.494 2.812c.32.958.482 1.965.482 2.993 0 5.242-4.265 9.507-9.508 9.507a9.405 9.405 0 0 1-4.29-1.02zm-4.207-8.487a8.432 8.432 0 0 0 1.504 4.825 8.488 8.488 0 0 0 6.993 3.672c4.686 0 8.498-3.812 8.498-8.497 0-.919-.145-1.819-.431-2.675a8.37 8.37 0 0 0-1.335-2.512 8.717 8.717 0 0 0-.928-1.022 8.449 8.449 0 0 0-5.804-2.29c-4.685 0-8.497 3.813-8.497 8.5z"/></g><g><path fill="#e8eefc" d="M386.438 39.578a7.051 7.051 0 0 1-14.101.161l-.002-.16a7.052 7.052 0 1 1 14.103 0z"/></g><g><path fill="#371a45" d="M376.185 45.91a7.13 7.13 0 0 1-2.637-2.303 7.04 7.04 0 0 1-1.253-3.867l-.002-.162c0-3.912 3.182-7.095 7.093-7.095.405 0 .811.035 1.206.103a7.043 7.043 0 0 1 3.64 1.81c.28.262.54.55.774.852.49.635.865 1.341 1.114 2.097.24.715.36 1.467.36 2.233 0 3.911-3.182 7.094-7.094 7.094a7.029 7.029 0 0 1-3.2-.762zm-3.808-6.332l.003.156a6.958 6.958 0 0 0 1.238 3.825 7.012 7.012 0 0 0 2.605 2.275c.987.5 2.051.753 3.163.753a7.017 7.017 0 0 0 6.654-9.216 6.909 6.909 0 0 0-1.1-2.07 6.961 6.961 0 0 0-4.361-2.63 6.976 6.976 0 0 0-1.193-.103c-3.865 0-7.009 3.145-7.009 7.01z"/></g><g opacity=".55"><g opacity=".55"><path fill="#fff" d="M386.438 39.578c0 .176-.007.352-.02.525a7.05 7.05 0 0 0-14.063 0 7.052 7.052 0 1 1 14.083-.525z"/></g></g><g><path fill="#b2c6e5" d="M386.438 39.578a7.051 7.051 0 1 1-14.033-.993 7.053 7.053 0 0 0 13.963 0c.046.325.07.656.07.993z"/></g><g><path fill="#d9e3fa" d="M379.387 44.495a4.923 4.923 0 0 1-4.917-4.917 4.923 4.923 0 0 1 4.917-4.917 4.923 4.923 0 0 1 4.917 4.917 4.923 4.923 0 0 1-4.917 4.917z"/></g><g opacity=".55"><g opacity=".55"><path fill="#fff" d="M384.303 39.578c0 .133-.006.264-.016.393a4.923 4.923 0 0 0-4.9-4.524 4.923 4.923 0 0 0-4.9 4.524 4.923 4.923 0 0 1 4.9-5.311 4.924 4.924 0 0 1 4.916 4.918z"/></g></g><g><path fill="#29a5dc" d="M378.53 39.048c-.283.323-.28.533.001.857l2.9 3.337a4.167 4.167 0 0 0-.11-7.364c-.93 1.057-1.862 2.112-2.79 3.17z"/></g><g><path fill="#fcfcfc" d="M382.934 38.71l-.048.272a.118.118 0 0 1-.118.099h-2.23a.594.594 0 0 0-.554.56c0 .195.143.35.337.362.063.004.636.003.698 0 .014 0 .037-.012.04-.023.017-.081.029-.162.044-.248h-.415l.065-.372h.788l-.177 1.01c-.005.003-.517.006-.52.006-.233-.004-.468.028-.7-.02-.254-.052-.511-.312-.527-.607-.022-.425.18-.724.538-.928a.855.855 0 0 1 .452-.111c.16.002 2.302 0 2.327 0z"/></g><g><path fill="#fcfcfc" d="M381.913 39.356l-.098.554-.082.465c.122 0 .181.001.3-.002.008 0 .08.001.095-.085l.16-.932z"/></g><g><path fill="#f0f" d="M377.594 40.83c-.213-.243-.448-.236-.67.007-.325.355-.643.713-.963 1.072a4.162 4.162 0 0 0 4.133 1.793c-.833-.958-1.663-1.918-2.5-2.872z"/></g><g><path fill="#29a5dc" d="M376.87 38.037c.291.33.512.329.806-.008.75-.858 1.498-1.718 2.246-2.577a4.161 4.161 0 0 0-3.853 1.665c.267.307.533.614.801.92z"/></g><g><path fill="#f0f" d="M376.088 39.158a71.9 71.9 0 0 0-.677-.698 4.165 4.165 0 0 0-.021 2.18c.277-.334.624-.742.694-.83.179-.223.176-.423.004-.652z"/></g><g opacity=".27"><g opacity=".27"><path fill="#fce5e5" d="M384.203 34.427l-10.62 9.157a7.011 7.011 0 0 1-1.246-3.845l8.248-7.111a7.024 7.024 0 0 1 3.618 1.799z"/></g></g><g opacity=".27"><g opacity=".27"><path fill="#fce5e5" d="M385.802 36.647l-9.901 9c-.711-.36-1.047-.61-1.594-1.178l10.666-9.195c.48.621.579.612.829 1.373z"/></g></g><g><path fill="#371a45" d="M374.13 39.578a5.262 5.262 0 0 1 5.256-5.256 5.262 5.262 0 0 1 5.256 5.256 5.262 5.262 0 0 1-5.256 5.256 5.262 5.262 0 0 1-5.256-5.256zm.678 0a4.584 4.584 0 0 0 4.578 4.578 4.584 4.584 0 0 0 4.578-4.578A4.583 4.583 0 0 0 379.386 35a4.583 4.583 0 0 0-4.578 4.578z"/></g><g><path fill="#371a45" d="M376.026 46.226a7.458 7.458 0 0 1-4.087-6.647c0-4.107 3.341-7.45 7.447-7.45a7.416 7.416 0 0 1 5.899 2.902c.516.669.91 1.41 1.171 2.204a7.4 7.4 0 0 1 .377 2.344c0 4.106-3.34 7.447-7.447 7.447a7.364 7.364 0 0 1-3.36-.8zm-3.295-6.647l.002.149a6.608 6.608 0 0 0 1.858 4.466 6.698 6.698 0 0 0 1.792 1.326 6.663 6.663 0 0 0 9.322-8.036 6.59 6.59 0 0 0-1.046-1.968 6.616 6.616 0 0 0-4.141-2.497 6.664 6.664 0 0 0-7.787 6.56z"/></g><g><path fill="#e8eefc" d="M399.858 59.59a5.59 5.59 0 0 1-11.18.126v-.127a5.59 5.59 0 1 1 11.18 0z"/></g><g><path fill="#371a45" d="M391.73 64.609a5.617 5.617 0 0 1-2.09-1.825 5.583 5.583 0 0 1-.994-3.066l-.002-.129a5.63 5.63 0 0 1 6.58-5.543 5.588 5.588 0 0 1 3.499 2.111 5.589 5.589 0 0 1 1.169 3.432 5.63 5.63 0 0 1-5.624 5.624 5.564 5.564 0 0 1-2.538-.604zm-3.018-5.02v.124a5.526 5.526 0 0 0 1.554 3.73c.435.452.939.824 1.495 1.106a5.497 5.497 0 0 0 2.507.597 5.563 5.563 0 0 0 5.275-7.306 5.562 5.562 0 0 0-5.275-3.808 5.563 5.563 0 0 0-5.556 5.557z"/></g><g opacity=".55"><g opacity=".55"><path fill="#fff" d="M399.858 59.59c0 .14-.005.278-.015.415a5.59 5.59 0 0 0-11.15 0 5.59 5.59 0 1 1 11.165-.416z"/></g></g><g><path fill="#b2c6e5" d="M399.858 59.59a5.59 5.59 0 1 1-11.125-.788 5.591 5.591 0 0 0 11.069 0c.037.257.056.52.056.787z"/></g><g><path fill="#d9e3fa" d="M394.268 63.487a3.903 3.903 0 0 1-3.898-3.898 3.903 3.903 0 0 1 3.898-3.898 3.903 3.903 0 0 1 3.898 3.898 3.903 3.903 0 0 1-3.898 3.898z"/></g><g opacity=".55"><g opacity=".55"><path fill="#fff" d="M398.166 59.59c0 .104-.004.208-.013.311a3.904 3.904 0 0 0-3.885-3.587 3.904 3.904 0 0 0-3.885 3.587 3.902 3.902 0 0 1 3.885-4.21 3.903 3.903 0 0 1 3.898 3.898z"/></g></g><g><path fill="#29a5dc" d="M393.589 59.169c-.225.256-.222.423 0 .68.767.882 1.534 1.763 2.299 2.645a3.303 3.303 0 0 0-.087-5.838c-.737.838-1.476 1.675-2.212 2.513z"/></g><g><path fill="#fcfcfc" d="M397.08 58.9l-.038.217a.094.094 0 0 1-.093.078h-1.767a.471.471 0 0 0-.44.444.281.281 0 0 0 .267.287c.05.003.504.003.553 0 .01 0 .03-.01.03-.018.015-.064.025-.13.036-.197h-.328l.05-.295h.626l-.14.8a28.96 28.96 0 0 1-.413.006c-.185-.004-.371.022-.553-.016a.554.554 0 0 1-.42-.482c-.017-.336.143-.573.427-.735a.675.675 0 0 1 .358-.088c.128.002 1.825 0 1.845 0z"/></g><g><path fill="#fcfcfc" d="M396.271 59.413l-.078.44-.065.367h.237c.007 0 .064 0 .076-.068l.127-.739z"/></g><g><path fill="#f0f" d="M392.847 60.582c-.17-.193-.355-.187-.531.006-.257.28-.51.565-.763.849a3.298 3.298 0 0 0 3.276 1.422c-.66-.76-1.318-1.521-1.982-2.277z"/></g><g><path fill="#29a5dc" d="M392.273 58.367c.23.263.406.261.639-.006.594-.68 1.187-1.362 1.78-2.043a3.3 3.3 0 0 0-3.054 1.319c.21.244.423.488.635.73z"/></g><g><path fill="#f0f" d="M391.653 59.257c-.01-.012-.328-.34-.537-.553a3.295 3.295 0 0 0-.016 1.728c.219-.265.494-.59.55-.658.142-.177.14-.336.003-.517z"/></g><g opacity=".27"><g opacity=".27"><path fill="#fce5e5" d="M398.086 55.506l-8.42 7.259a5.56 5.56 0 0 1-.987-3.048l6.539-5.637a5.572 5.572 0 0 1 2.868 1.426z"/></g></g><g opacity=".27"><g opacity=".27"><path fill="#fce5e5" d="M399.353 57.266l-7.85 7.135c-.563-.285-.829-.484-1.263-.934l8.456-7.29c.38.493.458.486.657 1.089z"/></g></g><g><path fill="#371a45" d="M390.1 59.589a4.173 4.173 0 0 1 4.168-4.167 4.172 4.172 0 0 1 4.167 4.167 4.171 4.171 0 0 1-4.167 4.167 4.172 4.172 0 0 1-4.167-4.167zm.539 0a3.633 3.633 0 0 0 3.629 3.629 3.633 3.633 0 0 0 3.629-3.629 3.633 3.633 0 0 0-3.63-3.629 3.633 3.633 0 0 0-3.628 3.629z"/></g><g><path fill="#371a45" d="M391.604 64.86a5.895 5.895 0 0 1-2.195-1.918 5.864 5.864 0 0 1-1.043-3.219l-.002-.134a5.91 5.91 0 0 1 6.908-5.819 5.868 5.868 0 0 1 3.673 2.215 5.873 5.873 0 0 1 1.227 3.604 5.911 5.911 0 0 1-5.904 5.904 5.84 5.84 0 0 1-2.664-.634zm-2.612-5.27a5.233 5.233 0 0 0 .934 2.997 5.29 5.29 0 0 0 1.961 1.713 5.28 5.28 0 0 0 7.39-6.371 5.191 5.191 0 0 0-.83-1.56 5.243 5.243 0 0 0-3.283-1.98 5.282 5.282 0 0 0-6.173 5.2z"/></g><g><path fill="#f9f9f9" d="M369.823 122.581c-.656.176-1.332.244-2.01.28a11.359 11.359 0 0 1-2.04-.103c-1.358-.18-2.712-.634-3.903-1.423a7.547 7.547 0 0 1-1.616-1.422 7.895 7.895 0 0 1-1.166-1.842c-.599-1.334-.84-2.8-.79-4.224.29 1.392.701 2.73 1.355 3.903a8.999 8.999 0 0 0 1.17 1.596l.34.35.365.322c.25.205.504.408.778.58 1.078.717 2.306 1.187 3.578 1.494.637.148 1.286.27 1.944.343.658.084 1.322.13 1.995.146z"/></g><g><path fill="#f9f9f9" d="M382.466 115.238c-.021.097.008.194.023.293l.052.299c.034.2.053.403.073.609.028.412.013.835-.056 1.255-.135.838-.525 1.673-1.128 2.283a4.475 4.475 0 0 1-.996.765c-.184.089-.363.193-.554.258-.095.035-.188.074-.283.105l-.287.082a5.524 5.524 0 0 1-2.317.112c.734-.25 1.446-.473 2.102-.784.33-.148.64-.328.937-.516.29-.2.56-.418.803-.667.485-.494.84-1.114 1.076-1.817.12-.35.21-.721.287-1.103.04-.192.07-.386.108-.584l.056-.3c.026-.096.037-.21.104-.29z"/></g><g><path fill="#f9f9f9" d="M384.28 119.688c-.038.077-.034.167-.04.254l-.018.267c-.01.177-.032.355-.056.534a4.988 4.988 0 0 1-.282 1.056c-.264.686-.739 1.312-1.35 1.717a3.87 3.87 0 0 1-.973.465 4.303 4.303 0 0 1-1.033.178 5.208 5.208 0 0 1-2.014-.282c.674-.04 1.33-.08 1.96-.208.314-.063.617-.154.912-.259.291-.115.57-.254.826-.427.518-.342.936-.829 1.256-1.404.157-.288.296-.595.416-.917.063-.16.12-.325.178-.49l.09-.25c.035-.08.06-.176.128-.235z"/></g><g><path fill="#f9f9f9" d="M378.892 50.435c-.562.16-1.141.221-1.722.253a9.25 9.25 0 0 1-1.75-.092c-1.162-.165-2.322-.575-3.342-1.289a6.62 6.62 0 0 1-1.385-1.289 7.246 7.246 0 0 1-1-1.669c-.513-1.209-.72-2.537-.677-3.827.249 1.262.6 2.473 1.162 3.536a8.15 8.15 0 0 0 1 1.446l.293.317.313.292c.215.186.432.37.667.525.923.65 1.976 1.076 3.066 1.354.546.134 1.102.244 1.666.311.563.075 1.132.118 1.709.132z"/></g><g><path fill="#f9f9f9" d="M389.726 43.782c-.018.09.007.176.02.266l.044.27c.029.182.046.366.062.553a5.17 5.17 0 0 1-.047 1.136c-.116.76-.45 1.515-.967 2.07a3.906 3.906 0 0 1-.853.692c-.158.08-.311.174-.475.233-.081.032-.161.068-.242.096l-.247.074a4.499 4.499 0 0 1-1.985.101c.629-.226 1.239-.429 1.802-.71.284-.135.548-.297.803-.468a4.49 4.49 0 0 0 .687-.604c.416-.447.722-1.009.923-1.646a8.43 8.43 0 0 0 .246-.999c.035-.174.06-.35.092-.53l.048-.27c.022-.088.03-.19.089-.264z"/></g><g><path fill="#f9f9f9" d="M391.28 47.814c-.032.07-.028.152-.035.23l-.014.242a7.367 7.367 0 0 1-.048.485c-.05.322-.124.646-.242.955-.225.622-.633 1.19-1.157 1.557a3.287 3.287 0 0 1-.834.42 3.531 3.531 0 0 1-.885.16 4.243 4.243 0 0 1-1.725-.253c.577-.037 1.139-.073 1.678-.19.27-.056.53-.138.783-.233a3.69 3.69 0 0 0 .708-.388c.443-.31.8-.75 1.076-1.271.134-.262.254-.54.357-.832.054-.145.1-.294.152-.444l.077-.226c.03-.072.05-.16.11-.212z"/></g></g></svg>