<svg xmlns="http://www.w3.org/2000/svg" width="284" height="72" viewBox="0 0 284 72"><g><g><path fill="#3a18e6" d="M17.337 53.974v17.564H.923V.755h74.129C87.178.755 91.466 6.4 91.466 16.75v19.866c0 12.233-4.286 17.357-16.414 17.357zM75.053 20.62c0-4.078-1.674-6.168-5.96-6.168H17.338V40.59h51.754c4.287 0 5.96-2.092 5.96-6.692z"/></g><g><path fill="#3a18e6" d="M173.22 71.537c-1.15-.836-1.778-2.09-1.778-4.6V53.766c0-4.602-2.928-6.379-7.424-6.379H110.8v24.151H94.386V.755h75.906c12.023 0 16.415 5.646 16.415 15.996v9.097c0 11.71-5.75 13.488-10.038 14.115 4.391.419 11.082 2.719 11.082 13.592v13.383c0 2.51.733 3.763 1.882 4.6zm-2.824-50.917c0-4.078-1.673-6.168-6.064-6.168H110.8v19.865h52.8c4.077 0 6.796-1.569 6.796-6.169z"/></g><g><path fill="#3a18e6" d="M212.734 71.538c-14.846 0-21.747-7.632-21.747-23.002V23.757c0-15.369 6.9-23.002 21.747-23.002h49.453c14.847 0 21.643 7.633 21.643 23.002v24.779c0 15.37-6.796 23.002-21.643 23.002zm54.68-46.108c0-6.482-2.717-9.619-8.781-9.619h-42.344c-6.064 0-8.783 3.137-8.783 9.619v21.433c0 6.274 2.719 9.515 8.783 9.515h42.344c6.064 0 8.782-3.241 8.782-9.515z"/></g></g></svg>