<svg width="1433" height="226" viewBox="0 0 1433 226" fill="none" xmlns="http://www.w3.org/2000/svg">
<g style="mix-blend-mode:overlay" opacity="0.55">
<path d="M1319.42 1.00003C1291.25 1.0011 1264.12 11.6586 1243.47 30.8334C1222.83 50.0082 1210.21 76.2811 1208.13 104.379H1128.3C1126.22 76.2807 1113.6 50.0072 1092.95 30.8322C1072.31 11.6571 1045.18 1 1017 1C988.83 1 961.698 11.6571 941.056 30.8322C920.413 50.0072 907.788 76.2807 905.714 104.379H826.187C824.113 76.2807 811.487 50.0072 790.845 30.8322C770.202 11.6572 743.071 1.00007 714.896 1.00007C686.722 1.00007 659.59 11.6572 638.947 30.8322C618.305 50.0072 605.679 76.2807 603.605 104.379H527.072C524.998 76.2807 512.372 50.0072 491.73 30.8322C471.087 11.6572 443.956 1.00007 415.781 1.00007C387.607 1.00007 360.475 11.6572 339.832 30.8322C319.19 50.0072 306.564 76.2807 304.49 104.379H223.805C221.703 76.0411 208.866 49.5737 187.915 30.378C166.963 11.1823 139.476 0.705382 111.063 1.08536C82.6506 1.46534 55.4536 12.6736 35.0229 32.4227C14.5923 52.1718 2.46818 78.973 1.12483 107.357C-0.21851 135.74 9.32021 163.567 27.7943 185.157C46.2684 206.748 72.2853 220.474 100.535 223.536C128.785 226.598 157.139 218.764 179.81 201.633C202.48 184.502 217.759 159.365 222.528 131.352H305.767C310.198 157.322 323.673 180.886 343.807 197.876C363.941 214.866 389.437 224.186 415.781 224.186C442.126 224.186 467.621 214.866 487.756 197.876C507.89 180.886 521.365 157.322 525.796 131.352H604.882C609.313 157.322 622.788 180.886 642.922 197.876C663.056 214.866 688.551 224.186 714.896 224.186C741.241 224.186 766.736 214.866 786.87 197.876C807.005 180.886 820.479 157.322 824.91 131.352H906.99C911.421 157.322 924.896 180.886 945.03 197.876C965.165 214.866 990.66 224.186 1017 224.186C1043.35 224.186 1068.84 214.866 1088.98 197.876C1109.11 180.886 1122.59 157.322 1127.02 131.352H1209.41C1212.98 152.32 1222.47 171.829 1236.77 187.582C1251.06 203.335 1269.55 214.675 1290.07 220.268C1310.6 225.861 1332.29 225.472 1352.6 219.148C1372.9 212.825 1390.98 200.829 1404.7 184.575C1418.42 168.32 1427.21 148.484 1430.03 127.402C1432.85 106.32 1429.59 84.8709 1420.63 65.5808C1411.67 46.2908 1397.38 29.9634 1379.45 18.5218C1361.52 7.08016 1340.69 1.00089 1319.42 1.00003V1.00003Z" stroke="white" stroke-width="2" stroke-miterlimit="10"/>
</g>
</svg>
