<svg width="44" height="44" viewBox="0 0 44 44" fill="none" xmlns="http://www.w3.org/2000/svg">
<path d="M42.1699 17.83C43.2799 23.072 42.262 28.5402 39.3401 33.0317C36.4183 37.5231 31.8319 40.67 26.5899 41.7799C21.3479 42.8899 15.8797 41.8721 11.3882 38.9502C6.89671 36.0284 3.74986 31.442 2.63993 26.2C2.61991 26.0473 2.58646 25.8967 2.53994 25.7499C1.75603 21.8833 2.12097 17.8719 3.58976 14.2102C5.05854 10.5486 7.56694 7.39698 10.8056 5.14396C14.0442 2.89094 17.8715 1.63506 21.8154 1.53129C25.7593 1.42752 29.6473 2.48038 32.9999 4.55997C33.9314 5.15575 34.8142 5.82452 35.6399 6.55997C39.0026 9.49565 41.2987 13.462 42.1699 17.84V17.83Z" fill="#E8EEFC"/>
<path d="M26.3499 41.73C21.1402 42.7726 15.7293 41.7343 11.2755 38.8374C6.82167 35.9405 3.67892 31.4151 2.51995 26.23C2.50207 26.077 2.46855 25.9261 2.41994 25.7799C1.63589 21.8331 2.03919 17.7424 3.57891 14.0247C5.11862 10.3069 7.72567 7.12898 11.0707 4.89222C14.4157 2.65545 18.3486 1.46026 22.3726 1.45765C26.3965 1.45503 30.331 2.64516 33.6789 4.87757C37.0268 7.10998 39.638 10.2845 41.1825 14.0002C42.7271 17.716 43.1357 21.8062 42.3568 25.754C41.5779 29.7019 39.6464 33.3303 36.8062 36.1809C33.9661 39.0315 30.3449 40.9764 26.3999 41.7699L26.3499 41.73ZM18.4199 2.08997C13.2046 3.14902 8.62132 6.23107 5.67324 10.6616C2.72516 15.0922 1.65246 20.5103 2.68995 25.73L2.77994 26.1699C3.63036 29.9996 5.58825 33.4946 8.40995 36.22C9.1911 36.9787 10.034 37.671 10.93 38.2899C13.5381 40.0992 16.538 41.2648 19.6835 41.691C22.8291 42.1173 26.0309 41.792 29.0266 40.7419C32.0222 39.6919 34.7263 37.947 36.9174 35.6502C39.1085 33.3533 40.7242 30.57 41.632 27.5282C42.5397 24.4865 42.7138 21.2729 42.14 18.1509C41.5661 15.0289 40.2606 12.0872 38.3304 9.56714C36.4003 7.04705 33.9004 5.02021 31.0357 3.65271C28.1711 2.28522 25.0232 1.61605 21.8499 1.69996C20.6974 1.72869 19.5496 1.85921 18.4199 2.08997Z" fill="#371A45"/>
<g opacity="0.55">
<path opacity="0.55" d="M42.1699 17.83C42.2699 18.32 42.3499 18.8299 42.4199 19.3099C41.0576 14.3886 37.8829 10.1655 33.5339 7.48938C29.1849 4.81327 23.9841 3.88259 18.977 4.88452C13.9698 5.88646 9.5276 8.74662 6.54324 12.8901C3.55887 17.0337 2.25364 22.1534 2.88992 27.22C2.75992 26.74 2.63993 26.2199 2.53993 25.7499C1.48954 20.4942 2.56997 15.0366 5.54354 10.5775C8.51712 6.11846 13.1403 3.02329 18.3959 1.9729C23.6516 0.922513 29.1093 2.00299 33.5683 4.97656C38.0274 7.95014 41.1225 12.5733 42.1729 17.829L42.1699 17.83Z" fill="white"/>
</g>
<path d="M42.1699 17.83C42.69 20.4323 42.6925 23.1116 42.1771 25.7148C41.6617 28.3181 40.6387 30.7944 39.1663 33.0023C37.6939 35.2102 35.8011 37.1065 33.5959 38.5829C31.3907 40.0593 28.9163 41.0868 26.3139 41.6069C23.7116 42.127 21.0323 42.1295 18.429 41.6141C15.8257 41.0988 13.3494 40.0756 11.1415 38.6033C8.93364 37.1309 7.03737 35.2382 5.56099 33.033C4.08461 30.8277 3.05703 28.3533 2.53693 25.751C2.34915 24.8173 2.22984 23.871 2.17993 22.9199C3.79703 27.5106 7.01648 31.3634 11.2467 33.7705C15.4769 36.1776 20.4337 36.9773 25.2063 36.0226C29.9789 35.0678 34.2466 32.4227 37.2252 28.5735C40.2039 24.7242 41.6933 19.9294 41.4199 15.0699C41.7377 15.9702 41.9884 16.8927 42.1699 17.83Z" fill="#B2C6E5"/>
<path d="M25.1199 35.61C22.3877 36.1547 19.5553 35.8771 16.9808 34.8124C14.4062 33.7478 12.2051 31.9438 10.6556 29.6285C9.10609 27.3131 8.27775 24.5904 8.27527 21.8044C8.27279 19.0184 9.09628 16.2942 10.6417 13.9761C12.1871 11.658 14.385 9.85018 16.9576 8.78094C19.5302 7.71169 22.3621 7.42912 25.0953 7.96893C27.8285 8.50873 30.3403 9.84665 32.3133 11.8137C34.2863 13.7807 35.6318 16.2884 36.1799 19.02C36.5442 20.8356 36.547 22.7052 36.1882 24.5219C35.8294 26.3386 35.116 28.0668 34.0888 29.6076C33.0616 31.1484 31.7408 32.4716 30.2018 33.5015C28.6629 34.5315 26.936 35.248 25.1199 35.61Z" fill="#D9E3FA"/>
<g opacity="0.55">
<path opacity="0.55" d="M36.1799 19.0299C36.2499 19.3999 36.3099 19.7699 36.3499 20.1399C35.387 16.7248 33.1711 13.7987 30.1448 11.9462C27.1185 10.0937 23.5047 9.45124 20.0253 10.1471C16.546 10.843 13.4573 12.826 11.3763 15.7C9.29527 18.5739 8.37522 22.1272 8.79991 25.6499C8.69991 25.2899 8.60992 24.9299 8.53992 24.5499C8.16998 22.7322 8.16255 20.8593 8.51807 19.0386C8.87359 17.2179 9.58506 15.4853 10.6117 13.9402C11.6383 12.3951 12.9598 11.068 14.5005 10.0348C16.0412 9.00161 17.7707 8.28275 19.5898 7.91945C21.4089 7.55615 23.2819 7.55545 25.1013 7.91762C26.9206 8.27979 28.6506 8.99768 30.1919 10.0299C31.7332 11.0622 33.0556 12.3886 34.0831 13.933C35.1107 15.4774 35.8232 17.2095 36.1799 19.0299Z" fill="white"/>
</g>
<path d="M19.6899 20.7799C19.5339 20.9593 19.4212 21.1722 19.3607 21.4021C19.3001 21.632 19.2933 21.8727 19.3406 22.1057C19.388 22.3387 19.4883 22.5577 19.6339 22.7457C19.7794 22.9337 19.9662 23.0857 20.1798 23.1899L30.1798 30.9399C31.8239 29.5332 33.057 27.708 33.7485 25.6577C34.4401 23.6074 34.5645 21.4084 34.1085 19.2932C33.6524 17.178 32.633 15.2255 31.158 13.6423C29.6831 12.0592 27.8075 10.9043 25.7299 10.2999L19.6899 20.7799Z" fill="#29A5DC"/>
<path d="M31.8398 17.35V18.1499C31.8392 18.2301 31.811 18.3076 31.76 18.3695C31.7091 18.4314 31.6384 18.474 31.5598 18.49C30.3498 18.73 25.6298 19.6699 25.2998 19.7499C24.8975 19.856 24.5481 20.106 24.3177 20.4525C24.0873 20.799 23.992 21.2178 24.0498 21.6299C24.0705 21.7601 24.1167 21.8849 24.1858 21.9972C24.2548 22.1095 24.3454 22.2069 24.4523 22.2841C24.5591 22.3612 24.6802 22.4165 24.8085 22.4467C24.9368 22.4768 25.0698 22.4814 25.1999 22.46L27.1999 22.0699C27.1999 22.0699 27.2898 22.01 27.2898 21.98V21.2599L26.1198 21.49V20.4099L28.3398 19.96L28.4098 22.8999L26.9499 23.21C26.2949 23.384 25.6255 23.4977 24.9499 23.5499C24.5364 23.5331 24.1384 23.3884 23.8107 23.1359C23.4829 22.8833 23.2415 22.5353 23.1198 22.1399C22.976 21.6105 22.9945 21.0501 23.1728 20.5312C23.3511 20.0124 23.681 19.5592 24.1198 19.23C24.4619 18.9306 24.8812 18.733 25.3299 18.6599C25.7499 18.5599 31.7698 17.37 31.8398 17.35Z" fill="#FCFCFC"/>
<path d="M29.33 19.7499V22.71L30.17 22.5399C30.237 22.5255 30.2964 22.4871 30.337 22.4318C30.3775 22.3765 30.3964 22.3083 30.39 22.24C30.39 21.3 30.3899 20.4799 30.3199 19.5299L29.33 19.7499Z" fill="#FCFCFC"/>
<path d="M18.0199 26.3199C17.8862 26.1832 17.7203 26.0823 17.5374 26.0265C17.3545 25.9707 17.1605 25.9619 16.9732 26.0007C16.786 26.0396 16.6115 26.1248 16.4659 26.2488C16.3203 26.3727 16.2082 26.5313 16.1399 26.7099C15.4299 27.8899 14.7399 29.0799 14.0399 30.2699C15.4303 31.6538 17.1406 32.6736 19.0192 33.2388C20.8978 33.8039 22.8867 33.897 24.8099 33.5099C25.4394 33.3817 26.058 33.2046 26.6599 32.98C23.7899 30.76 20.9099 28.5599 18.0199 26.3199Z" fill="#FF00FF"/>
<path d="M14.4199 18.87C15.4199 19.64 16.0399 19.5099 16.6799 18.3999L21.5399 9.88989C19.4343 10.0601 17.411 10.7833 15.6745 11.9861C13.9379 13.1889 12.5496 14.8287 11.6499 16.74L14.4199 18.87Z" fill="#29A5DC"/>
<path d="M12.8499 22.46L10.5599 20.8799C10.4727 21.9705 10.5401 23.0681 10.7599 24.1399C10.9683 25.1388 11.3044 26.1068 11.7599 27.0199C12.3499 25.9299 13.0999 24.5799 13.2499 24.2999C13.4335 24.0009 13.4944 23.6425 13.4198 23.2996C13.3453 22.9567 13.1411 22.6558 12.8499 22.46Z" fill="#FF00FF"/>
<g opacity="0.27">
<path opacity="0.27" d="M32.9999 4.55889L8.2999 36.2688C5.46034 33.5286 3.49162 30.012 2.63989 26.1589L21.8199 1.55889C25.7595 1.44619 29.6459 2.48907 32.9999 4.55889Z" fill="#FCE5E5"/>
</g>
<g opacity="0.27">
<path opacity="0.27" d="M38.7399 9.94995L15.97 40.8099C14.1135 40.3509 12.3665 39.5283 10.83 38.3899L35.69 6.55994C37.34 8.02994 37.6099 7.94995 38.7399 9.94995Z" fill="#FCE5E5"/>
</g>
<path d="M25.3099 36.56C22.3895 37.1425 19.3619 36.8462 16.6099 35.7084C13.8579 34.5707 11.505 32.6425 9.84855 30.1678C8.19213 27.693 7.30658 24.7828 7.30384 21.8049C7.3011 18.8269 8.18129 15.915 9.83315 13.4372C11.485 10.9594 13.8344 9.02692 16.5843 7.88409C19.3342 6.74126 22.3612 6.43936 25.2827 7.01654C28.2042 7.59371 30.889 9.02405 32.9977 11.1268C35.1064 13.2295 36.5444 15.9102 37.1299 18.83C37.519 20.7704 37.5218 22.7684 37.1383 24.7099C36.7547 26.6514 35.9923 28.4981 34.8945 30.1447C33.7968 31.7913 32.3853 33.2054 30.7407 34.3062C29.0961 35.407 27.2506 36.1729 25.3099 36.56ZM19.7799 8.91998C17.2357 9.42885 14.8996 10.6806 13.0668 12.517C11.2339 14.3534 9.98676 16.6921 9.48289 19.2372C8.97901 21.7824 9.24109 24.4198 10.236 26.816C11.2308 29.2122 12.9138 31.2597 15.0722 32.6995C17.2305 34.1394 19.7673 34.9069 22.3619 34.9052C24.9564 34.9035 27.4922 34.1325 29.6486 32.6898C31.8051 31.247 33.4853 29.1973 34.477 26.7997C35.4686 24.4022 35.7272 21.7645 35.2199 19.22C34.8829 17.5297 34.2161 15.9223 33.2577 14.4897C32.2992 13.0571 31.0679 11.8274 29.634 10.8709C28.2002 9.91438 26.5919 9.24971 24.9011 8.91498C23.2103 8.58024 21.47 8.58193 19.7799 8.91998Z" fill="#371A45"/>
<path d="M26.5399 42.72C23.7246 43.2847 20.8241 43.2746 18.0128 42.6903C15.2014 42.106 12.5371 40.9597 10.1799 39.32C9.22915 38.6636 8.33593 37.9277 7.50991 37.12C4.50186 34.2325 2.41441 30.5203 1.50991 26.45C1.49308 26.2902 1.45955 26.1327 1.4099 25.98C0.525256 21.6081 1.03354 17.0689 2.86325 13.001C4.69297 8.93309 7.75202 5.54125 11.61 3.30262C15.468 1.06398 19.9308 0.0912097 24.3705 0.521245C28.8101 0.951281 33.0033 2.7625 36.3599 5.69996C38.1749 7.27085 39.7071 9.1413 40.8899 11.23C42.5628 14.1669 43.5141 17.4591 43.6655 20.8356C43.817 24.2121 43.1642 27.5764 41.7611 30.6513C40.3579 33.7261 38.2444 36.4238 35.5946 38.522C32.9448 40.6202 29.8346 42.059 26.5199 42.72H26.5399ZM18.6199 3.07996C13.6614 4.0855 9.30441 7.01733 6.5053 11.2319C3.70618 15.4465 2.69363 20.5996 3.6899 25.5599L3.7799 25.98C4.58958 29.6156 6.45002 32.933 9.1299 35.5199C9.86897 36.2525 10.6685 36.9216 11.5199 37.5199C15.0783 39.9734 19.3637 41.1474 23.6757 40.8501C27.9877 40.5528 32.0714 38.8017 35.2594 35.8831C38.4473 32.9644 40.5512 29.0508 41.2269 24.7817C41.9027 20.5127 41.1106 16.1405 38.9799 12.3799C37.9204 10.515 36.5508 8.84451 34.9299 7.43995C34.1543 6.75624 33.3212 6.14066 32.4399 5.59998C29.2799 3.63355 25.6103 2.64214 21.8899 2.74988C20.7926 2.76752 19.6986 2.878 18.6199 3.07996Z" fill="#371A45"/>
</svg>
