<svg width="133" height="46" viewBox="0 0 133 46" fill="none" xmlns="http://www.w3.org/2000/svg">
<path d="M68.5002 22.9992C68.5002 23.7992 68.2002 24.4991 67.6002 25.0991C61.1002 31.6992 54.7002 38.3992 48.2002 44.9991C47.0002 46.1992 45.4002 46.2991 44.2002 44.9991C41.7002 42.4991 39.3002 39.9991 36.8002 37.4991C36.4002 37.0991 36.6002 36.8991 36.9002 36.5991C39.9002 33.5991 42.8002 30.4992 45.8002 27.4992C48.5002 24.6992 48.5002 21.3991 45.8002 18.5991C42.8002 15.5991 39.9002 12.4992 36.9002 9.49915C36.5002 9.09915 36.5002 8.89915 36.9002 8.49915C39.3002 6.09915 41.6002 3.69915 44.0002 1.19915C45.4002 -0.200849 47.0002 -0.300849 48.4002 1.19915C54.8002 7.69915 61.2002 14.2992 67.5002 20.7992C68.1002 21.3992 68.5002 22.1992 68.5002 22.9992Z" fill="#30335C"/>
<path d="M22.8002 45.9C21.8002 45.9 21.1002 45.5 20.5002 44.8C15.9002 40.1 11.3002 35.4 6.70019 30.7C5.00019 29 3.3002 27.3 1.6002 25.5C-0.0998046 23.8 -0.0998046 22.2 1.6002 20.5C7.8002 14.1 14.0002 7.8 20.2002 1.4C21.9002 -0.3 23.3002 -0.3 25.0002 1.4C27.3002 3.7 29.5002 6.1 31.8002 8.4C32.2002 8.8 32.2002 9.1 31.8002 9.5C28.8002 12.5 25.9002 15.5 22.9002 18.5C20.2002 21.2 20.2002 24.6 22.9002 27.4C25.9002 30.4 28.8002 33.4 31.8002 36.4C32.2002 36.8 32.3002 37.1 31.8002 37.5C29.4002 39.9 27.1002 42.3 24.8002 44.7C24.3002 45.4 23.6002 45.8 22.8002 45.9Z" fill="#57BB88"/>
<path d="M45.0006 23.0996C45.0006 23.7996 44.8006 24.4996 44.2006 24.9996C41.1006 28.1996 37.9006 31.3996 34.8006 34.5996C34.5006 34.8996 34.3006 34.8996 34.0006 34.5996C30.9006 31.3996 27.7006 28.1996 24.6006 24.9996C23.5006 23.8996 23.5006 22.3996 24.5006 21.0996C24.6006 20.8996 24.8006 20.7996 24.9006 20.5996C27.9006 17.4996 30.9006 14.4996 33.8006 11.3996C34.2006 10.9996 34.4006 10.9996 34.8006 11.3996C37.8006 14.5996 40.9006 17.6996 44.0006 20.7996C44.7006 21.4996 45.0006 22.1996 45.0006 23.0996Z" fill="#57BB88"/>
<path d="M79.4004 15.6984C78.7004 15.6984 78.0004 15.6984 77.3004 15.6984C77.0004 15.6984 76.8004 15.6984 76.8004 16.1984C76.8004 17.5984 76.8004 18.8984 76.8004 20.2984C76.8004 20.5984 76.9004 20.7984 77.3004 20.7984C78.7004 20.7984 80.2004 20.7984 81.6004 20.6984C83.0004 20.5984 83.8004 19.5984 83.8004 18.1984C83.8004 16.7984 82.8004 15.8984 81.4004 15.7984C80.7004 15.6984 80.1004 15.6984 79.4004 15.6984ZM82.8004 22.9984C84.4004 24.7984 85.9004 26.5984 87.5004 28.4984C86.2004 28.4984 85.2004 28.4984 84.1004 28.4984C83.8004 28.4984 83.7004 28.1984 83.5004 27.9984C82.3004 26.5984 81.2004 25.2984 80.0004 23.8984C79.6004 23.4984 79.3004 23.2984 78.7004 23.2984C76.7004 23.2984 76.7004 23.2984 76.7004 25.2984C76.7004 26.1984 76.7004 26.9984 76.7004 27.8984C76.7004 28.3984 76.5004 28.4984 76.1004 28.4984C75.5004 28.4984 74.9004 28.4984 74.4004 28.4984C74.0004 28.4984 73.9004 28.3984 73.9004 27.9984C73.9004 23.1984 73.9004 18.2984 73.9004 13.4984C73.9004 13.0984 73.9004 12.8984 74.4004 12.8984C76.9004 12.8984 79.4004 12.8984 82.0004 12.9984C84.0004 13.0984 85.5004 14.1984 86.3004 16.0984C87.0004 17.9984 86.8004 19.8984 85.5004 21.5984C84.7004 22.3984 83.8004 22.6984 82.8004 22.9984Z" fill="#2B2940"/>
<path d="M104.1 18.7995C106.3 16.6995 108.8 16.8995 110.2 19.1995C110.3 19.1995 110.4 19.1995 110.5 19.0995C111.9 16.9995 114.4 17.0995 115.9 17.7995C117.6 18.4995 118.2 19.9995 118.3 21.6995C118.4 23.7995 118.3 25.8995 118.4 27.9995C118.4 28.3995 118.3 28.4995 117.9 28.4995C115.8 28.5995 115.8 28.5995 115.8 26.4995C115.8 25.0995 115.8 23.6995 115.8 22.2995C115.7 20.6995 115 19.8995 113.8 19.8995C112.6 19.8995 111.6 20.9995 111.5 22.3995C111.5 24.1995 111.5 25.9995 111.5 27.6995C111.5 28.1995 111.4 28.3995 110.8 28.3995C108.8 28.3995 108.8 28.3995 108.8 26.3995C108.8 24.9995 108.8 23.5995 108.8 22.1995C108.7 20.5995 107.7 19.5995 106.3 19.7995C105.2 19.8995 104.4 20.9995 104.4 22.2995C104.4 24.0995 104.4 25.8995 104.4 27.5995C104.4 28.0995 104.3 28.3995 103.7 28.2995C103.1 28.1995 102.2 28.5995 101.8 28.1995C101.5 27.7995 101.7 26.9995 101.7 26.3995C101.7 23.5995 101.7 20.7995 101.7 18.0995C101.7 17.5995 101.8 17.3995 102.3 17.3995C102.5 17.3995 102.7 17.3995 102.9 17.3995C103.6 17.4995 104.4 17.4995 104.1 18.7995Z" fill="#2B2B42"/>
<path d="M126.6 26.0983C128.3 26.1983 129.7 24.8983 129.7 23.0983C129.8 21.2983 128.5 19.9983 126.8 19.8983C125 19.7983 123.7 21.0983 123.6 22.8983C123.7 24.6983 124.9 26.0983 126.6 26.0983ZM123.5 27.4983C123.5 29.1983 123.5 30.7983 123.5 32.4983C123.5 33.0983 123.3 33.1983 122.8 33.1983C120.8 33.1983 120.8 33.1983 120.8 31.2983C120.8 26.9983 120.8 22.6983 120.8 18.2983C120.8 17.7983 120.9 17.4983 121.5 17.5983H121.6C122.1 17.5983 122.6 17.4983 123.1 17.5983C123.7 17.7983 123.2 18.4983 123.6 18.7983C126 16.7983 128.9 16.7983 130.9 18.8983C132.9 20.9983 133 24.7983 131.1 27.0983C129.6 28.7983 126.1 29.6983 123.5 27.4983Z" fill="#2B2B42"/>
<path d="M90.4 22.9987C90.4 24.9987 91.7 26.2987 93.5 26.3987C95.3 26.3987 96.6 24.9987 96.6 23.0987C96.6 21.1987 95.3 19.7987 93.5 19.7987C91.7 19.6987 90.4 20.9987 90.4 22.9987ZM96.7 18.7987C96.9 17.5987 96.9 17.5987 98.2 17.5987C99.4 17.5987 99.4 17.5987 99.4 18.7987C99.4 21.7987 99.4 24.7987 99.4 27.7987C99.4 28.2987 99.3 28.5987 98.7 28.4987C98.6 28.4987 98.4 28.4987 98.3 28.4987C96.9 28.4987 96.9 28.4987 96.7 27.0987C95.2 28.9987 93.2 29.1987 91.1 28.3987C88.9 27.5987 88 25.8987 87.8 23.6987C87.7 22.7987 87.8 21.9987 88 21.0987C89 17.1987 93.7 15.9987 96.7 18.7987C96.6 18.7987 96.6 18.7987 96.7 18.7987Z" fill="#2B2B42"/>
</svg>
