<svg xmlns="http://www.w3.org/2000/svg" width="178" height="217" viewBox="0 0 178 217"><defs><clipPath id="o3q8a"><path d="M34.29 16.896c-6.006 0-10.92 4.914-10.92 10.919L11.826 69.487c0 6.006 4.913 10.92 10.919 10.92h38.088c6.006 0 28.146 5.085 28.146-.921L71.753 11.073c0-6.006-4.914-10.919-10.92-10.919z"/></clipPath><clipPath id="o3q8b"><path d="M34.29 16.896c-6.006 0-10.92 4.914-10.92 10.919L11.826 69.487c0 6.006 4.913 10.92 10.919 10.92h38.088c6.006 0 28.146 5.085 28.146-.921L71.753 11.073c0-6.006-4.914-10.919-10.92-10.919z"/></clipPath><clipPath id="o3q8c"><path d="M34.29 16.896c-6.006 0-10.92 4.914-10.92 10.919L11.826 69.487c0 6.006 4.913 10.92 10.919 10.92h38.088c6.006 0 28.146 5.085 28.146-.921L71.753 11.073c0-6.006-4.914-10.919-10.92-10.919z"/></clipPath><clipPath id="o3q8d"><path d="M34.29 16.896c-6.006 0-10.92 4.914-10.92 10.919L11.826 69.487c0 6.006 4.913 10.92 10.919 10.92h38.088c6.006 0 28.146 5.085 28.146-.921L71.753 11.073c0-6.006-4.914-10.919-10.92-10.919z"/></clipPath><clipPath id="o3q8e"><path d="M34.29 16.896c-6.006 0-10.92 4.914-10.92 10.919L11.826 69.487c0 6.006 4.913 10.92 10.919 10.92h38.088c6.006 0 28.146 5.085 28.146-.921L71.753 11.073c0-6.006-4.914-10.919-10.92-10.919z"/></clipPath><clipPath id="o3q8f"><path d="M34.29 16.896c-6.006 0-10.92 4.914-10.92 10.919L11.826 69.487c0 6.006 4.913 10.92 10.919 10.92h38.088c6.006 0 28.146 5.085 28.146-.921L71.753 11.073c0-6.006-4.914-10.919-10.92-10.919z"/></clipPath><clipPath id="o3q8g"><path d="M34.29 16.896c-6.006 0-10.92 4.914-10.92 10.919L11.826 69.487c0 6.006 4.913 10.92 10.919 10.92h38.088c6.006 0 28.146 5.085 28.146-.921L71.753 11.073c0-6.006-4.914-10.919-10.92-10.919z"/></clipPath><clipPath id="o3q8h"><path d="M34.29 16.896c-6.006 0-10.92 4.914-10.92 10.919L11.826 69.487c0 6.006 4.913 10.92 10.919 10.92h38.088c6.006 0 28.146 5.085 28.146-.921L71.753 11.073c0-6.006-4.914-10.919-10.92-10.919z"/></clipPath><clipPath id="o3q8i"><path d="M34.29 16.896c-6.006 0-10.92 4.914-10.92 10.919L11.826 69.487c0 6.006 4.913 10.92 10.919 10.92h38.088c6.006 0 28.146 5.085 28.146-.921L71.753 11.073c0-6.006-4.914-10.919-10.92-10.919z"/></clipPath><clipPath id="o3q8j"><path d="M34.29 16.896c-6.006 0-10.92 4.914-10.92 10.919L11.826 69.487c0 6.006 4.913 10.92 10.919 10.92h38.088c6.006 0 28.146 5.085 28.146-.921L71.753 11.073c0-6.006-4.914-10.919-10.92-10.919z"/></clipPath><clipPath id="o3q8k"><path d="M34.29 16.896c-6.006 0-10.92 4.914-10.92 10.919L11.826 69.487c0 6.006 4.913 10.92 10.919 10.92h38.088c6.006 0 28.146 5.085 28.146-.921L71.753 11.073c0-6.006-4.914-10.919-10.92-10.919z"/></clipPath><clipPath id="o3q8l"><path d="M34.29 16.896c-6.006 0-10.92 4.914-10.92 10.919L11.826 69.487c0 6.006 4.913 10.92 10.919 10.92h38.088c6.006 0 28.146 5.085 28.146-.921L71.753 11.073c0-6.006-4.914-10.919-10.92-10.919z"/></clipPath><clipPath id="o3q8m"><path d="M34.29 16.896c-6.006 0-10.92 4.914-10.92 10.919L11.826 69.487c0 6.006 4.913 10.92 10.919 10.92h38.088c6.006 0 28.146 5.085 28.146-.921L71.753 11.073c0-6.006-4.914-10.919-10.92-10.919z"/></clipPath><clipPath id="o3q8n"><path d="M34.29 16.896c-6.006 0-10.92 4.914-10.92 10.919L11.826 69.487c0 6.006 4.913 10.92 10.919 10.92h38.088c6.006 0 28.146 5.085 28.146-.921L71.753 11.073c0-6.006-4.914-10.919-10.92-10.919z"/></clipPath></defs><g><g/><g/><g clip-path="url(#o3q8a)"><path fill="#39d4fe" d="M115.017 108.688c.232 5.752 1.656 10.322.171 16.104-1.628 6.329-3.145 5.47-8.687 6.167 7.043-6.385 3.79-10.99 6.83-19.161l1.335-2.65zm-45.914 34.266c-4.102 2.972-6.642 6.637-9.013 10.061-3.057 4.415-6.678 9.376-12.36 9.654-4.85.237-8.083-3.796-9.806-8.082 3.547 3.316 9.342 2.946 12.903 1.039 7.561-4.05 7.474-11.987 14.232-15.54 1.957-1.027 4.048-1.317 6.197-.916a24.23 24.23 0 0 0-2.153 3.785zm78.644-52.702c.823-4.747 4.245-8.096 9.316-9.38 3.45-.94 5.924-2.025 7.378-3.636 1.244-1.384 1.726-3.053 1.406-5.199 1.99 2.26 3.3 5.14 1.653 7.75-2.007 2.798-5.353 4.026-9.433 4.682-4.155.585-7.565 2.63-10.32 5.783zm5.813-20.748c-.579 7.62-7.08 6.216-9.406 13.08-.655-6.328 1.586-10.655 7.495-12.913l1.983-.566zm-28.37 34.9c-.432-5.788-2.598-18.275 5.107-20.077-1.056 6.631-.994 13.306-.048 19.891.73 5.083-1.066 10.574-3.96 14.921z"/></g><g/><g clip-path="url(#o3q8b)"><path fill="#fc6ccc" d="M67.366 148.36c-1.972 8.543-4.912 14.96-8.808 18.89-7.834 7.9-20.887 4.958-24.951-5.489-1.698-4.367-1.554-9.285.285-13.836 1.109 7.902 5.272 17.442 13.945 17.017 6.608-.325 10.669-5.644 14.125-10.634 1.645-2.378 3.378-4.877 5.665-7.124zm55.58-43.572c.413 2.417.668 5.281.834 8.302.364 6.567.386 9.092-4.831 14.1a20.21 20.21 0 0 1-3.343 2.587c2.659-4.576 2.9-10.313 2.13-16.174-.351-2.657-.508-5.046-.48-7.167.197-3.03.156-4.269.95-6.694.803-2.452 2.118-4.094 3.895-4.918zm-12.76 9.736c-.454 2.051-.792 4.428-1.023 7.132-.35 4.095-2.761 7.826-7.051 8.046l.522-3.77c1.55-1.083 3.758-2.97 4.446-4.457zm52.252-37.56c-3.092 3.422-9.92.866-14.583 7.261a13.066 13.066 0 0 0-1.823 3.54c-1.192-7.978 5.359-8.667 8.13-12.815a9.454 9.454 0 0 0 1.299-2.946c2.362 1.948 5.213 2.066 8.187.913zm-96.93 60.438c-3.635 1.327-6.647 4.423-9.034 8.807-3.172 5.83-7.877 10.107-14.758 8.068-2.382-.706-4.13-3.337-5.023-5.903 2.252 2.8 5.608 3.82 9.12 3.157 3.552-.669 7.333-3.085 10.39-7.217 3.429-4.637 6.32-6.677 9.306-6.912z"/></g><g/><g clip-path="url(#o3q8c)"><path fill="#fff" d="M126.093 123.18c4.47-5.272 7.385-12.49 6.41-19.283-.486-3.404-.74-6.827-.706-10.268a60.55 60.55 0 0 1 .948-10.122l4.5-3.634c1.425-.93 3.055-1.858 4.887-2.78-1.215 5.666.668 11.371 3.27 17.248.389.878 1.546.95 2.043.126 2.475-4.11 6.312-7.092 10.934-7.744 4.188-.699 8.05-2.086 10.34-4.766 7.384 4.476 16.382 11.074 19.144 18.772 4.518 12.59-10.53 22.752-21.427 16.05l-1.163-.719c-8.672-5.43-13.11 4.497-22.926-1.715 3.53 2.795 7.609 4.061 13.272 3.02-1.376 3.238-.287 7.285.917 10.686.692 1.957.577 4.78.64 7.058-4.657-.955-5.92 1.721-12.962.321 3.925 5.332 12.922-2.768 17.083 5.658 2.59 5.246 1.525 16.366.906 21.834-.06 1.736-.45 3.921-2.446 3.672-7.176-.415-7.586.944-9.153-6.769l-2.417-9.395-.08-.225c-.283-.64-1.13-.913-1.687-.465-7.192 5.797-11.131 6.114-19.754 2.011 2.88 3.592 6.797 5.406 12.024 4.21-8.501 4.981-16.604 2.747-22.94 8.881a49.365 49.365 0 0 1 9.678-2.536c.233 5.73-1.677 10.063-6.124 13.465-3.874 2.964-.892 6.021 2.128 8.48 4.009 4.105 7.375 6.698 9.794 11.178.515 1.288-.638 1.781-1.51 1.774-2.696.196-6.754-.063-12.924-.729-3.888-4.007-7.985-7.912-12.406-11.327-2.426-2.243-1.52-8.26-.814-11.787.5-2.498-.188-8.958-.894-10.958.502 8.336-7.423 12.35-13.831 15.726-3.99 2.103-1.81 5.954.272 9.098 1.362 2.06 2.427 4.44 3.405 7.003.276.62 1.32 3.516 1.252 3.471.188.793 1.593 3.011-.753 2.884-1.776.127-8.42-.177-10.562-.22a92.938 92.938 0 0 0-1.876-4.649c-1.88-4.11-4.51-8.414-7.432-11.563-2.564-2.765-3.252-5.383-.448-8.275 1.36-1.406 2.014-3.838 1.86-5.749-.154-1.952-1.003-4.029-2.541-6.227a22.102 22.102 0 0 1 3.679-26.505c.159 17.383 22.913 23.66 29.466 13.45.573-.89.776-5.896.489-6.53-1.616-3.574-2.465-5.484-4.841-8.687.323-1.156.613-2.367.873-3.634l.56.144a1.14 1.14 0 0 0 1.038.977l7.029-.143a1.137 1.137 0 0 0 1.506 1.084c5.643-1.947 9.965-5.512 12.855-10.615a1.141 1.141 0 0 0 1.415-.263zm-2.048-100a32.153 32.153 0 0 1 9.289 19.621c-10.436-23.226-37.67-31.684-57.992-16.028C87.055 11 110.084 9.22 124.045 23.18zm-51.014 8.7c14.904-15.418 39.604-13.957 52.86 2.95-13.603-12.145-37.87-15.23-50.49-2.393a8.976 8.976 0 0 0-2.37-.558zM69.385 50.98a8.37 8.37 0 0 0 2.059.401 31.995 31.995 0 0 0 8.725 19.006l-.863-.774a32.304 32.304 0 0 1-8.046-11.748 1.136 1.136 0 0 0-.192-.494 31.962 31.962 0 0 1-1.683-6.39zM54.6 108.34c-8.354-11.11-8.832-23.955-4.523-37.417a68.781 68.781 0 0 0 10.104 9.025l.758 7.687a52.776 52.776 0 0 1-4.344-1.434c-.907-.344-1.828-.215-2.647.194-2.494 1.243-5.191 5.96.295 8.922 2.38 1.286 5.882 2.075 9.195 2.565 1.85 4.755 3.81 8.734 5.876 11.93l-8.928-.027c1.822-1.03 2.865-3.294 3.127-6.787-1.056 3.623-3.625 5.404-7.704 5.343-.383.02-.785.02-1.21 0zm-.97-70.949c1.132 6.016 2.704 10.2 5.67 13.844-5.167 3.357-8.93 7.927-11.376 13.61-6.428-8.313-10.53-16.976-14.207-28.425l-.021-.063c-3.09-8.387 5.717-16.217 13.669-12.243-3.311.824-4.692 3.694-2.596 6.808-2.776.675-5.277 2.338-7.502 4.988 2.096-1.514 3.996-2.304 5.699-2.369-.882 1.416-.417 4.443.706 5.332-.535-3.808 1.059-5.535 4.78-5.182.434-.133.707-.405.697-1.038a1.125 1.125 0 0 0-.43-.87c-4.637-3.709-2.716-6.097 1.956-5.476 3.86.513 9.276 6.797 3.536 9.862a1.138 1.138 0 0 0-.58 1.222zm34.525 52.964c-1.503-1.707-2.986-1.193-4.834-1.016l-.534-2.747 3.237-2.018c.652 2.135 1.362 4.062 2.13 5.781zm-7.125-.832c-5.91.393-11.805.08-17.585-1.248l-.987-6.734c2.87 1.08 4.856 1.407 5.958.984-7.241-4.043-13.528-9.262-18.861-15.65 2.286-5.893 5.996-10.575 11.293-13.926 2.202 2.205 4.932 4.065 8.334 5.858 6.857 17.124 26.113 25.97 43.669 19.702 3.433 3.357 7.437 5.605 12.065 6.623-1.541 1.933-2.312 4.477-2.637 7.198-.46.136-.901.306-1.32.51l-3.985-5.979c-.448-.708-2.243-.794-3.577-1.034-.892-1.528-3.121-4.162-3.005-3.86.457 1.181.87 2.532.965 3.527-2.752-.473-6.453-1.112-9.294-1.547a577.68 577.68 0 0 0-15.097-2.104c-1.132-.19-4.933 2.497-6.068 3.293-.863.605-.338 2.05-.056 3.463zm6.108 3.957c.162 1.303-.7 2.531-1.98 2.741-6.206 1.022-23.93.28-29.836-2.91-3.867-2.089-1.007-4.599-.358-4.877.287-.14.58-.196.83-.103 11.506 4.36 18.07 3.295 29.799 3.062.975-.01 1.37 1.306 1.545 2.087zm26.1 13.787a397.82 397.82 0 0 0-20.79-.863c-1.34-.727-2.572-1.823-3.687-3.287-.993-1.299-1.895-2.89-2.705-4.769 2.209-.646 3.625-2.823 3.344-5.143l-.084-.498c1.679 3.084 3.713 5.512 6.19 6.963l.159.077c-2.534-3.222-4.592-7.256-6.175-12.102a51.232 51.232 0 0 1-1.166-3.338l24.102 3.66 2.894.523 3.748 5.613c-2.99 2.661-3.93 7.258-4.07 11.58a7.394 7.394 0 0 0-1.76 1.584zm-14.264 7.996c-6.336-3.492-13.386-2.462-20.318.94-5.893-3.26-10.092-11.683-12.641-17.989 6.72.746 14.063.707 17.7.447 1.694 4.132 4.174 7.985 7.93 9.89l11.285.43c2.77.115 5.565.263 8.379.442-3.226 2.693-4.457 7.124-6.298 11.1l-2.081 2.311.139-4.429c-2.165-3.688-4.33-6.052-6.492-7.092.024.174.095.355.224.532l2.143 3.362zm-19.241 2.945c7.549-3.68 14.866-4.258 21.134 1.151l-1.107 10.586-1.284 5.603c-.104.36-.021.73.19 1.007l4.409 7.506c-7.52 2.377-13.378 1.21-19.267-4.354 3.905 8.1 11.303 9.185 19.68 6.611l-.323 3.436c-1.325 2.086-3.733 3.28-6.541 3.612-5.152.612-10.998-1.61-14.627-5.568-2.98-3.25-4.408-7.273-3.873-12.934zm71.839-50.906c-2.751-2.1-3.995 1.826-4 1.83.563-1.657 1.865-4.8 2.709-4.942.868.347 1.408 1.531 1.86 2.945zm-81.021-32.43c4.897-2.007 5.603 5.934 4.052 8.91-2.154 4.822-10.095 5.453-7.857-3.57.596-2.41 1.862-4.543 3.805-5.34zm5.822.88c3.787 3.764 1.226 13.404-4.565 13.344 2.248-.72 4.009-2.31 4.933-4.522 1.166-4.235.976-4.652-.368-8.822zm67.846 36.544c-1.171 1.626-.621 1.57-1.526 1.993-4.234-8.544-7.73-8.91-9.63 5.826-.373.31-.727.62-1.061.93.557-5.452 1.997-13.765 5.017-14.89 2.316-.862 5.423 3.301 7.2 6.141zm20.178 70.842c-.752-3.089-2.208-5.826-4.907-7.225-.163-2.433.07-4.99-.486-7.489 21.639-6.549 25.075 18.245 25.074 18.242 1.497 5.926 1.385 4.22-8.147 5.753-1.245-5.518-3.657-12.027-11.534-9.28z"/></g><g/><g clip-path="url(#o3q8d)"><path fill="#ffccd9" d="M150.918 161.307c5.788-1.549 9.549-1.01 11.285 1.615-.06 1.736-.448 3.921-2.446 3.672-6.676-.387-7.496.764-8.84-5.287zm-34.126 35.167a165.789 165.789 0 0 0-4.568-4.54c9.693-1.792 15.745-1.655 18.78 3.092.074.133.149.267.222.403.515 1.288-.638 1.781-1.51 1.774-2.696.196-6.753-.063-12.924-.729zm-34.331 3.89a92.068 92.068 0 0 0-1.876-4.65 12.178 12.178 0 0 1 12.6.24c.326.893.629 1.771.592 1.745.187.794 1.592 3.012-.754 2.885-1.776.127-8.42-.177-10.562-.22zm81.227-85.18c-7.886-11.564 9.052-28.694 19.176-22.247 2.225 2.426 4.01 5.04 5 7.792 4.518 12.59-10.53 22.752-21.428 16.05l-1.162-.719a15.619 15.619 0 0 0-1.585-.875zM135.545 78.27c.925-7.935 1.967-10.252 5.152-2.999zm40.695 69.088c3.82-.664 7.316.468 8.544 2.591.085 1.968-1.82 1.337-8.852 2.47-.348-1.544-.788-3.164-1.412-4.638a12.904 12.904 0 0 1 1.72-.423z"/></g><g/><g/><g/><g clip-path="url(#o3q8e)"><path fill="#b5b1d4" d="M117.347 94.243c.544-.589.576-1.447.097-2.575l1.625 2.434c-2.99 2.662-3.93 7.258-4.069 11.58a6.871 6.871 0 0 0-.945.721c-9.019-.266-16.163-.6-21.434-1.003-1.947-1.294-3.854-3.758-5.718-7.393a4.754 4.754 0 0 0 2.498-4.803l-.084-.498c1.586 2.914 3.49 5.242 5.784 6.714 1.49 1.391 2.976 2.099 4.458 2.126 5.604.47 10.181.604 13.731.403.396-.053.632-.513.705-1.382.583-2.718 1.701-4.826 3.352-6.324zm-31.322-9.67c.652 2.135 1.362 4.062 2.131 5.781-1.263-1.435-2.512-1.301-3.975-1.115-.315-.682-.532-1.53-.65-2.542a76.717 76.717 0 0 0 2.494-2.124zm3.047 25.065a36.152 36.152 0 0 1-1.494-.691zm-10.639 22.025v.005l-.308 3.195zm4.492-14.825c2.024-.743 4.021-1.229 5.978-1.399-3.918.577-6.136 2.63-6.655 6.158-1.278 11.986 1.434 19.489 8.14 22.51 4.115 1.054 7.424 1.094 9.93.119 1.018-.291 1.446-.787 1.28-1.49-.205-.707-.557-1.703-1.056-2.988l2.534 4.312c-4.75 1.501-8.838 1.588-12.689.047-2.245-.9-4.41-2.352-6.579-4.401 3.906 8.1 11.304 9.185 19.681 6.611-1.207 4.824-5.09 6.762-11.65 5.817l-.005-.002c-9.608-2.276-14.074-9.099-13.4-20.464l1.3-13.461a34.646 34.646 0 0 1 3.191-1.369zm-28.68-27.861c-1.543 5.437 26.756 5.855 29.543 5.77 2.408-.074 3.008-1.006 1.806-3.355.975-.009 1.371 1.306 1.544 2.088.163 1.302-.699 2.53-1.979 2.741-6.207 1.021-23.93.279-29.836-2.911-2.945-1.59-1.989-3.424-1.079-4.333zM33.696 36.356c-1.973-5.355.903-10.481 5.31-12.455-8.026 4.238-4.178 16.249 11.542 36.032a32.3 32.3 0 0 0-2.624 4.91c-6.428-8.312-10.53-16.975-14.207-28.424zm3.571-.447a.72.72 0 0 1-.018-.453c.157-.303.324-.596.5-.876a10.163 10.163 0 0 1 4.108-3.719c.14-.06.27-.122.386-.186.625-.341.921-.741.89-1.203-.81-2.778.247-4.718 3.171-5.818a10.6 10.6 0 0 1 1.061.46c-3.312.824-4.692 3.694-2.597 6.807-2.776.675-5.276 2.339-7.5 4.988 2.095-1.514 3.995-2.304 5.698-2.369-.265.425-.409.995-.449 1.609-1.476-.145-3.226.109-5.25.76zm41.886 51.556l.002.027.001.029.001.01.002.017.002.029.002.022v.006l.003.029.003.03v.003l.003.026.004.032zm.023.26l.002.026v-.015zM52.315 61.4c4.97 6.147 12.628 13.389 15.653 4.822.898-2.817-.006-6.057-2.713-9.722a45.51 45.51 0 0 0 3.927 2.306c6.858 17.124 26.114 25.97 43.67 19.702-.396.303-.804.6-1.216.885l.02-.014c-.273.575-.107 1.249.497 2.024a68.234 68.234 0 0 1 10.557 8.5 20.535 20.535 0 0 0-.43 2.426c-.46.136-.9.307-1.32.509l-3.985-5.978c-.448-.708-2.243-.794-3.577-1.034-.892-1.528-3.12-4.162-3.005-3.861.457 1.182.871 2.533.965 3.528l-1.954-.335c.511-3.038-1.199-3.493-3.955-2.596-1.49.534-3.019.937-4.569 1.203a593.698 593.698 0 0 0-13.913-1.922c-.252-.044-.636.057-1.093.247a26.097 26.097 0 0 1-.767-.333c-3.7-1.668-6.773-3.953-9.32-6.93-.913-2.133-12.447-4.142-4.253 6.84 1.271 1.508 1.08 2.321-.574 2.436a8.52 8.52 0 0 1-2.352-.027c-.467.172-.723.531-.77 1.08.011.327.043.668.092 1.022.218 1.118.703 1.723 1.453 1.815 2.282.354 5.358.504 9.23.451.375-.029.556-.355.541-.979v-.001c-.053-.813.08-1.4.397-1.764 1.308-1.295 3.061-2.324 5.262-3.09-1.483.812-3.21 2.033-3.914 2.525-.863.605-.338 2.05-.056 3.463l.188.924c-4.107.274-8.243.205-12.328-.315a54.245 54.245 0 0 1-5.257-.933l-.987-6.734c2.87 1.079 4.856 1.408 5.958.985-7.24-4.043-13.529-9.263-18.86-15.651a30.725 30.725 0 0 1 2.758-5.474zm5.834 25.361a52.743 52.743 0 0 1-1.543-.557c1.048.124 1.508-.328 1.384-1.354-.04-.304-.09-.621-.147-.951a10.658 10.658 0 0 0-.216-1.133c-.372-1.542-1.06-2.877-2.065-4.006-2.336-2.447-4.163-5.06-5.484-7.837a68.889 68.889 0 0 0 10.103 9.025l.76 7.686a52.638 52.638 0 0 1-2.792-.873zm4.565 14.229c-.67-1.37-1.856-2.281-3.558-2.734-5.592-.765-8.297-3.195-8.117-7.289.011 1.498.862 3.083 3.204 4.349 1.66.896 3.863 1.551 6.167 2.031 1.003.21 2.024.386 3.03.534 1.848 4.755 3.81 8.735 5.874 11.931l-8.927-.027c1.822-1.032 2.864-3.295 3.127-6.787a9.322 9.322 0 0 1-.409 1.141c.22-.932.087-1.982-.39-3.148zm6.671-50.009c.711.231 1.4.36 2.06.402a31.992 31.992 0 0 0 8.724 19.005l-.863-.773a32.316 32.316 0 0 1-8.046-11.749 1.136 1.136 0 0 0-.192-.494 31.894 31.894 0 0 1-1.683-6.391zm8.32-13.07c1.567 4.406-1.019 11.235-5.896 11.184a7.917 7.917 0 0 0 3.434-2.171l.002-.002a7.996 7.996 0 0 0 1.496-2.349c.091-.332.175-.641.25-.93.508-1.606.747-3.517.713-5.732zm-3.1 5.869c-1.77 3.963-7.449 5.096-8.176.367 4.278 4.591 9.562-2.379 6.968-9.197 2.261 1.465 2.383 6.575 1.207 8.83zm27.64-30.03a32.2 32.2 0 0 1 9.908 1.87c-6.95-1.634-15.039-.08-24.268 4.663-4.327 1.287-8.567 3.428-12.543 6.49 3.662-3.884 8.194-7.418 13.597-10.603a32.473 32.473 0 0 1 13.306-2.42zM73.031 31.879c9.126-9.44 21.925-12.551 33.522-9.664-4.056-.414-9.74.499-17.055 2.74-5.356 1.153-10.264 3.583-14.096 7.482a9.015 9.015 0 0 0-2.37-.558zm90.015 95.643c2.246-.311 4.258-.247 6.062.103-3.765-.187-5.744.623-5.939 2.436 1.227 13.65 11.192 6.091 13.602 17.217a12.982 12.982 0 0 0-2.251.503c-1.61-3.797-4.447-6.622-10.122-4.644-.753-3.089-2.209-5.826-4.907-7.225-.163-2.433.07-4.991-.486-7.489a26.388 26.388 0 0 1 4.041-.901zm-2.808-39.619a12.64 12.64 0 0 0-1.903.118c-1.704.237-3.399.823-5.085 1.759a2.204 2.204 0 0 0-.843.016c-.915.191-1.483.852-1.762 1.712a28.931 28.931 0 0 0-3.12 2.825c2.48-4.041 6.282-6.965 10.854-7.61 4.188-.699 8.05-2.086 10.34-4.766-1.343 3.471-4.17 5.453-8.48 5.946zm-27.248.191a177.34 177.34 0 0 0-1.035 10.682 64.901 64.901 0 0 1-.158-5.147c.032-3.333.335-6.706.948-10.122 3.106-3.163 5.152-4.995 9.067-6.251l.107-.055.032-.015.021-.012.054-.027.106-.054c-1.246 6.012.87 11.821 3.27 17.249.044.097.096.184.155.261-2.316-1.462-3.843-4.512-4.578-9.148a38.859 38.859 0 0 1-.297-2.397c-.01-.306-.013-.622-.007-.949.024-4.378-5.538.994-6.315 1.838-.566.402-1.022 1.784-1.37 4.147zm-22.65 47.182c-.82-.128-1.252-.476-1.29-1.044-5.497.186-7.149 2.004-4.957 5.456 3.434 4.848 3.523 6.812 2.147 12.763-1.472 3.784-6.147 5.543-14.027 5.277a53.573 53.573 0 0 1-1.536-.075c-4.637-.431-8.512-2.711-11.625-6.84-3.502-4.117-5.273-3.938-5.312.539l.001.434c.03 4.054.521 7.772 1.47 11.154.267.953.57 1.879.91 2.778.664 3.153-.09 5.951-2.26 8.394.561-1.263.805-2.734.705-3.983-.156-1.953-1.005-4.03-2.542-6.227a22.102 22.102 0 0 1 3.679-26.506c.16 17.384 22.913 23.66 29.466 13.451.572-.892.776-5.897.49-6.53-1.618-3.574-2.466-5.485-4.842-8.688.322-1.156.612-2.367.872-3.634l.56.145c.073.517.497.933 1.038.976l6.098-.124.932-.019c-.01.774.76 1.342 1.506 1.085 4.931-1.703 8.855-4.639 11.694-8.76.41-.594.797-1.213 1.161-1.856a1.141 1.141 0 0 0 1.415-.263c4.24-4.999 7.08-11.751 6.53-18.229 1.62 7.093-.46 13.855-6.248 20.291-.84.926-1.567 1.183-2.194.786-3.998 5.654-8.612 8.737-13.84 9.249zm39.023-17.744l6.256-.166c-1.376 3.237-.287 7.285.917 10.685.692 1.957.577 4.779.641 7.059-3.84-.199-6.862 2.253-12.963.32 3.925 5.332 12.922-2.768 17.083 5.658.091.186.178.379.261.58-6.584-6.026-14.533.469-18.383-5.165-1.07-2.227-.687-2.967 1.152-2.216 3.972 1.853 5.623-6.184 5.565-6.73.708-9.59-10.485-11.833-7.78-14.276 2.422 1.239 4.828 1.678 7.216 1.316l.013-.002c.326-.05.652-.115.978-.194 1.424-.327 3.163-.895 5.215-1.704 2.09-.549 4.368-.57 6.833-.061.322.87.76 1.723 1.321 2.548-7.323-3.481-9.806 3.629-21.069-.732-.089-.035 6.673 3.043 6.744 3.08zM137.02 66.155c1.288-.48 2.82.593 4.231 2.128-2.073-.927-3.748-.675-5.024.757a3.987 3.987 0 0 0-.369.463c-1.128 1.628-2.074 5.04-2.792 10.611-.374.309-.728.619-1.062.93.556-5.452 1.996-13.765 5.016-14.889zm14.554 1.146c-2.75-2.099-3.995 1.826-4 1.83.563-1.656 1.864-4.8 2.71-4.942.867.347 1.407 1.532 1.86 2.946zM113.28 191.745c-.347.06-.699.124-1.056.19-2.507-2.389-5.11-4.682-7.837-6.787-2.426-2.244-1.52-8.261-.814-11.788.501-2.498-.188-8.957-.894-10.957a44.816 44.816 0 0 1-.16 2.786c-1.196 6.491-8.023 9.964-13.672 12.939-4.109 2.165-1.602 6.266.272 9.099 1.363 2.058 2.428 4.439 3.406 7.002.124.276.4 1.006.661 1.725l-.018-.012-.019-.011-.018-.012-.038-.023-.018-.011-.019-.012-.018-.011-.019-.012-.013-.008-.025-.015-.017-.011-.056-.033-.02-.011-.019-.011-.018-.011-.019-.011-.007-.005-.012-.007-.018-.01-.019-.011-.114-.065-.019-.011h-.002l-.016-.01-.095-.052-.038-.022-.019-.009-.017-.009-.003-.002-.057-.03-.057-.031-.038-.019-.02-.011-.018-.009-.02-.01-.02-.011-.019-.009-.039-.019-.038-.02-.038-.019-.006-.002-.014-.007-.019-.01-.02-.009-.019-.01-.04-.018c-1.227-2.544-2.782-4.969-4.665-7.276-3.389-4.996-3.898-8.475-1.53-10.438 4.55-3.348 10.786-7.673 13.466-12.667.075-.141.148-.281.218-.422.581-1.048 1.452-2.08 2.615-3.098 5.937-4.45 12.53-7.645 19.778-9.587.669-.241 1.299-.448 1.895-.626l-.19.056a7.292 7.292 0 0 1-.274-.418c-.4-2.226.977-2.852 4.128-1.878 1.937.706 3.583 1.234 4.94 1.589l.001.001c1.296.238 2.403.54 3.65.556 2.414.032 6.33-2.897 7.842-3.608 4.024-1.892 7.491.123 8.345 3.417.842 3.252.847 6.579 1.79 9.771a28.27 28.27 0 0 0-3.06.654c-.1-.453-.206-.945-.315-1.483l-2.418-9.395-.078-.224c-.284-.642-1.13-.914-1.688-.466-2.857 2.303-5.2 3.74-7.53 4.38 3.68-.724-2.606 2.189-.2 1.841-8.5 4.982-16.604 2.748-22.94 8.882a49.279 49.279 0 0 1 9.678-2.537c.233 5.73-1.678 10.063-6.124 13.465-2.88 1.867-4.199 4.685-3.956 8.453.044 2.46.842 4.752 2.393 6.873l-.057.007-.022.001-.079.01a71.976 71.976 0 0 0-4.256.622zm-10.348-68.911l.07-2.215.07-2.215c-2.166-3.688-4.33-6.052-6.494-7.092.024.174.096.355.225.533l2.143 3.361.03.056a17.53 17.53 0 0 0-1.234-.619c-.656-1.49-1.629-2.52-2.918-3.09a5.887 5.887 0 0 0-.936-.319c-1.05-.367-1.903-.702-2.56-1.005-.415-.212-.822-.44-1.222-.68-3.084-1.858-5.714-4.563-7.89-8.116a2.831 2.831 0 0 0-.332-.554c-.495-.632-1.194-.831-2.099-.597a40.608 40.608 0 0 1-5.255-.009l-.038-.002c-2.018-.129-2.822.508-2.415 1.911 1.003 2.404 2.65 5.061 4.94 7.98 2.842 2.603 6.418 3.642 10.728 3.118-2.157.288-4.339.901-6.519 1.775-.857.342-1.714.727-2.568 1.146-5.894-3.258-10.092-11.682-12.642-17.988 6.722.746 14.063.707 17.702.447 1.693 4.132 4.172 7.985 7.93 9.891l11.284.428c2.771.116 5.565.264 8.38.443-3.228 2.693-4.459 7.124-6.299 11.1z"/></g><g/><g clip-path="url(#o3q8f)"><path fill="#090959" d="M125.187 36.527c15.586 14.297 4.575 33.598-12.129 40.044l-.249.095a32.766 32.766 0 0 1-10.082 2.068c-7.949-.335-15.126-3.546-20.441-8.657a30.35 30.35 0 0 1-9.185-18.94c6.836-1.828 9.42-13.266 3.805-17.9 12.242-11.809 35.497-8.437 48.281 3.29z"/></g><g/><g clip-path="url(#o3q8g)"><path fill="#040440" d="M84.983 47.276c1.032 18.005 11.898 26.851 32.6 26.537a34.091 34.091 0 0 1-4.733 2.261l-.245.094a32.137 32.137 0 0 1-9.875 2.025c-7.785-.329-14.815-3.474-20.022-8.48a29.719 29.719 0 0 1-8.996-18.553c6.696-1.79 9.227-12.994 3.726-17.533 8.547-8.244 22.574-8.934 34.462-4.49-16.313-1.746-25.272 2.083-26.877 11.487-.337 1.972-.35 4.19-.04 6.652z"/></g><g/><g clip-path="url(#o3q8h)"><path fill="#bbbbda" d="M83.326 47.063c-.365-1.31.011-2.56.843-2.794.83-.23 1.8.644 2.166 1.954.365 1.311-.012 2.561-.843 2.792-.83.232-1.8-.642-2.166-1.952zm40.11-7.556c9.688 8.887 5.521 20.38-3.377 26.682 8.692-10.413 8.183-20.499-1.528-30.259a28.016 28.016 0 0 1 4.905 3.577zm-33.953-3.342c-1.949 1.9-4.505 2.436-5.709 1.201-1.203-1.234-.599-3.776 1.35-5.675 1.95-1.899 4.505-2.436 5.708-1.2 1.203 1.234.6 3.775-1.349 5.674z"/></g><g/><g clip-path="url(#o3q8i)"><path fill="#b193b5" d="M153.98 160.654c-.948.144-1.97.362-3.062.654 1.343 6.05 2.163 4.9 8.839 5.286 1.047.13 1.652-.406 1.999-1.197-4.093-.428-6.674-2.011-7.744-4.748l-.032.005zm17.253-44.396c-1.17-.446-2.358-1.063-3.566-1.85-1.853-.835-3.62-1.426-5.3-1.772.323.87.759 1.724 1.32 2.549.506.239 1.033.529 1.587.876l1.162.718c8.246 5.072 18.867.488 21.592-7.497-5.084 6.98-10.681 9.308-16.795 6.976zm3.287 31.523c.624 1.475 1.064 3.094 1.412 4.638 7.033-1.132 8.938-.5 8.852-2.47-3.623.949-6.311.062-8.061-2.665a12.903 12.903 0 0 0-2.203.497zm-33.823-72.51c-3.62 1.799-4.652.345-3.1-4.36-.967.175-1.528 2.867-2.052 7.36zM93.777 197.7c.037.025-.266-.852-.591-1.746l-1.215-.672-.098-.048c.279.698.553 1.465.819 2.303.31 2.002-2.488 2.964-8.393 2.882 2.859.096 7.317.267 8.724.165 2.347.127.94-2.091.754-2.884zm20.4-3.867a180.67 180.67 0 0 1 2.615 2.642c5.758.62 9.675.888 12.365.76.194-.007.379-.018.56-.032.87.008 2.025-.486 1.509-1.774-.073-.135-.148-.27-.222-.402-5.575.254-9.86.72-13.262-3.93a68.621 68.621 0 0 0-4.463.648c-.347.06-.7.124-1.055.19.658.626 1.309 1.26 1.954 1.898z"/></g><g/><g clip-path="url(#o3q8j)"><path fill="#1277cd" d="M144.155 82.584c.477-3.905 2.006-6.666 4.586-8.283.175-.094.35-.196.523-.305 1.586-1 3.043-2.63 4.369-4.891l-.073.4c-.58 7.619-7.08 6.215-9.405 13.079zm-13.906 21.634c.729 5.084-1.065 10.575-3.96 14.92 1.948-4.458 2.698-9.284 2.246-14.478a37.394 37.394 0 0 0-.28-2.324c-.91-8.554-.228-14.557 2.043-18.01-1.056 6.633-.994 13.308-.05 19.892zm-15.061 20.575c-1.629 6.327-3.145 5.468-8.687 6.166 4.125-.575 6.581-2.757 7.367-6.548.882-3.45 1.206-8.613.974-15.493l.175-.231c.233 5.753 1.657 10.323.17 16.106zm-67.46 37.876c-4.732.232-7.927-3.606-9.678-7.776 6.613 7.204 12.675 7.29 18.188.26 4.871-7.383 9.16-11.45 12.864-12.198-4.102 2.972-6.642 6.637-9.012 10.06-3.057 4.415-6.678 9.376-12.362 9.654zm100.02-72.416c3.104-4.522 7.244-7.146 12.42-7.875 6.417-1.436 8.311-4.883 5.68-10.341 1.99 2.26 3.298 5.14 1.651 7.75-2.006 2.799-5.352 4.027-9.432 4.683-4.155.584-7.566 2.629-10.32 5.783z"/></g><g/><g clip-path="url(#o3q8k)"><path fill="#fac7f1" d="M102.634 125.93c1.55-1.081 3.758-2.968 4.446-4.455l2.838-6.35c-2.064 6.556-4.527 10.415-7.391 11.58zM42.1 164.829c-1.354-.731-2.658-1.761-3.911-3.09-2.393-2.985-3.826-7.59-4.298-13.813 1.109 7.902 5.272 17.442 13.945 17.017 6.608-.325 10.668-5.644 14.124-10.634 1.646-2.378 3.378-4.877 5.666-7.124-4.808 8.939-9.38 14.656-13.712 17.149-.796.42-1.58.768-2.352 1.044-3.387 1.21-6.541 1.028-9.462-.55zm3.712-13.297c2.596-.488 5.312-1.91 7.78-4.252-4.852 5.91-9.891 6.842-15.12 2.792 2.077 1.493 4.664 1.964 7.34 1.46zM155.46 72.004c.129 2.6-1.764 4.546-4.995 6.889-2.954 2.146-4.177 5.352-4.465 8.644-1.035-7.763 5.417-8.48 8.162-12.587a9.454 9.454 0 0 0 1.298-2.946zm-37.168 37.009c.107 1.06.263 2.173.467 3.335.735 7.012-.317 12.822-3.155 17.429 2.66-4.576 2.902-10.313 2.13-16.173-.35-2.657-.507-5.047-.48-7.168.198-3.03.157-4.27.95-6.694.804-2.452 2.119-4.094 3.896-4.918-3.223 2.716-4.492 7.446-3.808 14.189z"/></g><g/><g clip-path="url(#o3q8l)"><path fill="#b548ad" d="M115.605 129.777c4.538-4.734 6.543-10.513 6.017-17.336a31.096 31.096 0 0 0-.297-2.483c-.683-6.525-.425-11.57.776-15.134l.844 9.964c.413 2.418.669 5.28.835 8.303.364 6.566.386 9.09-4.831 14.098a20.11 20.11 0 0 1-3.344 2.588zM33.607 161.76c-1.698-4.367-1.554-9.285.285-13.836-.45 9.68.272 19.43 13.07 21.05 8.766 1.394 15.703-6.321 20.534-21.202l-.13.588c-1.972 8.542-4.912 14.959-8.808 18.889-7.834 7.9-20.887 4.959-24.951-5.49zm3.085-13.387c.12.149.242.292.367.43a9.447 9.447 0 0 0 7.665 4.963c3.237.227 6.71-1.004 8.282-3.844 4.22-7.623 8.026-11.987 12.503-12.52-3.636 1.326-6.65 4.423-9.035 8.807-3.172 5.829-7.877 10.106-14.758 8.067-2.382-.706-4.13-3.337-5.024-5.903zm65.835-21.668l.107-.774c.178-.123.364-.258.555-.401a7.24 7.24 0 0 0-.127.924c-.086 1.35.47 1.733 1.671 1.148l.004-.002c1.157-.882 1.995-2.062 2.514-3.54.159-.452.289-.933.388-1.442.656-2.361 1.505-5.06 2.547-8.094-.454 2.05-.792 4.428-1.023 7.132-.35 4.095-2.762 7.826-7.052 8.045l.112-.804zm0 0c.18-.073.358-.157.535-.251zm45.328-42.48a12.904 12.904 0 0 0-1.67 3.106c1.97-6.934 4.839-8.76 11.179-10.572.7-.196 1.376-.453 2.03-.767l.003-.001c1.07-.636 1.299-1.168.684-1.596-2.257-.638-3.797-1.435-4.62-2.392 2.362 1.949 5.212 2.066 8.187.914-2.594 8.089-10.067 3.456-15.793 11.308z"/></g><g/><g clip-path="url(#o3q8m)"><path fill="#a5f4fc" d="M152.64 69.388c-5.946 2.294-8.776 6.693-8.486 13.196-.655-6.327 1.586-10.654 7.496-12.912zm-27.03 32.335c.091.91.205 1.855.341 2.833.451 4.418.555 9.158.311 14.222l-1.072-14.374c-.42-5.65-2.496-17.688 4.577-19.932-3.724 2.113-5.11 7.863-4.158 17.251zm-12.648 15.472a85.57 85.57 0 0 0-.497 4.158c-.863 4.812-2.604 7.781-5.224 8.903 6.07-6.028 3.162-10.59 6.09-18.459l1.335-2.65c-.706 2.4-1.273 5.083-1.704 8.048zm-47.903 22.89c1.957-1.027 4.048-1.317 6.197-.916-5.17.603-9.51 3.851-13.017 9.746-4.984 7.922-10.829 10.393-17.536 7.414 3.34 1.319 7.39.76 10.124-.703 7.561-4.05 7.474-11.987 14.232-15.54zm94.24-59.094c-.502.11-.988.23-1.458.359-5.685 1.559-9.049 4.527-10.094 8.903.823-4.748 4.245-8.097 9.316-9.381 3.45-.94 5.924-2.024 7.38-3.635.228-.255.43-.52.608-.795-.856 2.162-2.774 3.679-5.753 4.55z"/></g><g/><g/><g clip-path="url(#o3q8n)"><path fill="#090959" d="M86.025 84.573l-3.238 2.018.535 2.748c1.848-.178 3.331-.692 4.833 1.015-.768-1.72-1.479-3.646-2.13-5.781zm47.31-41.772c-.749-7.633-4.159-14.488-9.29-19.62-13.962-13.96-36.99-12.182-48.703 3.593 20.323-15.657 47.556-7.2 57.992 16.027zM75.4 32.437c12.62-12.837 36.887-9.751 50.49 2.393-13.256-16.906-37.957-18.367-52.86-2.951.871.09 1.661.28 2.37.558zm-7.774 114.747c-2.288 2.247-4.02 4.746-5.666 7.124-3.456 4.99-7.517 10.31-14.124 10.634-8.673.425-12.837-9.114-13.946-17.017-1.838 4.55-1.983 9.469-.284 13.836 4.064 10.448 17.117 13.389 24.95 5.489 3.897-3.93 6.837-10.347 8.808-18.89zm-2.119-9.782c-2.986.235-5.877 2.275-9.306 6.912-3.056 4.132-6.837 6.549-10.389 7.217-3.512.662-6.869-.357-9.12-3.157.893 2.566 2.64 5.197 5.022 5.903 6.881 2.039 11.586-2.238 14.76-8.068 2.385-4.383 5.397-7.48 9.033-8.807zm98.934-60.165c-1.455 1.61-3.929 2.696-7.379 3.635-5.07 1.284-8.493 4.633-9.316 9.38 2.755-3.152 6.165-5.198 10.32-5.782 4.08-.656 7.426-1.884 9.433-4.683 1.646-2.61.337-5.49-1.653-7.75.32 2.147-.162 3.816-1.405 5.2zm-23.746-1.966c-3.185-7.253-4.227-4.936-5.152 3zm43.383 71.394c.001.004-3.436-24.791-25.074-18.242.556 2.499.323 5.056.485 7.489 2.7 1.399 4.155 4.137 4.908 7.225 7.877-2.745 10.29 3.764 11.533 9.282 9.533-1.534 9.645.172 8.148-5.754zm-31.937-79.53c-.452-1.414-.992-2.598-1.86-2.946-.845.142-2.146 3.286-2.709 4.942.005-.004 1.248-3.93 4-1.83l.57-.166zm-83.039 75.82a24.24 24.24 0 0 1 2.153-3.786c-2.149-.401-4.24-.111-6.197.917-6.758 3.552-6.67 11.49-14.232 15.54-3.56 1.907-9.356 2.277-12.903-1.038 1.723 4.286 4.956 8.319 9.805 8.08 5.683-.277 9.304-5.238 12.361-9.653 2.371-3.423 4.911-7.088 9.013-10.06zm86.358-70.951a9.468 9.468 0 0 1-1.299 2.946c-2.77 4.149-9.323 4.838-8.13 12.816a12.984 12.984 0 0 1 1.823-3.54c5.725-7.852 13.198-3.22 15.793-11.31-2.975 1.154-5.826 1.037-8.187-.912zm-3.81-2.333c-5.91 2.258-8.152 6.586-7.497 12.913 2.326-6.864 8.827-5.46 9.406-13.08l.072-.4zm-7.432 2.625c-1.776-2.841-4.883-7.004-7.2-6.141-3.02 1.124-4.46 9.437-5.016 14.89.334-.312.688-.621 1.062-.931 1.9-14.735 5.394-14.37 9.628-5.825.905-.424.355-.367 1.526-1.993zM124.73 36.85c-12.52-11.487-35.299-14.79-47.292-3.224 5.502 4.539 2.97 15.743-3.726 17.534a29.718 29.718 0 0 0 8.997 18.552c5.206 5.007 12.236 8.15 20.021 8.48a32.114 32.114 0 0 0 9.876-2.025l.244-.093c16.363-6.315 27.147-25.22 11.88-39.224zm-48.355-1.1c1.343 4.17 1.534 4.587.367 8.822-.923 2.212-2.685 3.8-4.932 4.523 5.791.059 8.351-9.58 4.565-13.345zm-5.823-.88c-1.942.797-3.208 2.93-3.805 5.34-2.238 9.023 5.704 8.392 7.858 3.569 1.55-2.975.844-10.916-4.053-8.908zm-10.37 45.077a68.837 68.837 0 0 1-10.103-9.025c-4.309 13.462-3.832 26.307 4.523 37.416.424.02.826.02 1.208.002 4.08.06 6.648-1.721 7.705-5.343-.263 3.492-1.305 5.755-3.128 6.787l8.928.027c-2.065-3.196-4.026-7.176-5.875-11.93-3.314-.49-6.815-1.28-9.196-2.566-5.485-2.963-2.789-7.68-.294-8.922.818-.408 1.74-.538 2.647-.194a52.155 52.155 0 0 0 4.344 1.434zm46.9 41.527c-.69 1.488-2.897 3.374-4.447 4.456l-.523 3.77c4.29-.22 6.703-3.95 7.051-8.045.232-2.703.57-5.081 1.023-7.132zm8.107 3.318c1.485-5.783.061-10.353-.17-16.106l-.352.46-1.336 2.65c-3.039 8.172.214 12.777-6.829 19.162 5.542-.698 7.06.162 8.687-6.166zm-14.32-5.435c-6.268-5.408-13.586-4.83-21.134-1.151l-1.609 16.656c-.535 5.66.894 9.683 3.873 12.934 3.628 3.959 9.474 6.18 14.626 5.568 2.81-.333 5.216-1.526 6.542-3.611l.322-3.436c-8.377 2.573-15.774 1.488-19.68-6.611 5.89 5.562 11.748 6.73 19.268 4.354l-4.41-7.507a1.133 1.133 0 0 1-.189-1.006l1.284-5.603zm-9.222-10.807c-3.757-1.906-6.236-5.76-7.93-9.891-3.638.26-10.98.299-17.7-.447 2.55 6.306 6.747 14.73 12.64 17.989 6.933-3.401 13.983-4.432 20.318-.94l-.029-.056-2.143-3.361a1.182 1.182 0 0 1-.225-.533c2.163 1.04 4.327 3.404 6.493 7.093l-.139 4.429 2.081-2.312c1.84-3.976 3.071-8.407 6.298-11.1a387.037 387.037 0 0 0-8.379-.443zM87.138 93.48c-.174-.782-.569-2.097-1.545-2.087-11.728.232-18.293 1.297-29.798-3.062-.249-.094-.543-.038-.83.102-.649.278-3.509 2.789.357 4.877 5.906 3.19 23.63 3.932 29.837 2.91 1.28-.21 2.142-1.438 1.98-2.74zm44.66.15c-.035 3.44.218 6.864.705 10.267.974 6.792-1.94 14.01-6.41 19.282a1.14 1.14 0 0 1-1.415.263c-2.89 5.104-7.213 8.668-12.856 10.616a1.137 1.137 0 0 1-1.505-1.084l-7.03.142a1.14 1.14 0 0 1-1.038-.976l-.56-.145a54.012 54.012 0 0 1-.872 3.634c2.376 3.203 3.224 5.114 4.841 8.688.287.633.083 5.638-.489 6.53-6.554 10.209-29.308 3.933-29.466-13.451a22.099 22.099 0 0 0-6.092 11.356 22.057 22.057 0 0 0 2.413 15.15c1.537 2.197 2.386 4.274 2.542 6.227.153 1.91-.5 4.343-1.862 5.748-2.803 2.892-2.116 5.51.45 8.275 2.921 3.149 5.552 7.453 7.43 11.563.544 1.228 1.17 2.777 1.877 4.649 2.143.044 8.785.347 10.561.22 2.347.127.941-2.091.754-2.884.068.046-.977-2.851-1.252-3.471-.978-2.563-2.043-4.943-3.406-7.002-2.08-3.145-4.26-6.996-.272-9.098 6.408-3.377 14.334-7.391 13.832-15.726.705 2 1.394 8.459.894 10.957-.706 3.527-1.612 9.544.813 11.788 4.422 3.414 8.518 7.32 12.407 11.327 6.17.666 10.227.924 12.924.728.871.008 2.025-.486 1.51-1.774-2.419-4.48-5.785-7.072-9.795-11.18-3.019-2.457-6-5.513-2.127-8.478 4.446-3.402 6.357-7.734 6.124-13.464a49.207 49.207 0 0 0-9.678 2.536c6.336-6.134 14.44-3.9 22.94-8.882-5.227 1.197-9.144-.618-12.025-4.21 8.623 4.103 12.563 3.786 19.755-2.011.557-.448 1.403-.176 1.688.466l.078.224 2.418 9.396c1.567 7.712 1.976 6.353 9.152 6.768 1.998.249 2.387-1.935 2.447-3.671.62-5.468 1.684-16.59-.907-21.835-4.16-8.425-13.157-.326-17.082-5.657 7.042 1.399 8.304-1.276 12.963-.321-.064-2.28.051-5.102-.64-7.06-1.205-3.4-2.294-7.447-.918-10.684-5.664 1.04-9.742-.226-13.272-3.021 12.28 4.895 14.254-3.714 22.926 1.716l1.163.719c10.897 6.702 25.945-3.46 21.427-16.051-2.763-7.697-11.76-14.296-19.145-18.772-2.289 2.68-6.15 4.067-10.339 4.766-4.623.653-8.459 3.634-10.935 7.744a1.138 1.138 0 0 1-2.042-.125c-2.603-5.878-4.486-11.582-3.27-17.25-1.832.924-3.462 1.85-4.888 2.78l-4.499 3.635a60.361 60.361 0 0 0-.948 10.123zm-1.5-9.304c-7.706 1.803-5.54 14.29-5.108 20.079l1.1 14.735c2.893-4.347 4.688-9.838 3.96-14.922-.947-6.584-1.009-13.26.047-19.892zM122.1 94.824c-1.776.824-3.09 2.466-3.895 4.919-.794 2.424-.752 3.663-.949 6.693-.028 2.122.128 4.51.48 7.168.77 5.86.53 11.597-2.13 16.173a20.164 20.164 0 0 0 3.343-2.588c5.217-5.007 5.194-7.532 4.831-14.098-.166-3.022-.422-5.885-.835-8.303zm-9.673-6.86l-24.103-3.658a52.07 52.07 0 0 0 1.166 3.339c1.583 4.845 3.641 8.879 6.175 12.102l-.157-.077c-2.478-1.451-4.512-3.88-6.19-6.963l.083.498c.281 2.319-1.136 4.496-3.345 5.143.81 1.877 1.713 3.469 2.706 4.769 1.115 1.463 2.347 2.559 3.688 3.286a398.341 398.341 0 0 1 20.79.864 7.38 7.38 0 0 1 1.76-1.585c.14-4.322 1.08-8.918 4.07-11.58l-3.749-5.613zm12.49-2.832c-4.628-1.02-8.633-3.267-12.066-6.624-17.555 6.268-36.81-2.578-43.669-19.702-3.402-1.792-6.132-3.652-8.333-5.858-5.298 3.352-9.008 8.033-11.293 13.926 5.332 6.389 11.62 11.608 18.861 15.65-1.102.424-3.088.096-5.958-.983l.987 6.733c5.78 1.328 11.674 1.642 17.584 1.248l-.188-.923c-.28-1.413-.806-2.86.057-3.464 1.134-.795 4.936-3.483 6.068-3.292 5.297.67 10.332 1.373 15.097 2.103 2.84.435 6.541 1.074 9.294 1.548-.094-.996-.508-2.347-.965-3.528-.117-.301 2.112 2.332 3.005 3.86 1.334.24 3.13.327 3.577 1.034l3.984 5.979c.42-.203.86-.373 1.32-.51.326-2.72 1.097-5.264 2.638-7.197zm-53.849-27.76c.102.147.168.317.192.494a32.316 32.316 0 0 0 8.046 11.749l.863.773a31.986 31.986 0 0 1-8.725-19.005 8.39 8.39 0 0 1-2.06-.402 31.963 31.963 0 0 0 1.684 6.39zM58.434 30.044c1.41 3.077.104 5.979-2.424 7.69 1.692 8.717 4.886 13.582 12.063 17.848a34.4 34.4 0 0 1-1.2-6.334c-3.066-1.551-3.095-6.53-2.337-9.582.706-2.846 2.3-5.53 4.73-6.714.108-.115 3.096-9.063 12.548-15.511 13.713-9.355 32.133-7.583 43.844 4.126 17.214 17.21 11.613 46.253-10.473 56.01a23.024 23.024 0 0 0 5.008 3.472 22.136 22.136 0 0 0 6.867 2.167 8.853 8.853 0 0 1 2.548-1.065c.62-6.967 1.774-11.988 3.39-14.94 3.553-6.5 8.566-2.79 12.08 2.248.977-3.1 2.454-7.116 4.83-7.515 2.261-.38 3.623 2.405 4.476 4.699l.314-.05c3.088-6.847 6.371-10.446 11.348-16.696.712-.895 2.147-.301 2.025.824l-2.208 18.115c3.356 3.007 5.87 7.108 4.077 11.199 7.902 4.803 17.087 11.642 20.062 19.928 3.315 9.234-2.52 18.319-11.592 20.636-12.26 3.133-16.759-7.376-19.988-3.515-1.988 2.377-1.034 6.287-.094 9.166 18.017-5.47 25.708 5.695 28.876 23.787.248.848.2 2.606-1.152 2.938-4.05.895-5.21 1.097-9.663 1.527-1.386.133-2.398-.414-2.75-1.886-1.26-6.316-3.133-9.36-8.809-7.216.691 4.758.7 9.094-.364 17.793-.325 2.657-1.272 5.91-4.236 5.71-5.582-.376-7.27-.421-7.278-.425-3.888-.355-5.583-12.305-6.539-15.534-5.306 5.046-11.53 8.17-18.712 9.153.148 3.282-.348 6.105-1.42 8.566-3.773 8.657-10.404 6.132-3.415 11.823a46.97 46.97 0 0 1 7.091 7.155c1.805 2.264 2.335 3.06 3.384 4.782 1.547 2.18 1.06 4.73-3.085 5.029-2.88.209-7.588-.042-14.115-.758L102.96 186.92l-.185-.16c-3.242-3.491-2.335-9.163-1.397-14.071-3.322 3.015-7.365 5.292-11.47 7.454-2.068 1.09-.43 3.498 1.11 5.826 2.968 4.489 3.927 8.465 5.882 13.804.285.778-.33 3.157-1.756 3.127l-13.455-.28a1.14 1.14 0 0 1-1.122-.773c-1.972-5.792-5.012-11.668-9.039-16.104-1.788-1.97-2.857-3.695-2.9-5.753-.049-2.21.692-3.632 2.408-5.652 2.315-2.728 1.158-6.232-.899-9.163-1.426-2.275-2.514-5.7-2.923-8.232-3.89 10.545-10.864 18.917-22.71 16.696-13.14-2.465-19.007-18.637-9.997-31.58.574-.821 1.868-.552 2.054.443 1.781 9.516 11.612 8.844 17.815.456 6.324-8.551 10.98-9.231 18.743-6.143a24.302 24.302 0 0 1 2.794-2.658l1.544-16.021c-2.352-1.324-4.586-3.405-6.699-6.242-6.294.049-11.895-.25-17.1-1.367a1.14 1.14 0 0 1-.577-.431c-4.392-5.701-6.968-12.047-7.72-19.031-.73-6.78.26-14.153 2.972-22.111-7.524-8.81-13.002-19.536-16.77-31.815-3.122-8.454 3.776-17.25 12.712-16.271a12.135 12.135 0 0 1 7.016 3.244c2.711.602 5.546 2.443 7.144 5.93zm97.561 39.275c1.518 1.833 3.296 2.353 5.352 1.924-1.975-1.954-3.137-3.934-3.485-5.938-.454.86-.903 1.79-1.36 2.82zm7.357-12.182c.293 1.133.704 2.1 1.236 2.903l.74-5.505zm.892 5.459c-.95-.941-1.644-2.24-2.08-3.895-1.103 1.474-2.072 2.819-2.99 4.304-.018 2.594 1.31 5.144 3.985 7.654zm12.89 46.898a.988.988 0 0 1 .886.474c.404.663.011 1.005-.862 1.5-5.02 1.66-8.264-.133-9.728-5.381 2.14 3.927 5.374 5.063 9.703 3.407zm-21.355-8.652c-4.57.953-6.654-9.027-2.084-9.982 4.566-.955 6.655 9.029 2.084 9.982zm-.088-6.691c-.139-.796-.699-1.366-1.25-1.271-.552.096-.888.82-.75 1.618.138.797.698 1.365 1.25 1.27.552-.096.888-.82.75-1.617zM42.967 33.54c-1.703.066-3.603.855-5.699 2.37 2.225-2.65 4.725-4.313 7.501-4.99-2.095-3.112-.715-5.982 2.597-6.806-7.952-3.974-16.759 3.855-13.67 12.242l.021.063c3.678 11.449 7.78 20.112 14.207 28.424 2.446-5.681 6.21-10.251 11.378-13.61-2.967-3.643-4.539-7.827-5.67-13.842a1.139 1.139 0 0 1 .58-1.223c5.74-3.064.324-9.348-3.536-9.861-4.672-.621-6.593 1.766-1.955 5.475.257.203.424.518.43.87.01.634-.265.905-.699 1.039-3.72-.353-5.314 1.374-4.78 5.182-1.122-.89-1.588-3.917-.705-5.333zm132.388 69.442c.268-.26.863-.08 1.33.403.465.482.625 1.084.357 1.343-.268.259-.864.079-1.329-.404-.466-.482-.626-1.083-.358-1.342zm6.515.604c-.339.579-.874.895-1.196.706-.322-.188-.309-.81.03-1.39.34-.577.874-.893 1.196-.705.322.188.31.81-.03 1.389z"/></g><g opacity=".2"><g opacity=".2"><path fill="#090959" d="M95.032 201.486c27.168 0 49.193 3.423 49.193 7.646s-22.025 7.647-49.193 7.647-49.193-3.424-49.193-7.647c0-4.223 22.025-7.646 49.193-7.646z"/></g></g><g><path fill="#39d4fe" d="M84.21 108.906l1.468 2.911c3.34 8.98-.235 14.041 7.505 21.058-6.09-.767-7.757.177-9.546-6.777-1.633-6.354-.068-11.376.187-17.699zm59.976 48.207c-2.605-3.762-5.396-7.789-9.904-11.056a26.75 26.75 0 0 0-2.367-4.159c2.362-.44 4.66-.123 6.81 1.007 7.427 3.904 7.332 12.627 15.64 17.077 3.914 2.096 10.282 2.502 14.18-1.14-1.893 4.71-5.447 9.142-10.775 8.88-6.245-.305-10.224-5.757-13.584-10.609zM37.618 77.831c5.572 1.412 9.333 5.092 10.238 10.31-3.028-3.465-6.776-5.713-11.342-6.356-4.483-.72-8.16-2.07-10.365-5.146-1.81-2.868-.371-6.032 1.816-8.516-.352 2.36.177 4.193 1.545 5.713 1.597 1.771 4.316 2.964 8.108 3.995zm3.77-12.93l2.179.622c6.494 2.481 8.957 7.237 8.237 14.191-2.555-7.543-9.7-6-10.336-14.374zm25.644 16.727c8.468 1.981 6.087 15.704 5.613 22.065l-1.208 16.193c-3.18-4.777-5.153-10.81-4.352-16.398 1.039-7.236 1.108-14.57-.053-21.86z"/></g><g><path fill="#fc6ccc" d="M135.903 150.706c2.514 2.469 4.418 5.216 6.226 7.829 3.8 5.483 8.261 11.329 15.523 11.686 9.53.467 14.106-10.016 15.325-18.701 2.02 5.002 2.18 10.406.313 15.205-4.466 11.482-18.81 14.713-27.42 6.032-4.282-4.32-7.512-11.37-9.679-20.758zM76.04 93.165c1.952.906 3.397 2.71 4.28 5.405.873 2.665.827 4.026 1.043 7.356.031 2.33-.14 4.957-.526 7.877-.848 6.44-.582 12.745 2.341 17.773a22.174 22.174 0 0 1-3.675-2.843c-5.733-5.503-5.708-8.278-5.309-15.494.182-3.321.464-6.467.918-9.124zm14.218 29.487c-.254-2.971-.625-5.584-1.124-7.837l3.413 7.638c.756 1.635 3.182 3.708 4.885 4.897l.575 4.144c-4.715-.241-7.366-4.341-7.749-8.842zM30.382 69.09c3.27 1.267 6.402 1.137 8.997-1.004a10.36 10.36 0 0 0 1.427 3.238c3.045 4.559 10.245 5.316 8.935 14.083a14.317 14.317 0 0 0-2.004-3.89c-5.124-7.028-12.628-4.22-16.026-7.98zm117.778 80.544c-2.622-4.818-5.933-8.221-9.929-9.68 3.282.259 6.458 2.5 10.227 7.597 3.36 4.54 7.514 7.197 11.418 7.93 3.86.728 7.548-.391 10.023-3.468-.982 2.82-2.903 5.71-5.52 6.487-7.562 2.24-12.733-2.46-16.219-8.866z"/></g><g><path fill="#fff" d="M71.652 124.326c.392.46 1.046.568 1.555.289 3.177 5.609 7.926 9.526 14.128 11.666a1.25 1.25 0 0 0 1.654-1.191l7.726.156a1.252 1.252 0 0 0 1.14-1.073l.616-.16c.285 1.394.604 2.724.958 3.995-2.61 3.52-3.543 5.62-5.32 9.547-.315.696-.092 6.196.537 7.176 7.202 11.22 32.208 4.322 32.382-14.781a24.288 24.288 0 0 1 6.694 12.479 24.233 24.233 0 0 1-2.65 16.649c-1.69 2.415-2.623 4.697-2.795 6.843-.168 2.1.55 4.773 2.047 6.317 3.08 3.178 2.324 6.056-.494 9.094-3.21 3.46-6.102 8.19-8.166 12.707-.597 1.35-1.286 3.05-2.063 5.109-2.355.048-9.654.38-11.606.242-2.579.139-1.035-2.298-.828-3.17-.075.05 1.073-3.133 1.376-3.814 1.074-2.816 2.245-5.433 3.742-7.695 2.287-3.456 4.682-7.688.3-9.998-7.043-3.711-15.753-8.122-15.2-17.282-.776 2.198-1.534 9.296-.983 12.04.775 3.877 1.771 10.489-.895 12.955-4.858 3.752-9.36 8.044-13.633 12.448-6.78.732-11.24 1.016-14.204.8-.957.009-2.225-.534-1.658-1.95 2.658-4.922 6.357-7.772 10.763-12.284 3.318-2.702 6.595-6.061 2.338-9.318-4.886-3.74-6.986-8.5-6.73-14.797a54.17 54.17 0 0 1 10.636 2.787c-6.964-6.741-15.868-4.286-25.21-9.761 5.744 1.316 10.048-.678 13.214-4.626-9.476 4.509-13.805 4.16-21.709-2.21-.612-.492-1.542-.193-1.855.512l-.087.246-2.656 10.326c-1.722 8.475-2.172 6.98-10.058 7.438-2.196.273-2.624-2.127-2.689-4.035-.68-6.01-1.85-18.23.997-23.995 4.572-9.26 14.46-.358 18.772-6.217-7.739 1.538-9.126-1.402-14.246-.353.071-2.505-.056-5.607.705-7.757 1.323-3.737 2.52-8.185 1.008-11.743 6.224 1.144 10.705-.247 14.585-3.32-10.788 6.828-15.664-4.081-25.195 1.886l-1.277.79C15.342 124.658-1.195 113.49 3.77 99.655c3.036-8.46 12.924-15.711 21.04-20.63 2.515 2.946 6.76 4.47 11.361 5.238 5.08.717 9.296 3.993 12.017 8.51a1.25 1.25 0 0 0 2.244-.138c2.86-6.46 4.93-12.728 3.594-18.955 2.013 1.014 3.804 2.032 5.371 3.055l4.945 3.993a66.504 66.504 0 0 1 1.042 11.125c.037 3.78-.24 7.543-.776 11.283-1.07 7.464 2.133 15.398 7.044 21.19zm-7.957-88.331c.821-8.39 4.568-15.922 10.208-21.562 15.343-15.341 40.65-13.387 53.522 3.948-22.334-17.205-52.262-7.91-63.73 17.614zm8.18-8.76c14.567-18.58 41.712-20.184 58.09-3.243a9.885 9.885 0 0 0-2.606.613c-13.867-14.107-40.535-10.716-55.484 2.63zm59.833 18.19a9.141 9.141 0 0 0 2.263-.441 34.987 34.987 0 0 1-1.85 7.023 1.261 1.261 0 0 0-.21.543 35.52 35.52 0 0 1-8.842 12.912l-.949.849c5.28-5.522 8.776-12.754 9.588-20.886zm23.481 21.474c4.735 14.794 4.21 28.91-4.97 41.118a14.04 14.04 0 0 1-1.329.002c-4.483.067-7.306-1.89-8.467-5.871.29 3.838 1.434 6.324 3.437 7.458l-9.81.03c2.27-3.512 4.423-7.886 6.456-13.111 3.641-.538 7.488-1.405 10.105-2.82 6.028-3.255 3.065-8.438.324-9.804-.9-.45-1.912-.591-2.909-.213a57.446 57.446 0 0 1-4.775 1.576l.834-8.447a75.662 75.662 0 0 0 11.104-9.918zm-10.137-21.636c3.26-4.006 4.988-8.603 6.231-15.214a1.25 1.25 0 0 0-.638-1.343c-6.307-3.368-.356-10.274 3.887-10.838 5.134-.682 7.245 1.942 2.148 6.017a1.242 1.242 0 0 0-.472.957c-.01.696.29.994.767 1.14 4.09-.387 5.84 1.51 5.253 5.695 1.233-.976 1.745-4.304.775-5.86 1.872.072 3.96.94 6.263 2.605-2.445-2.913-5.193-4.74-8.244-5.483 2.303-3.421.786-6.575-2.853-7.481 8.74-4.367 18.418 4.237 15.022 13.455l-.023.068c-4.042 12.582-8.549 22.102-15.613 31.237-2.688-6.244-6.824-11.266-12.503-14.955zm-26.397 41.874c-2.03-.195-3.66-.76-5.312 1.116.845-1.89 1.626-4.007 2.342-6.353l3.557 2.218zm2.725-.813c.31-1.553.886-3.141-.062-3.806-1.247-.874-5.425-3.828-6.669-3.62a639.688 639.688 0 0 0-16.59 2.313c-3.122.478-7.189 1.18-10.213 1.7.103-1.094.557-2.578 1.06-3.877.127-.33-2.322 2.564-3.303 4.243-1.466.264-3.438.359-3.93 1.136l-4.379 6.57a9.662 9.662 0 0 0-1.45-.56c-.359-2.99-1.206-5.785-2.899-7.91 5.086-1.118 9.486-3.59 13.26-7.278 19.292 6.888 40.453-2.833 47.99-21.652 3.737-1.97 6.737-4.013 9.157-6.437 5.822 3.683 9.898 8.828 12.41 15.303-5.86 7.02-12.77 12.757-20.727 17.2 1.211.465 3.393.104 6.548-1.082l-1.085 7.4c-6.352 1.459-12.83 1.804-19.325 1.372zm-4.744 8.376c-1.406-.232-2.354-1.58-2.175-3.012.191-.86.626-2.305 1.698-2.294 12.89.256 20.103 1.426 32.747-3.365.273-.103.597-.041.913.113.713.305 3.855 3.065-.394 5.359-6.49 3.506-25.968 4.322-32.789 3.199zm-19.628 11.524c-3.792.158-7.537.365-11.23.615a8.104 8.104 0 0 0-1.935-1.741c-.153-4.75-1.186-9.801-4.472-12.726l4.12-6.17 3.18-.574 26.487-4.021a56.885 56.885 0 0 1-1.282 3.669c-1.739 5.324-4 9.758-6.786 13.299l.173-.085c2.723-1.594 4.96-4.263 6.804-7.652l-.093.547c-.308 2.55 1.248 4.942 3.676 5.653-.89 2.063-1.882 3.812-2.973 5.24-1.225 1.608-2.58 2.813-4.053 3.612-3.9.06-7.776.172-11.616.334zm4.478 9.34l2.356-3.694a1.3 1.3 0 0 0 .246-.585c-2.376 1.143-4.755 3.74-7.135 7.794l.153 4.867-2.287-2.54c-2.022-4.37-3.375-9.24-6.92-12.198 3.092-.197 6.162-.36 9.207-.487l12.402-.471c4.128-2.094 6.852-6.33 8.713-10.87 4 .287 12.067.329 19.453-.49-2.802 6.929-7.415 16.187-13.89 19.768-7.62-3.738-15.368-4.87-22.33-1.032zm22.881 21.602c.587 6.222-.983 10.64-4.257 14.214-3.987 4.35-10.412 6.792-16.074 6.119-3.086-.367-5.732-1.677-7.188-3.97l-.355-3.775c9.206 2.828 17.335 1.636 21.628-7.266-6.473 6.114-12.91 7.397-21.174 4.785l4.846-8.248a1.25 1.25 0 0 0 .208-1.107l-1.41-6.157-1.218-11.634c6.89-5.944 14.93-5.31 23.225-1.265zm-81.34-74.43c.495-1.554 1.09-2.855 2.043-3.237.928.156 2.36 3.61 2.977 5.43-.006-.003-1.372-4.317-4.396-2.01zm85.21-25.665c-1.705-3.27-.929-11.996 4.452-9.79 2.135.875 3.526 3.219 4.182 5.867 2.46 9.917-6.268 9.223-8.635 3.923zm3.07 5.84c-6.363.067-9.178-10.527-5.016-14.664-1.477 4.583-1.686 5.04-.404 9.695 1.014 2.43 2.951 4.177 5.42 4.97zM53.41 70.599c-.994-.466-.39-.403-1.677-2.19 1.952-3.122 5.367-7.697 7.913-6.75 3.32 1.237 4.901 10.372 5.513 16.364A26.924 26.924 0 0 0 63.99 77c-2.087-16.194-5.928-15.792-10.58-6.402zm-18.459 67.72c-2.965 1.538-4.566 4.547-5.393 7.94-8.656-3.016-11.307 4.137-12.674 10.2-10.476-1.685-10.6.19-8.954-6.322 0 .004 3.775-27.244 27.555-20.047-.612 2.745-.355 5.556-.534 8.23z"/></g><g><path fill="#ffccd9" d="M44.372 166.227c-1.476 6.65-2.377 5.385-9.714 5.81-2.195.273-2.623-2.128-2.69-4.036 1.91-2.886 6.043-3.477 12.404-1.774zm42.522 33.657a183.138 183.138 0 0 0-5.02 4.99c-6.781.731-11.24 1.016-14.204.8-.957.008-2.224-.534-1.658-1.95.08-.149.163-.296.245-.442 3.335-5.217 9.985-5.368 20.637-3.398zm34.77 4.154c-.597 1.35-1.285 3.052-2.062 5.11-2.355.047-9.655.381-11.606.242-2.58.14-1.035-2.298-.83-3.17-.04.028.293-.937.65-1.919a13.385 13.385 0 0 1 13.848-.263zM9.264 91.092c11.126-7.086 29.74 11.74 21.074 24.448l-.001.001c-.554.263-1.133.58-1.742.962l-1.277.79C15.343 124.658-1.195 113.49 3.77 99.654c1.086-3.025 3.049-5.897 5.494-8.562zm46.34-19.414c3.5-7.97 4.645-5.425 5.662 3.295zm-48.45 82.066c1.35-2.333 5.19-3.577 9.39-2.847.658.115 1.29.273 1.89.465-.686 1.62-1.17 3.4-1.551 5.096-7.728-1.244-9.821-.55-9.728-2.714z"/></g><g><path fill="#fef363" d="M29.726 57.748c1.046-1.034 1.808-2.462 2.286-4.28 1.213 1.62 2.277 3.096 3.286 4.73.02 2.85-1.44 5.653-4.38 8.41zm9.065 7.389c-1.667 2.013-3.621 2.585-5.88 2.113 2.17-2.146 3.447-4.322 3.83-6.524.498.946.992 1.967 1.494 3.1zM28.536 48.888l2.17 2.86c-.32 1.244-.773 2.307-1.357 3.19z"/></g><g><path fill="#b0921b" d="M35.777 63.501c.104-.2.202-.4.29-.6a9.178 9.178 0 0 0 .673-2.176c.498.946.992 1.967 1.495 3.1l.556 1.311c-1.667 2.014-3.621 2.586-5.881 2.114 3.229-.436 3.452-1.005 2.867-3.749zm-6.16-12.435a54.533 54.533 0 0 0-.953-1.226l-.128-.95 2.17 2.86c-.051.197-.106.392-.163.582-.305.997-.703 1.865-1.194 2.606.696-1.558.785-2.849.268-3.872zm2.178 3.14c.078-.239.149-.485.217-.739 1.213 1.621 2.277 3.098 3.286 4.73a8.384 8.384 0 0 1-.34 2.411c-.586 2.024-1.933 4.024-4.04 6 2.565-3.249 3.59-6.039 3.08-8.369a35.159 35.159 0 0 0-2.203-4.034z"/></g><g><path fill="#b5b1d4" d="M81.263 92.527c1.815 1.646 3.044 3.962 3.684 6.95.081.954.34 1.46.775 1.517 3.902.222 8.931.075 15.09-.442 1.628-.03 3.261-.807 4.898-2.337 2.522-1.617 4.614-4.176 6.357-7.377l-.093.547c-.27 2.212.862 4.296 2.746 5.277-2.049 3.995-4.144 6.704-6.285 8.126-5.792.443-13.643.81-23.555 1.102-.33-.3-.676-.564-1.037-.793-.154-4.749-1.187-9.8-4.472-12.725l1.786-2.676c-.527 1.24-.49 2.183.106 2.831zm32.08-4.275c.845-1.889 1.626-4.006 2.342-6.352a83.709 83.709 0 0 0 2.741 2.334c-.13 1.112-.369 2.044-.716 2.793-1.607-.204-2.98-.352-4.367 1.225zm.635 20.433c-.556.272-1.103.526-1.642.76zm10.388 28.48l-.339-3.51v-.006zm-11.844-21.346c2.15.188 4.345.721 6.57 1.538 1.162.428 2.331.932 3.506 1.505l1.43 14.793c.74 12.489-4.169 19.987-14.728 22.489l-.004.001c-7.21 1.039-11.477-1.091-12.803-6.392 9.206 2.828 17.335 1.636 21.628-7.265-2.384 2.251-4.764 3.847-7.23 4.836-4.232 1.694-8.724 1.599-13.945-.051l2.785-4.739c-.548 1.412-.936 2.507-1.16 3.284-.183.772.288 1.317 1.407 1.637 2.753 1.072 6.39 1.027 10.913-.131 7.368-3.319 10.35-11.565 8.944-24.737-.57-3.877-3.008-6.133-7.313-6.768zm5.621-22.739c3.063.093 34.162-.366 32.467-6.341 1 .999 2.051 3.014-1.185 4.761-6.49 3.506-25.968 4.322-32.79 3.2-1.405-.232-2.353-1.581-2.175-3.013.191-.858.626-2.304 1.7-2.293-1.323 2.581-.663 3.605 1.983 3.686zm49.212-77.856c4.843 2.17 8.003 7.803 5.835 13.688l-.022.069c-4.042 12.582-8.549 22.102-15.613 31.236a35.44 35.44 0 0 0-2.885-5.396c17.276-21.74 21.505-34.94 12.685-39.597zm1.931 12.699a.796.796 0 0 1-.02.498c-2.225-.716-4.148-.995-5.77-.836-.044-.674-.202-1.301-.494-1.768 1.873.072 3.96.94 6.264 2.604-2.445-2.912-5.193-4.74-8.244-5.482 2.303-3.421.786-6.576-2.853-7.481.386-.193.776-.361 1.165-.505 3.214 1.209 4.375 3.34 3.485 6.394-.034.507.291.947.98 1.321.127.071.27.139.423.205a11.164 11.164 0 0 1 4.514 4.087c.194.308.377.629.55.963zm-46.078 57.469l.002-.016.004-.048.003-.028v-.003l.004-.033.003-.032v-.007l.003-.024.002-.032.002-.018.001-.012.002-.031.001-.03zm12.32-23.659c3.325 9.414 11.74 1.456 17.202-5.299a33.703 33.703 0 0 1 3.032 6.015c-5.86 7.021-12.77 12.757-20.727 17.2 1.211.464 3.393.104 6.548-1.082l-1.085 7.4a59.35 59.35 0 0 1-5.778 1.025c-4.489.572-9.034.647-13.547.347l.206-1.016c.31-1.553.887-3.141-.06-3.805-.775-.542-2.673-1.884-4.302-2.775 2.418.841 4.345 1.972 5.782 3.396.35.399.494 1.045.436 1.938v.001c-.016.686.183 1.044.596 1.076 4.254.058 7.634-.107 10.143-.496.823-.101 1.356-.766 1.596-1.995.054-.389.09-.764.102-1.123-.053-.603-.335-.998-.847-1.186a9.379 9.379 0 0 1-2.584.029c-1.818-.127-2.029-1.02-.632-2.677 9.005-12.069-3.67-9.861-4.673-7.517-2.8 3.272-6.175 5.783-10.242 7.616-.28.127-.56.249-.843.366-.503-.209-.925-.32-1.202-.272a646.15 646.15 0 0 0-15.289 2.113 29.874 29.874 0 0 1-5.02-1.322c-3.03-.986-4.909-.486-4.348 2.852l-2.147.369c.103-1.094.558-2.578 1.06-3.877.128-.331-2.32 2.563-3.302 4.243-1.466.263-3.438.358-3.93 1.136l-4.379 6.57a9.633 9.633 0 0 0-1.452-.56 22.815 22.815 0 0 0-.472-2.666 74.95 74.95 0 0 1 11.602-9.342c.663-.85.845-1.592.545-2.223l.14.095c-.494-.337-.981-.69-1.453-1.053 19.293 6.889 40.454-2.833 47.99-21.651 1.564-.825 3-1.662 4.316-2.534-2.975 4.027-3.969 7.588-2.982 10.684zm12.487 21.959a58.164 58.164 0 0 1-4.764 1.572l.834-8.448a75.655 75.655 0 0 0 11.104-9.917c-1.452 3.052-3.46 5.923-6.027 8.612-1.103 1.241-1.86 2.708-2.269 4.403-.1.402-.179.817-.238 1.245-.063.363-.116.711-.16 1.045-.138 1.127.368 1.624 1.52 1.488zm-2.803 13.244c-1.87.499-3.174 1.5-3.91 3.005v.001c-.525 1.282-.67 2.435-.43 3.46-.17-.393-.32-.811-.449-1.255.288 3.839 1.434 6.325 3.437 7.459l-9.812.029c2.27-3.512 4.425-7.885 6.458-13.11a57.554 57.554 0 0 0 3.328-.587c2.532-.528 4.953-1.247 6.777-2.232 2.575-1.392 3.51-3.133 3.521-4.78.198 4.499-2.775 7.17-8.92 8.01zm-13.504-51.511a9.196 9.196 0 0 0 2.263-.441 35.071 35.071 0 0 1-1.85 7.023 1.24 1.24 0 0 0-.21.543 35.497 35.497 0 0 1-8.843 12.911l-.948.85c5.278-5.522 8.776-12.754 9.588-20.886zm-.4-2.513c-5.36.055-8.202-7.449-6.479-12.291-.037 2.433.225 4.534.783 6.299.083.317.175.657.274 1.022a8.792 8.792 0 0 0 1.645 2.581l.002.003a8.733 8.733 0 0 0 3.774 2.386zm5.911-5.438c-.798 5.197-7.038 3.951-8.983-.403-1.293-2.479-1.159-8.094 1.326-9.705-2.85 7.493 2.956 15.153 7.657 10.108zM86.972 6.124A35.373 35.373 0 0 1 97.86 4.069a35.683 35.683 0 0 1 14.621 2.659c5.938 3.5 10.92 7.384 14.944 11.653-4.37-3.366-9.029-5.718-13.785-7.133-10.14-5.211-19.03-6.92-26.668-5.124zm6.154 7.248c12.743-3.173 26.81.245 36.838 10.62a9.839 9.839 0 0 0-2.605.613c-4.212-4.284-9.605-6.955-15.49-8.223-8.039-2.462-14.287-3.465-18.743-3.01zM24.381 129.211c1.982-.384 4.193-.455 6.662-.113 1.397.192 2.875.517 4.44.991-.61 2.745-.355 5.556-.533 8.23-2.966 1.537-4.566 4.545-5.393 7.939-6.236-2.174-9.355.931-11.123 5.104a14.34 14.34 0 0 0-2.474-.553c2.648-12.227 13.6-3.92 14.947-18.921-.214-1.992-2.388-2.883-6.526-2.677zm11.84-43.522a13.964 13.964 0 0 0-2.092-.13c-4.738-.541-7.845-2.719-9.32-6.534 2.516 2.945 6.76 4.469 11.362 5.237 5.025.709 9.204 3.922 11.928 8.363a31.73 31.73 0 0 0-3.429-3.104c-.306-.945-.93-1.672-1.935-1.882a2.441 2.441 0 0 0-.927-.018c-1.853-1.027-3.715-1.672-5.588-1.932zm28.99 11.819a195.286 195.286 0 0 0-1.138-11.739c-.383-2.597-.884-4.115-1.506-4.558-.854-.927-6.966-6.831-6.94-2.019.006.359.003.707-.008 1.043a41.82 41.82 0 0 1-.326 2.633c-.808 5.096-2.485 8.447-5.03 10.054a1.42 1.42 0 0 0 .17-.287c2.637-5.965 4.962-12.348 3.592-18.955l.06.029.117.06.023.012.035.018.117.059c4.303 1.38 6.552 3.394 9.965 6.87a66.395 66.395 0 0 1 1.041 11.124 71.058 71.058 0 0 1-.173 5.656zm25.172 38.964c-.044.625-.517 1.007-1.42 1.148-5.746-.563-10.816-3.951-15.21-10.165-.689.437-1.488.154-2.41-.863-6.36-7.073-8.648-14.505-6.867-22.3-.604 7.119 2.518 14.539 7.175 20.033a1.254 1.254 0 0 0 1.556.289c.4.707.826 1.387 1.276 2.04 3.121 4.529 7.432 7.756 12.852 9.626a1.25 1.25 0 0 0 1.654-1.191l1.024.021 6.701.136a1.253 1.253 0 0 0 1.141-1.073l.615-.159c.285 1.392.604 2.723.96 3.993-2.613 3.521-3.544 5.62-5.32 9.548-.317.695-.093 6.196.536 7.176 7.202 11.219 32.208 4.322 32.382-14.782a24.291 24.291 0 0 1 6.694 12.48 24.236 24.236 0 0 1-2.65 16.648c-1.69 2.415-2.624 4.698-2.795 6.844-.11 1.372.16 2.989.776 4.377-2.385-2.684-3.214-5.76-2.485-9.225.374-.988.707-2.005 1.002-3.053 1.042-3.716 1.58-7.802 1.613-12.257.002-.158.003-.317.003-.476-.044-4.921-1.99-5.117-5.838-.594-3.422 4.538-7.68 7.044-12.776 7.517-.577.037-1.14.065-1.688.083-8.659.292-13.798-1.641-15.414-5.799-1.513-6.54-1.415-8.698 2.36-14.026 2.408-3.794.592-5.792-5.447-5.996zM46.08 118.12c.075-.04 7.51-3.424 7.41-3.385-12.377 4.792-15.106-3.021-23.153.805a12.935 12.935 0 0 0 1.452-2.801c2.71-.559 5.212-.536 7.508.067 2.256.889 4.166 1.514 5.732 1.872a12.305 12.305 0 0 0 1.09.216c2.623.398 5.267-.084 7.93-1.446 2.972 2.685-9.329 5.15-8.55 15.688-.065.6 1.75 9.433 6.114 7.396 2.022-.824 2.444-.012 1.267 2.436-4.23 6.191-12.967-.947-20.203 5.675.092-.22.187-.432.288-.636 4.573-9.26 14.46-.359 18.773-6.218-6.705 2.124-10.024-.57-14.246-.352.071-2.505-.056-5.607.705-7.757 1.323-3.737 2.52-8.185 1.008-11.743zm8.915-54.122c1.551-1.687 3.235-2.866 4.65-2.339 3.318 1.235 4.901 10.371 5.512 16.363a26.314 26.314 0 0 0-1.167-1.023c-.79-6.122-1.829-9.871-3.069-11.661a4.417 4.417 0 0 0-.405-.509c-1.402-1.573-3.242-1.85-5.52-.831zm-6.949.931c-.005-.004-1.372-4.317-4.395-2.011l-.625-.182c.496-1.554 1.09-2.855 2.043-3.237.93.155 2.36 3.61 2.977 5.43zm37.635 134.737a81.157 81.157 0 0 0-4.677-.683l-.087-.01-.024-.002-.063-.007c1.705-2.331 2.582-4.85 2.63-7.554.267-4.141-1.183-7.237-4.347-9.288-4.886-3.739-6.986-8.501-6.73-14.798a54.163 54.163 0 0 1 10.636 2.788c-6.964-6.741-15.868-4.286-25.21-9.761 2.644.383-4.263-2.819-.22-2.023-2.56-.703-5.136-2.283-8.275-4.813-.612-.493-1.542-.194-1.855.511l-.087.247-2.656 10.325c-.12.591-.235 1.132-.345 1.629a30.992 30.992 0 0 0-3.365-.718c1.037-3.509 1.042-7.164 1.968-10.738.94-3.62 4.748-5.835 9.171-3.755 1.661.78 5.965 4 8.618 3.965 1.37-.018 2.587-.35 4.01-.611l.002-.001c1.491-.39 3.3-.971 5.43-1.747 3.462-1.07 4.974-.382 4.534 2.064a7.063 7.063 0 0 1-.299.459l-.233-.068c.663.196 1.363.426 2.107.694 7.965 2.134 15.21 5.646 21.733 10.537 1.278 1.118 2.236 2.252 2.874 3.404.078.155.157.309.24.463 2.945 5.489 9.798 10.242 14.8 13.921 2.601 2.157 2.041 5.98-1.684 11.471-2.068 2.535-3.778 5.2-5.127 7.995l-.02.01-.022.011-.044.02-.02.011-.017.008-.005.002-.042.022-.02.01-.022.011-.043.021-.02.01-.022.012-.022.01-.009.005-.01.006-.023.011-.02.011-.022.011-.063.034-.02.011-.02.011-.023.011-.003.002-.018.009-.02.011-.022.012-.02.012-.105.057-.018.011-.003.001-.02.011-.125.072-.02.012-.022.011-.012.008-.008.005-.02.012-.02.012-.022.012-.02.013-.062.036-.02.012-.02.013-.007.003-.015.009-.02.013-.02.012-.04.026-.042.025-.02.013-.02.012-.022.013c.29-.79.591-1.592.728-1.896 1.074-2.815 2.245-5.432 3.742-7.695 2.06-3.113 4.815-7.619.3-9.998-6.209-3.27-13.71-7.087-15.024-14.219a48.64 48.64 0 0 1-.177-3.063c-.776 2.198-1.533 9.296-.983 12.041.775 3.877 1.772 10.489-.894 12.955-2.997 2.314-5.858 4.834-8.613 7.458-.392-.072-.779-.142-1.16-.209zm9.138-78.261c-2.023-4.369-3.376-9.238-6.92-12.197 3.091-.197 6.162-.36 9.207-.488l12.402-.47c4.127-2.095 6.852-6.329 8.713-10.87 3.998.286 12.067.329 19.453-.49-2.802 6.929-7.416 16.186-13.892 19.767a40.402 40.402 0 0 0-2.823-1.259c-2.395-.961-4.793-1.635-7.164-1.951 4.737.576 8.667-.566 11.791-3.426 2.516-3.209 4.326-6.127 5.427-8.77.448-1.542-.436-2.242-2.654-2.101l-.04.004a44.905 44.905 0 0 1-5.777.01c-.994-.259-1.763-.04-2.306.655a3.096 3.096 0 0 0-.364.609c-2.392 3.904-5.282 6.877-8.67 8.919-.44.264-.888.514-1.344.747-.722.333-1.66.701-2.813 1.105a6.322 6.322 0 0 0-1.029.351c-1.416.626-2.486 1.758-3.207 3.395-.455.206-.907.433-1.355.681l.032-.063 2.355-3.694c.142-.194.221-.393.247-.585-2.377 1.143-4.755 3.741-7.135 7.794l.076 2.434.077 2.434z"/></g><g><path fill="#090959" d="M72.648 29.1C55.52 44.812 67.62 66.022 85.978 73.106l.273.105a36.026 36.026 0 0 0 11.08 2.273c8.734-.37 16.622-3.898 22.463-9.514 5.562-5.347 9.272-12.596 10.093-20.815-7.512-2.008-10.352-14.578-4.18-19.671-13.455-12.977-39.01-9.271-53.059 3.616z"/></g><g><path fill="#040440" d="M116.83 40.912C115.696 60.7 103.755 70.42 81.005 70.074a37.62 37.62 0 0 0 5.201 2.486l.27.102a35.297 35.297 0 0 0 10.852 2.226c8.555-.36 16.281-3.817 22.002-9.319 5.448-5.237 9.083-12.337 9.887-20.388-7.359-1.968-10.141-14.28-4.095-19.269-9.393-9.059-24.808-9.818-37.872-4.934 17.927-1.919 27.772 2.29 29.537 12.623.369 2.168.384 4.604.043 7.311z"/></g><g><path fill="#bbbbda" d="M115.345 39.755c.402-1.44 1.467-2.4 2.38-2.147.913.257 1.328 1.63.926 3.07s-1.468 2.402-2.38 2.147c-.914-.255-1.328-1.63-.926-3.07zM78.284 61.697c-9.778-6.926-14.358-19.557-3.711-29.323a30.669 30.669 0 0 1 5.39-3.93c-10.672 10.725-11.231 21.81-1.68 33.254zm39.875-31.675c-1.324 1.358-4.132.767-6.274-1.32-2.141-2.087-2.805-4.88-1.482-6.237 1.322-1.357 4.13-.766 6.273 1.32 2.14 2.087 2.805 4.88 1.483 6.237z"/></g><g><path fill="#b193b5" d="M32.461 170.72c.381.87 1.046 1.46 2.196 1.316 7.337-.424 8.24.84 9.715-5.809a30.837 30.837 0 0 0-3.4-.725c-1.176 3.01-4.013 4.747-8.51 5.218zm-3.866-54.218c.61-.38 1.188-.7 1.742-.962a12.89 12.89 0 0 0 1.452-2.802c-1.846.382-3.787 1.032-5.825 1.949-1.327.864-2.632 1.542-3.918 2.032-6.718 2.564-12.87.007-18.456-7.665 2.994 8.774 14.666 13.811 23.727 8.238zm-21.44 37.242c-.096 2.165 2 1.47 9.727 2.714.382-1.696.866-3.476 1.552-5.096a14.183 14.183 0 0 0-2.42-.547c-1.925 2.997-4.878 3.972-8.86 2.93zm48.45-82.067l5.661 3.296c-.576-4.936-1.194-7.894-2.256-8.086 1.706 5.17.57 6.766-3.406 4.79zm52.753 134.363c.293-.92.593-1.763.901-2.53l-.108.053-1.335.739c-.358.982-.69 1.946-.649 1.918-.207.872-1.75 3.309.828 3.17 1.546.11 6.445-.076 9.587-.182-6.49.09-9.565-.966-9.224-3.167zm-27.528-7.076c-3.74 5.111-8.448 4.597-14.574 4.317a36.71 36.71 0 0 0-.245.443c-.566 1.416.702 1.959 1.66 1.95.197.014.401.027.614.036h.001c2.956.14 7.26-.154 13.588-.837.946-.973 1.902-1.943 2.873-2.902.71-.701 1.424-1.398 2.147-2.086a93.766 93.766 0 0 0-1.16-.21 75.235 75.235 0 0 0-4.904-.71z"/></g><g><path fill="#1277cd" d="M51.804 79.714c-2.556-7.543-9.7-6-10.337-14.373l-.078-.44c1.456 2.484 3.057 4.276 4.8 5.375.19.12.383.232.575.335 2.835 1.777 4.515 4.812 5.04 9.103zm19.632 40.172c-3.18-4.776-5.152-10.81-4.352-16.397 1.04-7.236 1.108-14.572-.053-21.86 2.496 3.794 3.245 10.391 2.245 19.79a39.826 39.826 0 0 0-.306 2.555c-.497 5.707.326 11.012 2.466 15.912zm21.746 12.99c-6.09-.767-7.756.177-9.545-6.777-1.633-6.355-.068-11.377.188-17.699l.193.253c-.255 7.561.1 13.236 1.069 17.026.864 4.166 3.563 6.565 8.096 7.196zm75.224 26.301c-1.925 4.583-5.435 8.801-10.637 8.546-6.245-.306-10.224-5.758-13.584-10.609-2.605-3.762-5.396-7.79-9.904-11.056 4.072.823 8.785 5.292 14.138 13.405 6.058 7.726 12.721 7.631 19.987-.286zm-134.2-79.69c5.688.801 10.238 3.685 13.65 8.655-3.027-3.466-6.775-5.714-11.341-6.356-4.484-.72-8.161-2.07-10.366-5.146-1.81-2.869-.371-6.033 1.816-8.517-2.893 5.998-.811 9.786 6.242 11.364z"/></g><g><path fill="#fac7f1" d="M97.55 128.201c-3.148-1.28-5.854-5.522-8.122-12.726l3.118 6.978c.757 1.634 3.183 3.708 4.886 4.897zm70.703 38.498c-1.377 1.461-2.81 2.593-4.298 3.396-3.21 1.733-6.676 1.934-10.398.604a19.988 19.988 0 0 1-2.585-1.147c-4.762-2.74-9.785-9.024-15.069-18.847 2.514 2.47 4.418 5.216 6.226 7.83 3.798 5.483 8.261 11.33 15.522 11.685 9.531.467 14.107-10.016 15.326-18.7-.519 6.84-2.094 11.9-4.724 15.18zm-16.927-15.889c2.712 2.574 5.697 4.136 8.55 4.673 2.94.554 5.783.036 8.065-1.605-5.745 4.451-11.283 3.428-16.615-3.068zM44.867 75.658c-3.55-2.576-5.63-4.713-5.489-7.57a10.41 10.41 0 0 0 1.427 3.236c3.017 4.515 10.107 5.301 8.97 13.833-.317-3.618-1.66-7.142-4.908-9.499zm34.843 36.765c.225-1.278.396-2.499.514-3.665.752-7.41-.643-12.609-4.184-15.593 1.952.905 3.397 2.71 4.28 5.405.872 2.664.827 4.025 1.043 7.355.031 2.332-.14 4.957-.526 7.877-.848 6.44-.583 12.746 2.34 17.774-3.118-5.063-4.274-11.447-3.467-19.153z"/></g><g><path fill="#b548ad" d="M83.177 131.576a22.179 22.179 0 0 1-3.674-2.843c-5.733-5.503-5.708-8.278-5.309-15.494.182-3.321.463-6.467.918-9.124l.928-10.95c1.32 3.916 1.603 9.46.852 16.63a34.226 34.226 0 0 0-.326 2.729c-.578 7.499 1.625 13.849 6.611 19.052zm89.8 19.944c2.02 5.002 2.178 10.406.313 15.205-4.467 11.48-18.81 14.713-27.42 6.032-4.282-4.32-7.512-11.37-9.679-20.758l-.144-.647c5.31 16.355 12.932 24.833 22.565 23.3 14.065-1.78 14.86-12.495 14.365-23.132zm-3.48.966c.136-.152.271-.31.402-.472-.982 2.82-2.903 5.71-5.52 6.487-7.562 2.24-12.733-2.46-16.219-8.866-2.622-4.818-5.933-8.221-9.929-9.68 4.92.588 9.101 5.383 13.74 13.76 1.727 3.12 5.544 4.474 9.102 4.224a10.382 10.382 0 0 0 8.423-5.453zM97.883 130.61l.123.884c-4.715-.241-7.366-4.341-7.749-8.842-.254-2.971-.625-5.584-1.124-7.837 1.144 3.335 2.077 6.3 2.798 8.894.11.56.252 1.088.427 1.587.57 1.622 1.491 2.919 2.762 3.889l.004.003c1.32.642 1.932.222 1.838-1.263a7.969 7.969 0 0 0-.14-1.015c.21.157.414.305.61.44l.117.852zm-.92-2.685c.193.104.39.196.586.277zM49.57 84.93a14.169 14.169 0 0 0-1.834-3.413c-6.292-8.63-14.504-3.538-17.355-12.427 3.27 1.267 6.401 1.137 8.997-1.004-.905 1.05-2.598 1.927-5.078 2.628-.676.47-.424 1.055.752 1.754h.002c.72.346 1.463.629 2.232.844 6.968 1.993 10.12 3.998 12.284 11.618z"/></g><g><path fill="#a5f4fc" d="M43.567 65.523c6.493 2.482 8.957 7.237 8.237 14.191.318-7.147-2.79-11.98-9.326-14.502zm28.24 38.337c.15-1.075.276-2.113.377-3.113 1.047-10.317-.477-16.637-4.57-18.959 7.774 2.466 5.493 15.694 5.03 21.905l-1.177 15.797c-.268-5.565-.155-10.775.34-15.63zm14.821 18.457a93.377 93.377 0 0 0-.545-4.567c-.474-3.258-1.098-6.207-1.874-8.844l1.47 2.912c3.215 8.647.02 13.66 6.69 20.286-2.879-1.235-4.793-4.497-5.74-9.787zm45.287 19.581c2.362-.44 4.66-.122 6.81 1.007 7.426 3.904 7.331 12.627 15.641 17.078 3.004 1.608 7.455 2.221 11.125.772-7.37 3.274-13.793.558-19.27-8.147-3.855-6.478-8.623-10.047-14.306-10.71zm-95.152-63.54a30.779 30.779 0 0 0-1.602-.394c-3.274-.958-5.38-2.625-6.322-5 .195.302.418.593.67.873 1.598 1.771 4.317 2.963 8.108 3.995 5.573 1.411 9.334 5.091 10.238 10.31-1.148-4.81-4.845-8.07-11.092-9.785z"/></g><g><path fill="#fff" d="M30.798 57.025c.403-.795.71-1.66.922-2.597-.475 1.368-1.139 2.475-1.994 3.32l1.192 8.86c.223-.282.435-.562.634-.837-.166-1.928-1.37-7.474-.754-8.746zm-1.466-2.214a6.888 6.888 0 0 0-.597-4.434"/></g><g><path fill="#090959" d="M115.685 81.9c-.716 2.345-1.497 4.463-2.342 6.352 1.651-1.875 3.281-1.31 5.312-1.114l.587-3.02zM73.903 14.431c-5.64 5.64-9.387 13.174-10.208 21.563 11.468-25.524 41.396-34.82 63.73-17.613-12.872-17.336-38.179-19.29-53.522-3.95zm-2.028 12.803c14.95-13.346 41.617-16.737 55.484-2.63a9.885 9.885 0 0 1 2.606-.614c-16.378-16.94-43.523-15.336-58.09 3.243zm70.254 131.3c-1.808-2.613-3.712-5.36-6.226-7.83l.288 1.293c2.167 9.389 5.397 16.44 9.68 20.759 8.608 8.682 22.953 5.45 27.42-6.032 1.865-4.8 1.706-10.203-.314-15.204-1.219 8.684-5.795 19.167-15.325 18.7-7.262-.357-11.724-6.203-15.523-11.687zm6.33-10.983c-3.77-5.095-6.946-7.337-10.228-7.596 3.996 1.458 7.307 4.86 9.93 9.679 3.485 6.406 8.656 11.107 16.217 8.866 2.618-.777 4.54-3.668 5.521-6.488-2.475 3.077-6.164 4.197-10.023 3.47-3.904-.735-8.059-3.39-11.418-7.932zM37.616 77.832c-3.79-1.031-6.51-2.224-8.108-3.995-1.367-1.52-1.896-3.355-1.545-5.714-2.187 2.485-3.625 5.649-1.816 8.517 2.205 3.076 5.883 4.426 10.366 5.146 4.566.643 8.314 2.89 11.341 6.356-.904-5.218-4.665-8.9-10.238-10.31zm23.65-2.858c-1.018-8.722-2.163-11.268-5.663-3.297zm-25.783 55.115c-23.78-7.197-27.556 20.05-27.555 20.047-1.645 6.512-1.522 4.637 8.954 6.323 1.367-6.064 4.018-13.217 12.674-10.2.827-3.394 2.428-6.402 5.393-7.94.18-2.674-.078-5.484.534-8.23zm9.586-70.59c-.954.382-1.548 1.683-2.044 3.237.21.06.416.122.625.183 3.024-2.307 4.39 2.007 4.396 2.01-.618-1.82-2.049-5.274-2.977-5.43zm86.845 82.399a26.886 26.886 0 0 1 2.367 4.16c4.507 3.267 7.298 7.294 9.903 11.056 3.36 4.852 7.34 10.304 13.585 10.609 5.328.262 8.881-4.171 10.775-8.88-3.898 3.642-10.266 3.236-14.179 1.14-8.31-4.45-8.215-13.173-15.642-17.077-2.149-1.13-4.447-1.448-6.809-1.008zm-91.11-70.573a10.381 10.381 0 0 1-1.426-3.239c-2.595 2.143-5.728 2.272-8.997 1.005 2.851 8.89 11.063 3.798 17.355 12.427a14.295 14.295 0 0 1 2.004 3.89c1.31-8.767-5.89-9.524-8.936-14.083zm.583-6.424l.08.44c.636 8.372 7.78 6.83 10.336 14.373.72-6.954-1.744-11.71-8.237-14.19zm18.257-3.242c-2.546-.949-5.96 3.626-7.913 6.748 1.287 1.788.683 1.726 1.677 2.19C58.062 61.21 61.903 60.806 63.99 77c.411.34.8.68 1.168 1.022-.612-5.992-2.194-15.128-5.513-16.364zm65.477-35.746c-13.179-12.711-38.21-9.08-51.97 3.543-16.779 15.39-4.927 36.165 13.054 43.105l.27.101a35.309 35.309 0 0 0 10.851 2.226c8.556-.36 16.282-3.817 22.003-9.319 5.448-5.237 9.082-12.337 9.887-20.389-7.359-1.967-10.14-14.28-4.095-19.268zm.765 12.028c-1.282-4.653-1.073-5.11.404-9.695-4.162 4.138-1.347 14.731 5.016 14.665-2.469-.793-4.406-2.539-5.42-4.97zm10.984-4.794c-.656-2.647-2.047-4.991-4.182-5.866-5.38-2.206-6.157 6.52-4.453 9.79 2.367 5.3 11.094 5.993 8.635-3.924zm6.38 52.116a57.811 57.811 0 0 0 4.775-1.575c.997-.379 2.01-.237 2.91.212 2.74 1.367 5.703 6.55-.325 9.805-2.617 1.415-6.464 2.282-10.105 2.82-2.033 5.224-4.187 9.598-6.457 13.11l9.811-.03c-2.003-1.133-3.148-3.62-3.437-7.457 1.161 3.98 3.984 5.938 8.467 5.87.42.022.862.022 1.33 0 9.18-12.21 9.704-26.326 4.97-41.12a75.605 75.605 0 0 1-11.105 9.919zM97.432 127.35c-1.703-1.19-4.129-3.262-4.885-4.897l-3.413-7.639c.5 2.255.87 4.867 1.124 7.839.383 4.5 3.034 8.6 7.75 8.841zM83.824 108.4c-.255 6.321-1.82 11.344-.187 17.698 1.79 6.955 3.455 6.01 9.545 6.778-7.739-7.018-4.164-12.079-7.504-21.059l-1.469-2.91zm16.766 23.36l1.411 6.159c.115.393.024.8-.208 1.105l-4.846 8.248c8.264 2.612 14.701 1.33 21.174-4.784-4.293 8.901-12.422 10.093-21.628 7.265l.355 3.776c1.456 2.292 4.103 3.603 7.188 3.97 5.662.672 12.087-1.77 16.074-6.12 3.274-3.573 4.844-7.992 4.257-14.214l-1.769-18.303c-8.295-4.045-16.336-4.68-23.225 1.264zm17.631-34.38c-1.86 4.54-4.585 8.776-8.713 10.87l-12.402.47a433.56 433.56 0 0 0-9.208.488c3.546 2.958 4.9 7.828 6.921 12.197l2.287 2.541-.153-4.868c2.38-4.053 4.76-6.65 7.135-7.794-.026.192-.105.39-.246.585l-2.356 3.694-.032.062c6.962-3.838 14.71-2.706 22.33 1.032 6.475-3.58 11.088-12.839 13.89-19.768-7.386.82-15.454.777-19.453.491zm-2.062-7.986c-1.072-.01-1.507 1.434-1.698 2.293-.179 1.433.77 2.782 2.175 3.013 6.821 1.122 26.3.306 32.79-3.2 4.248-2.293 1.106-5.052.393-5.358-.316-.154-.639-.216-.913-.112-12.644 4.79-19.858 3.62-32.747 3.364zm-51.55 13.741c.534-3.74.812-7.502.775-11.283a66.483 66.483 0 0 0-1.042-11.124l-4.945-3.993c-1.567-1.024-3.358-2.042-5.37-3.056 1.335 6.227-.735 12.496-3.595 18.955a1.25 1.25 0 0 1-2.244.138c-2.72-4.517-6.937-7.793-12.017-8.51-4.602-.768-8.846-2.292-11.362-5.237-8.115 4.918-18.003 12.17-21.039 20.63-4.965 13.835 11.572 25.003 23.548 17.637l1.277-.79c9.531-5.966 11.7 3.495 25.195-1.884-3.88 3.071-8.36 4.462-14.585 3.318 1.512 3.558.315 8.006-1.008 11.743-.76 2.151-.634 5.252-.705 7.757 5.12-1.049 6.507 1.891 14.246.353-4.313 5.86-14.2-3.041-18.772 6.218-2.848 5.765-1.677 17.986-.997 23.995.065 1.908.493 4.309 2.69 4.035 7.885-.456 8.335 1.038 10.057-7.438l2.656-10.326.087-.246c.313-.705 1.243-1.004 1.855-.512 7.904 6.37 12.233 6.719 21.71 2.21-3.167 3.948-7.47 5.942-13.216 4.626 9.343 5.475 18.247 3.02 25.211 9.76a54.17 54.17 0 0 0-10.636-2.786c-.256 6.297 1.844 11.058 6.73 14.797 4.257 3.257.98 6.617-2.338 9.318-4.406 4.512-8.105 7.362-10.763 12.285-.567 1.415.701 1.958 1.658 1.95 2.964.215 7.423-.07 14.204-.801 4.273-4.404 8.775-8.695 13.633-12.448 2.666-2.465 1.67-9.078.895-12.954-.55-2.745.207-9.843.982-12.041-.552 9.16 8.158 13.57 15.2 17.282 4.383 2.31 1.988 6.542-.299 9.998-1.497 2.262-2.668 4.879-3.742 7.695-.303.68-1.45 3.864-1.376 3.814-.207.872-1.75 3.309.828 3.17 1.952.139 9.251-.194 11.606-.242.777-2.057 1.466-3.76 2.063-5.11 2.064-4.517 4.955-9.246 8.166-12.707 2.818-3.037 3.574-5.914.494-9.092-1.497-1.545-2.215-4.218-2.047-6.318.172-2.146 1.105-4.428 2.795-6.843a24.233 24.233 0 0 0 2.65-16.65 24.288 24.288 0 0 0-6.694-12.478c-.174 19.103-25.18 26-32.382 14.782-.629-.981-.852-6.481-.537-7.177 1.777-3.927 2.71-6.027 5.321-9.547a58.106 58.106 0 0 1-.959-3.994l-.616.159a1.252 1.252 0 0 1-1.14 1.073l-7.726-.156a1.25 1.25 0 0 1-1.654 1.19c-6.202-2.14-10.95-6.056-14.128-11.665a1.254 1.254 0 0 1-1.555-.29c-4.91-5.791-8.115-13.724-7.044-21.19zm8.035.558c.474-6.36 2.855-20.083-5.612-22.064 1.16 7.288 1.092 14.623.053 21.86-.8 5.585 1.172 11.62 4.351 16.397zm7.676-5.123c-.883-2.694-2.328-4.5-4.28-5.404l-.928 10.948c-.454 2.657-.736 5.804-.918 9.124-.399 7.217-.424 9.991 5.31 15.494a22.139 22.139 0 0 0 3.674 2.844c-2.923-5.029-3.189-11.334-2.34-17.774.384-2.92.556-5.545.525-7.877-.216-3.33-.17-4.69-1.043-7.355zm3.17-12.367l-4.119 6.168c3.286 2.926 4.32 7.977 4.472 12.727a8.147 8.147 0 0 1 1.935 1.74c3.693-.25 7.438-.456 11.23-.614a434.05 434.05 0 0 1 11.616-.335c1.473-.798 2.828-2.002 4.053-3.61 1.091-1.43 2.083-3.179 2.973-5.242-2.428-.71-3.984-3.103-3.676-5.652l.093-.548c-1.845 3.39-4.08 6.058-6.804 7.653l-.173.085c2.785-3.542 5.047-7.975 6.786-13.3a56.885 56.885 0 0 0 1.282-3.669L86.67 85.629zm2.714-10.969c-3.773 3.69-8.173 6.16-13.259 7.28 1.693 2.123 2.54 4.92 2.898 7.91.505.15.99.335 1.451.558l4.378-6.569c.493-.778 2.465-.873 3.931-1.136.981-1.68 3.431-4.574 3.303-4.244-.503 1.3-.957 2.783-1.06 3.878 3.024-.52 7.091-1.223 10.213-1.7a639.688 639.688 0 0 1 16.59-2.313c1.244-.208 5.422 2.746 6.67 3.62.947.664.37 2.252.061 3.805l-.207 1.016c6.495.431 12.973.086 19.325-1.373l1.085-7.4c-3.155 1.186-5.337 1.547-6.548 1.082 7.957-4.443 14.867-10.178 20.727-17.2-2.512-6.475-6.588-11.62-12.41-15.303-2.42 2.424-5.42 4.468-9.158 6.438-7.536 18.818-28.697 28.54-47.99 21.651zm45.707-22.684c.026-.194.1-.381.21-.542a35.014 35.014 0 0 0 1.85-7.025 9.19 9.19 0 0 1-2.263.443c-.812 8.13-4.309 15.362-9.588 20.885l.95-.85a35.52 35.52 0 0 0 8.841-12.911zm16.76-22.122c-2.78-1.883-4.214-5.072-2.665-8.453 1.756-3.834 4.871-5.857 7.85-6.518a13.334 13.334 0 0 1 7.711-3.565c9.82-1.076 17.4 8.59 13.97 17.881-4.142 13.494-10.162 25.281-18.43 34.963 2.98 8.746 4.07 16.848 3.267 24.299-.827 7.675-3.658 14.649-8.485 20.914-.152.22-.374.388-.634.474-5.72 1.229-11.875 1.556-18.792 1.503-2.322 3.117-4.777 5.404-7.36 6.859l1.695 17.606a26.847 26.847 0 0 1 3.07 2.92c8.532-3.394 13.65-2.646 20.6 6.751 6.815 9.218 17.62 9.956 19.576-.5.205-1.094 1.627-1.39 2.257-.487 9.901 14.223 3.455 31.996-10.985 34.704-13.019 2.442-20.682-6.76-24.959-18.348-.449 2.782-1.644 6.546-3.21 9.046-2.262 3.221-3.533 7.072-.989 10.07 1.885 2.22 2.7 3.783 2.647 6.211-.048 2.262-1.223 4.16-3.188 6.323-4.426 4.875-7.767 11.333-9.933 17.698a1.252 1.252 0 0 1-1.233.849l-14.786.308c-1.568.032-2.243-2.582-1.93-3.437 2.148-5.868 3.201-10.237 6.465-15.17 1.691-2.558 3.491-5.205 1.22-6.402-4.513-2.376-8.956-4.878-12.607-8.192 1.031 5.393 2.03 11.626-1.535 15.463l-.203.176-14.486 12.938c-7.173.786-12.346 1.063-15.513.833-4.552-.329-5.09-3.129-3.389-5.527 1.153-1.892 1.735-2.767 3.72-5.255a51.531 51.531 0 0 1 7.792-7.863c7.68-6.254.393-3.48-3.754-12.993-1.178-2.704-1.723-5.807-1.56-9.413-7.893-1.079-14.732-4.514-20.564-10.059-1.05 3.55-2.913 16.681-7.185 17.071-.008.005-1.864.054-7.998.468-3.258.22-4.299-3.356-4.656-6.276-1.169-9.559-1.159-14.325-.4-19.553-6.238-2.356-8.295.988-9.68 7.93-.387 1.617-1.499 2.218-3.023 2.072-4.893-.472-6.167-.694-10.619-1.678-1.484-.364-1.538-2.297-1.266-3.228 3.482-19.883 11.934-32.153 31.733-26.14 1.034-3.165 2.081-7.462-.103-10.075-3.549-4.243-8.493 7.306-21.966 3.864-9.968-2.547-16.38-12.53-12.739-22.678 3.27-9.106 13.363-16.622 22.048-21.9-1.97-4.496.792-9.003 4.48-12.307L25.52 44.697c-.134-1.236 1.444-1.889 2.226-.905 5.47 6.868 9.078 10.824 12.471 18.347l.345.056c.937-2.52 2.434-5.58 4.92-5.164 2.61.438 4.233 4.853 5.308 8.26 3.86-5.537 9.37-9.615 13.275-2.47 1.774 3.242 3.043 8.76 3.725 16.417a9.762 9.762 0 0 1 2.8 1.17 24.307 24.307 0 0 0 7.546-2.382 25.318 25.318 0 0 0 5.504-3.814C59.368 63.488 53.213 31.573 72.13 12.66 85-.209 105.242-2.156 120.313 8.125c10.387 7.086 13.67 16.92 13.79 17.045 2.67 1.301 4.421 4.251 5.197 7.38.833 3.353.801 8.824-2.568 10.53a37.88 37.88 0 0 1-1.32 6.96c7.89-4.688 11.397-10.035 13.258-19.613zM32.91 67.25c2.258.471 4.212-.1 5.88-2.115l-.556-1.31a51.404 51.404 0 0 0-1.495-3.1c-.383 2.201-1.66 4.377-3.83 6.524zm-4.376-18.362l.813 6.05c.584-.883 1.037-1.946 1.358-3.19zm2.383 17.72c2.94-2.758 4.4-5.561 4.38-8.41v-.001c-1.009-1.633-2.074-3.11-3.286-4.73-.479 1.818-1.24 3.246-2.286 4.28zm-16.33 43.199c.205-.34.578-.54.974-.522 4.757 1.82 8.312.572 10.663-3.743-1.609 5.766-5.172 7.738-10.69 5.913-.96-.544-1.392-.92-.948-1.648zm26.73-21c5.023 1.05 2.734 12.017-2.289 10.97-5.023-1.048-2.728-12.02 2.29-10.97zm-.819 2.22c-.606-.105-1.22.522-1.373 1.397-.152.877.217 1.672.824 1.777.606.104 1.221-.52 1.373-1.396.152-.875-.217-1.672-.824-1.777zm128.767-62.607c-2.303-1.664-4.39-2.532-6.263-2.604.97 1.557.458 4.884-.775 5.86.587-4.184-1.164-6.082-5.253-5.694-.477-.147-.778-.445-.767-1.141.006-.387.19-.733.472-.957 5.097-4.075 2.986-6.7-2.148-6.017-4.243.564-10.194 7.47-3.887 10.838.496.265.741.817.638 1.343-1.243 6.61-2.97 11.208-6.23 15.214 5.678 3.689 9.814 8.71 12.502 14.955 7.064-9.136 11.571-18.655 15.613-31.238l.023-.067c3.396-9.218-6.283-17.822-15.022-13.454 3.64.905 5.156 4.059 2.853 7.48 3.051.743 5.8 2.57 8.244 5.483zm-153.21 74.152c.511-.53 1.165-.728 1.46-.443.295.284.12.945-.393 1.475-.512.53-1.166.728-1.46.443-.296-.285-.12-.945.392-1.475zm-4.385.998c-.354.206-.943-.142-1.315-.778-.372-.635-.387-1.319-.033-1.526.354-.206.942.14 1.315.777.372.635.387 1.318.033 1.526z"/></g></g></svg>