<svg xmlns="http://www.w3.org/2000/svg" width="503" height="72" viewBox="0 0 503 72"><g><g><path fill="#d00cd6" d="M79.616 71.47c-1.15-.836-1.777-2.09-1.777-4.6V53.697c0-4.6-2.928-6.378-7.424-6.378H17.197V71.47H.783V.688h75.906c12.023 0 16.415 5.646 16.415 15.996v9.097c0 11.71-5.751 13.487-10.038 14.114 4.39.42 11.082 2.72 11.082 13.592V66.87c0 2.51.733 3.764 1.883 4.6zm-2.823-50.917c0-4.078-1.673-6.168-6.064-6.168H17.197V34.25h52.8c4.077 0 6.796-1.569 6.796-6.169z"/></g><g><path fill="#d00cd6" d="M119.13 71.47c-14.847 0-21.748-7.631-21.748-23.001v-24.78c0-15.368 6.901-23.001 21.747-23.001h49.454c14.847 0 21.643 7.633 21.643 23.002v24.779c0 15.37-6.796 23.002-21.643 23.002zm54.681-46.107c0-6.482-2.719-9.62-8.782-9.62h-42.345c-6.063 0-8.782 3.138-8.782 9.62v21.433c0 6.274 2.72 9.515 8.782 9.515h42.345c6.063 0 8.782-3.241 8.782-9.515z"/></g><g><path fill="#d00cd6" d="M216.252 71.47c-14.846 0-21.747-7.631-21.747-23.001v-24.78c0-15.368 6.901-23.001 21.747-23.001h49.453c14.847 0 21.643 7.633 21.643 23.002v24.779c0 15.37-6.796 23.002-21.643 23.002zm54.681-46.107c0-6.482-2.718-9.62-8.782-9.62h-42.344c-6.064 0-8.783 3.138-8.783 9.62v21.433c0 6.274 2.72 9.515 8.783 9.515h42.344c6.064 0 8.782-3.241 8.782-9.515z"/></g><g><path fill="#d00cd6" d="M366.906 71.47l-30.32-30.11h-27.812v30.11h-16.309V.689h16.309v28.334h28.125L365.966.688h19.759l-33.875 33.77 35.863 37.013z"/></g><g><path fill="#d00cd6" d="M388.854.688h16.415v70.783h-16.415z"/></g><g><path fill="#d00cd6" d="M431.929 71.47c-14.847 0-21.747-7.632-21.747-23V16.683c0-10.35 4.495-15.996 16.624-15.996h59.804c12.128 0 16.415 5.646 16.415 15.996v9.933c0 10.351-4.287 15.997-16.415 15.997H426.7v4.182c0 6.273 2.719 9.514 8.784 9.514h65.763v15.16zm54.785-50.917c0-4.078-1.673-6.168-6.063-6.168h-47.886c-4.392 0-6.065 2.09-6.065 6.168v10.142h53.95c4.39 0 6.064-2.3 6.064-6.273z"/></g></g></svg>