<svg width="128" height="62" viewBox="0 0 128 62" fill="none" xmlns="http://www.w3.org/2000/svg">
<path d="M0.799988 28.4L0.400024 0H2.29999L2.70001 26.8L11.3 26.7V28.2L0.799988 28.4Z" fill="#0C1C2B"/>
<path d="M13.2 28.4001L15.5 0.100098L25.3 0.900098L25.2 2.4001L17.4 1.8001L16.5 13.1001L23 13.6001L22.9 15.1001L16.4 14.6001L15.4 27.0001L23.4 27.7001L23.3 29.2001L13.2 28.4001Z" fill="#0C1C2B"/>
<path d="M31.2 30.6L29.8 1.5L31.7 1.9L32.8 27.6L42.9 4L44.7 4.3L33 31L31.2 30.6Z" fill="#0C1C2B"/>
<path d="M42 32.9999L50.3 5.8999L59.7 8.7999L59.2 10.2999L51.7 7.9999L48.4 18.8999L54.6 20.7999L54.2 22.1999L48 20.2999L44.3 32.1999L51.9 34.4999L51.5 35.8999L42 32.9999Z" fill="#0C1C2B"/>
<path d="M54.5 37.0999L65.4 10.8999L67.1 11.5999L56.8 36.3999L64.7 39.6999L64.1 41.0999L54.5 37.0999Z" fill="#0C1C2B"/>
<path d="M106.2 61.1998L105.7 60.0998C99.5 60.4998 95.2 59.1998 89.8 58.0998L90 57.0998C87.4 56.3998 84.5 55.4998 81.6 54.5998L82.1 53.1998C81.3 52.6998 80.2 52.7998 79.3 53.6998C73.9 51.6998 69.1 49.5998 64.3 46.7998C63.9 46.5998 63.6 46.0998 64.2 45.4998C64.8 44.7998 67.3 44.8998 67.5 43.7998L64.9 43.0998C65.8 39.6998 67.9 37.5998 70.2 36.0998C74.8 39.6998 80.1 43.9998 85.5 44.9998C85.3 45.8998 86.2 46.5998 87.9 47.2998C92.6 49.1998 105.3 53.5998 109.3 50.2998C109.1 46.9998 104.5 44.2998 100 39.8998L99.1 40.3998C96.9 35.8998 95.4 35.5998 96.8 31.1998L99.7 28.7998C104 30.5998 112.4 30.5998 115.7 28.8998C111.1 25.2998 101.9 22.1998 96.9 21.2998C97 20.7998 97.2 20.0998 97.4 19.5998L103.6 20.9998C103.3 19.2998 100.5 19.0998 97.7 18.7998C98.5 16.8998 99.7 15.0998 101.1 13.3998C103 10.8998 111.5 12.8998 116.3 16.6998C117.3 17.4998 118.3 18.3998 119.3 19.2998L119.4 20.2998C122.6 22.7998 125.7 25.8998 127.8 27.8998C127.9 30.3998 127.4 32.5998 126.4 34.5998C123.6 36.9998 120.3 38.8998 117.8 40.0998C120.6 44.2998 121.1 47.9998 120.9 51.7998C116.8 56.6998 112.6 60.6998 106.2 61.1998ZM78 50.9998C77.5 50.6998 76.9 50.4998 76.2 50.1998L75.8 50.9998L79 52.3998C78.9 51.7998 78.5 51.2998 78 50.9998ZM93.2 56.4998L90.5 55.7998L90.3 56.7998L92.9 57.1998L93.2 56.4998Z" fill="#6300FF"/>
</svg>
