<svg width="77" height="37" viewBox="0 0 77 37" fill="none" xmlns="http://www.w3.org/2000/svg">
<path d="M0.281496 17.1151L0 0H1.12607L1.40761 16.1957L6.54538 16.125V17.0444L0.281496 17.1151Z" fill="#0C1C2B"/>
<path d="M7.74185 17.1152L9.14946 0.0708008L14.991 0.565867L14.9206 1.48527L10.2052 1.06093L9.64209 7.92113L13.513 8.27475L13.4426 9.19416L9.57173 8.84054L8.93828 16.3372L13.7242 16.7616L13.6538 17.681L7.74185 17.1152Z" fill="#0C1C2B"/>
<path d="M18.6508 18.4588L17.8062 0.848633L18.9323 1.0608L19.5657 16.5493L25.6184 2.33383L26.7445 2.546L19.7065 18.6003L18.6508 18.4588Z" fill="#0C1C2B"/>
<path d="M25.0554 19.944L30.0524 3.53613L35.6828 5.30422L35.4013 6.22363L30.897 4.80916L28.856 11.3865L32.5861 12.518L32.3046 13.3667L28.5744 12.2351L26.3926 19.449L30.9674 20.8634L30.6858 21.7121L25.0554 19.944Z" fill="#0C1C2B"/>
<path d="M32.5861 22.4193L39.1315 6.57715L40.1872 7.00149L33.9937 21.9949L38.7796 23.9752L38.4277 24.8239L32.5861 22.4193Z" fill="#0C1C2B"/>
<path d="M63.6942 36.9885L63.3423 36.3519C59.6122 36.5641 57.0081 35.7862 53.7706 35.1496L53.9113 34.5839C52.363 34.1595 50.6035 33.6645 48.9144 33.0987L49.2663 32.25C48.7736 31.9671 48.0698 32.0378 47.5771 32.6036C44.3396 31.4013 41.454 30.1283 38.5684 28.4309C38.2869 28.2894 38.1461 28.0066 38.498 27.5822C38.8499 27.1579 40.3279 27.2286 40.4687 26.5921L38.9203 26.1677C39.4834 24.1168 40.7502 22.8437 42.0874 21.9243C44.9027 24.1168 47.9994 26.6628 51.3073 27.2993C51.1665 27.7944 51.7295 28.2187 52.7149 28.6431C55.5301 29.7746 63.2015 32.4622 65.5945 30.4112C65.5241 28.4309 62.7089 26.8043 60.0344 24.1168L59.4714 24.4704C58.2046 21.7121 57.2192 21.5707 58.0638 18.9539L59.8233 17.5395C62.357 18.671 67.4947 18.6003 69.4654 17.6102C66.7206 15.4177 61.1605 13.5789 58.1342 13.0131C58.2045 12.6595 58.3453 12.3059 58.4157 11.9523L62.1459 12.801C61.9347 11.7401 60.2456 11.6694 58.6268 11.4572C59.1195 10.3256 59.8233 9.26478 60.6678 8.20392C61.8643 6.71873 66.8613 7.92103 69.8173 10.1842C70.4507 10.6793 71.0138 11.245 71.6472 11.7401L71.7176 12.3766C73.6178 13.8618 75.4477 15.7714 76.785 16.9737C76.8554 18.4589 76.5738 19.8026 75.9404 21.0049C74.2513 22.4194 72.2806 23.6217 70.8026 24.3289C72.4918 26.8043 72.8437 29.0674 72.7029 31.4013C70.0988 34.301 67.6355 36.7056 63.6942 36.9885ZM46.8029 30.8355C46.5214 30.6941 46.1695 30.5526 45.7472 30.3404L45.4657 30.8355L47.4363 31.6842C47.366 31.2598 47.0845 30.977 46.8029 30.8355ZM55.882 34.1595L54.2632 33.7352L54.1929 34.3717L55.7412 34.6546L55.882 34.1595Z" fill="#0C1C2B"/>
</svg>
