<svg width="89" height="37" viewBox="0 0 89 37" fill="none" xmlns="http://www.w3.org/2000/svg">
<path d="M0.281454 17.4688L0 0H1.12607L1.40761 16.5493L6.68616 16.4786V17.398L0.281454 17.4688Z" fill="#0C1C2B"/>
<path d="M7.95288 17.5396L9.5013 0.141602L15.4836 0.636667L15.4132 1.55608L10.6274 1.13173L9.99393 8.13338L13.9352 8.487L13.8649 9.40641L9.92357 9.05279L9.21976 16.6909L14.076 17.1153L14.0056 18.0347L7.95288 17.5396Z" fill="#0C1C2B"/>
<path d="M19.0027 18.9541L18.2285 0.990234L19.3546 1.20241L19.9176 17.0445L26.1814 2.54616L27.3075 2.75833L20.0584 19.0955L19.0027 18.9541Z" fill="#0C1C2B"/>
<path d="M25.548 20.4393L30.7562 3.74854L36.457 5.58735L36.1754 6.50676L31.6007 5.02156L29.4893 11.7403L33.2898 12.9426L33.0083 13.7913L29.2078 12.589L26.9556 19.9443L31.6007 21.4295L31.3192 22.3489L25.548 20.4393Z" fill="#0C1C2B"/>
<path d="M33.2195 23.0562L39.976 6.93115L41.0317 7.35549L34.6271 22.5611L39.4833 24.6121L39.1314 25.4608L33.2195 23.0562Z" fill="#0C1C2B"/>
<path d="M69.6061 16.9031C68.4096 17.0446 67.002 17.3982 66.439 18.5298L64.8203 21.9245C63.7646 23.9755 65.6648 25.6021 66.7205 27.8653C66.5094 30.1992 65.5945 32.4623 64.1165 34.3011C61.7236 37.1301 55.7412 36.5643 50.8146 34.8669C47.5067 32.3209 46.3102 30.1992 45.8879 25.9557C46.0287 25.8143 46.1694 25.5314 46.3102 25.39L47.2252 27.2288C47.5067 26.3094 47.0844 25.6021 46.8733 24.5413C47.014 24.2584 47.2955 23.9755 47.4363 23.6926L49.2662 23.5511L49.97 24.9656C50.6035 26.2386 49.1958 26.8752 50.1108 27.5117C50.3923 27.7238 57.2896 30.1992 60.5975 26.7337C61.5828 23.7633 60.1751 21.3587 59.049 18.1761L61.2309 12.8719L58.6971 11.3867C59.5417 8.76989 61.6532 8.487 63.8349 8.06265L65.1018 8.69917C66.0168 7.99193 67.4243 7.49686 68.5504 6.86035C69.1838 7.35542 69.5358 7.49686 69.8173 7.70904C70.1692 7.99193 70.4507 8.41627 70.873 9.76002L87.2012 17.6811C88.6088 19.237 88.3273 22.0659 87.905 22.7025C87.6235 23.0561 87.2716 23.1975 86.9901 23.2682L86.427 25.39C80.3039 24.612 73.6882 18.9541 69.6061 16.9031ZM56.5154 34.6548C55.53 33.8768 55.1078 34.1597 53.2779 34.6548L56.1635 35.2206L56.5154 34.6548ZM85.9344 22.9854L83.1896 22.0659L82.6265 22.3488L85.6529 23.4804L85.9344 22.9854Z" fill="#0C1C2B"/>
</svg>
