<svg width="78" height="34" viewBox="0 0 78 34" fill="none" xmlns="http://www.w3.org/2000/svg">
<path d="M0.563043 17.8931L0 0.49504L1.12609 0.424316L1.68913 16.9737L6.96765 16.8322V17.7516L0.563043 17.8931Z" fill="#0C1C2B"/>
<path d="M8.02332 17.8223L9.07902 0.424316L15.0614 0.777935L14.991 1.69734L10.2051 1.41445L9.78282 8.41609L13.7241 8.62826L13.6537 9.54767L9.71244 9.3355L9.21978 16.9737L14.076 17.2566V18.176L8.02332 17.8223Z" fill="#0C1C2B"/>
<path d="M18.9324 18.8833L17.6655 0.990234L18.7916 1.20241L19.8473 16.9738L25.6889 2.33398L26.815 2.54616L20.0585 19.0955L18.9324 18.8833Z" fill="#0C1C2B"/>
<path d="M25.4073 20.156L30.1228 3.32373L35.894 5.0211L35.6125 5.94051L30.9674 4.59676L29.0671 11.3155L32.8677 12.3764L32.6565 13.225L28.856 12.2349L26.815 19.6609L31.5304 21.0047L31.2489 21.9241L25.4073 20.156Z" fill="#0C1C2B"/>
<path d="M33.0084 22.49L39.2019 6.15283L40.2576 6.57717L34.3456 21.9949L39.2723 23.9045L38.9908 24.7532L33.0084 22.49Z" fill="#0C1C2B"/>
<path d="M50.885 33.9474L49.1958 33.806C49.1958 33.6646 49.1958 33.4524 49.1255 33.2402L52.2222 30.9771C51.448 30.1991 50.0404 31.3307 48.9143 32.4622C48.7032 31.4721 48.3513 30.4113 48.1401 29.7747C48.6328 29.1382 48.5624 28.7846 47.6475 28.7139C47.9994 28.0774 48.2105 27.4409 48.5624 26.8751C48.9143 26.38 50.1108 26.4507 50.7442 25.5313C52.6445 22.7731 60.5974 17.8932 65.3129 15.7715C64.6795 15.2057 61.7939 14.7813 60.1752 14.6399C59.7529 11.8109 60.9494 7.42607 63.5534 8.4162C67.0724 9.75995 71.436 9.83067 75.1662 11.1744C76.1515 11.8817 76.8553 13.0132 77.2776 13.5083C76.8553 14.8521 76.2219 16.408 75.2366 18.0346C65.3129 24.7534 60.3863 25.5313 50.885 33.9474Z" fill="#0C1C2B"/>
</svg>
