<svg width="145" height="59" viewBox="0 0 145 59" fill="none" xmlns="http://www.w3.org/2000/svg">
<path d="M1.40002 28.4L0.900024 0H2.80005L3.19995 26.8L11.8 26.7V28.2L1.40002 28.4Z" fill="#0C1C2B"/>
<path d="M13.8 28.4998L16.3 0.299805L26.1 1.1998L26 2.6998L18.2 1.9998L17.2 13.2998L23.7 13.8998L23.6 15.3998L17.1 14.7998L16 27.1998L23.9 27.8998L23.8 29.3998L13.8 28.4998Z" fill="#0C1C2B"/>
<path d="M31.8 30.8002L30.6 1.7002L32.5 2.1002L33.4 27.8002L43.6 4.3002L45.4 4.7002L33.5 31.3002L31.8 30.8002Z" fill="#0C1C2B"/>
<path d="M42.5 33.2001L51 6.1001L60.4 9.0001L59.9 10.5001L52.4 8.1001L49 19.0001L55.2 20.9001L54.8 22.3001L48.6 20.4001L44.9 32.3001L52.5 34.7001L52 36.1001L42.5 33.2001Z" fill="#0C1C2B"/>
<path d="M55.1 37.3998L66.1 11.2998L67.8 11.9998L57.4 36.6998L65.3 39.9998L64.7 41.3998L55.1 37.3998Z" fill="#0C1C2B"/>
<path d="M114.4 27.4002C112.4 27.6002 110.1 28.2002 109.2 30.0002L106.5 35.5002C104.8 38.8002 107.8 41.5002 109.6 45.2002C109.3 49.0002 107.7 52.7002 105.3 55.7002C101.4 60.3002 91.6 59.3002 83.6 56.7002C78.2 52.5002 76.3 49.1002 75.5 42.2002C75.7 41.9002 76 41.5002 76.1 41.2002L77.5 44.2002C78 42.7002 77.3 41.5002 76.9 39.8002C77.1 39.4002 77.5 38.8002 77.9 38.4002L80.9 38.2002L82.1 40.5002C83.1 42.6002 80.9 43.5002 82.3 44.7002C82.8 45.1002 94 49.1002 99.4 43.5002C101.1 38.7002 98.7 34.8002 96.9 29.6002L100.5 21.0002L96.4 18.5002C97.8 14.2002 101.3 13.8002 104.8 13.1002L106.9 14.1002C108.4 13.0002 110.7 12.1002 112.6 11.2002C113.6 12.0002 114.3 12.2002 114.7 12.5002C115.3 13.0002 115.8 13.7002 116.4 15.8002L143 28.7002C145.3 31.2002 144.9 35.9002 144.1 36.8002C143.7 37.3002 143.1 37.6002 142.6 37.7002L141.7 41.2002C131.9 40.0002 121.1 30.8002 114.4 27.4002ZM93 56.2002C91.4 55.0002 90.7 55.4002 87.7 56.1002L92.4 57.0002L93 56.2002ZM141.1 37.3002L136.7 35.8002L135.7 36.2002L140.7 38.1002L141.1 37.3002Z" fill="#6300FF"/>
</svg>
