<svg width="127" height="55" viewBox="0 0 127 55" fill="none" xmlns="http://www.w3.org/2000/svg">
<path d="M0.9 28.5001L0 0.200098L1.9 0.100098L2.7 26.9001L11.3 26.6001V28.1001L0.9 28.5001Z" fill="#0C1C2B"/>
<path d="M13.1 28.3L14.8 0L24.6 0.6L24.5 2.1L16.6 1.6L16 13L22.5 13.4L22.4 14.9L15.9 14.5L15.1 26.9L23.1 27.4L23 28.9L13.1 28.3Z" fill="#0C1C2B"/>
<path d="M30.9 30.1L28.9 1L30.8 1.3L32.5 27L42 3.2L43.8 3.5L32.7 30.4L30.9 30.1Z" fill="#0C1C2B"/>
<path d="M41.5 32.1999L49.1 4.8999L58.5 7.4999L58.2 8.9999L50.6 6.8999L47.5 17.8999L53.7 19.5999L53.4 20.9999L47.2 19.2999L43.8 31.2999L51.5 33.4999L51 34.7999L41.5 32.1999Z" fill="#0C1C2B"/>
<path d="M53.9 35.8999L64.1 9.3999L65.9 10.0999L56.3 35.1999L64.3 38.2999L63.8 39.6999L53.9 35.8999Z" fill="#0C1C2B"/>
<path d="M83.1 54.5001L80.4 54.3001C80.4 54.1001 80.4 53.8001 80.3 53.4001L85.4 49.8001C84.2 48.5001 81.9 50.4001 80 52.2001C79.6 50.6001 79.1 48.9001 78.7 47.8001C79.5 46.7001 79.4 46.2001 77.9 46.1001C78.5 45.1001 78.8 44.0001 79.4 43.2001C80 42.4001 81.9 42.5001 83 41.0001C86.1 36.5001 99.1 28.7001 106.8 25.2001C105.7 24.3001 101.1 23.6001 98.4 23.4001C97.7 18.8001 99.7 11.7001 104 13.3001C109.8 15.4001 116.9 15.6001 122.9 17.7001C124.5 18.8001 125.7 20.7001 126.3 21.5001C125.6 23.6001 124.6 26.2001 123 28.8001C106.6 39.6001 98.6 40.9001 83.1 54.5001Z" fill="#6300FF"/>
</svg>
