<svg width="136" height="69" viewBox="0 0 136 69" fill="none" xmlns="http://www.w3.org/2000/svg">
<path d="M0.899994 28.4001L0.200012 0.100098H2.10001L2.79999 26.9001L11.4 26.7001V28.2001L0.899994 28.4001Z" fill="#0C1C2B"/>
<path d="M13.3 28.3L15.2 0L25 0.7L24.9 2.2L17 1.7L16.2 13L22.7 13.4L22.6 14.9L16.1 14.5L15.3 27L23.3 27.5L23.2 29L13.3 28.3Z" fill="#0C1C2B"/>
<path d="M31.4 30.3002L29.6 1.2002L31.5 1.5002L32.9 27.2002L42.7 3.5002L44.5 3.8002L33.2 30.6002L31.4 30.3002Z" fill="#0C1C2B"/>
<path d="M42.2 32.4998L50.2 5.2998L59.6 8.0998L59.2 9.5998L51.6 7.3998L48.4 18.2998L54.6 20.0998L54.2 21.4998L48 19.6998L44.5 31.6998L52.2 33.8998L51.8 35.2998L42.2 32.4998Z" fill="#0C1C2B"/>
<path d="M54.7 36.5002L65.2 10.2002L67 10.9002L57.1 35.8002L65.1 39.0002L64.5 40.4002L54.7 36.5002Z" fill="#0C1C2B"/>
<path d="M115.3 63.3002C112.1 61.3002 109.7 62.9002 104.3 60.8002L104.8 60.2002C106.3 60.7002 108 61.1002 109.1 61.2002L109.3 60.6002C104.1 59.5002 104.2 57.2002 101.6 59.6002C98.5 58.0002 101.6 57.7002 98.7 55.3002L95.7 55.7002C91.6 53.6002 86.4 51.1002 81.9 48.4002C81.7 46.3002 80.2 45.5002 79.5 46.9002C78.5 46.2002 77.5 45.5002 76.7 44.8002C74.9 43.3002 76.1 40.0002 76.4 36.9002C77.8 36.5002 79.1 35.8002 78 34.5002C93.2 29.8002 116.3 38.3002 119.6 34.3002C119.7 32.9002 119 31.6002 117.7 30.5002C115.1 28.4002 110.1 27.0002 106.1 26.3002C104.1 26.0002 105.4 24.3002 105.6 20.6002C105.8 17.7002 107.4 18.3002 106.9 16.3002C108.4 16.3002 109.2 15.1002 111.2 15.4002C116.7 16.3002 126.3 23.3002 132 27.1002L131.2 27.6002C136.1 31.6002 136.8 37.2002 134.5 40.1002C132.4 42.7002 129.4 44.9002 126.2 45.6002C124.1 44.3002 121.3 44.9002 119.6 46.7002L114.4 45.8002L114.7 45.1002C116.1 45.3002 117.8 45.6002 118.5 44.5002C110.9 43.0002 102 40.6002 95.2 41.8002C101.1 47.2002 111.5 52.5002 117.3 56.4002C119 59.6002 119.7 60.9002 122.5 63.2002L122.3 64.0002L119.6 61.8002L119.5 62.8002L123.9 66.8002C121.2 68.0002 118.9 65.6002 115.3 63.3002ZM109.4 44.8002L109.6 44.3002L113.4 44.7002L113 45.5002L109.4 44.8002ZM118.1 66.2002L121.6 68.1002L121.4 68.9002C119.9 67.9002 118.1 67.0002 118.1 66.2002Z" fill="#6300FF"/>
</svg>
