<svg width="83" height="42" viewBox="0 0 83 42" fill="none" xmlns="http://www.w3.org/2000/svg">
<path d="M0.422286 17.3274L0 0.0708008H1.12609L1.54838 16.4787L6.75652 16.3372V17.2567L0.422286 17.3274Z" fill="#0C1C2B"/>
<path d="M7.953 17.2566L9.14948 0L15.0614 0.424342V1.34375L10.2756 0.990132L9.78289 7.92105L13.7242 8.20395L13.6538 9.12336L9.71251 8.84046L9.21986 16.4079L14.0761 16.7615L14.0057 17.6809L7.953 17.2566Z" fill="#0C1C2B"/>
<path d="M19.0027 18.4587L17.947 0.707031L19.0731 0.919202L19.9177 16.5491L25.8296 2.12151L26.9557 2.33368L20.0584 18.6708L19.0027 18.4587Z" fill="#0C1C2B"/>
<path d="M25.4777 19.8027L30.3339 3.18262L36.0347 4.87999L35.7532 5.79939L31.1785 4.45564L29.2078 11.1037L33.0083 12.2352L32.7268 13.0839L28.9263 11.9524L26.8149 19.2369L31.46 20.5806L31.1785 21.4293L25.4777 19.8027Z" fill="#0C1C2B"/>
<path d="M33.1492 22.2071L39.5538 6.15283L40.6095 6.57717L34.5568 21.7828L39.413 23.6923L39.0611 24.541L33.1492 22.2071Z" fill="#0C1C2B"/>
<path d="M69.9581 38.6152C67.9874 37.4129 66.5095 38.3323 63.272 37.13L63.5535 36.7764C64.4684 37.0593 65.5241 37.3421 66.2279 37.3421L66.3687 36.9885C63.2016 36.352 63.272 34.9375 61.6532 36.352C59.8233 35.3619 61.6532 35.2204 59.8937 33.7352L58.0638 33.9474C55.6005 32.6744 52.4334 31.1185 49.6886 29.4918C49.5478 28.2188 48.6329 27.7237 48.2106 28.5724C47.6475 28.1481 47.0141 27.7237 46.5214 27.2994C45.3954 26.38 46.1695 24.3997 46.3807 22.4902C47.2252 22.2073 47.9994 21.7829 47.366 21.005C56.5858 18.1053 70.6619 23.3389 72.6326 20.9343C72.7029 20.0856 72.2807 19.3076 71.5065 18.6711C69.8877 17.3273 66.9317 16.5494 64.4684 16.0543C63.272 15.8421 64.0462 14.852 64.1869 12.5889C64.3277 10.8208 65.2426 11.1744 64.9611 9.97208C65.876 9.97208 66.3687 9.19412 67.5652 9.40629C70.9434 9.90136 76.7146 14.2155 80.1632 16.5494L79.6706 16.8323C82.6266 19.2369 83.1192 22.7023 81.6412 24.4704C80.304 26.0971 78.5445 27.4408 76.5738 27.8652C75.307 27.0872 73.6179 27.4408 72.5622 28.5017L69.3951 27.9359L69.5358 27.5116C70.3804 27.653 71.3657 27.7944 71.8584 27.1579C67.2133 26.2385 61.8644 24.7533 57.7119 25.5313C61.3013 28.8553 67.6356 32.1086 71.1546 34.4425C72.2103 36.4227 72.6326 37.2007 74.3217 38.6152L74.1809 39.1102L72.5622 37.7665L72.4918 38.403L75.1662 40.8783C73.5475 41.4441 72.1399 39.9589 69.9581 38.6152ZM66.3687 27.3701L66.5095 27.0872L68.7616 27.2994L68.4801 27.7945L66.3687 27.3701ZM71.6472 40.3833L73.7586 41.5148L73.6179 42.0099C72.7029 41.4441 71.6472 40.8783 71.6472 40.3833Z" fill="#0C1C2B"/>
</svg>
