<svg width="138" height="69" viewBox="0 0 138 69" fill="none" xmlns="http://www.w3.org/2000/svg">
<path d="M1.29999 28.4L0.799988 0H2.70001L3.09998 26.8L11.7 26.7V28.2L1.29999 28.4Z" fill="#0C1C2B"/>
<path d="M13.5 28.4001L15.9 0.100098L25.7 0.900098L25.6 2.4001L17.8 1.7001L16.9 13.0001L23.4 13.5001L23.3 15.0001L16.8 14.5001L15.8 26.9001L23.8 27.6001L23.7 29.1001L13.5 28.4001Z" fill="#0C1C2B"/>
<path d="M31.3 30.6L29.9 1.5L31.8 1.9L32.9 27.6L42.9 4L44.7 4.3L33 30.9L31.3 30.6Z" fill="#0C1C2B"/>
<path d="M41.8 32.8998L50 5.7998L59.4 8.6998L59 10.1998L51.5 7.8998L48.2 18.7998L54.4 20.6998L54 22.0998L47.8 20.1998L44.1 31.9998L51.7 34.2998L51.3 35.6998L41.8 32.8998Z" fill="#0C1C2B"/>
<path d="M54.1 36.9002L64.9 10.7002L66.6 11.4002L56.4 36.2002L64.3 39.5002L63.7 40.9002L54.1 36.9002Z" fill="#0C1C2B"/>
<path d="M123.8 59.8999C122.2 59.3999 120.1 58.8999 117.7 59.7999C115.5 60.6999 112.4 61.1999 109.2 62.1999C108.1 61.0999 106.8 60.4999 105.4 61.3999L106.2 63.1999C105.9 63.2999 105.4 63.5999 105.1 63.6999L104.4 61.8999L102.7 62.7999L103.1 64.4999C101.1 65.5999 99.4 67.0999 98.1 68.8999C93.5 67.0999 96.9 65.3999 93.5 64.9999C94 62.5999 94.0001 60.4999 92.9001 57.9999C96.1001 54.3999 102.6 53.9999 106.5 51.1999C104.7 48.3999 104.5 49.5999 100.3 45.9999L99 46.8999C97.4 45.0999 96.6001 44.0999 95.9001 44.2999C95.2001 44.4999 94.2001 43.0999 93.4001 39.0999H92.2C90.4 34.3999 90.5 28.8999 92.3 26.6999C94.4 24.2999 117.8 20.0999 128.6 20.2999C129 21.3999 130.3 22.4999 131.2 22.8999C132 25.5999 129.8 27.3999 126.1 29.7999L125.8 28.8999C120 31.2999 110 33.4999 103.1 35.8999C106 38.3999 109.1 40.9999 112.3 42.1999L111.4 42.9999C115.8 47.3999 125.2 43.3999 129.7 40.4999L133.7 40.9999C133.2 46.5999 132.4 49.6999 129 52.3999C130.6 54.1999 134.9 54.3999 137.6 54.5999C137.1 55.6999 136.4 56.3999 137.5 56.8999C132.6 61.4999 125.4 60.3999 123.8 59.8999ZM98.2 44.0999L97.4001 44.1999L98.9001 45.8999L99.5 45.4999L98.2 44.0999ZM101.7 63.3999L100.2 64.2999L100.3 65.0999L102.1 64.2999L101.7 63.3999ZM112.6 43.0999L113 42.5999L114.9 43.0999L114.5 43.9999L112.6 43.0999ZM127.5 53.6999L126.7 54.1999C127.4 54.8999 127.9 54.6999 129 54.1999L127.5 53.6999Z" fill="#6300FF"/>
</svg>
