<svg width="257" height="257" viewBox="0 0 257 257" fill="none" xmlns="http://www.w3.org/2000/svg">
<mask id="mask0" style="mask-type:alpha" maskUnits="userSpaceOnUse" x="37" y="206" width="187" height="14">
<rect x="37.4089" y="206.734" width="186.061" height="12.7978" fill="#C4C4C4"/>
</mask>
<g mask="url(#mask0)">
<path d="M192.75 192.751C228.234 157.267 228.234 99.7353 192.75 64.251C157.266 28.7667 99.7343 28.7667 64.25 64.251C28.7657 99.7353 28.7657 157.267 64.25 192.751C99.7343 228.235 157.266 228.235 192.75 192.751Z" fill="url(#paint0_linear)"/>
</g>
<g opacity="0.9">
<path d="M128.5 204C169.645 204 203 170.421 203 129C203 87.5786 169.645 54 128.5 54C87.3548 54 54 87.5786 54 129C54 170.421 87.3548 204 128.5 204Z" fill="#FCFCFC" style="mix-blend-mode:color-dodge"/>
</g>
<path style="mix-blend-mode:color-burn" d="M192.75 192.75C228.234 157.266 228.234 99.7343 192.75 64.25C157.266 28.7657 99.7343 28.7657 64.25 64.25C28.7657 99.7343 28.7657 157.266 64.25 192.75C99.7343 228.234 157.266 228.234 192.75 192.75Z" fill="url(#paint1_radial)"/>
<path style="mix-blend-mode:color-dodge" d="M128.5 203.939C169.645 203.939 203 170.361 203 128.939C203 87.5181 169.645 53.9395 128.5 53.9395C87.3548 53.9395 54 87.5181 54 128.939C54 170.361 87.3548 203.939 128.5 203.939Z" fill="url(#paint2_radial)"/>
<path style="mix-blend-mode:color-dodge" d="M80.41 149.099C102.868 126.689 136.225 112.903 167.979 112.903C179.853 112.905 191.659 114.69 203 118.2C201.442 107.197 197.445 96.6792 191.298 87.413C185.152 78.1467 177.011 70.3654 167.47 64.6359C157.929 58.9064 147.227 55.373 136.144 54.2931C125.061 53.2132 113.876 54.614 103.404 58.3935C92.9324 62.173 83.4374 68.236 75.6108 76.1407C67.7842 84.0455 61.8232 93.5929 58.1621 104.087C54.501 114.582 53.2319 125.759 54.4473 136.805C55.6628 147.851 59.3321 158.488 65.188 167.939C69.6111 161.162 74.7112 154.85 80.41 149.099Z" fill="url(#paint3_radial)"/>
<defs>
<linearGradient id="paint0_linear" x1="128.5" y1="36.7823" x2="128.5" y2="209.974" gradientUnits="userSpaceOnUse">
<stop stop-color="#FF00FF"/>
<stop offset="0.0173" stop-color="#FB03FF"/>
<stop offset="0.50265" stop-color="#995CF8"/>
<stop offset="0.84039" stop-color="#5B94F5"/>
<stop offset="1" stop-color="#43AAF3"/>
</linearGradient>
<radialGradient id="paint1_radial" cx="0" cy="0" r="1" gradientUnits="userSpaceOnUse" gradientTransform="translate(128.5 128.5) scale(90.8631)">
<stop offset="0.84577" stop-color="white"/>
<stop offset="0.87354" stop-color="#FBFBFB"/>
<stop offset="0.9002" stop-color="#F0F0F0"/>
<stop offset="0.92644" stop-color="#DCDCDC"/>
<stop offset="0.9524" stop-color="#C1C1C1"/>
<stop offset="0.97792" stop-color="#9E9E9E"/>
<stop offset="1" stop-color="#7A7A7A"/>
</radialGradient>
<radialGradient id="paint2_radial" cx="0" cy="0" r="1" gradientUnits="userSpaceOnUse" gradientTransform="translate(128.5 128.939) scale(74.5 75)">
<stop offset="0.83582"/>
<stop offset="0.89329" stop-color="#050505"/>
<stop offset="0.95914" stop-color="#131313"/>
<stop offset="1" stop-color="#1F1F1F"/>
</radialGradient>
<radialGradient id="paint3_radial" cx="0" cy="0" r="1" gradientUnits="userSpaceOnUse" gradientTransform="translate(141.736 178.462) scale(149.329 149.016)">
<stop stop-color="#1F1F1F"/>
<stop offset="0.24887" stop-color="#131313"/>
<stop offset="0.64994" stop-color="#050505"/>
<stop offset="1"/>
</radialGradient>
</defs>
</svg>
