<svg width="83" height="43" viewBox="0 0 83 43" fill="none" xmlns="http://www.w3.org/2000/svg">
<path d="M0.281537 17.3273L0 0H1.1261L1.4076 16.4079L6.61572 16.3372V17.2566L0.281537 17.3273Z" fill="#0C1C2B"/>
<path d="M7.74182 17.3982L9.14943 0.141602L15.0614 0.636667L14.991 1.55608L10.2051 1.13173L9.6421 8.06266L13.5834 8.41627L13.513 9.33568L9.57174 8.98206L8.9383 16.5495L13.7946 16.9738L13.7242 17.8932L7.74182 17.3982Z" fill="#0C1C2B"/>
<path d="M18.5099 18.6711L17.6654 0.919434L18.7915 1.1316L19.4953 16.8323L25.6184 2.47535L26.7445 2.68753L19.6361 18.954L18.5099 18.6711Z" fill="#0C1C2B"/>
<path d="M24.9147 20.0855L29.9116 3.53613L35.6124 5.30422L35.3309 6.22363L30.7562 4.80916L28.7152 11.4572L32.4453 12.5888L32.1638 13.4374L28.4337 12.3059L26.2519 19.5904L30.897 21.0049L30.6154 21.8536L24.9147 20.0855Z" fill="#0C1C2B"/>
<path d="M32.4453 22.5607L38.9907 6.57715L40.0464 7.00149L33.8529 22.1364L38.6388 24.1166L38.2869 24.9653L32.4453 22.5607Z" fill="#0C1C2B"/>
<path d="M74.7439 36.5641C73.829 36.2812 72.4918 35.9276 71.0138 36.4934C69.6766 37.0592 67.7763 37.3421 65.8056 37.9786C65.1018 37.2713 64.3276 36.9884 63.4831 37.4835L63.9757 38.6151C63.7646 38.6858 63.4831 38.8273 63.2719 38.9687L62.8496 37.8371L61.7939 38.4029L62.0051 39.3931C60.8086 40.1003 59.7529 40.949 58.9787 42.0806C56.1635 41.0197 58.2045 39.9588 56.1635 39.6759C56.445 38.1908 56.5154 36.9177 55.8116 35.4325C57.7118 33.2401 61.6532 33.0279 64.0461 31.3306C62.9904 29.6332 62.8496 30.3404 60.3159 28.148L59.5418 28.6431C58.5564 27.5115 58.1342 26.875 57.6415 27.0164C57.2192 27.1579 56.5858 26.3092 56.0931 23.8338H55.3893C54.2632 20.9342 54.3336 17.6102 55.4597 16.2664C56.7265 14.8519 70.9434 12.2352 77.4888 12.3766C77.6999 13.0131 78.5445 13.7204 79.1075 14.0032C79.6002 15.6299 78.263 16.7615 76.0108 18.2467L75.7997 17.6809C72.2806 19.1661 66.2279 20.5098 62.0051 21.995C63.7646 23.5509 65.6649 25.1069 67.5651 25.8141L67.0021 26.3092C69.6766 28.9967 75.3774 26.5213 78.1222 24.7532L80.5152 25.0361C80.2336 28.4309 79.7409 30.3404 77.6295 32.0378C78.6149 33.1694 81.219 33.2401 82.8377 33.3815C82.5562 34.0181 82.1339 34.5131 82.7673 34.796C80.0929 37.5542 75.7293 36.9177 74.7439 36.5641ZM59.1899 26.9457H58.6972L59.6121 28.0065L59.964 27.7944L59.1899 26.9457ZM61.3013 38.7565L60.3863 39.2516L60.4567 39.7467L61.5124 39.2516L61.3013 38.7565ZM67.917 26.3092L68.1986 26.0263L69.3246 26.3092L69.0431 26.8042L67.917 26.3092ZM76.9257 32.8157L76.4331 33.1694C76.8554 33.5937 77.1369 33.4523 77.8407 33.1694L76.9257 32.8157Z" fill="#0C1C2B"/>
</svg>
