<svg xmlns="http://www.w3.org/2000/svg" xmlns:xlink="http://www.w3.org/1999/xlink" viewBox="0 0 190.79385 199.93399"><defs><style>.a{isolation:isolate;}.b{fill:#040101;}.c{fill:#f97878;}.d{fill:#f85757;}.e,.h{mix-blend-mode:screen;}.e{fill:url(#a);}.f{fill:url(#b);}.g{fill:#470024;opacity:0.2;}.g,.q{mix-blend-mode:multiply;}.h{opacity:0.5;}.i{fill:#b83138;}.j,.m{fill:#f9aea4;}.j{mix-blend-mode:soft-light;}.k{fill:url(#c);}.l{fill:url(#d);}.n{fill:#f97f7c;}.o{fill:#cf6854;}.p{fill:#d57a68;}.q{fill:#ad2727;opacity:0.52;}.r{fill:#fcfcfc;}</style><radialGradient id="a" cx="95.89488" cy="99.98793" r="75.06094" gradientUnits="userSpaceOnUse"><stop offset="0.66201" stop-color="#ffac56"/><stop offset="1"/></radialGradient><radialGradient id="b" cx="111.25983" cy="61.94136" r="80.79651" gradientUnits="userSpaceOnUse"><stop offset="0.28144" stop-color="#e95059"/><stop offset="0.41216" stop-color="#e44d59"/><stop offset="0.56348" stop-color="#d6465a"/><stop offset="0.72507" stop-color="#bf395c"/><stop offset="0.89268" stop-color="#9f275e"/><stop offset="1" stop-color="#861960"/></radialGradient><radialGradient id="c" cx="148.69585" cy="47.39471" r="56.07449" gradientUnits="userSpaceOnUse"><stop offset="0" stop-color="#ff953d"/><stop offset="0.21117" stop-color="#fa873f"/><stop offset="0.60894" stop-color="#eb6244"/><stop offset="1" stop-color="#db384a"/></radialGradient><radialGradient id="d" cx="145.62342" cy="45.70207" r="68.04972" gradientUnits="userSpaceOnUse"><stop offset="0" stop-color="#ffcc7a"/><stop offset="0.14411" stop-color="#fcbe75"/><stop offset="0.41711" stop-color="#f39969"/><stop offset="0.78703" stop-color="#e45d56"/><stop offset="1" stop-color="#db384a"/></radialGradient></defs><g class="a"><path class="b" d="M93.69721,199.934a15.6854,15.6854,0,0,1-5.52731-4.40751C82.93059,189.661,77.56919,183.904,72.36136,178.01112a3.72206,3.72206,0,0,0-4.05208-1.36416c-8.113,1.75753-16.25051,3.40153-24.36935,5.13254-6.30243,1.34371-9.76094-1.26406-10.41461-7.75592-.85247-8.46635-1.84-16.919-2.72012-25.38274a2.58537,2.58537,0,0,0-1.81665-2.25343c-6.50292-2.91163-12.98453-5.87089-19.48826-8.78068C5.87067,135.98283,2.0016,134.71908,0,130.82463V126.5297a2.90272,2.90272,0,0,0,.50387-.5223c4.5765-8.054,9.10879-16.13353,13.74725-24.15161a3.1297,3.1297,0,0,0,.03373-3.55543c-3.56-6.17284-7.05761-12.38157-10.59257-18.56888C2.48448,77.61744,1.232,75.52891,0,73.42872V69.13379c1.80072-3.57508,5.22047-4.90777,8.61084-6.38491,6.6499-2.89728,13.21714-5.98426,19.86589-8.88426a3.41141,3.41141,0,0,0,2.40139-3.52935c-.01617-.83592.22944-1.67342.27921-2.51477a3.15539,3.15539,0,0,1,3.276-3.351c2.31335.90232,2.82218,1.69676,2.59547,4.11861-.08476.90541-.27067,1.80382-.31517,2.71011A8.30692,8.30692,0,0,1,31.257,59.08117C23.52632,62.46042,15.862,65.99137,8.1698,69.4586,5.54373,70.64229,5.4481,70.86825,6.84324,73.314Q13.16706,84.39987,19.526,95.46569c1.65318,2.86614,1.93791,5.62261.18424,8.62521C15.32153,111.605,11.06776,119.198,6.76551,126.76256c-1.26481,2.22389-1.1382,2.60591,1.17405,3.64707,7.812,3.51754,15.6096,7.0676,23.44654,10.52863,2.99374,1.32213,4.86655,3.42865,5.23187,6.69863q1.45,12.97934,2.80466,25.96927c.27061,2.57663.67835,2.93984,3.187,2.41463,8.25907-1.72913,16.52549-3.42477,24.7706-5.21832a8.66142,8.66142,0,0,1,9.06778,2.93476c5.60131,6.331,11.33971,12.54075,17.03081,18.79212,1.79328,1.96983,2.07266,1.97872,3.7915.08855,1.3084-1.43882,2.57065-2.91964,3.85343-4.38177,4.16391-4.537,8.492-8.93662,12.43869-13.65536,3.04118-3.63614,6.48-4.85352,10.99921-3.55489,2.4014.69,3.06688,1.32087,3.16135,3.88855-1.24621,2.10089-2.108,2.59563-4.66576,1.86168a4.19263,4.19263,0,0,0-4.87573,1.53176c-5.22692,5.92766-10.61409,11.7137-15.87679,17.61029a13.00166,13.00166,0,0,1-5.48426,4.01583Z"/><path class="c" d="M127.723,174.91443c-.09447-2.56768-.75995-3.1985-3.16135-3.88855-4.51923-1.29863-7.958-.08125-10.99921,3.55489-3.94665,4.71874-8.27478,9.11837-12.4386,13.65528a79.63006,79.63006,0,0,1-11.77392-8.22359,107.53586,107.53586,0,0,1-12.7585-12.23006,1.58442,1.58442,0,0,1-.44577-1.24119c3.04094.65746,6.04,1.468,9.138,1.90312,16.34478,2.29584,31.72051-.48477,45.858-9.037,30.71455-18.58015,43.316-58.81033,25.23638-92.25758-1.33157-2.46341-2.14317-2.85708-4.83649-2.19786a4.23621,4.23621,0,0,0-.96327-1.86079c-.65721-1.07592-1.78838-1.87215-1.90256-3.26595a3.13846,3.13846,0,0,0-.22638-4.405c-14.62346-16.68724-33.01116-24.98-55.21091-24.72444A72.06337,72.06337,0,0,0,72.6095,34.4362a1.60438,1.60438,0,0,1,.43034-1.05359,140.12494,140.12494,0,0,1,9.969-10.83893A99.02626,99.02626,0,0,1,99.30066,9.7135c5.00409,5.46662,10.07761,10.87191,14.98383,16.425a8.77548,8.77548,0,0,0,9.23014,3.00265c8.24387-1.8133,16.51678-3.49483,24.78017-5.219,2.4181-.50453,2.84745-.17494,3.11714,2.29909.91575,8.401,1.9143,16.79425,2.706,25.207a8.56964,8.56964,0,0,0,5.57083,7.70726c7.73071,3.38172,15.399,6.90617,23.09123,10.37582,2.46532,1.112,2.5541,1.38253,1.2121,3.75259q-6.57691,11.61532-13.16435,23.2247a6.65032,6.65032,0,0,0,.01744,7.029q6.4661,11.34182,12.90205,22.70087c1.67009,2.94135,1.63275,3.06619-1.36349,4.41593-7.63494,3.43946-15.25548,6.9117-22.91639,10.29236a8.34914,8.34914,0,0,0-5.33126,7.45851c-.82076,8.47558-1.80516,16.93535-2.72984,25.4008-.26517,2.42759-.72037,2.75054-3.16635,2.23709-3.368-.707-6.72933-1.4458-10.09851-2.1469-2.65317-.55209-3.58213-.09647-4.678,2.21733Q130.59318,175.504,127.723,174.91443Z"/><path class="d" d="M76.1453,166.54105a1.586,1.586,0,0,0,.44611,1.24135,107.53586,107.53586,0,0,0,12.7585,12.23006,79.63006,79.63006,0,0,0,11.77392,8.22359c-1.28287,1.46221-2.54512,2.943-3.85352,4.38185-1.71884,1.89017-1.99822,1.88128-3.7915-.08855-5.6911-6.25137-11.4295-12.46114-17.03081-18.79212a8.66142,8.66142,0,0,0-9.06778-2.93476c-8.24511,1.79355-16.51153,3.48919-24.7706,5.21832-2.50864.52521-2.91638.162-3.187-2.41463Q38.05848,160.6175,36.618,147.63689c-.36532-3.27-2.23813-5.3765-5.23187-6.69863-7.83694-3.461-15.63458-7.01109-23.44654-10.52863-2.31225-1.04116-2.43886-1.42318-1.17405-3.64707,4.30225-7.56454,8.556-15.15753,12.94468-22.67166,1.75367-3.0026,1.46894-5.75907-.18424-8.62521Q13.14923,84.41024,6.84324,73.314C5.4481,70.86825,5.54373,70.64229,8.1698,69.4586,15.862,65.99137,23.52632,62.46042,31.257,59.08117a8.30692,8.30692,0,0,0,5.45666-7.78291c.0445-.90629.23041-1.8047.31517-2.71011.22671-2.42185-.28212-3.21629-2.59546-4.11861q.34423-2.88438.68735-5.76849c2.1902-.18188,3.17-1.47736,3.372-3.56809.28711-2.97078.64905-5.9343.93954-8.90479.238-2.43325.68886-2.807,3.10122-2.30441,8.249,1.71862,16.50809,3.39268,24.73641,5.20584a8.72939,8.72939,0,0,0,9.2219-2.95645q7.52078-8.56053,15.30312-16.89038c3.74276-4.02889,2.924-5.16662,7.5058.43073A99.02626,99.02626,0,0,0,83.00883,22.54368a140.12494,140.12494,0,0,0-9.969,10.83893,1.60313,1.60313,0,0,0-.43014,1.05352C60.86848,38.9036,50.51071,45.47541,42.56648,55.298,24.791,77.27645,21.22223,101.69905,32.041,127.63266,40.31331,147.46213,55.69033,160.09185,76.1453,166.54105Z"/><path class="b" d="M99.30066,9.7135c-4.58179-5.59735-3.763-4.45962-7.5058-.43073q-7.75593,8.34888-15.30312,16.89038a8.72939,8.72939,0,0,1-9.2219,2.95645c-8.22832-1.81316-16.48736-3.48722-24.73641-5.20584-2.41236-.50259-2.86326-.12884-3.10122,2.30441-.29049,2.97049-.65243,5.934-.93954,8.90479-.202,2.09073-1.1818,3.38621-3.372,3.56809-2.42763-1.09337-2.82286-1.872-2.49693-4.55524.35267-2.90345.685-5.811.94067-8.72426.49689-5.66235,4.15675-8.50137,9.73943-7.36594q12.4973,2.54175,24.96223,5.24052a3.58169,3.58169,0,0,0,3.93-1.18216c5.57649-6.26809,11.24474-12.45449,16.87432-18.6754,4.12986-4.56366,8.50511-4.58544,12.60771-.06071,5.63593,6.21584,11.31785,12.39077,16.88456,18.668a3.58972,3.58972,0,0,0,3.905,1.26809c8.1834-1.76479,16.38534-3.44332,24.57437-5.18238,6.00876-1.27605,9.70759,1.44223,10.26519,7.58556.11161,1.22971.26445,2.45568.39784,3.68342.79328,7.30122,1.60464,14.60056,2.36142,21.90556a2.53907,2.53907,0,0,0,1.75127,2.27953c7.81956,3.47328,15.61252,7.00642,23.41488,10.51848q8.59374,3.86829,3.89921,12.12236c-4.218,7.37983-8.4164,14.77112-12.68773,22.12a2.65271,2.65271,0,0,0-.04446,3.01674c4.26147,7.428,8.46681,14.88811,12.70736,22.3281,3.17861,5.57679,1.86455,9.5664-4.03648,12.22135-7.68457,3.4574-15.34928,6.95955-23.0576,10.363a2.94082,2.94082,0,0,0-1.988,2.74091c-.86266,8.47009-1.83656,16.92876-2.72638,25.39618-.62439,5.94146-4.1287,8.58342-10.03627,7.45567-1.8486-.35289-3.68758-.75664-5.52947-1.14417-1.71471-.36076-3.42075-.76674-5.14278-1.0875-1.9918-.37095-3.15593-1.41528-3.12658-3.54282,1.09583-2.31411,2.02479-2.76973,4.678-2.21764,3.36918.7011,6.73053,1.43987,10.09851,2.1469,2.446.51345,2.90118.1905,3.16635-2.23709.92468-8.46545,1.90908-16.92522,2.72984-25.4008a8.34914,8.34914,0,0,1,5.33126-7.45851c7.66091-3.38066,15.28145-6.8529,22.91639-10.29236,2.99624-1.34974,3.03358-1.47458,1.36349-4.41593q-6.44625-11.35314-12.90205-22.70087a6.65032,6.65032,0,0,1-.01744-7.029q6.59143-11.6071,13.16435-23.2247c1.342-2.37006,1.25322-2.64059-1.2121-3.75259-7.69221-3.46965-15.36052-6.9941-23.09123-10.37582a8.56964,8.56964,0,0,1-5.57083-7.70726c-.79169-8.41271-1.79024-16.80595-2.706-25.207-.26969-2.474-.699-2.80362-3.11714-2.29909-8.26339,1.72414-16.5363,3.40567-24.78017,5.219a8.77548,8.77548,0,0,1-9.23014-3.00265C109.37827,20.58541,104.30475,15.18012,99.30066,9.7135Z"/><path class="e" d="M170.95583,99.97992c0,1.74889-.06364,3.49762-.19072,5.21448a74.55233,74.55233,0,0,1-3.64072,18.53665v.016a1.09669,1.09669,0,0,1-.07948.20671,75.24664,75.24664,0,0,1-17.09,28.107,75.15475,75.15475,0,0,1-23.57631,16.5336,73.52954,73.52954,0,0,1-17.1217,5.26223,75.63134,75.63134,0,0,1-13.37,1.19222A74.74689,74.74689,0,0,1,51.40519,160.439a75.55619,75.55619,0,0,1-22.30445-26.15174q-1.43089-2.79015-2.623-5.7231a74.63463,74.63463,0,0,1-5.64377-28.58422c0-.66758.01586-1.31945.03173-1.98718,0-.52449.03188-1.06514.04775-1.58978.016-.27017.03173-.55637.04775-.82654.06361-1.16064.159-2.30526.286-3.44988.06362-.65187.1431-1.31945.22258-1.97131.0955-.62.17483-1.25584.27032-1.86.11122-.636.20658-1.27185.3338-1.90785.17482-1.04912.39755-2.06666.636-3.10007.14294-.65171.30207-1.28771.461-1.93943.57223-2.22577,1.24-4.41959,2.003-6.56575.11137-.318.22258-.62.33395-.92209.14294-.39745.30206-.79489.461-1.19232.22258-.58821.461-1.1605.69946-1.7328s.47689-1.12877.73135-1.68515A74.70339,74.70339,0,0,1,32.646,59.56808c.22243-.34971.445-.69951.6836-1.03331.30208-.46108.60412-.92208.922-1.36727A72.883,72.883,0,0,1,39.27524,50.729c0-.01591.01587-.01591.01587-.03182A75.23533,75.23533,0,0,1,61.72279,33.14619a73.84439,73.84439,0,0,1,21.144-7.09044,75.311,75.311,0,0,1,45.56283,6.27962c1.47841.69946,2.92509,1.44667,4.34,2.2575.1431.07948.30206.159.44515.23845.0476.03173.11122.06361.159.09534A75.26821,75.26821,0,0,1,156.473,55.67312a74.25837,74.25837,0,0,1,5.26223,8.26681,72.58838,72.58838,0,0,1,5.13485,11.57357c.07948.23842.159.47692.25431.71542.0795.2384.15911.49282.23859.73123a75.48373,75.48373,0,0,1,3.1318,14.62589c.1431,1.3672.27033,2.75026.3338,4.14934C170.90806,97.13431,170.95583,98.54926,170.95583,99.97992Z"/><path class="f" d="M165.499,99.98052c0,1.62166-.05893,3.24332-.17679,4.83536a69.14255,69.14255,0,0,1-3.376,17.1891v.01481a1.01477,1.01477,0,0,1-.07374.1916,69.77774,69.77774,0,0,1-15.84758,26.06379,69.69372,69.69372,0,0,1-21.86232,15.33171,68.1825,68.1825,0,0,1-15.877,4.87948,70.1198,70.1198,0,0,1-12.398,1.10564,69.31247,69.31247,0,0,1-41.24788-13.54777,70.06207,70.06207,0,0,1-20.68308-24.25053q-1.32665-2.58707-2.43235-5.30711a69.20876,69.20876,0,0,1-5.23337-26.50608c0-.61907.01466-1.22349.02947-1.84272,0-.48641.02946-.98762.04427-1.47418.01466-.25053.02947-.51587.04412-.76656.0591-1.07617.14748-2.13753.26534-3.19889.05909-.60457.13282-1.22365.20641-1.82807.08855-.57495.16214-1.16471.2507-1.72486.10319-.58976.19159-1.17937.3096-1.769.16214-.973.36855-1.91646.58961-2.87477.13267-.60442.28015-1.194.42749-1.79845.53067-2.06394,1.14991-4.09827,1.85752-6.08843.10321-.29486.20641-.575.30961-.855.13269-.36856.28015-.73711.42748-1.10565.20641-.54545.42749-1.07614.64869-1.60682.22107-.5307.44229-1.04672.67816-1.56266a69.27907,69.27907,0,0,1,4.86483-8.97788c.20626-.32428.41267-.64865.63388-.95817.28015-.42757.56015-.85506.85511-1.26788A67.52757,67.52757,0,0,1,43.39151,54.31c0-.01475.01464-.01475.01464-.02952a69.76723,69.76723,0,0,1,20.801-16.27507,68.47918,68.47918,0,0,1,19.60678-6.57488,69.83654,69.83654,0,0,1,42.25046,5.823c1.371.64869,2.71248,1.34166,4.02453,2.09341.13267.07374.28.14748.41281.22106.04415.02962.10308.05909.14733.08855a69.7985,69.7985,0,0,1,21.42,19.2382,68.85451,68.85451,0,0,1,4.87963,7.66583,67.30382,67.30382,0,0,1,4.76162,10.73214c.07374.22106.1475.44228.23587.6635.07374.22107.14748.45694.22122.678a69.99591,69.99591,0,0,1,2.90409,13.56257c.13267,1.26777.25068,2.55035.30961,3.84774C165.45468,97.34178,165.499,98.65382,165.499,99.98052Z"/><path class="g" d="M165.499,99.98052c0,1.62166-.05893,3.24332-.17679,4.83536a4.5515,4.5515,0,0,1-1.12044,2.0786,7.42479,7.42479,0,0,1-3.58225,1.6954c-1.91661.42747-3.90667.61908-5.8526.89922a36.52047,36.52047,0,0,0-6.97289,1.607,103.57348,103.57348,0,0,0-12.575,5.20375,102.10278,102.10278,0,0,1-13.25294,5.51367c-2.43251.796-4.95339,1.29708-7.40054,2.06379-1.14991.35374-2.31447.61908-3.479.89922-1.60687.38336-3.15479.89938-4.747,1.26793-2.06394.47159-4.054,1.16456-6.11794,1.592-2.32928.48641-4.61427,1.34151-6.95808,1.69524a25.43331,25.43331,0,0,1-5.60191.30962c-.811-.05893-1.62181-.177-2.43249-.22107-1.091-.07374-2.19661-.05893-3.28744-.13282a22.97182,22.97182,0,0,0-4.7175.236,20.21233,20.21233,0,0,1-5.33657.11786,33.84428,33.84428,0,0,1-5.1007-1.23831,20.56334,20.56334,0,0,0-5.42512-.81083c-.70747,0-1.41523.13267-2.10807.19176-.73709.07358-1.47418.1032-2.21127.17679a17.80689,17.80689,0,0,1-3.31688.01481,16.40817,16.40817,0,0,1-4.98286-1.38579,26.11894,26.11894,0,0,0-5.45443-1.63631c-1.68059-.26534-3.33172-.88457-5.05658-.516a7.739,7.739,0,0,1-.8403.07373c-.36854.04428-.72228.19161-1.09082.23588a3.15674,3.15674,0,0,0-1.28258.30961,5.41835,5.41835,0,0,0-.56015.45694,4.20025,4.20025,0,0,1-.56028.45695,7.67292,7.67292,0,0,1-.97283.35388,2.85194,2.85194,0,0,1-1.40059.16214,69.20876,69.20876,0,0,1-5.23337-26.50608c0-.61907.01466-1.22349.02947-1.84272,0-.48641.02946-.98762.04427-1.47418.01466-.25053.02947-.51587.04412-.76656.0591-1.07617.14748-2.13753.26534-3.19889.05909-.60457.13282-1.22365.20641-1.82807.08855-.57495.16214-1.16471.2507-1.72486.10319-.58976.19159-1.17937.3096-1.769.16214-.973.36855-1.91646.58961-2.87477.13267-.60442.28015-1.194.42749-1.79845.53067-2.06394,1.14991-4.09827,1.85752-6.08843.10321-.29486.20641-.575.30961-.855.13269-.36856.28015-.73711.42748-1.10565.20641-.54545.42749-1.07614.64869-1.60682.22107-.5307.44229-1.04672.67816-1.56266a69.27907,69.27907,0,0,1,4.86483-8.97788c.20626-.32428.41267-.64865.63388-.95817.28015-.42757.56015-.85506.85511-1.26788A67.52757,67.52757,0,0,1,43.39151,54.31c-.60442,1.40051-1.35634,2.90422-1.00245,4.45211a5.79606,5.79606,0,0,0,.41267,1.26778.89832.89832,0,0,1,.07374.17689c.575-.85506,1.1351-1.72478,1.75433-2.56509.78121-1.07612,1.5183-2.226,2.35874-3.258.69284-.88448,1.53311-1.68051,2.28486-2.50606.26534-.28009.92884-1.14991,1.371-1.10564.14748.47166-.29481,1.12031-.48639,1.51837-.28.60448-.73711,1.12041-.973,1.7543-.07374.22117-.19161.6339.13267.61913a2.84069,2.84069,0,0,0,.38335-.25059c.3832-.26534.72228-.575,1.09083-.85506.53068-.41273,1.12046-.75185,1.666-1.16458.72228-.56019,1.47416-1.09089,2.21125-1.63633,2.01968-1.44477,4.06867-2.94839,6.20633-4.21621a73.82567,73.82567,0,0,1,6.94343-3.61171c1.25311-.575,2.47661-1.19418,3.75918-1.72486a20.41825,20.41825,0,0,1,2.978-.89922,18.89319,18.89319,0,0,1,2.59462-.295,21.38556,21.38556,0,0,1,2.167-.14733c.63389.01466,1.253-.118,1.887-.118a4.55213,4.55213,0,0,1,1.09083.17694c.1032.01466.4864.05893.56029.177.33893.53068-1.17952.42747-1.40059.53068a11.80853,11.80853,0,0,0-2.29967,1.9902c-.64867.575-1.32685,1.076-1.94592,1.69525a6.36582,6.36582,0,0,0-1.66592,1.94608c-.10322.29465-.28017.72226-.10322,1.017.22122.35387.66335.26543.98777.20641a27.80956,27.80956,0,0,0,2.8305-.78132c1.17924-.36854,2.37341-.70762,3.538-1.14991a13.73122,13.73122,0,0,1,3.09582-.84029c1.06136-.13267,2.12287-.35374,3.18423-.48641a13.38408,13.38408,0,0,1,1.87219-.16229c.53084,0,1.01724-.16213,1.54792-.14732.95831.0148.25069,1.0467-.22106,1.32685a16.19688,16.19688,0,0,1-4.87964,2.2702,46.34117,46.34117,0,0,0-5.98526,1.38574c-1.371.48651-2.78608.89924-4.14239,1.42993-.73709.29486-1.45953.60447-2.18181.914-1.032.44233-2.00486,1.00254-3.03691,1.45953a29.05607,29.05607,0,0,0-4.46681,2.742c-1.35632.914-2.62409,1.93119-3.92132,2.91888a27.11349,27.11349,0,0,0-3.2285,2.8747,10.68348,10.68348,0,0,0-2.27021,3.16955,11.72312,11.72312,0,0,0-1.22365,4.054,3.68033,3.68033,0,0,0,1.45952,2.90413,6.64023,6.64023,0,0,0,3.52332,1.32681,14.35414,14.35414,0,0,0,2.63874-.1769,29.62779,29.62779,0,0,1,3.774-.81087,26.44958,26.44958,0,0,1,4.18668-.0737A14.8064,14.8064,0,0,1,77.1358,72.8259a30.54906,30.54906,0,0,1,4.02453,2.57985,37.04109,37.04109,0,0,1,5.05642,4.29c.88457.84029,1.66593,1.769,2.60943,2.53554A28.33811,28.33811,0,0,0,91.111,83.9708a18.42674,18.42674,0,0,0,5.91168,2.52089,10.17512,10.17512,0,0,0,5.18909.22106c1.23831-.35373,2.35875-1.00243,3.59706-1.3267a5.11289,5.11289,0,0,1,2.31449-.04427,16.00294,16.00294,0,0,0,3.56759.33923c.60442-.01481,1.194-.08855,1.81326-.13282a5.43223,5.43223,0,0,1,1.81309.236c.42763.10306,1.04685.35374.50136.81068-.60457.50122-1.84272.33908-2.57981.33908a24.88091,24.88091,0,0,0-3.92148.16214c-.45694.07373-1.81326.26534-1.90165.88456-.10321.796,1.84272.76656,2.22608.70763,1.194-.16214,2.38821-.26534,3.58224-.35389a25.76633,25.76633,0,0,1,4.39308.41282c1.45952.14748,2.87462.58961,4.349.67816a6.63647,6.63647,0,0,0,1.85736-.25069c1.01724-.22106,1.96074-.50121,2.94851-.81067,1.62151-.50137,3.19889-1.091,4.86484-1.44487a10.617,10.617,0,0,1,4.36359.01481c.70763.13267,1.44472.23587,2.167.33908.70762.1032,1.44473.07374,2.15234.16213a12.54119,12.54119,0,0,0,5.98527-1.25311c2.19646-.92869,4.2604-2.19646,6.54543-2.90409a20.654,20.654,0,0,1,4.43733-.82548,3.051,3.051,0,0,1,1.09082-.10321c.19176.04413.33908.1768.51605.22107.47173.14748.56012-.17694.72241-.54549a6.442,6.442,0,0,0,.51587-1.00243c.10321-.35374.1916-.72228.30962-1.07617.13267-.42747.11786-.84029.26536-1.253.10318-.22122.73707-1.37113,1.00241-1.40059h.04427c.16216.05893.17679.41282.1916.6635,0,.07359.01481.13252.01481.17679a1.06885,1.06885,0,0,0,.20641.50122,69.99591,69.99591,0,0,1,2.90409,13.56257c-.53068-.17679-1.06136-.35373-1.59205-.4864-.78136-.20641-1.59219-.295-2.38821-.44229-.73709-.13267-1.45952-.32427-2.19659-.41266a10.01411,10.01411,0,0,0-4.59951.78121,15.61231,15.61231,0,0,0-2.108.89922c-.64871.33908-1.2826.67816-1.9461.973-.69282.295-1.38563.575-2.10805.82564-1.09084.36854-2.09327.92869-3.18425,1.312a53.25945,53.25945,0,0,1-5.04177,1.87219,25.61747,25.61747,0,0,1-4.82055.855c-1.41525.08855-2.84514-.2948-4.27521-.1032-.56015.07374-1.09083.26534-1.65113.36854a11.50282,11.50282,0,0,1-1.41525.30962c-.7664.04427-1.50364.07374-2.2702.14748-1.253.13267-2.49141.25053-3.74438.26534a22.43368,22.43368,0,0,0-2.81584.22106c-.86961.118-1.73952.16214-2.60928.295a8.73793,8.73793,0,0,0-2.49127.70762c-.22121.10321-.78136.35374-.73709.66335.02932.23588.33893.35374.51588.42748a4.92653,4.92653,0,0,0,1.91646.20641,15.00481,15.00481,0,0,0,1.62168-.118c.75188-.07359,1.50362.02961,2.24071-.05893a21.47179,21.47179,0,0,1,7.12037.58961,12.30814,12.30814,0,0,0,4.40773.20641c2.03448-.29481,3.98041-.92869,6.00008-1.253,3.55278-.575,7.0909-1.2383,10.59941-1.94593,1.6954-.32442,3.3169-.89922,5.0123-1.19418.7519-.14748,1.50365-.28,2.27022-.42747,1.032-.20641,2.09339-.25069,3.14009-.398,1.56258-.22122,3.05157-.76656,4.6143-.95831.95815-.11786,1.90165-.23573,2.84515-.28C165.45468,97.34178,165.499,98.65382,165.499,99.98052Z"/><path class="g" d="M151.4057,141.98045a69.50623,69.50623,0,0,1-43.12022,26.50592.38879.38879,0,0,0-.07374-.08839c-.94335-.98762-1.9754-1.85754-2.99262-2.78623a39.4491,39.4491,0,0,0-3.50852-2.978,70.96617,70.96617,0,0,0-6.94358-4.23094,42.95968,42.95968,0,0,0-7.78356-3.74438,40.30074,40.30074,0,0,0-4.55536-1.32686c-1.90166-.36854-3.87721-.45694-5.80833-.678a40.72456,40.72456,0,0,0-18.19152,1.81326,27.387,27.387,0,0,0-3.53813,1.44471c-.08839.04427-.16213.0884-.25053.13267a70.06207,70.06207,0,0,1-20.68308-24.25053,6.58245,6.58245,0,0,1,1.90179-.45694c.51589,0,1.0319-.02962,1.54794,0a9.53448,9.53448,0,0,1,2.65354.75174,15.92137,15.92137,0,0,0,7.20876,1.26777,12.85635,12.85635,0,0,0,1.85753-.32427c.575-.14748,1.10564-.44213,1.69527-.54533a13.998,13.998,0,0,1,2.4914-.04428,12.72275,12.72275,0,0,1,1.96074.35374c.60427.1032,1.20884.14748,1.81326.26534a11.99222,11.99222,0,0,0,1.90165.35389,16.89713,16.89713,0,0,0,2.10809-.14748,19.02006,19.02006,0,0,0,4.00985-1.00243,13.1995,13.1995,0,0,1,3.05157-.50122c2.683-.2948,5.2039.64854,7.72478,1.44472a19.10837,19.10837,0,0,0,4.37844.60442c1.51828.11786,3.0221.17679,4.55519.14748a69.367,69.367,0,0,0,6.98772-.5603c.92867-.10321,1.85736-.23588,2.77139-.42748,1.71006-.33908,3.44973-.58961,5.15963-.914a115.2903,115.2903,0,0,0,12.53068-3.14011c1.79861-.57481,3.55293-1.29724,5.36619-1.872a20.63148,20.63148,0,0,1,2.28486-.5603,3.66862,3.66862,0,0,1,2.28516,0,.80169.80169,0,0,1,.48643,1.12044c-.2359.48641-1.00245.88442-1.42993,1.14976a9.40251,9.40251,0,0,1-2.06394.76671c-1.31189.44228-2.60926.973-3.92132,1.41509-.79618.2655-1.62166.39817-2.43249.58977a22.47464,22.47464,0,0,0-2.75676.92869c-.796.30961-1.47418.81083-2.29967,1.12044-1.09082.41267-2.24088.72228-3.34652,1.14991-2.83035,1.10564-5.4839,2.742-8.49119,3.37584a25.27134,25.27134,0,0,0-2.86.84029c-.42763.13267-1.10564.3832-1.10564.973,0,.89922,1.29724,1.19418,1.93112,1.34151.98778.23587,1.93128.60442,2.9189.84029a8.04241,8.04241,0,0,1,1.87234.79617,12.488,12.488,0,0,0,2.78607,1.06136,25.12835,25.12835,0,0,0,6.61931.81083c3.08087-.118,6.13259-.73724,9.22828-.56029a19.31309,19.31309,0,0,1,3.892.73709c1.25311.32442,2.49127.53083,3.77384.73709a44.68213,44.68213,0,0,0,10.02446.19175,54.11473,54.11473,0,0,0,7.032-.973,22.698,22.698,0,0,0,4.77643-1.091c.70762-.29481,1.44471-.44214,2.15234-.78137.42747-.20626.81083-.3832,1.253-.56014A11.11207,11.11207,0,0,1,151.4057,141.98045Z"/><path class="g" d="M161.94617,122.01979a70.86809,70.86809,0,0,1-2.94836,7.35624c-.05893.02946-.10318.05893-.16211.08839a9.568,9.568,0,0,0-2.27022,1.63647,7.76427,7.76427,0,0,1-1.78393,1.20884c-.42749.20626-.8107.48641-1.23832.69282-.4716.22122-.914.51587-1.35615.76655a14.86781,14.86781,0,0,0-2.01969,1.57754c-.23587.20626-.42748.44213-.67816.64854-.1916.14748-.398.28015-.575.44229-.36855.33907-.72228.69281-1.1203,1.00243a14.59387,14.59387,0,0,1-2.68315,1.6215,12.87751,12.87751,0,0,1-1.91633.67816c-.72243.22122-1.43006.41282-2.15249.58976-.72228.19161-1.4151.42748-2.12272.6487a14.15941,14.15941,0,0,1-2.37341.50121c-1.25311.1768-2.50622.13267-3.75917.41282-.64871.13252-1.2826.33893-1.9461.48641-.63388.13267-1.25311.35374-1.90165.44228a11.48241,11.48241,0,0,1-3.33172-.02946,9.99983,9.99983,0,0,0-1.1499-.05908c-.25054-.01466-.50107-.07374-.75175-.07374a4.31269,4.31269,0,0,1-.44229-.01466,13.41846,13.41846,0,0,0-3.1694.05893c-1.06153.10321-2.1377.16214-3.19907.22107a7.8842,7.8842,0,0,1-1.56272-.04413,10.835,10.835,0,0,0-1.8279.04413,20.01205,20.01205,0,0,1-3.98043-.1916,2.03066,2.03066,0,0,1,.54549-1.32671c.10321-.16213.11786-.28014.29481-.38335a3.53418,3.53418,0,0,1,.64869-.26534,2.64614,2.64614,0,0,1,.47175-.1916,9.97838,9.97838,0,0,1,1.12044-.20641,11.13036,11.13036,0,0,1,1.2235-.20641c.47175-.02946.95816.04427,1.42991.05908.39816.01466.81083.04413,1.20884.07359a11.88757,11.88757,0,0,1,2.285.35389c.72243.20641,1.44471.44213,2.19661.61908,2.29967.54548,4.61414,1.43005,7.00235.914.295-.05893.575-.0884.85511-.16214.5307-.11786,1.00243-.35388,1.53311-.47175a38.27912,38.27912,0,0,0,4.03934-.95815,15.50032,15.50032,0,0,0,1.78379-.70763c.54549-.28015,1.03191-.64869,1.59219-.89937.56015-.25054,1.09083-.54549,1.66578-.796.53068-.23588,1.07617-.47175,1.62151-.70763a37.49583,37.49583,0,0,0,3.774-1.887,35.14087,35.14087,0,0,0,3.30225-2.24073c1.26777-.92885,2.44714-1.99021,3.74453-2.87462a31.82992,31.82992,0,0,1,2.90408-1.71021,6.102,6.102,0,0,0,1.82794-1.12029,19.65634,19.65634,0,0,0,1.32683-2.12288,6.636,6.636,0,0,1,1.7838-1.84272c.3391-.25068.70762-.45709,1.04655-.72243C161.13534,122.639,161.54816,122.3294,161.94617,122.01979Z"/><path class="g" d="M139.30249,43.44521c.02962.1032.05893.22121.08855.33908C139.25837,43.858,139.21409,43.79894,139.30249,43.44521Z"/><path class="g" d="M156.94868,66.56058a16.35376,16.35376,0,0,1-5.05658,3.3317c-2.60926,1.07612-5.4839.796-8.21119,1.10565-.516.05893-.914.32436-1.40044.398-.48656.0737-1.00243-.08845-1.489-.02951a28.14651,28.14651,0,0,1-3.55278.38331c-1.66578,0-3.15477.38329-4.82055.38329-1.53326,0-3.93629.44226-5.38085-.07368.14748-.72243,2.28486-1.06146,2.93355-1.32682a11.24289,11.24289,0,0,1,4.21628-.82555c.855-.02951,1.57724-.32436,2.41768-.398.75175-.0737,1.47418.08844,2.22593-.05893.79617-.16215,2.978-.60448,2.7421-1.79857a4.95188,4.95188,0,0,0-.86974-1.13507,3.289,3.289,0,0,0-1.40061-.63389c-.92869-.20641-1.54777-.13272-.64854-1.10565.575-.634,1.2383-1.69536-.08855-1.99022a7.31059,7.31059,0,0,0-2.99248.42758c-.50137.08844-.97312-.07378-1.489.05893-.48656.118-.98777.457-1.47418.575-.63389.16213-1.25311.01467-1.887.1769a8.37611,8.37611,0,0,1-1.94593.26534c-2.50623.07369-5.11551,1.63633-7.63639,1.04663-1.0319-.23583-2.01965-.457-3.05156-.67809-1.51846-.32436-3.28744.20641-4.76162.39807-1.90166.2506-3.78866.44224-5.70512.73709-1.091.1769-2.49142.72235-3.58225.29478.42748-.44224,1.48884-.50119,2.07845-.66332,1.59219-.41282,3.25813-.72243,4.865-1.032,1.72486-.33912,3.538-.54544,5.27764-.75185,1.14991-.14748,2.32913.07369,3.44957-.118a43.34908,43.34908,0,0,0,9.37592-2.29975c2.86-1.17934,5.04161-3.67073,7.23823-5.85252a13.47537,13.47537,0,0,0,3.14-3.75926,23.29887,23.29887,0,0,0,.86991-2.5945,5.27263,5.27263,0,0,0-.17693-2.75667A69.565,69.565,0,0,1,156.94868,66.56058Z"/><path class="g" d="M35.01952,71.29045c.70747-1.49458,1.28092-3.489,2.3246-4.8039a7.50614,7.50614,0,0,1,.95287-.7688c.48565-.43342,1.15081-1.67754,1.91268-1.69344.97584-.02037-.23693,1.49632.9494,1.41935,1.261-.08183,2.194-1.39945,3.1463-2.00208a3.246,3.246,0,0,1,1.77-.55342c.52478.136.34693.31219.4376.83284a1.72675,1.72675,0,0,0,1.11168-.62876,11.3828,11.3828,0,0,1,2.55382-2.1556c.50938-.2733,2.5679-1.65986,3.23954-1.05514.67831.61073-1.25326,2.78481-1.49957,3.086A12.73427,12.73427,0,0,0,49.5874,67.954c-.62815,2.701,1.47962,5.88066,3.79183,7.02976a18.61782,18.61782,0,0,1,1.66247,1.05417,7.60464,7.60464,0,0,0,2.52918.90109c2.0245.47835,3.97935,1.36564,6.06535,1.59985a21.532,21.532,0,0,0,6.52018-.342,6.31907,6.31907,0,0,1,3.80739.06392,6.17726,6.17726,0,0,1,1.89879,1.97433,10.30279,10.30279,0,0,0,2.4523,1.8119c1.04744.70612,2.24268,1.19026,3.35133,1.81387.70823.39831,1.31432.93262,2.01743,1.33441a8.34061,8.34061,0,0,1,1.90073,1.16743,4.18484,4.18484,0,0,1,1.67923,3.1034c-.03582.7868-.63555.85208-1.02931,1.44683.93685.72273,2.16.82019,3.09929,1.46662.28272.19462,1.09718.54489.97372.98415-.19991.71185-2.25824.56377-2.6197.56165-4.03662-.02311-8.09349-.12375-12.12784-.02342a23.54787,23.54787,0,0,0-4.21673.503,1.79824,1.79824,0,0,0-1.30948.6969,4.412,4.412,0,0,0,2.43158.8004c2.06349.25748,4.09751.78046,6.16236,1.07526,1.98809.28363,3.70782,1.16351,5.63561,1.62317.7785.18556,1.52888.45876,2.30783.63177a23.571,23.571,0,0,0,3.06985.29874c4.19392.38078,8.41911-.60367,12.63948-.587a38.48867,38.48867,0,0,0,4.70147-.24646,18.16275,18.16275,0,0,0,4.05868-1.04625c.80842-.2812,1.63617-.40163,2.454-.64809.8276-.24962,1.6203-.6026,2.46512-.79768a20.07919,20.07919,0,0,1,4.5324-.61243c1.34967,0,2.64207.36583,3.98751.25854,2.14115-.1709,4.03465-1.03114,6.13063-1.31567a46.665,46.665,0,0,0,11.14127-3.00548,18.07335,18.07335,0,0,1,4.38038-.95815c.41357-.05229.778-.251,1.18844-.30267a9.27629,9.27629,0,0,0,1.08933-.04125,7.57961,7.57961,0,0,0,2.15429-1.05169,24.84821,24.84821,0,0,1,2.958-1.90951c1.11062-.4716,2.3459-.72485,3.49009-1.10382.44891-.14869.89226-.35812,1.33741-.49865.30871-.09731.76807-.06286,1.008-.29073a9.01881,9.01881,0,0,1-2.83307,1.26339,11.265,11.265,0,0,0-2.73651,1.48869,9.86747,9.86747,0,0,1-1.51089,1.3066c-1.33094.78-2.32566,1.769-3.86633,2.18392-2.32792.62679-4.54569,1.61592-6.894,2.22941-2.377.621-4.79456.98656-7.16343,1.50017A133.04261,133.04261,0,0,1,119.06742,97.827a42.18642,42.18642,0,0,0-6.09043,1.03976c-.78182.19462-1.3938.66244-2.18725.85329-.98037.23587-1.89758.57843-2.85543.90013-1.94638.65368-3.88415,1.21292-5.79865,1.96074-.99788.3897-2.74617.39378-3.12274,1.59839a4.09117,4.09117,0,0,0,2.47163.35041,10.13295,10.13295,0,0,0,1.93491-.0139,13.19211,13.19211,0,0,0,2.27578-.81612c.7049-.30946,1.36644-.57586,2.09205-.837.77683-.2797,1.0257-.58312,1.80676-.56982a4.64987,4.64987,0,0,0,1.33879-.06c.38562-.11015.60925-.34769,1.0949-.16939-.18871.40149-1.05123.73286-1.44137.93761-.55926.2936-1.05594.28362-1.54567.75281-.51119.48942-.7661.7531-.011,1.13812a6.88615,6.88615,0,0,0,3.05566.20973c3.01891-.087,5.90972-1.34226,8.95567-.725,1.71973.3486,3.36466.78091,5.10841,1.0665a23.62047,23.62047,0,0,0,6.28372.16244c2.07435-.24555,4.07966-.88094,6.17775-1.076,1.11878-.10411,2.28305-.41917,3.38959-.6283,1.44456-.27289,2.90212-.50076,4.35288-.76836,1.80555-.33289,3.63271-.76852,5.43585-1.06212,1.393-.22666,2.8107-.31173,4.20329-.55063a5.50134,5.50134,0,0,1,1.3196-.0686c.49879.03475.33031.13887.66894.22364a8.60191,8.60191,0,0,1,1.33.409c.4305.17709,1.28213.1103,1.3743.70022-3.101,2.1747-7.45536,2.40755-10.99711,3.40666-2.39834.6765-4.74833,1.50047-7.12264,2.24889-2.81221.88654-5.65523,1.67591-8.46369,2.576-2.65129.84982-5.25739,1.86479-7.90385,2.73833-2.1756.71805-4.27234,1.592-6.47454,2.21988-1.12211.31989-2.1407.859-3.24708,1.20627-1.0993.345-2.16913.642-3.25587,1.04368a27.90493,27.90493,0,0,1-2.77792.82352c-1.23211.31536-2.32641.8338-3.5212,1.24012-1.21745.41388-2.48537.57783-3.68393,1.06318a24.3189,24.3189,0,0,1-2.87568,1.076c-1.5789.41932-3.15279.79739-4.745,1.16653-1.12483.26066-2.1975.77427-3.32854.984a25.626,25.626,0,0,1-3.8562.33591c-1.2241.04533-2.38187.28921-3.6312.28589a21.91026,21.91026,0,0,0-3.13014.0621,35.87284,35.87284,0,0,1-5.108.21714q-.97373,0-1.94729,0a6.83937,6.83937,0,0,1-2.17-.0621c.09746-.23724,1.23241-.35752,1.61788-.43443a11.6764,11.6764,0,0,1,2.23454-.06211,16.39235,16.39235,0,0,0,2.35784-.0621c.89137-.1304,1.83336-.10139,2.71823-.2729a38.60462,38.60462,0,0,0,3.86073-.7534c.74888-.22848,1.30917-.69494,2.02617-.96194a15.74809,15.74809,0,0,1,1.83713-.39151c.98656-.241,1.93958-.41478,2.9532-.56211.55757-.081,1.13222-.045,1.6889-.11726a13.167,13.167,0,0,0,2.58147-.79119c1.49367-.51088,2.861-1.05561,4.30166-1.68844a4.5945,4.5945,0,0,0,2.01-1.3811c1.01164-1.422-1.38881-1.14568-2.13738-.9571a37.30971,37.30971,0,0,1-6.25227,1.50667c-.94212.069-1.83638.21668-2.78668.272-1.18587.0689-2.28514.30387-3.49234.29148-1.12407-.01164-2.17364.24373-3.28245.29042-1.5588.06573-3.119.19357-4.67746.33349-1.74541.15685-3.46453.51391-5.20178.72122-1.29981.155-2.58979.18541-3.89277.36885-1.91284.26912-3.74559.77593-5.63984,1.15157-1.04942.20807-2.0984.516-3.14117.71307a9.46058,9.46058,0,0,1-3.36994-.18934c-1.89078-.32336-3.77778-.45634-5.65329-.92793a16.53177,16.53177,0,0,1-6.94056-3.85469,12.773,12.773,0,0,0-6.67566-3.2953,12.26168,12.26168,0,0,0-5.85834.72017,12.08682,12.08682,0,0,1-4.484.62633c-1.81991-.10049-.85586-1.65082-.825-2.86435.08008-3.14978.02978-6.28657.32759-9.42577.10034-1.05683,1.09582-10.53625,2.68332-9.76048a18.55575,18.55575,0,0,1,.32,2.28788c.06256.63706.57632.9778.63525,1.57149.45966-.03354.8956-1.86992.99306-2.27579.35087-1.46118.74359-2.916,1.0393-4.39957a19.58786,19.58786,0,0,0,.39831-5.65133,4.3067,4.3067,0,0,0-.5275-2.04989c-.34362-.47582-.56952-.38244-1.12634-.39211-.97085-.01693-1.39243-1.08207-1.4021-1.94835a10.7821,10.7821,0,0,1,.90468-4.20223c.51238-1.26645,1.16863-2.47176,1.5822-3.78128C34.29225,72.36709,34.78893,71.08212,35.01952,71.29045Z"/><path class="g" d="M146.02485,148.27518a69.69372,69.69372,0,0,1-21.86232,15.33171,20.12735,20.12735,0,0,0-3.95077-.98777c-.81085-.02947-2.462-.05893-3.09586-.75175-.63388-.67816,1.07617-.82563,1.62166-.92884.61923-.1032,1.84272,0,2.04913-.81083.47175-1.769-5.67565-2.34394-6.70755-2.60928a26.245,26.245,0,0,0-5.58725-.45694,12.30406,12.30406,0,0,1-3.28744-.575c-1.032-.33907-2.04914-.53068-3.081-.84029a35.851,35.851,0,0,0-6.236-1.34151c-.33906-.02962-2.683-.19175-2.75674-.54549a22.048,22.048,0,0,1,3.49383-.88457c.47175-.07374.64869.10321,1.01724.1916.48655.118.973.13283,1.47419.26534,4.86481,1.26793,9.8623,1.29739,14.85995,1.209.66335-.01481,1.2235-.2655,1.87219-.29481.516-.04427,1.0467,0,1.56273,0a17.66114,17.66114,0,0,0,4.89429-.6635c1.4151-.3832,2.94836-.58961,4.334-1.00243.42763-.13267,1.87234-.28,1.93127-.796a8.3747,8.3747,0,0,0-2.50607-.04428,26.29951,26.29951,0,0,1-3.72973-.14748c-1.4595-.1916-2.91889-.16213-4.37841-.35373a5.2295,5.2295,0,0,1-2.71249-.678c.41282-.5603,1.57739-.6635,2.19646-.78152,1.32685-.23572,2.683-.36854,4.00987-.56014,3.36118-.45694,6.72236-.63389,10.0982-.796,1.82807-.0884,3.67079-.41282,5.49886-.33908,1.41512.05893,2.78607.32427,4.20132.30961,1.07617-.01481,2.16715-.05893,3.24332-.01481A8.82652,8.82652,0,0,0,146.02485,148.27518Z"/><g class="h"><path class="i" d="M61.83445,80.92709c-.204,1.096-.73406,2.43023-.14914,3.50413a2.52225,2.52225,0,0,0,1.32852,1.0464,8.32343,8.32343,0,0,0,4.92678,1.07692,12.53386,12.53386,0,0,0,3.96922-1.08191,3.83,3.83,0,0,0,1.55412-2.4547,2.04159,2.04159,0,0,0-.70264-2.47782,5.81608,5.81608,0,0,0-.71577-.42717,6.39277,6.39277,0,0,0-1.25917-.20127,21.03925,21.03925,0,0,0-2.81-.10185c-.64371,0-1.293-.02493-1.93626-.005a7.838,7.838,0,0,0-1.69464.32246C63.42816,80.36166,62.35456,80.31406,61.83445,80.92709Z"/><path class="i" d="M74.12458,84.69792a7.7395,7.7395,0,0,1,1.48007-1.20416c.328.25628.85223.30614,1.02162.72878a.83414.83414,0,0,1-.12073,1.03341,1.17893,1.17893,0,0,1-1.12029.388c-.43337-.09943-1.04762-.29345-1.121-.80645Z"/><path class="i" d="M69.51572,87.49109a10.17627,10.17627,0,0,1,2.03765-.87505c.358-.09353.66426-.29737,1.0257-.37141a4.88894,4.88894,0,0,1,1.06832-.1499c.4725.00484.69689-.07555,1.039.27577a6.076,6.076,0,0,1,.664.84573A1.24388,1.24388,0,0,1,75.632,88.295a3.2148,3.2148,0,0,1-.83078,1.43036,6.12267,6.12267,0,0,1-2.23454,1.36539,7.06854,7.06854,0,0,1-2.903.72409A13.83168,13.83168,0,0,1,68.26155,91.4c-.71669-.18284-1.45589-.18178-2.1815-.30931-.75824-.13328-1.72093-.57239-1.42688-1.50153a3.62815,3.62815,0,0,1,2.593-1.85255c.4243-.08658.83984-.13464,1.26414-.21442A5.68025,5.68025,0,0,1,69.51572,87.49109Z"/><path class="i" d="M77.8954,85.95481a3.3074,3.3074,0,0,0-.76746,1.602c.18012-.02674.272.08553.44653.08734a1.08279,1.08279,0,0,0,.35523-.11574c.324-.11394.5609-.15942.65308-.52479a.94981.94981,0,0,0-.06452-.689,1.85006,1.85006,0,0,0-.76263-.35978Z"/><path class="i" d="M85.57667,100.89849a65.8622,65.8622,0,0,0-7.22433-.71156,12.14542,12.14542,0,0,0-7.45945,2.77595c-.86114.73256-1.83441,1.4559-1.82109,2.69133a2.48385,2.48385,0,0,0,1.22468,1.989,11.06138,11.06138,0,0,0,3.751,1.529,23.156,23.156,0,0,0,3.92286.81052,15.8396,15.8396,0,0,0,3.69585.04186,23.32273,23.32273,0,0,0,3.76118-.94939,4.6917,4.6917,0,0,0,2.65157-1.58207,3.48652,3.48652,0,0,0,.57661-1.85028c.02161-1.35405.11182-2.65265-.90255-3.69134A2.81049,2.81049,0,0,0,85.57667,100.89849Z"/><path class="i" d="M91.72181,101.03811a5.2141,5.2141,0,0,0,.86976,1.65127c.30447-.28634,1.08327-.11877,1.47659-.11544a5.77105,5.77105,0,0,0,1.04323-.1431c.58176-.09444,1.3539-.16319,1.361-.90391.00891-.91781-1.032-1.05365-1.74663-1.04882-.97266.00665-1.99866-.199-2.72472.56Z"/><path class="i" d="M70.49337,110.81445c.93157.13206,1.84152.23149,2.76991.30659a14.39377,14.39377,0,0,1,2.73651.38894c.56951.15912.96586.24736,1.27517.77109.164.27743.27653.45407.13434.76429a1.95177,1.95177,0,0,1-1.19343.84135,14.28039,14.28039,0,0,1-2.151.76943,19.37275,19.37275,0,0,1-4.69483.7803,2.56157,2.56157,0,0,1-2.09522-1.089,2.27512,2.27512,0,0,1-.14159-2.14357,2.36059,2.36059,0,0,1,2.17276-1.392,2.9669,2.9669,0,0,1,.98443.14249C70.50712,111.02645,70.90226,111.04957,70.49337,110.81445Z"/><path class="i" d="M31.10908,107.60226a26.766,26.766,0,0,0-.28937,4.18681,1.79327,1.79327,0,0,0,.71971,1.482,3.20821,3.20821,0,0,0,2.14146.11046,11.21983,11.21983,0,0,0,2.43763-1.31023,5.19847,5.19847,0,0,0,1.26809-1.34287,6.3128,6.3128,0,0,0,1.14112-2.85211,13.18952,13.18952,0,0,0,.10517-3.53132,10.64737,10.64737,0,0,0-1.01406-3.22156,2.065,2.065,0,0,0-2.251-1.4772,7.4477,7.4477,0,0,0-2.46257,1.00394,3.46993,3.46993,0,0,0-1.20928,1.324,7.00465,7.00465,0,0,0-.55532,1.581,11.881,11.881,0,0,0-.2794,1.39349A4.56067,4.56067,0,0,0,31.10908,107.60226Z"/><path class="i" d="M35.01952,96.70865c-.13781-.64613-.52554-1.57633-.23059-2.18589.055-.11363.16365-.27365.23165-.38955a.89137.89137,0,0,1,.58553-.47552c.67138-.10683,1.26853.5816,1.387,1.147a2.566,2.566,0,0,1-.1514,1.84409c-.22258.33439-1.08524.72863-1.40317.33923Z"/><path class="i" d="M36.5558,91.1223c-.13841-1.80586-.78937-3.97542.41267-5.58242.40406-.54021,1.06334-1.38745,1.84983-1.28409.46948.06165.93065.60336,1.23407.93715a5.01923,5.01923,0,0,1,.97888,1.84484,5.91078,5.91078,0,0,1,.42942,1.78017,6.26385,6.26385,0,0,1-.36628,2.08736,3.24108,3.24108,0,0,1-1.91963,1.93021,2.11783,2.11783,0,0,1-1.78773-.34829A1.85265,1.85265,0,0,1,36.5558,91.1223Z"/><path class="i" d="M35.29891,82.32361a4.38689,4.38689,0,0,0,.73014,1.65067c.17619-.14824.42642-.12965.6354-.21306a1.4319,1.4319,0,0,0,.65264-.53144,1.3106,1.3106,0,0,0,.188-1.049c-.11107-.34014-.6759-.73739-.9565-.94607-.59581-.44334-.9506.08734-1.38924.53023Z"/><path class="i" d="M99.40309,109.97642a12.74534,12.74534,0,0,1,2.34861-1.04625c.49185-.11575.965-.32019,1.44955-.46238a18.67894,18.67894,0,0,1,3.71189-.55516c.693-.05742,1.36116-.04458,2.0505-.1641.50726-.088.99593-.18027,1.50515-.24812,1.50984-.20172,2.97964-.64189,4.4913-.848.717-.09776,1.46753-.26443,2.18936-.31067.46268-.02962.91282-.13887,1.37671-.13615.867.00514,1.73378-.13735,2.60445-.14627,3.31721-.034,6.28914,1.235,9.41293,2.136.7108.205,1.43278.36855,2.1602.50273a7.68435,7.68435,0,0,0,3.04129.27592c1.03295-.26156.69251-1.29512.01465-1.77564a4.59136,4.59136,0,0,0-2.68271-.71321,9.95443,9.95443,0,0,0-1.62695.01194c-.80373.14219-2.125.41916-2.29952,1.39515a4.39823,4.39823,0,0,0,.05214,1.01648,3.25108,3.25108,0,0,1-.01648.6706,3.441,3.441,0,0,1-1.6011,1.9071c-.35208.21638-.707.33424-1.04686.58175a9.25027,9.25027,0,0,1-1.26369.70476c-.66258.34361-1.342.626-1.99942.98112a12.96814,12.96814,0,0,1-1.37944.54458,31.64369,31.64369,0,0,1-3.89443,1.43822c-1.05456.27441-2.05818.72893-3.12333.97493a16.444,16.444,0,0,0-1.77713.66985,6.05327,6.05327,0,0,1-.85979.24509c-.47917.094-.87779.30614-1.347.419-1.69494.40737-3.29212,1.14446-5.0392,1.14824-.74177.00166-1.18268-.02523-1.59415-.691a11.37914,11.37914,0,0,1-.98158-1.99731,3.404,3.404,0,0,0-1.38639-1.916c-.81581-.45331-1.71383-.55863-2.49278-1.09113a2.36176,2.36176,0,0,1-.974-2.09764,1.34866,1.34866,0,0,1,.17075-.87308A2.24437,2.24437,0,0,1,99.40309,109.97642Z"/><path class="i" d="M135.71481,105.92635a8.25309,8.25309,0,0,0,1.72745-.47009q.13825-.04894.27408-.10411a5.09156,5.09156,0,0,1,.76384.01542c.29331-.00076.80871-.08553,1.05622.13478.42551.37852.0547.79844-.32336,1.09068a2.30094,2.30094,0,0,1-.77487.29888c-.11756.02373-.23406-.01481-.34905.00423-.14973.02494-.266.15549-.41584.16184a3.16718,3.16718,0,0,1-.52706-.15458,1.67431,1.67431,0,0,1-.53038-.16743c-.29629-.206-.24146-.62769-.482-.80962Z"/><path class="i" d="M81.2569,139.69725c-1.86269.269-3.63137.21261-5.17718,1.30585a8.21437,8.21437,0,0,0-1.6138,1.492c-1.06075,1.335,1.36372,1.52541,2.2625,1.63889a18.86921,18.86921,0,0,1,5.25832,1.40739,6.44031,6.44031,0,0,0,4.66821.52781c1.0455-.35132,1.91707-.56952,2.37328-1.65611a2.2679,2.2679,0,0,0-.848-2.659,14.46006,14.46006,0,0,0-3.26175-2.12106,5.667,5.667,0,0,0-3.92692-.20112Z"/><path class="i" d="M78.33829,137.22094a4.9865,4.9865,0,0,0-1.01616.733.27463.27463,0,0,0,.08462.37323,2.65555,2.65555,0,0,0,1.50483.39363c.35162.01844.67922-.0754,1.02706-.08734a3.1212,3.1212,0,0,0,.61273-.0624,2.74063,2.74063,0,0,0,1.04792-.466c.24448-.173.21864-.49653.1922-.77366a.84608.84608,0,0,0-.52887-.75522,3.54406,3.54406,0,0,0-3.01271.55637Z"/><path class="i" d="M69.58281,144.64987a7.05414,7.05414,0,0,1,1.50289-.07676c.26142.05183.5192.15.78137.20867.74026.16592,1.49246.27063,2.23152.443a1.75065,1.75065,0,0,1,1.17.66638c.22619.2812.37941.43775.31791.82609-.24026,1.51754-1.98885,1.88956-3.26266,2.04218a11.82287,11.82287,0,0,1-3.02225-.0816c-1.09083-.1514-2.20432-.259-3.28291-.48822-.7803-.16576-1.56046-.32064-2.32883-.53325a1.96914,1.96914,0,0,1-1.30721-.72968,1.43938,1.43938,0,0,1,.61-2.09281,7.14221,7.14221,0,0,1,3.94294-.52025c.4831.04019.94818.14128,1.43262.15473C68.77622,144.47972,69.17544,144.67949,69.58281,144.64987Z"/></g><path class="g" d="M101.63762,66.40234a5.11482,5.11482,0,0,1-2.36223.70891c-.43427-.04278-.86432-.10127-1.29406-.18184-.65323-.12246-1.3122-.24908-1.96119-.39015a9.56986,9.56986,0,0,0-2.04944-.13967c-1.23014-.00621-2.44622.14147-3.6794.1424a21.55586,21.55586,0,0,1-3.23244-.20811c-.99291-.14652-1.939-.44046-2.91315-.66464-.39256-.09036-.769-.24332-1.1647-.3212-.47978-.09443-.96906-.06082-1.4529-.13282a17.5691,17.5691,0,0,1-2.79393-.43139,1.4885,1.4885,0,0,1-.8205-.50748c-.07645-.11775-.22862-.50175-.14007-.63841.2052-.31693.98732-.175,1.24329-.08922A12.08242,12.08242,0,0,1,81.39016,64.59c1.335.7929,3.09478.279,4.5744.52435.62376.10343,1.26626-.0553,1.88775.02435a5.77011,5.77011,0,0,1,1.14116.50052,3.70925,3.70925,0,0,0,1.45845.05405,11.23151,11.23151,0,0,0,3.30708-.96161,9.75793,9.75793,0,0,1,3.77959-1.12886,10.94974,10.94974,0,0,1,3.2678.31352,1.823,1.823,0,0,1,1.36115,1.23233C102.33058,65.73509,101.85218,65.94118,101.63762,66.40234Z"/><path class="g" d="M97.27325,44.75725a8.17543,8.17543,0,0,1,1.47418.13267,11.09851,11.09851,0,0,0-1.194.17694,3.70323,3.70323,0,0,1-.81083.10321c-.23587,0-1.44471.11786-.98777-.28015C96.06441,44.63924,96.91951,44.75725,97.27325,44.75725Z"/><path class="g" d="M130.69313,39.58281c-.01465.02947-.02931.04428-.04412.07374a17.48318,17.48318,0,0,1-2.22608,3.03676,10.67977,10.67977,0,0,1-2.75676,2.03448,17.00909,17.00909,0,0,1-3.95079,1.57738,22.102,22.102,0,0,1-4.27521.69291,26.47477,26.47477,0,0,1-3.22851-.25063c-1.34136-.13267-2.69767-.295-4.02453-.4864-1.0467-.14748-2.09325-.28015-3.14-.41282-1.032-.14748-2.06377-.42763-3.11049-.516-.7519-.07374-1.51846-.13267-2.27035-.14748-.457-.01466-.86976-.14733-1.32671-.14733-.30961-.01481-.60457.01466-.914-.02962-.22122-.04412-.44228-.07359-.67816-.11786.30963-.02946.61908-.05893.92869-.1032.8403-.11787,1.6954-.05893,2.53569-.14748.81083-.07359,1.60685-.04412,2.41768-.14733a35.818,35.818,0,0,1,4.172-.29481c1.28243,0,2.59447.0884,3.877,0a1.34851,1.34851,0,0,0,1.032-.42747c.1916-.33923.28-.693-.05908-.9435-.3832-.28015-2.0786-.72243-1.82792-1.43006.07359-.20626.516-.23587.73709-.28015.78136-.11786,1.592-.16213,2.38808-.2948.48656-.0884.914-.28,1.40058-.398.398-.11786.81082-.16214,1.20884-.28015a9.17712,9.17712,0,0,1,1.78379-.28c1.29724-.07374,2.71248.47175,3.98025.01466a2.95023,2.95023,0,0,0,1.489-1.09083c.1768-.22122.398-.398.575-.61923a10.50517,10.50517,0,0,1,.67816-.914c1.371.64869,2.71248,1.34166,4.02453,2.09341-.16214.07374-.25069.20641.41281.22106A.77411.77411,0,0,0,130.69313,39.58281Z"/><path class="g" d="M129.98868,43.2187a20.33552,20.33552,0,0,1-3.16383,2.76159,21.84407,21.84407,0,0,1-3.37629,1.60889,11.88472,11.88472,0,0,1-2.68376.797,8.13068,8.13068,0,0,0-1.32234.353,2.05649,2.05649,0,0,0-.64929.23671c-.29013.284-.1094.57116.189.67a5.72133,5.72133,0,0,0,2.46089-.0378,37.14322,37.14322,0,0,0,4.84443-.72946,9.8673,9.8673,0,0,0,2.89033-1.18352c1.06061-.67139,2.40469-1.41268,2.9712-2.59734.37-.77366.57826-1.56545-.2055-2.1268a1.76894,1.76894,0,0,0-1.11336-.45649C130.59492,42.51062,129.64054,42.5419,129.98868,43.2187Z"/><path class="j" d="M152.06905,58.89475a17.06866,17.06866,0,0,1-4.36361-1.17934c-.398-.1769-2.53568-1.51838-.98762-1.56264-.02945-.3538-.86992-1.07614-1.091-1.35624a13.19439,13.19439,0,0,0-1.00243-1.20884,3.596,3.596,0,0,0-1.50363-.78138c-.73711-.32427-1.34153-.914-2.09343-1.23828-1.66593-.72232-3.15477-1.54787-5.027-1.20883-1.26777.23582-2.53569,1.29729-3.6413,1.94594a19.2434,19.2434,0,0,1-4.87966,1.72479,83.14487,83.14487,0,0,1-8.93362,1.97545c-1.769.28011-3.56744.3538-5.33658.67807a13.92983,13.92983,0,0,1-2.19646.36855c-1.032.059-2.04913-.08845-3.06637.059a38.64409,38.64409,0,0,1-5.98527.20641c-.56014,0-3.03675.38322-3.24316-.48651a8.57464,8.57464,0,0,1,3.05156-.58972c1.45954-.1769,2.88943-.25059,4.36361-.339,4.02453-.23592,8.01959-1.53313,11.97053-2.344,1.887-.398,3.75919-.914,5.63138-1.40041a21.55492,21.55492,0,0,0,2.69783-.75185c.92869-.36855,1.78364-.86981,2.72714-1.20886a10.09308,10.09308,0,0,0,3.50866-1.94594c.32442-.26534.64869-.42748.82549-.8403.516-1.16456-1.2235-1.79845-2.03433-2.24073a17.744,17.744,0,0,0-2.285-1.19418c-1.2383-.41267-2.49142-.73709-3.71506-1.23831a40.59516,40.59516,0,0,0-4.56987-1.34151c-1.16457-.35373-2.31448-.72228-3.479-1.06136-.82562-.22122-1.68074-.44228-2.521-.61923-.35375-.05893-1.0171-.02946-1.076-.4864.26534-.10321.51588-.01481.796-.118-.13283-.54549-3.39065-.796-3.95093-.78121-1.19405.02931-2.32915-.295-3.52333-.28015-1.253,0-2.44715.25053-3.68545.29481-2.31447.08839-4.64361-.01466-6.95823-.01466-.91389,0-1.85738.05893-2.77142,0a12.33035,12.33035,0,0,1-1.41525-.33923c.05893-.58961,2.22608-.97281,2.75676-1.12029-.35389-.86976-3.36118-.78137-4.08346-.78137a40.37307,40.37307,0,0,0-4.21628.22122c-1.3267.14733-2.66836,0-3.99506.0884a10.08732,10.08732,0,0,1-3.03676.20641c-.10321-.02947-1.06151-.22107-1.10564-.26534-.38335-.47175.58962-1.17938.81068-1.38579,1.23831-1.16456,3.27278-1.62166,4.747-2.21127a6.1778,6.1778,0,0,1-.36854-1.312,69.83654,69.83654,0,0,1,42.25046,5.823c1.371.64869,2.71248,1.34166,4.02453,2.09341.13267.07374.28.14748.41281.22106.04415.02962.10308.05909.14733.08855a69.7985,69.7985,0,0,1,21.42,19.2382Z"/><path class="k" d="M165.499,99.98052c0,1.62166-.05893,3.24332-.17679,4.83536a69.14255,69.14255,0,0,1-3.376,17.1891v.01481a1.01477,1.01477,0,0,1-.07374.1916,10.35618,10.35618,0,0,0,.22122-2.03433,6.5782,6.5782,0,0,1,.30946-1.12044,8.13408,8.13408,0,0,0-.01465-1.34151v-5.92619c0-1.16456.2948-2.24073.28-3.376,0-.60427-.01465-1.194,0-1.79846a17.44151,17.44151,0,0,1,.295-1.75432c.17679-1.72487-.50119-3.37584-.575-5.07124-.04428-.796.02946-1.592,0-2.38821a3.11767,3.11767,0,0,0-.22107-.973,6.61639,6.61639,0,0,1-.04427-1.3267,9.12987,9.12987,0,0,0-.30962-1.25311,8.10149,8.10149,0,0,1,.01481-1.194,7.59657,7.59657,0,0,0-.22122-2.09341c-.08839-.36855-.02946-.73709-.11786-1.12044-.07374-.30962-.25068-.64855-.35389-.973-.22106-.72228-.54549-1.371-.76655-2.09326a13.97811,13.97811,0,0,1-1.04671-4.18666,13.86345,13.86345,0,0,0-1.0467-4.18682,14.93,14.93,0,0,0-2.24074-3.70024c-.47175-.70758-.17694-1.26779-.36854-2.00488a2.71487,2.71487,0,0,0-.86976-1.20885,4.78,4.78,0,0,0-2.04913-.64865c-.73709-.07369-1.29724.48651-2.0638.23592.10306-.42758,1.34151-.9435,1.79845-1.032.58977-.11795,1.62151.02942,1.769-.855.08855-.61914-.63388-1.09089-1.00243-1.4742a9.47373,9.47373,0,0,1-.56015-.78127c-.26534-.33913-.61922-.33913-.92869-.60448-.32442-.28009-.48655-.575-.82563-.8403a9.4067,9.4067,0,0,1-.61906-.72234,13.67539,13.67539,0,0,0-1.607-1.45944,9.811,9.811,0,0,0-3.936-1.60691,4.088,4.088,0,0,1-1.72487-.54544,4.17727,4.17727,0,0,1-.973-1.1941c-.44229-.69282-.44229-.82555.14732-1.4005a1.68047,1.68047,0,0,0,.54549-1.66584,6.85627,6.85627,0,0,0-1.66578-3.28743,6.7002,6.7002,0,0,0-3.06637-1.4005c-.56015-.13264-1.1351,0-1.69525-.13264a5.65363,5.65363,0,0,0-1.10578-.22116c-.855-.02942-1.53311-.2801-2.388-.26534h-2.80105a7.8066,7.8066,0,0,1-2.2702-.05894c.11786-.50126,1.2235-.78137,1.66578-.98778a14.55158,14.55158,0,0,0,2.52089-1.41517,6.86253,6.86253,0,0,0,1.592-1.4742,8.35115,8.35115,0,0,1,1.07632-1.09081,11.22661,11.22661,0,0,0-2.683-1.75433c-1.07617-.516-2.24089-.914-3.36133-1.32685a31.16975,31.16975,0,0,0-3.1253-.76655,6.79528,6.79528,0,0,1-3.28729-2.01967,8.59665,8.59665,0,0,0-2.66837-1.93128,11.26909,11.26909,0,0,0-2.84515-.64854,8.9137,8.9137,0,0,0-1.40059-.22106,13.5949,13.5949,0,0,1-1.54777.01465,11.43769,11.43769,0,0,0-1.887-.2948,6.39379,6.39379,0,0,1-1.68059-.05909c-.54549-.13251-1.10563-.14732-1.66578-.28-1.607-.3832-2.47676-1.9754-3.55293-3.081a3.21179,3.21179,0,0,0-2.01967-.82564,15.05564,15.05564,0,0,0-3.361-.50122c-1.2974.01481-2.60945,0-3.90668,0a9.57152,9.57152,0,0,0-2.16715.22122c-.66335.13252-1.29724-.02961-1.94593.04412-1.16457.13268-2.25554.53084-3.43477.575a6.22132,6.22132,0,0,1-1.40059-.29481c-.38318-.05893-1.06136.1916-1.41523.02947-.73711-.32427.85508-1.63632-.86978-1.42991-1.90165.23588-3.70026.81083-5.60191,1.20869a45.73469,45.73469,0,0,0-5.71978,1.59219,28.69044,28.69044,0,0,0-3.42026,1.4006,37.63384,37.63384,0,0,1-5.45444,2.19646,68.47918,68.47918,0,0,1,19.60678-6.57488,69.83654,69.83654,0,0,1,42.25046,5.823c1.371.64869,2.71248,1.34166,4.02453,2.09341.13267.07374.28.14748.41281.22106.04415.02962.10308.05909.14733.08855a69.7985,69.7985,0,0,1,21.42,19.2382,68.85451,68.85451,0,0,1,4.87963,7.66583,67.30382,67.30382,0,0,1,4.76162,10.73214c.07374.22106.1475.44228.23587.6635.07374.22107.14748.45694.22122.678a69.99591,69.99591,0,0,1,2.90409,13.56257c.13267,1.26777.25068,2.55035.30961,3.84774C165.45468,97.34178,165.499,98.65382,165.499,99.98052Z"/><path class="l" d="M165.38109,96.04454c-.05893-1.29739-.17694-2.58-.30961-3.84774a69.99591,69.99591,0,0,0-2.90409-13.56257c-.07374-.22107-.14748-.45694-.22122-.678-.08837-.22122-.16213-.44244-.23587-.6635a67.30382,67.30382,0,0,0-4.76162-10.73214,68.85451,68.85451,0,0,0-4.87963-7.66583,69.7985,69.7985,0,0,0-21.42-19.2382c-.04425-.02946-.10318-.05893-.14733-.08855-.13282-.07358-.28014-.14732-.41281-.22106-1.312-.75175-2.65356-1.44472-4.02453-2.09341a69.56314,69.56314,0,0,0-82.65819,17.027c0,.01477-.01464.01477-.01464.02952-.45273.51674-.87537,1.05652-1.31086,1.58631A69.73836,69.73836,0,0,1,62.40926,40.13767,68.47932,68.47932,0,0,1,82.016,33.56279a69.83579,69.83579,0,0,1,42.25046,5.82313c1.37113.64855,2.71248,1.34151,4.02453,2.09341.13282.07359.28015.14733.41284.22107.04425.02946.10318.05893.14746.08839a69.79764,69.79764,0,0,1,21.42,19.23825,68.85543,68.85543,0,0,1,4.87963,7.66583,67.31614,67.31614,0,0,1,4.76162,10.73224c.07359.22107.14733.44213.23588.66335.07359.22107.14732.45694.22106.678a69.98313,69.98313,0,0,1,2.90411,13.56273c.1328,1.26777.25066,2.5502.30959,3.84758.07374,1.29724.118,2.60928.118,3.93614,0,1.62165-.05911,3.24316-.177,4.83535a69.1382,69.1382,0,0,1-3.37583,17.1891v.01466a1.027,1.027,0,0,1-.07372.19175A69.96754,69.96754,0,0,1,149.608,144.11269c-.48943.64975-1.01361,1.26838-1.52556,1.89788,1.15218-1.304,2.27292-2.63588,3.32326-4.03012a69.95243,69.95243,0,0,0,10.46673-19.76906,1.01477,1.01477,0,0,0,.07374-.1916V122.005a69.14255,69.14255,0,0,0,3.376-17.1891c.11786-1.592.17679-3.2137.17679-4.83536C165.499,98.65382,165.45468,97.34178,165.38109,96.04454Z"/><path class="m" d="M119.93325,83.67373a16.65141,16.65141,0,0,0,2.73274.16229c-.06332-.30448.45135-.324.41856-.68451a1.9326,1.9326,0,0,0-1.28921-.41312c-.33487.02055-1.2279.1783-1.30345.56287Z"/><path class="m" d="M100.63443,51.64679a16.65891,16.65891,0,0,0,2.73273.16238c-.06316-.30451.4515-.324.41871-.68455a1.9331,1.9331,0,0,0-1.28922-.4132c-.33485.02057-1.22788.17843-1.30343.56294Z"/><path class="m" d="M89.89255,148.879a16.64988,16.64988,0,0,0,2.73271.16229c-.06316-.30448.45135-.324.41871-.6845a1.93321,1.93321,0,0,0-1.28937-.41313c-.33485.02056-1.22788.17831-1.30344.56287Z"/><path class="m" d="M42.00238,96.11737a16.667,16.667,0,0,0,2.73274.16244c-.06332-.30448.45135-.32412.41871-.6845a1.93333,1.93333,0,0,0-1.28936-.41328c-.33487.02055-1.2279.17846-1.30345.563Z"/><path class="n" d="M137.25109,124.08222a7.28121,7.28121,0,0,1,1.583-1.81039c.12511.44591.66321.50484.89257.86538a2.14888,2.14888,0,0,1,0,1.644c-.61137,1.59839-2.40073,2.361-3.94429,2.67531-.52161.10623-1.06076.35072-1.51437-.06029a.92181.92181,0,0,1-.19584-1.27,5.18,5.18,0,0,1,1.32113-.97719c.26865-.1564.86763-.40889.92671-.69448Z"/><path class="m" d="M144.141,123.52358c-.63419.5872-1.25445,1.1555-1.8669,1.75554.22575.39076,1.03252-.30251,1.30389-.4107.23768-.09475.51254-.06981.7114-.26534.16349-.16063.42037-.68542.03777-.70718Z"/><path class="m" d="M132.19149,99.05108c-.63419.58719-1.25447,1.1555-1.8669,1.75553.22577.39076,1.0325-.30251,1.304-.4107.23753-.09459.51239-.06981.7114-.26534.16334-.16062.42022-.68526.03777-.70717Z"/><path class="m" d="M74.943,36.31668c-.63419.58719-1.25447,1.1555-1.86688,1.75554.22573.39075,1.03263-.30252,1.304-.41071.23752-.09459.51238-.06981.71139-.26534.16334-.16062.42039-.68526.03777-.70717Z"/><path class="n" d="M46.19237,104.90216a5.02391,5.02391,0,0,0,.11106,2.39955q-.06255.39415.2667.42188c.1907.18133.55532.36492.79059.54428.27455.20928.89136.59778,1.25674.52056a2.2351,2.2351,0,0,0,.89439-.80947,2.18176,2.18176,0,0,0,.134-1.40089c-.22319-.75311-.53824-1.82731-1.31235-2.14811a3.92853,3.92853,0,0,0-.93035-.27939c-.48263-.06181-.56257.01647-.83833.37912Z"/><path class="n" d="M74.96532,62.46368a1.09482,1.09482,0,0,0-.33515.40231q-.068.05421-.01919.1071c.00408.05721.03566.14036.04717.20384.01328.07406.05543.22729.12555.2686a.48694.48694,0,0,0,.26292.00135.47508.47508,0,0,0,.22756-.20562c.075-.154.18224-.37309.105-.53856a.86013.86013,0,0,0-.10864-.18179c-.06844-.081-.09293-.0801-.19055-.06235Z"/><path class="n" d="M75.03861,65.55779a5.02621,5.02621,0,0,0,.11091,2.39966q-.06233.39411.26685.42186c.19072.18128.55531.36483.7906.54426.27454.20934.89135.59783,1.25672.52056a2.234,2.234,0,0,0,.89424-.80953,2.18066,2.18066,0,0,0,.134-1.40089c-.22318-.75314-.53808-1.82732-1.31219-2.1481a3.92817,3.92817,0,0,0-.93049-.27931c-.48265-.0619-.56243.01644-.8382.37906Z"/><path class="m" d="M51.59256,56.30022c.81236.11581,2.01544.53234,2.83488.19024a8.72778,8.72778,0,0,0,1.07874-.77274A5.29286,5.29286,0,0,0,56.958,54.625a.89538.89538,0,0,0-.37112-1.443c-1.25553-.51469-4.65945-.09136-4.62185,1.81476Z"/><path class="n" d="M120.29379,77.8852c.81234.1159,2.01544.53234,2.83473.19024a8.72,8.72,0,0,0,1.07889-.77275A5.29366,5.29366,0,0,0,125.65922,76.21a.89543.89543,0,0,0-.37111-1.443c-1.25568-.5147-4.65962-.09136-4.62185,1.81474Z"/><path class="o" d="M47.44941,100.9683c.09505.1984.578,1.597,1.10307,1.04156a1.27278,1.27278,0,0,0,.07314-1.37823c-.12676-.20248-.45816-.67785-.757-.56-.15609.0615-.17407.19734-.21064.332a.98926.98926,0,0,0,.07072.77426Z"/><path class="o" d="M49.33475,103.83143a1.8342,1.8342,0,0,1,.215-.82548c.091.08341.22424.05.328.11846a1.168,1.168,0,0,1,.22651.29.77407.77407,0,0,1,.2052.66275.5383.5383,0,0,1-.41539.28121c-.16893.03445-.49336-.097-.48958-.31748Z"/><path class="m" d="M52.61675,143.914a11.16384,11.16384,0,0,0,1.65656,2.17863c.48928.42219.868.9367,1.34227,1.37188a8.48359,8.48359,0,0,0,2.314,1.657c.45.18722.48293-.03234.3146-.452-.29571-.73694-.8885-.93292-1.52208-1.376a10.03348,10.03348,0,0,1-2.29693-1.84333C53.98229,144.87683,53.59923,143.89555,52.61675,143.914Z"/><path class="m" d="M53.03576,142.657a7.74779,7.74779,0,0,1-.57631-1.84968.67405.67405,0,0,1,.1851-.21638.37689.37689,0,0,1,.53764.24373,7.079,7.079,0,0,1-.0068,1.6827Z"/><path class="m" d="M140.59746,120.08594a3.67458,3.67458,0,0,1,.74011-.60049c.06845.06664.15549.02116.23754.05244a.6478.6478,0,0,1,.28317.33862c.1227.28015-.06118.51739-.2871.68406-.29284.21623-1.19781.22892-1.11349-.335Z"/><path class="m" d="M53.45463,84.94044a3.6728,3.6728,0,0,1,.74-.60049c.0686.06664.15549.02116.23754.05243a.64653.64653,0,0,1,.28318.33863c.12268.28015-.06106.51723-.287.684-.29284.21608-1.19781.22878-1.11349-.335Z"/><path class="o" d="M54.32244,106.4528A7.34929,7.34929,0,0,1,55.8025,105.252c.137.13312.311.04216.47507.10472a1.29406,1.29406,0,0,1,.56649.6774c.24525.5603-.12239,1.03446-.5742,1.36795-.58568.43231-2.39546.45785-2.22683-.66985Z"/><path class="p" d="M71.04581,63.42955a7.35151,7.35151,0,0,1,1.48024-1.20087c.137.13313.311.04224.47506.1047a1.29411,1.29411,0,0,1,.56634.67743c.2454.56026-.12224,1.03455-.574,1.368-.58568.43233-2.39561.45773-2.22683-.67Z"/><path class="m" d="M125.24021,158.85766a13.69441,13.69441,0,0,1,1.48551-1.5257,9.644,9.644,0,0,1,1.02268-.55531.95055.95055,0,0,1,.816-.12572c.42823.21608.37338.80644.17347,1.159a3.58654,3.58654,0,0,1-1.678,1.2915c-.27156.10894-1.43265.34406-1.40062-.24374Z"/><path class="b" d="M149.01985,59.80619c-2.12284,1.2823-3.31817,1.12556-4.93579-.75507a63.00619,63.00619,0,0,0-39.50427-21.89631,61.54262,61.54262,0,0,0-38.65063,6.69342,6.48485,6.48485,0,0,0-.782.57014,49.65277,49.65277,0,0,0-13.284,9.52792c-17.05686,16.62719-23.08418,36.77587-18.4001,59.99177,2.74285,13.59446,9.764,24.91857,20.20731,34.05034a49.27283,49.27283,0,0,0,13.838,9.04,50.46513,50.46513,0,0,0,17.33351,5.7904,62.19941,62.19941,0,0,0,39.55858-6.0161,61.67519,61.67519,0,0,0,30.43291-33.90211c6.82161-18.00918,5.61212-35.69919-3.30023-52.80189-.97584-1.87263-1.2832-3.53428.36494-5.1422,2.70614-.66248,3.52144-.267,4.85907,2.20761,18.16195,33.59955,5.50311,74.0129-25.35129,92.67765-14.20184,8.59111-29.64757,11.38438-46.06678,9.07809-3.11206-.43713-6.1248-1.25133-9.17958-1.91178-20.54844-6.47873-35.99548-19.166-44.30544-39.08571-10.868-26.05169-7.283-50.58549,10.57339-72.664,7.9804-9.86735,18.38533-16.46908,30.18-20.9569a72.391,72.391,0,0,1,20.72259-3.75736c22.30084-.25674,40.77226,8.0738,55.4623,24.837A3.15275,3.15275,0,0,1,149.01985,59.80619Z"/><path class="q" d="M67.50846,157.02842a49.27283,49.27283,0,0,1-13.838-9.04c-10.44329-9.13177-17.46446-20.45588-20.20731-34.05034-4.68408-23.2159,1.34324-43.36458,18.4001-59.99177a49.65277,49.65277,0,0,1,13.284-9.52792c-1.58432,3.18962-3.20285,6.3628-4.74607,9.57221a93.79593,93.79593,0,0,0-7.82945,23.99066,6.38728,6.38728,0,0,1-.40827,1.09067q-1.45554.13426-2.9113.26914c-5.67311.53022-9.27991,3.74055-10.17408,9.05511-.85987,5.11061,1.59576,9.41359,6.67142,11.74355,1.64771.75639,3.26773,1.57311,4.90042,2.36224-.20749,4.44514.65079,8.79277,1.20454,13.16827-3.72542.68447-6.77542-.63094-9.40232-3.185-.85158-.828-1.82485-1.43751-2.96119-.7301a3.18782,3.18782,0,0,0-1.49587,3.35913,5.17329,5.17329,0,0,0,2.77273,3.59046c3.76366,2.32907,7.91844,2.823,12.22625,2.5871A97.51615,97.51615,0,0,0,59.64235,141.634a112.88609,112.88609,0,0,0,7.443,13.93722A2.23958,2.23958,0,0,1,67.50846,157.02842Z"/><path class="r" d="M81.1632,78.96191c2.5527.02923,3.70813.89941,4.3877,3.12091q5.26315,17.20506,10.52433,34.41075c.80212,2.62419-.07111,4.02856-2.72756,4.3519a2.20985,2.20985,0,0,1-2.71738-1.64167c-.60453-2.06459-1.2948-4.1072-1.81114-6.1932-.26268-1.06124-.66316-1.519-1.82676-1.49757-3.78689.0698-7.57623.05441-11.3638.00634a1.37369,1.37369,0,0,0-1.6149,1.2241c-.49439,1.95753-1.128,3.88-1.708,5.8158-.63169,2.10816-1.613,2.69511-3.577,2.14586-2.18047-.60979-2.81346-1.60862-2.16941-3.73109q5.13925-16.93642,10.33184-33.85664c.416-1.36252.60427-2.86282,2.06865-3.60694A4.27223,4.27223,0,0,1,81.1632,78.96191Zm.19338,8.2847c-1.93728,6.59866-3.71552,12.64013-5.4805,18.6855-.23959.82059.35658.81565.899.81587,3.00035.00126,6.00087-.01813,9.001.00989.9261.00866,1.157-.41092.92471-1.20866C84.97982,99.64031,83.25171,93.73351,81.35658,87.24661Z"/><path class="r" d="M128.26055,100.15366q.00006-8.91484.00394-17.82969c.00438-2.253.66006-2.97773,2.8746-2.9893q9.69723-.05069,19.39488-.00535c1.83277.00635,2.56928.83475,2.53954,2.67079-.02818,1.74128-.819,2.62008-2.65322,2.60243-4.70138-.04523-9.40457.04318-14.10467-.04629-1.56319-.02976-2.19935.3246-2.12626,2.0335.13661,3.19435.08852,6.39987.01431,9.59835-.02822,1.21609.37653,1.58948,1.56714,1.54672,2.21742-.07965,4.44112.02618,6.65964-.03641a2.21336,2.21336,0,0,1,2.55243,2.305c.12381,1.52887-.82657,2.42664-2.59661,2.45992-2.21953.04173-4.44323.07844-6.65961-.01448-1.24464-.05218-1.54758.40284-1.5223,1.57611.0703,3.264.09628,6.5328-.00848,9.795-.0466,1.451.518,1.716,1.81162,1.69777,4.63559-.06539,9.27269-.03531,13.90916-.02141,2.315.00694,3.16078.76426,3.15515,2.748-.0056,1.9747-.81643,2.66013-3.20629,2.66279q-9.01182.01-18.02362-.00164c-2.98411-.0058-3.57882-.60123-3.58044-3.5099Q128.25668,108.7746,128.26055,100.15366Z"/><path class="r" d="M52.994,121.29184c-4.30781.23588-8.46259-.258-12.22625-2.5871a5.17329,5.17329,0,0,1-2.77273-3.59046,3.18782,3.18782,0,0,1,1.49587-3.35913c1.13634-.70741,2.10961-.09786,2.96119.7301,2.6269,2.554,5.6769,3.86944,9.40233,3.18457,4.20367-.73259,6.30978-3.58506,5.33255-7.39347-.86175-3.35833-3.65247-4.64641-6.5371-5.7744-1.63269-.78913-3.25271-1.60585-4.90042-2.36224-5.07566-2.33-7.53129-6.63294-6.67142-11.74355.89417-5.31456,4.501-8.52489,10.17408-9.05511q1.45558-.136,2.9113-.26914c1.73.59971,3.584.11082,5.34273.65481a13.18626,13.18626,0,0,1,3.43352,1.30669,2.705,2.705,0,0,1,1.01505,3.8765c-.83781,1.5483-2.061,1.83883-3.5998,1.04848a11.13558,11.13558,0,0,0-6.913-1.48122,14.44223,14.44223,0,0,0-1.75894.04822A5.1051,5.1051,0,0,0,45.142,88.26314c-.4779,2.49271.275,4.20523,2.58832,5.6091a29.54278,29.54278,0,0,0,2.82056,1.344c2.00406.93695,4.03213,1.82616,6.00755,2.82,5.39016,2.71188,7.53658,7.25005,6.6276,13.88276-.64312,4.69276-3.923,7.83764-9.46714,9.08916A5.02267,5.02267,0,0,0,52.994,121.29184Z"/><path class="r" d="M101.13325,99.96069c0-5.87592-.0087-11.75186.00442-17.62776.00511-2.29184.78546-3.03594,3.05682-3.00553,2.13176.02854,2.92725.81231,2.92917,2.98075.00919,10.3808.0385,20.76187-.0323,31.14219-.01078,1.5811.32162,2.14081,2.01027,2.08382,3.91239-.132,7.83237-.05548,11.74912-.0361,2.04449.01012,2.78953.73839,2.80843,2.64039.01975,1.98864-.76114,2.76143-2.88072,2.76636q-8.12742.01893-16.2549-.002c-2.78441-.01036-3.38679-.656-3.389-3.51023Q101.12778,108.67665,101.13325,99.96069Z"/><path class="q" d="M50.5509,95.21626a29.54278,29.54278,0,0,1-2.82056-1.344c-2.31334-1.40387-3.06622-3.11639-2.58832-5.6091A5.1051,5.1051,0,0,1,49.683,84.52539a14.44223,14.44223,0,0,1,1.75894-.04822A105.93321,105.93321,0,0,0,50.5509,95.21626Z"/></g></svg>