<svg xmlns="http://www.w3.org/2000/svg" width="124" height="30" viewBox="0 0 124 30"><g><g><path fill="#2d4574" d="M2.262 14.785c-1.379 0-2.068-.537-2.068-1.611v-2.141c0-1.105.649-1.66 1.947-1.66h5.002c.642 0 .962.17.962.506 0 .289-.32.433-.962.433H3.224c-.898 0-1.347.48-1.347 1.443v.6c0 1.01.441 1.516 1.322 1.516h2.838c1.379 0 2.068.537 2.068 1.61v2.599c0 1.073-.665 1.61-1.996 1.61H1.131c-.625 0-.937-.152-.937-.456 0-.29.32-.433.961-.433h3.968c.866 0 1.299-.425 1.299-1.275v-1.13c0-1.074-.457-1.611-1.371-1.611zm14.639 2.309c.128-.113.344-.17.649-.17.561 0 .842.258.842.77v.409c0 1.059-.61 1.587-1.828 1.587h-4.329c-1.17 0-1.755-.568-1.755-1.707V11.13c0-1.171.593-1.756 1.779-1.756h4.305c1.218 0 1.828.529 1.828 1.587v.36c0 .578-.281.866-.842.866-.561 0-.842-.183-.842-.552 0-.882-.489-1.323-1.467-1.323h-1.635c-.962 0-1.443.416-1.443 1.25v6.012c0 .818.473 1.227 1.419 1.227h1.707c.946 0 1.419-.433 1.419-1.298 0-.161.064-.297.193-.41zm8.674 1.707c.963 0 1.443-.473 1.443-1.42v-5.698c0-.915-.489-1.371-1.467-1.371h-1.635c-.962 0-1.443.456-1.443 1.37v5.749c0 .913.473 1.37 1.419 1.37zm3.127-.745c0 1.089-.649 1.634-1.948 1.634h-4.016c-1.299 0-1.948-.545-1.948-1.634v-6.998c0-1.123.649-1.684 1.948-1.684h3.992c1.314 0 1.972.56 1.972 1.684zm2.302-8.682h6.132c.577 0 .866.152.866.457 0 .32-.297.48-.89.48h-.841c-.914 0-1.371.417-1.371 1.25v7.024c0 .833-.281 1.25-.842 1.25-.545 0-.817-.417-.817-1.25v-7.023c0-.834-.457-1.25-1.371-1.25h-.794c-.609 0-.914-.161-.914-.481 0-.305.281-.457.842-.457zm8.501 0h6.133c.577 0 .865.152.865.457 0 .32-.296.48-.889.48h-.842c-.914 0-1.371.417-1.371 1.25v7.024c0 .833-.28 1.25-.842 1.25-.545 0-.817-.417-.817-1.25v-7.023c0-.834-.457-1.25-1.371-1.25h-.793c-.61 0-.914-.161-.914-.481 0-.305.28-.457.841-.457zm13.48 9.427c.865 0 1.298-.417 1.298-1.25V16.18c0-.834-.457-1.25-1.37-1.25h-2.982c-1.251 0-1.876-.506-1.876-1.516v-3.126c0-.69.28-1.034.842-1.034.561 0 .841.36.841 1.082v2.38c0 .85.473 1.275 1.419 1.275h1.707c.946 0 1.419-.425 1.419-1.274v-2.381c0-.722.281-1.082.842-1.082.577 0 .866.352.866 1.058l-.024 7.816c-.016 1.042-.642 1.562-1.876 1.562h-5.339c-.465 0-.697-.152-.697-.456 0-.29.248-.433.745-.433zm38.557-.745c0 1.089-.666 1.634-1.996 1.634h-3.968c-1.299 0-1.948-.568-1.948-1.707V11.13c0-1.171.649-1.756 1.948-1.756h3.968c1.33 0 1.996.56 1.996 1.684v1.154c-.08.48-.425.962-1.034 1.442-.241.193-.361.402-.361.626 0 .208.112.417.337.625.641.593.994 1.09 1.058 1.49zm-2.91-2.838a2.72 2.72 0 0 0-.553-.313 1.39 1.39 0 0 0-.529-.12h-.818c-.946 0-1.419.569-1.419 1.707v1.01c0 .866.481 1.299 1.443 1.299h1.9c.802 0 1.202-.393 1.202-1.178v-1.06c0-.111-.056-.231-.168-.36a3.872 3.872 0 0 0-.361-.456zm.697-2.333c.145-.144.265-.304.361-.481.112-.177.168-.392.168-.65v-.53c0-.608-.4-.912-1.202-.912h-1.9c-.962 0-1.443.578-1.443 1.732v.408c0 .946.457 1.419 1.371 1.419h.866c.176 0 .352-.032.529-.096a1.75 1.75 0 0 0 .553-.313zm11.777 5.916c.514 0 .77.152.77.457 0 .289-.249.432-.745.432h-5.219c-1.299 0-1.948-.528-1.948-1.587V11.01c0-1.091.649-1.636 1.948-1.636h5.219c.496 0 .745.152.745.457 0 .32-.256.48-.77.48h-3.943c-1.011 0-1.516.417-1.516 1.25v1.036c0 .849.49 1.274 1.468 1.274h3.967c.529 0 .794.137.794.409 0 .336-.256.505-.77.505h-3.991c-.978 0-1.468.425-1.468 1.274v1.54c0 .8.505 1.202 1.516 1.202zm5.588-8.49c-.962 0-1.443.506-1.443 1.516v.914c0 .962.473 1.442 1.419 1.442h1.707c.946 0 1.419-.592 1.419-1.78v-.888c0-.802-.489-1.203-1.467-1.203zm3.102 5.965c0-.786-.489-1.178-1.467-1.178h-1.635c-.962 0-1.443.392-1.443 1.178v2.14c0 .834-.28 1.25-.841 1.25-.562 0-.842-.376-.842-1.13v-7.431c0-1.154.585-1.731 1.755-1.731h4.161c1.33 0 1.996.577 1.996 1.73v7.409c0 .769-.281 1.154-.842 1.154-.561 0-.842-.425-.842-1.275zm8.002-1.346c0-.514-.12-1.075-.36-1.684a10.528 10.528 0 0 0-.962-1.948 2.006 2.006 0 0 0-.409-.457c-.128-.096-.225-.153-.289-.168-.144 0-.216.135-.216.409v7.43c0 .77-.289 1.155-.866 1.155-.561 0-.841-.385-.841-1.154v-7.455c0-1.17.464-1.756 1.394-1.756h.457c.609 0 1.17.384 1.684 1.154l1.202 2.02 1.226-2.02c.225-.353.465-.633.722-.842.272-.208.585-.312.938-.312h.505c.914 0 1.37.586 1.37 1.756v7.455c0 .769-.28 1.154-.841 1.154-.561 0-.842-.385-.842-1.154v-7.431c-.064-.274-.152-.41-.264-.41-.177 0-.401.209-.674.626-.433.674-.753 1.323-.962 1.948-.208.609-.312 1.17-.312 1.684 0 .849-.281 1.274-.842 1.274-.545 0-.818-.425-.818-1.274z"/></g><g><path fill="#2d4574" d="M67.509 29.959c-1.12 0-2.075-.4-2.863-1.2-.747-.842-.967-1.915-1.162-3.062l-.38-2.134 3.713-1.988.71 4.122h4.446l1.99-11.396-11.595 5.004L59.767 4.39c-.193-1.192.34-2.153 1.088-2.996C61.643.55 62.598.129 63.718.129h12.066c1.079 0 2.013.42 2.8 1.265a4.239 4.239 0 0 1 1.183 2.996c0 .339-.185 1.298-.185 1.298l-4.445 1.384.494-2.682H63.884l1.49 8.556 13.638-4.2s-2.786 15.74-2.994 16.95c-.21 1.212-.436 2.22-1.224 3.064-.79.8-1.722 1.199-2.801 1.199z"/></g></g></svg>