<svg width="150" height="41" viewBox="0 0 150 41" fill="none" xmlns="http://www.w3.org/2000/svg">
<path d="M149.6 9.90039C149.4 9.90039 149.4 10.1004 149.4 10.2004C145.1 17.4004 140.7 24.7004 136.4 31.9004C135.5 33.4004 134.5 34.9004 133.3 36.2004C131.7 38.0004 129.7 38.9004 127.5 39.6004C126.9 39.8004 126.3 39.8004 125.8 40.0004C125.5 40.1004 125.3 40.0004 125.2 39.6004C124.9 38.6004 124.6 37.7004 124.3 36.7004C124.2 36.3004 124.3 36.2004 124.6 36.2004C126.7 35.7004 128.6 34.9004 130.1 33.3004C130.7 32.6004 131.2 31.9004 131.6 31.2004C131.7 31.0004 131.7 30.8004 131.4 30.9004H131.3C130.2 30.9004 130.2 30.9004 130.2 29.8004C130 26.7004 129.5 23.7004 129.2 20.7004C128.8 17.8004 128.4 14.9004 128 12.0004C127.9 11.5004 127.9 11.0004 127.8 10.5004C127.7 10.2004 127.9 10.1004 128.2 10.0004C129.9 9.80039 131.6 9.60039 133.3 9.40039C133.6 9.40039 133.8 9.40039 133.8 9.80039C133.9 11.4004 134.1 13.0004 134.2 14.6004C134.4 17.1004 134.6 19.6004 134.8 22.1004C134.9 23.3004 134.9 24.5004 135 25.7004C135.1 25.7004 135.1 25.7004 135.1 25.7004C136.7 21.8004 138.8 18.2004 140.8 14.5004C141.6 13.1004 142.4 11.6004 143.2 10.2004C143.4 9.90039 143.6 9.70039 144 9.70039C145.9 9.70039 147.8 9.70039 149.7 9.70039C149.6 9.70039 149.6 9.80039 149.6 9.90039Z" fill="#3784EC"/>
<path d="M9.79998 31.3008C6.59998 31.3008 3.49996 30.6008 0.599963 29.0008C0.199963 28.8008 0.199988 28.7008 0.499988 28.3008C1.39999 27.1008 2.3 25.9008 3.2 24.6008C3.4 24.3008 3.49998 24.3008 3.79998 24.5008C6.19998 25.9008 8.69999 26.6008 11.5 26.5008C13.1 26.5008 14.7 26.1008 15.9 25.0008C16.9 24.1008 17.4 23.0008 17.4 21.7008C17.4 20.8008 16.9 20.2008 16.2 19.7008C15.3 19.1008 14.4 18.8008 13.4 18.5008C11.9 17.9008 10.3 17.5008 8.79998 16.7008C6.99998 15.7008 5.79996 14.2008 5.59996 12.1008C5.39996 9.7008 6.09996 7.6008 7.59996 5.8008C9.49996 3.5008 12.1 2.20081 15 1.70081C18.4 1.00081 21.7 1.2008 24.9 2.6008C25.8 3.0008 26.6 3.5008 27.4 4.0008C27.6 4.2008 27.7 4.3008 27.5 4.5008C26.4 5.7008 25.4 6.80081 24.3 8.0008C24.1 8.2008 24 8.2008 23.8 8.0008C21.8 6.7008 19.6 6.10081 17.2 6.20081C16 6.20081 14.9 6.6008 13.9 7.3008C13.7 7.5008 13.5 7.6008 13.3 7.8008C11.9 9.3008 12.2 11.0008 14 12.0008C15.2 12.6008 16.4 13.0008 17.7 13.4008C19.3 14.0008 20.8 14.5008 22.2 15.6008C24.2 17.1008 24.9 19.2008 24.6 21.6008C24 25.9008 21.4 28.5008 17.5 30.1008C15 31.0008 12.4 31.3008 9.79998 31.3008Z" fill="#3784EC"/>
<path d="M109.3 28.901C108.5 29.701 107.6 30.301 106.6 30.701C104.7 31.401 102.7 31.401 100.8 30.801C99.3002 30.301 98.3002 29.301 97.8002 27.801C97.1002 26.201 97.0002 24.501 97.1002 22.701C97.3002 20.001 98.1002 17.501 99.5002 15.301C101.1 12.801 103.1 10.801 106 9.90102C108.1 9.30101 110.2 9.30101 112.3 9.80101C112.7 9.90101 112.7 9.80101 112.8 9.50101C113.3 6.60101 114 3.70101 114.6 0.801013C114.7 0.501013 114.8 0.301013 115.2 0.401013C116.8 0.701013 118.3 0.901014 119.9 1.10101C120.2 1.10101 120.3 1.20101 120.2 1.60101C118.8 7.80101 117.4 14.101 116 20.301C115.5 22.801 114.8 25.301 114.5 27.801C114.4 28.701 114.3 29.501 114.4 30.401C114.5 30.701 114.3 30.701 114.1 30.701C112.7 30.701 111.2 30.701 109.8 30.701C109.6 30.701 109.4 30.601 109.4 30.401C109.4 29.901 109.3 29.501 109.3 28.901ZM103.1 23.701C103.1 24.401 103.1 25.101 103.4 25.701C103.8 26.601 104.7 27.001 105.6 26.801C107 26.401 108.2 25.601 109.1 24.401C109.2 24.201 109.3 24.101 109.3 23.901C110 21.001 110.6 18.001 111.3 15.101C111.4 14.801 111.3 14.601 111 14.501C109.2 13.401 106.7 13.901 105.6 15.601C104 18.001 103.2 20.701 103.1 23.701Z" fill="#3784EC"/>
<path d="M33.5997 12.3005C34.4997 11.4005 35.4997 10.7005 36.5997 10.2005C38.1997 9.50048 39.7997 9.10048 41.4997 9.30048C43.9997 9.70048 45.5997 11.2005 46.1997 13.8005C46.6997 15.9005 46.4997 18.0005 45.9997 20.0005C45.4997 22.5005 44.5997 24.8005 43.0997 26.9005C40.9997 29.7005 38.1997 31.1005 34.6997 31.2005C33.2997 31.3005 31.8997 31.1005 30.4997 30.6005C30.1997 30.5005 30.1997 30.5005 30.0997 30.8005C29.5997 33.2005 28.9997 35.7005 28.4997 38.1005C28.3997 38.4005 28.2997 38.4005 28.0997 38.5005C26.3997 38.9005 24.7997 39.3005 23.0997 39.7005C22.5997 39.8005 22.5997 39.8005 22.6997 39.3005C23.2997 36.7005 23.7997 34.2005 24.3997 31.6005C25.5997 26.2005 26.7997 20.9005 27.9997 15.5005C28.2997 14.1005 28.1997 12.8005 27.8997 11.4005C27.7997 11.1005 27.8997 10.9005 28.1997 10.8005C29.6997 10.2005 31.1997 9.70048 32.7997 9.10048C33.0997 9.00048 33.2997 9.00048 33.3997 9.40048C33.4997 10.3005 33.5997 11.2005 33.5997 12.3005ZM40.0997 16.6005C40.0997 16.4005 40.0997 16.2005 40.0997 16.0005C40.0997 14.5005 39.1997 13.7005 37.6997 14.0005C35.6997 14.3005 34.3997 15.7005 33.2997 17.3005C33.2997 17.4005 33.1997 17.5005 33.1997 17.5005C32.5997 20.3005 31.8997 23.1005 31.2997 25.9005C31.2997 26.1005 31.1997 26.2005 31.3997 26.4005C32.9997 27.5005 36.1997 27.7005 37.5997 25.3005C39.1997 22.5005 39.9997 19.7005 40.0997 16.6005Z" fill="#3784EC"/>
<path d="M86.7004 22.2004C86.1004 22.2004 85.3004 22.2004 84.4004 22.0004C84.2004 22.0004 84.1004 22.0004 84.0004 22.2004C83.9004 23.0004 83.8004 23.9004 83.9004 24.7004C84.2004 26.3004 85.3003 27.1004 87.1003 27.2004C89.3003 27.2004 91.3003 26.5004 93.1003 25.3004C93.6003 25.0004 93.6004 25.0004 93.8004 25.5004C94.2004 26.4004 94.5004 27.2004 94.9004 28.1004C95.0004 28.4004 95.0004 28.5004 94.7004 28.7004C92.4004 30.2004 89.8004 31.1004 87.0004 31.3004C85.3004 31.4004 83.6003 31.3004 82.1003 30.7004C79.6003 29.8004 78.2004 27.9004 77.9004 25.3004C77.3004 20.4004 78.9004 16.2004 82.2004 12.6004C84.5004 10.1004 87.4004 9.2004 90.7004 9.3004C92.0004 9.4004 93.3003 9.5004 94.6003 10.0004C97.0003 11.0004 98.0004 13.2004 97.8004 15.6004C97.5004 18.5004 95.7004 20.1004 93.2004 21.2004C91.3004 21.9004 89.2004 22.2004 86.7004 22.2004ZM86.8004 18.3004C87.5004 18.4004 88.2004 18.2004 88.9004 18.1004C89.9004 17.9004 90.8004 17.6004 91.5004 16.8004C92.1004 16.1004 92.2004 15.4004 91.9004 14.6004C91.6004 13.9004 91.1004 13.4004 90.3004 13.3004C89.1004 13.2004 88.0004 13.4004 87.0004 14.3004C86.0004 15.3004 85.5003 16.5004 85.1003 17.8004C85.0003 18.0004 85.1004 18.2004 85.4004 18.2004C85.9004 18.3004 86.4004 18.4004 86.8004 18.3004Z" fill="#3784EC"/>
<path d="M67.9997 22.2007C66.8997 22.2007 66.0997 22.2007 65.1997 22.0007C65.0997 22.0007 64.8997 21.9007 64.8997 22.1007C64.7997 23.0007 64.5997 24.0007 64.8997 24.9007C65.2997 26.3007 66.2997 27.0007 67.9997 27.0007C70.1997 27.0007 72.0997 26.4007 73.8997 25.2007C74.5997 24.8007 74.5997 24.8007 74.8997 25.5007C75.1997 26.3007 75.5997 27.1007 75.8997 27.9007C75.9997 28.2007 75.9997 28.3007 75.6997 28.5007C73.3997 30.0007 70.7997 30.9007 68.0997 31.1007C66.3997 31.2007 64.7997 31.1007 63.1997 30.5007C60.4997 29.5007 59.0997 27.5007 58.8997 24.7007C58.4997 20.6007 59.7997 16.9007 62.1997 13.6007C64.5997 10.5007 67.6997 8.9007 71.6997 9.1007C72.9997 9.2007 74.2997 9.3007 75.4997 9.8007C77.5997 10.6007 78.6997 12.4007 78.7997 14.6007C78.7997 17.2007 77.4997 19.0007 75.3997 20.3007C73.7997 21.3007 71.9997 21.7007 70.1997 21.9007C69.2997 22.2007 68.5997 22.2007 67.9997 22.2007ZM67.6997 18.3007C68.1997 18.4007 68.5997 18.3007 69.0997 18.2007C70.1997 18.0007 71.1997 17.8007 72.0997 17.0007C72.7997 16.4007 72.9997 15.5007 72.7997 14.7007C72.5997 13.9007 71.9997 13.4007 71.1997 13.3007C69.9997 13.2007 68.7997 13.4007 67.7997 14.3007C66.7997 15.3007 66.2997 16.6007 65.9997 17.9007C65.8997 18.2007 66.0997 18.2007 66.2997 18.2007C66.6997 18.3007 67.1997 18.4007 67.6997 18.3007Z" fill="#3784EC"/>
<path d="M128.6 2.00095C128.7 4.40095 128.1 6.70095 127.6 9.00095C126.5 14.0009 125.3 19.1009 124.2 24.1009C124 24.8009 124 25.5009 123.9 26.201C123.9 27.0009 124.3 27.5009 125.1 27.3009C125.6 27.2009 125.7 27.401 125.7 27.901C125.7 28.701 125.8 29.401 125.9 30.201C125.9 30.401 125.9 30.601 125.6 30.701C123.9 31.201 122.3 31.4009 120.5 31.0009C118.5 30.5009 117.5 29.0009 117.7 27.0009C118 24.4009 118.7 21.8009 119.3 19.3009C120.3 14.7009 121.4 10.2009 122.3 5.60095C122.5 4.50095 122.7 3.30095 122.4 2.20095C122.3 2.00095 122.4 1.90095 122.6 1.90095C124.4 1.40095 126.3 0.800949 128.1 0.300949C128.4 0.200949 128.4 0.30095 128.4 0.50095C128.6 0.90095 128.6 1.50095 128.6 2.00095Z" fill="#3784EC"/>
<path d="M54.8004 12.3005C56.2004 10.8005 57.8004 9.90048 59.6004 9.40048C60.5004 9.20048 61.5005 9.10048 62.4005 9.40048C62.7005 9.50048 62.9004 9.60048 62.7004 10.0005C62.0004 11.4005 61.3004 12.7005 60.6004 14.1005C60.5004 14.4005 60.3004 14.5005 60.0004 14.3005C58.7004 13.8005 57.6004 14.1005 56.5004 14.9005C55.8004 15.4005 55.2004 16.1005 54.7004 16.7005C54.6004 16.8005 54.5004 17.0005 54.5004 17.2005C53.5004 21.5005 52.6004 25.8005 51.6004 30.1005C51.5004 30.5005 51.4005 30.7005 50.9005 30.7005C49.3005 30.7005 47.7004 30.7005 46.2004 30.7005C45.9004 30.7005 45.7004 30.7005 45.8004 30.3005C46.9004 25.6005 47.9004 21.0005 49.0004 16.3005C49.4004 14.7005 49.4004 13.1005 49.0004 11.4005C48.9004 11.1005 49.0004 10.9005 49.3004 10.8005C50.8004 10.2005 52.3005 9.70048 53.9005 9.10048C54.2005 9.00048 54.4004 9.00048 54.5004 9.40048C54.7004 10.3005 54.9004 11.2005 54.8004 12.3005Z" fill="#3784EC"/>
</svg>
