<svg width="159" height="57" viewBox="0 0 159 57" fill="none" xmlns="http://www.w3.org/2000/svg">
<path d="M20.3 35.6998C20.4 35.3998 20.5 35.2998 20.6 35.0998C22.7 32.3998 24.7 29.7998 26.8 27.1998C27.2 26.6998 27.6 26.5998 28.2 26.5998C36.3 26.5998 44.4 26.5998 52.5 26.5998C53.8 26.5998 55.1 26.3998 56.3 25.6998C57 25.2998 57.5 24.7998 57.5 23.9998C57.4 23.0998 56.8 22.4998 56 22.2998C54.9 21.9998 53.8 21.6998 52.6 21.6998C46.7 21.5998 40.8 21.6998 34.8 21.6998C31.9 21.6998 29 21.2998 26.4 19.8998C24.1 18.7998 22.2 17.1998 21.1 14.8998C20.3 13.2998 20.1 11.5998 20.4 9.7998C20.9 6.1998 23.1 3.8998 26.1 2.3998C27.2 1.8998 28.4 1.49981 29.5 1.09981C29.6 1.09981 29.8 0.999805 29.9 0.999805C30.2 0.299805 30.9 0.499805 31.4 0.499805C44.4 0.499805 57.3 0.499805 70.3 0.499805C70.9 0.499805 70.9 0.799806 71.2 1.19981C71.8 2.09981 72.4 2.9998 73.1 3.7998C77.4 9.6998 81.6 15.5998 85.9 21.4998C86.1 21.6998 86.2 21.8998 86.5 22.1998C86.7 21.9998 86.9 21.8998 87 21.6998C89.8 17.7998 92.7 13.9998 95.4 9.99981C96.9 7.89981 98.5 5.9998 100.6 4.4998C103 2.7998 105.7 1.69981 108.6 1.09981C108.8 1.09981 109.1 0.999805 109.1 0.899805C109.5 0.299805 110.1 0.399805 110.7 0.399805C120.1 0.399805 129.4 0.399805 138.8 0.399805C139 0.399805 139.3 0.499805 139.4 0.599805C139.5 0.799805 139.3 1.09981 139.2 1.19981C137.2 3.79981 135.2 6.39981 133.1 9.09981C132.7 9.59981 132.3 9.7998 131.7 9.7998C126 9.7998 120.3 9.7998 114.5 9.7998C111.5 9.7998 108.7 10.6998 106.6 12.9998C105.7 13.8998 105.1 15.0998 104.3 16.1998C102.5 18.5998 100.8 20.9998 99 23.3998C96.5 26.6998 94.1 29.9998 91.6 33.2998C90.7 34.3998 89.7 35.3998 88.4 35.9998C86.5 36.8998 84.7 36.5998 82.9 35.3998C81.4 34.3998 80.4 32.9998 79.4 31.4998C74.5 24.7998 69.6 18.1998 64.8 11.4998C63.9 10.1998 63 9.7998 61.5 9.7998C52.7 9.89981 43.8 9.7998 35 9.7998C34.6 9.7998 34.2 9.7998 33.8 9.89981C33.2 9.99981 32.8 10.3998 32.7 10.9998C32.6 11.5998 32.9 12.0998 33.5 12.2998C33.9 12.3998 34.4 12.4998 34.8 12.4998C41 12.4998 47.3 12.4998 53.5 12.4998C57.3 12.4998 60.7 13.5998 63.7 15.8998C67.3 18.6998 68.8 23.4998 67.2 27.7998C66.4 30.0998 64.7 31.7998 62.7 33.1998C59.9 34.9998 56.8 35.8998 53.5 35.8998C42.6 35.9998 31.8 35.8998 20.9 35.8998C20.8 35.7998 20.6 35.7998 20.3 35.6998Z" fill="black"/>
<path d="M104.5 20.7002C105 21.6002 105.4 22.3002 105.9 22.9002C107.2 24.6002 108.8 25.7002 110.9 26.1002C112.5 26.4002 114.1 26.6002 115.6 26.6002C123.3 26.7002 131 26.6002 138.7 26.6002C138.9 26.6002 139.1 26.7002 139.2 26.8002C139.3 26.9002 139.2 27.1002 139.1 27.3002C137 30.0002 135 32.7002 132.8 35.3002C132.6 35.6002 132.1 35.8002 131.8 35.8002C125.5 35.8002 119.2 35.9002 112.9 35.7002C107.4 35.5002 102.5 33.7002 98.5002 29.9002C98.1002 29.6002 98.0001 29.3002 98.4001 28.8002C100.3 26.3002 102.2 23.7002 104.1 21.2002C104.3 21.1002 104.4 20.9002 104.5 20.7002Z" fill="black"/>
<path d="M38.4001 52.9C38.7001 52.3 38.9001 51.6 39.2001 51C39.8001 49.3 40.3001 47.6 40.9001 46C41.1001 45.5 41.4001 45.2 42.0001 45.2C42.4001 45.2 42.9001 45.2 43.3001 45.2C44.0001 45.2 44.1001 45.4 43.9001 46C43.5001 47 43.1001 48.1 42.7001 49.1C41.9001 51.2 41.0001 53.4 40.2001 55.6C40.0001 56.2 39.6001 56.5 38.9001 56.5C38.5001 56.5 38.1001 56.5 37.7001 56.5C37.1001 56.6 36.8001 56.2 36.6001 55.7C35.5001 52.9 34.5001 50.1 33.4001 47.4C33.2001 46.9 32.9001 46.3 32.7001 45.8C32.6001 45.8 32.6001 45.8 32.5001 45.8C31.8001 47.1 31.1001 48.4 30.4001 49.7C29.9001 50.6 29.4001 51.4 29.0001 52.3C28.9001 52.6 28.8001 53 28.8001 53.3C28.8001 54.1 28.8001 54.9 28.8001 55.6C28.8001 56.2 28.5001 56.4 28.0001 56.4C27.6001 56.4 27.2001 56.4 26.8001 56.4C26.2001 56.4 25.9001 56.1 26.0001 55.6C26.5001 52.8 24.9001 50.7 23.7001 48.5C23.2001 47.6 22.8001 46.8 22.3001 45.9C22.0001 45.3 22.1001 45.1 22.8001 45.1C25.3001 45.1 24.6001 44.7 25.9001 46.9C26.4001 47.7 26.7001 48.5 27.2001 49.2C27.3001 49.4 27.5001 49.5 27.7001 49.6C28.4001 48.2 29.1001 47 29.8001 45.7C30.0001 45.2 30.3001 45 30.9001 45C32.4001 45 33.8001 45 35.3001 45C35.8001 45 36.1001 45.2 36.3001 45.7C37.1001 48 37.9001 50.4 38.8001 52.7C38.3001 52.9 38.4001 52.9 38.4001 52.9Z" fill="black"/>
<path d="M81.1002 49.8002C81.0002 50.2002 81.0002 50.4002 81.0002 50.7002C81.0002 52.3002 81.0002 53.9002 81.0002 55.4002C81.0002 56.2002 80.8002 56.4002 80.0002 56.4002C78.2002 56.4002 78.2002 56.6002 78.2002 54.6002C78.2002 51.8002 78.2002 48.9002 78.2002 46.1002C78.2002 45.2002 78.3002 45.2002 79.2002 45.1002C80.3002 45.0002 81.1002 45.3002 81.7002 46.3002C82.8002 48.0002 84.1002 49.6002 85.3002 51.2002C85.4002 51.3002 85.4002 51.4002 85.6002 51.6002C85.7002 51.3002 85.8002 51.1002 85.8002 51.0002C85.8002 49.4002 85.8002 47.7002 85.8002 46.1002C85.8002 45.3002 85.9002 45.2002 86.7002 45.2002C87.1002 45.2002 87.5002 45.2002 87.9002 45.2002C88.4002 45.2002 88.6002 45.4002 88.6002 45.9002C88.6002 49.2002 88.6002 52.4002 88.6002 55.7002C88.6002 56.2002 88.4002 56.4002 87.8002 56.5002C86.6002 56.6002 85.8002 56.3002 85.1002 55.2002C83.8002 53.4002 82.5002 51.7002 81.1002 49.8002Z" fill="black"/>
<path d="M71.0002 56.6002C68.2002 56.4002 66.2002 55.4002 65.2002 53.0002C63.9002 50.0002 65.3002 46.6002 68.4002 45.5002C71.4002 44.4002 74.2002 45.4002 75.7002 47.4002C78.1002 50.5002 76.4002 55.2002 72.7002 56.2002C72.0002 56.3002 71.4002 56.5002 71.0002 56.6002ZM67.7002 50.8002C67.7002 52.6002 69.1002 54.1002 70.8002 54.1002C72.4002 54.1002 73.8002 52.6002 73.8002 50.9002C73.8002 49.1002 72.5002 47.6002 70.8002 47.6002C69.0002 47.6002 67.7002 48.9002 67.7002 50.8002Z" fill="black"/>
<path d="M14.0006 49.7995C14.9006 48.7995 15.8006 47.7995 16.6006 46.8995C18.2006 45.0995 18.2006 44.9995 20.7006 45.1995C20.9006 45.1995 21.1006 45.2995 21.4006 45.2995C20.7006 46.0995 20.1006 46.7995 19.5006 47.3995C18.9006 48.0995 18.3006 48.6995 17.7006 49.3995C17.4006 49.6995 17.4006 49.9995 17.7006 50.2995C18.9006 51.9995 20.1006 53.7995 21.3006 55.5995C21.4006 55.7995 21.5006 56.0995 21.5006 56.2995C21.3006 56.3995 21.1006 56.3995 20.8006 56.4995C20.2006 56.4995 19.7006 56.4995 19.1006 56.4995C18.4006 56.5995 18.1006 56.1995 17.8006 55.7995C17.1006 54.7995 16.4006 53.7995 15.8006 52.6995C15.5006 52.2995 15.3006 52.1995 14.9006 52.5995C14.2006 53.2995 13.8006 53.9995 13.9006 54.9995C13.9006 55.2995 13.9006 55.5995 13.9006 55.7995C13.9006 56.1995 13.7006 56.4995 13.2006 56.4995C12.9006 56.4995 12.5006 56.4995 12.2006 56.4995C11.2006 56.4995 11.1006 56.3995 11.1006 55.2995C11.1006 53.3995 11.1006 51.4995 11.1006 49.5995C11.1006 48.3995 11.1006 47.1995 11.1006 45.9995C11.1006 45.3995 11.3006 45.0995 11.9006 45.1995C12.3006 45.1995 12.8006 45.1995 13.2006 45.1995C13.8006 45.1995 14.0006 45.3995 14.0006 45.9995C14.0006 46.9995 14.0006 47.9995 14.0006 48.9995C13.9006 49.1995 13.9006 49.3995 14.0006 49.7995Z" fill="black"/>
<path d="M5.1002 56.6002C3.8002 56.5002 2.60018 56.1002 1.40018 55.6002C1.30018 55.6002 1.2002 55.5002 1.1002 55.4002C0.800195 55.3002 0.300177 55.2002 0.300177 55.0002C0.200177 54.5002 0.200177 53.9002 0.300177 53.4002C0.400177 52.9002 1.30018 52.6002 1.80018 52.8002C2.70018 53.2002 3.60019 53.7002 4.50019 54.0002C5.00019 54.1002 5.60019 54.0002 6.00019 53.8002C6.60019 53.5002 6.7002 52.8002 6.1002 52.5002C5.6002 52.2002 5.00018 52.0002 4.40018 51.8002C3.50018 51.5002 2.70018 51.2002 1.80018 50.7002C1.40018 50.5002 1.20018 50.0002 0.800177 49.6002C0.700177 49.5002 0.700195 49.4002 0.600195 49.3002C-0.0998047 48.7002 -0.0998047 48.1002 0.600195 47.5002C0.700195 47.4002 0.700177 47.3002 0.800177 47.2002C1.30018 46.0002 2.3002 45.3002 3.6002 45.1002C5.4002 44.8002 7.20018 45.0002 8.80018 45.8002C9.20018 46.0002 9.4002 46.3002 9.2002 46.8002C9.0002 47.1002 8.90018 47.4002 8.80018 47.7002C8.50018 48.3002 8.3002 48.3002 7.7002 48.1002C6.7002 47.8002 5.80018 47.5002 4.80018 47.3002C4.40018 47.2002 3.90018 47.4002 3.80018 47.9002C3.70018 48.4002 4.10019 48.7002 4.50019 48.9002C5.50019 49.3002 6.6002 49.6002 7.7002 50.0002C9.1002 50.6002 9.7002 51.7002 9.60019 53.1002C9.50019 54.3002 8.5002 55.5002 7.2002 55.9002C6.5002 56.3002 5.8002 56.4002 5.1002 56.6002Z" fill="black"/>
<path d="M54.7002 56.4998C52.7002 56.3998 51.2002 55.8998 49.8002 54.9998C49.4002 54.7998 49.3002 54.4998 49.6002 54.0998C49.8002 53.7998 50.0002 53.3998 50.2002 52.9998C50.4002 52.5998 50.6002 52.4998 51.1002 52.7998C52.0002 53.2998 52.9002 53.6998 53.9002 53.9998C54.2002 54.0998 54.6002 54.0998 54.9002 54.0998C55.4002 53.9998 55.9002 53.7998 55.9002 53.2998C55.9002 52.9998 55.5002 52.4998 55.1002 52.2998C54.3002 51.8998 53.5002 51.6998 52.6002 51.4998C50.8002 50.9998 49.9002 49.6998 50.1002 47.9998C50.3002 46.6998 51.4002 45.5998 52.9002 45.2998C54.8002 44.8998 56.6002 45.1998 58.4002 46.0998C58.8002 46.2998 58.9002 46.5998 58.7002 46.9998C58.5002 47.3998 58.3002 47.6998 58.2002 48.0998C58.0002 48.5998 57.6002 48.5998 57.2002 48.3998C56.3002 47.8998 55.3002 47.5998 54.2002 47.5998C53.7002 47.5998 53.2002 47.7998 53.2002 48.1998C53.2002 48.4998 53.6002 48.9998 53.9002 49.0998C54.9002 49.4998 56.0002 49.7998 57.1002 50.1998C58.5002 50.7998 59.1002 51.7998 59.0002 53.1998C58.9002 54.7998 57.7002 55.6998 56.6002 56.0998C55.9002 56.2998 55.2002 56.3998 54.7002 56.4998Z" fill="black"/>
<path d="M119.101 50.6996C119.101 49.0996 119.101 47.4996 119.101 45.9996C119.101 45.3996 119.301 45.0996 119.901 45.1996C121.201 45.1996 122.501 45.1996 123.901 45.1996C125.301 45.1996 126.501 45.6996 127.201 46.9996C128.401 49.0996 127.601 52.1996 124.701 52.6996C123.601 52.8996 122.401 52.8996 121.301 52.8996C120.501 52.8996 120.401 52.9996 120.401 53.7996C120.401 54.3996 120.401 55.0996 120.401 55.6996C120.401 56.0996 120.401 56.4996 119.801 56.4996C119.201 56.4996 119.101 56.0996 119.101 55.6996C119.101 53.9996 119.101 52.3996 119.101 50.6996ZM122.401 51.5996C123.101 51.4996 123.801 51.4996 124.501 51.3996C125.601 51.1996 126.301 50.2996 126.401 49.0996C126.401 47.8996 125.801 46.8996 124.701 46.7996C123.501 46.5996 122.301 46.5996 121.001 46.5996C120.601 46.5996 120.501 46.8996 120.501 47.2996C120.501 48.0996 120.501 48.8996 120.501 49.7996C120.501 51.4996 120.501 51.4996 122.401 51.5996Z" fill="black"/>
<path d="M112 45C112.2 45.2 112.6 45.4 112.7 45.6C113.5 47.2 114.2 48.9 114.9 50.5C115.6 52.1 116.4 53.8 117.1 55.4C117.2 55.7 117.1 56 117.1 56.3C116.7 56.2 116.3 56.2 116.1 56C115.7 55.6 115.5 55 115.3 54.5C114.8 53.4 114.9 53.4 113.7 53.4C112.3 53.4 111 53.4 109.6 53.4C109.1 53.4 108.8 53.5 108.6 54C108.4 54.5 108.2 55 107.9 55.5C107.7 55.9 107.5 56.3 106.9 56.3C106.4 56.3 106.1 56 106.4 55.5C107.2 53.7 108 51.9 108.9 50.1C109.6 48.6 110.2 47.2 110.9 45.7C111.1 45.2 111.4 45 111.9 45.1C111.9 45.1 112 45.1 112 45ZM114 52.1C114 51.9 114 51.9 114 51.9C113.4 50.4 112.7 48.9 112.1 47.4C112.1 47.3 111.9 47.2 111.8 47.2C111.7 47.2 111.6 47.4 111.5 47.5C111.1 48.3 110.8 49.2 110.4 50C110.1 50.7 109.8 51.4 109.5 52.2C111.1 52.1 112.5 52.1 114 52.1Z" fill="black"/>
<path d="M146.2 53.5002C145.4 53.5002 144.7 53.5002 143.9 53.5002C143.5 53.5002 143.2 53.6002 143 54.1002C142.8 54.6002 142.5 55.2002 142.3 55.7002C142.2 55.9002 142 56.2002 141.8 56.3002C141.5 56.4002 141.2 56.3002 140.9 56.4002C140.9 56.1002 140.8 55.8002 140.9 55.6002C142.1 52.9002 143.3 50.1002 144.6 47.4002C144.8 46.9002 145.1 46.3002 145.3 45.8002C145.5 45.4002 145.8 45.2002 146.2 45.2002C146.7 45.2002 147 45.4002 147.2 45.8002C147.5 46.5002 147.8 47.1002 148.1 47.8002C149.2 50.4002 150.4 52.9002 151.5 55.5002C151.6 55.8002 151.6 56.3002 151.4 56.4002C151.1 56.6002 150.6 56.6002 150.3 56.2002C150 55.7002 149.8 55.2002 149.6 54.7002C149.1 53.6002 149.1 53.6002 147.9 53.6002C147.4 53.5002 146.8 53.5002 146.2 53.5002ZM143.9 52.1002C144.1 52.2002 144.2 52.2002 144.3 52.2002C145.6 52.2002 146.8 52.2002 148.1 52.2002C148.6 52.2002 148.5 51.9002 148.4 51.6002C147.8 50.2002 147.2 48.9002 146.6 47.5002C146.5 47.4002 146.4 47.2002 146.3 47.2002C146.2 47.2002 146 47.3002 145.9 47.5002C145.2 49.0002 144.6 50.5002 143.9 52.1002Z" fill="black"/>
<path d="M45.1006 50.8002C45.1006 49.2002 45.1006 47.6002 45.1006 46.1002C45.1006 45.3002 45.2006 45.2002 46.0006 45.2002C46.5006 45.2002 46.9006 45.2002 47.4006 45.2002C47.9006 45.2002 48.1006 45.4002 48.1006 45.9002C48.1006 49.2002 48.1006 52.4002 48.1006 55.7002C48.1006 56.2002 47.8006 56.5002 47.3006 56.5002C46.9006 56.5002 46.6006 56.5002 46.2006 56.5002C45.4006 56.5002 45.2006 56.3002 45.2006 55.5002C45.1006 53.9002 45.1006 52.3002 45.1006 50.8002Z" fill="black"/>
<path d="M95.7002 50.1002C95.7002 48.4002 96.9002 46.7002 99.0002 45.7002C101.2 44.7002 103.3 45.0002 105.2 46.4002C105.6 46.7002 105.6 46.9002 105.3 47.3002C105 47.7002 104.7 47.7002 104.3 47.4002C101.8 45.5002 98.6002 46.6002 97.5002 48.9002C96.1002 51.9002 98.6002 55.3002 102 55.0002C102.9 54.9002 103.7 54.6002 104.4 54.1002C104.9 53.7002 105.1 53.9002 105.4 54.3002C105.7 54.7002 105.5 54.9002 105.2 55.1002C103.9 56.0002 102.5 56.7002 100.9 56.4002C98.2002 56.0002 95.7002 54.2002 95.7002 50.1002Z" fill="black"/>
<path d="M60.4002 50.6996C60.4002 49.0996 60.4002 47.5996 60.4002 45.9996C60.4002 45.2996 60.5001 45.0996 61.3001 45.0996C61.7001 45.0996 62.1002 45.0996 62.5002 45.0996C63.1002 45.0996 63.4001 45.3996 63.3001 45.9996C63.3001 47.4996 63.3001 48.8996 63.3001 50.3996C63.3001 52.0996 63.3001 53.6996 63.3001 55.3996C63.3001 56.1996 63.1001 56.3996 62.3001 56.3996C60.4001 56.3996 60.3002 56.4996 60.4002 54.4996C60.4002 53.2996 60.4002 51.9996 60.4002 50.6996Z" fill="black"/>
<path d="M137.9 51.3998C137.9 52.6998 137.9 53.9998 137.9 55.3998C137.9 55.8998 137.9 56.3998 137.2 56.4998C136.7 56.5998 136.4 56.1998 136.4 55.4998C136.4 52.7998 136.4 50.1998 136.4 47.4998C136.4 46.5998 136.4 46.5998 135.4 46.5998C134.7 46.5998 134.1 46.5998 133.4 46.5998C133 46.5998 132.8 46.3998 132.8 45.9998C132.8 45.5998 133 45.2998 133.4 45.2998C135.8 45.2998 138.3 45.2998 140.7 45.2998C141.2 45.2998 141.3 45.4998 141.3 45.9998C141.3 46.4998 141.1 46.5998 140.7 46.5998C140 46.5998 139.2 46.5998 138.5 46.5998C137.9 46.5998 137.7 46.7998 137.7 47.3998C137.9 48.6998 137.9 49.9998 137.9 51.3998Z" fill="black"/>
<path d="M153.601 50.8002C153.601 49.2002 153.601 47.6002 153.601 46.0002C153.601 45.5002 153.601 45.2002 154.201 45.2002C154.801 45.2002 154.901 45.5002 154.901 46.0002C154.901 48.7002 154.901 51.5002 154.901 54.2002C154.901 55.0002 155.001 55.1002 155.801 55.1002C156.601 55.1002 157.301 55.1002 158.101 55.1002C158.701 55.1002 158.701 55.4002 158.701 55.8002C158.701 56.2002 158.701 56.6002 158.101 56.5002C156.901 56.5002 155.601 56.5002 154.401 56.5002C153.801 56.5002 153.601 56.2002 153.601 55.7002C153.601 54.0002 153.601 52.4002 153.601 50.8002Z" fill="black"/>
<path d="M129.701 50.8002C129.701 49.2002 129.701 47.6002 129.701 46.0002C129.701 45.5002 129.801 45.2002 130.401 45.2002C131.001 45.2002 131.001 45.6002 131.001 46.1002C131.001 49.3002 131.001 52.5002 131.001 55.6002C131.001 56.1002 130.901 56.5002 130.301 56.5002C129.701 56.5002 129.601 56.1002 129.601 55.6002C129.701 54.0002 129.701 52.4002 129.701 50.8002Z" fill="black"/>
</svg>
