<svg xmlns="http://www.w3.org/2000/svg" width="233" height="198" viewBox="0 0 233 198"><g><g><path fill="#fff" d="M213.413 75.627c-18.424 12.88-43.798 8.387-56.679-10.037a40.604 40.604 0 0 1-6.439-14.739c-3.227-14.999 2.234-31.11 15.075-40.912a40.392 40.392 0 0 1 5.66-3.631 40.408 40.408 0 0 1 16.983-4.692 40.864 40.864 0 0 1 17.041 2.797 40.504 40.504 0 0 1 18.397 14.535 40.637 40.637 0 0 1 5.736 11.962c4.733 16.284-1.104 34.461-15.774 44.717z"/></g><g><path fill="#29a5dc" d="M182.1 37.805c-2.494 2.846-2.47 4.7.01 7.562 8.503 9.808 17.013 19.61 25.512 29.422 11.331-6.253 19.01-18.333 19.01-32.21 0-14.272-8.119-26.644-19.98-32.73-8.182 9.321-16.376 18.63-24.551 27.956z"/></g><g><path fill="#fcfcfc" d="M220.849 34.822l-.421 2.403a1.05 1.05 0 0 1-1.034.87c-3.806 0-18.578-.008-19.618.003-2.503.03-4.873 2.431-4.884 4.935-.007 1.716 1.257 3.086 2.964 3.19.552.034 5.594.03 6.147.013.121-.004.323-.122.343-.217.148-.71.26-1.428.391-2.188h-3.647l.569-3.277h6.934l-1.557 8.903c-.044.027-4.555.055-4.579.054-2.051-.036-4.12.248-6.148-.175-2.246-.459-4.509-2.754-4.648-5.354-.2-3.745 1.583-6.38 4.729-8.185 1.221-.7 2.563-1.004 3.981-.98 1.414.023 20.257.005 20.478.005z"/></g><g><path fill="#fcfcfc" d="M211.872 40.523c-.29 1.629-.58 3.258-.867 4.887-.24 1.347-.471 2.694-.716 4.095 1.07 0 1.592.008 2.624-.015.084-.002.719.013.849-.748.49-2.878.914-5.341 1.409-8.219z"/></g><g><path fill="#f0f" d="M173.861 53.523c-1.875-2.142-3.942-2.083-5.902.063-2.851 3.124-5.656 6.29-8.471 9.447 6.582 9.827 17.772 16.294 30.47 16.294 2.009 0 3.98-.165 5.901-.476-7.326-8.45-14.633-16.914-21.998-25.328z"/></g><g><path fill="#29a5dc" d="M167.49 28.888c2.557 2.922 4.504 2.901 7.092-.069 6.596-7.57 13.18-15.149 19.768-22.726a37.01 37.01 0 0 0-4.392-.263c-12.106 0-22.84 5.88-29.519 14.942 2.347 2.708 4.691 5.42 7.051 8.116z"/></g><g><path fill="#f0f" d="M160.605 38.779c-.104-.138-3.635-3.778-5.958-6.155a36.853 36.853 0 0 0-1.363 9.955c0 3.202.41 6.308 1.178 9.269 2.436-2.943 5.488-6.546 6.105-7.317 1.576-1.97 1.555-3.733.038-5.752z"/></g><g><path fill="none" stroke="#29a5dc" stroke-linecap="round" stroke-miterlimit="20" stroke-width="1.21" d="M203.884 9.61c-8.181 9.322-16.376 18.63-24.551 27.957-2.495 2.847-2.47 4.7.01 7.562 8.504 9.808 17.013 19.61 25.512 29.422"/></g><g><path fill="none" stroke="#f0f" stroke-linecap="round" stroke-miterlimit="20" stroke-width="1.21" d="M157.104 51.939c2.437-2.943 5.488-6.546 6.105-7.317 1.577-1.97 1.555-3.733.038-5.752-.049-.066-.873-.922-1.973-2.06"/></g><g><path fill="none" stroke="#f0f" stroke-linecap="round" stroke-miterlimit="20" stroke-width="1.21" d="M196.068 75.61c-7.326-8.449-14.633-16.914-21.998-25.328-1.875-2.142-3.943-2.083-5.902.063"/></g><g opacity=".35"><g opacity=".35"><path fill="#371a45" d="M149.492 45.365a40.135 40.135 0 0 0 1.934 8.561 40.638 40.638 0 0 0 5.147 10.105c12.881 18.424 38.255 22.917 56.68 10.038 12.383-8.659 18.47-22.96 17.218-37.005a40.504 40.504 0 0 0-.584-3.772c.047 12.892-6.016 25.594-17.382 33.54-18.424 12.88-43.798 8.386-56.68-10.038a40.638 40.638 0 0 1-6.438-14.738l-.08-.38a40.792 40.792 0 0 0 .185 3.69z"/></g></g><g opacity=".4"><g opacity=".4"><path fill="#fff" d="M223.06 18.411c-4.717-6.52-11.015-11.244-18.006-13.998a40.864 40.864 0 0 0-18.1-2.73 40.404 40.404 0 0 0-15.924 4.625 40.573 40.573 0 0 0-5.66 3.631c-12.84 9.801-18.302 25.914-15.075 40.912a40.13 40.13 0 0 0 1.292 4.633c.119.347.247.691.376 1.035-4.28-16.317 1.728-34.283 16.363-44.515a41.324 41.324 0 0 1 4.273-2.62c.025.11.059.218.097.324.829 2.277 4.366 3.08 7.903 1.793 3.535-1.287 5.73-4.176 4.9-6.453l-.001-.008c13.68-2.193 27.977 2.582 37.563 13.371z"/></g></g><g><path fill="#371a45" d="M182.955 83.668a41.979 41.979 0 0 1-15.068-5.8 41.872 41.872 0 0 1-12.107-11.54 41.863 41.863 0 0 1-6.68-15.334 41.992 41.992 0 0 1-.274-16.143 41.98 41.98 0 0 1 5.801-15.068 41.86 41.86 0 0 1 11.54-12.107 41.863 41.863 0 0 1 15.334-6.68 41.992 41.992 0 0 1 16.143-.274 41.987 41.987 0 0 1 15.068 5.8 41.86 41.86 0 0 1 12.107 11.54 41.858 41.858 0 0 1 6.68 15.334 41.977 41.977 0 0 1 .273 16.144 41.986 41.986 0 0 1-17.34 27.174 41.865 41.865 0 0 1-15.334 6.68 41.962 41.962 0 0 1-16.143.273zm-15.164-73.67c-8.6 6.012-14.344 15.013-16.174 25.346-1.829 10.332.474 20.76 6.486 29.358 6.012 8.602 15.014 14.345 25.346 16.175 2.313.41 4.633.611 6.934.612 7.977 0 15.75-2.432 22.425-7.098 8.6-6.013 14.344-15.014 16.173-25.346 1.83-10.333-.473-20.759-6.485-29.359-6.013-8.6-15.014-14.344-25.346-16.174a39.822 39.822 0 0 0-6.934-.612c-7.977 0-15.75 2.432-22.425 7.098z"/></g><g><path fill="#fff" d="M51.966 161.543c-.75 4.582-4.441 6.404-11.714 4.966-7.273-1.437-10.071 1.644-10.554 2.236-1.635 2.003-13.435 21.01-2.207 26.404 7.92 3.804 16.198-8.627 16.198-8.627s18.678 12.524 44.59-15.955z"/></g><g><path fill="#371a45" d="M64.134 186.448c-2.22 0-4.344-.376-6.3-1.126-6.29-2.412-10.93-8.525-13.79-18.17a1.2 1.2 0 0 1 2.298-.681c2.637 8.892 6.792 14.48 12.35 16.61 7.753 2.974 15.72-1.825 15.8-1.874a1.198 1.198 0 1 1 1.254 2.044c-.092.057-2.294 1.396-5.58 2.326-2.055.58-4.08.87-6.032.87z"/></g><g opacity=".35"><g opacity=".35"><path fill="#371a45" d="M27.491 195.15c7.92 3.803 16.197-8.628 16.197-8.628s18.677 12.523 44.59-15.955l-23.76-5.905c-8.416 15.48-21.815 14.883-21.815 14.883s-4.567 15.346-16.426 11.589c-3.192-1.011-2.682-4.942-3.438-6.304-.549 4.283.4 8.277 4.652 10.32z"/></g></g><g><path fill="#371a45" d="M30.631 197.07a8.364 8.364 0 0 1-3.66-.84c-2.778-1.334-4.52-3.51-5.18-6.468-.787-3.53-.006-8.052 2.322-13.438 1.711-3.957 3.876-7.383 4.654-8.337.82-1.004 4.085-4.163 11.717-2.655 3.891.77 6.71.572 8.38-.588 1.034-.717 1.661-1.828 1.918-3.395a1.198 1.198 0 1 1 2.367.387c-.362 2.211-1.343 3.887-2.917 4.98-2.256 1.565-5.597 1.882-10.214.97-6.482-1.282-8.96 1.29-9.392 1.817-1.016 1.246-8.12 12.441-6.494 19.737.5 2.235 1.767 3.814 3.878 4.827 6.885 3.308 14.603-8.096 14.68-8.21l.668-1 .998.668c.042.027 4.55 2.945 12.02 2.491 6.956-.423 17.983-3.934 31.015-18.256a1.199 1.199 0 1 1 1.774 1.614c-6.005 6.6-12.138 11.566-18.229 14.762-4.926 2.585-9.84 4.027-14.605 4.285-.53.03-1.05.042-1.553.042-5.325.001-9.05-1.509-10.74-2.369-.866 1.155-2.537 3.218-4.697 5.076-3.006 2.587-5.959 3.9-8.71 3.9z"/></g><g><path fill="#fff" d="M85.141 115.098c-.758-.132-16.712-7.636-27.413-7.483-8.923.127-25.922 30.256-22.929 38.175 2.773 7.338 18.211 14.009 18.211 14.009z"/></g><g><path fill="#fff" d="M85.14 115.098l-5.221 7.265-26.91 37.435s-7.485-3.234-12.966-7.678c-2.392-1.935-4.4-4.1-5.243-6.33-2.993-7.919 14.006-38.049 22.929-38.176 10.7-.153 26.654 7.352 27.412 7.484z"/></g><g opacity=".35"><g opacity=".35"><path fill="#371a45" d="M79.919 122.364l-26.91 37.434s-.004 0-.011-.005l-.322-.143c-.034-.016-.074-.033-.115-.053a.107.107 0 0 1-.023-.01c-.037-.015-.08-.035-.12-.053-.1-.048-.213-.098-.337-.156-.03-.015-.063-.03-.095-.044-.03-.014-.057-.029-.087-.042l-.115-.056a64.173 64.173 0 0 1-1.635-.798c-.206-.105-.421-.214-.643-.329l-.224-.116c-.087-.043-.176-.09-.267-.138-.11-.06-.222-.118-.336-.178-.034-.016-.066-.035-.098-.053-.081-.045-.164-.087-.248-.132-.234-.128-.474-.256-.717-.39l-.025-.015c-.168-.093-.34-.189-.512-.287-.005 0-.01-.005-.014-.008-.125-.07-.25-.14-.376-.213-.08-.044-.16-.09-.24-.138-.301-.175-.61-.353-.918-.539-.198-.118-.398-.242-.601-.366-.182-.11-.366-.226-.55-.342-.184-.116-.368-.234-.554-.353l-.554-.363a35.28 35.28 0 0 1-.55-.372 23.244 23.244 0 0 1-.548-.38c-.003.001-.003.001-.003-.002a53.076 53.076 0 0 1-.542-.388c-.181-.132-.36-.265-.538-.397l-.083-.063c-.15-.114-.3-.229-.446-.343-.175-.136-.347-.275-.52-.414-2.391-1.935-4.4-4.1-5.242-6.33-1.562-4.132 2.32-14.312 7.659-23.12-2.372 5.593-3.571 10.645-2.581 13.266.346.918.89 1.824 1.577 2.708a15.374 15.374 0 0 0 2.675 2.69c6.017-10.737 17.167-23.228 23.14-22.634 3.454.345 7.365 1.55 11.099 3.031.52.207 1.039.418 1.55.633z"/></g></g><g><path fill="#371a45" d="M53.42 161.282l-.886-.383c-.16-.069-3.987-1.732-8.218-4.332-5.813-3.573-9.393-7.057-10.639-10.354-1.19-3.148.36-8.46 1.87-12.362 1.91-4.94 4.873-10.517 8.128-15.3 3.063-4.502 8.96-12.064 14.035-12.136 3.94-.058 8.992.875 15.02 2.768 4.856 1.525 9.066 3.264 11.327 4.2.598.246 1.165.48 1.346.543l1.83.317zm4.325-52.469c-2.829.041-7.46 4.29-12.087 11.087-3.157 4.64-6.027 10.04-7.875 14.816-1.893 4.892-2.57 8.773-1.862 10.65 1.037 2.744 4.366 5.906 9.627 9.142a72.376 72.376 0 0 0 7.062 3.791l30.656-42.649a8.452 8.452 0 0 1-.125-.05c-4.087-1.69-16.425-6.789-25.089-6.789l-.307.002zm27.687 5.122"/></g><g><path fill="#371a45" d="M57.128 107.101a104.468 104.468 0 0 1 4.424 5.175c.706.89 1.401 1.789 2.06 2.724.082.116.166.231.247.349l.241.356c.16.24.325.471.476.719.152.246.31.486.457.736l.432.76a.685.685 0 0 1-1.179.698l-.013-.021c-.562-.916-1.224-1.798-1.907-2.662a58.997 58.997 0 0 0-2.148-2.536 90.156 90.156 0 0 0-2.265-2.449 109.433 109.433 0 0 0-2.34-2.369l-.003-.003a1.06 1.06 0 1 1 1.518-1.477z"/></g><g><path fill="#fff" d="M41.43 123.758l7.54 5.904c.673.527.908 1.441.567 2.225-1.249 2.871-4.478 9.353-8.288 9.66-3.162.253-6.39-2.183-7.246-5.164-.955-3.334 2.745-9.334 4.72-12.21a1.878 1.878 0 0 1 2.706-.415z"/></g><g opacity=".35"><g opacity=".35"><path fill="#371a45" d="M49.536 131.888c-1.247 2.87-4.477 9.352-8.287 9.658-3.163.254-6.391-2.182-7.246-5.164-.586-2.051.588-5.11 2.037-7.83-.494 1.513-.624 2.923-.38 4.069 1.404 6.563 7.456 3.976 7.456 3.976s-.226 1.46.145 1.799c1.552 1.419 4.81-4.23 6.428-7.19a1.8 1.8 0 0 1-.153.682z"/></g></g><g><path fill="#371a45" d="M32.85 136.714c-1.02-3.56 2.093-9.154 4.884-13.22a3.085 3.085 0 0 1 2.069-1.3 3.09 3.09 0 0 1 2.366.62l7.54 5.904a3.077 3.077 0 0 1 .928 3.648c-.7 1.607-1.84 3.954-3.307 6.01-1.951 2.735-3.965 4.204-5.984 4.366a6.644 6.644 0 0 1-.546.022c-3.474 0-6.964-2.613-7.95-6.05zm7.318-12.148a.67.67 0 0 0-.456.287c-3.43 4.996-5.133 9.183-4.555 11.2.692 2.412 3.215 4.312 5.635 4.313.12 0 .24-.005.362-.015 2.593-.208 5.462-4.756 7.284-8.942a.678.678 0 0 0-.206-.802l-7.542-5.904a.668.668 0 0 0-.522-.137z"/></g><g><path fill="#371a45" d="M36.698 138.98a.104.104 0 0 1-.01-.001h.002c.003.001.003.002.01.003l.027.004.07.01a4.012 4.012 0 0 0 .483.013c.224-.009.456-.034.687-.073a6.582 6.582 0 0 0 1.383-.398c.907-.369 1.765-.928 2.534-1.613.385-.343.75-.716 1.096-1.11l.256-.3.254-.312c.085-.104.167-.21.25-.316.081-.106.166-.21.244-.319.324-.428.632-.866.915-1.316.14-.226.277-.453.401-.685.062-.116.121-.233.177-.35.026-.058.054-.117.078-.174.012-.029.025-.058.035-.086l.03-.074.013-.037a.315.315 0 1 1 .602.184l-.015.067-.015.056c-.009.037-.02.072-.03.108-.02.072-.044.14-.067.21-.046.135-.096.27-.149.401-.105.264-.222.52-.342.775-.244.506-.512.998-.797 1.478-.069.122-.144.24-.216.36-.072.118-.145.237-.22.354l-.225.352-.239.353c-.325.468-.677.922-1.063 1.353a10.44 10.44 0 0 1-2.749 2.215 8.423 8.423 0 0 1-1.697.705 6.799 6.799 0 0 1-1.413.26c-.083.006-.167.01-.256.011-.043.002-.09.001-.136.001l-.075-.002-.042-.003h-.022l-.037-.004a1.058 1.058 0 1 1 .268-2.1z"/></g><g><path fill="#fff" d="M103.437 140.514s3.676.51 9.415.085c11.48-.855 31.226-5.444 46.402-25.32 1.978-2.59 11.555-3.65 9.055-9.045-.758-1.637-2.745-1.984-2.745-1.984s2.91-1.192 2.235-4.221c-1.07-4.788-9.773-2.736-9.773-2.736s2.913-3.067 3.559-5.953c.45-2.023-.962-3.852-2.217-4.336-3.56-1.368-10.878 4.007-15.33 7.013-4.193 2.83-6.892 6.493-9.676 10.254-4.345 5.86-8.905 11.958-19.687 15.503-3.612 1.186-7.921 2.088-13.155 2.596l1.292 12.237z"/></g><g opacity=".35"><g opacity=".35"><path fill="#371a45" d="M103.437 140.514s3.676.51 9.415.085c11.48-.855 31.226-5.444 46.402-25.32 1.674-2.19 8.784-3.287 9.42-6.838-.785-1.68-7.376 3.105-9.137 3.602-3.417.963-4.166-1.117-4.308-2.027-.54-3.457 12.29-5.27 12.452-8.297.204-3.864-3.91 2.94-13.595 3.13-3.063.06-3.825-3.721-3.943-3.455-3.472 7.834 2.485 13.192-.995 18.314-10.401 15.308-26.115 12.916-35.833 13.64-5.74.425-9.415-.085-9.415-.085l-.625-5.908-.54-5.114c-.4.048-.805.09-1.215.129l1.292 12.237z"/></g></g><g><path fill="#371a45" d="M108.37 141.973c-3.073 0-4.938-.248-5.098-.271a1.2 1.2 0 1 1 .33-2.376c.08.012 8.247 1.085 19.031-1.438 9.916-2.321 24.152-8.253 35.669-23.337.847-1.11 2.517-1.874 4.285-2.682 2.026-.927 4.322-1.978 4.83-3.353.187-.507.123-1.088-.196-1.777-.466-1.006-1.785-1.29-1.868-1.307a1.192 1.192 0 1 1-.248-2.29c.226-.098 1.955-.92 1.523-2.852-.144-.645-.48-1.114-1.055-1.474-1.969-1.234-5.918-.675-7.274-.355a1.199 1.199 0 0 1-1.145-1.993c.027-.028 2.695-2.868 3.26-5.39.322-1.443-.79-2.691-1.476-2.954-.743-.286-2.317-.273-5.59 1.409-2.485 1.277-5.19 3.125-7.365 4.61-.445.304-.87.595-1.274.867-3.989 2.692-6.576 6.184-9.316 9.882-2.96 3.997-6.023 8.13-11.074 11.556-5.687 3.857-13.106 6.185-22.682 7.116a1.2 1.2 0 0 1-.232-2.387c20.408-1.985 26.332-9.98 32.061-17.713 2.74-3.697 5.572-7.521 9.902-10.442.4-.27.821-.558 1.262-.86 2.23-1.522 5.003-3.418 7.621-4.763 3.354-1.723 5.752-2.204 7.547-1.515 1.883.724 3.52 3.194 2.956 5.718-.326 1.458-1.14 2.923-1.937 4.094l.173-.011c2.5-.14 4.47.23 5.856 1.098 1.123.704 1.837 1.708 2.122 2.984.414 1.853-.205 3.26-1.057 4.22.568.4 1.123.96 1.486 1.744.592 1.28.683 2.496.27 3.617-.855 2.31-3.632 3.58-6.083 4.702-1.422.65-2.893 1.323-3.377 1.957-5.286 6.923-11.565 12.583-18.664 16.824-5.68 3.394-11.893 5.889-18.464 7.416-6 1.394-11.16 1.726-14.71 1.726z"/></g><g><path fill="#fff" d="M2.888 162.746c5.404 6.362 13.267-1.24 13.267-1.24s5.99 16.633 18.576 20.086c10.575 2.9 23.69-4.053 23.69-4.053s44.772 12.426 54.43-36.94c.66-3.385 1.159-7.062 1.465-11.051.237-3.067.358-6.321.359-9.774a162.223 162.223 0 0 0-.11-5.574l-37.12-3.351-4.277-.383-1.068-.097c-.06.238-.121.474-.184.71-1.84 6.728-5.46 11.823-9.338 15.88-4.92 5.153-10.255 8.634-12.89 11.659a34.915 34.915 0 0 0-3.44 4.676c-1.53 2.485-2.18 4.248-2.18 4.248-1.631 1.29-6.806 5.022-11.08 2.23-1.481-.97-2.485-2.613-3.368-4.406-1.565-3.17-2.756-6.8-5.572-7.98-4.065-1.703-8.732-.16-12.617 2.693-2.425 1.78-4.545 4.076-6.023 6.41-2.551 4.022-6.47 11.612-2.52 16.257z"/></g><g opacity=".35"><g opacity=".35"><path fill="#371a45" d="M1.975 161.363c.241.484.542.947.913 1.382 5.404 6.363 13.267-1.24 13.267-1.24s5.991 16.633 18.576 20.086c10.575 2.901 23.69-4.053 23.69-4.053s43.571 12.093 54.02-34.977c-10.526 32.986-39.504 31.132-49.182 29.513a11.247 11.247 0 0 0-6.175.703c-4.482 1.861-13.23 4.737-20.708 2.686-12.585-3.453-15.693-19.728-21.122-21.104-1.269-.322-3.79 13.358-13.279 7.004z"/></g></g><g><path fill="#371a45" d="M40.36 183.499c-2.135 0-4.126-.251-5.945-.75-3.048-.836-5.97-2.467-8.686-4.85-2.142-1.878-4.162-4.225-6.003-6.977a48.25 48.25 0 0 1-4.065-7.441c-1.613 1.22-4.502 3.003-7.617 3.003-.13 0-.26-.004-.393-.01-2.196-.107-4.106-1.1-5.679-2.95-2-2.355-2.478-5.535-1.42-9.453.675-2.5 1.967-5.268 3.841-8.225 2.132-3.364 5.31-6.38 8.717-8.272 1.891-1.05 3.78-1.714 5.61-1.974 2.065-.293 4.013-.064 5.79.68 2.754 1.153 4.1 4.072 5.401 6.894 1.023 2.22 2.081 4.515 3.734 5.595 1.493.976 3.33 1.074 5.46.293 1.272-.467 2.638-1.248 3.968-2.267.464-1.123 2.18-4.91 5.712-8.964 1.301-1.495 3.162-3.04 5.317-4.828 5.913-4.906 14.01-11.627 16.834-22.925a1.199 1.199 0 1 1 2.327.582c-3.014 12.06-11.46 19.07-17.629 24.189-2.075 1.722-3.866 3.209-5.04 4.557-3.823 4.388-5.387 8.512-5.402 8.553l-.117.313-.263.21c-1.605 1.27-3.293 2.249-4.88 2.832-2.84 1.04-5.468.856-7.599-.537-2.23-1.458-3.435-4.071-4.6-6.6-1.16-2.515-2.256-4.892-4.15-5.684-5.707-2.39-13.353 2.623-17.164 8.637-1.745 2.753-2.94 5.299-3.552 7.566-.839 3.11-.526 5.558.933 7.274 1.14 1.342 2.436 2.03 3.961 2.108 3.744.189 7.522-3.398 7.56-3.434l1.333-1.282.628 1.738c.015.04 1.503 4.115 4.47 8.534 2.683 4 7.17 9.12 13.298 10.802 5.173 1.419 11.067.284 15.101-.92 4.444-1.323 7.675-3.022 7.707-3.04l.422-.222.461.128c.052.013 5.404 1.465 12.644 1.341 6.621-.115 16.236-1.616 24.446-8.109 12.627-9.986 18.527-28.615 17.537-55.37a1.198 1.198 0 1 1 2.397-.089c.547 14.768-1.01 27.303-4.628 37.256-3.103 8.536-7.758 15.3-13.836 20.1-3.873 3.058-8.35 5.34-13.305 6.778-3.948 1.146-8.206 1.763-12.655 1.834-.292.004-.58.006-.867.006-5.978.001-10.495-.972-11.914-1.319-1.043.518-3.916 1.866-7.675 2.991-2.748.823-5.4 1.353-7.884 1.576-.902.08-1.784.121-2.642.121z"/></g><g><path fill="#fff" d="M142.47 96.803c2.97-4.651 9.292-5.771 10.534-5.533.946.18 3.19 3.208.88 5.036-2.31 1.828-4.23 1.785-4.198 2.7.032.917 1.6 4.177-.922 7.375z"/></g><g><path fill="#371a45" d="M142.133 96.588c.57-1.253 1.47-2.362 2.524-3.273 1.057-.915 2.269-1.638 3.549-2.186a14.717 14.717 0 0 1 3.019-.925 9.352 9.352 0 0 1 1.107-.137l.15-.008c.05-.002.106-.002.159-.002.1-.003.228.004.348.012.074.008.148.018.222.029a2.3 2.3 0 0 1 .313.085c.18.068.319.143.438.217.239.15.418.3.58.456a5.227 5.227 0 0 1 1.093 1.545c.179.38.317.792.39 1.238.076.444.085.926-.02 1.406a3.55 3.55 0 0 1-.588 1.33c-.067.103-.145.188-.22.279-.074.093-.157.168-.238.249-.08.083-.166.149-.251.22l-.064.054c-.021.017-.044.036-.061.048l-.11.08c-.29.216-.591.418-.901.604-.617.372-1.277.676-1.906.928-.312.124-.623.239-.858.342-.114.049-.207.102-.224.109-.003-.001.01-.015.038-.067a.434.434 0 0 0 .053-.238l-.001-.01c-.001-.003-.001 0-.001 0v.006l-.002.004v.01l.002.032c.002.046.012.112.023.182.023.14.054.299.084.462.06.328.118.674.16 1.025a8.403 8.403 0 0 1-.002 2.155 6.588 6.588 0 0 1-.631 2.07 6.61 6.61 0 0 1-1.228 1.71.403.403 0 0 1-.634-.485l.006-.01c.315-.538.574-1.09.734-1.662.08-.285.144-.572.182-.861.036-.29.053-.58.052-.87a7.523 7.523 0 0 0-.065-.872 9.265 9.265 0 0 0-.166-.871c-.07-.293-.153-.584-.245-.891-.045-.154-.092-.312-.14-.49-.022-.09-.046-.183-.067-.3l-.016-.088-.007-.051-.006-.056-.005-.057-.002-.03-.001-.04c-.001-.054 0-.108.003-.161a1.58 1.58 0 0 1 .209-.66c.113-.19.24-.323.36-.432.234-.201.428-.31.604-.407.35-.188.643-.32.928-.46.283-.137.553-.271.812-.417.26-.144.508-.3.75-.46a9.41 9.41 0 0 0 .704-.517l.085-.07c.016-.011.023-.02.033-.028l.029-.027c.037-.037.08-.07.11-.108.069-.072.129-.144.177-.217.096-.146.153-.291.183-.452.009-.04.009-.083.016-.123-.001-.044.005-.086.003-.132-.005-.046-.001-.09-.01-.14l-.006-.07-.013-.074c-.065-.395-.29-.851-.577-1.215a2.458 2.458 0 0 0-.22-.246 1.327 1.327 0 0 0-.182-.155c-.02-.013-.025-.013.004-.004h.003l.01.004a.225.225 0 0 0 .049.013l.015.002a.046.046 0 0 1-.02-.005c-.043-.002-.08-.01-.141-.008-.03-.001-.054-.003-.086-.003l-.095.002a7.366 7.366 0 0 0-.837.078c-.29.038-.585.089-.88.152-.294.06-.588.134-.882.209-.293.08-.585.166-.874.26a15.481 15.481 0 0 0-3.323 1.517 12.465 12.465 0 0 0-2.833 2.377l-.004.004a.404.404 0 0 1-.67-.434z"/></g><g><path fill="#fff" d="M112.626 147.631l-13.307 17.522-13.434 1.31-7.104.692s-5.475-2.1-6.798-2.629c-1.794-.714-1.067-2.889-.231-4.094a42.406 42.406 0 0 0 3.484-6.09c1.497-3.179 2.476-6.136 3.383-8.553a4.645 4.645 0 0 1 4.839-3c12.585 1.353 24.969 1.294 24.969 1.294z"/></g><g><path fill="#371a45" d="M78.4 168.148c-.224-.086-5.497-2.11-6.81-2.633-.839-.335-1.41-.937-1.654-1.743-.4-1.33.223-2.91.94-3.945 3.155-4.555 4.806-9.093 6.132-12.738.213-.586.414-1.14.614-1.673a5.707 5.707 0 0 1 5.95-3.683c12.377 1.329 24.726 1.289 24.85 1.289.251-.002.498.087.691.25l4.2 3.546c.431.365.501 1.005.16 1.455l-13.307 17.524a1.06 1.06 0 0 1-.744.415l-20.539 2.002a1.06 1.06 0 0 1-.484-.066zm1.213-21.986c-.197.525-.396 1.073-.608 1.654-1.368 3.76-3.07 8.44-6.38 13.22-.514.743-.795 1.655-.654 2.123.038.123.115.265.406.382 1.145.456 5.49 2.125 6.55 2.533l19.827-1.932 12.415-16.351-3.13-2.644c-2.22-.005-13.443-.092-24.695-1.301a3.587 3.587 0 0 0-3.731 2.316z"/></g><g opacity=".3"><g opacity=".3"><path fill="#371a45" d="M85.885 166.463l-7.104.693s-5.475-2.1-6.797-2.63c-1.371-.544-1.271-1.944-.775-3.11a5.64 5.64 0 0 1 .543-.984 42.354 42.354 0 0 0 3.485-6.09c.287.9 1.135-.036 3.384-.737 2.662-.83 3.946-3.084 5.504-3.615 4.544-1.552 2.908 11.4 1.76 16.473z"/></g></g><g><path fill="#fff" d="M104.2 159.038c-.62 1.675-1.2 3.812-1.2 3.812s-3.514-.93-3.79-1.031c-.91-.337-.928-2.556-.04-4.956.888-2.401 2.346-4.074 3.257-3.737.666.247 3.496.963 3.496.963s-1.485 4.305-1.723 4.949z"/></g><g><path fill="#fff" d="M106.609 159.264c-.888 2.4-2.591 3.983-3.803 3.534-1.213-.448-1.476-2.758-.588-5.158.888-2.401 2.591-3.983 3.803-3.535 1.213.449 1.476 2.759.588 5.159z"/></g><g><path fill="#fff" d="M112.305 148.586c-.956 1.711-2.465 4.435-4.134 7.24-2.39 4.01-5.1 8.18-6.968 9.75-3.25 2.734-14.96 2.575-22.424 1.58-1.96-.263-3.085-2.319-1.986-3.964a92.864 92.864 0 0 0 4.596-7.705 100.96 100.96 0 0 0 2.736-5.497 3.082 3.082 0 0 1 3.264-1.759c11.81 1.785 20.243.113 23.922-.913.748-.209 1.373.588.994 1.268z"/></g><g opacity=".3"><g opacity=".3"><path fill="#371a45" d="M105.09 160.737c-1.154 1.72-2.27 3.224-3.232 4.219a8.145 8.145 0 0 1-.656.62c-3.25 2.735-14.96 2.575-22.423 1.579-1.96-.261-3.085-2.317-1.986-3.962a92.864 92.864 0 0 0 4.595-7.705c.38 2.116 2.07 6.68 9.56 8.27 1.94.41 3.967.157 5.972-.514-.289-.908-.118-2.536.518-4.255.887-2.401 2.347-4.073 3.257-3.737.557.207 2.622.739 3.289.91.104.01.207.033.307.07.643.236 1.018 1.002 1.098 2.024.055.73-.04 1.589-.298 2.48z"/></g></g><g opacity=".3"><g opacity=".3"><path fill="#371a45" d="M105.09 160.737c.259-.892.354-1.751.299-2.481a50.254 50.254 0 0 0 2.782-2.431 109.14 109.14 0 0 1-3.08 4.912z"/></g></g><g><path fill="#371a45" d="M78.638 168.209c-1.354-.18-2.485-1.002-3.026-2.2-.508-1.122-.4-2.364.296-3.406 3.495-5.231 6.043-10.425 7.25-13.055a4.166 4.166 0 0 1 4.39-2.366c11.46 1.73 19.627.186 23.475-.888a1.931 1.931 0 0 1 2.041.667c.485.616.552 1.458.17 2.143l-.233.416c-2.563 4.596-7.896 14.16-11.115 16.869-1.668 1.403-5.123 2.223-10.272 2.437-.85.036-1.74.053-2.654.053-3.369 0-7.065-.235-10.322-.67zm6.452-17.774c-1.234 2.687-3.838 7.996-7.414 13.349a1.353 1.353 0 0 0-.127 1.35c.236.524.748.885 1.37.968 8.305 1.108 18.924.91 21.598-1.34 2.921-2.457 8.322-12.142 10.628-16.278l.013-.023c-4.174 1.109-12.49 2.55-23.928.823a2.03 2.03 0 0 0-2.14 1.151z"/></g><g><path fill="#22a7f0" d="M104.2 159.038c-.62 1.675-1.2 3.812-1.2 3.812s-3.514-.93-3.79-1.031c-.91-.337-.928-2.556-.04-4.956.888-2.401 2.346-4.074 3.257-3.737.666.247 3.496.963 3.496.963s-1.485 4.305-1.723 4.949z"/></g><g opacity=".8"><g opacity=".8"><path fill="#fff" d="M105.922 154.09s-1.485 4.302-1.72 4.948c-.622 1.674-1.202 3.812-1.202 3.812l-.189-.049c.215-.698.482-1.535.757-2.278.24-.646 1.725-4.95 1.725-4.95s-2.832-.717-3.499-.962c-.737-.275-1.84.777-2.705 2.471l.08-.219c.888-2.4 2.346-4.074 3.258-3.737.667.246 3.495.963 3.495.963z"/></g></g><g opacity=".3"><g opacity=".3"><path fill="#371a45" d="M103.92 159.841c-.505 1.483-.92 3.009-.92 3.009s-3.513-.93-3.789-1.032c-.91-.336-.929-2.554-.043-4.955.3-.809.664-1.538 1.052-2.133-.617 2.087-.512 3.884.297 4.184.22.079 2.481.682 3.403.927z"/></g></g><g><path fill="#371a45" d="M102.773 163.706c-1.068-.283-3.585-.951-3.87-1.056-1.703-.631-1.486-3.601-.564-6.095.466-1.26 1.099-2.384 1.783-3.17 1.18-1.352 2.143-1.263 2.612-1.09.51.19 2.632.739 3.406.935a.883.883 0 0 1 .62 1.148c-.06.176-1.49 4.322-1.73 4.967-.598 1.618-1.17 3.716-1.175 3.737a.888.888 0 0 1-1.082.624zm-.388-1.936c.23-.788.597-1.992.984-3.04.165-.445.955-2.724 1.404-4.022-.881-.23-2.12-.561-2.61-.735-.335.078-1.37 1.054-2.163 3.197-.79 2.133-.643 3.545-.441 3.83.299.092 1.534.426 2.826.77zm1.815-2.732"/></g><g><path fill="#22a7f0" d="M106.609 159.264c-.888 2.4-2.591 3.983-3.803 3.534-1.213-.448-1.476-2.758-.588-5.158.888-2.401 2.591-3.983 3.803-3.535 1.213.449 1.476 2.759.588 5.159z"/></g><g opacity=".8"><g opacity=".8"><path fill="#fff" d="M106.608 159.263c-.059.157-.12.31-.185.457.41-1.91.055-3.553-.945-3.925-1.134-.419-2.698.938-3.622 3.08a9.48 9.48 0 0 1 .361-1.235c.888-2.4 2.592-3.984 3.803-3.534 1.213.447 1.477 2.757.588 5.157z"/></g></g><g opacity=".3"><g opacity=".3"><path fill="#371a45" d="M106.529 159.468c-.905 2.286-2.545 3.765-3.724 3.33-1.212-.448-1.474-2.757-.588-5.157.465-1.255 1.15-2.286 1.874-2.921a4.805 4.805 0 0 0-.077.199c-.886 2.4-.624 4.71.59 5.158.576.215 1.265-.034 1.925-.61z"/></g></g><g><path fill="#371a45" d="M102.498 163.63c-1.725-.64-2.203-3.347-1.11-6.298.475-1.288 1.19-2.417 2.007-3.177.975-.907 2.017-1.219 2.933-.88 1.725.638 2.203 3.345 1.111 6.296-.476 1.29-1.189 2.417-2.007 3.177-.72.668-1.474 1.014-2.188 1.014-.255 0-.505-.044-.746-.133zm2.102-8.177c-.609.566-1.175 1.475-1.552 2.494-.377 1.018-.539 2.076-.444 2.903.067.59.267 1.028.508 1.117.243.09.68-.113 1.114-.517.61-.566 1.175-1.475 1.552-2.493.377-1.019.54-2.077.444-2.904-.067-.589-.266-1.028-.508-1.117a.37.37 0 0 0-.128-.02c-.25 0-.62.197-.986.537z"/></g><g><path fill="#371a45" d="M87.473 168.688a.884.884 0 0 1-.767-1.327l4.21-7.331-2.015-1.802a.887.887 0 0 1-.222-1.012l3.758-8.696a.885.885 0 1 1 1.626.703l-3.505 8.11 2.074 1.856a.884.884 0 0 1 .177 1.1l-4.567 7.954a.886.886 0 0 1-.769.445z"/></g><g><path fill="#371a45" d="M31.698 181.52c-.274 0-.548-.105-.756-.316-2.305-2.333-3.62-5.486-3.907-9.37-.223-3.017.173-6.485 1.178-10.307 1.692-6.437 4.496-11.616 4.615-11.834a1.063 1.063 0 0 1 1.866 1.02c-.036.064-2.815 5.207-4.435 11.392-1.453 5.546-2.251 13.103 2.195 17.605a1.063 1.063 0 0 1-.756 1.81z"/></g><g><path fill="#371a45" d="M137.356 134.841a.94.94 0 0 1-.075-.003c-5.862-.406-10.005-4.144-11.979-10.809-1.439-4.859-1.215-9.526-1.205-9.723a1.063 1.063 0 0 1 2.123.111c-.004.077-.208 4.559 1.134 9.055 1.729 5.791 5.118 8.902 10.074 9.246a1.062 1.062 0 0 1-.072 2.123z"/></g><g><path fill="#371a45" d="M166.077 105.18a8.57 8.57 0 0 1-.532.351c-.089.058-.185.105-.279.155-.094.05-.19.096-.285.144-.189.098-.39.171-.586.252-.198.082-.4.143-.602.207-.809.251-1.63.367-2.408.463-.78.094-1.527.17-2.273.294-.748.12-1.494.292-2.268.496h-.002a.157.157 0 0 1-.148-.264 9.17 9.17 0 0 1 2.001-1.429c.73-.393 1.502-.696 2.242-.965.741-.267 1.44-.525 2.11-.78.166-.069.337-.125.5-.197l.248-.098.125-.047c.041-.017.081-.036.122-.052.164-.07.332-.13.497-.199.166-.069.333-.135.508-.19l.077-.025a1.071 1.071 0 0 1 1.342.7c.141.448-.03.92-.389 1.184z"/></g><g><path fill="#371a45" d="M158.86 97.95l-.076.126a3.691 3.691 0 0 1-.202.298c-.092.126-.19.243-.29.358a7.32 7.32 0 0 1-.632.637c-.44.4-.925.743-1.418 1.069a18.5 18.5 0 0 1-1.526.905c-.264.136-.53.269-.8.393a11.716 11.716 0 0 1-.838.342.16.16 0 0 1-.205-.098.161.161 0 0 1 .012-.136l.002-.002a12.49 12.49 0 0 1 .492-.75c.168-.245.34-.481.515-.714.347-.468.703-.92 1.059-1.364.358-.442.709-.884 1.085-1.29a12.742 12.742 0 0 1 .868-.86c.05-.044.098-.087.149-.128l.073-.06.034-.025.018-.012c.005-.003.006-.002.01-.003l.509-.16a1.004 1.004 0 0 1 1.16 1.475z"/></g><g><path fill="#fff" d="M44.782 145.343c4.97 16.131 30.775 18.735 33.239 10.444.833-2.805-1.436-4.563-1.436-4.563s-21.854.09-27.586-13.637c0 0-5.94 2.164-4.217 7.756z"/></g><g opacity=".3"><g opacity=".3"><path fill="#371a45" d="M44.782 145.342c4.972 16.132 30.777 18.736 33.24 10.445a4.08 4.08 0 0 0-.138-2.803c-5.09 8.23-30.44 2.354-31.757-12.677-.02-.23-.125-.436-.17-.645-1.132 1.247-1.97 3.097-1.175 5.68z"/></g></g><g><path fill="#371a45" d="M53.885 157.786c-5.165-2.911-8.71-7.092-10.25-12.089-1.068-3.467.374-5.822 1.77-7.187 1.439-1.404 3.113-2.024 3.184-2.05a1.2 1.2 0 0 1 1.517.665c2.222 5.322 7.303 9.109 15.1 11.257 5.957 1.64 11.32 1.644 11.375 1.643h.004c.266 0 .525.088.735.251.119.092 2.905 2.302 1.85 5.853-1.006 3.386-5.074 5.424-10.881 5.454h-.126c-4.796 0-9.992-1.381-14.278-3.797zm-6.851-17.512c-1.317 1.316-1.678 2.858-1.106 4.716 2.847 9.237 13.554 14.194 22.234 14.194h.114c4.624-.023 7.917-1.456 8.595-3.738.439-1.477-.332-2.562-.766-3.029-1.495-.035-6.206-.262-11.48-1.707-3.714-1.018-6.933-2.433-9.567-4.206-2.962-1.994-5.188-4.445-6.632-7.297a7.167 7.167 0 0 0-1.392 1.067z"/></g><g><path fill="#fff" d="M4.637 132.041s-.301 2.026.852 3.565c.577.77 1.51 1.586 2.632 2.39.998.716 2.139 1.421 3.31 2.082 2.586 1.455 5.315 2.684 6.925 3.277 3.386 1.25 7.243 1.885 11.264 2.011 5.496.172 11.297-.608 16.629-2.072 5.01-1.377 9.606-3.36 13.133-5.73l2.507-3.71 3.427-5.068 12.13-17.938 2.756-4.074c-.121.07-2.794 1.594-7.034 3.691-.405.2-.821.404-1.252.613-4.818 2.337-11.303 5.224-18.258 7.59-10.828 3.687-22.804 6.117-31.43 3.258-10.044-3.33-14.788-5.767-17.302-3.11-2.551 2.694.52 6.288.52 6.288s-2.217 1.576-2.231 3.858c-.014 1.81 1.422 3.08 1.422 3.08z"/></g><g opacity=".35"><g opacity=".35"><path fill="#371a45" d="M18.342 129.443s.094.577.55 1.473c-.292-.889-.55-1.473-.55-1.473z"/></g></g><g opacity=".35"><g opacity=".35"><path fill="#371a45" d="M8.121 137.996c.997.716 2.14 1.421 3.31 2.082 2.586 1.455 5.315 2.684 6.925 3.277 3.386 1.248 7.243 1.885 11.264 2.011 5.496.172 11.297-.608 16.63-2.072 5.01-1.377 9.605-3.36 13.131-5.73.788-1.166-.356-2.664-1.687-2.209-6.849 2.337-18.065 5.625-23.867 4.375-10.267-2.215-13.773-6.544-14.935-8.814.85 2.56 1.985 7.65-1.938 8.558-1.5.35-6.077-.317-8.833-1.478z"/></g></g><g><path fill="#371a45" d="M80.403 107.119a19.3 19.3 0 0 1-1.073.868c-.365.277-.735.544-1.11.804a42.943 42.943 0 0 1-2.291 1.479c-1.555.939-3.164 1.775-4.786 2.585-3.244 1.622-6.603 3.002-9.982 4.323a212.106 212.106 0 0 1-5.095 1.919c-1.71.614-3.433 1.194-5.171 1.733-3.476 1.075-7.013 1.992-10.62 2.642a58.175 58.175 0 0 1-5.46.735c-1.836.155-3.69.216-5.551.137l-.698-.042-.35-.021-.348-.031-.698-.066c-.233-.024-.465-.058-.698-.087-.466-.053-.93-.14-1.393-.216a6.092 6.092 0 0 1-.348-.067l-.346-.073-.347-.073-.173-.037-.172-.044-.69-.176-.171-.046-.17-.052-.341-.104c-.467-.137-.883-.283-1.315-.426-.857-.29-1.713-.581-2.565-.877-1.706-.59-3.403-1.195-5.09-1.753a46.17 46.17 0 0 0-2.518-.765c-.208-.055-.416-.111-.622-.158-.208-.052-.413-.094-.618-.137a11.034 11.034 0 0 0-1.2-.18 5.392 5.392 0 0 0-1.096.008 2.608 2.608 0 0 0-.888.258 2.325 2.325 0 0 0-.693.556 2.49 2.49 0 0 0-.467.77c-.1.274-.14.569-.133.885.008.316.075.653.182.994.11.34.262.685.448 1.019a7.22 7.22 0 0 0 .545.835l.069.086.783.988-1 .77-.055.04-.075.062a5.9 5.9 0 0 0-.455.424 5.26 5.26 0 0 0-.524.634c-.306.44-.515.905-.587 1.354-.01.057-.018.113-.021.169-.008.056-.008.112-.01.168a.45.45 0 0 0 0 .082l.004.083.003.082c.002.028.008.055.01.083.01.055.012.11.026.166l.038.167c.035.11.066.224.115.335.09.224.213.447.359.66l.055.079.059.078c.038.052.08.1.12.15.042.049.085.099.127.142.02.023.04.045.06.064l.028.027.01.01.394 1.076v-.002.003l-.002.017a.363.363 0 0 0-.004.039l-.007.087a5.604 5.604 0 0 0-.008.187c-.002.063 0 .128-.001.192l.007.193c.014.257.052.51.107.752.024.122.064.236.097.353.043.11.079.225.13.327.045.11.106.204.159.304.028.049.062.092.093.138l.045.07c.015.023.039.049.058.074.315.402.728.807 1.178 1.186.45.382.937.746 1.439 1.096 1.008.7 2.08 1.343 3.175 1.95a56.597 56.597 0 0 0 5.073 2.483c.287.122.575.24.862.354.287.115.569.22.862.318.29.099.579.202.872.296l.886.26.22.066.226.056.449.113.449.112c.15.037.303.065.454.097 2.419.527 4.913.773 7.412.838.626.004 1.252.02 1.879.002l.469-.008c.157-.002.314-.004.47-.013l.94-.042a54.251 54.251 0 0 0 3.752-.33 58.847 58.847 0 0 0 7.409-1.393 41.248 41.248 0 0 0 3.603-1.101l.222-.077.22-.082.44-.165c.294-.11.589-.215.879-.332.29-.114.583-.227.876-.337.29-.115.579-.233.87-.345.147-.057.294-.111.438-.17l.434-.175.436-.172.219-.085.216-.09c.288-.12.577-.237.87-.35.288-.12.577-.24.87-.352.295-.11.582-.234.878-.345.147-.057.294-.114.444-.168.075-.026.147-.057.22-.086l.222-.086c.148-.058.298-.112.448-.167.075-.028.152-.053.227-.08.077-.026.15-.057.226-.084.3-.112.607-.218.926-.311l.017-.004a.414.414 0 0 1 .429.668c-.22.255-.452.497-.69.733-.118.12-.243.23-.368.34-.125.109-.25.219-.378.326-.253.219-.518.418-.786.612-.268.197-.537.393-.818.567-.28.178-.56.353-.844.522-.288.16-.578.318-.87.473l-.22.117c-.072.037-.146.073-.22.109l-.445.216-.448.21c-.148.073-.301.133-.452.199-1.206.534-2.457.946-3.71 1.335l-.943.282c-.314.093-.631.176-.946.265l-.473.134c-.158.044-.316.084-.474.127l-.95.253a61.403 61.403 0 0 1-7.713 1.45c-1.3.165-2.607.27-3.916.345l-.984.043c-.163.009-.327.012-.492.014l-.492.009c-.656.019-1.314.002-1.971-.003-2.63-.07-5.267-.326-7.865-.891-.163-.035-.326-.066-.487-.105l-.485-.121-.484-.121-.242-.061-.241-.07-.96-.283c-.32-.103-.634-.215-.951-.323a17.17 17.17 0 0 1-.944-.348 41.946 41.946 0 0 1-.918-.378 59.383 59.383 0 0 1-5.297-2.591 39.577 39.577 0 0 1-3.381-2.08 21.326 21.326 0 0 1-1.622-1.236 10.693 10.693 0 0 1-1.523-1.547c-.03-.04-.06-.073-.09-.116l-.088-.13c-.06-.087-.12-.173-.174-.262-.101-.181-.208-.361-.287-.55-.09-.185-.156-.375-.225-.565-.058-.191-.12-.382-.16-.574a6.934 6.934 0 0 1-.163-1.152l-.01-.288c0-.096-.002-.192 0-.29a5.937 5.937 0 0 1 .026-.445l.008-.081.005-.043.008-.058.392 1.075c-.041-.037-.057-.054-.081-.076l-.063-.062a4.112 4.112 0 0 1-.114-.118c-.075-.078-.142-.157-.211-.236-.066-.081-.133-.16-.195-.244l-.094-.124-.09-.128a5.858 5.858 0 0 1-.604-1.115 5.816 5.816 0 0 1-.212-.621l-.074-.326c-.024-.11-.035-.223-.052-.334-.007-.056-.015-.112-.02-.168l-.008-.17-.007-.171a4.724 4.724 0 0 1 .062-.84c.07-.442.205-.861.375-1.252s.38-.751.612-1.085a7.932 7.932 0 0 1 1.418-1.535l.12-.098.066-.05.082-.061-.216 1.758-.08-.096-.063-.082a7.407 7.407 0 0 1-.343-.48 8.915 8.915 0 0 1-1.038-2.11 6.13 6.13 0 0 1-.295-1.655 4.822 4.822 0 0 1 .275-1.77 4.881 4.881 0 0 1 .913-1.53 4.73 4.73 0 0 1 1.406-1.115 5.011 5.011 0 0 1 1.687-.506 7.792 7.792 0 0 1 1.598-.017c1.016.092 1.949.307 2.856.547.907.242 1.782.52 2.649.805 1.732.572 3.426 1.178 5.124 1.765.848.294 1.696.583 2.545.87.423.14.856.29 1.254.406l.305.094.152.046c.05.015.103.027.154.04l.62.159.155.04.156.033.315.066.314.067c.104.022.209.044.315.06.424.07.846.15 1.275.198.214.026.427.059.642.08l.646.06c.108.01.215.022.323.03l.325.019.65.039c1.737.075 3.489.018 5.24-.13 1.75-.146 3.5-.392 5.24-.706 3.483-.627 6.93-1.52 10.333-2.572a122.596 122.596 0 0 0 5.07-1.7 112.851 112.851 0 0 0 5-1.918l1.237-.517 1.23-.531a205.21 205.21 0 0 0 2.45-1.091l4.882-2.22c1.63-.734 3.25-1.491 4.9-2.193a88.112 88.112 0 0 1 2.497-1.021c.42-.163.842-.325 1.267-.48.425-.154.856-.305 1.287-.443l.005-.001a.407.407 0 0 1 .393.695z"/></g><g><path fill="#fff" d="M138.212 100.288c-27.663 57.22-108.479 21.647-87.923-36.005 26.928-59.244 110.43-22.394 87.923 36.005z"/></g><g><path fill="#fff" d="M138.212 100.288c-27.663 57.22-108.479 21.647-87.923-36.005 26.928-59.244 110.43-22.394 87.923 36.005z"/></g><g opacity=".35"><g opacity=".35"><path fill="#371a45" d="M52.232 118.385a48.55 48.55 0 0 0 9.064 8.425 51.53 51.53 0 0 0 2.782 1.857c11.207 6.954 25.134 9.486 38.1 5.914a43.944 43.944 0 0 0 11.69-5.14c.24-3.117.365-6.424.365-9.932a162.533 162.533 0 0 0-.11-5.665l-37.72-3.404 2.8-4.14c-.122.069-2.838 1.619-7.147 3.75l-1.085-.1c-.061.244-.122.483-.187.723-4.896 2.375-11.485 5.308-18.552 7.712z"/></g></g><g><path fill="#fff" d="M138.212 100.288c-27.663 57.22-108.479 21.647-87.923-36.005 26.928-59.244 110.43-22.394 87.923 36.005z"/></g><g><path fill="#371a45" d="M76.055 126.257a50.715 50.715 0 0 1-14.727-9.397c-4.45-4.077-8.013-8.818-10.59-14.09-5.709-11.685-6.147-25.094-1.267-38.78l.027-.067c6.321-13.907 16.228-23.589 28.649-27.999 5.583-1.982 11.502-2.843 17.593-2.559 5.858.274 11.633 1.59 17.167 3.911 5.552 2.33 10.577 5.551 14.936 9.576 4.506 4.162 8.087 8.993 10.645 14.36 5.685 11.925 5.87 25.546.535 39.389l-.029.066c-6.501 13.448-16.419 22.793-28.68 27.023-4.823 1.665-9.896 2.493-15.022 2.493-6.456 0-12.997-1.314-19.237-3.925zm.671-1.603c5.871 2.458 12.288 3.83 18.776 3.83 15.801 0 32.033-8.134 41.912-28.542 11.495-29.873-4.99-52.593-25.179-61.063-19.993-8.388-47.648-3.912-61.14 25.73-10.497 29.492 5.924 51.797 25.631 60.046zm61.486-24.365h.001"/></g><g opacity=".35"><g opacity=".35"><path fill="#371a45" d="M138.212 100.287c-23.033 49.837-93.987 30.606-91.116-22.084 4.6 16.582 10.483 16.75 20.118 24.56 29.73 25.793 70.754 1.37 73.206-33.16 2.74 10.342 1.834 21.137-2.208 30.684z"/></g></g><g><path fill="#293856" d="M75.92 126.58a51.032 51.032 0 0 1-14.829-9.462c-4.482-4.106-8.071-8.882-10.667-14.195-5.751-11.77-6.195-25.274-1.283-39.05l.017-.047.021-.048c6.362-13.994 16.338-23.74 28.851-28.183 5.626-1.998 11.59-2.866 17.726-2.579 5.899.275 11.715 1.6 17.286 3.937 5.59 2.345 10.65 5.59 15.038 9.642 4.539 4.191 8.147 9.058 10.724 14.465 5.727 12.016 5.916 25.732.545 39.666l-.018.047-.022.046c-6.543 13.533-16.53 22.94-28.881 27.201a46.37 46.37 0 0 1-15.136 2.512c-6.502 0-13.089-1.323-19.372-3.953zm.941-2.248c20.015 8.377 46.394 4.038 60.232-24.528 11.399-29.65-4.959-52.197-24.994-60.602-19.838-8.323-47.281-3.876-60.679 25.539-10.41 29.268 5.885 51.405 25.441 59.59zm61.351-24.043h.001"/></g><g><path fill="#371a45" d="M75.92 126.58a51.032 51.032 0 0 1-14.829-9.462c-4.482-4.106-8.071-8.882-10.667-14.195-5.751-11.77-6.195-25.274-1.283-39.05l.017-.047.021-.048c6.362-13.994 16.338-23.74 28.851-28.183 5.626-1.998 11.59-2.866 17.726-2.579 5.899.275 11.715 1.6 17.286 3.937 5.59 2.345 10.65 5.59 15.038 9.642 4.539 4.191 8.147 9.058 10.724 14.465 5.727 12.016 5.916 25.732.545 39.666l-.018.047-.022.046c-6.543 13.533-16.53 22.94-28.881 27.201a46.37 46.37 0 0 1-15.136 2.512c-6.502 0-13.089-1.323-19.372-3.953zm.941-2.248c20.015 8.377 46.394 4.038 60.232-24.528 11.399-29.65-4.959-52.197-24.994-60.602-19.838-8.323-47.281-3.876-60.679 25.539-10.41 29.268 5.885 51.405 25.441 59.59zm61.351-24.043h.001"/></g><g><path fill="#293856" d="M132.068 110.798c-43.515 34.93-91.904-14.747-60.472-52.148 37.752-39.753 93.131 5.723 60.472 52.148z"/></g><g><path fill="#21102b" d="M140.063 76.257c7.411 49.886-63.375 64.345-77.636 19.849 26.75 23.568 67.743 6.235 77.636-19.85z"/></g><g><path fill="#371a45" d="M86.276 126.454a45.865 45.865 0 0 1-13.722-7.325c-4.238-3.29-7.797-7.224-10.576-11.692A42.663 42.663 0 0 1 56.14 92.14c-1.014-5.827-.844-11.909.505-18.08l.007-.03c1.551-6.314 4.49-12.193 8.736-17.476 4.005-4.983 9.156-9.316 14.894-12.529 5.755-3.222 12.164-5.354 18.534-6.164 6.765-.86 13.365-.285 19.618 1.711l.099.032.092.048c10.547 5.476 18.433 15.13 22.205 27.18 3.563 11.38 3.015 23.755-1.504 33.951l-.004.008c-2.783 6.155-6.317 11.428-10.503 15.673-3.917 3.971-8.393 7.036-13.301 9.11-4.622 1.951-9.554 2.997-14.659 3.11-.306.006-.613.01-.919.01-4.586 0-9.178-.753-13.664-2.239zm.766-2.313c15.664 5.19 38.171 1.927 50.057-24.349 8.303-18.741 2.441-46.465-19.505-57.93-11.558-3.656-24.718-2.095-36.121 4.29-11.389 6.377-19.571 16.744-22.45 28.444-5.381 24.65 10.021 43.581 28.019 49.544zm51.17-23.853h.001"/></g><g><path fill="#371a45" d="M98.801 123.82a41.23 41.23 0 0 1-27.222-12.368c-6.674-6.827-10.65-15.63-11.196-24.792-.602-10.118 2.953-20.075 10.28-28.794l.05-.055c8.926-9.4 19.468-14.763 30.485-15.51 9.905-.67 19.635 2.461 27.397 8.82 7.943 6.507 13.017 15.71 14.286 25.914 1.418 11.402-1.976 23.32-9.816 34.464l-.1.141-.134.108c-9.928 7.97-20.826 12.138-31.66 12.138-.79 0-1.58-.023-2.37-.067zm-25.479-14.072c12.693 12.981 35.488 18.062 57.848.207 16.368-23.398 9.353-45.912-4.119-56.948-13.549-11.099-35.665-13.404-54.546 6.456-15.427 18.382-10.708 38.497.817 50.285zm58.746 1.05h.001"/></g><g><path fill="#fff" d="M42.558 99.083c6.176 21.542 28.286 17.166 24.463-3.994-5.644-22.816-29.279-18.141-24.463 3.994z"/></g><g opacity=".35"><g opacity=".35"><path fill="#371a45" d="M58.784 113.127c6.637-1.262 10.402-10.074 7.977-19.137-2.904 10.227-15.204-4.357-16.532-8.83-16.587 6.638-3.586 30.55 8.555 27.967z"/></g></g><g><path fill="#371a45" d="M49.025 111.678c-3.451-2.626-6.092-6.865-7.638-12.259l-.02-.077c-1.147-5.274-.814-10.012.963-13.702 1.64-3.406 4.406-5.714 7.787-6.5 1.738-.404 3.532-.381 5.333.067 1.84.458 3.595 1.34 5.214 2.623 3.526 2.795 6.134 7.278 7.54 12.966l.017.076c.913 5.057.457 9.584-1.321 13.093-1.648 3.253-4.35 5.463-7.606 6.222-.824.192-1.662.287-2.501.287-2.663 0-5.35-.956-7.768-2.796zm9.715.135c2.542-.592 4.668-2.35 5.985-4.95 1.532-3.023 1.913-7.005 1.104-11.52-1.279-5.141-3.588-9.152-6.68-11.603-2.64-2.092-5.653-2.883-8.48-2.226-2.649.616-4.83 2.456-6.144 5.183-1.535 3.187-1.806 7.366-.785 12.088 3.064 10.64 9.92 14.212 15 13.028z"/></g><g><path fill="#fff" d="M41.858 100.423c5.023 17.452 21.642 14.453 18.553-2.662-4.538-18.718-22.595-15.439-18.553 2.662z"/></g><g><path fill="#371a45" d="M46.773 110.917c-2.705-2.21-4.81-5.722-6.086-10.156l-.018-.072c-.964-4.317-.788-8.182.51-11.175 1.22-2.816 3.355-4.708 6.009-5.326 2.787-.65 5.852.234 8.407 2.422 2.78 2.38 4.855 6.138 6 10.865l.016.07c.739 4.097.442 7.75-.86 10.562-1.231 2.66-3.305 4.453-5.84 5.045a8.098 8.098 0 0 1-1.844.212c-2.143 0-4.324-.84-6.294-2.447zm1.542-1.888c1.94 1.585 4.086 2.206 6.043 1.749 3.416-.798 6.24-5.054 4.86-12.764-2.14-8.775-7.39-12.404-11.477-11.452-1.883.439-3.42 1.83-4.326 3.92-1.088 2.51-1.217 5.844-.375 9.64 1.139 3.939 2.963 7.018 5.275 8.907z"/></g><g opacity=".5"><g opacity=".5"><path fill="#fff" d="M70.03 85.293c3.733 8.664 13.646 4.574 11.682-3.46-3.05-9.992-14.812-5.36-11.682 3.46z"/></g></g><g opacity=".5"><g opacity=".5"><path fill="#fff" d="M77.368 98.701c1.619 3.231 5.989 1.526 4.555-2.148-1.619-3.23-5.989-1.525-4.555 2.148z"/></g></g><g opacity=".5"><g opacity=".5"><path fill="#fff" d="M135.632 80.809c1.563-36.014-35.571-36.031-45.721-27.161 23.636-1.315 35.818 11.86 45.72 27.16z"/></g></g><g opacity=".35"><g opacity=".35"><path fill="#371a45" d="M61.815 101.686c.007-2.555-.687-5.12-1.872-7.397-1.666 12.442-14.448 8.647-18.34.358-.442 18.148 18.708 24.202 20.212 7.04z"/></g></g><g><path fill="#371a45" d="M63.757 81.935c-.559 0-1.242-.171-2.06-.652a1.219 1.219 0 0 1 1.235-2.101c.524.308.773.319.83.317.078-.082.27-.449.322-1.307a8.159 8.159 0 0 0-.03-1.317 1.218 1.218 0 1 1 2.418-.3c.004.036.107.879.041 1.836-.105 1.529-.584 2.583-1.422 3.134-.32.211-.762.39-1.334.39z"/></g><g><path fill="#fff" d="M23.935 123c-7.422-2.116-13.195-1.74-13.918.236-.53 1.45-.08 3.794 2.957 4.803 2.074.688 5.053.561 5.053.561s1.546 4.644 4.031 6.522z"/></g><g><path fill="#371a45" d="M23.606 124.153c-2.038-.546-4.103-.997-6.17-1.228-1.032-.117-2.066-.184-3.072-.154-.502.016-.998.05-1.47.122-.47.07-.923.18-1.28.335a2.46 2.46 0 0 0-.24.12 1.214 1.214 0 0 0-.18.122.78.78 0 0 0-.125.13.025.025 0 0 0-.007.013c0 .003-.002 0-.005.008l-.01.03a2.215 2.215 0 0 0-.113 1.068c.046.368.19.72.407 1.042.22.32.522.606.887.845.731.484 1.675.756 2.68.926.501.085 1.016.147 1.534.189a20.324 20.324 0 0 0 1.171.06l.194.005h.185l.635.006.172.55.065.212.072.22a29.235 29.235 0 0 0 .478 1.324c.225.587.468 1.166.73 1.736a18.19 18.19 0 0 0 .99 1.87c.04.066.081.134.125.199l.13.198.135.193c.184.256.38.507.594.749l.002.002a.101.101 0 0 1-.009.143.103.103 0 0 1-.113.015c-.599-.304-1.132-.74-1.606-1.218a11.468 11.468 0 0 1-1.275-1.563c-.096-.138-.188-.278-.28-.418-.088-.142-.177-.284-.262-.428-.174-.286-.333-.58-.489-.875-.153-.297-.3-.597-.439-.902a23.724 23.724 0 0 1-.2-.461l-.097-.235a5.357 5.357 0 0 1-.095-.246l.807.556-.222.012-.213.01a21.642 21.642 0 0 1-2.971-.094 11.666 11.666 0 0 1-1.739-.318 6.874 6.874 0 0 1-1.737-.712 5.216 5.216 0 0 1-1.514-1.318 4.45 4.45 0 0 1-.715-4.065l.022-.066.034-.087c.023-.06.048-.117.076-.172.028-.057.057-.112.09-.164a2.84 2.84 0 0 1 .542-.654c.156-.141.316-.257.475-.357.16-.1.32-.188.477-.261.632-.295 1.24-.448 1.837-.561.598-.11 1.184-.17 1.765-.198a23.43 23.43 0 0 1 3.423.106c2.246.235 4.44.695 6.571 1.332a1.2 1.2 0 0 1-.652 2.308z"/></g><g><path fill="#371a45" d="M39.457 145.801a1.062 1.062 0 0 1-.717-1.847c3.26-2.98 4.207-7.362 2.814-13.022-1.079-4.384-3.221-7.902-3.242-7.937a1.063 1.063 0 0 1 1.81-1.114c.095.153 2.318 3.797 3.483 8.492.696 2.802.866 5.397.506 7.714-.461 2.967-1.785 5.468-3.937 7.436a1.061 1.061 0 0 1-.717.278z"/></g><g><path fill="#371a45" d="M6.189 124.341c.187.133.365.272.54.415.176.141.352.272.524.413.085.071.173.135.26.2l.259.198c.085.07.175.126.262.19.087.061.172.127.26.19.356.238.712.476 1.1.7.188.114.39.227.59.34l.617.341c.842.456 1.703.953 2.514 1.508.202.141.402.283.601.426.199.145.39.298.584.45l.286.228c.096.078.188.16.28.24.186.158.37.321.549.487a.155.155 0 0 1-.152.261l-.005-.002c-.465-.15-.912-.329-1.365-.485l-.676-.24c-.225-.077-.45-.154-.673-.233-.897-.308-1.786-.582-2.702-.876-.233-.077-.462-.15-.697-.235l-.352-.128c-.118-.04-.237-.095-.355-.142l-.179-.073a2.136 2.136 0 0 1-.178-.078l-.353-.169c-.119-.055-.233-.122-.348-.186-.115-.064-.23-.129-.344-.196-.11-.072-.22-.143-.33-.217l-.164-.11a2.008 2.008 0 0 1-.159-.115c-.204-.16-.418-.315-.608-.487-.095-.087-.192-.172-.285-.26-.094-.087-.19-.173-.275-.266a11.77 11.77 0 0 1-.508-.565 1.067 1.067 0 0 1 1.435-1.557z"/></g><g><path fill="#371a45" d="M5.469 131.379c.209.167.404.306.634.433a5.7 5.7 0 0 0 .789.355c.6.219 1.323.424 2.076.672a17.56 17.56 0 0 1 2.202.91c.708.349 1.393.735 2.047 1.194a.157.157 0 1 1-.105.284h-.003c-.781-.072-1.548-.165-2.305-.255a72.818 72.818 0 0 0-2.237-.241c-.741-.072-1.532-.115-2.39-.366a4.817 4.817 0 0 1-1.297-.584 3.547 3.547 0 0 1-1.075-1.08 1.07 1.07 0 0 1 1.574-1.394z"/></g><g><path fill="#371a45" d="M15.888 149.85a18.797 18.797 0 0 0-.22 2.933c.004.244 0 .487.01.73l.03.728.058.724c.007.12.022.24.037.36l.043.359.043.357.06.356c.04.237.073.473.12.707.103.468.19.934.323 1.39.23.919.562 1.8.908 2.66l.014.035a1.208 1.208 0 1 1-2.307.67c-.19-1.031-.349-2.058-.393-3.09-.04-.512-.033-1.026-.039-1.536.002-.255.017-.51.025-.764l.016-.381.031-.38.032-.378c.01-.126.02-.252.037-.377l.093-.751.121-.744c.041-.248.095-.493.142-.74a19.02 19.02 0 0 1 .816-2.868z"/></g><g opacity=".3"><g opacity=".3"><path fill="#371a45" d="M219.47 146.898c0 1.752-12.59 3.172-28.119 3.172-15.528 0-28.117-1.42-28.117-3.172 0-1.752 12.59-3.171 28.117-3.171 15.53 0 28.118 1.419 28.118 3.17z"/></g></g></g></svg>