<svg width="30" height="31" viewBox="0 0 30 31" fill="none" xmlns="http://www.w3.org/2000/svg">
<path d="M21.09 10.1597L20.14 10.5198L18.14 11.2998H18.04L13.49 13.0598L10.05 14.3797L8.60997 14.9397L7.32994 15.4297C7.14785 15.4991 6.97621 15.5933 6.81993 15.7097C6.50993 15.9597 6.54993 16.2497 6.81993 16.4297C6.98422 16.5179 7.15894 16.585 7.33995 16.6297L10.64 17.6297C10.7675 17.5886 10.8861 17.5242 10.99 17.4397L15.67 14.4397L18.85 12.4397C18.9617 12.3701 19.0887 12.3291 19.22 12.3198C19.28 12.3198 19.36 12.3197 19.38 12.3997C19.3907 12.4321 19.3906 12.4674 19.3797 12.4998C19.3689 12.5322 19.3479 12.5603 19.3199 12.5799L18.72 13.1199L17.72 14.0498L16.04 15.5498L14.76 16.7097L13.13 18.1797L12.79 18.4898C12.72 18.5398 12.72 18.5797 12.79 18.6397L13.56 19.2097L14.75 20.0899C14.75 20.0899 14.84 20.1397 14.84 20.1997C14.84 20.2597 14.95 20.1998 14.99 20.2698L18.34 22.7498C18.5125 22.8814 18.7155 22.9674 18.93 22.9998C19.0401 23.0215 19.1539 23.0115 19.2584 22.9707C19.3629 22.93 19.4537 22.8602 19.52 22.7698C19.628 22.6293 19.7001 22.4645 19.73 22.2898C19.9 21.5298 20.06 20.7698 20.22 20.0098C20.33 19.4898 20.45 19.0097 20.56 18.4397L20.92 16.6297C20.9934 16.3708 21.0468 16.1069 21.0799 15.8399C21.0799 15.8399 21.0799 15.7698 21.0799 15.7298L21.26 14.8897C21.41 14.1797 21.56 13.4598 21.72 12.7498L21.9 11.8599C21.9843 11.5303 22.0511 11.1965 22.1 10.8599C22.1101 10.7358 22.0874 10.6111 22.0342 10.4986C21.9809 10.386 21.899 10.2894 21.7967 10.2185C21.6944 10.1476 21.5753 10.1051 21.4513 10.0947C21.3272 10.0844 21.2026 10.1067 21.09 10.1597Z" fill="#300475"/>
<path d="M13.53 19.3198L14.72 20.1997C14.72 20.1997 14.8101 20.2498 14.8101 20.3098C14.6704 20.4761 14.52 20.6331 14.36 20.7798L13 22.0898C12.9024 22.1821 12.785 22.2507 12.6567 22.2905C12.5285 22.3304 12.3927 22.3405 12.26 22.3198C12.1893 22.3097 12.1239 22.2768 12.0734 22.2263C12.0229 22.1758 11.9901 22.1105 11.98 22.0398L11.35 19.9797C11.13 19.2697 10.91 18.5498 10.7 17.8398C10.6869 17.7887 10.6631 17.7408 10.63 17.6997C10.7575 17.6588 10.8762 17.5944 10.98 17.5098L15.66 14.5098L18.84 12.5098C18.9517 12.4402 19.0787 12.3989 19.21 12.3896C19.27 12.3896 19.35 12.3897 19.37 12.4697C19.3805 12.5022 19.3803 12.5372 19.3695 12.5696C19.3587 12.602 19.338 12.63 19.3101 12.6497L18.71 13.1897L17.71 14.1199L16.03 15.6199L14.75 16.7798L13.12 18.2498L12.78 18.5598C12.71 18.6098 12.71 18.6497 12.78 18.7097L13.53 19.3198Z" fill="#4B09CC"/>
<path d="M15.03 30.0502C22.9387 30.0502 29.35 23.6389 29.35 15.7302C29.35 7.82144 22.9387 1.41016 15.03 1.41016C7.12124 1.41016 0.709961 7.82144 0.709961 15.7302C0.709961 23.6389 7.12124 30.0502 15.03 30.0502Z" stroke="#300475" stroke-miterlimit="10"/>
</svg>
