<svg xmlns="http://www.w3.org/2000/svg" viewBox="0 0 495.75537 234.30371"><path d="M32.80908,15.57617H0V10.605H71.25244v4.97119H38.44287V231.32129H32.80908Z" style="fill:#0c1c2b"/><path d="M136.86621,57.66455V181.94189c0,33.80323-8.94824,52.36182-35.792,52.36182-23.19824,0-35.79151-13.25586-35.79151-51.69922V57.99609c0-40.43164,17.23291-50.37353,36.12305-50.37353S136.86621,16.90186,136.86621,57.66455ZM70.9165,59.65332V180.61621c0,31.15234,7.291,48.7168,30.15772,48.7168,26.18115,0,30.1582-22.53565,30.1582-46.06543V59.32178c0-29.16358-7.291-46.728-30.1582-46.728C82.18408,12.59375,70.9165,24.85547,70.9165,59.65332Z" style="fill:#0c1c2b"/><path d="M182.59277,9.94238h32.80909c48.71679,0,49.04785,34.79737,49.04785,63.96143V164.0459c0,34.13476-4.63965,67.27539-52.03028,67.27539H182.59277ZM195.186,219.72217h15.90771c31.15186,0,40.43115-15.90772,40.43115-51.03662V70.9209c0-30.8208-5.63379-49.3794-39.76855-49.3794H195.186Z" style="fill:#0c1c2b"/><path d="M304.87158,148.80127V178.959c0,20.54737,3.64551,43.41456,24.19287,43.41456,18.227,0,22.53565-13.91944,22.53565-34.13477v-1.65723h12.9248v1.32569c0,21.21-5.30273,46.06543-36.12353,46.06543-26.51221,0-36.123-19.22168-36.123-53.02491V111.35254c0-27.50684,10.605-48.38525,37.11719-48.38525,28.16943,0,35.46045,23.52978,35.46045,48.71679v37.11719Zm47.05957-11.59912V112.67822c0-15.57617-1.32568-38.11181-22.8667-38.11181-21.21,0-24.19287,18.55859-24.19287,38.44287v24.19287Z" style="fill:#0c1c2b"/><path d="M392.36279,9.94238h67.60645V21.5415H404.95605V107.707h51.36817V119.6377H404.95605V231.32129H392.36279Z" style="fill:#0c1c2b"/><path d="M483.16211,0h12.59326V31.81494H483.16211Zm0,65.61865h12.59326V231.32129H483.16211Z" style="fill:#0c1c2b"/></svg>