<svg xmlns="http://www.w3.org/2000/svg" viewBox="0 0 217.41684 29.63086"><path d="M59.99648.00464q1.99719-.00022,3.99437.00042c.46614.00057.55373.08494.46741.54146-.19833,1.04881-.42392,2.09245-.62793,3.14023-.17419.89461-.33138,1.79251-.50037,2.68815-.18758.9942-.38053,1.98739-.57022,2.98119-.24684,1.29316-.49062,2.5869-.7404,3.87949q-.11164.57775-.24976,1.15028c-.07839.32391-.04278.39136.285.394.677.00552,1.35416-.00659,2.03095.00556.29908.00537.41508-.12859.46407-.41023.127-.73055.28289-1.456.41846-2.18519a.41522.41522,0,0,1,.49349-.3795c.71051.01577,1.42186-.0062,2.13235.01009a.40906.40906,0,0,0,.48049-.39169c.12332-.69794.27173-1.3916.38695-2.09077A.45712.45712,0,0,1,68.997,8.885c1.72627.0141,3.45271.00545,5.17909.00751.4672.00056.495.05252.3991.51837-.1452.70536-.27948,1.41308-.40863,2.12157-.07341.40274-.13918.47236-.55144.47415-.69957.003-1.39935.01033-2.09865-.00348-.26891-.00531-.4102.06818-.46242.35413-.13536.74142-.31174,1.47542-.44481,2.2172-.04786.26678-.1645.36341-.42446.36079-.75593-.00759-1.51211.00614-2.2679-.00659-.26931-.00454-.35783.0913-.40622.3595-.22943,1.2717-.491,2.5376-.73712,3.80634-.08132.4193-.14078.843-.22883,1.26077-.05722.27147.05966.33935.30206.33733.69953-.00583,1.39916-.0038,2.09872-.00038.39815.00195.43736.03616.37285.43014-.11442.69874-.24447,1.39506-.3769,2.0907-.07563.39734-.06639.41937.35183.421.677.00256,1.354-.00075,2.031.0017.40934.00148.4776.07406.40051.48379-.21814,1.15935-.44705,2.31668-.672,3.47475-.10516.5413-.21755,1.08132-.314,1.62416a.41847.41847,0,0,1-.48925.41193c-1.76007-.01674-3.52038-.00748-5.28062-.0084-.42977-.00022-.45031-.048-.36109-.47317.20779-.99024.40172-1.98344.59392-2.97686.12821-.66269.2241-1.33226.37312-1.99.07747-.3419-.06175-.38605-.34043-.38208-.643.00915-1.28628.00321-1.92944.00243-.52487-.00064-.59653-.08584-.4964-.59161.13118-.66264.25336-1.32731.40058-1.9864.06457-.289-.01564-.39406-.31041-.38941-.66556.01051-1.33154.01167-1.99706-.00026a.41908.41908,0,0,0-.47594.40526c-.20957,1.10462-.43643,2.206-.647,3.31038-.22745,1.19287-.44249,2.3881-.66592,3.58173-.07238.38673-.1587.77088-.22994,1.1578a.3499.3499,0,0,1-.40429.33835q-4.1805-.01394-8.36107-.00032c-.31393.001-.36668-.12482-.31048-.38953.16361-.7707.32881-1.54124.47595-2.31516.049-.25751.18973-.3253.4244-.32348q1.0493.00811,2.09871-.00107c.4728-.00375.49033-.04191.58078-.50643.19981-1.0261.42672-2.047.62548-3.07325.22673-1.17078.42848-2.34637.65271-3.51766.28971-1.51325.59363-3.02378.88625-4.53648.2027-1.04785.39012-2.09866.5962-3.14583.2476-1.25813.51369-2.51264.76076-3.77088.23183-1.18064.44957-2.364.67286-3.54635.06266-.33176.10877-.66741.18855-.995.07594-.31179-.065-.36574-.33316-.36153-.68812.01079-1.37654.0057-2.06482.0025-.41956-.002-.449-.02209-.37771-.44076.13023-.7648.28562-1.52531.42711-2.28824A.46851.46851,0,0,1,55.9683,0C57.311.01117,58.65374.00478,59.99648.00464Z"/><path d="M139.943,29.62235q-3.52034,0-7.04067-.00024c-.461-.0001-.48508-.04608-.388-.478.15283-.67967.28066-1.36491.4264-2.04623.05472-.25584-.03907-.3502-.29471-.34763-.71076.00715-1.42167.005-2.13247.0002-.42929-.00288-.475-.09306-.37858-.518.13671-.60263.2442-1.21193.36136-1.81893q.30389-1.57446.60447-3.14956c.29523-1.53447.58654-3.06971.88862-4.60282.19765-1.00312.4141-2.00253.61676-3.00469.10241-.50639.1959-1.01465.28748-1.52313.0447-.24816.19228-.32354.43183-.3206.722.00886,1.44441-.00747,2.1662.00774a.40975.40975,0,0,0,.48677-.3844c.12134-.687.26335-1.37032.38679-2.057.079-.43928.12163-.48733.56381-.48739q7.00681-.00088,14.01364.00021c.455.00009.48788.0346.40836.48786-.12419.708-.24636,1.41692-.39942,2.11893-.05835.26759.03511.31858.26294.31734.69952-.00383,1.39908-.0024,2.09865.00011.42356.00152.50484.079.42966.50517-.16395.9295-.348,1.85551-.52851,2.78205-.19366.994-.39378,1.98679-.58906,2.9805q-.28631,1.45673-.568,2.91434c-.19753,1.02759-.3878,2.05659-.58668,3.08392-.15571.80423-.31978,1.60685-.48008,2.4102-.04625.23176-.22166.258-.41268.25824-.71083.00075-1.42228.0187-2.13225-.00585-.35909-.01241-.50838.07656-.55766.46559-.086.67926-.27946,1.34435-.38358,2.02217-.05293.34454-.2182.39661-.52073.39532C144.63676,29.61787,142.28985,29.62235,139.943,29.62235ZM143.34878,12.008c-1.32,0-2.63993.00409-3.95984-.00373-.24082-.00143-.37117.06628-.42015.32032-.30844,1.59992-.63,3.19733-.94376,4.79623-.17973.91581-.3505,1.83337-.53,2.74921-.188.95919-.38218,1.91718-.5727,2.87588-.21476,1.08074-.4194,2.16359-.64661,3.2417-.10535.49989-.03814.61241.46788.61258q3.7737.0012,7.54743-.00008a.68849.68849,0,0,0,.30024-.0167c.12278-.0663.2907-.1668.31489-.27947.24055-1.12031.46049-2.24515.67614-3.37063.19258-1.0052.367-2.01387.55924-3.01913.2491-1.30241.508-2.603.76264-3.90433.23326-1.19214.46166-2.38527.70242-3.5759.08142-.40265.07924-.42487-.33178-.42547Q145.31178,12.00565,143.34878,12.008Z"/><path d="M43.10407,26.75314c-.39484,0-.78972.003-1.18451-.00133-.18745-.00207-.27671.06517-.31206.26557-.13094.7423-.29624,1.47865-.42213,2.2217-.05186.30609-.18463.39088-.49093.39019q-6.70107-.01514-13.4022-.00691c-.29331,0-.58678-.00673-.87988.001-.21774.00573-.28251-.0989-.2436-.29424q.1911-.95925.38467-1.918c.02-.09909.04483-.1972.06476-.2963.05279-.26259-.05087-.36957-.32289-.36565-.69929.01009-1.39886.00632-2.09826.00126-.4095-.003-.45981-.09762-.37962-.49556.24417-1.21165.46844-2.42728.70634-3.64021.20127-1.02619.41476-2.05.61538-3.0763.179-.91548.34357-1.83377.52206-2.74935.19985-1.02517.41131-2.04809.61148-3.07321.09484-.4857.1758-.97412.26183-1.46153a.48484.48484,0,0,1,.58458-.44661c.68709.027,1.37628-.00359,2.064.01309a.41357.41357,0,0,0,.48486-.39006c.12725-.69733.27789-1.39065.392-2.09.05315-.32573.18636-.45564.53016-.455q7.02261.01327,14.04524.00642c.45987.00009.48421.04245.39752.485-.14256.72767-.2658,1.45916-.41243,2.186-.05367.266.11179.25022.272.25087.69943.00282,1.39888.00025,2.09832.00212.45371.00122.52217.06333.43881.52008-.133.72869-.30278,1.45058-.44475,2.17774-.12071.61823-.21674,1.24125-.33662,1.85966-.30389,1.56775-.61815,3.13351-.92217,4.70124-.19486,1.00482-.37558,2.01237-.56891,3.0175-.15267.79367-.31679,1.58513-.47167,2.37839-.04422.22644-.19854.2799-.3969.27982q-.59226-.00024-1.18453,0ZM34.224,26.60051q1.9284,0,3.85681-.00062c.44283-.00061.48834-.04561.56406-.48993.068-.39916.13522-.79862.21314-1.19593.19879-1.01357.405-2.02568.605-3.039.13936-.70612.27315-1.41333.40972-2.12q.35816-1.85319.71637-3.70638c.22731-1.18189.444-2.3659.68228-3.54556.10058-.49783.12038-.495-.39346-.49512-2.46972-.00047-4.93944-.00514-7.40913.00238-.878.00268-.72881-.1643-.92811.81043-.31958,1.563-.6042,3.13313-.90714,4.69957-.17921.92667-.3677,1.85155-.54752,2.7781-.19912,1.026-.39056,2.05357-.59011,3.07953-.17811.91569-.37273,1.82829-.53994,2.74591-.07572.41558-.00781.47552.41119.47607Q32.29557,26.60248,34.224,26.60051Z"/><path d="M120.74413,29.6222c-.90253-.00022-1.80516-.00811-2.70751.00437-.2884.004-.35034-.10936-.29785-.36753.30705-1.51.61466-3.02.909-4.53254.30068-1.5449.582-3.09355.87991-4.639.22763-1.181.47079-2.35893.70168-3.53927.257-1.31344.515-2.62674.75812-3.94277.10987-.59483.094-.59776-.51052-.59775-1.55685,0-3.11376.00657-4.67053-.0056-.30349-.00237-.42478.086-.48458.3996-.40216,2.1095-.835,4.21313-1.246,6.321-.297,1.52345-.56924,3.05171-.86408,4.57559-.29455,1.52237-.60521,3.04163-.905,4.563-.087.44151-.16836.88443-.238,1.32894-.046.29364-.15117.44415-.49734.44056-1.75974-.01824-3.51975-.00778-5.27968-.009-.40169-.00028-.439-.06024-.36022-.45888.26826-1.3573.52732-2.71641.795-4.07383.29792-1.51085.60527-3.01985.90127-4.53107.23555-1.20253.45661-2.40788.69056-3.61073.30068-1.54593.6024-3.09171.91706-4.63483.05842-.28653-.09056-.30391-.29272-.304-.69945-.00042-1.39892.00165-2.09836-.00181-.44877-.00222-.51785-.09182-.43121-.52462.15235-.76094.31114-1.52077.4487-2.28439.049-.27176.21485-.30706.43671-.30658.99278.00215,1.98556.00058,2.97834.00053.77843,0,1.55687-.003,2.33527.0017.369.00222.40735.0631.33779.42431-.14438.75-.28815,1.50029-.414,2.25349-.01155.06912.10644.22916.16669.23039.77806.016,1.55676.01861,2.33469,0a.368.368,0,0,0,.24979-.23845c.17059-.7789.331-1.56063.46611-2.34637.04564-.2655.17436-.32769.4103-.32652,1.0266.00511,2.05323.00152,3.07986.00146q2.57219-.00017,5.14439.00077c.44129.00043.46541.03661.38515.46714-.1297.69572-.23808,1.396-.3897,2.0868-.0697.3176.05047.37445.32039.37141.66553-.00748,1.3312-.00345,1.99681-.00164.46093.00125.54072.07773.46264.54085-.10829.64218-.24831,1.279-.37249,1.91855-.19295.99361-.382,1.988-.57633,2.9813-.25032,1.2799-.5064,2.55868-.75576,3.83876-.19782,1.01544-.38757,2.03245-.584,3.04815q-.33908,1.75294-.68335,3.50487c-.09662.49656-.19506.99282-.28511,1.49058-.08255.45634-.10725.48306-.55593.48323Q122.04715,29.62284,120.74413,29.6222Z"/><path d="M92.10591,17.85707c-2.31285,0-4.62573.00572-6.93851-.00674-.31621-.0017-.46262.08137-.52281.40733-.28781,1.55862-.59541,3.11361-.90084,4.66894-.19929,1.01482-.39889,2.02971-.614,3.04125-.11549.543-.05729.63266.5043.63271q3.74005.0003,7.4801-.00026c.57713-.00017.57424-.00246.6774-.54739q.179-.94533.36791-1.88876c.09822-.488.15128-.52865.64946-.52887q2.52157-.00113,5.04313.00011c.45738.00029.53306.092.4428.5454-.14684.73776-.309,1.47265-.4438,2.21255a.37726.37726,0,0,1-.43417.35968c-.74458-.00493-1.48951.01083-2.23371-.00658-.30175-.00706-.39353.095-.44008.39517-.11714.75529-.296,1.50085-.4391,2.25242-.03583.18823-.13913.23242-.3066.22884-.25937-.00556-.519-.00051-.77844-.00051q-6.70159.00009-13.40322-.00005c-.54946,0-.56148-.03787-.43477-.58175.14789-.63483.25741-1.27853.386-1.9179.0517-.257-.03084-.37737-.31135-.37337-.69934.01-1.399.00583-2.09842.00108-.41773-.00284-.459-.07585-.37734-.4895.19139-.9698.36579-1.94293.5545-2.91327.18891-.97141.39067-1.94032.57975-2.9117.18676-.95945.36082-1.92138.54765-2.88082.19554-1.00422.40309-2.0061.59879-3.01029.13548-.69512.26294-1.39184.38809-2.08891.11062-.61609.13418-.64.75627-.64029.62052-.00028,1.24194-.01988,1.86122.00776a.47449.47449,0,0,0,.57442-.45279c.11774-.67593.26526-1.34687.37382-2.02414.05171-.32258.17746-.46159.52516-.46092q7.02314.01348,14.0463.00673c.45869.0001.49.03865.40811.48355-.12415.67423-.25684,1.34693-.37669,2.02191-.07108.40029-.05295.41572.36844.41718.67692.00237,1.354.01028,2.03071-.003.30217-.00593.42189.1186.37161.4049-.1205.686-.24384,1.37152-.37421,2.05569-.19573,1.02722-.40875,2.05128-.59351,3.08043-.08308.46276-.10011.5038-.57579.50393Q95.57518,17.85772,92.10591,17.85707Zm-2.39442-3.07538c1.3074,0,2.61484-.00545,3.92217.00438.27761.00208.38986-.0862.43578-.373.11173-.69773.25576-1.39118.41365-2.0802.06047-.26393-.03594-.32517-.263-.32509q-4.02363.00141-8.04726-.00166a.31637.31637,0,0,0-.36551.29972c-.12255.663-.26049,1.32329-.3956,1.984-.08572.41908-.02933.49132.41138.49171Q87.76729,14.78328,89.71149,14.78169Z"/><path d="M195.64217,8.89152q2.74151-.00024,5.483,0c.518.00012.54616.01492.46271.50867-.11611.68689-.24153,1.37381-.40666,2.05007-.072.29493.00535.36812.27447.3665q1.04917-.0063,2.09842.00006c.45906.00232.51861.09487.42828.55544-.31358,1.59892-.61475,3.20026-.9298,4.79887-.25,1.26827-.52055,2.5325-.76884,3.80109-.24191,1.236-.46575,2.47559-.70037,3.71306-.09625.50768-.19467,1.01506-.30217,1.52045-.06536.30727.06117.40288.35584.39811.688-.01113,1.37636-.00653,2.0645-.00132.37292.00283.4379.083.36909.45315-.13568.72979-.285,1.45709-.41514,2.18782a.39669.39669,0,0,1-.46944.38629c-1.75984-.01517-3.51988-.00693-5.27986-.00782-.421-.00021-.4646-.06146-.37687-.47527.14213-.67046.272-1.3436.42077-2.01255.064-.28739-.02856-.39021-.32-.38526-.67672.0115-1.35385.00934-2.03063.00042-.228-.003-.35494.06944-.399.30652-.13114.70627-.2933,1.4072-.40819,2.1159-.05167.31879-.14454.46107-.50539.45906-2.74142-.01536-5.483-.00809-8.22446-.00884-.41815-.00012-.45924-.06479-.36965-.47844.14514-.67018.27455-1.34374.41824-2.01424.06169-.28789-.04768-.38531-.333-.38064-.69928.01145-1.39891.00629-2.09837.00219-.41516-.00244-.45962-.07964-.37853-.49058.25254-1.27952.48971-2.56208.74175-3.8417.24324-1.23493.49892-2.46741.74564-3.70166.03742-.18717.05133-.37891.08419-.56713a.415.415,0,0,1,.48353-.39407c.72148.01993,1.44432-.00757,2.16576.01308a.39405.39405,0,0,0,.47523-.382c.12455-.70911.2724-1.41411.40842-2.12124.08541-.444.12465-.48259.57354-.48281q3.943-.00184,7.88607-.001c.52045-.00012.55561-.05228.63252-.56416.08848-.589.21958-1.17141.32024-1.75873.07169-.41833.04108-.45-.38-.45024q-3.8415-.00225-7.683-.00129c-.1353,0-.27125.0018-.40573-.01022-.213-.019-.29165-.13928-.24932-.34927.16224-.805.331-1.60886.47674-2.41685.05366-.29745.227-.3425.48078-.34185Q192.8499,8.89626,195.64217,8.89152Zm-3.39824,17.70889c.80047,0,1.60111-.00959,2.40132.005.29753.00541.46849-.0925.52454-.39191.11569-.61794.24467-1.2334.36106-1.85122.18723-.99421.365-1.99019.55357-2.98415.1988-1.0481.39689-2.09649.61435-3.1408.06146-.29511-.02555-.38388-.31214-.38283q-2.50281.00926-5.00569-.00043a.31762.31762,0,0,0-.3714.29354c-.13984.73972-.293,1.47691-.43665,2.21592-.19284.99234-.37713,1.98635-.57329,2.978-.18518.93635-.38781,1.86929-.56861,2.80645-.07068.36636.00507.44739.37773.45C190.62042,26.60362,191.43218,26.59971,192.24393,26.60041Z"/><path d="M176.58526,23.80246c-.361.00029-.72225.00859-1.08291-.00262a.34967.34967,0,0,0-.41818.32806c-.12624.70794-.28019,1.411-.40459,2.11923-.07751.44126-.12944.50355-.58817.50456-.68816.00152-1.37649.01008-2.06435-.00411-.27923-.00576-.42266.05958-.47546.36984-.1223.7187-.31174,1.42609-.431,2.14517-.04843.29206-.16149.36568-.43611.36442-1.929-.00885-3.85813-.00459-5.78721-.00462-.85737,0-1.71483-.00782-2.57205.00372-.30084.004-.36056-.094-.29583-.38352.15928-.71217.27905-1.43306.42453-2.14846.053-.26087-.04777-.34577-.29808-.34345-.71065.00659-1.42142.00456-2.13211-.00018-.3672-.00244-.4277-.0658-.36518-.41954.12919-.731.26388-1.46138.41507-2.18811.0546-.26239-.02367-.34607-.28138-.34286-.68806.00855-1.37626.00387-2.06442.00191-.44231-.00125-.51767-.08222-.43844-.52358.11331-.63132.24612-1.25912.36657-1.8892.19824-1.03706.38615-2.07616.59164-3.11178.19462-.98095.41415-1.957.60809-2.93806.17648-.8928.32922-1.79025.49983-2.68424.2213-1.15947.4525-2.317.67328-3.47661.04321-.22693.18374-.287.387-.28633.54149.00173,1.083-.00049,1.62448-.00054q1.84448-.00018,3.68894.00119c.41193.001.45548.05417.37751.4541-.3271,1.67765-.6622,3.35377-.98467,5.03231-.34145,1.77719-.669,3.557-1.0082,5.33466-.22542,1.18124-.45288,2.36222-.69689,3.5397-.06221.30028.0363.38654.31818.38333.68806-.00785,1.37626-.00389,2.06442-.001.40254.00169.48375.08775.40963.48586-.12324.66194-.26032,1.32144-.40087,1.98-.09354.43835-.05476.49742.39153.49852.62047.00154,1.24117-.01,1.86129.00456a.42568.42568,0,0,0,.49977-.38157c.1247-.66261.26948-1.322.37231-1.988.08132-.52656.13638-.59938.68329-.60009.67687-.00089,1.35383-.00664,2.03057.00267.24039.00331.373-.07045.42153-.32358.19047-.99353.40023-1.98335.59478-2.97612.24428-1.24656.48058-2.49468.72029-3.74213q.37263-1.93917.7456-3.87827c.22415-1.15919.4534-2.3174.67518-3.477a.38545.38545,0,0,1,.44451-.35237c1.7711.00687,3.54225.00188,5.31339.00538.393.00078.43161.08479.351.47665-.20181.9808-.38315,1.96578-.57539,2.94856-.30407,1.5545-.61278,3.1081-.91484,4.663-.238,1.22514-.46878,2.45167-.703,3.67754-.17317.90626-.349,1.812-.5188,2.71889a.45174.45174,0,0,1-.53334.42868C177.30821,23.78586,176.94625,23.80216,176.58526,23.80246Z"/><path d="M5.9994,26.75215h-.855c-.53035,0-1.06071.00186-1.59105-.00056-.40964-.00187-.48366-.08822-.40371-.52133.11847-.64179.25612-1.28.38035-1.92076.36818-1.899.73115-3.79912,1.10137-5.69777.23015-1.18029.47031-2.35863.70493-3.53805q.27325-1.37371.54355-2.748c.06213-.31614-.14871-.31886-.36806-.31868q-2.38657.002-4.77317.00047c-.12409,0-.24869.00323-.37218-.00631-.335-.02586-.42316-.1775-.33356-.49687.12664-.45142.23787-.90748.34332-1.3644C.44951,9.822.50535,9.5.56294,9.17875c.05248-.29273.272-.28739.49249-.28736q2.20039.00033,4.40079.00006a5.37207,5.37207,0,0,0,.77693-.01226.45172.45172,0,0,0,.32345-.24161c.17565-.75593.322-1.51877.47117-2.28068q.295-1.50669.57821-3.01563a.4059.4059,0,0,1,.46836-.37277c.71082.00737,1.422-.00977,2.13254.00634a.44135.44135,0,0,0,.5257-.42593c.10833-.66625.24081-1.32859.36376-1.99246.08383-.45265.1983-.55089.65136-.55167.71089-.00121,1.42182-.00364,2.13268.0014.39.00276.46085.1212.385.50718-.23619,1.20195-.45777,2.40674-.68811,3.60984-.18819.983-.38131,1.965-.57126,2.94755-.09819.50792-.18792,1.01758-.29421,1.52378-.04548.21658.04043.29408.24066.2946.27081.0007.54163.00221.81244.00226q2.14962.00033,4.29923.00087c.43209.00063.472.0494.396.47193q-.185,1.02858-.37774,2.05574c-.10157.54038-.1609.58751-.70889.58764q-2.38659.00057-4.77317.00028c-.58943.00013-.56561.00514-.67185.58336-.21951,1.19484-.47088,2.3838-.702,3.57656-.24809,1.28027-.48424,2.56285-.73266,3.843-.19289.994-.39921,1.98541-.59467,2.97893-.1345.68369-.25834,1.36947-.39139,2.05346-.07716.39662-.15656.793-.24739,1.18667-.06122.26532.02219.377.30114.37323q1.01538-.01359,2.03106-.001a.39676.39676,0,0,0,.4525-.38592c.1181-.68754.252-1.37248.38736-2.05692.09815-.4962.1374-.52376.64943-.524q2.522-.00114,5.044.00023c.44593.00034.52154.07732.43859.52085-.14442.77222-.31331,1.53984-.46424,2.3109-.049.25008-.22176.28385-.42718.28392-.74475.00027-1.48973.01157-2.23412-.00435-.28406-.00608-.38365.08921-.42954.37279-.12043.74409-.29047,1.48-.42771,2.22164-.03735.20184-.11886.28425-.33165.28386q-4.23151-.00765-8.463-.00073c-.25232.00036-.303-.0937-.25587-.33186C5.69223,28.47785,5.83388,27.65932,5.9994,26.75215Z"/><path d="M213.52247,29.62224c-.82274,0-1.64555-.00575-2.46819.00337-.26409.00292-.36647-.06507-.30639-.35358.2312-1.11025.44483-2.22416.66274-3.33715.09916-.50648.19645-1.01337.28769-1.52131a.34251.34251,0,0,1,.39759-.31395c1.64544.0055,3.29093.0005,4.93641.004.35671.00076.433.10786.35871.46534-.32667,1.57161-.65991,3.14189-.97628,4.71556-.05235.2604-.15839.34854-.42418.34346C215.16814,29.61222,214.34521,29.62221,213.52247,29.62224Z"/></svg>