<svg width="122" height="30" viewBox="0 0 122 30" fill="none" xmlns="http://www.w3.org/2000/svg">
<path d="M15.8996 15.3C15.8996 19.7 15.8996 24.1 15.8996 28.5C15.8996 29.5 15.5996 29.8 14.6996 29.8C12.7996 29.7 10.8996 29.7 8.9996 29.8C7.9996 29.8 7.69962 29.5 7.69962 28.4C7.79962 23 7.69962 17.5 7.69962 12.1C7.69962 9.4 7.9996 9.8 5.3996 9.8C4.0996 9.8 2.89961 9.8 1.59961 9.8C0.899609 9.8 0.599609 9.6 0.599609 8.8C0.599609 6.6 0.599609 4.4 0.599609 2.1C0.599609 1.3 0.799609 1 1.59961 1C5.99961 1 10.3996 1 14.7996 1C15.6996 1 15.8996 1.3 15.8996 2.2C15.8996 6.5 15.8996 10.9 15.8996 15.3Z" fill="#5494F3"/>
<path d="M52.2995 16.5991C52.2995 8.59911 49.1995 3.59911 42.6995 2.89911C38.5995 2.49911 35.0995 3.59911 32.5995 7.19911C30.2995 10.4991 30.0995 14.2991 30.4995 18.0991C31.5995 27.6991 40.8995 30.0991 46.9995 26.5991C51.1995 24.1991 52.1995 19.9991 52.2995 16.5991ZM54.2995 16.5991C53.9995 21.1991 52.2995 26.0991 46.8995 28.4991C39.3995 31.7991 30.0995 28.3991 28.6995 17.9991C28.1995 14.6991 28.5995 11.4991 29.8995 8.39911C31.7995 4.09911 35.1995 1.69911 39.5995 1.19911C49.5995 0.199111 54.3995 7.69911 54.2995 16.5991Z" fill="#5997F5"/>
<path d="M63.6996 2.6C62.7996 2.6 61.7996 2.6 60.8996 2.6C60.1996 2.6 59.8996 2.8 59.8996 3.6C59.8996 7.2 59.8996 10.8 59.8996 14.4C59.8996 15.1 60.1996 15.3 60.7996 15.3C62.2996 15.3 63.8996 15.3 65.3996 15.3C66.9996 15.3 68.5996 14.9 69.9996 14C72.0996 12.6 72.7996 10.6 72.6996 8.1C72.5996 5.6 71.3996 4 69.0996 3.2C67.2996 2.6 65.4996 2.6 63.6996 2.6ZM66.8996 16.6C70.2996 21 73.4996 25.2 76.8996 29.6C75.6996 30 74.8996 29.7 74.0996 28.7C71.4996 25.2 68.6996 21.8 66.1996 18.3C65.3996 17.2 64.4996 16.7 63.1996 16.8C60.0996 16.9 60.0996 16.8 60.0996 20C60.0996 22.9 60.0996 25.8 60.0996 28.7C60.0996 29.4 59.9996 29.9 59.0996 29.8C58.2996 29.8 58.0996 29.5 58.0996 28.7C58.0996 19.8 58.0996 11 58.0996 2.1C58.0996 1.5 58.1996 1 58.9996 1C62.0996 1.1 65.2996 0.8 68.3996 1.5C72.2996 2.3 74.3996 4.5 74.5996 7.9C74.7996 11.8 72.8996 14.7 69.1996 16C68.4996 16.2 67.7996 16.3 66.8996 16.6Z" fill="#5997F5"/>
<path d="M101.199 11.0998C101.199 13.6998 101.299 16.2998 101.199 18.8998C100.899 28.8998 91.4994 31.8998 85.3994 28.1998C81.9994 26.1998 80.5994 22.8998 80.4994 18.9998C80.3994 13.2998 80.4994 7.59984 80.3994 1.89984C80.3994 1.09984 80.6994 0.799841 81.4994 0.799841C82.3994 0.799841 82.2994 1.29984 82.2994 1.89984C82.2994 7.29984 82.2994 12.7998 82.2994 18.1998C82.2994 21.1998 83.0994 24.0998 85.4994 25.9998C88.2994 28.1998 91.4994 28.3998 94.6994 26.8998C97.7994 25.3998 99.0994 22.6998 99.1994 19.3998C99.3994 13.5998 99.2994 7.79984 99.2994 1.99984C99.2994 1.49984 99.0994 0.799842 99.9994 0.699842C100.899 0.599842 101.199 0.899843 101.199 1.89984C101.199 5.09984 101.199 8.09984 101.199 11.0998Z" fill="#5E9CF5"/>
<path d="M113.299 29.8005C109.999 29.7005 107.599 28.8005 105.499 26.8005C104.999 26.3005 104.799 25.9005 105.299 25.4005C105.799 24.8005 106.199 25.2005 106.599 25.6005C109.899 28.4005 113.399 29.0005 116.599 27.3005C118.899 26.0005 119.799 23.9005 119.699 21.4005C119.699 19.0005 118.199 17.6005 116.099 16.8005C113.999 16.0005 111.899 15.3005 109.799 14.4005C106.099 12.7005 104.799 8.40054 106.899 4.90054C107.799 3.30054 109.199 2.30054 110.899 1.70054C114.199 0.500535 117.099 1.30053 119.799 3.30053C120.299 3.70053 120.699 4.10053 120.199 4.70054C119.699 5.50054 119.199 4.90053 118.799 4.60053C116.599 2.80053 114.099 2.40054 111.499 3.20054C109.499 3.80054 107.999 5.60053 107.799 7.60053C107.499 10.0005 108.499 11.6005 110.499 12.7005C112.399 13.8005 114.599 14.2005 116.599 15.1005C118.599 15.9005 120.399 17.0005 121.099 19.3005C122.299 23.1005 120.199 27.8005 116.599 29.2005C115.399 29.5005 114.099 29.8005 113.299 29.8005Z" fill="#5997F5"/>
<path d="M18.1992 5.39912C18.1992 3.19912 20.0992 1.09912 22.1992 0.999117C24.1992 0.899117 26.3992 3.29912 26.3992 5.39912C26.3992 7.59912 24.3992 9.59912 22.2992 9.59912C20.1992 9.79912 18.1992 7.69912 18.1992 5.39912Z" fill="#5494F3"/>
</svg>
