<svg width="269" height="72" viewBox="0 0 269 72" fill="none" xmlns="http://www.w3.org/2000/svg">
<path d="M231.999 11.4006C229.299 12.6006 226.899 13.7006 224.399 14.8006C221.799 16.0006 219.199 17.2006 216.499 18.3006C216.099 18.5006 215.399 18.6006 215.099 18.4006C212.599 17.1006 210.199 15.6006 207.399 14.0006C217.499 9.50059 227.299 5.10059 237.299 0.600586C237.299 24.2006 237.299 47.6006 237.299 71.3006C235.499 70.2006 233.799 69.3006 232.299 68.3006C231.999 68.1006 232.099 67.3006 232.099 66.9006C232.099 49.8006 232.099 32.7006 232.099 15.7006C231.999 14.3006 231.999 13.0006 231.999 11.4006Z" fill="black"/>
<path d="M238.399 71.3006C238.399 47.6006 238.399 24.2006 238.399 0.600586C248.399 5.10059 258.199 9.50059 268.299 14.1006C266.799 14.9006 265.499 15.5006 264.499 16.3006C261.699 18.7006 258.899 18.7006 255.699 16.9006C252.399 15.0006 248.799 13.7006 245.299 12.1006C244.899 11.9006 244.499 11.8006 243.799 11.5006C243.799 12.3006 243.799 12.8006 243.799 13.3006C243.799 31.0006 243.799 48.8006 243.799 66.5006C243.799 67.8006 243.399 68.5006 242.299 69.0006C241.099 69.7006 239.899 70.5006 238.399 71.3006Z" fill="black"/>
<path d="M207.599 17.1006C210.099 18.5006 212.399 19.8006 214.599 21.2006C214.999 21.4006 215.099 22.3006 215.099 22.8006C215.099 31.3006 215.099 39.8006 215.099 48.3006C215.099 49.3006 215.4 49.9006 216.3 50.4006C220.2 52.6006 224.099 55.0006 228.099 57.2006C229.099 57.8006 229.5 58.4006 229.4 59.6006C229.3 61.9006 229.4 64.2006 229.4 66.9006C228.1 66.1006 227.1 65.6006 226 65.0006C220.2 61.6006 214.3 58.3006 208.5 54.8006C208 54.5006 207.5 53.7006 207.5 53.2006C207.4 41.5006 207.5 29.9006 207.5 18.2006C207.5 17.8006 207.599 17.6006 207.599 17.1006Z" fill="black"/>
<path d="M268.2 17.1006C268.2 17.9006 268.2 18.4006 268.2 18.9006C268.2 30.0006 268.2 41.1006 268.2 52.2006C268.2 53.6006 267.9 54.5006 266.5 55.2006C260.1 58.8006 253.8 62.5006 247.5 66.1006C247.2 66.3006 246.9 66.4006 246.3 66.6006C246.3 64.9006 246.5 63.4006 246.3 62.0006C245.8 58.9006 247 57.1006 249.8 55.8006C253 54.3006 256 52.2006 259.1 50.5006C260.2 49.9006 260.5 49.2006 260.5 48.1006C260.5 39.7006 260.5 31.4006 260.4 23.0006C260.4 21.9006 260.7 21.2006 261.7 20.6006C264 19.6006 265.9 18.4006 268.2 17.1006Z" fill="black"/>
<path d="M83.7992 46.501C82.2992 46.501 80.8992 46.501 79.3992 46.501C76.4992 46.401 74.1992 44.501 73.4992 41.701C73.1992 40.701 73.2992 40.001 74.5992 40.101C75.1992 40.201 75.7992 40.001 76.3992 40.101C76.8992 40.201 77.2992 40.601 77.6992 40.801C78.4992 41.201 79.1992 42.001 79.9992 42.101C82.4992 42.301 84.9992 42.201 87.4992 42.201C88.9992 42.201 89.9992 41.301 89.9992 40.101C89.9992 38.901 89.0992 38.201 87.4992 38.101C84.9992 38.101 82.4992 38.101 79.9992 38.101C75.8992 38.101 73.1992 35.501 73.1992 31.701C73.1992 28.101 75.9992 25.501 79.9992 25.501C82.6992 25.501 85.3992 25.501 88.0992 25.501C91.0992 25.601 93.5992 27.701 94.1992 30.501C94.3992 31.401 94.1992 32.001 93.0992 31.901C92.5992 31.801 92.0992 31.901 91.4992 31.901C90.5992 32.001 90.0992 31.801 89.5992 30.901C89.2992 30.301 88.3992 29.801 87.6992 29.801C85.0992 29.701 82.3992 29.701 79.7992 29.801C78.4992 29.801 77.4992 30.801 77.4992 32.001C77.5992 33.101 78.5992 33.901 79.8992 33.901C82.6992 33.901 85.5992 33.801 88.3992 34.001C91.2992 34.201 93.6992 36.401 94.1992 39.101C94.6992 41.901 93.1992 44.701 90.4992 45.901C89.6992 46.301 88.6992 46.401 87.7992 46.501C86.5992 46.501 85.1992 46.501 83.7992 46.501Z" fill="black"/>
<path d="M45.4997 46.5006C43.9997 46.5006 42.6997 46.6006 41.4997 46.5006C41.0997 46.5006 40.5997 46.0006 40.3997 45.6006C39.6997 44.2006 38.9997 42.7006 38.4997 41.2006C38.1997 40.5006 37.7997 40.2006 36.9997 40.2006C34.5997 40.2006 32.2997 40.2006 29.8997 40.2006C28.9997 40.2006 28.6997 40.5006 28.6997 41.4006C28.7997 42.6006 28.6997 43.9006 28.6997 45.1006C28.6997 46.1006 28.4997 46.6006 27.3997 46.5006C23.8997 46.4006 24.3997 47.0006 24.3997 43.5006C24.3997 38.1006 24.3997 32.8006 24.3997 27.4006C24.3997 25.6006 24.3997 25.6006 26.2997 25.6006C30.1997 25.6006 33.9997 25.6006 37.8997 25.6006C41.1997 25.6006 43.5997 27.1006 44.7997 30.0006C45.9997 32.7006 45.3996 36.0006 43.0996 38.1006C42.1996 38.9006 42.1997 39.5006 42.6997 40.5006C43.6997 42.3006 44.4997 44.3006 45.4997 46.5006ZM28.7997 29.8006C28.7997 31.6006 28.7997 33.4006 28.7997 35.1006C28.7997 35.4006 29.1997 35.8006 29.3997 35.8006C32.4997 35.8006 35.5997 35.9006 38.6997 35.7006C40.1997 35.6006 41.0997 34.2006 40.9997 32.8006C40.9997 31.4006 39.8997 29.9006 38.3997 29.9006C35.3997 29.7006 32.1997 29.8006 28.7997 29.8006Z" fill="black"/>
<path d="M166.499 35.9006C166.499 32.9006 166.499 29.9006 166.499 26.8006C166.499 25.9006 166.799 25.6006 167.699 25.6006C171.899 25.6006 176.199 25.6006 180.399 25.6006C183.999 25.7006 187.099 28.9006 187.199 32.5006C187.299 34.8006 187.299 37.1006 187.199 39.4006C186.999 43.5006 183.899 46.4006 179.799 46.4006C175.899 46.4006 172.099 46.4006 168.199 46.4006C166.899 46.4006 166.399 46.1006 166.399 44.7006C166.599 41.8006 166.499 38.8006 166.499 35.9006ZM170.699 36.0006C170.699 37.7006 170.699 39.4006 170.699 41.1006C170.699 42.0006 170.999 42.3006 171.899 42.3006C174.499 42.3006 177.199 42.3006 179.799 42.3006C181.799 42.3006 182.999 41.0006 182.999 39.0006C182.999 37.2006 182.999 35.3006 182.999 33.5006C182.999 31.3006 181.699 30.0006 179.499 30.0006C176.899 30.0006 174.299 30.0006 171.699 30.0006C170.899 30.0006 170.599 30.3006 170.599 31.1006C170.699 32.6006 170.699 34.3006 170.699 36.0006Z" fill="black"/>
<path d="M120.399 36.001C120.399 33.001 120.399 30.001 120.399 26.901C120.399 25.801 120.799 25.501 121.799 25.501C125.899 25.501 130.099 25.501 134.199 25.501C138.199 25.601 141.199 28.701 141.199 32.701C141.199 36.701 138.299 39.901 134.299 40.001C131.499 40.101 128.699 40.101 125.999 40.001C124.999 40.001 124.499 40.201 124.599 41.301C124.699 42.601 124.699 43.901 124.599 45.301C124.599 45.601 124.099 45.901 123.799 46.201H123.699C120.499 46.401 120.499 46.401 120.499 43.301C120.399 41.001 120.399 38.501 120.399 36.001ZM124.699 36.001C127.899 36.001 130.899 36.001 133.899 36.001C135.799 36.001 136.899 34.801 136.999 33.001C136.999 31.201 135.799 29.901 133.899 29.801C131.799 29.701 129.699 29.801 127.499 29.801C126.599 29.801 125.699 29.801 124.699 29.801C124.699 31.901 124.699 33.901 124.699 36.001Z" fill="black"/>
<path d="M142.8 46.2004C142.9 45.8004 143 45.4004 143.2 45.0004C145.5 39.0004 147.9 33.0004 150.2 26.9004C150.6 25.8004 151.2 25.4004 152.4 25.4004C155.4 25.5004 155.4 25.4004 156.5 28.2004C158.7 33.9004 161 39.5004 163.2 45.2004C163.3 45.5004 163.4 45.8004 163.6 46.4004C162.2 46.4004 160.9 46.5004 159.6 46.3004C159.2 46.2004 158.7 45.4004 158.5 44.8004C158.2 43.6004 157.5 43.2004 156.3 43.3004C154 43.4004 151.8 43.3004 149.5 43.4004C149.1 43.4004 148.5 43.8004 148.3 44.2004C146.9 46.6004 145.9 47.0004 142.8 46.2004ZM153.3 31.8004C153.2 31.8004 153.1 31.8004 153 31.8004C152.1 34.1004 151.2 36.5004 150.2 39.0004C152.3 39.0004 154.1 39.0004 156.1 39.0004C155.1 36.5004 154.2 34.1004 153.3 31.8004Z" fill="black"/>
<path d="M69.7995 25.6008C69.7995 30.7008 69.9995 35.6008 69.6995 40.5008C69.4995 43.7008 66.3995 46.3008 62.9995 46.5008C60.5995 46.6008 58.2995 46.6008 55.8995 46.5008C51.9995 46.3008 48.9995 43.2008 48.9995 39.3008C48.8995 35.1008 48.9995 31.0008 48.9995 26.8008C48.9995 25.9008 49.2995 25.6008 50.1995 25.6008C53.7995 25.7008 53.0995 25.2008 53.1995 28.5008C53.1995 31.8008 53.1995 35.2008 53.1995 38.5008C53.1995 41.1008 54.2995 42.2008 56.8995 42.2008C58.5995 42.2008 60.3995 42.2008 62.0995 42.2008C64.4995 42.2008 65.5995 41.0008 65.6995 38.6008C65.6995 34.7008 65.6995 30.8008 65.6995 26.9008C65.6995 25.9008 65.9995 25.5008 66.9995 25.6008C67.8995 25.6008 68.7995 25.6008 69.7995 25.6008Z" fill="black"/>
<path d="M9.19963 29.8007C6.39963 29.8007 3.79962 29.8007 0.999622 29.8007C0.999622 28.6007 0.899597 27.5007 1.0996 26.4007C1.0996 26.1007 1.89961 25.7007 2.29961 25.7007C5.19961 25.6007 8.09965 25.7007 10.8996 25.7007C14.0996 25.7007 17.1996 25.7007 20.3996 25.7007C21.4996 25.7007 21.8996 26.1007 21.7996 27.2007C21.6996 28.0007 21.7996 28.9007 21.7996 29.9007C18.9996 29.9007 16.2996 29.9007 13.4996 29.9007C13.4996 35.5007 13.4996 41.0007 13.4996 46.3007C13.2996 46.4007 13.1996 46.5007 13.0996 46.5007C9.1996 46.9007 9.19963 46.9007 9.19963 43.0007C9.19963 39.2007 9.19963 35.5007 9.19963 31.7007C9.19963 31.1007 9.19963 30.5007 9.19963 29.8007Z" fill="black"/>
<path d="M105.099 29.8007C102.299 29.8007 99.6994 29.8007 96.7994 29.8007C96.7994 28.6007 96.6994 27.5007 96.8994 26.4007C96.8994 26.1007 97.7994 25.7007 98.1994 25.7007C103.199 25.6007 108.199 25.7007 113.199 25.7007C114.299 25.7007 115.399 25.7007 116.499 25.7007C117.299 25.7007 117.699 25.9007 117.699 26.8007C117.599 30.6007 118.099 29.8007 114.799 29.8007C113.499 29.8007 112.199 29.9007 110.999 29.8007C109.599 29.6007 109.399 30.3007 109.399 31.5007C109.499 36.0007 109.399 40.5007 109.499 44.9007C109.499 46.3007 109.099 46.6007 107.799 46.5007C104.799 46.4007 105.299 46.8007 105.199 43.9007C105.199 39.8007 105.199 35.6007 105.199 31.5007C105.099 31.0007 105.099 30.5007 105.099 29.8007Z" fill="black"/>
</svg>
