<svg width="113" height="87" viewBox="0 0 113 87" fill="none" xmlns="http://www.w3.org/2000/svg">
<path d="M97.6993 86.1002C97.4993 85.6002 97.3992 85.5002 96.7992 85.5002C93.8992 85.5002 90.8993 85.5002 87.9992 85.5002C87.8992 85.5002 87.6992 85.6002 87.5992 85.4002C87.4992 85.2002 87.7993 85.2002 87.8993 85.1002C88.0993 85.0002 88.1993 84.7002 88.1993 84.5002C88.1993 81.6002 88.1993 78.6002 88.1993 75.7002C88.1993 75.4002 88.0992 75.2002 87.7992 75.0002C87.6992 74.9002 87.5992 74.9002 87.5992 74.7002C87.5992 74.5002 87.7993 74.6002 87.8993 74.6002C88.9993 74.6002 90.0993 74.6002 91.1993 74.6002C91.2993 74.6002 91.4992 74.5002 91.4992 74.7002C91.4992 74.9002 91.3992 74.9002 91.2992 75.0002C90.9992 75.1002 90.8993 75.4002 90.8993 75.7002C90.8993 78.2002 90.8993 80.8002 90.8993 83.3002C90.8993 83.5002 90.9993 83.6002 91.1993 83.6002C93.0993 83.6002 95.0992 83.6002 96.9992 83.6002C97.2992 83.6002 97.5993 83.5002 97.6993 83.2002C97.6993 83.1002 97.7993 83.0002 97.8993 83.0002C98.0993 83.0002 97.9992 83.2002 97.9992 83.3002C97.9992 84.2002 97.9992 85.0002 97.9992 85.9002C97.9992 86.0002 97.9992 86.2002 97.9992 86.3002C97.8992 86.1002 97.7993 86.1002 97.6993 86.1002Z" fill="#2A363A"/>
<path d="M12.7998 39.7003C13.7998 38.6003 14.6998 37.6003 15.6998 36.7003C18.4998 34.0003 21.3998 31.4003 24.4998 29.1003C27.8998 26.5003 31.3998 24.2003 35.0998 22.2003C35.5998 21.9003 35.7998 21.5003 36.0998 21.1003C38.1998 17.6003 40.3998 14.2003 42.4998 10.7003C43.6998 8.70028 44.8998 6.80028 46.0998 4.80028C46.4998 5.30028 46.7998 5.80028 47.0998 6.30028C47.9998 7.60028 48.7998 8.80028 49.6998 10.1003C49.8998 10.4003 49.9998 10.4003 50.1998 10.1003C51.4998 7.50028 52.8998 5.00028 54.1998 2.40028C54.5998 1.70028 54.8998 1.10028 55.2998 0.400277C55.3998 0.100277 55.4998 0.200277 55.6998 0.400277C57.6998 3.10028 59.5998 5.80028 61.5998 8.50028C64.8998 13.0003 68.1998 17.6003 71.4998 22.1003C71.5998 22.3003 71.7998 22.5003 71.8998 22.6003H71.9998C71.5998 21.1003 71.1998 19.6003 70.6998 18.1003C71.6998 18.5003 72.6998 19.0003 73.5998 19.6003C76.0998 21.2003 78.2998 23.1003 79.8998 25.6003C81.0998 27.4003 81.8998 29.5003 82.1998 31.7003C82.1998 31.9003 82.1998 32.0003 81.8998 31.9003C78.7998 31.2003 75.6998 30.6003 72.5998 30.2003C70.2998 29.9003 67.9998 29.7003 65.6998 29.5003C65.4998 29.5003 65.3998 29.4003 65.2998 29.2003C64.2998 25.6003 63.3998 21.9003 62.3998 18.3003C61.7998 16.2003 61.2998 14.0003 60.6998 11.9003C60.5998 11.6003 60.4998 11.6003 60.2998 11.8003C59.6998 12.4003 59.0998 13.0003 58.3998 13.6003C58.1998 13.0003 58.0998 12.4003 57.8998 11.8003C57.1998 9.10028 56.3998 6.30028 55.6998 3.60028C55.6998 3.50028 55.6998 3.30028 55.4998 3.30028C55.3998 3.30028 55.3998 3.40028 55.2998 3.50028C53.8998 6.20028 52.3998 9.00028 50.9998 11.7003C50.8998 11.9003 50.8998 12.0003 50.9998 12.2003C52.3998 14.2003 53.7998 16.2003 55.0998 18.3003C57.0998 21.2003 58.9998 24.1003 60.9998 27.0003C61.4998 27.8003 62.0998 28.6003 62.5998 29.4003C62.3998 29.5003 62.2998 29.5003 62.1998 29.5003C59.4998 29.4003 56.8998 29.4003 54.1998 29.5003C53.8998 29.5003 53.7998 29.4003 53.6998 29.2003C52.9998 26.2003 52.1998 23.3003 51.4998 20.3003C50.9998 18.5003 50.5998 16.7003 50.0998 14.9003C49.9998 14.6003 49.8998 14.6003 49.6998 14.8003C49.1998 15.3003 48.7998 15.7003 48.2998 16.2003C47.7998 14.4003 47.2998 12.7003 46.7998 10.9003C46.5998 10.0003 46.2998 9.20028 45.9998 8.30028C45.9998 8.20028 45.9998 8.10028 45.8998 8.00028C45.6998 8.00028 45.6998 8.10028 45.6998 8.20028C44.5998 9.90028 43.5998 11.6003 42.4998 13.4003C39.8998 17.6003 37.2998 21.9003 34.6998 26.1003C33.2998 28.4003 31.8998 30.7003 30.3998 33.1003C30.2998 33.3003 30.1998 33.4003 29.9998 33.5003C27.6998 34.2003 25.4998 35.0003 23.1998 35.9003C22.8998 36.0003 22.6998 36.2003 22.7998 36.5003C22.8998 36.8003 23.1998 36.8003 23.3998 36.7003C24.7998 36.2003 26.1998 35.7003 27.6998 35.2003C30.6998 34.3003 33.6998 33.6003 36.7998 33.1003C39.3998 32.6003 41.9998 32.3003 44.5998 32.0003C47.6998 31.7003 50.6998 31.5003 53.7998 31.5003C56.9998 31.5003 60.2998 31.6003 63.4998 31.9003C66.4998 32.2003 69.4998 32.5003 72.3998 33.1003C75.0998 33.6003 77.6998 34.1003 80.2998 34.8003C82.8998 35.5003 85.4998 36.2003 87.9998 37.0003C89.2998 37.4003 90.4998 37.8003 91.7998 38.3003C92.3998 38.5003 92.9998 38.9003 93.3998 39.5003C93.8998 40.3003 93.8998 41.3003 93.2998 42.1003C92.7998 42.8003 91.7998 43.2003 90.8998 43.0003C89.8998 42.7003 88.9998 42.3003 88.0998 41.9003C85.8998 41.0003 83.6998 40.2003 81.3998 39.4003C81.0998 39.3003 80.9998 39.3003 80.8998 39.6003C79.6998 43.4003 77.2998 46.2003 73.8998 48.2003C71.3998 49.6003 68.7998 50.4003 65.9998 50.8003C63.4998 51.1003 61.0998 51.3003 58.5998 51.0003C58.5998 51.0003 58.4998 51.0003 58.3998 51.0003C59.2998 49.7003 60.0998 48.3003 60.9998 47.0003L60.8998 46.9003C60.3998 47.3003 59.7998 47.6003 59.2998 48.0003C58.0998 48.8003 56.7998 49.7003 55.5998 50.5003C55.4998 50.6003 55.2998 50.6003 55.1998 50.6003C52.4998 50.1003 49.9998 49.3003 47.4998 48.4003C44.6998 47.4003 41.9998 46.4003 39.1998 45.3003C39.1998 45.3003 39.0998 45.3003 39.0998 45.2003C40.0998 44.4003 41.0998 43.7003 42.0998 42.9003C41.7998 42.8003 41.6998 42.9003 41.4998 42.9003C39.7998 43.3003 38.0998 43.8003 36.4998 44.2003C36.2998 44.2003 36.1998 44.2003 35.9998 44.2003C31.3998 42.7003 26.7998 41.7003 21.9998 41.0003C19.3998 40.6003 16.7998 40.4003 14.1998 40.2003C13.9998 39.8003 13.4998 39.7003 12.7998 39.7003Z" fill="#293539"/>
<path d="M23.8992 60.8C23.4992 61.8 23.0992 62.7 22.6992 63.7C22.2992 64.7 21.8992 65.6 21.4992 66.6C21.3992 66.8 21.3992 67 21.2992 67.2C21.1992 67.6 21.2992 67.9 21.6992 68C21.7992 68 21.8992 68.1 21.8992 68.3C21.8992 68.5 21.6992 68.4 21.5992 68.4C20.3992 68.4 19.2992 68.4 18.0992 68.4C17.9992 68.4 17.8992 68.5 17.7992 68.3C17.7992 68.2 17.7992 68.1 17.9992 68C18.3992 67.8 18.4992 67.5 18.3992 67.1C18.0992 66.1 17.5992 65.1 17.2992 64.1C16.5992 62.4 15.9992 60.7 15.2992 59C15.0992 58.5 14.8992 58 14.2992 57.8C14.1992 57.8 14.1992 57.6 14.1992 57.5C14.1992 57.4 14.2992 57.4 14.3992 57.4C15.5992 57.4 16.8992 57.4 18.0992 57.4C18.1992 57.4 18.2992 57.3 18.2992 57.5C18.2992 57.6 18.2992 57.7 18.1992 57.8C17.5992 58.2 17.5992 58.3 17.7992 58.9C18.4992 60.7 19.1992 62.4 19.8992 64.2C20.3992 63 20.7992 61.9 21.2992 60.7C21.4992 60.1 21.7992 59.5 21.9992 58.8C22.1992 58.2 22.0992 58.1 21.5992 57.8C21.4992 57.7 21.3992 57.7 21.3992 57.5C21.3992 57.3 21.5992 57.4 21.6992 57.4C23.1992 57.4 24.5992 57.4 26.0992 57.4C26.1992 57.4 26.2992 57.3 26.3992 57.5C26.3992 57.7 26.2992 57.7 26.1992 57.8C25.6992 58.1 25.5992 58.3 25.7992 58.8C26.4992 60.5 27.0992 62.3 27.7992 64C27.7992 64 27.7992 64 27.8992 64.1C28.1992 63.4 28.4992 62.7 28.6992 62C29.0992 61 29.4992 60 29.7992 59C29.9992 58.4 29.9992 58.2 29.3992 57.8C29.2992 57.7 29.2992 57.7 29.2992 57.5C29.2992 57.4 29.3992 57.4 29.4992 57.4C30.7992 57.4 32.0992 57.4 33.2992 57.4C33.3992 57.4 33.4992 57.4 33.4992 57.5C33.4992 57.6 33.4992 57.7 33.3992 57.8C32.7992 58 32.5992 58.5 32.2992 59.1C31.2992 61.7 30.2992 64.2 29.2992 66.8C29.1992 67 29.1992 67.1 29.1992 67.3C29.0992 67.7 29.1992 68 29.5992 68.1C29.6992 68.1 29.7992 68.2 29.7992 68.4C29.7992 68.6 29.5992 68.5 29.4992 68.5C28.2992 68.5 26.9992 68.5 25.7992 68.5C25.6992 68.5 25.5992 68.6 25.4992 68.4C25.4992 68.2 25.4992 68.2 25.6992 68.1C26.0992 67.8 26.1992 67.6 26.0992 67.2C25.2992 65.2 24.4992 63.1 23.6992 61.1C23.8992 60.9 23.8992 60.9 23.8992 60.8Z" fill="#2A363A"/>
<path d="M66.3 64.9006C65.4 64.9006 64.5 64.9006 63.6 64.9006C63.4 64.9006 63.3 65.0006 63.2 65.1006C62.9 65.7006 62.7 66.2006 62.4 66.8006C62.1 67.4006 62.2 67.6006 62.8 67.9006C62.9 68.0006 62.9 68.0006 62.9 68.2006C62.9 68.4006 62.8 68.3006 62.7 68.3006C61.4 68.3006 60 68.3006 58.7 68.3006C58.6 68.3006 58.5 68.3006 58.5 68.2006C58.5 68.1006 58.5 68.0006 58.6 68.0006C59.1 67.9006 59.3 67.5006 59.5 67.1006C61.2 63.6006 62.8 60.1006 64.5 56.6006C64.8 56.0006 64.7 55.8006 64.2 55.3006C64.1 55.2006 64.1 55.2006 64.1 55.1006C64.1 54.9006 64.2 55.0006 64.3 55.0006C65.7 55.0006 67.2 55.0006 68.6 55.0006C68.7 55.0006 68.8 55.0006 68.8 55.1006C68.8 55.2006 68.8 55.3006 68.7 55.3006C68.1 55.8006 68.1 55.9006 68.4 56.6006C69.2 58.3006 70.1 60.0006 71 61.7006C71.9 63.5006 72.8 65.3006 73.7 67.1006C73.9 67.5006 74.1 67.8006 74.5 67.9006C74.6 67.9006 74.7 68.0006 74.7 68.2006C74.7 68.4006 74.5 68.3006 74.5 68.3006C73 68.3006 71.6 68.3006 70.1 68.3006C70 68.3006 69.9 68.4006 69.8 68.2006C69.8 68.1006 69.8 68.0006 70 67.9006C70.5 67.7006 70.6 67.4006 70.4 67.0006C70.1 66.3006 69.8 65.7006 69.4 65.0006C69.3 64.8006 69.2 64.8006 69 64.8006C68.1 64.9006 67.2 64.9006 66.3 64.9006ZM66.3 58.4006C66 59.0006 65.8 59.6006 65.5 60.1006C65.1 61.0006 64.7 61.9006 64.2 62.8006C64.1 63.0006 64.1 63.1006 64.4 63.1006C64.7 63.1006 65.1 63.1006 65.4 63.1006C66.4 63.1006 67.4 63.1006 68.4 63.1006C67.7 61.5006 67 60.0006 66.3 58.4006Z" fill="#2A363A"/>
<path d="M23.1998 71.7999C24.8998 71.6999 26.6997 72.2999 28.2997 73.2999C28.5997 73.4999 28.7997 73.5999 29.0997 73.6999C29.2997 73.7999 29.5997 73.8999 29.7997 73.6999C29.8997 73.5999 29.9997 73.6999 30.0997 73.6999C30.1997 73.7999 30.0997 73.8999 30.0997 73.8999C29.5997 74.6999 28.9997 75.4999 28.4997 76.2999C28.3997 76.3999 28.3997 76.4999 28.2997 76.3999C28.1997 76.3999 28.0997 76.2999 28.0997 76.1999C28.1997 75.6999 27.8997 75.4999 27.5997 75.2999C25.9997 74.2999 24.2998 73.7999 22.3998 73.9999C20.9998 74.1999 19.8997 74.6999 18.9997 75.7999C17.1997 78.0999 17.7997 82.1999 21.4997 83.0999C23.5997 83.5999 25.5997 83.1999 27.4997 81.9999C27.7997 81.7999 28.0997 81.4999 28.0997 81.0999C28.0997 80.8999 28.1997 80.8999 28.2997 80.7999C28.3997 80.6999 28.3997 80.8999 28.4997 80.8999C28.9997 81.6999 29.5997 82.3999 30.0997 83.1999C30.1997 83.2999 30.2998 83.3999 30.1998 83.4999C30.0998 83.5999 29.9998 83.5999 29.8998 83.4999C29.6998 83.2999 29.3998 83.3999 29.1998 83.5999C28.3998 83.9999 27.4997 84.5999 26.5997 84.8999C24.1997 85.7999 21.6997 85.7999 19.2997 84.7999C17.6997 84.1999 16.4997 82.9999 15.7997 81.3999C14.1997 77.4999 16.0998 72.8999 20.6998 71.8999C21.3998 71.8999 22.1998 71.7999 23.1998 71.7999Z" fill="#2A363A"/>
<path d="M42.8998 61.2004C42.7998 61.4004 42.7998 61.5004 42.7998 61.6004C42.7998 63.4004 42.7998 65.2004 42.7998 67.0004C42.7998 67.4004 42.7998 67.8004 43.2998 68.0004C43.3998 68.0004 43.3998 68.1004 43.3998 68.2004C43.3998 68.4004 43.2998 68.3004 43.1998 68.3004C42.0998 68.3004 40.9998 68.3004 39.9998 68.3004C39.8998 68.3004 39.7998 68.3004 39.7998 68.2004C39.7998 68.1004 39.7998 68.0004 39.8998 67.9004C40.3998 67.8004 40.3998 67.4004 40.3998 67.0004C40.3998 64.2004 40.3998 61.4004 40.3998 58.6004C40.3998 58.2004 40.2998 57.9004 39.8998 57.7004C39.7998 57.7004 39.7998 57.6004 39.7998 57.4004C39.7998 57.2004 39.8998 57.3004 39.9998 57.3004C41.1998 57.3004 42.4998 57.3004 43.6998 57.3004C43.7998 57.3004 43.8998 57.2004 43.8998 57.4004C43.8998 57.5004 43.8998 57.6004 43.7998 57.6004C43.3998 57.9004 43.3998 58.1004 43.7998 58.5004C44.5998 59.3004 45.3998 60.0004 46.1998 60.8004C47.2998 61.9004 48.3998 62.9004 49.3998 64.0004C49.4998 64.1004 49.4998 64.1004 49.5998 64.2004C49.6998 64.1004 49.6998 64.0004 49.6998 63.9004C49.6998 62.1004 49.6998 60.2004 49.6998 58.4004C49.6998 58.0004 49.5998 57.7004 49.1998 57.6004C49.0998 57.6004 48.9998 57.5004 49.0998 57.4004C49.0998 57.2004 49.1998 57.3004 49.2998 57.3004C50.3998 57.3004 51.3998 57.3004 52.4998 57.3004C52.5998 57.3004 52.6998 57.3004 52.6998 57.4004C52.6998 57.5004 52.6998 57.6004 52.5998 57.7004C52.0998 57.8004 52.0998 58.2004 52.0998 58.6004C52.0998 61.4004 52.0998 64.3004 52.0998 67.1004C52.0998 67.5004 52.1998 67.8004 52.5998 67.9004C52.6998 67.9004 52.7998 68.1004 52.6998 68.2004C52.6998 68.4004 52.4998 68.3004 52.3998 68.3004C51.2998 68.3004 50.0998 68.3004 48.9998 68.3004C48.8998 68.3004 48.7998 68.4004 48.6998 68.2004C48.6998 68.1004 48.6998 68.0004 48.8998 67.9004C49.1998 67.7004 49.2998 67.6004 48.9998 67.3004C48.0998 66.4004 47.1998 65.5004 46.1998 64.5004C45.1998 63.5004 44.0998 62.4004 42.8998 61.2004Z" fill="#2A363A"/>
<path d="M93.3995 57.4002C94.8995 57.4002 96.4994 57.4002 97.9994 57.4002C98.3994 57.4002 98.6994 57.3002 98.7994 56.9002C98.7994 56.8002 98.8994 56.7002 98.9994 56.8002C99.0994 56.8002 99.0994 56.9002 99.0994 57.0002C99.0994 57.9002 99.0994 58.9002 99.0994 59.8002C99.0994 59.9002 99.0994 60.0002 98.9994 60.0002C98.8994 60.0002 98.7994 60.0002 98.7994 59.9002C98.6994 59.5002 98.2995 59.4002 97.8995 59.4002C95.8995 59.4002 93.8995 59.4002 91.8995 59.4002C91.5995 59.4002 91.4994 59.5002 91.4994 59.8002C91.4994 60.4002 91.4994 60.9002 91.4994 61.5002C91.4994 61.7002 91.5994 61.8002 91.7994 61.8002C93.0994 61.8002 94.3994 61.8002 95.5994 61.8002C95.8994 61.8002 96.1994 61.7002 96.2994 61.3002C96.2994 61.2002 96.3994 61.1002 96.4994 61.1002C96.6994 61.1002 96.5994 61.2002 96.5994 61.3002C96.5994 62.2002 96.5994 63.2002 96.5994 64.1002C96.5994 64.2002 96.5994 64.3002 96.4994 64.3002C96.2994 64.3002 96.2994 64.2002 96.2994 64.1002C96.1994 63.8002 95.8994 63.6002 95.5994 63.6002C94.2994 63.6002 93.0994 63.6002 91.7994 63.6002C91.5994 63.6002 91.4994 63.7002 91.4994 63.9002C91.4994 64.6002 91.4994 65.2002 91.4994 65.9002C91.4994 66.1002 91.4994 66.2002 91.7994 66.2002C93.9994 66.2002 96.1995 66.2002 98.3995 66.2002C98.6995 66.2002 98.9994 66.1002 99.0994 65.8002C99.0994 65.7002 99.1994 65.6002 99.2994 65.6002C99.4994 65.6002 99.3995 65.8002 99.3995 65.9002C99.3995 66.8002 99.3995 67.7002 99.3995 68.7002C99.3995 68.8002 99.4994 68.9002 99.2994 69.0002C99.0994 69.0002 99.0994 68.9002 98.9994 68.8002C98.8994 68.4002 98.5995 68.3002 98.1995 68.3002C94.9995 68.3002 91.7994 68.3002 88.5994 68.3002C88.4994 68.3002 88.2995 68.4002 88.1995 68.2002C88.0995 68.0002 88.2994 68.0002 88.4994 67.9002C88.7994 67.8002 88.8995 67.5002 88.8995 67.3002C88.8995 64.4002 88.8995 61.4002 88.8995 58.5002C88.8995 58.2002 88.7994 58.0002 88.4994 57.8002C88.3994 57.7002 88.2994 57.7002 88.2994 57.5002C88.2994 57.3002 88.4994 57.4002 88.5994 57.4002C90.1994 57.4002 91.7995 57.4002 93.3995 57.4002Z" fill="#293539"/>
<path d="M79.7998 57.4C80.9998 57.4 82.4998 57.3 83.8998 57.5C84.7998 57.6 85.6998 57.8 86.3998 58.6C87.9998 60.6 86.8998 63.2 84.3998 63.7C83.6998 63.8 82.9998 63.9 82.2998 63.9C81.1998 63.9 80.0998 63.9 78.8998 63.9C78.6998 63.9 78.5998 63.9 78.5998 64.2C78.5998 65.2 78.5998 66.3 78.5998 67.3C78.5998 67.6 78.6998 67.9 78.9998 68C79.0998 68 79.1998 68.1 79.1998 68.3C79.1998 68.5 78.9998 68.4 78.8998 68.4C77.7998 68.4 76.6998 68.4 75.5998 68.4C75.4998 68.4 75.2998 68.5 75.2998 68.3C75.2998 68.2 75.3998 68.1 75.4998 68C75.7998 67.9 75.9998 67.6 75.9998 67.3C75.9998 64.4 75.9998 61.5 75.9998 58.5C75.9998 58.2 75.8998 57.9 75.5998 57.8C75.4998 57.7 75.3998 57.7 75.3998 57.5C75.3998 57.3 75.5998 57.4 75.6998 57.4C76.9998 57.4 78.2998 57.4 79.7998 57.4ZM81.0998 61.9C81.7998 61.9 82.5998 62 83.3998 61.8C84.0998 61.7 84.3998 61.3 84.3998 60.6C84.3998 59.9 84.0998 59.5 83.3998 59.5C81.8998 59.3 80.3998 59.5 78.8998 59.4C78.6998 59.4 78.6998 59.5 78.6998 59.7C78.6998 60.3 78.6998 61 78.6998 61.6C78.6998 61.9 78.7998 61.9 78.9998 61.9C79.5998 61.9 80.2998 61.9 81.0998 61.9Z" fill="#2A363A"/>
<path d="M49.8994 74.5006C51.0994 74.5006 52.5994 74.4006 53.9994 74.6006C54.8994 74.7006 55.7994 74.9006 56.4994 75.7006C57.9994 77.6006 56.9994 80.3006 54.4994 80.8006C53.5994 81.0006 52.7994 81.0006 51.8994 81.0006C50.9994 81.0006 50.0994 81.0006 49.0994 81.0006C48.7994 81.0006 48.6994 81.1006 48.6994 81.4006C48.6994 82.4006 48.6994 83.4006 48.6994 84.4006C48.6994 84.7006 48.7994 85.0006 49.0994 85.2006C49.1994 85.2006 49.2994 85.3006 49.2994 85.5006C49.2994 85.7006 49.0994 85.6006 48.9994 85.6006C47.8994 85.6006 46.7994 85.6006 45.6994 85.6006C45.5994 85.6006 45.4994 85.7006 45.3994 85.5006C45.3994 85.3006 45.3994 85.2006 45.5994 85.2006C45.8994 85.1006 45.9994 84.8006 45.9994 84.5006C45.9994 81.6006 45.9994 78.7006 45.9994 75.8006C45.9994 75.5006 45.8994 75.2006 45.5994 75.1006C45.4994 75.0006 45.3994 75.0006 45.3994 74.8006C45.3994 74.6006 45.5994 74.7006 45.6994 74.7006C46.9994 74.5006 48.2994 74.5006 49.8994 74.5006ZM51.0994 76.5006C50.2994 76.5006 49.6994 76.5006 48.9994 76.5006C48.7994 76.5006 48.6994 76.5006 48.6994 76.8006C48.6994 77.1006 48.6994 77.5006 48.6994 77.8006C48.6994 78.2006 48.5994 78.7006 48.7994 78.9006C48.9994 79.1006 49.5994 79.0006 49.9994 79.0006C51.1994 79.0006 52.2994 79.1006 53.4994 78.9006C54.1994 78.8006 54.4994 78.4006 54.4994 77.7006C54.4994 77.0006 54.1994 76.6006 53.4994 76.5006C52.5994 76.4006 51.7994 76.5006 51.0994 76.5006Z" fill="#2A363A"/>
<path d="M110.399 68.4C109.699 68.4 108.899 68.4 108.199 68.4C108.099 68.4 107.899 68.5 107.899 68.3C107.899 68.1 107.999 68.1 108.099 68C108.499 67.8 108.599 67.6 108.399 67.2C107.799 66.4 107.199 65.6 106.599 64.8C106.499 64.7 106.399 64.7 106.299 64.8C105.699 65.5 105.099 66.2 104.599 67C104.199 67.5 104.299 67.9 104.799 68C104.899 68 104.999 68.1 104.999 68.3C104.999 68.5 104.799 68.4 104.699 68.4C103.299 68.4 101.899 68.4 100.499 68.4C100.399 68.4 100.299 68.4 100.199 68.3C100.199 68.2 100.199 68.1 100.299 68.1C100.999 67.9 101.299 67.4 101.699 66.9C102.699 65.7 103.699 64.4 104.699 63.2C104.899 63 104.899 62.9 104.699 62.7C103.799 61.5 102.899 60.3 101.899 59.1C101.499 58.6 101.099 58.1 100.499 57.9C100.399 57.9 100.299 57.8 100.399 57.6C100.399 57.5 100.499 57.5 100.599 57.5C102.099 57.5 103.599 57.5 105.199 57.5C105.299 57.5 105.399 57.5 105.399 57.6C105.399 57.7 105.399 57.8 105.299 57.9C104.699 58.3 104.599 58.5 105.099 59.1C105.499 59.7 105.999 60.2 106.399 60.8C106.499 60.9 106.499 61 106.699 60.9C107.199 60.2 107.799 59.6 108.199 59C108.499 58.5 108.399 58.2 107.899 58C107.799 58 107.699 57.9 107.699 57.7C107.699 57.5 107.899 57.6 107.999 57.6C109.399 57.6 110.799 57.6 112.199 57.6C112.299 57.6 112.499 57.5 112.499 57.7C112.499 57.9 112.399 57.9 112.299 57.9C111.799 58 111.499 58.3 111.299 58.7C110.299 60 109.199 61.3 108.199 62.6C107.999 62.8 108.099 62.9 108.199 63.1C109.299 64.5 110.299 65.9 111.299 67.2C111.699 67.7 111.999 68.1 112.699 68.2C112.799 68.2 112.899 68.3 112.899 68.4C112.899 68.6 112.699 68.5 112.699 68.5C111.899 68.4 111.099 68.4 110.399 68.4Z" fill="#2A363A"/>
<path d="M8.39965 62.4004C8.39965 63.9004 8.39965 65.5004 8.39965 67.0004C8.39965 67.4004 8.39965 67.8004 8.89965 68.0004C8.99965 68.0004 8.99962 68.2004 8.99962 68.3004C8.99962 68.4004 8.89961 68.4004 8.79961 68.4004C7.59961 68.4004 6.2996 68.4004 5.0996 68.4004C4.9996 68.4004 4.89965 68.4004 4.89965 68.3004C4.89965 68.1004 4.9996 68.1004 5.0996 68.0004C5.3996 67.9004 5.5996 67.6004 5.5996 67.3004C5.5996 64.0004 5.5996 60.8004 5.5996 57.5004C5.5996 57.2004 5.49961 57.2004 5.29961 57.2004C4.09961 57.2004 2.7996 57.2004 1.5996 57.2004C1.1996 57.2004 0.999646 57.3004 0.899646 57.7004C0.899646 57.8004 0.799597 57.9004 0.599597 57.9004C0.399597 57.9004 0.499622 57.7004 0.499622 57.6004C0.499622 56.6004 0.499622 55.6004 0.499622 54.7004C0.499622 54.6004 0.399597 54.5004 0.599597 54.4004C0.699597 54.4004 0.799646 54.4004 0.899646 54.6004C0.999646 55.0004 1.2996 55.1004 1.5996 55.1004C5.2996 55.1004 8.8996 55.1004 12.5996 55.1004C12.8996 55.1004 13.1996 55.0004 13.2996 54.6004C13.2996 54.4004 13.3996 54.4004 13.5996 54.4004C13.7996 54.4004 13.6996 54.6004 13.6996 54.7004C13.6996 55.7004 13.6996 56.6004 13.6996 57.6004C13.6996 57.7004 13.7996 57.8004 13.5996 57.9004C13.3996 57.9004 13.3996 57.9004 13.2996 57.7004C13.1996 57.4004 12.9996 57.2004 12.5996 57.3004C11.2996 57.3004 10.0996 57.3004 8.79961 57.3004C8.49961 57.3004 8.49962 57.4004 8.49962 57.6004C8.39962 59.1004 8.39965 60.8004 8.39965 62.4004Z" fill="#2A363A"/>
<path d="M37.4998 82.6004C36.7998 82.6004 36.0998 82.6004 35.2998 82.6004C35.0998 82.6004 34.8998 82.7004 34.7998 82.9004C34.5998 83.4004 34.2998 83.8004 34.1998 84.2004C34.0998 84.6004 34.1998 84.8004 34.5998 85.0004C34.6998 85.1004 34.7998 85.1004 34.7998 85.3004C34.7998 85.5004 34.5998 85.4004 34.4998 85.4004C33.2998 85.4004 32.1998 85.4004 30.9998 85.4004C30.8998 85.4004 30.7998 85.5004 30.7998 85.3004C30.7998 85.2004 30.7998 85.1004 30.9998 85.0004C31.3998 84.9004 31.5998 84.6004 31.6998 84.3004C32.7998 82.1004 33.8998 79.8004 35.0998 77.6004C35.2998 77.1004 35.5998 76.6004 35.7998 76.1004C36.0998 75.5004 36.0998 75.3004 35.5998 74.8004C35.4998 74.7004 35.4998 74.6004 35.4998 74.5004C35.4998 74.4004 35.5998 74.4004 35.6998 74.4004C36.9998 74.4004 38.1998 74.4004 39.4998 74.4004C39.5998 74.4004 39.6998 74.4004 39.6998 74.5004C39.6998 74.6004 39.6998 74.7004 39.5998 74.7004C38.9998 75.2004 38.9998 75.4004 39.3998 76.1004C40.5998 78.5004 41.8998 80.8004 43.1998 83.2004C43.3998 83.6004 43.5998 83.9004 43.7998 84.3004C43.9998 84.6004 44.1998 84.9004 44.5998 85.0004C44.6998 85.0004 44.7998 85.1004 44.7998 85.2004C44.7998 85.4004 44.6998 85.3004 44.5998 85.3004C43.2998 85.3004 41.9998 85.3004 40.5998 85.3004C40.4998 85.3004 40.3998 85.4004 40.2998 85.2004C40.2998 85.1004 40.2998 85.0004 40.4998 84.9004C40.9998 84.7004 40.9998 84.5004 40.8998 84.0004C40.6998 83.5004 40.3998 83.1004 40.1998 82.6004C40.0998 82.4004 39.9998 82.5004 39.8998 82.5004C38.9998 82.6004 38.2998 82.6004 37.4998 82.6004ZM39.1998 81.1004C38.5998 79.9004 37.9998 78.8004 37.3998 77.7004C36.7998 78.9004 36.2998 80.0004 35.6998 81.1004C36.9998 81.1004 38.0998 81.1004 39.1998 81.1004Z" fill="#2A363A"/>
<path d="M79.5994 82.6004C78.8994 82.6004 78.1994 82.6004 77.3994 82.6004C77.1994 82.6004 76.9994 82.6004 76.8994 82.9004C76.6994 83.4004 76.3994 83.8004 76.2994 84.2004C76.1994 84.6004 76.2994 84.8004 76.6994 85.0004C76.7994 85.1004 76.9994 85.1004 76.8994 85.3004C76.8994 85.5004 76.6994 85.4004 76.5994 85.4004C75.3994 85.4004 74.2994 85.4004 73.0994 85.4004C72.9994 85.4004 72.8994 85.5004 72.8994 85.3004C72.8994 85.2004 72.8994 85.1004 73.0994 85.0004C73.4994 84.9004 73.6994 84.6004 73.7994 84.3004C74.8994 82.1004 75.9994 79.8004 77.1994 77.6004C77.3994 77.1004 77.6994 76.6004 77.8994 76.1004C78.1994 75.5004 78.1994 75.3004 77.6994 74.8004C77.5994 74.7004 77.5994 74.6004 77.5994 74.5004C77.5994 74.4004 77.6994 74.4004 77.7994 74.4004C79.0994 74.4004 80.2994 74.4004 81.5994 74.4004C81.6994 74.4004 81.7994 74.4004 81.7994 74.5004C81.7994 74.6004 81.7994 74.7004 81.6994 74.7004C81.0994 75.2004 81.0994 75.4004 81.4994 76.1004C82.4994 78.0004 83.4994 80.0004 84.5994 81.9004C84.9994 82.7004 85.4994 83.6004 85.8994 84.4004C86.0994 84.7004 86.2994 84.9004 86.5994 85.0004C86.6994 85.0004 86.7994 85.1004 86.7994 85.2004C86.7994 85.4004 86.6994 85.3004 86.5994 85.3004C85.2994 85.3004 83.9994 85.3004 82.5994 85.3004C82.4994 85.3004 82.3994 85.4004 82.2994 85.2004C82.2994 85.1004 82.2994 85.0004 82.4994 84.9004C82.9994 84.7004 82.9994 84.5004 82.8994 84.0004C82.6994 83.5004 82.3994 83.1004 82.1994 82.6004C82.0994 82.4004 81.9994 82.5004 81.7994 82.5004C81.0994 82.6004 80.3994 82.6004 79.5994 82.6004ZM81.3994 81.1004C80.7994 79.9004 80.1994 78.8004 79.5994 77.7004C78.9994 78.9004 78.4994 80.0004 77.8994 81.1004C79.0994 81.1004 80.1994 81.1004 81.3994 81.1004Z" fill="#2A363A"/>
<path d="M40.6996 21.8C41.2996 20.2 41.8996 18.6 42.4996 17C42.6996 17.6 42.8996 18.1 43.0996 18.5C43.4996 19.5 43.8996 20.5 44.2996 21.5C44.3996 21.7 44.3996 21.8 44.0996 21.8C43.6996 21.8 43.7997 21.9 43.8997 22.2C44.2997 23 44.6996 23.8 45.0996 24.7C44.7996 24.7 44.4996 24.7 44.1996 24.7C43.9996 24.7 43.8996 24.8 43.9996 25C44.3996 25.9 44.8996 26.8 45.2996 27.6C45.2996 27.7 45.3996 27.8 45.4996 27.8C45.5996 27.8 45.5996 27.7 45.6996 27.6C45.9996 27 46.1996 26.4 46.4996 25.7C46.5996 25.4 46.3996 25.5 46.2996 25.5C45.8996 25.5 45.8996 25.5 45.9996 25.1C46.1996 24.6 46.3996 24.1 46.5996 23.7C46.6996 23.4 46.7996 23.2 46.2996 23.3C46.6996 22.1 47.0996 20.9 47.4996 19.7C47.6996 19.7 47.6996 19.9 47.6996 20C47.9996 21 48.3996 22 48.6996 23C48.7996 23.2 48.8996 23.3 48.4996 23.4C48.2996 23.4 48.3997 23.6 48.3997 23.7C48.5997 24.2 48.7996 24.8 49.0996 25.3C49.1996 25.6 49.1997 25.7 48.8997 25.7C48.4997 25.6 48.4996 25.8 48.5996 26.1C48.8996 26.8 49.1996 27.5 49.4996 28.2C49.6996 28.6 49.4996 28.6 49.1996 28.6C48.8996 28.6 48.5996 28.6 48.2996 28.6C47.9996 28.6 47.8996 28.7 47.9996 28.9C47.9996 29 47.9996 29.1 47.9996 29.1C47.9996 29.9 47.9996 29.9 47.1996 30C46.9996 30 46.8997 29.9 46.8997 29.7C46.8997 29.4 46.8997 29.1 46.8997 28.8C46.8997 28.6 46.8996 28.5 46.5996 28.5C45.4996 28.5 44.3997 28.5 43.3997 28.5C43.1997 28.5 43.0996 28.6 43.0996 28.8C43.0996 29.2 43.0996 29.7 43.0996 30.1C43.0996 30.4 42.9996 30.5 42.7996 30.5C42.4996 30.5 42.1997 30.6 41.8997 30.7C41.6997 30.8 41.5996 30.7 41.5996 30.5C41.5996 30 41.5996 29.6 41.5996 29.1C41.5996 28.5 41.5996 28.5 40.9996 28.5C40.3996 28.5 39.7996 28.5 39.0996 28.5C39.4996 27.6 39.9997 26.8 40.3997 26C40.5997 25.7 40.8996 25.3 40.7996 25C40.6996 24.7 40.1996 25 39.7996 24.9C40.0996 24.2 40.4997 23.4 40.8997 22.6C41.2997 21.9 41.2996 21.9 40.6996 21.8Z" fill="#2A363A"/>
<path d="M67.2992 80.5C67.2992 79.3 67.2992 78 67.2992 76.8C67.2992 76.6 67.1992 76.5 66.9992 76.5C65.9992 76.5 65.0992 76.5 64.0992 76.5C63.7992 76.5 63.4992 76.6 63.3992 77C63.3992 77.1 63.2992 77.2 63.1992 77.2C62.9992 77.2 63.0992 77.1 63.0992 77C63.0992 76.1 63.0992 75.1 63.0992 74.2C63.0992 74.1 62.9992 74 63.1992 74C63.2992 74 63.3992 74.1 63.3992 74.2C63.4992 74.5 63.7992 74.7 64.0992 74.7C67.0992 74.7 70.0992 74.7 73.0992 74.7C73.3992 74.7 73.6992 74.6 73.7992 74.3C73.7992 74.2 73.8992 74.1 73.9992 74.1C74.1992 74.1 74.0992 74.3 74.0992 74.4C74.0992 75.3 74.0992 76.2 74.0992 77.2C74.0992 77.3 74.1992 77.4 73.9992 77.5C73.7992 77.5 73.7992 77.4 73.7992 77.3C73.6992 77 73.3992 76.9 73.0992 76.9C72.0992 76.9 71.1992 76.9 70.1992 76.9C69.8992 76.9 69.8992 77 69.8992 77.2C69.8992 79.7 69.8992 82.2 69.8992 84.8C69.8992 85.1 69.9992 85.4 70.2992 85.5C70.3992 85.6 70.4992 85.6 70.4992 85.8C70.4992 86 70.2992 85.9 70.1992 85.9C69.0992 85.9 67.9992 85.9 66.8992 85.9C66.7992 85.9 66.5992 86 66.5992 85.8C66.5992 85.7 66.5992 85.6 66.7992 85.5C67.1992 85.4 67.2992 85.1 67.2992 84.7C67.2992 83.6 67.2992 82.4 67.2992 81.3C67.2992 80.8 67.2992 80.6 67.2992 80.5Z" fill="#2A363A"/>
<path d="M36.0992 68.4006C35.4992 68.4006 34.9992 68.4006 34.3992 68.4006C34.2992 68.4006 34.1992 68.5006 34.1992 68.3006C34.1992 68.2006 34.1992 68.1006 34.2992 68.1006C34.6992 68.0006 34.7992 67.6006 34.7992 67.2006C34.7992 64.4006 34.7992 61.5006 34.7992 58.7006C34.7992 58.3006 34.6992 58.0006 34.2992 57.8006C34.1992 57.8006 34.1992 57.7006 34.1992 57.6006C34.1992 57.4006 34.2992 57.5006 34.3992 57.5006C35.4992 57.5006 36.6992 57.5006 37.7992 57.5006C37.8992 57.5006 37.9992 57.5006 37.9992 57.6006C37.9992 57.7006 37.9992 57.8006 37.8992 57.9006C37.4992 58.0006 37.3992 58.4006 37.3992 58.7006C37.3992 61.6006 37.3992 64.4006 37.3992 67.3006C37.3992 67.7006 37.3992 68.0006 37.8992 68.1006C37.9992 68.1006 38.0992 68.3006 37.9992 68.4006C37.9992 68.6006 37.7992 68.5006 37.6992 68.5006C37.2992 68.4006 36.6992 68.4006 36.0992 68.4006Z" fill="#2A363A"/>
<path d="M60.1998 85.4006C59.5998 85.4006 59.0998 85.4006 58.4998 85.4006C58.3998 85.4006 58.2998 85.5006 58.2998 85.3006C58.2998 85.2006 58.2998 85.1006 58.3998 85.1006C58.7998 85.0006 58.8998 84.6006 58.8998 84.2006C58.8998 81.4006 58.8998 78.5006 58.8998 75.7006C58.8998 75.3006 58.7998 75.0006 58.3998 74.8006C58.2998 74.8006 58.2998 74.7006 58.2998 74.6006C58.2998 74.4006 58.3998 74.5006 58.4998 74.5006C59.5998 74.5006 60.7998 74.5006 61.8998 74.5006C61.9998 74.5006 62.0998 74.5006 62.0998 74.6006C62.0998 74.7006 62.0998 74.8006 61.9998 74.9006C61.5998 75.0006 61.4998 75.3006 61.4998 75.7006C61.4998 78.6006 61.4998 81.5006 61.4998 84.3006C61.4998 84.6006 61.5998 84.9006 61.8998 85.1006C62.0998 85.2006 62.0998 85.3006 62.0998 85.4006C62.0998 85.6006 61.8998 85.5006 61.7998 85.5006C61.2998 85.4006 60.6998 85.4006 60.1998 85.4006Z" fill="#2A363A"/>
</svg>
