<svg width="30" height="31" viewBox="0 0 30 31" fill="none" xmlns="http://www.w3.org/2000/svg">
<path d="M14.99 30.0502C22.8988 30.0502 29.31 23.6389 29.31 15.7302C29.31 7.82144 22.8988 1.41016 14.99 1.41016C7.08133 1.41016 0.670044 7.82144 0.670044 15.7302C0.670044 23.6389 7.08133 30.0502 14.99 30.0502Z" stroke="#300475" stroke-miterlimit="10"/>
<path d="M7.12 21.9C8.00329 22.0134 8.90034 21.9499 9.75879 21.713C10.6172 21.4761 11.4199 21.0705 12.12 20.5201C11.4218 20.4988 10.7473 20.2613 10.1899 19.8402C9.62909 19.4253 9.21287 18.8444 9 18.18C9.49463 18.2754 10.0046 18.2551 10.49 18.1202C9.73184 17.957 9.05344 17.5364 8.56995 16.93C8.07114 16.326 7.80509 15.5634 7.81995 14.7801C8.28568 15.0398 8.80698 15.1838 9.33997 15.2001C8.63427 14.721 8.13797 13.9908 7.95215 13.1583C7.76633 12.3258 7.90499 11.4538 8.33997 10.7201C9.18473 11.7563 10.2367 12.6046 11.4283 13.2108C12.62 13.8169 13.925 14.1676 15.26 14.2401C15.2688 14.1342 15.2516 14.0278 15.21 13.93C15.1208 13.2351 15.25 12.5299 15.5797 11.9117C15.9094 11.2936 16.4233 10.7931 17.05 10.4801C17.5393 10.2343 18.083 10.1172 18.63 10.14C19.4082 10.1552 20.1557 10.4458 20.74 10.9601C20.8181 11.0249 20.8916 11.095 20.96 11.17C20.9711 11.1746 20.983 11.1771 20.995 11.1771C21.007 11.1771 21.0189 11.1746 21.03 11.17C21.7324 11.023 22.4073 10.7665 23.03 10.41C22.7872 11.1767 22.2758 11.8301 21.59 12.2501C22.2395 12.1685 22.8751 12.0003 23.48 11.7501L23.3 12.0001C22.8971 12.5548 22.4075 13.041 21.85 13.44C21.8455 13.4494 21.8433 13.4597 21.8433 13.4701C21.8433 13.4805 21.8455 13.4907 21.85 13.5001C21.875 13.8764 21.875 14.2537 21.85 14.63C21.7809 15.4128 21.6198 16.1849 21.37 16.93C21.0825 17.8151 20.6682 18.6538 20.14 19.42C19.7154 20.034 19.2222 20.5978 18.67 21.1002C18.0685 21.6536 17.3959 22.1244 16.67 22.5001C15.8814 22.8815 15.0433 23.1508 14.1801 23.3002C13.4611 23.4297 12.73 23.4799 12 23.4501C10.7334 23.4049 9.48868 23.1058 8.33997 22.5702C7.97279 22.3932 7.61564 22.1962 7.27002 21.9801L7.12 21.9Z" fill="#300475"/>
</svg>
