<svg width="157" height="34" viewBox="0 0 130 40" fill="none" xmlns="http://www.w3.org/2000/svg">
<path d="M114.247 17.71C113.982 18.059 113.789 18.4564 113.677 18.8799C112.477 21.9999 111.287 25.1399 110.077 28.2599C109.987 28.4999 110.017 28.98 109.567 28.87C109.117 28.76 108.437 29.06 108.127 28.23C106.407 23.66 104.717 19.06 102.767 14.57C102.447 13.83 102.107 13.15 101.167 13.05C101.106 13.0439 101.046 13.0255 100.993 12.9957C100.939 12.9658 100.892 12.9252 100.854 12.8765C100.817 12.8278 100.79 12.7719 100.775 12.7123C100.76 12.6527 100.757 12.5906 100.767 12.53C100.767 12.28 101.057 12.31 101.247 12.3C102.988 12.19 104.735 12.19 106.477 12.3C106.707 12.3 106.937 12.3699 106.957 12.6499C106.977 12.9299 106.747 13.04 106.487 13.08C105.327 13.27 105.247 13.38 105.597 14.55C106.317 16.97 107.247 19.31 108.127 21.68C108.587 22.92 109.057 24.1499 109.527 25.3799H109.697C110.807 22.4499 111.977 19.55 112.907 16.55C113.022 16.1783 113.103 15.7966 113.147 15.41C113.19 15.1563 113.181 14.8967 113.123 14.6462C113.064 14.3957 112.956 14.1593 112.806 13.9509C112.655 13.7424 112.464 13.566 112.245 13.4319C112.025 13.2979 111.781 13.2088 111.527 13.17C111.247 13.1 110.997 13.05 111.007 12.71C111.017 12.37 111.337 12.36 111.597 12.35C113.382 12.24 115.172 12.24 116.957 12.35C117.217 12.35 117.537 12.35 117.527 12.73C117.517 13.11 117.257 13.1099 116.977 13.1499C115.977 13.2699 115.667 13.7799 115.977 14.7499C116.437 16.2499 116.977 17.75 117.457 19.21C118.127 21.09 118.837 22.96 119.537 24.83C119.579 25.0461 119.704 25.2368 119.887 25.36C120.12 24.8067 120.34 24.2667 120.547 23.74C121.717 20.67 122.877 17.6 123.927 14.49C124.257 13.49 124.097 13.2299 123.047 13.1399C122.767 13.1399 122.447 13.14 122.447 12.72C122.447 12.3 122.807 12.35 123.067 12.33C124.375 12.225 125.689 12.225 126.997 12.33C127.187 12.33 127.417 12.33 127.457 12.58C127.464 12.6703 127.439 12.7602 127.386 12.8335C127.333 12.9069 127.255 12.9589 127.167 12.98C126.167 13.3 125.817 14.2 125.467 15.07C123.767 19.4167 122.06 23.7699 120.347 28.1299C120.254 28.4188 120.054 28.6611 119.788 28.8063C119.522 28.9516 119.21 28.9886 118.917 28.91C118.597 28.84 118.597 28.5799 118.517 28.3799C117.247 25.1099 115.997 21.84 114.727 18.58C114.657 18.2489 114.489 17.9461 114.247 17.71Z" fill="#FE057C"/>
<path d="M60.704 16.31C60.5563 18.5604 60.5328 20.8171 60.6339 23.07C60.6107 24.1619 60.6574 25.2542 60.7739 26.3401C60.7768 26.6464 60.8845 26.9425 61.0792 27.1791C61.2739 27.4156 61.5439 27.5783 61.844 27.64C62.244 27.75 62.944 27.7601 62.844 28.3301C62.744 28.9001 62.114 28.65 61.694 28.65H58.094C57.8525 28.6465 57.6116 28.6232 57.3739 28.5801C57.2039 28.5801 57.0139 28.58 56.9939 28.3C56.9834 28.2004 57.0089 28.1002 57.0658 28.0177C57.1226 27.9352 57.2071 27.8758 57.304 27.8501C57.464 27.7901 57.634 27.7501 57.804 27.7001C58.0282 27.6508 58.2334 27.5377 58.3949 27.3745C58.5564 27.2113 58.6672 27.0048 58.714 26.78C58.8639 26.188 58.9444 25.5807 58.954 24.9701C59.044 21.7101 59.154 18.44 58.954 15.18C58.874 13.71 58.424 13.1801 56.954 13.0901C56.664 13.0901 56.344 13.09 56.344 12.67C56.344 12.25 56.7139 12.28 56.9739 12.28H60.3739C60.6839 12.28 60.8339 12.48 61.0139 12.68L70.704 23.4C70.9791 23.7428 71.3188 24.0283 71.704 24.2401C71.704 23.6701 71.7739 23.17 71.7639 22.66V14.4901C71.7639 13.9901 70.944 13.28 70.214 13.13L69.824 13.07C69.7387 13.0452 69.6646 12.992 69.6136 12.9193C69.5627 12.8466 69.5381 12.7586 69.5439 12.67C69.5426 12.6263 69.5502 12.5828 69.5663 12.5421C69.5824 12.5014 69.6065 12.4645 69.6375 12.4336C69.6684 12.4026 69.7053 12.3784 69.746 12.3623C69.7866 12.3462 69.8302 12.3387 69.8739 12.3401H70.074C71.6448 12.2917 73.2171 12.3285 74.7839 12.4501C74.9739 12.4501 75.284 12.4501 75.304 12.7101C75.324 12.9701 75.034 13.0201 74.844 13.1001C74.6819 13.1619 74.5146 13.2087 74.344 13.2401C74.228 13.2548 74.116 13.2925 74.0148 13.3509C73.9135 13.4094 73.8249 13.4874 73.7542 13.5805C73.6834 13.6736 73.6319 13.7799 73.6027 13.8932C73.5734 14.0064 73.5671 14.1244 73.584 14.2401C73.374 18.1101 73.4339 21.9901 73.3539 25.8601V28.3501C73.3539 28.6601 73.264 28.75 72.944 28.75C72.7259 28.7415 72.5118 28.6894 72.3142 28.5967C72.1167 28.5039 71.9397 28.3725 71.7939 28.2101C70.3339 26.8601 69.034 25.36 67.694 23.9C65.694 21.67 63.694 19.42 61.694 17.18C61.4224 16.8296 61.0864 16.5343 60.704 16.31Z" fill="#FE047B"/>
<path d="M49.7889 19.9701C49.7889 17.9101 49.7889 16.34 49.6789 14.77C49.5789 13.55 49.4889 13.4201 48.3089 13.1001C48.0789 13.0301 47.8889 12.93 47.8889 12.67C47.8889 12.41 48.0989 12.3301 48.3289 12.3101C49.7232 12.1951 51.1246 12.1951 52.5189 12.3101C52.7589 12.3101 52.9589 12.4001 52.9389 12.6901C52.9419 12.7456 52.933 12.8011 52.9128 12.8529C52.8926 12.9047 52.8616 12.9515 52.8218 12.9904C52.7821 13.0292 52.7345 13.0591 52.6822 13.078C52.6299 13.0969 52.5743 13.1045 52.5189 13.1001C51.9389 13.1001 51.7789 13.44 51.7089 13.92C51.5872 14.8922 51.5204 15.8704 51.5089 16.8501C51.5288 19.4388 51.3986 22.0265 51.1188 24.6001C50.8874 25.7492 50.2897 26.7923 49.4152 27.573C48.5408 28.3537 47.4368 28.8299 46.2689 28.9301H43.2689C42.0168 28.8676 40.8322 28.3435 39.9439 27.4589C39.0556 26.5742 38.5266 25.3918 38.4589 24.14C38.3389 21.49 38.2989 18.83 38.2089 16.14C38.2089 15.49 38.1289 14.8401 38.0689 14.1901C38.0089 13.5401 37.8689 13 37.0689 13.05C37.0144 13.0562 36.9593 13.0501 36.9074 13.0323C36.8556 13.0146 36.8083 12.9855 36.7691 12.9473C36.7299 12.909 36.6997 12.8624 36.6806 12.811C36.6615 12.7596 36.6541 12.7046 36.6589 12.65C36.6589 12.35 36.8489 12.29 37.0889 12.28C38.7533 12.157 40.4245 12.157 42.0889 12.28C42.2489 12.28 42.4189 12.2801 42.4589 12.4801C42.4989 12.6801 42.3588 12.7601 42.2288 12.8401C42.0948 12.9527 41.9379 13.0346 41.7689 13.0801C40.9789 13.1801 40.9189 13.6901 40.9189 14.3601C40.9189 17.5001 40.7989 20.63 40.9189 23.77C40.9009 24.2735 40.9864 24.7754 41.1702 25.2445C41.3541 25.7136 41.6322 26.1399 41.9875 26.4971C42.3428 26.8543 42.7677 27.1346 43.2358 27.3209C43.7039 27.5072 44.2054 27.5955 44.7089 27.5801C45.3235 27.6505 45.9459 27.5903 46.5356 27.4033C47.1252 27.2164 47.6687 26.907 48.1304 26.4954C48.5921 26.0837 48.9616 25.5791 49.2147 25.0146C49.4677 24.4502 49.5986 23.8387 49.5988 23.2201C49.7088 22.0001 49.8089 20.7401 49.7889 19.9701Z" fill="#FE057C"/>
<path d="M138.801 28.91H136.111C135.881 28.91 135.601 28.9701 135.571 28.6101C135.541 28.2501 135.751 28.21 136.021 28.15C137.251 27.87 137.691 27.1501 137.271 25.9601C136.981 25.1601 136.631 24.3901 136.331 23.5901C136.277 23.4038 136.157 23.2438 135.993 23.1405C135.828 23.0372 135.632 22.9979 135.441 23.03H130.781C130.471 23.03 130.271 23.0901 130.161 23.4401C129.871 24.3901 129.511 25.33 129.241 26.29C129.144 26.4782 129.097 26.6877 129.104 26.899C129.11 27.1104 129.17 27.3166 129.278 27.4984C129.386 27.6802 129.538 27.8316 129.721 27.9386C129.903 28.0456 130.11 28.1047 130.321 28.1101C130.611 28.1801 130.921 28.2201 130.911 28.5901C130.901 28.9601 130.511 28.9 130.251 28.9H125.671C125.441 28.9 125.141 28.9801 125.111 28.6201C125.106 28.5647 125.111 28.5086 125.128 28.4554C125.145 28.4023 125.173 28.3533 125.209 28.3112C125.246 28.269 125.29 28.2348 125.341 28.2106C125.391 28.1863 125.445 28.1725 125.501 28.17C126.501 28.04 126.881 27.32 127.201 26.54C128.041 24.54 128.851 22.54 129.661 20.54C130.621 18.16 131.578 15.78 132.531 13.4C132.707 13.1193 132.941 12.8789 133.217 12.6946C133.493 12.5102 133.804 12.386 134.131 12.3301C134.471 12.3301 134.481 12.6201 134.561 12.8201L137.561 20.42C138.291 22.3 139.041 24.1801 139.781 26.0601C139.978 26.5452 140.226 27.0078 140.521 27.4401C140.625 27.6261 140.768 27.7871 140.941 27.9115C141.114 28.0359 141.312 28.1208 141.521 28.16C141.791 28.16 142.061 28.27 142.031 28.63C142.001 28.99 141.641 28.89 141.411 28.9H138.791L138.801 28.91ZM133.051 15.4801C132.961 15.5901 132.901 15.6301 132.881 15.6901L131.031 20.91C130.911 21.25 131.031 21.3401 131.361 21.3401H135.051C135.391 21.3401 135.421 21.2001 135.311 20.9401L133.051 15.4801Z" fill="#FE057C"/>
<path d="M147.914 21.9901V26.7301C147.9 27.03 147.993 27.3251 148.176 27.5631C148.359 27.8011 148.62 27.9665 148.914 28.03C149.144 28.1 149.364 28.1801 149.594 28.2401C149.705 28.2574 149.804 28.3172 149.871 28.4068C149.939 28.4965 149.968 28.6089 149.954 28.7201C149.954 29.0101 149.694 29.02 149.464 29.02L144.094 28.9601C143.924 28.9601 143.724 28.9601 143.694 28.7301C143.674 28.6336 143.691 28.5333 143.741 28.4485C143.791 28.3636 143.87 28.3 143.964 28.27C144.234 28.18 144.504 28.1001 144.764 27.9901C145.037 27.905 145.275 27.7328 145.441 27.4999C145.607 27.2669 145.692 26.986 145.684 26.7001C145.774 22.6501 145.754 18.6 145.684 14.55C145.69 14.3202 145.617 14.0953 145.477 13.9132C145.336 13.731 145.138 13.6028 144.914 13.55C144.584 13.45 144.254 13.36 143.914 13.28C143.574 13.2 143.664 13.06 143.654 12.88C143.644 12.7 143.774 12.5901 143.984 12.5801C146.609 12.2636 149.259 12.2166 151.894 12.44C155.154 12.85 156.514 15.3 156.224 18.28C155.914 21.48 153.324 23.2801 149.914 22.7401C149.193 22.6679 148.504 22.4094 147.914 21.9901ZM147.914 17.7001V20.44C147.886 20.6208 147.927 20.8053 148.029 20.9571C148.131 21.109 148.286 21.217 148.464 21.26C149.273 21.5429 150.143 21.6051 150.984 21.44C151.645 21.4142 152.279 21.1708 152.787 20.7477C153.295 20.3245 153.649 19.7453 153.794 19.1001C153.914 18.5892 153.964 18.0644 153.944 17.54C153.844 14.6 151.744 12.95 149.004 13.63C148.844 13.6421 148.689 13.6868 148.547 13.7613C148.406 13.8358 148.281 13.9387 148.181 14.0633C148.081 14.188 148.007 14.3318 147.964 14.4861C147.922 14.6403 147.912 14.8016 147.934 14.9601C147.874 15.8701 147.884 16.7801 147.884 17.7001H147.914Z" fill="#FE057C"/>
<path d="M4.25891 7.74986C5.25891 9.21986 6.17893 10.7499 7.14893 12.1699C7.46893 12.6599 7.80893 13.17 8.14893 13.62C8.23933 13.7713 8.36271 13.9001 8.50989 13.997C8.65706 14.094 8.82421 14.1566 8.9989 14.1799C9.3689 14.2299 9.7989 14.2599 9.9989 13.9099C10.1989 13.5599 9.82893 13.3699 9.64893 13.1399C6.79893 9.31987 4.04897 5.40991 1.06897 1.67991L0.498901 0.979959C0.838901 0.929959 0.928979 1.19996 1.07898 1.35996C4.47231 5.1133 7.85889 8.87321 11.2389 12.6399C11.3872 12.7809 11.5043 12.9516 11.5824 13.1408C11.6605 13.3301 11.6979 13.5336 11.6923 13.7383C11.6866 13.9429 11.638 14.1441 11.5496 14.3287C11.4611 14.5133 11.3349 14.6773 11.179 14.8099C10.6152 15.3378 9.8888 15.6587 9.1189 15.7199C8.1989 15.8799 7.87898 16.1599 7.82898 17.0699C7.73427 18.311 7.39439 19.521 6.82898 20.6299C6.08898 22.2299 6.34891 23.1399 7.75891 24.1799C8.16239 24.4441 8.53769 24.7491 8.87891 25.0899C9.1484 25.4087 9.30287 25.8089 9.31738 26.2261C9.33189 26.6432 9.20555 27.0531 8.95886 27.3899C7.87749 28.5143 6.44574 29.2373 4.89893 29.4399C4.69893 29.4399 4.61897 29.3799 4.56897 29.2099C4.3253 28.6291 4.0202 28.0759 3.65894 27.5599C3.09078 26.7249 2.81591 25.7249 2.87744 24.7168C2.93898 23.7087 3.3334 22.7497 3.9989 21.99C5.10872 20.8873 5.89998 19.5053 6.28894 17.99C6.39894 17.43 6.48888 16.8799 6.59888 16.3199C6.6642 15.8865 6.86358 15.4844 7.16895 15.1699C7.26948 15.0852 7.35227 14.9817 7.41272 14.865C7.47317 14.7483 7.5101 14.6208 7.52124 14.4898C7.53239 14.3589 7.51752 14.227 7.47766 14.1018C7.4378 13.9765 7.37372 13.8603 7.28894 13.7599C6.28894 12.0099 5.38896 10.24 4.43896 8.47996C4.32896 8.27996 4.2289 8.06996 4.1189 7.85996L4.25891 7.74986ZM5.19897 24.99C5.19893 24.8602 5.16468 24.7327 5.09973 24.6203C5.03478 24.508 4.94142 24.4148 4.82898 24.35C4.74835 24.2936 4.65233 24.2633 4.55396 24.2633C4.45558 24.2633 4.35956 24.2936 4.27893 24.35C3.95893 24.58 4.2789 24.7 4.3689 24.87C4.38367 24.9291 4.38367 24.9908 4.3689 25.0499C4.2489 25.3599 4.22893 25.6499 4.64893 25.6599C5.06893 25.6699 5.13897 25.34 5.19897 24.99Z" fill="#FE057C"/>
<path d="M94.6499 11.9499C95.4347 11.9417 96.2193 11.9784 96.9999 12.0599C97.114 12.0502 97.2289 12.066 97.3361 12.1062C97.4433 12.1464 97.5401 12.21 97.6196 12.2924C97.6991 12.3747 97.7593 12.4738 97.7957 12.5824C97.832 12.691 97.8438 12.8063 97.83 12.9199C97.83 13.4799 97.91 14.05 97.96 14.61C97.96 14.8 98.1299 15.0099 97.8899 15.1399C97.7698 15.1967 97.635 15.2147 97.5042 15.1914C97.3733 15.1681 97.253 15.1046 97.1599 15.0099C96.8964 14.7154 96.6866 14.3769 96.5399 14.0099C96.2592 13.5611 95.8448 13.2117 95.3551 13.0107C94.8654 12.8098 94.325 12.7675 93.8099 12.8899C93.2585 12.8809 92.7178 13.0422 92.2615 13.3518C91.8051 13.6614 91.4553 14.1043 91.2599 14.62C91.1282 14.983 91.1045 15.3762 91.1914 15.7524C91.2784 16.1286 91.4723 16.4716 91.7499 16.74C92.416 17.4598 93.1883 18.0735 94.0399 18.5599C95.1557 19.2018 96.2102 19.9449 97.1899 20.7799C97.7039 21.1998 98.1124 21.7342 98.3827 22.3403C98.653 22.9465 98.7776 23.6076 98.7465 24.2705C98.7154 24.9335 98.5295 25.5799 98.2036 26.1581C97.8777 26.7362 97.4209 27.2301 96.8699 27.6C94.7599 29.22 92.39 29.23 89.95 28.6C88.73 28.28 88.7399 28.2499 88.7399 27.0099V25.24C88.7399 24.99 88.7399 24.6699 89.1199 24.6599C89.4999 24.6499 89.5299 24.9299 89.6099 25.1899V25.4399C89.6633 25.8387 89.7965 26.2226 90.0013 26.5688C90.2062 26.9151 90.4785 27.2166 90.8022 27.4554C91.126 27.6943 91.4945 27.8656 91.8857 27.9591C92.277 28.0526 92.6832 28.0665 93.08 27.9999C93.8625 27.9666 94.6064 27.6501 95.173 27.1093C95.7396 26.5684 96.0903 25.8401 96.1599 25.0599C96.1843 24.6309 96.1064 24.2023 95.9325 23.8093C95.7586 23.4164 95.4938 23.0704 95.1599 22.7999C94.3517 22.0683 93.4505 21.4463 92.4799 20.9499C91.6294 20.5016 90.8509 19.9285 90.1699 19.2499C89.5606 18.6637 89.1399 17.9091 88.9618 17.0825C88.7837 16.256 88.8561 15.3951 89.1699 14.61C89.489 13.8372 90.0253 13.1736 90.714 12.6997C91.4027 12.2258 92.2142 11.9618 93.0499 11.9399C93.5829 11.9096 94.1173 11.9129 94.6499 11.9499Z" fill="#FE057C"/>
<path d="M80.6568 20.3C80.5768 18.41 80.7068 16.3801 80.5068 14.3601C80.4168 13.4301 80.2068 13.2101 79.2568 13.1101C78.9568 13.1101 78.5869 13.11 78.5969 12.67C78.6069 12.23 78.9868 12.32 79.2468 12.3C80.9483 12.19 82.6552 12.19 84.3568 12.3C84.6068 12.3 84.9268 12.3 84.9268 12.68C84.9268 13.06 84.6368 13.0501 84.3668 13.1001C84.1898 13.0991 84.0146 13.1355 83.8526 13.2068C83.6906 13.278 83.5455 13.3826 83.4266 13.5138C83.3077 13.6449 83.2178 13.7997 83.1627 13.9679C83.1076 14.1361 83.0885 14.314 83.1068 14.4901C83.0468 18.4901 83.0269 22.59 83.2169 26.64C83.2088 26.7873 83.2306 26.9346 83.2811 27.0732C83.3316 27.2118 83.4096 27.3387 83.5106 27.4463C83.6116 27.5538 83.7334 27.6396 83.8685 27.6987C84.0036 27.7578 84.1493 27.7889 84.2968 27.79C84.5668 27.79 84.9268 27.7901 84.9168 28.2101C84.9068 28.6301 84.5068 28.6201 84.2268 28.6201H79.2268C78.9768 28.6201 78.5869 28.6201 78.5769 28.2401C78.5669 27.8601 78.9269 27.8 79.1969 27.78C80.0869 27.71 80.4368 27.1801 80.5168 26.3601C80.6704 24.344 80.7171 22.3211 80.6568 20.3Z" fill="#FE057C"/>
<path d="M18.3529 14.4399C19.9629 15.6899 21.813 15.62 23.553 15.98C24.5835 16.1404 25.5783 16.4788 26.4929 16.98C27.5982 17.6444 28.4113 18.7021 28.7693 19.941C29.1272 21.18 29.0035 22.5084 28.423 23.6599C28.373 23.7499 28.313 23.8299 28.183 24.0299C28.1293 23.3448 27.8789 22.6898 27.462 22.1434C27.0452 21.5971 26.4796 21.1827 25.833 20.95C24.603 20.35 23.333 19.8199 22.073 19.2699C21.2082 18.9054 20.3973 18.4243 19.663 17.84C19.1729 17.4319 18.7952 16.9054 18.5659 16.3103C18.3366 15.7152 18.2633 15.0713 18.3529 14.4399Z" fill="#FE047B"/>
<path d="M24.8529 31.1398C25.3195 30.2268 25.4058 29.1663 25.0929 28.1899C24.8358 27.4877 24.5004 26.8168 24.0929 26.1899C23.5729 25.3599 23.0129 24.5499 22.5229 23.7099C21.9288 22.7859 21.7072 21.6709 21.903 20.5899C21.953 20.3199 22.0029 20.0999 22.3529 20.3199C23.4929 21.0299 24.713 21.6198 25.823 22.3898C29.083 24.6598 28.233 29.3899 25.313 31.0799C25.2507 31.134 25.1738 31.1685 25.092 31.1791C25.0102 31.1898 24.927 31.1761 24.8529 31.1398Z" fill="#FE047B"/>
<path d="M23.6919 14.77C22.7774 14.7472 21.8653 14.6637 20.9618 14.52C19.4975 14.3116 18.1675 13.5536 17.2418 12.4L15.3219 9.99997C14.2538 8.44102 12.6163 7.36374 10.7618 6.99997C11.6683 6.8788 12.5898 7.05059 13.3918 7.49009C14.258 7.91521 15.022 8.5223 15.6318 9.26999C15.7952 9.49288 16.0217 9.66166 16.282 9.75437C16.5423 9.84708 16.8243 9.85947 17.0918 9.79001C18.8948 9.52996 20.7346 9.79378 22.3918 10.55C23.9718 11.23 24.0618 11.81 23.6218 13.64C23.5418 13.97 23.4419 14.25 23.6919 14.54V14.77Z" fill="#FE047B"/>
<path d="M22.0209 33.2301C21.7346 33.4709 21.3975 33.6438 21.0349 33.7358C20.6723 33.8279 20.2937 33.8368 19.9272 33.7617C19.5608 33.6867 19.2159 33.5298 18.9187 33.3026C18.6215 33.0755 18.3794 32.784 18.2108 32.4501C17.8308 31.7901 17.5508 31.08 17.2108 30.4C17.0299 29.9523 16.7437 29.555 16.3763 29.2416C16.009 28.9282 15.5714 28.7082 15.1008 28.6001C14.6477 28.5019 14.1741 28.5844 13.7809 28.8301C13.518 28.9923 13.3176 29.2386 13.2123 29.5291C13.107 29.8195 13.103 30.137 13.2009 30.4301C13.3215 30.7282 13.5291 30.983 13.7966 31.1614C14.0642 31.3398 14.3794 31.4334 14.7009 31.4301C14.8507 31.414 14.9957 31.3682 15.1274 31.2953C15.2592 31.2224 15.3751 31.1239 15.4683 31.0056C15.5614 30.8873 15.63 30.7515 15.6699 30.6063C15.7099 30.4611 15.7204 30.3094 15.7009 30.16C15.6695 30.0224 15.6093 29.8929 15.5243 29.7802C15.4393 29.6674 15.3313 29.5739 15.2075 29.5059C15.0838 29.4378 14.947 29.3969 14.8063 29.3855C14.6655 29.3742 14.5239 29.3928 14.3909 29.4401L14.0109 29.52C14.1234 29.4063 14.2573 29.3161 14.4049 29.2545C14.5525 29.1929 14.7109 29.1613 14.8708 29.1613C15.0308 29.1613 15.1892 29.1929 15.3368 29.2545C15.4844 29.3161 15.6183 29.4063 15.7308 29.52C15.9625 29.7681 16.1019 30.0884 16.1256 30.427C16.1493 30.7656 16.0558 31.1021 15.8608 31.38C15.564 31.7643 15.1273 32.0158 14.6459 32.0795C14.1645 32.1432 13.6774 32.014 13.2909 31.7201C13.0907 31.5844 12.9091 31.423 12.7509 31.2401C12.2667 30.6136 11.6497 30.1021 10.9442 29.7424C10.2388 29.3828 9.46238 29.1838 8.6709 29.16C9.04338 28.7072 9.49375 28.3245 10.0009 28.03C11.5035 26.9481 13.3474 26.4473 15.1909 26.6201C16.0051 26.6841 16.7763 27.0115 17.3879 27.5527C17.9996 28.094 18.4184 28.8197 18.5809 29.6201C18.7309 30.2601 18.8009 30.9101 18.9409 31.5501C19.2609 33.1201 19.9409 33.5501 21.5309 33.3501C21.6409 33.2401 21.7709 33.2501 22.0209 33.2301Z" fill="#FE057C"/>
<path d="M10.3499 8.43992C10.3499 7.69992 10.3999 7.67988 11.0699 7.89988C11.48 8.01619 11.8529 8.23662 12.1526 8.53978C12.4522 8.84293 12.6684 9.21846 12.7799 9.62986C12.9921 10.8488 13.4115 12.0226 14.0199 13.1C14.2699 13.45 13.8799 13.4799 13.6599 13.4499C13.1182 13.3673 12.6152 13.1194 12.2198 12.74C11.6377 12.1837 11.1724 11.5168 10.8513 10.7784C10.5302 10.04 10.3597 9.24504 10.3499 8.43992Z" fill="#FE057C"/>
<path d="M13.6719 25.26C14.3678 24.7755 15.1706 24.4668 16.0118 24.3601C16.6018 24.2401 17.2119 24.16 17.8119 24.03C20.0619 23.54 20.9919 22.1001 20.5219 19.8601C20.5029 19.7463 20.4693 19.6353 20.4219 19.53C21.3319 20.11 21.5119 22.25 20.7019 23.28C20.2497 23.901 19.6126 24.3631 18.8818 24.6001C17.1818 25.1301 15.3919 24.86 13.6719 25.26Z" fill="#FE057C"/>
<path d="M12.3599 18.2599C11.6199 18.2599 11.36 18.0599 11.29 17.4399C11.2713 17.0684 11.3923 16.7034 11.6292 16.4166C11.866 16.1298 12.2017 15.9418 12.57 15.8899C12.8761 15.8568 13.1848 15.9235 13.45 16.0799C13.6687 16.1803 13.8543 16.3407 13.9853 16.5426C14.1163 16.7444 14.1873 16.9793 14.19 17.2199C14.19 17.7199 13.73 17.9199 13.32 18.0899C13.0108 18.1964 12.6868 18.2537 12.3599 18.2599ZM12.7499 17.0999C13.0599 17.0399 13.4499 17.0299 13.4699 16.6099C13.4899 16.1899 13.1599 16.1299 12.8399 16.1099C12.5199 16.0899 12.09 16.19 12.08 16.62C12.07 17.05 12.4399 17.0399 12.7499 17.0999Z" fill="#FE057C"/>
<path d="M23.693 14.7699V14.5599C24.153 14.7499 24.423 14.4899 24.693 14.1399C24.9349 13.6774 25.1195 13.1871 25.2429 12.6799C26.2075 13.6892 26.8484 14.9638 27.083 16.34C26.263 15.05 25.023 14.8699 23.693 14.7699Z" fill="#FE057C"/>
<path d="M26.0229 11.8501C25.5629 11.7201 25.2729 11.11 24.8929 11.29C24.5129 11.47 24.733 12.09 24.673 12.5C24.6654 12.7924 24.5675 13.0754 24.3929 13.3101C24.6229 11.4801 24.1629 10.07 22.0129 9.52002C22.476 9.44049 22.9523 9.52162 23.3629 9.75C23.8229 9.93 24.033 9.92009 24.053 9.34009C24.0128 8.8738 24.1251 8.40699 24.3729 8.01001C23.9429 9.69001 24.9329 10.7701 26.0229 11.8501Z" fill="#FE057C"/>
</svg>
