<svg id="Layer_1" data-name="Layer 1" xmlns="http://www.w3.org/2000/svg" xmlns:xlink="http://www.w3.org/1999/xlink" width="470.02" height="162.25" viewBox="0 0 470.02 162.25"><defs><style>.cls-1{isolation:isolate;}.cls-2{fill:#1d1c1a;}.cls-3,.cls-4{fill-rule:evenodd;}.cls-3{fill:url(#GradientFill_1);}.cls-4{fill:url(#GradientFill_2);}</style><linearGradient id="GradientFill_1" x1="211.15" y1="32.54" x2="-17.12" y2="60.46" gradientUnits="userSpaceOnUse"><stop offset="0" stop-color="#035ba9"/><stop offset="0.23" stop-color="#035ba9"/><stop offset="0.86" stop-color="#55c7e6"/><stop offset="1" stop-color="#55c7e6"/></linearGradient><linearGradient id="GradientFill_2" x1="219.36" y1="84.01" x2="-27.81" y2="80.9" gradientUnits="userSpaceOnUse"><stop offset="0" stop-color="#55c7e6"/><stop offset="0.14" stop-color="#55c7e6"/><stop offset="0.77" stop-color="#035ba9"/><stop offset="1" stop-color="#035ba9"/></linearGradient></defs><g class="cls-1"><path class="cls-2" d="M245.17,164H222.84l-10.21-18-24.41-43.18L163.81,146l-10.22,18H131.26l10.21-18L188.22,63.2,235,146Z" transform="translate(-8.06 -2.18)"/></g><g class="cls-1"><path class="cls-2" d="M255.81,164.23V63.85h17.92V164.23Z" transform="translate(-8.06 -2.18)"/></g><g class="cls-1"><path class="cls-2" d="M283.88,164.14h.28l-.28.28ZM384.26,63.61,345.4,114l-2.15,2.72V164H325.32V117l-2.44-3L284,63.61h22.66l27.53,35.71,27.54-35.71Zm-.14,100.53h.14v.28Z" transform="translate(-8.06 -2.18)"/></g><g class="cls-1"><path class="cls-2" d="M478.07,114a50.19,50.19,0,1,1-50.19-50.19A50.25,50.25,0,0,1,478.07,114Zm-17.92,0a32.27,32.27,0,1,0-32.27,32.26A32.32,32.32,0,0,0,460.15,114Z" transform="translate(-8.06 -2.18)"/></g><path class="cls-3" d="M31.47,16v0A69.66,69.66,0,0,1,43.15,32.4h0l1.25,2.41q2.79,5.37,5.46,10.79c.4.82.81,1.64,1.21,2.45,5.14,10.3,10.51,20.47,15.68,30.74a48.74,48.74,0,0,0,9.87,13.88,29.51,29.51,0,0,0,12.27,7,30.58,30.58,0,0,0,11.58.93C118,98.7,129.14,84.3,135,68.72c3-7.92,3.82-16.41,6.3-24.46a12.46,12.46,0,0,1,.44-1.54,61.39,61.39,0,0,1,6.17-12.51h0a58.93,58.93,0,0,1,4.29-5.88q.85-1.06,1.77-2.07h0c.4-.45.81-.89,1.23-1.33l.64-.65h0c.21-.22.42-.43.64-.64s.71-.69,1.07-1,.43-.4.65-.6h0l.61-.55h0l.55-.49h0l.8-.68c.12-.1.24-.21.36-.3s.34-.28.51-.41h0l.31-.25.13-.11q1.73-1.37,3.62-2.67c9-6.21,19.94-10.8,29.81-10.24h.14c-1.21-.07-2.41-.11-3.62-.11a61.28,61.28,0,0,0-49,25.2c-3.86,5.4-6.8,11.4-9.95,17.24q-4.12,7.65-8.78,15c-2.92,4.61-5.82,10.22-10,13.76a14.41,14.41,0,0,1-9.45,3,16,16,0,0,1-14.65-9.6L72.12,36.68A60.78,60.78,0,0,0,8.06,2.91h0S19.53,3.78,31.47,16Z" transform="translate(-8.06 -2.18)"/><path class="cls-4" d="M194.93,2.3C183.69,1.67,171,7.67,161.5,15.14l-.44.35-.87.71c-.27.23-.55.45-.81.68l-.55.49-.61.54c-.22.2-.44.39-.65.6s-.72.68-1.07,1-.43.43-.64.64l-.64.65c-.42.44-.83.88-1.23,1.33-.61.67-1.21,1.35-1.78,2.05a64.68,64.68,0,0,0-4.29,5.86,61.66,61.66,0,0,0-4.7,8.78c-4.13,9.47-4.58,19.91-8.21,29.52-5.87,15.49-17,29.81-34.54,31.67a30.58,30.58,0,0,1-11.58-.93,29.43,29.43,0,0,1-12.27-6.92,48.53,48.53,0,0,1-9.87-13.81C61.58,68.15,56.21,58,51.07,47.8l-1.21-2.44q-3.27-6.61-6.71-13.12C28.46,4.44,8.06,2.91,8.06,2.91L35.94,50.77l27,46.28,2.16,3.71L101.88,164l39.05-67.05,3.77-6.47Z" transform="translate(-8.06 -2.18)"/></svg>