<svg xmlns="http://www.w3.org/2000/svg" width="193" height="69" viewBox="0 0 193 69"><g><g opacity=".5"><g opacity=".5"><path fill="#1c1b17" d="M54.104 7.144L23.842 34.4l-3.46-5.043L45.047 7.144c2.46-2.216.893-6.3-2.42-6.3h9.059c3.312 0 4.88 4.083 2.419 6.3z"/></g></g><g><path fill="#1c1b17" d="M45.045 7.144c2.461-2.216.893-6.3-2.419-6.3H.83l19.553 28.512z"/></g><g><path fill="#1c1b17" d="M47.505 68.903L38.806 56.22a17.32 17.32 0 0 1 .767-20.623L67.41.845S38.273 44.034 47.505 68.903z"/></g><g opacity=".5"><g opacity=".5"><path fill="#1c1b17" d="M94.18.845L47.505 68.903C38.272 44.032 67.41.844 67.41.844z"/></g></g><g><path fill="#1c1b17" d="M103.582 29.255L98.41 41.21h-2.733L90.52 29.255h2.988l3.637 8.54 3.69-8.54zM113.83 41.21h-9.255V29.255h9.033v2.22h-6.284v2.595h5.55v2.152h-5.55v2.767h6.506zm7.514-3.33h-2.545v3.33h-2.766V29.255h5.174c1.059 0 1.978.177 2.758.53.78.352 1.38.853 1.802 1.502.42.65.632 1.418.632 2.306 0 .888-.214 1.653-.641 2.296-.426.644-1.033 1.136-1.818 1.477l2.68 3.843h-2.971zm1.605-5.832c-.432-.358-1.064-.538-1.895-.538h-2.254v4.167h2.253c.832 0 1.464-.182 1.896-.546.433-.365.649-.877.649-1.537 0-.672-.216-1.187-.65-1.546zm6.822 8.982c-.883-.255-1.592-.588-2.127-.999l.94-2.083c.512.376 1.121.678 1.827.905a6.85 6.85 0 0 0 2.117.341c.786 0 1.366-.116 1.742-.35.376-.233.564-.543.564-.93a.891.891 0 0 0-.333-.709 2.51 2.51 0 0 0-.854-.452 17.05 17.05 0 0 0-1.409-.376c-.91-.216-1.657-.433-2.237-.649a3.625 3.625 0 0 1-1.494-1.04c-.416-.479-.624-1.118-.624-1.914 0-.695.188-1.324.564-1.887.376-.564.942-1.01 1.7-1.34.756-.33 1.681-.496 2.774-.496.763 0 1.508.091 2.237.273a6.624 6.624 0 0 1 1.913.786l-.854 2.1c-1.105-.626-2.209-.939-3.313-.939-.774 0-1.346.125-1.716.376-.37.25-.555.581-.555.99 0 .41.213.715.64.914.427.2 1.08.395 1.955.59.911.216 1.657.432 2.238.648.58.216 1.078.558 1.494 1.025.415.466.623 1.098.623 1.895 0 .683-.19 1.306-.572 1.87-.382.563-.953 1.01-1.716 1.341-.763.33-1.69.495-2.784.495a9.754 9.754 0 0 1-2.74-.385zm17.58-2.38h-5.55l-1.059 2.56h-2.835l5.328-11.954h2.733l5.345 11.954h-2.903zm-2.767-6.679l-1.895 4.577h3.791zm7.976-2.715h2.766v9.7h5.994v2.254h-8.76z"/></g><g><path fill="#1c1b17" d="M173.757 41.21h-.876l-6.66-10.34v10.34h-.875V29.294h.882l6.653 10.33v-10.33h.876zm10.163-11.04h-5.344a2.11 2.11 0 0 0-1.551.64c-.426.426-.64.943-.64 1.55v2.804h5.783v.876h-5.783v5.17h-.876v-8.85c0-.84.3-1.562.903-2.163a2.948 2.948 0 0 1 2.164-.903h5.344zm8.954-.876v.876h-3.767v11.04h-.876V30.17h-3.768v-.876z"/></g><g><path fill="#1c1b17" d="M91.076 50.936a1.603 1.603 0 0 1-.556-.283l.194-.341c.134.106.302.192.505.259a2 2 0 0 0 .632.1c.292 0 .508-.045.648-.137a.434.434 0 0 0 .21-.386.348.348 0 0 0-.116-.277.77.77 0 0 0-.292-.152 4.36 4.36 0 0 0-.468-.1 5.383 5.383 0 0 1-.626-.15.924.924 0 0 1-.405-.257c-.111-.122-.167-.29-.167-.505 0-.267.112-.487.334-.657.224-.17.534-.255.93-.255.208 0 .414.027.62.082.208.055.378.127.512.216l-.188.347a1.613 1.613 0 0 0-.943-.274c-.276 0-.484.049-.623.146a.446.446 0 0 0-.21.383c0 .122.039.219.118.292a.739.739 0 0 0 .295.16c.118.035.28.07.487.108.255.048.46.097.614.146a.889.889 0 0 1 .395.249c.11.117.164.279.164.486 0 .28-.116.502-.35.666-.232.164-.556.246-.97.246-.26 0-.507-.037-.744-.112zm6.03-.113a.814.814 0 0 1-.301.167c-.12.039-.245.058-.374.058-.3 0-.532-.081-.694-.243-.162-.162-.243-.391-.243-.687v-1.934h-.571v-.365h.57v-.7h.433v.7h.973v.365h-.973v1.909c0 .19.047.336.143.435.095.1.232.149.41.149a.782.782 0 0 0 .259-.043.633.633 0 0 0 .216-.121zm4.348-2.715c.223.209.334.518.334.927v1.983h-.413v-.5a.991.991 0 0 1-.43.39 1.49 1.49 0 0 1-.671.14c-.357 0-.64-.085-.851-.255a.823.823 0 0 1-.316-.675c0-.272.098-.491.294-.657.197-.166.51-.25.94-.25h1.016v-.194c0-.276-.077-.486-.232-.63-.154-.143-.38-.215-.675-.215a1.71 1.71 0 0 0-.583.1 1.466 1.466 0 0 0-.481.277l-.194-.322c.162-.138.356-.245.584-.32a2.27 2.27 0 0 1 .717-.112c.418 0 .738.104.96.313zm-.487 2.432a.997.997 0 0 0 .39-.483v-.523h-1.004c-.547 0-.821.19-.821.572 0 .186.07.333.213.44.142.108.34.162.596.162.243 0 .452-.056.626-.168zm6.106-2.721l-1.6 3.582c-.13.3-.28.513-.45.638-.17.126-.374.189-.613.189-.155 0-.3-.025-.432-.073a.941.941 0 0 1-.347-.22l.2-.322a.794.794 0 0 0 .585.244c.146 0 .27-.041.373-.122.104-.081.2-.22.289-.413l.14-.31-1.43-3.193h.45l1.205 2.718 1.204-2.718zm6.866-.791a.296.296 0 0 1-.091-.218c0-.082.03-.153.09-.213a.305.305 0 0 1 .226-.091.31.31 0 0 1 .225.088.28.28 0 0 1 .092.209c0 .09-.031.164-.092.225a.305.305 0 0 1-.225.092.306.306 0 0 1-.225-.092zm.006.79h.432v3.2h-.432zm5.708.326c.237.234.355.573.355 1.019v1.855h-.431v-1.812c0-.333-.083-.586-.25-.761-.166-.174-.403-.261-.711-.261-.345 0-.617.102-.818.307-.201.205-.301.488-.301.849v1.678h-.432v-3.2h.414v.59c.117-.193.28-.345.489-.452a1.56 1.56 0 0 1 .727-.161c.4 0 .72.116.958.349zm7.903 1.408c.024.333.152.6.383.806.23.205.523.307.876.307.198 0 .38-.035.547-.106.166-.071.31-.176.432-.314l.243.28c-.142.17-.32.3-.532.389-.213.09-.447.134-.703.134-.328 0-.62-.07-.872-.21a1.515 1.515 0 0 1-.593-.581 1.65 1.65 0 0 1-.213-.838c0-.312.068-.592.204-.84.136-.247.322-.44.559-.577.237-.138.504-.207.8-.207.296 0 .56.069.796.207.236.137.42.329.554.574.134.245.2.526.2.843l-.006.133zm.355-1.091a1.153 1.153 0 0 0-.355.769h2.268a1.154 1.154 0 0 0-.356-.77 1.094 1.094 0 0 0-.781-.294c-.308 0-.567.098-.776.295zm6.377 2.362a.814.814 0 0 1-.301.167c-.12.039-.244.058-.374.058-.3 0-.531-.081-.694-.243-.162-.162-.243-.391-.243-.687v-1.934h-.571v-.365h.57v-.7h.433v.7h.973v.365h-.973v1.909c0 .19.047.336.143.435.095.1.232.149.41.149a.782.782 0 0 0 .259-.043.633.633 0 0 0 .216-.121zm2.262-1.271c.024.333.152.6.383.806.23.205.523.307.876.307.199 0 .38-.035.547-.106.166-.071.31-.176.432-.314l.243.28c-.142.17-.32.3-.532.389-.213.09-.447.134-.702.134-.33 0-.62-.07-.873-.21a1.515 1.515 0 0 1-.593-.581 1.65 1.65 0 0 1-.213-.838c0-.312.068-.592.204-.84.136-.247.322-.44.559-.577.238-.138.504-.207.8-.207.296 0 .562.069.797.207.235.137.419.329.553.574.134.245.2.526.2.843l-.005.133zm.356-1.091a1.154 1.154 0 0 0-.356.769h2.268a1.154 1.154 0 0 0-.356-.77 1.092 1.092 0 0 0-.781-.294c-.308 0-.566.098-.775.295zm5.105-.016c.1-.214.253-.376.453-.486.2-.11.449-.164.745-.164v.42l-.103-.006c-.337 0-.6.103-.791.31-.19.206-.286.496-.286.869v1.63h-.431v-3.2h.413zm6.048-.301c.237.234.356.573.356 1.019v1.855h-.432v-1.812c0-.333-.083-.586-.25-.761-.166-.174-.403-.261-.711-.261-.344 0-.617.102-.818.307-.2.205-.301.488-.301.849v1.678h-.432v-3.2h.414v.59c.117-.193.28-.345.49-.452.208-.108.45-.161.726-.161.4 0 .72.116.958.349zm3.007-1.116a.3.3 0 0 1 0-.431.305.305 0 0 1 .225-.091.31.31 0 0 1 .225.088.28.28 0 0 1 .092.209c0 .09-.031.164-.092.225a.3.3 0 0 1-.225.092.306.306 0 0 1-.225-.092zm.006.79h.432v3.2h-.432zm4.805 3.005a.822.822 0 0 1-.301.167c-.12.039-.245.058-.374.058-.3 0-.532-.081-.694-.243-.162-.162-.243-.391-.243-.687v-1.934h-.571v-.365h.57v-.7h.433v.7h.973v.365h-.973v1.909c0 .19.047.336.143.435.095.1.232.149.41.149a.782.782 0 0 0 .259-.043.633.633 0 0 0 .216-.121zm4.895-3.004l-1.6 3.582c-.13.3-.28.513-.45.638-.17.126-.374.189-.613.189a1.24 1.24 0 0 1-.432-.073.941.941 0 0 1-.347-.22l.2-.322a.792.792 0 0 0 .585.244c.146 0 .27-.04.373-.121.104-.082.2-.22.289-.414l.14-.31-1.43-3.193h.45l1.205 2.718 1.204-2.718z"/></g></g></svg>