<svg xmlns="http://www.w3.org/2000/svg" width="680" height="72" viewBox="0 0 680 72"><g><g><path fill="#714daa" d="M37.43 71.397L.627.614H20.18L49.35 58.12h11.292L89.393.614h18.924L71.932 71.397z"/></g><g><path fill="#714daa" d="M130.476 71.397c-14.846 0-21.747-7.632-21.747-23.001V16.61c0-10.35 4.496-15.996 16.624-15.996h59.805c12.128 0 16.415 5.646 16.415 15.996v9.933c0 10.35-4.288 15.997-16.416 15.997h-59.91v4.182c0 6.273 2.72 9.514 8.784 9.514h65.763v15.16zm54.786-50.917c0-4.078-1.673-6.168-6.064-6.168h-47.885c-4.392 0-6.065 2.09-6.065 6.168v10.142h53.95c4.39 0 6.064-2.301 6.064-6.273z"/></g><g><path fill="#714daa" d="M240.458 71.397V15.67h-36.803V.614h90.125V15.67h-37.012v55.727z"/></g><g><path fill="#714daa" d="M316.983 71.397c-14.846 0-21.747-7.632-21.747-23.001V16.61c0-10.35 4.496-15.996 16.624-15.996h59.805c12.128 0 16.415 5.646 16.415 15.996v9.933c0 10.35-4.287 15.997-16.415 15.997h-59.91v4.182c0 6.273 2.72 9.514 8.783 9.514h65.764v15.16zM371.77 20.48c0-4.078-1.673-6.168-6.064-6.168H317.82c-4.392 0-6.065 2.09-6.065 6.168v10.142h53.95c4.391 0 6.064-2.301 6.064-6.273z"/></g><g><path fill="#714daa" d="M472.446 71.397c-1.15-.836-1.777-2.09-1.777-4.6V53.624c0-4.601-2.928-6.378-7.423-6.378h-53.218v24.15h-16.415V.616h75.906c12.023 0 16.415 5.646 16.415 15.996v9.097c0 11.709-5.75 13.487-10.038 14.114 4.392.419 11.083 2.719 11.083 13.592v13.383c0 2.51.732 3.764 1.882 4.6zm-2.823-50.917c0-4.078-1.673-6.168-6.064-6.168h-53.53v19.865h52.798c4.078 0 6.796-1.57 6.796-6.17z"/></g><g><path fill="#714daa" d="M507.047 71.397c-12.024 0-16.415-5.646-16.415-15.997v-9.619c0-10.35 4.39-15.996 16.415-15.996h60.014V25.29c0-6.482-2.823-9.619-8.783-9.619H492.41V.614h69.423c14.742 0 21.538 7.632 21.538 23.002v47.781zM567.06 41.6h-54.054c-4.391 0-6.064 2.197-6.064 6.17v3.554c0 4.182 1.673 6.378 6.064 6.378h54.054z"/></g><g><path fill="#714daa" d="M663.451 71.397V25.29c0-6.378-2.823-9.619-8.678-9.619H605.32v55.727h-16.414V.614h69.318c14.742 0 21.643 7.738 21.643 23.002v47.781z"/></g></g></svg>