<svg width="126" height="45" viewBox="0 0 126 45" fill="none" xmlns="http://www.w3.org/2000/svg">
<path d="M122.3 26.1005H122.1C119.9 27.0005 117.5 27.2005 115.9 26.7005C114.1 26.1005 113 24.5005 113.4 22.6005C118.8 23.1005 121.2 22.0005 122.5 21.2005C125.9 19.1005 126.7 13.5005 122.3 11.8005C118.4 10.3005 113 11.0005 110.5 14.2005C108.2 17.1005 107.5 20.3005 107.9 24.0005C108.2 26.7005 109.9 30.6005 115.7 31.2005C119.2 31.6005 121.5 30.6005 121.6 30.6005L122.3 26.1005ZM115 16.1005C115.8 15.1005 117.3 14.5005 118.3 14.9005C119.6 15.3005 120.1 16.9005 119.1 17.9005C118.8 18.3005 118.4 18.5005 117.9 18.7005C116.5 19.3005 115.1 19.2005 113.6 18.9005C114 17.9005 114.4 16.9005 115 16.1005ZM96.8998 31.0005H91.1998C92.4998 24.4005 93.6998 18.0005 94.8998 11.4005H99.2998V15.0005C99.8998 13.5005 100.7 12.1005 102.1 11.5005C103.4 10.9005 105.5 10.9005 107.6 11.6005C106.8 13.3005 106.1 14.8005 105.2 16.6005C104.4 16.4005 103.7 16.2005 102.9 16.1005C101.2 15.9005 99.9998 16.6005 99.4998 18.3005C99.0998 19.4005 98.7998 20.7005 98.5998 21.9005C97.9998 25.0005 97.4998 28.0005 96.8998 31.0005ZM65.6998 11.4005L60.4998 23.7005H60.3998L59.6998 11.8005H53.9998L48.4998 23.8005L48.3998 23.7005L48.1998 11.5005H42.7998L43.7998 31.0005H49.5998L55.2998 18.3005H55.3998L56.2998 31.0005H62.1998L70.6998 11.4005H65.6998ZM69.9998 37.7005C73.7998 38.3005 76.1998 37.5005 77.9998 35.6005C79.0998 34.4005 79.9998 33.0005 80.7998 31.6005C83.8998 25.7005 91.2998 11.4005 91.2998 11.4005H85.8998L80.2998 23.1005L78.4998 11.4005H72.7998V11.7005C72.7998 11.7005 74.6998 22.4005 75.6998 27.9005C75.7998 28.7005 75.9998 30.8005 74.5998 32.2005C73.7998 33.0005 72.6998 33.6005 70.6998 33.3005L69.9998 37.7005Z" fill="#050F26"/>
<path d="M21.2996 22.3008H34.1996L27.2996 40.0008C26.2996 42.5008 23.9996 44.1008 21.4996 44.1008H8.59961L15.4996 26.4008C16.4996 23.9008 18.7996 22.3008 21.2996 22.3008Z" fill="#92C2FF"/>
<path d="M34.2004 22.3008L26.4004 32.7008C25.2004 34.3008 23.4004 35.4008 21.3004 35.4008H11.9004L15.5004 26.4008C16.5004 24.0008 18.8004 22.4008 21.3004 22.4008H34.2004V22.3008Z" fill="#1A33AE"/>
<path d="M16.9998 11.4004H29.8998L22.9998 29.1004C21.9998 31.6004 19.6998 33.2004 17.1998 33.2004H4.2998L11.1998 15.5004C12.1998 13.0004 14.4998 11.4004 16.9998 11.4004Z" fill="#008FFF"/>
<path d="M29.8996 11.4004L22.0996 21.8004C20.8996 23.4004 19.0996 24.5004 16.9996 24.5004H7.59961L11.1996 15.5004C12.1996 13.1004 14.4996 11.5004 16.9996 11.5004H29.8996V11.4004Z" fill="#1A33AE"/>
<path d="M12.7 0.5H25.6L18.7 18.2C17.7 20.7 15.4 22.3 12.9 22.3H0L6.9 4.6C7.9 2.1 10.2 0.5 12.7 0.5Z" fill="#0054FF"/>
</svg>
