<svg width="31" height="31" viewBox="0 0 31 31" fill="none" xmlns="http://www.w3.org/2000/svg">
<path d="M15.8099 30.2699C24.061 30.2699 30.7499 23.581 30.7499 15.3299C30.7499 7.07876 24.061 0.389893 15.8099 0.389893C7.55874 0.389893 0.869873 7.07876 0.869873 15.3299C0.869873 23.581 7.55874 30.2699 15.8099 30.2699Z" fill="#47A8A5"/>
<path d="M10.7599 23.7399H7.87988C7.55988 23.7399 7.44995 23.6699 7.44995 23.3299V17.5199C7.44995 17.2199 7.52997 17.1299 7.83997 17.1299H10.4199C10.6699 17.1299 10.7399 17.1999 10.7399 17.4499V19.9799C10.7399 20.3799 10.8699 20.4699 11.2399 20.4499H13.7299C13.9899 20.4499 14.0799 20.5199 14.0699 20.7899V23.3699C14.0699 23.6499 13.99 23.7399 13.7 23.7399C12.71 23.7299 11.7299 23.7399 10.7599 23.7399Z" fill="white"/>
<path d="M23.95 20.44V23.37C23.95 23.64 23.89 23.75 23.59 23.75H17.6899C17.4199 23.75 17.3499 23.66 17.3499 23.4V20.78C17.3499 20.52 17.4399 20.46 17.6799 20.46H20.21C20.56 20.46 20.6899 20.39 20.6799 20.01V17.48C20.6799 17.21 20.7599 17.13 21.0299 17.14H23.5999C23.8899 17.14 23.98 17.21 23.97 17.5C23.94 18.49 23.95 19.46 23.95 20.44Z" fill="white"/>
<path d="M10.7599 10.5599H7.83997C7.56997 10.5599 7.44995 10.5599 7.44995 10.2099V7.62991C7.44995 7.36991 7.51993 7.27991 7.79993 7.27991H13.6899C13.9399 7.27991 14.0599 7.32991 14.0499 7.60991V10.2299C14.0499 10.5199 13.9399 10.5699 13.6899 10.5599H10.7599Z" fill="white"/>
<path d="M20.6499 7.25H23.58C23.86 7.25 23.96 7.32 23.95 7.62V10.19C23.95 10.47 23.8499 10.53 23.5999 10.53H17.7C17.43 10.53 17.3499 10.46 17.3499 10.19V7.56999C17.3499 7.31999 17.4399 7.25 17.6799 7.25H20.6499Z" fill="white"/>
</svg>
