<svg width="31" height="30" viewBox="0 0 31 30" fill="none" xmlns="http://www.w3.org/2000/svg">
<path d="M10.21 23.09H7.41992C7.11992 23.09 7.00989 23.03 7.00989 22.7V17.08C7.00989 16.79 7.08989 16.7 7.38989 16.71H9.87988C10.1199 16.71 10.1899 16.78 10.1899 17.02V19.47C10.1899 19.86 10.3099 19.94 10.6699 19.93H13.08C13.34 19.93 13.4199 20 13.4099 20.26V22.75C13.4099 23.03 13.3399 23.12 13.0599 23.11L10.21 23.09Z" fill="#47A8A5"/>
<path d="M22.96 19.8899V22.7199C22.96 22.9899 22.8899 23.0899 22.6099 23.0899H16.9C16.64 23.0899 16.57 23.0099 16.58 22.7499V20.2199C16.58 19.9699 16.66 19.9099 16.89 19.9099H19.34C19.68 19.9099 19.81 19.8399 19.79 19.4699V17.0199C19.79 16.7599 19.8599 16.6799 20.1199 16.6899H22.6099C22.8899 16.6899 22.97 16.7599 22.97 17.0399C22.95 18.0099 22.96 18.9499 22.96 19.8899Z" fill="#47A8A5"/>
<path d="M10.2099 10.31H7.37985C7.11985 10.31 6.99985 10.31 7.00985 9.96996V7.47996C7.00985 7.22996 7.07993 7.12996 7.33993 7.13996H13.0499C13.2899 7.13996 13.3999 7.13995 13.3899 7.45995V9.98995C13.3899 10.27 13.2799 10.31 13.0399 10.31H10.2099Z" fill="#47A8A5"/>
<path d="M19.7799 7.13995H22.6099C22.8799 7.13995 22.97 7.20995 22.97 7.48995V9.97995C22.97 10.26 22.8699 10.31 22.6199 10.31H16.9199C16.6599 10.31 16.58 10.24 16.58 9.97995V7.43996C16.58 7.19996 16.6599 7.12995 16.8899 7.13995H19.7799Z" fill="#47A8A5"/>
<path d="M15.0899 29.4C23.0704 29.4 29.5399 22.9305 29.5399 14.95C29.5399 6.96949 23.0704 0.5 15.0899 0.5C7.10938 0.5 0.639893 6.96949 0.639893 14.95C0.639893 22.9305 7.10938 29.4 15.0899 29.4Z" stroke="#47A8A5" stroke-miterlimit="10"/>
</svg>
