<svg xmlns="http://www.w3.org/2000/svg" width="251" height="53" viewBox="0 0 251 53"><g><g><path fill="#43a6ef" d="M19.628 26.076l7.917-15.156a.913.913 0 0 0-.131-.875.91.91 0 0 0-.77-.398h-3.073c-.496 0-.796.232-.902.689L14.513 26.11l10.42 20.219c.107.424.407.637.902.637h3.075a.883.883 0 0 0 .687-.292.95.95 0 0 0 .265-.662c0-.141-10.234-19.937-10.234-19.937z"/></g><g><path fill="#43a6ef" d="M4.98 26.128l-4.6 8.708a.92.92 0 0 0 .133.875.906.906 0 0 0 .768.397h3.075c.494 0 .794-.231.9-.688l4.84-9.328-4.466-8.531c-.106-.425-.406-.636-.901-.636H1.655a.886.886 0 0 0-.69.292.957.957 0 0 0-.264.662c0 .14 4.28 8.249 4.28 8.249z"/></g><g><path fill="#f0f" d="M14.5 16.2l-3.054-5.917c-.105-.424-.405-.635-.9-.635H7.473a.891.891 0 0 0-.691.29.96.96 0 0 0-.264.664c0 .087 3.08 6.063 5.41 10.573z"/></g><g><path fill="#f0f" d="M11.92 31.044l-5.35 10.24a.91.91 0 0 0 .133.874.909.909 0 0 0 .77.398h3.073c.495 0 .795-.23.9-.69l3.033-5.862z"/></g><g><path fill="#0c1324" d="M55.7 26.777l4.746 12.496s-1.086-.005-1.912-.005c-.826 0-1.103-.667-1.103-.667l-3.1-8.457-3.377 9.129h-2.768l4.746-12.496-4.777-12.525h1.729c1.216 0 1.35.76 1.35.76l3.097 8.399 3.346-9.159h2.799z"/></g><g><path fill="#0c1324" d="M77.887 15.632v23.641H75.3V14.251s-.062.013 1.292 0c1.354-.014 1.294 1.381 1.294 1.381z"/></g><g><path fill="#0c1324" d="M92.91 19.766c0-1.577.52-2.926 1.559-4.05 1.039-1.122 3.107-1.434 4.59-1.434 1.485 0 3.552.312 4.59 1.435 1.04 1.123 1.559 2.472 1.559 4.049v14.053c0 1.577-.52 2.927-1.558 4.049-1.04 1.122-3.106 1.435-4.59 1.435-1.465 0-3.527-.313-4.576-1.435-1.05-1.122-1.573-2.472-1.573-4.05zm2.524 14.053c0 .829.277 1.537.83 2.123.555.587 2.024.632 2.796.632.77 0 2.24-.045 2.794-.632.554-.586.83-1.294.83-2.123V19.766c0-.83-.276-1.537-.83-2.123-.554-.587-2.023-.632-2.794-.632-.772 0-2.241.045-2.795.632-.554.586-.831 1.294-.831 2.123z"/></g><g><path fill="#0c1324" d="M129.992 32.616V14.252h2.586v25.02s-.77-.004-1.761-.004c-.992 0-1.26-.728-1.26-.728l-6.618-17.487v18.22h-2.586V14.252s.798.012 1.872 0c1.074-.014 1.252.83 1.252.83z"/></g><g><path fill="none" stroke="#000" stroke-miterlimit="20" stroke-width=".31" d="M36.578 2.188v48.828"/></g><g><g><text dominant-baseline="text-before-edge" transform="translate(150 3)"><tspan fill="#0c1324" font-family="'Oswald ExtraLight','Oswald-ExtraLight'" font-size="30.95" letter-spacing="1.55">FINANCE</tspan></text></g></g></g></svg>