<svg width="374" height="105" viewBox="0 0 374 105" fill="none" xmlns="http://www.w3.org/2000/svg">
<path d="M75.3008 16.3999C75.3008 18.6999 75.2008 21.0999 75.3008 23.3999C75.4008 24.5999 74.7008 24.4999 74.0008 24.3999C73.4008 24.2999 72.4008 24.7999 72.5008 23.3999C72.6008 21.6999 72.5008 19.8999 72.5008 18.1999C72.5008 17.4999 72.4008 17.0999 71.6008 17.1999C70.4008 17.2999 69.2008 17.2999 68.0008 17.1999C67.3008 17.1999 67.1008 17.4999 67.1008 18.0999C67.1008 19.8999 67.0008 21.6999 67.1008 23.4999C67.2008 24.7999 66.3008 24.3999 65.7008 24.3999C65.1008 24.3999 64.3008 24.7999 64.3008 23.4999C64.4008 18.7999 64.4008 13.9999 64.3008 9.29993C64.3008 7.99994 65.1008 8.29994 65.8008 8.29994C66.5008 8.29994 67.2008 8.09993 67.1008 9.29993C67.0008 10.7999 67.1008 12.2999 67.1008 13.8999C67.1008 14.4999 67.2008 14.8999 68.0008 14.8999C69.2008 14.7999 70.5008 14.7999 71.8008 14.8999C72.5008 14.8999 72.6008 14.5999 72.6008 13.9999C72.6008 12.3999 72.7008 10.8999 72.6008 9.29993C72.5008 8.09993 73.3008 8.29994 74.0008 8.29994C74.6008 8.29994 75.5008 7.99993 75.4008 9.19993C75.3008 11.5999 75.3008 13.9999 75.3008 16.3999Z" fill="#4B4D4A"/>
<path d="M173.401 24.4C173.401 25.4 173.301 26.5 173.401 27.5C173.501 28.6 172.901 28.6 172.101 28.6C171.401 28.5 170.601 29 170.601 27.6C170.701 22.9 170.601 18.1 170.601 13.4C170.601 12.7 170.901 12.4 171.501 12.3C172.901 12 174.201 11.8 175.601 11.9C178.201 12.1 179.901 13.4 180.701 15.9C181.201 17.3 181.201 18.8 180.801 20.3C180.001 23.9 177.801 25.1 173.401 24.4ZM174.701 14.4C173.501 14.1 173.301 14.8 173.401 15.9C173.501 17.3 173.401 18.7 173.401 20.1C173.401 21.7 173.901 22.1 175.401 22.1C176.501 22.1 177.301 21.6 177.701 20.6C178.301 19.4 178.301 18.1 178.001 16.8C177.701 15.2 176.701 14.4 174.701 14.4Z" fill="#4B4D4A"/>
<path d="M149.101 20.1002C148.401 21.8002 147.801 23.2002 147.301 24.7002C147.001 25.7002 146.301 25.4002 145.701 25.4002C144.901 25.5002 144.901 25.0002 144.701 24.4002C143.901 20.9002 143.401 17.4002 143.001 13.8002C142.901 13.2002 143.101 13.0002 143.701 13.0002C145.601 12.9002 145.601 12.9002 145.801 14.7002C146.001 16.5002 146.201 18.4002 146.501 20.6002C147.301 19.2002 147.601 17.9002 147.901 16.7002C148.101 15.8002 148.601 15.7002 149.301 15.7002C150.101 15.7002 150.401 16.0002 150.501 16.7002C150.801 17.8002 151.101 19.0002 151.801 20.4002C152.201 18.2002 152.501 16.3002 152.601 14.3002C152.701 13.2002 154.101 12.5002 155.101 13.1002C155.401 13.3002 155.301 13.7002 155.301 13.9002C154.901 17.4002 154.401 20.8002 153.601 24.2002C153.501 24.7002 153.501 25.4002 152.601 25.4002C151.801 25.4002 151.101 25.4002 150.801 24.4002C150.301 23.0002 149.701 21.7002 149.101 20.1002Z" fill="#4B4D4A"/>
<path d="M113.801 21.4997C114.301 24.1996 114.101 24.4997 111.401 24.5997C107.901 24.7997 105.601 23.7997 104.501 21.3996C103.501 19.0996 103.501 16.6996 104.901 14.4997C106.201 12.3997 108.801 11.3997 111.301 12.0997C113.401 12.5997 114.701 14.3997 114.901 17.1997C115.101 19.2997 115.101 19.2996 113.101 19.2996C111.301 19.2996 109.401 19.2996 107.601 19.2996C106.701 19.2996 106.701 19.6996 106.901 20.2996C107.501 21.6996 108.601 22.0997 110.001 22.1997C111.301 22.2997 112.501 21.9997 113.801 21.4997ZM109.301 16.7996C109.901 16.7996 110.501 16.7996 111.001 16.7996C112.201 16.8996 112.101 16.2997 111.701 15.4997C111.201 14.5996 110.501 14.1996 109.501 14.1996C108.401 14.1996 107.601 14.7996 107.001 15.6996C106.601 16.3996 106.701 16.7997 107.601 16.6997C108.301 16.7997 108.801 16.7996 109.301 16.7996Z" fill="#4B4D4A"/>
<path d="M167.201 19.7998C167.201 20.9998 167.201 22.1998 167.201 23.3998C167.201 23.7998 167.101 24.1998 166.601 24.2998C164.301 24.6998 162.101 24.9998 159.801 24.3998C158.001 23.8998 157.101 22.5998 157.101 20.6998C157.101 18.9998 158.101 17.6998 159.801 17.0998C161.001 16.6998 162.201 16.4998 163.401 16.7998C164.501 16.9998 164.601 16.4998 164.301 15.6998C164.101 14.9998 163.601 14.5998 162.901 14.3998C161.801 14.1998 160.701 14.3998 159.601 14.5998C159.101 14.6998 158.601 14.8998 158.601 14.0998C158.601 13.4998 157.901 12.5998 158.901 12.2998C160.801 11.7998 162.801 11.5998 164.701 12.2998C166.101 12.7998 167.001 13.8998 167.101 15.3998C167.201 16.8998 167.101 18.2998 167.101 19.7998C167.101 19.7998 167.101 19.7998 167.201 19.7998ZM162.701 22.2998C163.201 22.0998 164.001 22.6998 164.401 21.7998C165.101 20.1998 164.301 18.9998 162.601 18.9998C160.901 18.9998 159.901 19.5998 159.901 20.5998C159.901 21.7998 160.701 22.2998 162.701 22.2998Z" fill="#4B4D4A"/>
<path d="M123.101 20.7995C124.101 17.9995 124.601 15.4995 125.301 12.8995C125.401 12.4995 125.401 11.9995 126.001 12.0995C126.801 12.0995 127.501 12.0995 128.301 12.1995C128.401 12.1995 128.301 12.5995 128.201 12.7995C127.201 16.9995 125.901 21.1995 124.001 25.1995C122.701 27.9995 120.401 29.0995 117.701 28.3995C116.601 28.0995 117.001 27.3995 117.101 26.8995C117.201 26.2995 117.201 25.5995 118.201 26.0995C118.801 26.3995 119.401 26.2995 120.001 26.0995C121.401 25.5995 121.801 24.4995 121.201 23.1995C119.601 19.9995 118.301 16.6995 117.301 13.2995C117.001 12.3995 117.201 12.1995 118.101 12.0995C119.501 11.9995 120.101 12.3995 120.401 13.7995C121.101 16.1995 122.001 18.3995 123.101 20.7995Z" fill="#4B4D4A"/>
<path d="M88.7009 18.3003C88.7009 23.2003 84.5009 26.1003 80.5009 24.1003C78.3009 22.9003 77.1009 20.1003 77.6009 17.0003C78.1009 13.8003 80.3009 11.7003 83.2009 11.8003C86.2009 11.9003 88.4009 14.1003 88.6009 17.4003C88.7009 17.7003 88.7009 18.0003 88.7009 18.3003ZM80.3009 18.3003C80.3009 18.9003 80.4009 19.5003 80.6009 20.1003C81.0009 21.3003 81.7009 22.1003 83.1009 22.1003C84.5009 22.1003 85.2009 21.3003 85.6009 20.1003C86.1009 18.7003 86.0009 17.2003 85.4009 15.8003C84.9009 14.8003 84.2009 14.3003 83.1009 14.3003C82.0009 14.3003 81.3009 14.9003 80.8009 15.8003C80.4009 16.7003 80.3009 17.5003 80.3009 18.3003Z" fill="#4B4D4A"/>
<path d="M91.4004 18.4002C91.4004 16.7002 91.4004 15.1002 91.4004 13.4002C91.4004 12.7002 91.7004 12.4002 92.3004 12.3002C94.0004 12.0002 95.7004 11.7002 97.4004 12.0002C99.4004 12.3002 100.8 13.5002 101.1 15.5002C101.5 18.3002 101.2 21.0002 101.3 23.8002C101.3 24.8002 100.5 24.3002 100 24.4002C98.9004 24.6002 98.5004 24.2002 98.5004 23.0002C98.6004 21.0002 98.6004 18.9002 98.5004 16.8002C98.4004 14.7002 96.7004 13.7002 94.8004 14.5002C94.2004 14.7002 94.4004 15.2002 94.4004 15.6002C94.4004 18.2002 94.3004 20.8002 94.4004 23.4002C94.4004 24.6002 93.8004 24.5002 93.1004 24.4002C92.5004 24.3002 91.5004 24.8002 91.6004 23.4002C91.5004 21.8002 91.4004 20.1002 91.4004 18.4002Z" fill="#4B4D4A"/>
<path d="M135.3 24.7004C134.2 24.7004 133.1 24.6004 132 24.2004C131 23.9004 130.6 22.2004 131.3 21.5004C131.6 21.2004 131.9 21.4004 132.1 21.6004C133.5 22.2004 134.9 22.4004 136.4 22.2004C137 22.1004 137.7 22.1004 137.9 21.3004C138 20.5004 137.3 20.2004 136.8 20.0004C135.8 19.6004 134.8 19.3004 133.8 18.9004C131.8 18.1004 130.9 16.8004 131 15.2004C131.2 13.4004 132.5 12.3004 134.7 12.0004C136.3 11.8004 137.8 11.9004 139.3 12.3004C140.8 12.7004 139.7 13.6004 139.7 14.3004C139.7 15.1004 139.2 14.9004 138.7 14.7004C137.4 14.3004 136.1 14.2004 134.7 14.4004C134.2 14.5004 133.7 14.7004 133.6 15.3004C133.5 15.8004 133.9 16.1004 134.4 16.3004C135.5 16.8004 136.7 17.1004 137.7 17.7004C139.1 18.3004 140.3 19.1004 140.5 20.8004C140.7 22.9004 139.4 24.3004 136.9 24.7004C136.6 24.7004 136 24.7004 135.3 24.7004Z" fill="#4B4D4A"/>
<path d="M36.7006 31.5004C36.4006 31.5004 36.0006 31.5004 35.7006 31.5004C33.1006 31.5004 30.4006 31.4004 27.8006 31.4004C23.8006 31.4004 19.9006 31.5004 15.9006 31.5004C15.6006 31.5004 15.3006 31.4004 14.9006 31.4004C13.3006 29.9004 13.1006 27.9004 13.5006 25.9004C21.7006 25.9004 29.9006 25.9004 38.1006 25.9004C38.2006 28.0004 38.6006 30.0004 36.7006 31.5004Z" fill="#F1D514"/>
<path d="M35.9002 14.7002C37.6002 15.2002 38.3002 16.4002 38.2002 18.1002C38.2002 18.6002 38.2002 19.2002 38.2002 19.7002C38.2002 19.9002 38.1002 20.0002 38.1002 20.2002C29.9002 20.2002 21.7002 20.2002 13.4002 20.2002C13.3002 20.1002 13.3002 20.1002 13.2002 20.1002C13.2002 19.3002 13.3002 18.4002 13.3002 17.6002C13.4002 16.1002 14.1002 15.1002 15.6002 14.7002C15.7002 14.8002 15.8002 14.8002 16.0002 14.8002C22.5002 14.8002 29.1002 14.8002 35.6002 14.8002C35.8002 14.8002 35.8002 14.7002 35.9002 14.7002Z" fill="#F6D816"/>
<path d="M38.1006 20.2002C38.1006 20.0002 38.2006 19.9002 38.2006 19.7002C39.0006 20.7002 40.3006 21.1002 41.4006 21.8002C44.3006 23.5002 47.2006 25.2002 50.1006 26.8002C50.9006 27.3002 51.7006 27.7002 51.6006 28.8002C51.6006 29.9002 50.9006 30.5002 50.0006 31.1002C46.7006 33.1002 43.2006 33.6002 39.5006 32.8002C38.5006 32.6002 37.4006 32.5002 36.6006 31.6002C38.5006 30.1002 38.2006 28.1002 38.0006 26.1002C38.3006 24.0002 38.2006 22.1002 38.1006 20.2002Z" fill="#7EDCD1"/>
<path d="M13.3004 20.0996C13.4004 20.0996 13.4004 20.0996 13.5004 20.1996C13.5004 22.0996 13.5004 23.9996 13.5004 25.9996C13.2004 28.0996 13.3004 29.9996 14.9004 31.4996C12.7004 32.9996 10.2004 33.1996 7.70042 32.9996C5.50042 32.8996 3.30042 32.2996 1.50042 30.9996C-0.499576 29.5996 -0.499576 27.8996 1.60042 26.5996C4.50042 24.7996 7.50042 23.1996 10.5004 21.4996C11.5004 21.0996 12.2004 20.3996 13.3004 20.0996Z" fill="#7EDCD1"/>
<path d="M15.9004 31.6C19.9004 31.6 23.8004 31.5 27.8004 31.5C30.4004 31.5 33.1004 31.5 35.7004 31.6C33.0004 33.4 30.1004 35.1 27.2004 36.6C26.1004 37.2 24.9004 37 23.9004 36.4C21.2004 34.7 18.5004 33.1 15.9004 31.6Z" fill="#2B3433"/>
<path d="M16.8008 13.9998C19.2008 12.5998 21.6008 11.1998 24.1008 9.6998C25.2008 8.9998 26.4008 8.9998 27.5008 9.6998C29.9008 11.0998 32.3008 12.5998 34.7008 13.9998C33.5008 14.3998 32.2008 14.2998 31.0008 14.2998C27.2008 14.2998 23.4008 14.2998 19.6008 14.2998C18.7008 14.2998 17.8008 14.2998 16.8008 13.9998Z" fill="#2B3433"/>
<path d="M19.6007 0C21.9007 0 24.7007 2.6 24.8007 5C24.8007 5.6 24.7007 6.3 24.1007 6.4C23.5007 6.5 23.2007 5.9 23.1007 5.3C22.7007 3.2 21.5007 2 19.4007 1.7C18.9007 1.6 18.2007 1.6 18.3007 0.8C18.4007 0.2 18.9007 0 19.6007 0Z" fill="#2B3433"/>
<path d="M26.9 5.1C27 2.6 29.8 0 32.3 0C32.8 0 33.2 0.2 33.3 0.6C33.4 1 32.9 1.3 32.6 1.5C32.5 1.5 32.4 1.6 32.4 1.6C30.3 2 29 3.3 28.6 5.4C28.5 5.9 28.2 6.5 27.6 6.4C27.1 6.3 26.8 5.7 26.9 5.1Z" fill="#2B3433"/>
<path d="M16.8008 14C17.7008 14.3 18.7008 14.3 19.7008 14.3C23.5008 14.3 27.3008 14.3 31.1008 14.3C32.3008 14.3 33.6008 14.4 34.8008 14C35.2008 14.1 35.6008 14.3 36.0008 14.6C35.9008 14.6 35.8008 14.7 35.8008 14.7C29.3008 14.7 22.7008 14.7 16.2008 14.7C16.1008 14.7 16.0008 14.6 15.8008 14.6C15.9008 14.2 16.5008 14.4 16.8008 14Z" fill="#4B4D4A"/>
<path d="M13.5 26.0002C13.5 24.1002 13.5 22.2002 13.5 20.2002C21.7 20.2002 29.9 20.2002 38.2 20.2002C38.3 22.1002 38.4 24.1002 38.2 26.0002C29.9 26.0002 21.7 26.0002 13.5 26.0002Z" fill="#2B3433"/>
<path d="M327.601 19.7002C327.301 20.1002 327.101 20.5002 327.001 21.0002C325.701 24.4002 324.401 27.8002 323.101 31.2002C323.001 31.5002 323.001 32.0002 322.501 31.9002C322.001 31.8002 321.301 32.1002 320.901 31.2002C319.001 26.2002 317.201 21.3002 315.101 16.4002C314.801 15.6002 314.401 14.9002 313.401 14.8002C313.101 14.8002 312.901 14.5002 313.001 14.2002C313.001 13.9002 313.301 14.0002 313.501 14.0002C315.401 13.9002 317.301 13.9002 319.201 14.0002C319.401 14.0002 319.701 14.1002 319.701 14.4002C319.701 14.7002 319.501 14.8002 319.201 14.9002C317.901 15.1002 317.901 15.2002 318.201 16.5002C319.001 19.1002 320.001 21.7002 320.901 24.2002C321.401 25.5002 321.901 26.9002 322.401 28.2002C322.501 28.2002 322.601 28.2002 322.601 28.1002C323.801 24.9002 325.101 21.8002 326.101 18.5002C326.201 18.1002 326.301 17.7002 326.401 17.3002C326.501 16.0002 325.901 15.2002 324.601 14.9002C324.301 14.8002 324.001 14.8002 324.001 14.4002C324.001 14.0002 324.401 14.0002 324.601 14.0002C326.501 13.9002 328.501 13.9002 330.401 14.0002C330.701 14.0002 331.001 14.0002 331.001 14.4002C331.001 14.8002 330.701 14.8002 330.401 14.9002C329.401 15.0002 329.001 15.6002 329.301 16.6002C329.801 18.2002 330.301 19.8002 330.901 21.4002C331.601 23.4002 332.401 25.5002 333.201 27.5002C333.301 27.7002 333.301 27.9002 333.601 28.1002C333.801 27.5002 334.101 26.9002 334.301 26.3002C335.601 23.0002 336.801 19.6002 338.001 16.3002C338.401 15.2002 338.201 14.9002 337.101 14.8002C336.801 14.8002 336.401 14.8002 336.401 14.3002C336.401 13.8002 336.801 13.9002 337.101 13.9002C338.501 13.8002 339.901 13.8002 341.401 13.9002C341.601 13.9002 341.901 13.9002 341.901 14.2002C341.901 14.4002 341.801 14.6002 341.601 14.6002C340.501 15.0002 340.101 15.9002 339.801 16.9002C337.901 21.6002 336.101 26.3002 334.201 31.1002C333.901 31.8002 333.401 32.1002 332.601 31.9002C332.301 31.8002 332.301 31.6002 332.201 31.3002C330.801 27.8002 329.501 24.2002 328.101 20.7002C328.001 20.3002 327.901 19.9002 327.601 19.7002Z" fill="#FE057C"/>
<path d="M269.5 18.0998C269.3 20.5998 269.3 22.9998 269.4 25.3998C269.4 26.5998 269.4 27.7998 269.6 28.8998C269.7 29.5998 270 30.0998 270.8 30.2998C271.2 30.3998 272 30.3998 271.9 30.9998C271.8 31.4998 271.1 31.2998 270.7 31.3998C269.4 31.3998 268.1 31.3998 266.8 31.3998C266.5 31.3998 266.3 31.3998 266 31.2998C265.8 31.2998 265.6 31.1998 265.6 30.9998C265.6 30.6998 265.7 30.5998 265.9 30.4998C266.1 30.3998 266.3 30.3998 266.4 30.2998C266.9 30.1998 267.3 29.7998 267.4 29.2998C267.6 28.6998 267.6 27.9998 267.7 27.2998C267.8 23.7998 267.9 20.1998 267.7 16.6998C267.6 15.0998 267.1 14.5998 265.5 14.3998C265.2 14.3998 264.8 14.3998 264.8 13.8998C264.8 13.3998 265.2 13.4998 265.5 13.4998C266.7 13.4998 268 13.4998 269.2 13.4998C269.5 13.4998 269.7 13.6998 269.9 13.8998C273.4 17.7998 276.9 21.6998 280.4 25.4998C280.7 25.7998 280.9 26.0998 281.4 26.3998C281.4 25.7998 281.5 25.1998 281.5 24.6998C281.5 21.6998 281.5 18.7998 281.4 15.7998C281.4 15.2998 280.5 14.4998 279.7 14.2998C279.6 14.2998 279.4 14.2998 279.3 14.1998C279.1 14.0998 279 13.9998 279 13.7998C279 13.5998 279.1 13.4998 279.4 13.3998C279.5 13.3998 279.5 13.3998 279.6 13.3998C281.3 13.2998 283 13.3998 284.7 13.4998C284.9 13.4998 285.2 13.4998 285.3 13.7998C285.3 14.0998 285 14.0998 284.8 14.1998C284.6 14.2998 284.4 14.2998 284.3 14.3998C283.7 14.4998 283.5 14.8998 283.5 15.3998C283.3 19.5998 283.3 23.7998 283.3 27.9998C283.3 28.8998 283.3 29.7998 283.3 30.6998C283.3 30.9998 283.2 31.0998 282.9 31.0998C282.4 31.0998 282 30.7998 281.7 30.4998C280.1 28.9998 278.7 27.3998 277.3 25.7998C275.1 23.3998 272.9 20.8998 270.8 18.4998C270.2 18.6998 270 18.3998 269.5 18.0998Z" fill="#FE047B"/>
<path d="M257.7 22.0996C257.7 19.8996 257.7 18.1996 257.6 16.4996C257.5 15.1996 257.4 14.9996 256.1 14.6996C255.9 14.5996 255.6 14.4996 255.6 14.1996C255.6 13.8996 255.8 13.7996 256.1 13.7996C257.6 13.6996 259.1 13.6996 260.6 13.7996C260.9 13.7996 261.1 13.8996 261.1 14.1996C261.1 14.4996 260.9 14.5996 260.6 14.5996C260 14.5996 259.8 14.9996 259.7 15.4996C259.5 16.5996 259.5 17.5996 259.5 18.6996C259.4 21.4996 259.5 24.2996 259.1 27.0996C258.7 29.4996 256.3 31.6996 253.8 31.7996C252.7 31.7996 251.7 31.7996 250.6 31.7996C247.8 31.6996 245.5 29.3996 245.4 26.5996C245.3 23.6996 245.2 20.7996 245.1 17.9996C245.1 17.2996 245 16.5996 244.9 15.8996C244.8 15.1996 244.7 14.5996 243.8 14.6996C243.5 14.6996 243.3 14.5996 243.3 14.2996C243.3 13.9996 243.5 13.8996 243.8 13.8996C245.6 13.7996 247.4 13.7996 249.3 13.8996C249.5 13.8996 249.7 13.8996 249.7 14.0996C249.7 14.2996 249.6 14.3996 249.4 14.4996C249.2 14.5996 249.1 14.6996 248.9 14.7996C248 14.8996 248 15.4996 248 16.1996C248 19.5996 247.9 22.9996 248 26.3996C248.1 28.8996 249.6 30.3996 252.1 30.4996C254.7 30.6996 257.3 29.0996 257.4 25.7996C257.6 24.2996 257.7 22.9996 257.7 22.0996Z" fill="#FE057C"/>
<path d="M354.3 31.8C353.3 31.8 352.4 31.8 351.4 31.8C351.1 31.8 350.8 31.9 350.8 31.5C350.8 31.2 351 31.1 351.3 31C352.6 30.7 353.1 29.9 352.7 28.6C352.4 27.7 352 26.9 351.7 26C351.5 25.5 351.2 25.4 350.7 25.4C349 25.4 347.3 25.4 345.7 25.4C345.4 25.4 345.1 25.5 345 25.8C344.7 26.8 344.3 27.9 344 28.9C343.7 30 344.1 30.6 345.2 30.9C345.5 31 345.9 31 345.8 31.4C345.8 31.9 345.4 31.7 345.1 31.7C343.4 31.7 341.8 31.7 340.1 31.7C339.9 31.7 339.5 31.8 339.5 31.4C339.5 31.1 339.7 30.9 339.9 30.9C341 30.8 341.4 30 341.7 29.1C342.6 26.9 343.5 24.7 344.4 22.5C345.4 19.9 346.5 17.3 347.5 14.7C347.7 14.2 348.7 13.5 349.2 13.5C349.6 13.5 349.6 13.8 349.7 14C350.8 16.7 351.8 19.5 352.9 22.2C353.7 24.2 354.5 26.3 355.3 28.3C355.5 28.8 355.8 29.3 356.1 29.8C356.4 30.2 356.7 30.5 357.2 30.6C357.5 30.6 357.8 30.7 357.7 31.1C357.7 31.6 357.3 31.4 357 31.4C356.2 31.8 355.2 31.8 354.3 31.8ZM348 17.3C347.9 17.4 347.8 17.5 347.8 17.5C347.1 19.4 346.5 21.3 345.8 23.2C345.7 23.6 345.8 23.7 346.2 23.7C347.5 23.7 348.9 23.7 350.2 23.7C350.6 23.7 350.6 23.5 350.5 23.3C349.7 21.2 348.9 19.3 348 17.3Z" fill="#FE057C"/>
<path d="M364.101 24.3003C364.101 26.1003 364.101 27.8003 364.101 29.4003C364.101 30.1003 364.501 30.6003 365.201 30.8003C365.401 30.9003 365.701 31.0003 365.901 31.0003C366.201 31.1003 366.301 31.2003 366.301 31.5003C366.301 31.8003 366.001 31.8003 365.801 31.8003C363.901 31.8003 361.901 31.8003 360.001 31.7003C359.801 31.7003 359.601 31.7003 359.601 31.5003C359.601 31.3003 359.701 31.1003 359.901 31.0003C360.201 30.9003 360.501 30.8003 360.801 30.7003C361.401 30.4003 361.801 30.0003 361.801 29.3003C361.901 24.9003 361.901 20.5003 361.801 16.1003C361.801 15.5003 361.501 15.2003 361.001 15.0003C360.601 14.9003 360.301 14.8003 359.901 14.7003C359.701 14.6003 359.601 14.5003 359.601 14.3003C359.601 14.1003 359.701 14.0003 360.001 14.0003C362.901 13.8003 365.701 13.5003 368.601 13.9003C372.101 14.3003 373.601 17.0003 373.301 20.2003C373.001 23.7003 370.201 25.6003 366.501 25.0003C365.601 25.0003 364.801 24.8003 364.101 24.3003ZM364.101 19.7003C364.101 20.7003 364.101 21.7003 364.101 22.7003C364.101 23.2003 364.301 23.4003 364.701 23.6003C365.601 24.0003 366.501 23.9003 367.401 23.8003C368.901 23.6003 370.101 22.9003 370.501 21.3003C370.601 20.7003 370.701 20.2003 370.701 19.6003C370.601 16.4003 368.301 14.6003 365.301 15.4003C364.401 15.6003 364.201 16.0003 364.101 16.8003C364.101 17.7003 364.101 18.7003 364.101 19.7003Z" fill="#FE057C"/>
<path d="M208.3 8.89994C209.3 10.4999 210.4 12.0999 211.4 13.6999C211.8 14.1999 212.1 14.7999 212.5 15.2999C212.7 15.5999 213 15.8999 213.4 15.8999C213.8 15.8999 214.3 15.9999 214.5 15.5999C214.7 15.2999 214.3 14.9999 214.1 14.7999C211 10.6999 208 6.39994 204.8 2.39994C204.6 2.19994 204.4 1.89994 204.2 1.59994C204.6 1.49994 204.7 1.79994 204.8 1.99994C208.5 6.09994 212.2 10.1999 215.8 14.1999C216.5 14.9999 216.5 15.7999 215.7 16.5999C215.1 17.1999 214.3 17.3999 213.5 17.5999C212.5 17.7999 212.2 18.0999 212.1 19.0999C212 20.4999 211.6 21.6999 211 22.9999C210.2 24.6999 210.5 25.6999 212 26.8999C212.4 27.1999 212.9 27.4999 213.2 27.8999C213.8 28.5999 213.9 29.6999 213.3 30.3999C212.2 31.7999 210.5 32.1999 208.9 32.5999C208.7 32.5999 208.6 32.4999 208.5 32.3999C208.3 31.6999 207.9 31.1999 207.5 30.5999C206.5 28.8999 206.1 26.5999 207.9 24.5999C209 23.2999 210.1 21.9999 210.4 20.1999C210.5 19.5999 210.6 18.9999 210.7 18.3999C210.8 17.8999 211 17.4999 211.3 17.0999C211.8 16.5999 211.8 16.0999 211.4 15.5999C210.3 13.6999 209.3 11.7999 208.3 9.89994C208.2 9.69994 208.1 9.49994 208 9.19994C208.2 8.89994 208.3 8.89994 208.3 8.89994ZM209.3 27.5999C209.3 27.2999 209.2 27.0999 208.9 26.8999C208.7 26.7999 208.5 26.6999 208.3 26.8999C208 27.1999 208.4 27.2999 208.4 27.4999C208.4 27.5999 208.4 27.5999 208.4 27.6999C208.3 27.9999 208.3 28.2999 208.7 28.3999C209.1 28.2999 209.3 27.8999 209.3 27.5999Z" fill="#FE057C"/>
<path d="M306.4 13.4004C307.3 13.4004 308.1 13.4004 309 13.5004C309.6 13.5004 309.9 13.8004 309.9 14.4004C309.9 15.0004 310 15.6004 310 16.2004C310 16.4004 310.2 16.6004 309.9 16.8004C309.6 16.9004 309.3 16.9004 309.1 16.7004C308.8 16.4004 308.6 16.0004 308.4 15.6004C307.7 14.4004 306.6 14.3004 305.4 14.4004C304.2 14.5004 303.1 15.0004 302.6 16.3004C302.3 17.2004 302.6 17.9004 303.1 18.6004C303.8 19.4004 304.7 20.0004 305.6 20.6004C306.8 21.3004 308 22.1004 309 23.0004C311.4 25.2004 311.2 28.4004 308.7 30.4004C306.4 32.1004 303.8 32.2004 301.2 31.5004C299.9 31.2004 299.9 31.1004 299.9 29.8004C299.9 29.2004 299.9 28.5004 299.9 27.9004C299.9 27.6004 299.9 27.3004 300.3 27.3004C300.7 27.3004 300.8 27.6004 300.8 27.9004C300.8 28.0004 300.8 28.1004 300.8 28.2004C301.2 30.1004 302.5 31.1004 304.6 31.0004C306.4 30.9004 307.7 29.6004 307.9 27.8004C308 26.8004 307.5 26.0004 306.9 25.3004C306.1 24.5004 305 23.9004 304 23.3004C303.1 22.8004 302.2 22.2004 301.5 21.5004C300.1 20.0004 299.7 18.3004 300.4 16.5004C301.1 14.6004 302.7 13.8004 304.6 13.6004C305.3 13.4004 305.8 13.4004 306.4 13.4004Z" fill="#FE057C"/>
<path d="M291.2 22.4996C291.1 20.3996 291.2 18.1996 291 16.0996C290.9 15.0996 290.7 14.7996 289.6 14.6996C289.3 14.6996 288.9 14.6996 288.9 14.1996C288.9 13.6996 289.3 13.7996 289.6 13.7996C291.4 13.6996 293.3 13.6996 295.1 13.7996C295.4 13.7996 295.7 13.7996 295.7 14.1996C295.7 14.5996 295.4 14.5996 295.1 14.6996C294.2 14.8996 293.8 15.2996 293.7 16.1996C293.6 20.5996 293.6 24.9996 293.8 29.3996C293.8 30.1996 294.2 30.5996 295 30.6996C295.3 30.6996 295.7 30.6996 295.7 31.1996C295.7 31.6996 295.2 31.5996 295 31.5996C293.2 31.5996 291.4 31.5996 289.6 31.5996C289.3 31.5996 288.9 31.5996 288.9 31.1996C288.9 30.7996 289.3 30.6996 289.6 30.6996C290.6 30.5996 290.9 29.9996 291 29.1996C291.3 26.8996 291.2 24.7996 291.2 22.4996Z" fill="#FE057C"/>
<path d="M223.6 16.0996C225.3 17.3996 227.4 17.3996 229.2 17.7996C230.3 17.9996 231.4 18.2996 232.4 18.8996C234.9 20.3996 235.8 23.4996 234.5 26.0996C234.5 26.1996 234.4 26.2996 234.2 26.4996C234.1 24.6996 233 23.7996 231.7 23.1996C230.4 22.5996 229 21.9996 227.6 21.3996C226.7 20.9996 225.8 20.4996 225 19.7996C223.9 18.8996 223.5 17.6996 223.6 16.0996Z" fill="#FE047B"/>
<path d="M230.601 34.1998C231.101 33.1998 231.201 32.0998 230.901 30.9998C230.601 30.1998 230.201 29.4998 229.801 28.7998C229.201 27.8998 228.601 26.9998 228.101 26.0998C227.501 25.0998 227.201 23.8998 227.401 22.6998C227.501 22.3998 227.501 22.1998 227.901 22.3998C229.101 23.1998 230.501 23.7998 231.701 24.5998C235.201 27.0998 234.301 32.1998 231.101 33.9998C231.001 34.1998 230.901 34.2998 230.601 34.1998Z" fill="#FE047B"/>
<path d="M229.4 16.4998C228.4 16.4998 227.4 16.3998 226.4 16.1998C224.8 15.8998 223.4 15.1998 222.4 13.8998C221.7 12.9998 221 12.1998 220.3 11.2998C219.1 9.69979 217.6 8.49979 215.3 8.09979C216.5 7.89979 217.3 8.19979 218.2 8.59979C219.1 9.09979 220 9.69979 220.6 10.4998C221 11.0998 221.5 11.1998 222.2 11.0998C224.2 10.7998 226.1 11.0998 227.9 11.8998C229.6 12.5998 229.7 13.2998 229.2 15.2998C229.1 15.6998 229 15.9998 229.3 16.2998C229.4 16.2998 229.4 16.3998 229.4 16.4998Z" fill="#FE047B"/>
<path d="M227.601 36.5001C226.001 37.6001 224.401 37.2001 223.501 35.6001C223.101 34.9001 222.801 34.1001 222.401 33.4001C221.901 32.4001 221.201 31.7001 220.101 31.5001C219.601 31.4001 219.101 31.5001 218.701 31.8001C218.101 32.2001 217.901 32.9001 218.101 33.5001C218.301 34.1001 219.101 34.6001 219.701 34.5001C220.401 34.4001 220.801 33.8001 220.701 33.1001C220.601 32.5001 220.001 32.2001 219.301 32.3001C219.201 32.3001 219.101 32.3001 218.901 32.4001C219.601 31.9001 220.201 31.9001 220.801 32.4001C221.301 32.9001 221.401 33.8001 220.901 34.4001C220.301 35.3001 219.101 35.4001 218.101 34.8001C217.901 34.7001 217.701 34.5001 217.501 34.3001C216.401 33.0001 215.001 32.1001 213.101 32.0001C213.501 31.4001 214.001 31.1001 214.501 30.8001C216.201 29.7001 218.001 29.0001 220.101 29.3001C222.001 29.6001 223.301 30.7001 223.801 32.5001C224.001 33.2001 224.001 33.9001 224.201 34.6001C224.601 36.3001 225.301 36.8001 227.001 36.6001C227.201 36.5001 227.301 36.5001 227.601 36.5001Z" fill="#FE057C"/>
<path d="M214.9 9.59978C214.9 8.79978 214.9 8.79978 215.7 8.99978C216.6 9.29978 217.3 9.89978 217.6 10.8998C218 12.1998 218.1 13.4998 218.9 14.6998C219.2 15.0998 218.7 15.0998 218.5 15.0998C217.9 14.9998 217.4 14.6998 216.9 14.2998C215.8 13.1998 214.9 11.2998 214.9 9.59978Z" fill="#FE057C"/>
<path d="M218.5 27.8996C219.3 27.2996 220.1 27.0996 221 26.8996C221.6 26.7996 222.3 26.6996 223 26.4996C225.4 25.9996 226.5 24.3996 225.9 21.9996C225.9 21.8996 225.8 21.7996 225.8 21.5996C226.8 22.1996 227 24.4996 226.1 25.6996C225.6 26.3996 224.9 26.8996 224.1 27.0996C222.3 27.6996 220.4 27.3996 218.5 27.8996Z" fill="#FE057C"/>
<path d="M217.1 20.3002C216.3 20.3002 216 20.1002 215.9 19.4002C215.8 18.6002 216.5 17.8002 217.3 17.7002C217.6 17.7002 218 17.7002 218.3 17.9002C218.8 18.2002 219.1 18.6002 219.1 19.1002C219.1 19.6002 218.6 19.9002 218.2 20.0002C217.8 20.2002 217.5 20.2002 217.1 20.3002ZM217.5 19.0002C217.8 18.9002 218.3 18.9002 218.3 18.5002C218.3 18.1002 218 18.0002 217.6 18.0002C217.2 18.0002 216.8 18.1002 216.8 18.5002C216.8 18.9002 217.2 18.9002 217.5 19.0002Z" fill="#FE057C"/>
<path d="M229.4 16.5002C229.4 16.4002 229.4 16.4002 229.4 16.3002C229.9 16.5002 230.2 16.2002 230.4 15.8002C230.7 15.3002 230.8 14.8002 231 14.2002C232 15.4002 232.8 16.6002 233 18.2002C232.2 16.8002 230.8 16.6002 229.4 16.5002Z" fill="#FE057C"/>
<path d="M231.901 13.3002C231.401 13.2002 231.101 12.5002 230.701 12.7002C230.301 12.9002 230.501 13.6002 230.501 14.0002C230.501 14.3002 230.401 14.6002 230.201 14.9002C230.501 12.9002 230.001 11.4002 227.601 10.8002C228.301 10.7002 228.701 10.9002 229.101 11.0002C229.601 11.2002 229.801 11.2002 229.801 10.6002C229.801 10.1002 229.801 9.6002 230.101 9.2002C229.701 11.0002 230.701 12.1002 231.901 13.3002Z" fill="#FE057C"/>
<path d="M208.101 8.59961C208.101 8.59961 208.201 8.69961 208.101 8.59961C208.101 8.69961 208.101 8.69961 208.101 8.59961C208.101 8.69961 208.101 8.59961 208.101 8.59961Z" fill="#FE057C"/>
<path d="M118.101 76.7998C120.701 77.4998 121.601 79.5998 120.901 81.7998C120.801 82.1998 120.701 82.6998 120.701 83.0998C120.501 83.9998 120.401 84.7998 120.201 85.6998C120.101 86.0998 120.201 86.3998 120.601 86.5998C122.001 87.1998 123.201 88.0998 124.301 89.2998C125.401 90.5998 126.101 92.0998 126.001 93.7998C126.001 94.6998 126.101 95.4998 125.901 96.3998C125.501 98.8998 123.901 100.5 121.901 101.8C118.401 103.9 114.601 104.5 110.601 104.2C107.701 104 104.901 103.2 102.501 101.6C100.701 100.4 99.4008 98.8998 98.9008 96.7998C98.9008 96.6998 98.8008 96.6998 98.8008 96.6998C98.8008 95.2998 98.8008 93.7998 98.8008 92.3998C99.2008 91.8998 99.3008 91.1998 99.6008 90.5998C100.701 88.7998 102.301 87.5998 104.101 86.6998C104.501 86.4998 104.601 86.2998 104.501 85.8998C104.301 84.8998 104.101 83.7998 103.901 82.6998C103.701 81.7998 103.401 80.8998 103.601 79.9998C103.901 78.2998 105.001 77.3998 106.501 76.9998C107.001 76.9998 107.401 76.9998 107.901 76.9998C107.901 76.9998 107.901 77.0998 108.001 77.0998C109.901 77.6998 110.801 78.8998 110.801 80.8998C110.801 82.0998 110.801 83.2998 110.801 84.5998C110.801 84.9998 110.901 85.0998 111.301 85.0998C111.901 85.0998 112.601 84.9998 113.201 85.0998C113.701 85.0998 113.801 84.8998 113.801 84.4998C113.801 83.1998 113.801 81.8998 113.801 80.5998C113.801 79.1998 114.501 78.1998 115.601 77.4998C115.901 77.2998 116.301 77.1998 116.601 76.9998C117.201 76.7998 117.601 76.7998 118.101 76.7998ZM124.901 94.2998C125.101 92.1998 124.201 90.4998 122.601 89.1998C121.601 88.3998 120.501 87.6998 119.301 87.2998C118.901 87.1998 118.801 86.9998 118.901 86.5998C119.301 84.7998 119.501 82.8998 119.901 81.0998C120.201 79.7998 119.201 78.0998 117.601 77.9998C116.101 77.8998 114.901 78.9998 114.901 80.5998C114.901 82.1998 114.901 83.8998 114.901 85.4998C114.901 85.9998 114.801 86.1998 114.301 86.0998C112.901 85.8998 111.601 85.8998 110.201 86.0998C109.701 86.1998 109.601 85.9998 109.601 85.4998C109.601 83.7998 109.601 82.1998 109.601 80.4998C109.601 78.8998 108.301 77.6998 106.801 77.8998C105.301 78.0998 104.301 79.3998 104.601 80.9998C104.901 82.7998 105.301 84.5998 105.601 86.3998C105.701 86.8998 105.601 87.0998 105.201 87.1998C104.301 87.4998 103.601 87.8998 102.801 88.4998C100.801 89.8998 99.5008 91.5998 99.7008 94.1998C99.7008 94.8998 99.6008 95.4998 99.7008 96.1998C100.101 98.0998 101.301 99.3998 102.801 100.5C107.701 103.8 116.201 103.9 121.201 100.7C123.801 99.1998 125.201 97.1998 124.901 94.2998Z" fill="#663405"/>
<path d="M136.1 83.5C137.3 83.5 138.4 83.5 139.6 83.6C142.8 83.9 144.4 85.9 144.2 89.1C144 91.8 142.5 93.3 139.7 93.5C138.8 93.6 137.9 93.6 136.9 93.5C136.4 93.5 136.3 93.6 136.3 94.1C136.3 95.1 136.3 96 136.3 97C136.3 97.7 136 98 135.3 98C134.5 98 133.7 98 132.9 98C132.2 98 131.9 97.6 131.9 97C131.9 92.9 131.9 88.7 131.9 84.6C131.9 83.9 132.2 83.6 133 83.6C134.1 83.5 135.1 83.5 136.1 83.5ZM136.3 88.5C136.3 88.6 136.3 88.7 136.3 88.8C136.3 90.4 136.3 90.4 137.9 90.3C139.3 90.3 140 89.5 139.8 88.1C139.7 86.8 138.8 86.4 136.7 86.6C135.8 86.7 136.5 87.6 136.3 88C136.2 88.2 136.3 88.4 136.3 88.5Z" fill="#1B1528"/>
<path d="M269.001 97.8001C269.001 98.9001 269.001 99.9001 269.001 101C269.001 101.9 268.701 102.2 267.801 102.2C267.101 102.2 266.501 102.2 265.801 102.2C265.001 102.2 264.801 101.9 264.701 101.1C264.701 99.7001 264.701 98.3001 264.701 96.9001C264.701 94.4001 264.701 92.0001 264.701 89.5001C264.701 89.2001 264.701 88.9001 265.101 88.7001C267.801 87.2001 270.701 86.9001 273.601 87.9001C275.301 88.5001 276.201 89.7001 276.501 91.4001C276.801 93.2001 276.701 94.9001 275.601 96.3001C274.301 98.0001 271.701 98.6001 269.601 97.8001C269.401 97.9001 269.301 97.8001 269.001 97.8001ZM269.001 92.5001C269.001 93.0001 269.001 93.5001 269.001 93.9001C269.001 94.8001 269.401 95.2001 270.101 95.4001C271.001 95.6001 271.601 95.3001 272.001 94.6001C272.301 94.0001 272.401 93.3001 272.401 92.6001C272.301 90.7001 271.201 90.2001 269.501 90.5001C269.201 90.5001 269.001 90.7001 269.001 91.0001C269.001 91.5001 269.001 92.0001 269.001 92.5001Z" fill="#1B1528"/>
<path d="M227.701 98.3002C226.201 98.3002 224.701 98.1002 223.301 97.6002C222.901 97.4002 222.501 97.2002 222.101 97.0002C221.601 96.7002 221.501 96.4002 221.901 95.9002C222.201 95.5002 222.501 95.0002 222.701 94.6002C222.901 94.2002 223.201 94.1002 223.601 94.4002C224.901 95.1002 226.301 95.5002 227.901 95.3002C228.701 95.2002 229.201 94.9002 229.301 94.3002C229.401 93.6002 229.001 93.1002 228.401 92.8002C226.901 92.1002 225.301 91.6002 223.901 90.6002C221.901 89.3002 222.001 86.4002 223.001 85.1002C223.601 84.3002 224.401 83.8002 225.401 83.5002C227.601 82.9002 229.801 83.1002 232.001 83.9002C232.301 84.0002 232.601 84.2002 232.901 84.4002C233.301 84.7002 233.401 85.0002 233.101 85.4002C232.701 85.9002 232.501 86.6002 232.001 87.0002C231.401 87.5002 230.901 86.6002 230.301 86.5002C229.401 86.3002 228.401 86.1002 227.501 86.4002C227.001 86.5002 226.701 86.7002 226.601 87.2002C226.501 87.7002 226.601 88.1002 227.001 88.5002C227.501 88.9002 228.001 89.1002 228.501 89.3002C229.601 89.7002 230.701 90.2002 231.801 90.8002C233.201 91.7002 233.701 92.9002 233.601 94.5002C233.501 96.1002 232.601 97.1002 231.201 97.8002C230.101 98.2002 228.901 98.3002 227.701 98.3002Z" fill="#1B1528"/>
<path d="M201.001 93.9996C201.001 94.8996 201.001 95.7996 201.001 96.6996C201.001 97.6996 200.701 97.9996 199.701 97.9996C199.101 97.9996 198.501 97.9996 197.801 97.9996C196.901 97.9996 196.701 97.7996 196.701 96.7996C196.701 93.0996 196.701 89.2996 196.701 85.5996C196.701 85.2996 196.701 84.8996 196.701 84.5996C196.701 83.9996 197.001 83.5996 197.601 83.5996C198.401 83.5996 199.301 83.5996 200.101 83.5996C200.901 83.5996 201.001 84.1996 201.001 84.7996C201.001 86.5996 201.001 88.2996 201.001 90.0996C201.001 90.5996 201.001 90.9996 201.101 91.5996C201.901 90.5996 202.701 89.6996 203.401 88.5996C203.801 87.9996 204.301 87.6996 205.001 87.7996C205.801 87.8996 206.601 87.7996 207.401 87.7996C207.701 87.7996 208.001 87.6996 208.201 88.0996C208.301 88.3996 208.101 88.6996 207.901 88.8996C206.901 90.0996 205.901 91.1996 204.801 92.3996C204.501 92.6996 204.401 92.9996 204.801 93.2996C205.901 94.4996 206.901 95.7996 208.001 96.9996C208.201 97.1996 208.401 97.3996 208.301 97.7996C208.101 98.1996 207.801 97.9996 207.501 97.9996C206.601 97.9996 205.701 97.9996 204.801 97.9996C204.201 97.9996 203.901 97.7996 203.501 97.2996C202.701 96.1996 201.901 95.0996 201.001 93.8996C201.001 93.9996 201.001 93.9996 201.001 93.9996Z" fill="#1D182A"/>
<path d="M242.301 93.6002C241.801 94.9002 241.401 96.1002 241.001 97.3002C240.801 97.8002 240.501 98.0002 240.001 98.0002C239.401 98.0002 238.801 98.0002 238.201 98.0002C237.801 98.0002 237.501 97.9002 237.401 97.4002C236.501 94.4002 235.601 91.4002 234.701 88.4002C234.601 88.0002 234.701 87.8002 235.101 87.8002C236.001 87.8002 236.901 87.8002 237.801 87.8002C238.201 87.8002 238.401 88.0002 238.501 88.4002C238.801 89.9002 239.201 91.3002 239.501 92.8002C239.801 92.8002 239.801 92.5002 239.801 92.4002C240.201 91.4002 240.601 90.4002 240.901 89.4002C241.101 88.9002 241.301 88.7002 241.801 88.7002C243.701 88.8002 243.301 88.4002 244.001 90.2002C244.301 91.1002 244.701 92.0002 245.001 93.0002C245.401 91.4002 245.701 90.1002 246.001 88.6002C246.101 87.9002 246.401 87.7002 247.101 87.7002C247.801 87.8002 248.601 87.7002 249.301 87.7002C249.801 87.7002 250.001 87.8002 249.801 88.3002C248.901 91.3002 248.001 94.3002 247.101 97.3002C247.001 97.7002 246.801 97.9002 246.301 97.9002C246.001 97.9002 245.601 97.9002 245.301 97.9002C243.501 97.9002 243.901 98.2002 243.201 96.4002C243.001 95.6002 242.701 94.6002 242.301 93.6002Z" fill="#1B1528"/>
<path d="M259.201 96.9994C257.701 98.2994 256.001 98.4994 254.301 98.0994C252.401 97.6994 251.301 96.1994 251.201 94.0994C250.901 90.1994 253.301 87.4994 257.301 87.3994C259.101 87.2994 260.801 87.5994 262.501 88.3994C262.901 88.5994 263.101 88.7994 263.101 89.2994C263.101 91.8994 263.101 94.4994 263.101 96.9994C263.101 97.6994 262.901 97.8994 262.201 97.8994C261.701 97.8994 261.301 97.8994 260.801 97.8994C259.901 97.9994 259.301 97.9994 259.201 96.9994ZM258.901 92.4994C258.901 91.9994 258.901 91.3994 258.901 90.8994C258.901 90.5994 258.801 90.4994 258.501 90.3994C257.601 90.2994 256.701 90.2994 256.101 91.0994C255.401 91.8994 255.101 93.6994 255.601 94.5994C255.901 95.2994 256.701 95.5994 257.701 95.3994C258.401 95.1994 258.801 94.6994 258.901 93.9994C258.901 93.3994 258.901 92.9994 258.901 92.4994Z" fill="#1B1528"/>
<path d="M191.1 97.0997C189.2 98.4997 187.3 98.6997 185.2 97.7997C183.5 96.9997 182.7 94.8997 183 92.5997C183.4 89.6997 185.2 87.8997 188.4 87.4997C190.5 87.1997 192.5 87.4997 194.3 88.4997C194.6 88.6997 194.8 88.8997 194.8 89.1997C194.8 91.7997 194.8 94.4997 194.8 97.0997C194.8 97.6997 194.6 97.8997 194 97.8997C193.5 97.8997 192.9 97.8997 192.4 97.8997C191.7 97.9997 191.1 97.9997 191.1 97.0997ZM190.7 92.4997C190.7 92.4997 190.8 92.4997 190.7 92.4997C190.7 91.9997 190.7 91.3997 190.7 90.8997C190.7 90.5997 190.6 90.4997 190.3 90.3997C189.2 90.0997 187.9 90.6997 187.5 91.6997C187.1 92.4997 187.1 93.3997 187.3 94.2997C187.5 95.0997 188.2 95.4997 189.2 95.2997C190.1 95.1997 190.6 94.6997 190.6 93.8997C190.8 93.4997 190.7 92.9997 190.7 92.4997Z" fill="#1B1528"/>
<path d="M156.601 93.2996C156.601 94.5996 156.601 95.8996 156.601 97.1996C156.601 97.7996 156.401 97.9996 155.801 97.9996C155.101 97.9996 154.501 97.9996 153.801 97.9996C153.401 97.9996 153.101 97.8996 153.001 97.4996C152.901 96.9996 152.701 97.1996 152.401 97.3996C150.701 98.6996 147.801 98.6996 146.301 97.2996C144.901 96.0996 144.701 94.3996 144.901 92.6996C145.201 89.6996 147.201 87.8996 150.401 87.4996C152.301 87.2996 154.201 87.4996 156.001 88.3996C156.501 88.5996 156.701 88.8996 156.701 89.4996C156.501 90.7996 156.601 91.9996 156.601 93.2996ZM152.601 92.4996C152.601 91.9996 152.601 91.4996 152.601 91.0996C152.601 90.5996 152.401 90.4996 152.001 90.3996C150.901 90.2996 150.101 90.5996 149.501 91.4996C148.901 92.4996 148.901 94.0996 149.501 94.8996C149.901 95.3996 150.801 95.5996 151.501 95.3996C152.201 95.1996 152.501 94.6996 152.501 93.9996C152.601 93.3996 152.601 92.9996 152.601 92.4996Z" fill="#1B1528"/>
<path d="M162 88.6994C163.3 87.6994 164.6 87.3994 166.1 87.3994C168.2 87.4994 169.6 88.7994 169.7 90.8994C169.7 92.8994 169.7 94.8994 169.7 96.8994C169.7 97.5994 169.4 97.8994 168.7 97.8994C168 97.8994 167.3 97.8994 166.5 97.8994C165.6 97.8994 165.3 97.5994 165.3 96.6994C165.3 94.9994 165.3 93.2994 165.3 91.5994C165.3 90.5994 165 90.2994 164.1 90.2994C163.2 90.2994 162.7 90.6994 162.7 91.6994C162.7 93.3994 162.7 94.9994 162.7 96.6994C162.7 97.6994 162.4 97.9994 161.4 97.9994C160.8 97.9994 160.2 97.9994 159.6 97.9994C158.7 97.9994 158.4 97.7994 158.4 96.7994C158.4 94.8994 158.4 92.9994 158.4 91.0994C158.4 90.2994 158.4 89.4994 158.4 88.6994C158.4 87.8994 158.5 87.7994 159.3 87.7994C159.9 87.7994 160.4 87.7994 161 87.7994C161.6 87.6994 162 87.8994 162 88.6994Z" fill="#1B1528"/>
<path d="M216.5 93.7995C215.5 93.7995 214.5 93.7995 213.5 93.7995C212.9 93.7995 212.9 94.0995 213.1 94.4995C213.4 95.2995 214.1 95.5995 214.9 95.6995C216.1 95.7995 217.2 95.7995 218.3 95.1995C218.8 94.8995 219.2 94.9995 219.4 95.5995C219.5 95.7995 219.6 95.9995 219.7 96.1995C220.2 97.1995 220.2 97.2995 219.2 97.6995C216.8 98.6995 214.3 98.7995 211.9 97.7995C209.7 96.8995 208.7 94.7995 209 92.2995C209.4 89.3995 211.2 87.7995 214.1 87.5995C215.3 87.4995 216.5 87.5995 217.7 87.9995C220.1 88.8995 220.8 91.0995 220.7 92.9995C220.7 93.5995 220.3 93.8995 219.6 93.8995C218.6 93.7995 217.6 93.7995 216.5 93.7995ZM214.9 91.6995C215.4 91.6995 216 91.6995 216.5 91.6995C216.8 91.6995 216.8 91.5995 216.8 91.2995C216.7 90.4995 216.1 89.9995 215.2 89.9995C214.1 89.8995 213.3 90.3995 213.1 91.0995C213 91.4995 213 91.6995 213.5 91.6995C214 91.5995 214.4 91.6995 214.9 91.6995Z" fill="#1D182A"/>
<path d="M177.501 98.3002C175.501 98.3002 173.801 98.1002 172.401 96.8002C170.801 95.2002 170.701 93.3002 171.201 91.3002C171.701 89.2002 173.301 88.1002 175.401 87.7002C177.101 87.4002 178.901 87.4002 180.601 88.1002C180.801 88.2002 180.901 88.2002 181.101 88.3002C182.001 88.8002 182.001 88.9002 181.501 89.8002C181.301 90.2002 181.101 90.5002 180.901 90.9002C180.701 91.3002 180.401 91.4002 180.001 91.1002C179.201 90.6002 178.301 90.3002 177.401 90.4002C176.501 90.5002 175.801 91.0002 175.501 91.9002C175.201 92.9002 175.201 93.9002 176.001 94.8002C176.801 95.6002 177.901 95.6002 178.901 95.3002C179.401 95.2002 179.801 95.0002 180.201 94.7002C180.501 94.5002 180.801 94.5002 181.001 94.9002C181.301 95.4002 181.601 95.9002 181.901 96.4002C182.201 96.8002 182.101 97.1002 181.701 97.3002C180.201 98.0002 178.801 98.3002 177.501 98.3002Z" fill="#1B1528"/>
<path d="M99.9011 94.2994C99.7011 91.6994 101.001 89.9993 103.001 88.5993C103.701 88.0993 104.501 87.5993 105.401 87.2993C105.801 87.0993 105.901 86.8993 105.801 86.4993C105.401 84.6993 105.101 82.8993 104.801 81.0993C104.501 79.4993 105.501 78.1993 107.001 77.9993C108.501 77.7993 109.701 78.9993 109.801 80.5993C109.801 82.2993 109.801 83.8993 109.801 85.5993C109.801 86.0993 109.901 86.1993 110.401 86.1993C111.801 85.9993 113.101 85.9993 114.501 86.1993C115.001 86.2993 115.101 85.9993 115.101 85.5993C115.101 83.9993 115.101 82.2993 115.101 80.6993C115.101 79.0993 116.301 77.9993 117.801 78.0993C119.401 78.1993 120.401 79.8993 120.101 81.1993C119.701 82.9993 119.401 84.8993 119.101 86.6993C119.001 87.0993 119.101 87.2993 119.501 87.3993C120.701 87.7993 121.801 88.4993 122.801 89.2993C124.401 90.5993 125.301 92.2993 125.101 94.3993C124.601 96.4993 123.201 97.9993 121.401 99.0993C119.001 100.499 116.401 101.099 113.601 101.299C110.901 101.499 108.301 101.099 105.801 100.099C102.901 98.7993 100.601 97.2994 99.9011 94.2994ZM108.901 92.9993C108.901 92.3993 108.701 91.7993 108.401 91.3993C107.901 90.7993 107.201 90.7993 106.601 91.3993C105.901 92.1993 105.901 93.7993 106.601 94.5993C107.201 95.2993 108.001 95.1993 108.401 94.4993C108.801 93.9993 108.901 93.4993 108.901 92.9993ZM118.501 93.0993C118.501 92.3993 118.401 91.8993 118.001 91.3993C117.501 90.6993 116.701 90.7993 116.201 91.3993C115.601 92.1993 115.601 93.6993 116.201 94.4993C116.801 95.1993 117.601 95.1993 118.101 94.3993C118.401 93.9993 118.501 93.4993 118.501 93.0993Z" fill="#D0874F"/>
<path d="M99.901 94.3002C100.601 97.3002 102.901 98.9002 105.601 99.9002C108.101 100.9 110.701 101.3 113.401 101.1C116.101 100.9 118.801 100.4 121.201 98.9002C123.001 97.8002 124.401 96.4002 124.901 94.2002C125.301 97.1002 123.801 99.1002 121.501 100.6C116.501 103.8 108.001 103.8 103.101 100.4C101.501 99.4002 100.301 98.0002 100.001 96.1002C99.801 95.6002 99.901 94.9002 99.901 94.3002Z" fill="#FBD98D"/>
<path d="M108.901 93.0002C108.901 93.5002 108.801 94.0002 108.501 94.5002C108.001 95.2002 107.201 95.3002 106.701 94.6002C106.001 93.8002 106.001 92.2002 106.701 91.4002C107.201 90.8002 107.901 90.8002 108.501 91.4002C108.701 91.8002 108.901 92.3002 108.901 93.0002Z" fill="#663405"/>
<path d="M118.501 93.0996C118.501 93.5996 118.401 93.9996 118.101 94.4996C117.601 95.2996 116.801 95.3996 116.201 94.5996C115.601 93.7996 115.601 92.2996 116.201 91.4996C116.701 90.7996 117.501 90.7996 118.001 91.4996C118.401 91.8996 118.501 92.3996 118.501 93.0996Z" fill="#663405"/>
</svg>
