<svg xmlns="http://www.w3.org/2000/svg" width="53" height="55" viewBox="0 0 53 55"><g><g><path fill="#29a5dc" d="M22.556 24.14c-1.693 1.929-1.677 3.184.007 5.123 5.77 6.643 11.546 13.282 17.314 19.927 7.69-4.234 12.902-12.416 12.902-21.816 0-9.666-5.51-18.046-13.561-22.168-5.553 6.313-11.114 12.618-16.662 18.935z"/></g><g><path fill="#fcfcfc" d="M48.853 22.12c-.098.557-.19 1.09-.286 1.628a.71.71 0 0 1-.7.589c-2.585-.001-12.61-.006-13.316.002-1.698.019-3.307 1.646-3.314 3.342-.005 1.163.853 2.091 2.011 2.161.376.023 3.797.021 4.173.009.081-.003.218-.082.231-.147.101-.481.177-.967.266-1.482h-2.475l.386-2.219h4.706l-1.056 6.029c-.03.019-3.092.038-3.108.037-1.393-.025-2.797.168-4.173-.118-1.524-.312-3.06-1.866-3.155-3.627-.135-2.537 1.075-4.321 3.21-5.544.83-.474 1.74-.679 2.702-.663.96.015 13.748.003 13.898.003z"/></g><g><path fill="#fcfcfc" d="M42.76 25.981l-.587 3.31c-.162.912-.32 1.825-.486 2.774.726 0 1.08.005 1.78-.01.058-.002.489.008.577-.507.333-1.949.62-3.618.956-5.567z"/></g><g><path fill="#f0f" d="M16.963 34.786c-1.272-1.45-2.675-1.41-4.005.043-1.935 2.116-3.839 4.26-5.75 6.4 4.467 6.654 12.062 11.034 20.68 11.034 1.364 0 2.701-.11 4.005-.322-4.972-5.722-9.93-11.456-14.93-17.155z"/></g><g><path fill="#29a5dc" d="M12.64 18.101c1.735 1.98 3.057 1.965 4.813-.047 4.477-5.127 8.945-10.26 13.416-15.392a25.047 25.047 0 0 0-2.98-.179c-8.216 0-15.502 3.982-20.035 10.121 1.593 1.834 3.184 3.67 4.786 5.497z"/></g><g><path fill="#f0f" d="M7.967 24.8c-.07-.094-2.467-2.559-4.044-4.169a24.916 24.916 0 0 0-.925 6.742c0 2.169.278 4.273.8 6.279 1.653-1.993 3.724-4.434 4.143-4.956 1.07-1.334 1.055-2.529.026-3.896z"/></g><g><path fill="none" stroke="#29a5dc" stroke-linecap="round" stroke-miterlimit="20" d="M37.34 5.044c-5.553 6.313-11.115 12.618-16.663 18.935-1.693 1.928-1.677 3.184.007 5.122 5.771 6.643 11.546 13.282 17.314 19.928"/></g><g><path fill="none" stroke="#f0f" stroke-linecap="round" stroke-miterlimit="20" d="M5.59 33.713c1.655-1.993 3.726-4.434 4.145-4.956 1.069-1.333 1.055-2.528.025-3.896a82.804 82.804 0 0 0-1.34-1.394"/></g><g><path fill="none" stroke="#f0f" stroke-linecap="round" stroke-miterlimit="20" d="M32.035 49.747c-4.972-5.722-9.932-11.456-14.93-17.155-1.272-1.451-2.675-1.411-4.005.043"/></g></g></svg>