<svg xmlns="http://www.w3.org/2000/svg" xmlns:xlink="http://www.w3.org/1999/xlink" viewBox="0 0 50.02744 50.02744"><defs><style>.a{fill:#fff;}.b{fill:url(#a);}.c{clip-path:url(#b);}</style><linearGradient id="a" y1="25.01372" x2="50.02744" y2="25.01372" gradientUnits="userSpaceOnUse"><stop offset="0" stop-color="#f4eba8"/><stop offset="0.58" stop-color="#ca9a45"/><stop offset="1" stop-color="#936228"/></linearGradient><clipPath id="b"><path class="a" d="M14.33224,17.28314H35.61507L38.523,19.40688H21.88371v.01626h-.09854V26.834l-6.4255-7.42711h-1.858v9.39037l-6.59483-6.0914,7.42543-5.42271M36.112,15.62672H13.83574L4.35043,22.55327,24.97389,41.60306l20.623-19.04979ZM15.89826,31.01163V23.47116l6.33964,7.252h2.04267V26.03711h4.89775V24.25226H24.28057V21.33451h7.40725V30.7232h2.3794V21.33546h7.09683l1.87669,1.37039c-1.3558,1.25272-17.11691,15.81085-18.06685,16.68833Z"/></clipPath></defs><circle class="b" cx="25.01372" cy="25.01372" r="25.01372"/><path class="a" d="M14.33224,17.28314H35.61507L38.523,19.40688H21.88371v.01626h-.09854V26.834l-6.4255-7.42711h-1.858v9.39037l-6.59483-6.0914,7.42543-5.42271M36.112,15.62672H13.83574L4.35043,22.55327,24.97389,41.60306l20.623-19.04979ZM15.89826,31.01163V23.47116l6.33964,7.252h2.04267V26.03711h4.89775V24.25226H24.28057V21.33451h7.40725V30.7232h2.3794V21.33546h7.09683l1.87669,1.37039c-1.3558,1.25272-17.11691,15.81085-18.06685,16.68833Z"/><g class="c"><rect class="a" x="2.22286" y="15.73841" width="43.37401" height="29.48673"/></g></svg>